<svg width="660" height="450" viewBox="0 0 660 450" fill="none" xmlns="http://www.w3.org/2000/svg">
<rect width="660" height="450" fill="white"/>
<path d="M267.818 55.8636V67.5H266.409V55.8636H267.818ZM274.234 67.5H270.643V55.8636H274.393C275.522 55.8636 276.488 56.0966 277.291 56.5625C278.094 57.0246 278.71 57.6894 279.138 58.5568C279.566 59.4205 279.78 60.4545 279.78 61.6591C279.78 62.8712 279.564 63.9148 279.132 64.7898C278.7 65.661 278.071 66.3314 277.246 66.8011C276.42 67.267 275.416 67.5 274.234 67.5ZM272.053 66.25H274.143C275.106 66.25 275.903 66.0644 276.536 65.6932C277.168 65.322 277.64 64.7936 277.95 64.108C278.261 63.4223 278.416 62.6061 278.416 61.6591C278.416 60.7197 278.263 59.911 277.956 59.233C277.649 58.5511 277.191 58.0284 276.581 57.6648C275.971 57.2973 275.212 57.1136 274.303 57.1136H272.053V66.25Z" fill="#495057"/>
<rect x="265.25" y="79.25" width="362.5" height="34.5" rx="7.75" stroke="#495057" stroke-opacity="0.5" stroke-width="0.5"/>
<path d="M275.636 131.864V143.5H274.273L267.932 134.364H267.818V143.5H266.409V131.864H267.773L274.136 141.023H274.25V131.864H275.636ZM281.82 143.682C281.032 143.682 280.34 143.494 279.746 143.119C279.155 142.744 278.693 142.22 278.359 141.545C278.03 140.871 277.865 140.083 277.865 139.182C277.865 138.273 278.03 137.479 278.359 136.801C278.693 136.123 279.155 135.597 279.746 135.222C280.34 134.847 281.032 134.659 281.82 134.659C282.607 134.659 283.297 134.847 283.888 135.222C284.482 135.597 284.945 136.123 285.274 136.801C285.607 137.479 285.774 138.273 285.774 139.182C285.774 140.083 285.607 140.871 285.274 141.545C284.945 142.22 284.482 142.744 283.888 143.119C283.297 143.494 282.607 143.682 281.82 143.682ZM281.82 142.477C282.418 142.477 282.911 142.324 283.297 142.017C283.683 141.71 283.969 141.307 284.155 140.807C284.34 140.307 284.433 139.765 284.433 139.182C284.433 138.598 284.34 138.055 284.155 137.551C283.969 137.047 283.683 136.64 283.297 136.33C282.911 136.019 282.418 135.864 281.82 135.864C281.221 135.864 280.729 136.019 280.342 136.33C279.956 136.64 279.67 137.047 279.484 137.551C279.299 138.055 279.206 138.598 279.206 139.182C279.206 139.765 279.299 140.307 279.484 140.807C279.67 141.307 279.956 141.71 280.342 142.017C280.729 142.324 281.221 142.477 281.82 142.477ZM287.821 143.5V134.773H289.116V136.136H289.23C289.412 135.67 289.705 135.309 290.111 135.051C290.516 134.79 291.003 134.659 291.571 134.659C292.147 134.659 292.626 134.79 293.009 135.051C293.395 135.309 293.696 135.67 293.912 136.136H294.003C294.226 135.686 294.562 135.328 295.009 135.062C295.455 134.794 295.991 134.659 296.616 134.659C297.397 134.659 298.035 134.903 298.531 135.392C299.027 135.877 299.276 136.633 299.276 137.659V143.5H297.935V137.659C297.935 137.015 297.759 136.555 297.406 136.278C297.054 136.002 296.639 135.864 296.162 135.864C295.548 135.864 295.073 136.049 294.736 136.42C294.399 136.788 294.23 137.254 294.23 137.818V143.5H292.866V137.523C292.866 137.027 292.705 136.627 292.384 136.324C292.062 136.017 291.647 135.864 291.139 135.864C290.791 135.864 290.465 135.956 290.162 136.142C289.863 136.328 289.62 136.585 289.435 136.915C289.253 137.241 289.162 137.617 289.162 138.045V143.5H287.821ZM305.386 143.682C304.545 143.682 303.82 143.496 303.21 143.125C302.604 142.75 302.136 142.227 301.807 141.557C301.481 140.883 301.318 140.098 301.318 139.205C301.318 138.311 301.481 137.523 301.807 136.841C302.136 136.155 302.595 135.621 303.182 135.239C303.773 134.852 304.462 134.659 305.25 134.659C305.705 134.659 306.153 134.735 306.597 134.886C307.04 135.038 307.443 135.284 307.807 135.625C308.17 135.962 308.46 136.409 308.676 136.966C308.892 137.523 309 138.208 309 139.023V139.591H302.273V138.432H307.636C307.636 137.939 307.538 137.5 307.341 137.114C307.148 136.727 306.871 136.422 306.511 136.199C306.155 135.975 305.735 135.864 305.25 135.864C304.716 135.864 304.254 135.996 303.864 136.261C303.477 136.523 303.18 136.864 302.972 137.284C302.763 137.705 302.659 138.155 302.659 138.636V139.409C302.659 140.068 302.773 140.627 303 141.085C303.231 141.54 303.551 141.886 303.96 142.125C304.369 142.36 304.845 142.477 305.386 142.477C305.739 142.477 306.057 142.428 306.341 142.33C306.629 142.227 306.877 142.076 307.085 141.875C307.294 141.67 307.455 141.417 307.568 141.114L308.864 141.477C308.727 141.917 308.498 142.303 308.176 142.636C307.854 142.966 307.456 143.223 306.983 143.409C306.509 143.591 305.977 143.682 305.386 143.682Z" fill="#495057"/>
<rect x="265.25" y="155.25" width="362.5" height="34.5" rx="7.75" stroke="#495057" stroke-opacity="0.5" stroke-width="0.5"/>
<path d="M270.636 215.864H272.182L273.477 217.568L273.818 218.023L275.75 220.591H274.205L272.932 218.886L272.614 218.455L270.636 215.864ZM276.227 213.682C276.227 214.909 276.006 215.97 275.562 216.864C275.119 217.758 274.511 218.447 273.739 218.932C272.966 219.417 272.083 219.659 271.091 219.659C270.098 219.659 269.216 219.417 268.443 218.932C267.67 218.447 267.063 217.758 266.619 216.864C266.176 215.97 265.955 214.909 265.955 213.682C265.955 212.455 266.176 211.394 266.619 210.5C267.063 209.606 267.67 208.917 268.443 208.432C269.216 207.947 270.098 207.705 271.091 207.705C272.083 207.705 272.966 207.947 273.739 208.432C274.511 208.917 275.119 209.606 275.562 210.5C276.006 211.394 276.227 212.455 276.227 213.682ZM274.864 213.682C274.864 212.674 274.695 211.824 274.358 211.131C274.025 210.438 273.572 209.913 273 209.557C272.432 209.201 271.795 209.023 271.091 209.023C270.386 209.023 269.748 209.201 269.176 209.557C268.608 209.913 268.155 210.438 267.818 211.131C267.485 211.824 267.318 212.674 267.318 213.682C267.318 214.689 267.485 215.54 267.818 216.233C268.155 216.926 268.608 217.451 269.176 217.807C269.748 218.163 270.386 218.341 271.091 218.341C271.795 218.341 272.432 218.163 273 217.807C273.572 217.451 274.025 216.926 274.358 216.233C274.695 215.54 274.864 214.689 274.864 213.682ZM283.915 215.932V210.773H285.256V219.5H283.915V218.023H283.824C283.619 218.466 283.301 218.843 282.869 219.153C282.438 219.46 281.892 219.614 281.233 219.614C280.688 219.614 280.203 219.494 279.778 219.256C279.354 219.013 279.021 218.65 278.778 218.165C278.536 217.676 278.415 217.061 278.415 216.318V210.773H279.756V216.227C279.756 216.864 279.934 217.371 280.29 217.75C280.65 218.129 281.108 218.318 281.665 218.318C281.998 218.318 282.337 218.233 282.682 218.062C283.03 217.892 283.322 217.631 283.557 217.278C283.795 216.926 283.915 216.477 283.915 215.932ZM290.28 219.705C289.727 219.705 289.225 219.6 288.774 219.392C288.323 219.18 287.965 218.875 287.7 218.477C287.435 218.076 287.303 217.591 287.303 217.023C287.303 216.523 287.401 216.117 287.598 215.807C287.795 215.492 288.058 215.246 288.388 215.068C288.717 214.89 289.081 214.758 289.479 214.67C289.88 214.58 290.284 214.508 290.689 214.455C291.219 214.386 291.649 214.335 291.979 214.301C292.312 214.263 292.554 214.201 292.706 214.114C292.861 214.027 292.939 213.875 292.939 213.659V213.614C292.939 213.053 292.786 212.617 292.479 212.307C292.176 211.996 291.715 211.841 291.098 211.841C290.458 211.841 289.956 211.981 289.592 212.261C289.229 212.542 288.973 212.841 288.825 213.159L287.553 212.705C287.78 212.174 288.083 211.761 288.462 211.466C288.844 211.167 289.261 210.958 289.712 210.841C290.166 210.72 290.613 210.659 291.053 210.659C291.333 210.659 291.655 210.693 292.018 210.761C292.386 210.826 292.74 210.96 293.081 211.165C293.426 211.369 293.712 211.678 293.939 212.091C294.166 212.504 294.28 213.057 294.28 213.75V219.5H292.939V218.318H292.871C292.78 218.508 292.628 218.71 292.416 218.926C292.204 219.142 291.922 219.326 291.57 219.477C291.217 219.629 290.787 219.705 290.28 219.705ZM290.484 218.5C291.015 218.5 291.462 218.396 291.825 218.188C292.193 217.979 292.469 217.71 292.655 217.381C292.844 217.051 292.939 216.705 292.939 216.341V215.114C292.882 215.182 292.757 215.244 292.564 215.301C292.375 215.354 292.155 215.402 291.905 215.443C291.659 215.481 291.418 215.515 291.183 215.545C290.952 215.572 290.765 215.595 290.621 215.614C290.272 215.659 289.946 215.733 289.643 215.835C289.344 215.934 289.102 216.083 288.916 216.284C288.734 216.481 288.643 216.75 288.643 217.091C288.643 217.557 288.816 217.909 289.161 218.148C289.509 218.383 289.95 218.5 290.484 218.5ZM298.068 214.25V219.5H296.727V210.773H298.023V212.136H298.136C298.341 211.693 298.652 211.337 299.068 211.068C299.485 210.795 300.023 210.659 300.682 210.659C301.273 210.659 301.79 210.78 302.233 211.023C302.676 211.261 303.021 211.625 303.267 212.114C303.513 212.598 303.636 213.212 303.636 213.955V219.5H302.295V214.045C302.295 213.36 302.117 212.826 301.761 212.443C301.405 212.057 300.917 211.864 300.295 211.864C299.867 211.864 299.485 211.956 299.148 212.142C298.814 212.328 298.551 212.598 298.358 212.955C298.165 213.311 298.068 213.742 298.068 214.25ZM309.882 210.773V211.909H305.359V210.773H309.882ZM306.678 208.682H308.018V217C308.018 217.379 308.073 217.663 308.183 217.852C308.297 218.038 308.441 218.163 308.615 218.227C308.793 218.288 308.981 218.318 309.178 218.318C309.325 218.318 309.446 218.311 309.541 218.295C309.636 218.277 309.712 218.261 309.768 218.25L310.041 219.455C309.95 219.489 309.823 219.523 309.661 219.557C309.498 219.595 309.291 219.614 309.041 219.614C308.662 219.614 308.291 219.532 307.928 219.369C307.568 219.206 307.268 218.958 307.03 218.625C306.795 218.292 306.678 217.871 306.678 217.364V208.682ZM311.899 219.5V210.773H313.24V219.5H311.899ZM312.581 209.318C312.32 209.318 312.094 209.229 311.905 209.051C311.719 208.873 311.626 208.659 311.626 208.409C311.626 208.159 311.719 207.945 311.905 207.767C312.094 207.589 312.32 207.5 312.581 207.5C312.842 207.5 313.066 207.589 313.251 207.767C313.441 207.945 313.536 208.159 313.536 208.409C313.536 208.659 313.441 208.873 313.251 209.051C313.066 209.229 312.842 209.318 312.581 209.318ZM318.991 219.682C318.264 219.682 317.622 219.498 317.065 219.131C316.509 218.759 316.073 218.237 315.759 217.562C315.444 216.884 315.287 216.083 315.287 215.159C315.287 214.242 315.444 213.447 315.759 212.773C316.073 212.098 316.51 211.578 317.071 211.21C317.632 210.843 318.279 210.659 319.014 210.659C319.582 210.659 320.031 210.754 320.361 210.943C320.694 211.129 320.948 211.341 321.122 211.58C321.3 211.814 321.438 212.008 321.537 212.159H321.651V207.864H322.991V219.5H321.696V218.159H321.537C321.438 218.318 321.298 218.519 321.116 218.761C320.935 219 320.675 219.214 320.338 219.403C320.001 219.589 319.552 219.682 318.991 219.682ZM319.173 218.477C319.711 218.477 320.166 218.337 320.537 218.057C320.908 217.773 321.19 217.381 321.384 216.881C321.577 216.377 321.673 215.795 321.673 215.136C321.673 214.485 321.579 213.915 321.389 213.426C321.2 212.934 320.92 212.551 320.548 212.278C320.177 212.002 319.719 211.864 319.173 211.864C318.605 211.864 318.132 212.009 317.753 212.301C317.378 212.589 317.096 212.981 316.906 213.477C316.721 213.97 316.628 214.523 316.628 215.136C316.628 215.758 316.723 216.322 316.912 216.83C317.105 217.333 317.389 217.735 317.764 218.034C318.143 218.33 318.613 218.477 319.173 218.477ZM328.202 219.705C327.649 219.705 327.147 219.6 326.696 219.392C326.245 219.18 325.887 218.875 325.622 218.477C325.357 218.076 325.224 217.591 325.224 217.023C325.224 216.523 325.323 216.117 325.52 215.807C325.717 215.492 325.98 215.246 326.31 215.068C326.639 214.89 327.003 214.758 327.401 214.67C327.802 214.58 328.205 214.508 328.611 214.455C329.141 214.386 329.571 214.335 329.901 214.301C330.234 214.263 330.476 214.201 330.628 214.114C330.783 214.027 330.861 213.875 330.861 213.659V213.614C330.861 213.053 330.707 212.617 330.401 212.307C330.098 211.996 329.637 211.841 329.02 211.841C328.38 211.841 327.878 211.981 327.514 212.261C327.151 212.542 326.895 212.841 326.747 213.159L325.474 212.705C325.702 212.174 326.005 211.761 326.384 211.466C326.766 211.167 327.183 210.958 327.634 210.841C328.088 210.72 328.535 210.659 328.974 210.659C329.255 210.659 329.577 210.693 329.94 210.761C330.308 210.826 330.662 210.96 331.003 211.165C331.348 211.369 331.634 211.678 331.861 212.091C332.088 212.504 332.202 213.057 332.202 213.75V219.5H330.861V218.318H330.793C330.702 218.508 330.55 218.71 330.338 218.926C330.126 219.142 329.844 219.326 329.491 219.477C329.139 219.629 328.709 219.705 328.202 219.705ZM328.406 218.5C328.937 218.5 329.384 218.396 329.747 218.188C330.115 217.979 330.391 217.71 330.577 217.381C330.766 217.051 330.861 216.705 330.861 216.341V215.114C330.804 215.182 330.679 215.244 330.486 215.301C330.296 215.354 330.077 215.402 329.827 215.443C329.58 215.481 329.34 215.515 329.105 215.545C328.874 215.572 328.687 215.595 328.543 215.614C328.194 215.659 327.868 215.733 327.565 215.835C327.266 215.934 327.024 216.083 326.838 216.284C326.656 216.481 326.565 216.75 326.565 217.091C326.565 217.557 326.738 217.909 327.082 218.148C327.431 218.383 327.872 218.5 328.406 218.5ZM337.945 219.682C337.217 219.682 336.575 219.498 336.018 219.131C335.462 218.759 335.026 218.237 334.712 217.562C334.397 216.884 334.24 216.083 334.24 215.159C334.24 214.242 334.397 213.447 334.712 212.773C335.026 212.098 335.464 211.578 336.024 211.21C336.585 210.843 337.232 210.659 337.967 210.659C338.536 210.659 338.984 210.754 339.314 210.943C339.647 211.129 339.901 211.341 340.075 211.58C340.253 211.814 340.392 212.008 340.49 212.159H340.604V207.864H341.945V219.5H340.649V218.159H340.49C340.392 218.318 340.251 218.519 340.07 218.761C339.888 219 339.628 219.214 339.291 219.403C338.954 219.589 338.505 219.682 337.945 219.682ZM338.126 218.477C338.664 218.477 339.119 218.337 339.49 218.057C339.861 217.773 340.143 217.381 340.337 216.881C340.53 216.377 340.626 215.795 340.626 215.136C340.626 214.485 340.532 213.915 340.342 213.426C340.153 212.934 339.873 212.551 339.501 212.278C339.13 212.002 338.672 211.864 338.126 211.864C337.558 211.864 337.085 212.009 336.706 212.301C336.331 212.589 336.049 212.981 335.859 213.477C335.674 213.97 335.581 214.523 335.581 215.136C335.581 215.758 335.676 216.322 335.865 216.83C336.058 217.333 336.342 217.735 336.717 218.034C337.096 218.33 337.566 218.477 338.126 218.477ZM348.246 219.682C347.405 219.682 346.679 219.496 346.07 219.125C345.464 218.75 344.996 218.227 344.666 217.557C344.34 216.883 344.178 216.098 344.178 215.205C344.178 214.311 344.34 213.523 344.666 212.841C344.996 212.155 345.454 211.621 346.041 211.239C346.632 210.852 347.321 210.659 348.109 210.659C348.564 210.659 349.013 210.735 349.456 210.886C349.899 211.038 350.303 211.284 350.666 211.625C351.03 211.962 351.32 212.409 351.536 212.966C351.751 213.523 351.859 214.208 351.859 215.023V215.591H345.132V214.432H350.496C350.496 213.939 350.397 213.5 350.2 213.114C350.007 212.727 349.731 212.422 349.371 212.199C349.015 211.975 348.594 211.864 348.109 211.864C347.575 211.864 347.113 211.996 346.723 212.261C346.337 212.523 346.039 212.864 345.831 213.284C345.623 213.705 345.518 214.155 345.518 214.636V215.409C345.518 216.068 345.632 216.627 345.859 217.085C346.09 217.54 346.411 217.886 346.82 218.125C347.229 218.36 347.704 218.477 348.246 218.477C348.598 218.477 348.916 218.428 349.2 218.33C349.488 218.227 349.736 218.076 349.945 217.875C350.153 217.67 350.314 217.417 350.428 217.114L351.723 217.477C351.587 217.917 351.357 218.303 351.036 218.636C350.714 218.966 350.316 219.223 349.842 219.409C349.369 219.591 348.837 219.682 348.246 219.682ZM358.581 219.5V207.864H365.604V209.114H359.99V213.045H365.24V214.295H359.99V218.25H365.695V219.5H358.581ZM374.143 212.727L372.939 213.068C372.863 212.867 372.751 212.672 372.604 212.483C372.46 212.29 372.263 212.131 372.013 212.006C371.763 211.881 371.443 211.818 371.053 211.818C370.518 211.818 370.073 211.941 369.717 212.188C369.365 212.43 369.189 212.739 369.189 213.114C369.189 213.447 369.31 213.71 369.553 213.903C369.795 214.097 370.174 214.258 370.689 214.386L371.984 214.705C372.765 214.894 373.346 215.184 373.729 215.574C374.111 215.96 374.303 216.458 374.303 217.068C374.303 217.568 374.159 218.015 373.871 218.409C373.587 218.803 373.189 219.114 372.678 219.341C372.166 219.568 371.571 219.682 370.893 219.682C370.003 219.682 369.267 219.489 368.683 219.102C368.1 218.716 367.731 218.152 367.575 217.409L368.848 217.091C368.969 217.561 369.198 217.913 369.536 218.148C369.876 218.383 370.321 218.5 370.871 218.5C371.496 218.5 371.992 218.367 372.359 218.102C372.731 217.833 372.916 217.511 372.916 217.136C372.916 216.833 372.81 216.58 372.598 216.375C372.386 216.167 372.06 216.011 371.621 215.909L370.166 215.568C369.367 215.379 368.78 215.085 368.405 214.688C368.034 214.286 367.848 213.784 367.848 213.182C367.848 212.689 367.986 212.254 368.263 211.875C368.543 211.496 368.924 211.199 369.405 210.983C369.89 210.767 370.439 210.659 371.053 210.659C371.916 210.659 372.594 210.848 373.087 211.227C373.583 211.606 373.935 212.106 374.143 212.727ZM380.116 210.773V211.909H375.594V210.773H380.116ZM376.912 208.682H378.253V217C378.253 217.379 378.308 217.663 378.418 217.852C378.531 218.038 378.675 218.163 378.849 218.227C379.027 218.288 379.215 218.318 379.412 218.318C379.56 218.318 379.681 218.311 379.776 218.295C379.87 218.277 379.946 218.261 380.003 218.25L380.276 219.455C380.185 219.489 380.058 219.523 379.895 219.557C379.732 219.595 379.526 219.614 379.276 219.614C378.897 219.614 378.526 219.532 378.162 219.369C377.802 219.206 377.503 218.958 377.264 218.625C377.029 218.292 376.912 217.871 376.912 217.364V208.682ZM385.585 219.682C384.797 219.682 384.106 219.494 383.511 219.119C382.92 218.744 382.458 218.22 382.125 217.545C381.795 216.871 381.631 216.083 381.631 215.182C381.631 214.273 381.795 213.479 382.125 212.801C382.458 212.123 382.92 211.597 383.511 211.222C384.106 210.847 384.797 210.659 385.585 210.659C386.373 210.659 387.063 210.847 387.653 211.222C388.248 211.597 388.71 212.123 389.04 212.801C389.373 213.479 389.54 214.273 389.54 215.182C389.54 216.083 389.373 216.871 389.04 217.545C388.71 218.22 388.248 218.744 387.653 219.119C387.063 219.494 386.373 219.682 385.585 219.682ZM385.585 218.477C386.184 218.477 386.676 218.324 387.062 218.017C387.449 217.71 387.735 217.307 387.92 216.807C388.106 216.307 388.199 215.765 388.199 215.182C388.199 214.598 388.106 214.055 387.92 213.551C387.735 213.047 387.449 212.64 387.062 212.33C386.676 212.019 386.184 211.864 385.585 211.864C384.987 211.864 384.494 212.019 384.108 212.33C383.722 212.64 383.436 213.047 383.25 213.551C383.064 214.055 382.972 214.598 382.972 215.182C382.972 215.765 383.064 216.307 383.25 216.807C383.436 217.307 383.722 217.71 384.108 218.017C384.494 218.324 384.987 218.477 385.585 218.477ZM397.541 222.773V218.159H397.428C397.329 218.318 397.189 218.519 397.007 218.761C396.825 219 396.566 219.214 396.229 219.403C395.892 219.589 395.443 219.682 394.882 219.682C394.155 219.682 393.513 219.498 392.956 219.131C392.399 218.759 391.964 218.237 391.649 217.562C391.335 216.884 391.178 216.083 391.178 215.159C391.178 214.242 391.335 213.447 391.649 212.773C391.964 212.098 392.401 211.578 392.962 211.21C393.522 210.843 394.17 210.659 394.905 210.659C395.473 210.659 395.922 210.754 396.251 210.943C396.585 211.129 396.839 211.341 397.013 211.58C397.191 211.814 397.329 212.008 397.428 212.159H397.587V210.773H398.882V222.773H397.541ZM395.064 218.477C395.602 218.477 396.056 218.337 396.428 218.057C396.799 217.773 397.081 217.381 397.274 216.881C397.467 216.377 397.564 215.795 397.564 215.136C397.564 214.485 397.469 213.915 397.28 213.426C397.09 212.934 396.81 212.551 396.439 212.278C396.068 212.002 395.609 211.864 395.064 211.864C394.496 211.864 394.022 212.009 393.643 212.301C393.268 212.589 392.986 212.981 392.797 213.477C392.611 213.97 392.518 214.523 392.518 215.136C392.518 215.758 392.613 216.322 392.803 216.83C392.996 217.333 393.28 217.735 393.655 218.034C394.034 218.33 394.503 218.477 395.064 218.477ZM406.837 215.932V210.773H408.178V219.5H406.837V218.023H406.746C406.541 218.466 406.223 218.843 405.791 219.153C405.359 219.46 404.814 219.614 404.155 219.614C403.609 219.614 403.125 219.494 402.7 219.256C402.276 219.013 401.943 218.65 401.7 218.165C401.458 217.676 401.337 217.061 401.337 216.318V210.773H402.678V216.227C402.678 216.864 402.856 217.371 403.212 217.75C403.571 218.129 404.03 218.318 404.587 218.318C404.92 218.318 405.259 218.233 405.604 218.062C405.952 217.892 406.244 217.631 406.479 217.278C406.717 216.926 406.837 216.477 406.837 215.932ZM414.293 219.682C413.452 219.682 412.726 219.496 412.116 219.125C411.51 218.75 411.043 218.227 410.713 217.557C410.387 216.883 410.224 216.098 410.224 215.205C410.224 214.311 410.387 213.523 410.713 212.841C411.043 212.155 411.501 211.621 412.088 211.239C412.679 210.852 413.368 210.659 414.156 210.659C414.611 210.659 415.06 210.735 415.503 210.886C415.946 211.038 416.349 211.284 416.713 211.625C417.077 211.962 417.366 212.409 417.582 212.966C417.798 213.523 417.906 214.208 417.906 215.023V215.591H411.179V214.432H416.543C416.543 213.939 416.444 213.5 416.247 213.114C416.054 212.727 415.777 212.422 415.418 212.199C415.062 211.975 414.641 211.864 414.156 211.864C413.622 211.864 413.16 211.996 412.77 212.261C412.384 212.523 412.086 212.864 411.878 213.284C411.67 213.705 411.565 214.155 411.565 214.636V215.409C411.565 216.068 411.679 216.627 411.906 217.085C412.137 217.54 412.457 217.886 412.866 218.125C413.276 218.36 413.751 218.477 414.293 218.477C414.645 218.477 414.963 218.428 415.247 218.33C415.535 218.227 415.783 218.076 415.991 217.875C416.2 217.67 416.361 217.417 416.474 217.114L417.77 217.477C417.634 217.917 417.404 218.303 417.082 218.636C416.76 218.966 416.363 219.223 415.889 219.409C415.416 219.591 414.884 219.682 414.293 219.682Z" fill="#495057"/>
<rect x="265.25" y="231.25" width="362.5" height="34.5" rx="7.75" stroke="#495057" stroke-opacity="0.5" stroke-width="0.5"/>
<path d="M266.409 295.5V283.864H270.341C271.254 283.864 272 284.028 272.58 284.358C273.163 284.684 273.595 285.125 273.875 285.682C274.155 286.239 274.295 286.86 274.295 287.545C274.295 288.231 274.155 288.854 273.875 289.415C273.598 289.975 273.17 290.422 272.591 290.756C272.011 291.085 271.269 291.25 270.364 291.25H267.545V290H270.318C270.943 290 271.445 289.892 271.824 289.676C272.203 289.46 272.477 289.169 272.648 288.801C272.822 288.43 272.909 288.011 272.909 287.545C272.909 287.08 272.822 286.663 272.648 286.295C272.477 285.928 272.201 285.64 271.818 285.432C271.436 285.22 270.928 285.114 270.295 285.114H267.818V295.5H266.409ZM276.384 295.5V286.773H277.679V288.091H277.77C277.929 287.659 278.217 287.309 278.634 287.04C279.05 286.771 279.52 286.636 280.043 286.636C280.141 286.636 280.264 286.638 280.412 286.642C280.56 286.646 280.671 286.652 280.747 286.659V288.023C280.702 288.011 280.598 287.994 280.435 287.972C280.276 287.945 280.107 287.932 279.929 287.932C279.505 287.932 279.126 288.021 278.793 288.199C278.463 288.373 278.202 288.616 278.009 288.926C277.819 289.233 277.724 289.583 277.724 289.977V295.5H276.384ZM285.73 295.682C284.889 295.682 284.164 295.496 283.554 295.125C282.948 294.75 282.48 294.227 282.151 293.557C281.825 292.883 281.662 292.098 281.662 291.205C281.662 290.311 281.825 289.523 282.151 288.841C282.48 288.155 282.938 287.621 283.526 287.239C284.116 286.852 284.806 286.659 285.594 286.659C286.048 286.659 286.497 286.735 286.94 286.886C287.384 287.038 287.787 287.284 288.151 287.625C288.514 287.962 288.804 288.409 289.02 288.966C289.236 289.523 289.344 290.208 289.344 291.023V291.591H282.616V290.432H287.98C287.98 289.939 287.882 289.5 287.685 289.114C287.491 288.727 287.215 288.422 286.855 288.199C286.499 287.975 286.079 287.864 285.594 287.864C285.06 287.864 284.598 287.996 284.207 288.261C283.821 288.523 283.524 288.864 283.315 289.284C283.107 289.705 283.003 290.155 283.003 290.636V291.409C283.003 292.068 283.116 292.627 283.344 293.085C283.575 293.54 283.895 293.886 284.304 294.125C284.713 294.36 285.188 294.477 285.73 294.477C286.082 294.477 286.401 294.428 286.685 294.33C286.973 294.227 287.221 294.076 287.429 293.875C287.637 293.67 287.798 293.417 287.912 293.114L289.207 293.477C289.071 293.917 288.842 294.303 288.52 294.636C288.198 294.966 287.8 295.223 287.327 295.409C286.853 295.591 286.321 295.682 285.73 295.682ZM294.929 295.682C294.111 295.682 293.406 295.489 292.815 295.102C292.224 294.716 291.77 294.184 291.452 293.506C291.134 292.828 290.974 292.053 290.974 291.182C290.974 290.295 291.137 289.513 291.463 288.835C291.793 288.153 292.251 287.621 292.838 287.239C293.429 286.852 294.118 286.659 294.906 286.659C295.52 286.659 296.073 286.773 296.565 287C297.058 287.227 297.461 287.545 297.776 287.955C298.09 288.364 298.285 288.841 298.361 289.386H297.02C296.918 288.989 296.69 288.636 296.338 288.33C295.99 288.019 295.52 287.864 294.929 287.864C294.406 287.864 293.948 288 293.554 288.273C293.164 288.542 292.859 288.922 292.639 289.415C292.423 289.903 292.315 290.477 292.315 291.136C292.315 291.811 292.421 292.398 292.634 292.898C292.849 293.398 293.152 293.786 293.543 294.062C293.937 294.339 294.399 294.477 294.929 294.477C295.277 294.477 295.594 294.417 295.878 294.295C296.162 294.174 296.402 294 296.599 293.773C296.796 293.545 296.937 293.273 297.02 292.955H298.361C298.285 293.47 298.098 293.934 297.798 294.347C297.503 294.756 297.111 295.081 296.622 295.324C296.137 295.562 295.573 295.682 294.929 295.682ZM294.293 295.455H295.406L295.315 295.909C295.611 295.955 295.882 296.078 296.128 296.278C296.374 296.483 296.497 296.807 296.497 297.25C296.497 297.739 296.295 298.136 295.889 298.443C295.488 298.754 294.895 298.909 294.111 298.909L294.065 298.023C294.418 298.023 294.709 297.966 294.94 297.852C295.175 297.742 295.293 297.557 295.293 297.295C295.293 297.034 295.196 296.856 295.003 296.761C294.81 296.667 294.497 296.602 294.065 296.568L294.293 295.455ZM303.866 295.682C303.079 295.682 302.387 295.494 301.793 295.119C301.202 294.744 300.74 294.22 300.406 293.545C300.077 292.871 299.912 292.083 299.912 291.182C299.912 290.273 300.077 289.479 300.406 288.801C300.74 288.123 301.202 287.597 301.793 287.222C302.387 286.847 303.079 286.659 303.866 286.659C304.654 286.659 305.344 286.847 305.935 287.222C306.529 287.597 306.991 288.123 307.321 288.801C307.654 289.479 307.821 290.273 307.821 291.182C307.821 292.083 307.654 292.871 307.321 293.545C306.991 294.22 306.529 294.744 305.935 295.119C305.344 295.494 304.654 295.682 303.866 295.682ZM303.866 294.477C304.465 294.477 304.957 294.324 305.344 294.017C305.73 293.71 306.016 293.307 306.202 292.807C306.387 292.307 306.48 291.765 306.48 291.182C306.48 290.598 306.387 290.055 306.202 289.551C306.016 289.047 305.73 288.64 305.344 288.33C304.957 288.019 304.465 287.864 303.866 287.864C303.268 287.864 302.776 288.019 302.389 288.33C302.003 288.64 301.717 289.047 301.531 289.551C301.346 290.055 301.253 290.598 301.253 291.182C301.253 291.765 301.346 292.307 301.531 292.807C301.717 293.307 302.003 293.71 302.389 294.017C302.776 294.324 303.268 294.477 303.866 294.477Z" fill="#495057"/>
<rect x="265.25" y="307.25" width="362.5" height="34.5" rx="7.75" stroke="#495057" stroke-opacity="0.5" stroke-width="0.5"/>
<rect x="420" y="356" width="109" height="40" rx="12" fill="#FFB4AB"/>
<path d="M437.719 374.754H435.86C435.807 374.449 435.709 374.179 435.567 373.943C435.424 373.705 435.247 373.502 435.035 373.337C434.823 373.171 434.581 373.047 434.309 372.964C434.04 372.878 433.75 372.835 433.439 372.835C432.885 372.835 432.395 372.974 431.967 373.252C431.54 373.527 431.205 373.932 430.963 374.465C430.721 374.996 430.6 375.643 430.6 376.409C430.6 377.188 430.721 377.844 430.963 378.378C431.208 378.908 431.543 379.309 431.967 379.581C432.395 379.849 432.884 379.984 433.434 379.984C433.739 379.984 434.024 379.944 434.289 379.864C434.558 379.781 434.798 379.661 435.01 379.501C435.225 379.342 435.406 379.147 435.552 378.915C435.701 378.683 435.804 378.418 435.86 378.119L437.719 378.129C437.65 378.613 437.499 379.067 437.267 379.491C437.038 379.916 436.738 380.29 436.367 380.615C435.996 380.937 435.562 381.188 435.065 381.371C434.567 381.55 434.016 381.639 433.409 381.639C432.514 381.639 431.715 381.432 431.013 381.018C430.31 380.603 429.757 380.005 429.352 379.223C428.948 378.441 428.746 377.503 428.746 376.409C428.746 375.312 428.95 374.374 429.357 373.595C429.765 372.813 430.32 372.215 431.023 371.8C431.725 371.386 432.521 371.179 433.409 371.179C433.976 371.179 434.503 371.259 434.99 371.418C435.477 371.577 435.911 371.81 436.293 372.119C436.674 372.424 436.987 372.798 437.232 373.242C437.481 373.683 437.643 374.187 437.719 374.754ZM441.526 381.654C441.043 381.654 440.607 381.568 440.219 381.396C439.834 381.22 439.53 380.961 439.304 380.62C439.082 380.279 438.971 379.858 438.971 379.357C438.971 378.926 439.051 378.57 439.21 378.288C439.369 378.007 439.586 377.781 439.861 377.612C440.136 377.443 440.446 377.316 440.791 377.229C441.139 377.14 441.498 377.075 441.869 377.036C442.317 376.989 442.68 376.948 442.958 376.911C443.237 376.871 443.439 376.812 443.565 376.732C443.694 376.649 443.759 376.522 443.759 376.349V376.32C443.759 375.945 443.648 375.655 443.426 375.45C443.204 375.244 442.884 375.141 442.466 375.141C442.025 375.141 441.676 375.237 441.417 375.43C441.162 375.622 440.99 375.849 440.9 376.111L439.22 375.872C439.352 375.408 439.571 375.02 439.876 374.709C440.181 374.394 440.554 374.159 440.994 374.003C441.435 373.844 441.923 373.764 442.456 373.764C442.824 373.764 443.19 373.807 443.555 373.893C443.919 373.98 444.253 374.122 444.554 374.321C444.856 374.517 445.098 374.783 445.28 375.121C445.466 375.46 445.558 375.882 445.558 376.389V381.5H443.828V380.451H443.769C443.659 380.663 443.505 380.862 443.306 381.048C443.111 381.23 442.864 381.377 442.566 381.49C442.271 381.599 441.924 381.654 441.526 381.654ZM441.994 380.332C442.355 380.332 442.668 380.26 442.933 380.118C443.199 379.972 443.402 379.78 443.545 379.541C443.691 379.303 443.764 379.042 443.764 378.761V377.861C443.707 377.907 443.611 377.95 443.475 377.99C443.343 378.03 443.194 378.065 443.028 378.094C442.862 378.124 442.698 378.151 442.536 378.174C442.373 378.197 442.232 378.217 442.113 378.234C441.845 378.27 441.604 378.33 441.392 378.413C441.18 378.496 441.013 378.612 440.89 378.761C440.767 378.906 440.706 379.095 440.706 379.327C440.706 379.659 440.827 379.909 441.069 380.078C441.311 380.247 441.619 380.332 441.994 380.332ZM449.168 377.026V381.5H447.368V373.864H449.088V375.161H449.178C449.353 374.734 449.633 374.394 450.018 374.142C450.406 373.89 450.885 373.764 451.455 373.764C451.982 373.764 452.441 373.877 452.832 374.102C453.226 374.328 453.531 374.654 453.747 375.082C453.965 375.509 454.073 376.028 454.07 376.638V381.5H452.27V376.916C452.27 376.406 452.137 376.006 451.872 375.718C451.61 375.43 451.248 375.286 450.784 375.286C450.469 375.286 450.189 375.355 449.943 375.494C449.701 375.63 449.511 375.827 449.372 376.086C449.236 376.344 449.168 376.658 449.168 377.026ZM459.23 381.649C458.468 381.649 457.813 381.482 457.267 381.147C456.723 380.812 456.304 380.35 456.009 379.76C455.717 379.167 455.571 378.484 455.571 377.712C455.571 376.936 455.72 376.252 456.019 375.658C456.317 375.062 456.738 374.598 457.281 374.266C457.828 373.932 458.475 373.764 459.22 373.764C459.84 373.764 460.389 373.879 460.866 374.107C461.347 374.333 461.729 374.652 462.014 375.067C462.299 375.478 462.462 375.958 462.502 376.509H460.781C460.712 376.141 460.546 375.834 460.284 375.589C460.026 375.34 459.679 375.216 459.245 375.216C458.877 375.216 458.554 375.315 458.276 375.514C457.997 375.71 457.78 375.991 457.624 376.359C457.472 376.727 457.396 377.168 457.396 377.682C457.396 378.202 457.472 378.65 457.624 379.024C457.777 379.395 457.991 379.682 458.266 379.884C458.544 380.083 458.871 380.183 459.245 380.183C459.51 380.183 459.747 380.133 459.956 380.033C460.168 379.931 460.346 379.783 460.488 379.591C460.631 379.399 460.728 379.165 460.781 378.89H462.502C462.459 379.43 462.299 379.909 462.024 380.327C461.749 380.741 461.375 381.066 460.901 381.301C460.427 381.533 459.87 381.649 459.23 381.649ZM467.36 381.649C466.594 381.649 465.933 381.49 465.376 381.172C464.823 380.85 464.397 380.396 464.099 379.81C463.8 379.22 463.651 378.525 463.651 377.727C463.651 376.941 463.8 376.252 464.099 375.658C464.4 375.062 464.821 374.598 465.362 374.266C465.902 373.932 466.536 373.764 467.266 373.764C467.736 373.764 468.18 373.84 468.598 373.993C469.019 374.142 469.39 374.374 469.712 374.689C470.036 375.004 470.292 375.405 470.477 375.892C470.663 376.376 470.756 376.953 470.756 377.622V378.174H464.496V376.961H469.031C469.027 376.616 468.953 376.31 468.807 376.041C468.661 375.769 468.457 375.556 468.195 375.4C467.937 375.244 467.635 375.166 467.29 375.166C466.923 375.166 466.599 375.256 466.321 375.435C466.043 375.61 465.826 375.842 465.67 376.131C465.517 376.416 465.439 376.729 465.436 377.07V378.129C465.436 378.573 465.517 378.955 465.68 379.273C465.842 379.588 466.069 379.83 466.361 379.999C466.652 380.164 466.994 380.247 467.385 380.247C467.647 380.247 467.884 380.211 468.096 380.138C468.308 380.062 468.492 379.951 468.648 379.805C468.804 379.659 468.921 379.478 469.001 379.263L470.681 379.452C470.575 379.896 470.373 380.284 470.075 380.615C469.78 380.943 469.402 381.198 468.941 381.381C468.48 381.56 467.953 381.649 467.36 381.649ZM474.078 371.318V381.5H472.278V371.318H474.078ZM478.126 381.654C477.642 381.654 477.206 381.568 476.819 381.396C476.434 381.22 476.129 380.961 475.904 380.62C475.682 380.279 475.571 379.858 475.571 379.357C475.571 378.926 475.65 378.57 475.809 378.288C475.968 378.007 476.185 377.781 476.461 377.612C476.736 377.443 477.046 377.316 477.39 377.229C477.738 377.14 478.098 377.075 478.469 377.036C478.917 376.989 479.279 376.948 479.558 376.911C479.836 376.871 480.038 376.812 480.164 376.732C480.294 376.649 480.358 376.522 480.358 376.349V376.32C480.358 375.945 480.247 375.655 480.025 375.45C479.803 375.244 479.483 375.141 479.066 375.141C478.625 375.141 478.275 375.237 478.017 375.43C477.761 375.622 477.589 375.849 477.5 376.111L475.819 375.872C475.952 375.408 476.171 375.02 476.475 374.709C476.78 374.394 477.153 374.159 477.594 374.003C478.035 373.844 478.522 373.764 479.056 373.764C479.424 373.764 479.79 373.807 480.154 373.893C480.519 373.98 480.852 374.122 481.154 374.321C481.455 374.517 481.697 374.783 481.88 375.121C482.065 375.46 482.158 375.882 482.158 376.389V381.5H480.428V380.451H480.368C480.259 380.663 480.105 380.862 479.906 381.048C479.71 381.23 479.463 381.377 479.165 381.49C478.87 381.599 478.524 381.654 478.126 381.654ZM478.593 380.332C478.955 380.332 479.268 380.26 479.533 380.118C479.798 379.972 480.002 379.78 480.145 379.541C480.29 379.303 480.363 379.042 480.363 378.761V377.861C480.307 377.907 480.211 377.95 480.075 377.99C479.942 378.03 479.793 378.065 479.627 378.094C479.462 378.124 479.298 378.151 479.135 378.174C478.973 378.197 478.832 378.217 478.713 378.234C478.444 378.27 478.204 378.33 477.992 378.413C477.78 378.496 477.612 378.612 477.49 378.761C477.367 378.906 477.306 379.095 477.306 379.327C477.306 379.659 477.427 379.909 477.669 380.078C477.911 380.247 478.219 380.332 478.593 380.332ZM483.968 381.5V373.864H485.713V375.136H485.792C485.931 374.696 486.17 374.356 486.508 374.117C486.85 373.875 487.239 373.754 487.676 373.754C487.776 373.754 487.887 373.759 488.01 373.769C488.136 373.776 488.24 373.787 488.323 373.804V375.46C488.247 375.433 488.126 375.41 487.96 375.39C487.797 375.367 487.64 375.355 487.488 375.355C487.159 375.355 486.864 375.426 486.603 375.569C486.344 375.708 486.14 375.902 485.991 376.151C485.842 376.399 485.767 376.686 485.767 377.011V381.5H483.968Z" fill="#690005"/>
<path fill-rule="evenodd" clip-rule="evenodd" d="M509 366.25C503.615 366.25 499.25 370.615 499.25 376C499.25 381.385 503.615 385.75 509 385.75C514.385 385.75 518.75 381.385 518.75 376C518.75 370.615 514.385 366.25 509 366.25ZM507.28 373.22C507.211 373.146 507.129 373.087 507.037 373.046C506.945 373.005 506.845 372.983 506.745 372.981C506.644 372.98 506.544 372.998 506.45 373.036C506.357 373.074 506.272 373.13 506.201 373.201C506.13 373.272 506.074 373.357 506.036 373.45C505.998 373.544 505.98 373.644 505.981 373.745C505.983 373.845 506.005 373.945 506.046 374.037C506.087 374.129 506.146 374.211 506.22 374.28L507.94 376L506.22 377.72C506.146 377.789 506.087 377.871 506.046 377.963C506.005 378.055 505.983 378.155 505.981 378.255C505.98 378.356 505.998 378.456 506.036 378.55C506.074 378.643 506.13 378.728 506.201 378.799C506.272 378.87 506.357 378.926 506.45 378.964C506.544 379.002 506.644 379.02 506.745 379.019C506.845 379.017 506.945 378.995 507.037 378.954C507.129 378.913 507.211 378.854 507.28 378.78L509 377.06L510.72 378.78C510.789 378.854 510.871 378.913 510.963 378.954C511.055 378.995 511.155 379.017 511.255 379.019C511.356 379.02 511.456 379.002 511.55 378.964C511.643 378.926 511.728 378.87 511.799 378.799C511.87 378.728 511.926 378.643 511.964 378.55C512.002 378.456 512.02 378.356 512.019 378.255C512.017 378.155 511.995 378.055 511.954 377.963C511.913 377.871 511.854 377.789 511.78 377.72L510.06 376L511.78 374.28C511.854 374.211 511.913 374.129 511.954 374.037C511.995 373.945 512.017 373.845 512.019 373.745C512.02 373.644 512.002 373.544 511.964 373.45C511.926 373.357 511.87 373.272 511.799 373.201C511.728 373.13 511.643 373.074 511.55 373.036C511.456 372.998 511.356 372.98 511.255 372.981C511.155 372.983 511.055 373.005 510.963 373.046C510.871 373.087 510.789 373.146 510.72 373.22L509 374.94L507.28 373.22Z" fill="#690005"/>
<rect x="537" y="356" width="91" height="40" rx="12" fill="#0071E3"/>
<path d="M551.538 374.117C551.491 373.683 551.296 373.345 550.951 373.103C550.61 372.861 550.165 372.74 549.619 372.74C549.234 372.74 548.904 372.798 548.629 372.914C548.354 373.03 548.144 373.187 547.998 373.386C547.852 373.585 547.777 373.812 547.774 374.067C547.774 374.28 547.822 374.464 547.918 374.619C548.018 374.775 548.152 374.908 548.321 375.017C548.49 375.123 548.677 375.213 548.883 375.286C549.088 375.358 549.295 375.42 549.504 375.469L550.459 375.708C550.843 375.798 551.213 375.919 551.567 376.071C551.925 376.223 552.245 376.416 552.527 376.648C552.812 376.88 553.037 377.16 553.203 377.488C553.369 377.816 553.452 378.201 553.452 378.641C553.452 379.238 553.299 379.763 552.994 380.217C552.689 380.668 552.249 381.021 551.672 381.276C551.098 381.528 550.404 381.654 549.589 381.654C548.797 381.654 548.109 381.531 547.526 381.286C546.946 381.041 546.491 380.683 546.163 380.212C545.839 379.742 545.663 379.168 545.636 378.492H547.451C547.478 378.847 547.587 379.142 547.779 379.377C547.971 379.612 548.222 379.788 548.53 379.904C548.841 380.02 549.189 380.078 549.574 380.078C549.975 380.078 550.326 380.018 550.628 379.899C550.933 379.777 551.171 379.607 551.344 379.392C551.516 379.173 551.604 378.918 551.607 378.626C551.604 378.361 551.526 378.143 551.374 377.97C551.221 377.795 551.007 377.649 550.732 377.533C550.46 377.413 550.142 377.307 549.778 377.214L548.619 376.916C547.781 376.701 547.118 376.374 546.631 375.937C546.147 375.496 545.905 374.911 545.905 374.182C545.905 373.582 546.067 373.057 546.392 372.606C546.72 372.155 547.166 371.805 547.729 371.557C548.293 371.305 548.931 371.179 549.643 371.179C550.366 371.179 550.999 371.305 551.543 371.557C552.089 371.805 552.519 372.152 552.83 372.596C553.142 373.037 553.303 373.544 553.312 374.117H551.538ZM557.214 381.654C556.73 381.654 556.294 381.568 555.906 381.396C555.522 381.22 555.217 380.961 554.992 380.62C554.77 380.279 554.659 379.858 554.659 379.357C554.659 378.926 554.738 378.57 554.897 378.288C555.056 378.007 555.273 377.781 555.548 377.612C555.824 377.443 556.133 377.316 556.478 377.229C556.826 377.14 557.186 377.075 557.557 377.036C558.004 376.989 558.367 376.948 558.646 376.911C558.924 376.871 559.126 376.812 559.252 376.732C559.382 376.649 559.446 376.522 559.446 376.349V376.32C559.446 375.945 559.335 375.655 559.113 375.45C558.891 375.244 558.571 375.141 558.154 375.141C557.713 375.141 557.363 375.237 557.105 375.43C556.849 375.622 556.677 375.849 556.588 376.111L554.907 375.872C555.04 375.408 555.258 375.02 555.563 374.709C555.868 374.394 556.241 374.159 556.682 374.003C557.123 373.844 557.61 373.764 558.144 373.764C558.512 373.764 558.878 373.807 559.242 373.893C559.607 373.98 559.94 374.122 560.242 374.321C560.543 374.517 560.785 374.783 560.968 375.121C561.153 375.46 561.246 375.882 561.246 376.389V381.5H559.516V380.451H559.456C559.347 380.663 559.193 380.862 558.994 381.048C558.798 381.23 558.551 381.377 558.253 381.49C557.958 381.599 557.612 381.654 557.214 381.654ZM557.681 380.332C558.043 380.332 558.356 380.26 558.621 380.118C558.886 379.972 559.09 379.78 559.232 379.541C559.378 379.303 559.451 379.042 559.451 378.761V377.861C559.395 377.907 559.299 377.95 559.163 377.99C559.03 378.03 558.881 378.065 558.715 378.094C558.55 378.124 558.386 378.151 558.223 378.174C558.061 378.197 557.92 378.217 557.801 378.234C557.532 378.27 557.292 378.33 557.08 378.413C556.868 378.496 556.7 378.612 556.578 378.761C556.455 378.906 556.394 379.095 556.394 379.327C556.394 379.659 556.515 379.909 556.757 380.078C556.999 380.247 557.307 380.332 557.681 380.332ZM564.855 371.318V381.5H563.056V371.318H564.855ZM573.527 373.864L570.808 381.5H568.819L566.099 373.864H568.018L569.773 379.536H569.853L571.613 373.864H573.527ZM576.751 381.654C576.267 381.654 575.831 381.568 575.444 381.396C575.059 381.22 574.754 380.961 574.529 380.62C574.307 380.279 574.196 379.858 574.196 379.357C574.196 378.926 574.275 378.57 574.434 378.288C574.593 378.007 574.81 377.781 575.086 377.612C575.361 377.443 575.671 377.316 576.015 377.229C576.363 377.14 576.723 377.075 577.094 377.036C577.542 376.989 577.904 376.948 578.183 376.911C578.461 376.871 578.663 376.812 578.789 376.732C578.919 376.649 578.983 376.522 578.983 376.349V376.32C578.983 375.945 578.872 375.655 578.65 375.45C578.428 375.244 578.108 375.141 577.691 375.141C577.25 375.141 576.9 375.237 576.642 375.43C576.386 375.622 576.214 375.849 576.125 376.111L574.444 375.872C574.577 375.408 574.796 375.02 575.1 374.709C575.405 374.394 575.778 374.159 576.219 374.003C576.66 373.844 577.147 373.764 577.681 373.764C578.049 373.764 578.415 373.807 578.779 373.893C579.144 373.98 579.477 374.122 579.779 374.321C580.08 374.517 580.322 374.783 580.505 375.121C580.69 375.46 580.783 375.882 580.783 376.389V381.5H579.053V380.451H578.993C578.884 380.663 578.73 380.862 578.531 381.048C578.335 381.23 578.088 381.377 577.79 381.49C577.495 381.599 577.149 381.654 576.751 381.654ZM577.218 380.332C577.58 380.332 577.893 380.26 578.158 380.118C578.423 379.972 578.627 379.78 578.77 379.541C578.915 379.303 578.988 379.042 578.988 378.761V377.861C578.932 377.907 578.836 377.95 578.7 377.99C578.567 378.03 578.418 378.065 578.252 378.094C578.087 378.124 577.923 378.151 577.76 378.174C577.598 378.197 577.457 378.217 577.338 378.234C577.069 378.27 576.829 378.33 576.617 378.413C576.405 378.496 576.237 378.612 576.115 378.761C575.992 378.906 575.931 379.095 575.931 379.327C575.931 379.659 576.052 379.909 576.294 380.078C576.536 380.247 576.844 380.332 577.218 380.332ZM582.593 381.5V373.864H584.338V375.136H584.417C584.556 374.696 584.795 374.356 585.133 374.117C585.475 373.875 585.864 373.754 586.301 373.754C586.401 373.754 586.512 373.759 586.635 373.769C586.761 373.776 586.865 373.787 586.948 373.804V375.46C586.872 375.433 586.751 375.41 586.585 375.39C586.422 375.367 586.265 375.355 586.113 375.355C585.784 375.355 585.489 375.426 585.228 375.569C584.969 375.708 584.765 375.902 584.616 376.151C584.467 376.399 584.392 376.686 584.392 377.011V381.5H582.593Z" fill="white"/>
<path fill-rule="evenodd" clip-rule="evenodd" d="M615.5 385C616.296 385 617.059 384.684 617.621 384.121C618.184 383.559 618.5 382.796 618.5 382V373C618.5 372.204 618.184 371.441 617.621 370.879C617.059 370.316 616.296 370 615.5 370H610.121C609.922 370 609.732 369.921 609.591 369.78L607.47 367.66C607.261 367.451 607.013 367.285 606.74 367.172C606.467 367.058 606.175 367 605.879 367H600.5C599.704 367 598.941 367.316 598.379 367.879C597.816 368.441 597.5 369.204 597.5 370V382C597.5 382.796 597.816 383.559 598.379 384.121C598.941 384.684 599.704 385 600.5 385H615.5ZM608.75 374.5C608.75 374.301 608.671 374.11 608.53 373.97C608.39 373.829 608.199 373.75 608 373.75C607.801 373.75 607.61 373.829 607.47 373.97C607.329 374.11 607.25 374.301 607.25 374.5V376.75H605C604.801 376.75 604.61 376.829 604.47 376.97C604.329 377.11 604.25 377.301 604.25 377.5C604.25 377.699 604.329 377.89 604.47 378.03C604.61 378.171 604.801 378.25 605 378.25H607.25V380.5C607.25 380.699 607.329 380.89 607.47 381.03C607.61 381.171 607.801 381.25 608 381.25C608.199 381.25 608.39 381.171 608.53 381.03C608.671 380.89 608.75 380.699 608.75 380.5V378.25H611C611.199 378.25 611.39 378.171 611.53 378.03C611.671 377.89 611.75 377.699 611.75 377.5C611.75 377.301 611.671 377.11 611.53 376.97C611.39 376.829 611.199 376.75 611 376.75H608.75V374.5Z" fill="white"/>
<path d="M101.568 211.76L93.216 234H88.992L80.608 211.76H84.512L91.104 230.256L97.728 211.76H101.568ZM106.475 214.032C105.813 214.032 105.259 213.808 104.811 213.36C104.363 212.912 104.139 212.357 104.139 211.696C104.139 211.035 104.363 210.48 104.811 210.032C105.259 209.584 105.813 209.36 106.475 209.36C107.115 209.36 107.659 209.584 108.107 210.032C108.555 210.48 108.779 211.035 108.779 211.696C108.779 212.357 108.555 212.912 108.107 213.36C107.659 213.808 107.115 214.032 106.475 214.032ZM108.267 216.368V234H104.619V216.368H108.267ZM111.84 225.104C111.84 223.333 112.203 221.765 112.928 220.4C113.675 219.035 114.678 217.979 115.936 217.232C117.216 216.464 118.635 216.08 120.192 216.08C121.344 216.08 122.475 216.336 123.584 216.848C124.715 217.339 125.611 218 126.272 218.832V210.32H129.952V234H126.272V231.344C125.675 232.197 124.843 232.901 123.776 233.456C122.731 234.011 121.526 234.288 120.16 234.288C118.624 234.288 117.216 233.904 115.936 233.136C114.678 232.347 113.675 231.259 112.928 229.872C112.203 228.464 111.84 226.875 111.84 225.104ZM126.272 225.168C126.272 223.952 126.016 222.896 125.504 222C125.014 221.104 124.363 220.421 123.552 219.952C122.742 219.483 121.867 219.248 120.928 219.248C119.99 219.248 119.115 219.483 118.304 219.952C117.494 220.4 116.832 221.072 116.32 221.968C115.83 222.843 115.584 223.888 115.584 225.104C115.584 226.32 115.83 227.387 116.32 228.304C116.832 229.221 117.494 229.925 118.304 230.416C119.136 230.885 120.011 231.12 120.928 231.12C121.867 231.12 122.742 230.885 123.552 230.416C124.363 229.947 125.014 229.264 125.504 228.368C126.016 227.451 126.272 226.384 126.272 225.168ZM133.528 225.104C133.528 223.333 133.89 221.765 134.616 220.4C135.362 219.035 136.365 217.979 137.624 217.232C138.904 216.464 140.312 216.08 141.848 216.08C143.234 216.08 144.44 216.357 145.464 216.912C146.509 217.445 147.341 218.117 147.96 218.928V216.368H151.64V234H147.96V231.376C147.341 232.208 146.498 232.901 145.432 233.456C144.365 234.011 143.149 234.288 141.784 234.288C140.269 234.288 138.882 233.904 137.624 233.136C136.365 232.347 135.362 231.259 134.616 229.872C133.89 228.464 133.528 226.875 133.528 225.104ZM147.96 225.168C147.96 223.952 147.704 222.896 147.192 222C146.701 221.104 146.05 220.421 145.24 219.952C144.429 219.483 143.554 219.248 142.616 219.248C141.677 219.248 140.802 219.483 139.992 219.952C139.181 220.4 138.52 221.072 138.008 221.968C137.517 222.843 137.272 223.888 137.272 225.104C137.272 226.32 137.517 227.387 138.008 228.304C138.52 229.221 139.181 229.925 139.992 230.416C140.824 230.885 141.698 231.12 142.616 231.12C143.554 231.12 144.429 230.885 145.24 230.416C146.05 229.947 146.701 229.264 147.192 228.368C147.704 227.451 147.96 226.384 147.96 225.168ZM173.615 223.984H167.151V230.608H163.759V223.984H157.295V220.912H163.759V214.288H167.151V220.912H173.615V223.984Z" fill="url(#paint0_linear_33_115)"/>
<defs>
<linearGradient id="paint0_linear_33_115" x1="80" y1="199" x2="128.5" y2="247" gradientUnits="userSpaceOnUse">
<stop stop-color="#00363C"/>
<stop offset="1" stop-color="#B1CBCF"/>
</linearGradient>
</defs>
</svg>
