<svg width="660" height="450" viewBox="0 0 660 450" fill="none" xmlns="http://www.w3.org/2000/svg">
<rect width="660" height="450" fill="white"/>
<path d="M267.818 30.3636V42H266.409V30.3636H267.818ZM274.234 42H270.643V30.3636H274.393C275.522 30.3636 276.488 30.5966 277.291 31.0625C278.094 31.5246 278.71 32.1894 279.138 33.0568C279.566 33.9205 279.78 34.9545 279.78 36.1591C279.78 37.3712 279.564 38.4148 279.132 39.2898C278.7 40.161 278.071 40.8314 277.246 41.3011C276.42 41.767 275.416 42 274.234 42ZM272.053 40.75H274.143C275.106 40.75 275.903 40.5644 276.536 40.1932C277.168 39.822 277.64 39.2936 277.95 38.608C278.261 37.9223 278.416 37.1061 278.416 36.1591C278.416 35.2197 278.263 34.411 277.956 33.733C277.649 33.0511 277.191 32.5284 276.581 32.1648C275.971 31.7973 275.212 31.6136 274.303 31.6136H272.053V40.75Z" fill="#495057"/>
<rect x="265.25" y="53.75" width="362.5" height="34.5" rx="7.75" stroke="#495057" stroke-opacity="0.5" stroke-width="0.5"/>
<path d="M275.636 99.8636V111.5H274.273L267.932 102.364H267.818V111.5H266.409V99.8636H267.773L274.136 109.023H274.25V99.8636H275.636ZM281.82 111.682C281.032 111.682 280.34 111.494 279.746 111.119C279.155 110.744 278.693 110.22 278.359 109.545C278.03 108.871 277.865 108.083 277.865 107.182C277.865 106.273 278.03 105.479 278.359 104.801C278.693 104.123 279.155 103.597 279.746 103.222C280.34 102.847 281.032 102.659 281.82 102.659C282.607 102.659 283.297 102.847 283.888 103.222C284.482 103.597 284.945 104.123 285.274 104.801C285.607 105.479 285.774 106.273 285.774 107.182C285.774 108.083 285.607 108.871 285.274 109.545C284.945 110.22 284.482 110.744 283.888 111.119C283.297 111.494 282.607 111.682 281.82 111.682ZM281.82 110.477C282.418 110.477 282.911 110.324 283.297 110.017C283.683 109.71 283.969 109.307 284.155 108.807C284.34 108.307 284.433 107.765 284.433 107.182C284.433 106.598 284.34 106.055 284.155 105.551C283.969 105.047 283.683 104.64 283.297 104.33C282.911 104.019 282.418 103.864 281.82 103.864C281.221 103.864 280.729 104.019 280.342 104.33C279.956 104.64 279.67 105.047 279.484 105.551C279.299 106.055 279.206 106.598 279.206 107.182C279.206 107.765 279.299 108.307 279.484 108.807C279.67 109.307 279.956 109.71 280.342 110.017C280.729 110.324 281.221 110.477 281.82 110.477ZM287.821 111.5V102.773H289.116V104.136H289.23C289.412 103.67 289.705 103.309 290.111 103.051C290.516 102.79 291.003 102.659 291.571 102.659C292.147 102.659 292.626 102.79 293.009 103.051C293.395 103.309 293.696 103.67 293.912 104.136H294.003C294.226 103.686 294.562 103.328 295.009 103.062C295.455 102.794 295.991 102.659 296.616 102.659C297.397 102.659 298.035 102.903 298.531 103.392C299.027 103.877 299.276 104.633 299.276 105.659V111.5H297.935V105.659C297.935 105.015 297.759 104.555 297.406 104.278C297.054 104.002 296.639 103.864 296.162 103.864C295.548 103.864 295.073 104.049 294.736 104.42C294.399 104.788 294.23 105.254 294.23 105.818V111.5H292.866V105.523C292.866 105.027 292.705 104.627 292.384 104.324C292.062 104.017 291.647 103.864 291.139 103.864C290.791 103.864 290.465 103.956 290.162 104.142C289.863 104.328 289.62 104.585 289.435 104.915C289.253 105.241 289.162 105.617 289.162 106.045V111.5H287.821ZM305.386 111.682C304.545 111.682 303.82 111.496 303.21 111.125C302.604 110.75 302.136 110.227 301.807 109.557C301.481 108.883 301.318 108.098 301.318 107.205C301.318 106.311 301.481 105.523 301.807 104.841C302.136 104.155 302.595 103.621 303.182 103.239C303.773 102.852 304.462 102.659 305.25 102.659C305.705 102.659 306.153 102.735 306.597 102.886C307.04 103.038 307.443 103.284 307.807 103.625C308.17 103.962 308.46 104.409 308.676 104.966C308.892 105.523 309 106.208 309 107.023V107.591H302.273V106.432H307.636C307.636 105.939 307.538 105.5 307.341 105.114C307.148 104.727 306.871 104.422 306.511 104.199C306.155 103.975 305.735 103.864 305.25 103.864C304.716 103.864 304.254 103.996 303.864 104.261C303.477 104.523 303.18 104.864 302.972 105.284C302.763 105.705 302.659 106.155 302.659 106.636V107.409C302.659 108.068 302.773 108.627 303 109.085C303.231 109.54 303.551 109.886 303.96 110.125C304.369 110.36 304.845 110.477 305.386 110.477C305.739 110.477 306.057 110.428 306.341 110.33C306.629 110.227 306.877 110.076 307.085 109.875C307.294 109.67 307.455 109.417 307.568 109.114L308.864 109.477C308.727 109.917 308.498 110.303 308.176 110.636C307.854 110.966 307.456 111.223 306.983 111.409C306.509 111.591 305.977 111.682 305.386 111.682Z" fill="#495057"/>
<rect x="265.25" y="123.25" width="362.5" height="34.5" rx="7.75" stroke="#495057" stroke-opacity="0.5" stroke-width="0.5"/>
<path d="M270.636 177.364H272.182L273.477 179.068L273.818 179.523L275.75 182.091H274.205L272.932 180.386L272.614 179.955L270.636 177.364ZM276.227 175.182C276.227 176.409 276.006 177.47 275.562 178.364C275.119 179.258 274.511 179.947 273.739 180.432C272.966 180.917 272.083 181.159 271.091 181.159C270.098 181.159 269.216 180.917 268.443 180.432C267.67 179.947 267.063 179.258 266.619 178.364C266.176 177.47 265.955 176.409 265.955 175.182C265.955 173.955 266.176 172.894 266.619 172C267.063 171.106 267.67 170.417 268.443 169.932C269.216 169.447 270.098 169.205 271.091 169.205C272.083 169.205 272.966 169.447 273.739 169.932C274.511 170.417 275.119 171.106 275.562 172C276.006 172.894 276.227 173.955 276.227 175.182ZM274.864 175.182C274.864 174.174 274.695 173.324 274.358 172.631C274.025 171.938 273.572 171.413 273 171.057C272.432 170.701 271.795 170.523 271.091 170.523C270.386 170.523 269.748 170.701 269.176 171.057C268.608 171.413 268.155 171.938 267.818 172.631C267.485 173.324 267.318 174.174 267.318 175.182C267.318 176.189 267.485 177.04 267.818 177.733C268.155 178.426 268.608 178.951 269.176 179.307C269.748 179.663 270.386 179.841 271.091 179.841C271.795 179.841 272.432 179.663 273 179.307C273.572 178.951 274.025 178.426 274.358 177.733C274.695 177.04 274.864 176.189 274.864 175.182ZM283.915 177.432V172.273H285.256V181H283.915V179.523H283.824C283.619 179.966 283.301 180.343 282.869 180.653C282.438 180.96 281.892 181.114 281.233 181.114C280.688 181.114 280.203 180.994 279.778 180.756C279.354 180.513 279.021 180.15 278.778 179.665C278.536 179.176 278.415 178.561 278.415 177.818V172.273H279.756V177.727C279.756 178.364 279.934 178.871 280.29 179.25C280.65 179.629 281.108 179.818 281.665 179.818C281.998 179.818 282.337 179.733 282.682 179.562C283.03 179.392 283.322 179.131 283.557 178.778C283.795 178.426 283.915 177.977 283.915 177.432ZM290.28 181.205C289.727 181.205 289.225 181.1 288.774 180.892C288.323 180.68 287.965 180.375 287.7 179.977C287.435 179.576 287.303 179.091 287.303 178.523C287.303 178.023 287.401 177.617 287.598 177.307C287.795 176.992 288.058 176.746 288.388 176.568C288.717 176.39 289.081 176.258 289.479 176.17C289.88 176.08 290.284 176.008 290.689 175.955C291.219 175.886 291.649 175.835 291.979 175.801C292.312 175.763 292.554 175.701 292.706 175.614C292.861 175.527 292.939 175.375 292.939 175.159V175.114C292.939 174.553 292.786 174.117 292.479 173.807C292.176 173.496 291.715 173.341 291.098 173.341C290.458 173.341 289.956 173.481 289.592 173.761C289.229 174.042 288.973 174.341 288.825 174.659L287.553 174.205C287.78 173.674 288.083 173.261 288.462 172.966C288.844 172.667 289.261 172.458 289.712 172.341C290.166 172.22 290.613 172.159 291.053 172.159C291.333 172.159 291.655 172.193 292.018 172.261C292.386 172.326 292.74 172.46 293.081 172.665C293.426 172.869 293.712 173.178 293.939 173.591C294.166 174.004 294.28 174.557 294.28 175.25V181H292.939V179.818H292.871C292.78 180.008 292.628 180.21 292.416 180.426C292.204 180.642 291.922 180.826 291.57 180.977C291.217 181.129 290.787 181.205 290.28 181.205ZM290.484 180C291.015 180 291.462 179.896 291.825 179.688C292.193 179.479 292.469 179.21 292.655 178.881C292.844 178.551 292.939 178.205 292.939 177.841V176.614C292.882 176.682 292.757 176.744 292.564 176.801C292.375 176.854 292.155 176.902 291.905 176.943C291.659 176.981 291.418 177.015 291.183 177.045C290.952 177.072 290.765 177.095 290.621 177.114C290.272 177.159 289.946 177.233 289.643 177.335C289.344 177.434 289.102 177.583 288.916 177.784C288.734 177.981 288.643 178.25 288.643 178.591C288.643 179.057 288.816 179.409 289.161 179.648C289.509 179.883 289.95 180 290.484 180ZM298.068 175.75V181H296.727V172.273H298.023V173.636H298.136C298.341 173.193 298.652 172.837 299.068 172.568C299.485 172.295 300.023 172.159 300.682 172.159C301.273 172.159 301.79 172.28 302.233 172.523C302.676 172.761 303.021 173.125 303.267 173.614C303.513 174.098 303.636 174.712 303.636 175.455V181H302.295V175.545C302.295 174.86 302.117 174.326 301.761 173.943C301.405 173.557 300.917 173.364 300.295 173.364C299.867 173.364 299.485 173.456 299.148 173.642C298.814 173.828 298.551 174.098 298.358 174.455C298.165 174.811 298.068 175.242 298.068 175.75ZM309.882 172.273V173.409H305.359V172.273H309.882ZM306.678 170.182H308.018V178.5C308.018 178.879 308.073 179.163 308.183 179.352C308.297 179.538 308.441 179.663 308.615 179.727C308.793 179.788 308.981 179.818 309.178 179.818C309.325 179.818 309.446 179.811 309.541 179.795C309.636 179.777 309.712 179.761 309.768 179.75L310.041 180.955C309.95 180.989 309.823 181.023 309.661 181.057C309.498 181.095 309.291 181.114 309.041 181.114C308.662 181.114 308.291 181.032 307.928 180.869C307.568 180.706 307.268 180.458 307.03 180.125C306.795 179.792 306.678 179.371 306.678 178.864V170.182ZM311.899 181V172.273H313.24V181H311.899ZM312.581 170.818C312.32 170.818 312.094 170.729 311.905 170.551C311.719 170.373 311.626 170.159 311.626 169.909C311.626 169.659 311.719 169.445 311.905 169.267C312.094 169.089 312.32 169 312.581 169C312.842 169 313.066 169.089 313.251 169.267C313.441 169.445 313.536 169.659 313.536 169.909C313.536 170.159 313.441 170.373 313.251 170.551C313.066 170.729 312.842 170.818 312.581 170.818ZM318.991 181.182C318.264 181.182 317.622 180.998 317.065 180.631C316.509 180.259 316.073 179.737 315.759 179.062C315.444 178.384 315.287 177.583 315.287 176.659C315.287 175.742 315.444 174.947 315.759 174.273C316.073 173.598 316.51 173.078 317.071 172.71C317.632 172.343 318.279 172.159 319.014 172.159C319.582 172.159 320.031 172.254 320.361 172.443C320.694 172.629 320.948 172.841 321.122 173.08C321.3 173.314 321.438 173.508 321.537 173.659H321.651V169.364H322.991V181H321.696V179.659H321.537C321.438 179.818 321.298 180.019 321.116 180.261C320.935 180.5 320.675 180.714 320.338 180.903C320.001 181.089 319.552 181.182 318.991 181.182ZM319.173 179.977C319.711 179.977 320.166 179.837 320.537 179.557C320.908 179.273 321.19 178.881 321.384 178.381C321.577 177.877 321.673 177.295 321.673 176.636C321.673 175.985 321.579 175.415 321.389 174.926C321.2 174.434 320.92 174.051 320.548 173.778C320.177 173.502 319.719 173.364 319.173 173.364C318.605 173.364 318.132 173.509 317.753 173.801C317.378 174.089 317.096 174.481 316.906 174.977C316.721 175.47 316.628 176.023 316.628 176.636C316.628 177.258 316.723 177.822 316.912 178.33C317.105 178.833 317.389 179.235 317.764 179.534C318.143 179.83 318.613 179.977 319.173 179.977ZM328.202 181.205C327.649 181.205 327.147 181.1 326.696 180.892C326.245 180.68 325.887 180.375 325.622 179.977C325.357 179.576 325.224 179.091 325.224 178.523C325.224 178.023 325.323 177.617 325.52 177.307C325.717 176.992 325.98 176.746 326.31 176.568C326.639 176.39 327.003 176.258 327.401 176.17C327.802 176.08 328.205 176.008 328.611 175.955C329.141 175.886 329.571 175.835 329.901 175.801C330.234 175.763 330.476 175.701 330.628 175.614C330.783 175.527 330.861 175.375 330.861 175.159V175.114C330.861 174.553 330.707 174.117 330.401 173.807C330.098 173.496 329.637 173.341 329.02 173.341C328.38 173.341 327.878 173.481 327.514 173.761C327.151 174.042 326.895 174.341 326.747 174.659L325.474 174.205C325.702 173.674 326.005 173.261 326.384 172.966C326.766 172.667 327.183 172.458 327.634 172.341C328.088 172.22 328.535 172.159 328.974 172.159C329.255 172.159 329.577 172.193 329.94 172.261C330.308 172.326 330.662 172.46 331.003 172.665C331.348 172.869 331.634 173.178 331.861 173.591C332.088 174.004 332.202 174.557 332.202 175.25V181H330.861V179.818H330.793C330.702 180.008 330.55 180.21 330.338 180.426C330.126 180.642 329.844 180.826 329.491 180.977C329.139 181.129 328.709 181.205 328.202 181.205ZM328.406 180C328.937 180 329.384 179.896 329.747 179.688C330.115 179.479 330.391 179.21 330.577 178.881C330.766 178.551 330.861 178.205 330.861 177.841V176.614C330.804 176.682 330.679 176.744 330.486 176.801C330.296 176.854 330.077 176.902 329.827 176.943C329.58 176.981 329.34 177.015 329.105 177.045C328.874 177.072 328.687 177.095 328.543 177.114C328.194 177.159 327.868 177.233 327.565 177.335C327.266 177.434 327.024 177.583 326.838 177.784C326.656 177.981 326.565 178.25 326.565 178.591C326.565 179.057 326.738 179.409 327.082 179.648C327.431 179.883 327.872 180 328.406 180ZM337.945 181.182C337.217 181.182 336.575 180.998 336.018 180.631C335.462 180.259 335.026 179.737 334.712 179.062C334.397 178.384 334.24 177.583 334.24 176.659C334.24 175.742 334.397 174.947 334.712 174.273C335.026 173.598 335.464 173.078 336.024 172.71C336.585 172.343 337.232 172.159 337.967 172.159C338.536 172.159 338.984 172.254 339.314 172.443C339.647 172.629 339.901 172.841 340.075 173.08C340.253 173.314 340.392 173.508 340.49 173.659H340.604V169.364H341.945V181H340.649V179.659H340.49C340.392 179.818 340.251 180.019 340.07 180.261C339.888 180.5 339.628 180.714 339.291 180.903C338.954 181.089 338.505 181.182 337.945 181.182ZM338.126 179.977C338.664 179.977 339.119 179.837 339.49 179.557C339.861 179.273 340.143 178.881 340.337 178.381C340.53 177.877 340.626 177.295 340.626 176.636C340.626 175.985 340.532 175.415 340.342 174.926C340.153 174.434 339.873 174.051 339.501 173.778C339.13 173.502 338.672 173.364 338.126 173.364C337.558 173.364 337.085 173.509 336.706 173.801C336.331 174.089 336.049 174.481 335.859 174.977C335.674 175.47 335.581 176.023 335.581 176.636C335.581 177.258 335.676 177.822 335.865 178.33C336.058 178.833 336.342 179.235 336.717 179.534C337.096 179.83 337.566 179.977 338.126 179.977ZM348.246 181.182C347.405 181.182 346.679 180.996 346.07 180.625C345.464 180.25 344.996 179.727 344.666 179.057C344.34 178.383 344.178 177.598 344.178 176.705C344.178 175.811 344.34 175.023 344.666 174.341C344.996 173.655 345.454 173.121 346.041 172.739C346.632 172.352 347.321 172.159 348.109 172.159C348.564 172.159 349.013 172.235 349.456 172.386C349.899 172.538 350.303 172.784 350.666 173.125C351.03 173.462 351.32 173.909 351.536 174.466C351.751 175.023 351.859 175.708 351.859 176.523V177.091H345.132V175.932H350.496C350.496 175.439 350.397 175 350.2 174.614C350.007 174.227 349.731 173.922 349.371 173.699C349.015 173.475 348.594 173.364 348.109 173.364C347.575 173.364 347.113 173.496 346.723 173.761C346.337 174.023 346.039 174.364 345.831 174.784C345.623 175.205 345.518 175.655 345.518 176.136V176.909C345.518 177.568 345.632 178.127 345.859 178.585C346.09 179.04 346.411 179.386 346.82 179.625C347.229 179.86 347.704 179.977 348.246 179.977C348.598 179.977 348.916 179.928 349.2 179.83C349.488 179.727 349.736 179.576 349.945 179.375C350.153 179.17 350.314 178.917 350.428 178.614L351.723 178.977C351.587 179.417 351.357 179.803 351.036 180.136C350.714 180.466 350.316 180.723 349.842 180.909C349.369 181.091 348.837 181.182 348.246 181.182ZM358.581 181V169.364H365.604V170.614H359.99V174.545H365.24V175.795H359.99V179.75H365.695V181H358.581ZM374.143 174.227L372.939 174.568C372.863 174.367 372.751 174.172 372.604 173.983C372.46 173.79 372.263 173.631 372.013 173.506C371.763 173.381 371.443 173.318 371.053 173.318C370.518 173.318 370.073 173.441 369.717 173.688C369.365 173.93 369.189 174.239 369.189 174.614C369.189 174.947 369.31 175.21 369.553 175.403C369.795 175.597 370.174 175.758 370.689 175.886L371.984 176.205C372.765 176.394 373.346 176.684 373.729 177.074C374.111 177.46 374.303 177.958 374.303 178.568C374.303 179.068 374.159 179.515 373.871 179.909C373.587 180.303 373.189 180.614 372.678 180.841C372.166 181.068 371.571 181.182 370.893 181.182C370.003 181.182 369.267 180.989 368.683 180.602C368.1 180.216 367.731 179.652 367.575 178.909L368.848 178.591C368.969 179.061 369.198 179.413 369.536 179.648C369.876 179.883 370.321 180 370.871 180C371.496 180 371.992 179.867 372.359 179.602C372.731 179.333 372.916 179.011 372.916 178.636C372.916 178.333 372.81 178.08 372.598 177.875C372.386 177.667 372.06 177.511 371.621 177.409L370.166 177.068C369.367 176.879 368.78 176.585 368.405 176.188C368.034 175.786 367.848 175.284 367.848 174.682C367.848 174.189 367.986 173.754 368.263 173.375C368.543 172.996 368.924 172.699 369.405 172.483C369.89 172.267 370.439 172.159 371.053 172.159C371.916 172.159 372.594 172.348 373.087 172.727C373.583 173.106 373.935 173.606 374.143 174.227ZM380.116 172.273V173.409H375.594V172.273H380.116ZM376.912 170.182H378.253V178.5C378.253 178.879 378.308 179.163 378.418 179.352C378.531 179.538 378.675 179.663 378.849 179.727C379.027 179.788 379.215 179.818 379.412 179.818C379.56 179.818 379.681 179.811 379.776 179.795C379.87 179.777 379.946 179.761 380.003 179.75L380.276 180.955C380.185 180.989 380.058 181.023 379.895 181.057C379.732 181.095 379.526 181.114 379.276 181.114C378.897 181.114 378.526 181.032 378.162 180.869C377.802 180.706 377.503 180.458 377.264 180.125C377.029 179.792 376.912 179.371 376.912 178.864V170.182ZM385.585 181.182C384.797 181.182 384.106 180.994 383.511 180.619C382.92 180.244 382.458 179.72 382.125 179.045C381.795 178.371 381.631 177.583 381.631 176.682C381.631 175.773 381.795 174.979 382.125 174.301C382.458 173.623 382.92 173.097 383.511 172.722C384.106 172.347 384.797 172.159 385.585 172.159C386.373 172.159 387.063 172.347 387.653 172.722C388.248 173.097 388.71 173.623 389.04 174.301C389.373 174.979 389.54 175.773 389.54 176.682C389.54 177.583 389.373 178.371 389.04 179.045C388.71 179.72 388.248 180.244 387.653 180.619C387.063 180.994 386.373 181.182 385.585 181.182ZM385.585 179.977C386.184 179.977 386.676 179.824 387.062 179.517C387.449 179.21 387.735 178.807 387.92 178.307C388.106 177.807 388.199 177.265 388.199 176.682C388.199 176.098 388.106 175.555 387.92 175.051C387.735 174.547 387.449 174.14 387.062 173.83C386.676 173.519 386.184 173.364 385.585 173.364C384.987 173.364 384.494 173.519 384.108 173.83C383.722 174.14 383.436 174.547 383.25 175.051C383.064 175.555 382.972 176.098 382.972 176.682C382.972 177.265 383.064 177.807 383.25 178.307C383.436 178.807 383.722 179.21 384.108 179.517C384.494 179.824 384.987 179.977 385.585 179.977ZM397.541 184.273V179.659H397.428C397.329 179.818 397.189 180.019 397.007 180.261C396.825 180.5 396.566 180.714 396.229 180.903C395.892 181.089 395.443 181.182 394.882 181.182C394.155 181.182 393.513 180.998 392.956 180.631C392.399 180.259 391.964 179.737 391.649 179.062C391.335 178.384 391.178 177.583 391.178 176.659C391.178 175.742 391.335 174.947 391.649 174.273C391.964 173.598 392.401 173.078 392.962 172.71C393.522 172.343 394.17 172.159 394.905 172.159C395.473 172.159 395.922 172.254 396.251 172.443C396.585 172.629 396.839 172.841 397.013 173.08C397.191 173.314 397.329 173.508 397.428 173.659H397.587V172.273H398.882V184.273H397.541ZM395.064 179.977C395.602 179.977 396.056 179.837 396.428 179.557C396.799 179.273 397.081 178.881 397.274 178.381C397.467 177.877 397.564 177.295 397.564 176.636C397.564 175.985 397.469 175.415 397.28 174.926C397.09 174.434 396.81 174.051 396.439 173.778C396.068 173.502 395.609 173.364 395.064 173.364C394.496 173.364 394.022 173.509 393.643 173.801C393.268 174.089 392.986 174.481 392.797 174.977C392.611 175.47 392.518 176.023 392.518 176.636C392.518 177.258 392.613 177.822 392.803 178.33C392.996 178.833 393.28 179.235 393.655 179.534C394.034 179.83 394.503 179.977 395.064 179.977ZM406.837 177.432V172.273H408.178V181H406.837V179.523H406.746C406.541 179.966 406.223 180.343 405.791 180.653C405.359 180.96 404.814 181.114 404.155 181.114C403.609 181.114 403.125 180.994 402.7 180.756C402.276 180.513 401.943 180.15 401.7 179.665C401.458 179.176 401.337 178.561 401.337 177.818V172.273H402.678V177.727C402.678 178.364 402.856 178.871 403.212 179.25C403.571 179.629 404.03 179.818 404.587 179.818C404.92 179.818 405.259 179.733 405.604 179.562C405.952 179.392 406.244 179.131 406.479 178.778C406.717 178.426 406.837 177.977 406.837 177.432ZM414.293 181.182C413.452 181.182 412.726 180.996 412.116 180.625C411.51 180.25 411.043 179.727 410.713 179.057C410.387 178.383 410.224 177.598 410.224 176.705C410.224 175.811 410.387 175.023 410.713 174.341C411.043 173.655 411.501 173.121 412.088 172.739C412.679 172.352 413.368 172.159 414.156 172.159C414.611 172.159 415.06 172.235 415.503 172.386C415.946 172.538 416.349 172.784 416.713 173.125C417.077 173.462 417.366 173.909 417.582 174.466C417.798 175.023 417.906 175.708 417.906 176.523V177.091H411.179V175.932H416.543C416.543 175.439 416.444 175 416.247 174.614C416.054 174.227 415.777 173.922 415.418 173.699C415.062 173.475 414.641 173.364 414.156 173.364C413.622 173.364 413.16 173.496 412.77 173.761C412.384 174.023 412.086 174.364 411.878 174.784C411.67 175.205 411.565 175.655 411.565 176.136V176.909C411.565 177.568 411.679 178.127 411.906 178.585C412.137 179.04 412.457 179.386 412.866 179.625C413.276 179.86 413.751 179.977 414.293 179.977C414.645 179.977 414.963 179.928 415.247 179.83C415.535 179.727 415.783 179.576 415.991 179.375C416.2 179.17 416.361 178.917 416.474 178.614L417.77 178.977C417.634 179.417 417.404 179.803 417.082 180.136C416.76 180.466 416.363 180.723 415.889 180.909C415.416 181.091 414.884 181.182 414.293 181.182Z" fill="#495057"/>
<rect x="265.25" y="192.75" width="362.5" height="34.5" rx="7.75" stroke="#495057" stroke-opacity="0.5" stroke-width="0.5"/>
<path d="M266.409 250.5V238.864H270.341C271.254 238.864 272 239.028 272.58 239.358C273.163 239.684 273.595 240.125 273.875 240.682C274.155 241.239 274.295 241.86 274.295 242.545C274.295 243.231 274.155 243.854 273.875 244.415C273.598 244.975 273.17 245.422 272.591 245.756C272.011 246.085 271.269 246.25 270.364 246.25H267.545V245H270.318C270.943 245 271.445 244.892 271.824 244.676C272.203 244.46 272.477 244.169 272.648 243.801C272.822 243.43 272.909 243.011 272.909 242.545C272.909 242.08 272.822 241.663 272.648 241.295C272.477 240.928 272.201 240.64 271.818 240.432C271.436 240.22 270.928 240.114 270.295 240.114H267.818V250.5H266.409ZM276.384 250.5V241.773H277.679V243.091H277.77C277.929 242.659 278.217 242.309 278.634 242.04C279.05 241.771 279.52 241.636 280.043 241.636C280.141 241.636 280.264 241.638 280.412 241.642C280.56 241.646 280.671 241.652 280.747 241.659V243.023C280.702 243.011 280.598 242.994 280.435 242.972C280.276 242.945 280.107 242.932 279.929 242.932C279.505 242.932 279.126 243.021 278.793 243.199C278.463 243.373 278.202 243.616 278.009 243.926C277.819 244.233 277.724 244.583 277.724 244.977V250.5H276.384ZM285.73 250.682C284.889 250.682 284.164 250.496 283.554 250.125C282.948 249.75 282.48 249.227 282.151 248.557C281.825 247.883 281.662 247.098 281.662 246.205C281.662 245.311 281.825 244.523 282.151 243.841C282.48 243.155 282.938 242.621 283.526 242.239C284.116 241.852 284.806 241.659 285.594 241.659C286.048 241.659 286.497 241.735 286.94 241.886C287.384 242.038 287.787 242.284 288.151 242.625C288.514 242.962 288.804 243.409 289.02 243.966C289.236 244.523 289.344 245.208 289.344 246.023V246.591H282.616V245.432H287.98C287.98 244.939 287.882 244.5 287.685 244.114C287.491 243.727 287.215 243.422 286.855 243.199C286.499 242.975 286.079 242.864 285.594 242.864C285.06 242.864 284.598 242.996 284.207 243.261C283.821 243.523 283.524 243.864 283.315 244.284C283.107 244.705 283.003 245.155 283.003 245.636V246.409C283.003 247.068 283.116 247.627 283.344 248.085C283.575 248.54 283.895 248.886 284.304 249.125C284.713 249.36 285.188 249.477 285.73 249.477C286.082 249.477 286.401 249.428 286.685 249.33C286.973 249.227 287.221 249.076 287.429 248.875C287.637 248.67 287.798 248.417 287.912 248.114L289.207 248.477C289.071 248.917 288.842 249.303 288.52 249.636C288.198 249.966 287.8 250.223 287.327 250.409C286.853 250.591 286.321 250.682 285.73 250.682ZM294.929 250.682C294.111 250.682 293.406 250.489 292.815 250.102C292.224 249.716 291.77 249.184 291.452 248.506C291.134 247.828 290.974 247.053 290.974 246.182C290.974 245.295 291.137 244.513 291.463 243.835C291.793 243.153 292.251 242.621 292.838 242.239C293.429 241.852 294.118 241.659 294.906 241.659C295.52 241.659 296.073 241.773 296.565 242C297.058 242.227 297.461 242.545 297.776 242.955C298.09 243.364 298.285 243.841 298.361 244.386H297.02C296.918 243.989 296.69 243.636 296.338 243.33C295.99 243.019 295.52 242.864 294.929 242.864C294.406 242.864 293.948 243 293.554 243.273C293.164 243.542 292.859 243.922 292.639 244.415C292.423 244.903 292.315 245.477 292.315 246.136C292.315 246.811 292.421 247.398 292.634 247.898C292.849 248.398 293.152 248.786 293.543 249.062C293.937 249.339 294.399 249.477 294.929 249.477C295.277 249.477 295.594 249.417 295.878 249.295C296.162 249.174 296.402 249 296.599 248.773C296.796 248.545 296.937 248.273 297.02 247.955H298.361C298.285 248.47 298.098 248.934 297.798 249.347C297.503 249.756 297.111 250.081 296.622 250.324C296.137 250.562 295.573 250.682 294.929 250.682ZM294.293 250.455H295.406L295.315 250.909C295.611 250.955 295.882 251.078 296.128 251.278C296.374 251.483 296.497 251.807 296.497 252.25C296.497 252.739 296.295 253.136 295.889 253.443C295.488 253.754 294.895 253.909 294.111 253.909L294.065 253.023C294.418 253.023 294.709 252.966 294.94 252.852C295.175 252.742 295.293 252.557 295.293 252.295C295.293 252.034 295.196 251.856 295.003 251.761C294.81 251.667 294.497 251.602 294.065 251.568L294.293 250.455ZM303.866 250.682C303.079 250.682 302.387 250.494 301.793 250.119C301.202 249.744 300.74 249.22 300.406 248.545C300.077 247.871 299.912 247.083 299.912 246.182C299.912 245.273 300.077 244.479 300.406 243.801C300.74 243.123 301.202 242.597 301.793 242.222C302.387 241.847 303.079 241.659 303.866 241.659C304.654 241.659 305.344 241.847 305.935 242.222C306.529 242.597 306.991 243.123 307.321 243.801C307.654 244.479 307.821 245.273 307.821 246.182C307.821 247.083 307.654 247.871 307.321 248.545C306.991 249.22 306.529 249.744 305.935 250.119C305.344 250.494 304.654 250.682 303.866 250.682ZM303.866 249.477C304.465 249.477 304.957 249.324 305.344 249.017C305.73 248.71 306.016 248.307 306.202 247.807C306.387 247.307 306.48 246.765 306.48 246.182C306.48 245.598 306.387 245.055 306.202 244.551C306.016 244.047 305.73 243.64 305.344 243.33C304.957 243.019 304.465 242.864 303.866 242.864C303.268 242.864 302.776 243.019 302.389 243.33C302.003 243.64 301.717 244.047 301.531 244.551C301.346 245.055 301.253 245.598 301.253 246.182C301.253 246.765 301.346 247.307 301.531 247.807C301.717 248.307 302.003 248.71 302.389 249.017C302.776 249.324 303.268 249.477 303.866 249.477Z" fill="#495057"/>
<rect x="265.25" y="262.25" width="362.5" height="34.5" rx="7.75" stroke="#495057" stroke-opacity="0.5" stroke-width="0.5"/>
<path d="M266.409 320V308.364H270.341C271.25 308.364 271.996 308.519 272.58 308.83C273.163 309.136 273.595 309.559 273.875 310.097C274.155 310.634 274.295 311.246 274.295 311.932C274.295 312.617 274.155 313.225 273.875 313.756C273.595 314.286 273.165 314.703 272.585 315.006C272.006 315.305 271.265 315.455 270.364 315.455H267.182V314.182H270.318C270.939 314.182 271.439 314.091 271.818 313.909C272.201 313.727 272.477 313.47 272.648 313.136C272.822 312.799 272.909 312.398 272.909 311.932C272.909 311.466 272.822 311.059 272.648 310.71C272.473 310.362 272.195 310.093 271.812 309.903C271.43 309.71 270.924 309.614 270.295 309.614H267.818V320H266.409ZM271.886 314.773L274.75 320H273.114L270.295 314.773H271.886ZM280.027 320.182C279.186 320.182 278.461 319.996 277.851 319.625C277.245 319.25 276.777 318.727 276.447 318.057C276.122 317.383 275.959 316.598 275.959 315.705C275.959 314.811 276.122 314.023 276.447 313.341C276.777 312.655 277.235 312.121 277.822 311.739C278.413 311.352 279.103 311.159 279.891 311.159C280.345 311.159 280.794 311.235 281.237 311.386C281.68 311.538 282.084 311.784 282.447 312.125C282.811 312.462 283.101 312.909 283.317 313.466C283.533 314.023 283.641 314.708 283.641 315.523V316.091H276.913V314.932H282.277C282.277 314.439 282.179 314 281.982 313.614C281.788 313.227 281.512 312.922 281.152 312.699C280.796 312.475 280.375 312.364 279.891 312.364C279.357 312.364 278.894 312.496 278.504 312.761C278.118 313.023 277.821 313.364 277.612 313.784C277.404 314.205 277.3 314.655 277.3 315.136V315.909C277.3 316.568 277.413 317.127 277.641 317.585C277.872 318.04 278.192 318.386 278.601 318.625C279.01 318.86 279.485 318.977 280.027 318.977C280.379 318.977 280.697 318.928 280.982 318.83C281.269 318.727 281.518 318.576 281.726 318.375C281.934 318.17 282.095 317.917 282.209 317.614L283.504 317.977C283.368 318.417 283.139 318.803 282.817 319.136C282.495 319.466 282.097 319.723 281.624 319.909C281.15 320.091 280.618 320.182 280.027 320.182ZM289.226 320.182C288.408 320.182 287.703 319.989 287.112 319.602C286.521 319.216 286.067 318.684 285.749 318.006C285.43 317.328 285.271 316.553 285.271 315.682C285.271 314.795 285.434 314.013 285.76 313.335C286.089 312.653 286.548 312.121 287.135 311.739C287.726 311.352 288.415 311.159 289.203 311.159C289.817 311.159 290.37 311.273 290.862 311.5C291.355 311.727 291.758 312.045 292.072 312.455C292.387 312.864 292.582 313.341 292.658 313.886H291.317C291.214 313.489 290.987 313.136 290.635 312.83C290.286 312.519 289.817 312.364 289.226 312.364C288.703 312.364 288.245 312.5 287.851 312.773C287.461 313.042 287.156 313.422 286.936 313.915C286.72 314.403 286.612 314.977 286.612 315.636C286.612 316.311 286.718 316.898 286.93 317.398C287.146 317.898 287.449 318.286 287.839 318.562C288.233 318.839 288.696 318.977 289.226 318.977C289.574 318.977 289.891 318.917 290.175 318.795C290.459 318.674 290.699 318.5 290.896 318.273C291.093 318.045 291.233 317.773 291.317 317.455H292.658C292.582 317.97 292.394 318.434 292.095 318.847C291.8 319.256 291.408 319.581 290.919 319.824C290.434 320.062 289.87 320.182 289.226 320.182ZM298.277 320.182C297.436 320.182 296.711 319.996 296.101 319.625C295.495 319.25 295.027 318.727 294.697 318.057C294.372 317.383 294.209 316.598 294.209 315.705C294.209 314.811 294.372 314.023 294.697 313.341C295.027 312.655 295.485 312.121 296.072 311.739C296.663 311.352 297.353 311.159 298.141 311.159C298.595 311.159 299.044 311.235 299.487 311.386C299.93 311.538 300.334 311.784 300.697 312.125C301.061 312.462 301.351 312.909 301.567 313.466C301.783 314.023 301.891 314.708 301.891 315.523V316.091H295.163V314.932H300.527C300.527 314.439 300.429 314 300.232 313.614C300.038 313.227 299.762 312.922 299.402 312.699C299.046 312.475 298.625 312.364 298.141 312.364C297.607 312.364 297.144 312.496 296.754 312.761C296.368 313.023 296.071 313.364 295.862 313.784C295.654 314.205 295.55 314.655 295.55 315.136V315.909C295.55 316.568 295.663 317.127 295.891 317.585C296.122 318.04 296.442 318.386 296.851 318.625C297.26 318.86 297.735 318.977 298.277 318.977C298.629 318.977 298.947 318.928 299.232 318.83C299.519 318.727 299.768 318.576 299.976 318.375C300.184 318.17 300.345 317.917 300.459 317.614L301.754 317.977C301.618 318.417 301.389 318.803 301.067 319.136C300.745 319.466 300.347 319.723 299.874 319.909C299.4 320.091 298.868 320.182 298.277 320.182ZM303.93 320V311.273H305.271V320H303.93ZM304.612 309.818C304.351 309.818 304.125 309.729 303.936 309.551C303.75 309.373 303.658 309.159 303.658 308.909C303.658 308.659 303.75 308.445 303.936 308.267C304.125 308.089 304.351 308 304.612 308C304.874 308 305.097 308.089 305.283 308.267C305.472 308.445 305.567 308.659 305.567 308.909C305.567 309.159 305.472 309.373 305.283 309.551C305.097 309.729 304.874 309.818 304.612 309.818ZM311.523 311.273V312.409H307V311.273H311.523ZM308.318 309.182H309.659V317.5C309.659 317.879 309.714 318.163 309.824 318.352C309.938 318.538 310.081 318.663 310.256 318.727C310.434 318.788 310.621 318.818 310.818 318.818C310.966 318.818 311.087 318.811 311.182 318.795C311.277 318.777 311.352 318.761 311.409 318.75L311.682 319.955C311.591 319.989 311.464 320.023 311.301 320.057C311.138 320.095 310.932 320.114 310.682 320.114C310.303 320.114 309.932 320.032 309.568 319.869C309.208 319.706 308.909 319.458 308.67 319.125C308.436 318.792 308.318 318.371 308.318 317.864V309.182ZM316.108 320.205C315.555 320.205 315.053 320.1 314.602 319.892C314.152 319.68 313.794 319.375 313.528 318.977C313.263 318.576 313.131 318.091 313.131 317.523C313.131 317.023 313.229 316.617 313.426 316.307C313.623 315.992 313.886 315.746 314.216 315.568C314.545 315.39 314.909 315.258 315.307 315.17C315.708 315.08 316.112 315.008 316.517 314.955C317.047 314.886 317.477 314.835 317.807 314.801C318.14 314.763 318.383 314.701 318.534 314.614C318.689 314.527 318.767 314.375 318.767 314.159V314.114C318.767 313.553 318.614 313.117 318.307 312.807C318.004 312.496 317.544 312.341 316.926 312.341C316.286 312.341 315.784 312.481 315.42 312.761C315.057 313.042 314.801 313.341 314.653 313.659L313.381 313.205C313.608 312.674 313.911 312.261 314.29 311.966C314.672 311.667 315.089 311.458 315.54 311.341C315.994 311.22 316.441 311.159 316.881 311.159C317.161 311.159 317.483 311.193 317.847 311.261C318.214 311.326 318.568 311.46 318.909 311.665C319.254 311.869 319.54 312.178 319.767 312.591C319.994 313.004 320.108 313.557 320.108 314.25V320H318.767V318.818H318.699C318.608 319.008 318.456 319.21 318.244 319.426C318.032 319.642 317.75 319.826 317.398 319.977C317.045 320.129 316.616 320.205 316.108 320.205ZM316.312 319C316.843 319 317.29 318.896 317.653 318.688C318.021 318.479 318.297 318.21 318.483 317.881C318.672 317.551 318.767 317.205 318.767 316.841V315.614C318.71 315.682 318.585 315.744 318.392 315.801C318.203 315.854 317.983 315.902 317.733 315.943C317.487 315.981 317.246 316.015 317.011 316.045C316.78 316.072 316.593 316.095 316.449 316.114C316.1 316.159 315.775 316.233 315.472 316.335C315.172 316.434 314.93 316.583 314.744 316.784C314.563 316.981 314.472 317.25 314.472 317.591C314.472 318.057 314.644 318.409 314.989 318.648C315.337 318.883 315.778 319 316.312 319Z" fill="#495057"/>
<rect x="265.25" y="331.75" width="362.5" height="34.5" rx="7.75" stroke="#495057" stroke-opacity="0.5" stroke-width="0.5"/>
<rect x="402" y="382.5" width="109" height="40" rx="12" fill="#FFB4AB"/>
<path d="M419.719 401.254H417.86C417.807 400.949 417.709 400.679 417.567 400.443C417.424 400.205 417.247 400.002 417.035 399.837C416.823 399.671 416.581 399.547 416.309 399.464C416.04 399.378 415.75 399.335 415.439 399.335C414.885 399.335 414.395 399.474 413.967 399.752C413.54 400.027 413.205 400.432 412.963 400.965C412.721 401.496 412.6 402.143 412.6 402.909C412.6 403.688 412.721 404.344 412.963 404.878C413.208 405.408 413.543 405.809 413.967 406.081C414.395 406.349 414.884 406.484 415.434 406.484C415.739 406.484 416.024 406.444 416.289 406.364C416.558 406.281 416.798 406.161 417.01 406.001C417.225 405.842 417.406 405.647 417.552 405.415C417.701 405.183 417.804 404.918 417.86 404.619L419.719 404.629C419.65 405.113 419.499 405.567 419.267 405.991C419.038 406.416 418.738 406.79 418.367 407.115C417.996 407.437 417.562 407.688 417.065 407.871C416.567 408.05 416.016 408.139 415.409 408.139C414.514 408.139 413.715 407.932 413.013 407.518C412.31 407.103 411.757 406.505 411.352 405.723C410.948 404.941 410.746 404.003 410.746 402.909C410.746 401.812 410.95 400.874 411.357 400.095C411.765 399.313 412.32 398.715 413.023 398.3C413.725 397.886 414.521 397.679 415.409 397.679C415.976 397.679 416.503 397.759 416.99 397.918C417.477 398.077 417.911 398.31 418.293 398.619C418.674 398.924 418.987 399.298 419.232 399.742C419.481 400.183 419.643 400.687 419.719 401.254ZM423.526 408.154C423.043 408.154 422.607 408.068 422.219 407.896C421.834 407.72 421.53 407.461 421.304 407.12C421.082 406.779 420.971 406.358 420.971 405.857C420.971 405.426 421.051 405.07 421.21 404.788C421.369 404.507 421.586 404.281 421.861 404.112C422.136 403.943 422.446 403.816 422.791 403.729C423.139 403.64 423.498 403.575 423.869 403.536C424.317 403.489 424.68 403.448 424.958 403.411C425.237 403.371 425.439 403.312 425.565 403.232C425.694 403.149 425.759 403.022 425.759 402.849V402.82C425.759 402.445 425.648 402.155 425.426 401.95C425.204 401.744 424.884 401.641 424.466 401.641C424.025 401.641 423.676 401.737 423.417 401.93C423.162 402.122 422.99 402.349 422.9 402.611L421.22 402.372C421.352 401.908 421.571 401.52 421.876 401.209C422.181 400.894 422.554 400.659 422.994 400.503C423.435 400.344 423.923 400.264 424.456 400.264C424.824 400.264 425.19 400.307 425.555 400.393C425.919 400.48 426.253 400.622 426.554 400.821C426.856 401.017 427.098 401.283 427.28 401.621C427.466 401.96 427.558 402.382 427.558 402.889V408H425.828V406.951H425.769C425.659 407.163 425.505 407.362 425.306 407.548C425.111 407.73 424.864 407.877 424.566 407.99C424.271 408.099 423.924 408.154 423.526 408.154ZM423.994 406.832C424.355 406.832 424.668 406.76 424.933 406.618C425.199 406.472 425.402 406.28 425.545 406.041C425.691 405.803 425.764 405.542 425.764 405.261V404.361C425.707 404.407 425.611 404.45 425.475 404.49C425.343 404.53 425.194 404.565 425.028 404.594C424.862 404.624 424.698 404.651 424.536 404.674C424.373 404.697 424.232 404.717 424.113 404.734C423.845 404.77 423.604 404.83 423.392 404.913C423.18 404.996 423.013 405.112 422.89 405.261C422.767 405.406 422.706 405.595 422.706 405.827C422.706 406.159 422.827 406.409 423.069 406.578C423.311 406.747 423.619 406.832 423.994 406.832ZM431.168 403.526V408H429.368V400.364H431.088V401.661H431.178C431.353 401.234 431.633 400.894 432.018 400.642C432.406 400.39 432.885 400.264 433.455 400.264C433.982 400.264 434.441 400.377 434.832 400.602C435.226 400.828 435.531 401.154 435.747 401.582C435.965 402.009 436.073 402.528 436.07 403.138V408H434.27V403.416C434.27 402.906 434.137 402.506 433.872 402.218C433.61 401.93 433.248 401.786 432.784 401.786C432.469 401.786 432.189 401.855 431.943 401.994C431.701 402.13 431.511 402.327 431.372 402.586C431.236 402.844 431.168 403.158 431.168 403.526ZM441.23 408.149C440.468 408.149 439.813 407.982 439.267 407.647C438.723 407.312 438.304 406.85 438.009 406.26C437.717 405.667 437.571 404.984 437.571 404.212C437.571 403.436 437.72 402.752 438.019 402.158C438.317 401.562 438.738 401.098 439.281 400.766C439.828 400.432 440.475 400.264 441.22 400.264C441.84 400.264 442.389 400.379 442.866 400.607C443.347 400.833 443.729 401.152 444.014 401.567C444.299 401.978 444.462 402.458 444.502 403.009H442.781C442.712 402.641 442.546 402.334 442.284 402.089C442.026 401.84 441.679 401.716 441.245 401.716C440.877 401.716 440.554 401.815 440.276 402.014C439.997 402.21 439.78 402.491 439.624 402.859C439.472 403.227 439.396 403.668 439.396 404.182C439.396 404.702 439.472 405.15 439.624 405.524C439.777 405.895 439.991 406.182 440.266 406.384C440.544 406.583 440.871 406.683 441.245 406.683C441.51 406.683 441.747 406.633 441.956 406.533C442.168 406.431 442.346 406.283 442.488 406.091C442.631 405.899 442.728 405.665 442.781 405.39H444.502C444.459 405.93 444.299 406.409 444.024 406.827C443.749 407.241 443.375 407.566 442.901 407.801C442.427 408.033 441.87 408.149 441.23 408.149ZM449.36 408.149C448.594 408.149 447.933 407.99 447.376 407.672C446.823 407.35 446.397 406.896 446.099 406.31C445.8 405.72 445.651 405.025 445.651 404.227C445.651 403.441 445.8 402.752 446.099 402.158C446.4 401.562 446.821 401.098 447.362 400.766C447.902 400.432 448.536 400.264 449.266 400.264C449.736 400.264 450.18 400.34 450.598 400.493C451.019 400.642 451.39 400.874 451.712 401.189C452.036 401.504 452.292 401.905 452.477 402.392C452.663 402.876 452.756 403.453 452.756 404.122V404.674H446.496V403.461H451.031C451.027 403.116 450.953 402.81 450.807 402.541C450.661 402.269 450.457 402.056 450.195 401.9C449.937 401.744 449.635 401.666 449.29 401.666C448.923 401.666 448.599 401.756 448.321 401.935C448.043 402.11 447.826 402.342 447.67 402.631C447.517 402.916 447.439 403.229 447.436 403.57V404.629C447.436 405.073 447.517 405.455 447.68 405.773C447.842 406.088 448.069 406.33 448.361 406.499C448.652 406.664 448.994 406.747 449.385 406.747C449.647 406.747 449.884 406.711 450.096 406.638C450.308 406.562 450.492 406.451 450.648 406.305C450.804 406.159 450.921 405.978 451.001 405.763L452.681 405.952C452.575 406.396 452.373 406.784 452.075 407.115C451.78 407.443 451.402 407.698 450.941 407.881C450.48 408.06 449.953 408.149 449.36 408.149ZM456.078 397.818V408H454.278V397.818H456.078ZM460.126 408.154C459.642 408.154 459.206 408.068 458.819 407.896C458.434 407.72 458.129 407.461 457.904 407.12C457.682 406.779 457.571 406.358 457.571 405.857C457.571 405.426 457.65 405.07 457.809 404.788C457.968 404.507 458.185 404.281 458.461 404.112C458.736 403.943 459.046 403.816 459.39 403.729C459.738 403.64 460.098 403.575 460.469 403.536C460.917 403.489 461.279 403.448 461.558 403.411C461.836 403.371 462.038 403.312 462.164 403.232C462.294 403.149 462.358 403.022 462.358 402.849V402.82C462.358 402.445 462.247 402.155 462.025 401.95C461.803 401.744 461.483 401.641 461.066 401.641C460.625 401.641 460.275 401.737 460.017 401.93C459.761 402.122 459.589 402.349 459.5 402.611L457.819 402.372C457.952 401.908 458.171 401.52 458.475 401.209C458.78 400.894 459.153 400.659 459.594 400.503C460.035 400.344 460.522 400.264 461.056 400.264C461.424 400.264 461.79 400.307 462.154 400.393C462.519 400.48 462.852 400.622 463.154 400.821C463.455 401.017 463.697 401.283 463.88 401.621C464.065 401.96 464.158 402.382 464.158 402.889V408H462.428V406.951H462.368C462.259 407.163 462.105 407.362 461.906 407.548C461.71 407.73 461.463 407.877 461.165 407.99C460.87 408.099 460.524 408.154 460.126 408.154ZM460.593 406.832C460.955 406.832 461.268 406.76 461.533 406.618C461.798 406.472 462.002 406.28 462.145 406.041C462.29 405.803 462.363 405.542 462.363 405.261V404.361C462.307 404.407 462.211 404.45 462.075 404.49C461.942 404.53 461.793 404.565 461.627 404.594C461.462 404.624 461.298 404.651 461.135 404.674C460.973 404.697 460.832 404.717 460.713 404.734C460.444 404.77 460.204 404.83 459.992 404.913C459.78 404.996 459.612 405.112 459.49 405.261C459.367 405.406 459.306 405.595 459.306 405.827C459.306 406.159 459.427 406.409 459.669 406.578C459.911 406.747 460.219 406.832 460.593 406.832ZM465.968 408V400.364H467.713V401.636H467.792C467.931 401.196 468.17 400.856 468.508 400.617C468.85 400.375 469.239 400.254 469.676 400.254C469.776 400.254 469.887 400.259 470.01 400.269C470.136 400.276 470.24 400.287 470.323 400.304V401.96C470.247 401.933 470.126 401.91 469.96 401.89C469.797 401.867 469.64 401.855 469.488 401.855C469.159 401.855 468.864 401.926 468.603 402.069C468.344 402.208 468.14 402.402 467.991 402.651C467.842 402.899 467.767 403.186 467.767 403.511V408H465.968Z" fill="#690005"/>
<path fill-rule="evenodd" clip-rule="evenodd" d="M491 392.75C485.615 392.75 481.25 397.115 481.25 402.5C481.25 407.885 485.615 412.25 491 412.25C496.385 412.25 500.75 407.885 500.75 402.5C500.75 397.115 496.385 392.75 491 392.75ZM489.28 399.72C489.211 399.646 489.129 399.587 489.037 399.546C488.945 399.505 488.845 399.483 488.745 399.481C488.644 399.48 488.544 399.498 488.45 399.536C488.357 399.574 488.272 399.63 488.201 399.701C488.13 399.772 488.074 399.857 488.036 399.95C487.998 400.044 487.98 400.144 487.981 400.245C487.983 400.345 488.005 400.445 488.046 400.537C488.087 400.629 488.146 400.711 488.22 400.78L489.94 402.5L488.22 404.22C488.146 404.289 488.087 404.371 488.046 404.463C488.005 404.555 487.983 404.655 487.981 404.755C487.98 404.856 487.998 404.956 488.036 405.05C488.074 405.143 488.13 405.228 488.201 405.299C488.272 405.37 488.357 405.426 488.45 405.464C488.544 405.502 488.644 405.52 488.745 405.519C488.845 405.517 488.945 405.495 489.037 405.454C489.129 405.413 489.211 405.354 489.28 405.28L491 403.56L492.72 405.28C492.789 405.354 492.871 405.413 492.963 405.454C493.055 405.495 493.155 405.517 493.255 405.519C493.356 405.52 493.456 405.502 493.55 405.464C493.643 405.426 493.728 405.37 493.799 405.299C493.87 405.228 493.926 405.143 493.964 405.05C494.002 404.956 494.02 404.856 494.019 404.755C494.017 404.655 493.995 404.555 493.954 404.463C493.913 404.371 493.854 404.289 493.78 404.22L492.06 402.5L493.78 400.78C493.854 400.711 493.913 400.629 493.954 400.537C493.995 400.445 494.017 400.345 494.019 400.245C494.02 400.144 494.002 400.044 493.964 399.95C493.926 399.857 493.87 399.772 493.799 399.701C493.728 399.63 493.643 399.574 493.55 399.536C493.456 399.498 493.356 399.48 493.255 399.481C493.155 399.483 493.055 399.505 492.963 399.546C492.871 399.587 492.789 399.646 492.72 399.72L491 401.44L489.28 399.72Z" fill="#690005"/>
<rect x="519" y="382.5" width="109" height="40" rx="12" fill="#0071E3"/>
<path d="M529.312 408H527.343L530.928 397.818H533.205L536.794 408H534.825L532.106 399.906H532.026L529.312 408ZM529.376 404.008H534.746V405.489H529.376V404.008ZM541.39 400.364V401.756H537V400.364H541.39ZM538.084 398.534H539.884V405.703C539.884 405.945 539.92 406.131 539.993 406.26C540.069 406.386 540.169 406.472 540.292 406.518C540.414 406.565 540.55 406.588 540.699 406.588C540.812 406.588 540.915 406.58 541.007 406.563C541.104 406.547 541.176 406.532 541.226 406.518L541.529 407.925C541.433 407.959 541.296 407.995 541.117 408.035C540.941 408.075 540.726 408.098 540.471 408.104C540.02 408.118 539.614 408.05 539.252 407.901C538.891 407.748 538.605 407.513 538.392 407.195C538.184 406.876 538.081 406.479 538.084 406.001V398.534ZM547.763 404.788V400.364H549.562V408H547.817V406.643H547.738C547.565 407.07 547.282 407.42 546.888 407.692C546.497 407.964 546.014 408.099 545.441 408.099C544.94 408.099 544.498 407.988 544.113 407.766C543.732 407.541 543.434 407.214 543.219 406.787C543.003 406.356 542.895 405.836 542.895 405.226V400.364H544.695V404.947C544.695 405.431 544.828 405.816 545.093 406.101C545.358 406.386 545.706 406.528 546.137 406.528C546.402 406.528 546.659 406.464 546.907 406.335C547.156 406.205 547.36 406.013 547.519 405.758C547.681 405.499 547.763 405.176 547.763 404.788ZM553.61 408.154C553.127 408.154 552.691 408.068 552.303 407.896C551.918 407.72 551.614 407.461 551.388 407.12C551.166 406.779 551.055 406.358 551.055 405.857C551.055 405.426 551.135 405.07 551.294 404.788C551.453 404.507 551.67 404.281 551.945 404.112C552.22 403.943 552.53 403.816 552.875 403.729C553.223 403.64 553.582 403.575 553.953 403.536C554.401 403.489 554.764 403.448 555.042 403.411C555.321 403.371 555.523 403.312 555.649 403.232C555.778 403.149 555.843 403.022 555.843 402.849V402.82C555.843 402.445 555.732 402.155 555.51 401.95C555.288 401.744 554.968 401.641 554.55 401.641C554.109 401.641 553.76 401.737 553.501 401.93C553.246 402.122 553.074 402.349 552.984 402.611L551.304 402.372C551.436 401.908 551.655 401.52 551.96 401.209C552.265 400.894 552.638 400.659 553.078 400.503C553.519 400.344 554.007 400.264 554.54 400.264C554.908 400.264 555.274 400.307 555.639 400.393C556.003 400.48 556.337 400.622 556.638 400.821C556.94 401.017 557.182 401.283 557.364 401.621C557.55 401.96 557.642 402.382 557.642 402.889V408H555.912V406.951H555.853C555.743 407.163 555.589 407.362 555.39 407.548C555.195 407.73 554.948 407.877 554.65 407.99C554.355 408.099 554.008 408.154 553.61 408.154ZM554.078 406.832C554.439 406.832 554.752 406.76 555.017 406.618C555.283 406.472 555.486 406.28 555.629 406.041C555.775 405.803 555.848 405.542 555.848 405.261V404.361C555.791 404.407 555.695 404.45 555.559 404.49C555.427 404.53 555.278 404.565 555.112 404.594C554.946 404.624 554.782 404.651 554.62 404.674C554.457 404.697 554.316 404.717 554.197 404.734C553.929 404.77 553.688 404.83 553.476 404.913C553.264 404.996 553.097 405.112 552.974 405.261C552.851 405.406 552.79 405.595 552.79 405.827C552.79 406.159 552.911 406.409 553.153 406.578C553.395 406.747 553.703 406.832 554.078 406.832ZM561.252 397.818V408H559.452V397.818H561.252ZM563.102 408V400.364H564.902V408H563.102ZM564.007 399.28C563.722 399.28 563.477 399.185 563.271 398.996C563.066 398.804 562.963 398.574 562.963 398.305C562.963 398.034 563.066 397.803 563.271 397.614C563.477 397.422 563.722 397.326 564.007 397.326C564.296 397.326 564.541 397.422 564.743 397.614C564.949 397.803 565.051 398.034 565.051 398.305C565.051 398.574 564.949 398.804 564.743 398.996C564.541 399.185 564.296 399.28 564.007 399.28ZM566.653 408V406.857L570.591 401.92V401.855H566.783V400.364H572.793V401.592L569.045 406.444V406.509H572.923V408H566.653ZM576.812 408.154C576.328 408.154 575.892 408.068 575.504 407.896C575.12 407.72 574.815 407.461 574.589 407.12C574.367 406.779 574.256 406.358 574.256 405.857C574.256 405.426 574.336 405.07 574.495 404.788C574.654 404.507 574.871 404.281 575.146 404.112C575.421 403.943 575.731 403.816 576.076 403.729C576.424 403.64 576.783 403.575 577.155 403.536C577.602 403.489 577.965 403.448 578.243 403.411C578.522 403.371 578.724 403.312 578.85 403.232C578.979 403.149 579.044 403.022 579.044 402.849V402.82C579.044 402.445 578.933 402.155 578.711 401.95C578.489 401.744 578.169 401.641 577.751 401.641C577.31 401.641 576.961 401.737 576.702 401.93C576.447 402.122 576.275 402.349 576.185 402.611L574.505 402.372C574.637 401.908 574.856 401.52 575.161 401.209C575.466 400.894 575.839 400.659 576.28 400.503C576.72 400.344 577.208 400.264 577.741 400.264C578.109 400.264 578.475 400.307 578.84 400.393C579.205 400.48 579.538 400.622 579.839 400.821C580.141 401.017 580.383 401.283 580.565 401.621C580.751 401.96 580.844 402.382 580.844 402.889V408H579.113V406.951H579.054C578.944 407.163 578.79 407.362 578.591 407.548C578.396 407.73 578.149 407.877 577.851 407.99C577.556 408.099 577.209 408.154 576.812 408.154ZM577.279 406.832C577.64 406.832 577.953 406.76 578.219 406.618C578.484 406.472 578.688 406.28 578.83 406.041C578.976 405.803 579.049 405.542 579.049 405.261V404.361C578.992 404.407 578.896 404.45 578.76 404.49C578.628 404.53 578.479 404.565 578.313 404.594C578.147 404.624 577.983 404.651 577.821 404.674C577.658 404.697 577.518 404.717 577.398 404.734C577.13 404.77 576.89 404.83 576.677 404.913C576.465 404.996 576.298 405.112 576.175 405.261C576.053 405.406 575.991 405.595 575.991 405.827C575.991 406.159 576.112 406.409 576.354 406.578C576.596 406.747 576.904 406.832 577.279 406.832ZM582.653 408V400.364H584.398V401.636H584.478C584.617 401.196 584.856 400.856 585.194 400.617C585.535 400.375 585.925 400.254 586.362 400.254C586.461 400.254 586.573 400.259 586.695 400.269C586.821 400.276 586.925 400.287 587.008 400.304V401.96C586.932 401.933 586.811 401.91 586.645 401.89C586.483 401.867 586.326 401.855 586.173 401.855C585.845 401.855 585.55 401.926 585.288 402.069C585.03 402.208 584.826 402.402 584.677 402.651C584.528 402.899 584.453 403.186 584.453 403.511V408H582.653Z" fill="white"/>
<path fill-rule="evenodd" clip-rule="evenodd" d="M615.5 411.5C616.296 411.5 617.059 411.184 617.621 410.621C618.184 410.059 618.5 409.296 618.5 408.5V399.5C618.5 398.704 618.184 397.941 617.621 397.379C617.059 396.816 616.296 396.5 615.5 396.5H610.121C609.922 396.5 609.732 396.421 609.591 396.28L607.47 394.16C607.261 393.951 607.013 393.785 606.74 393.672C606.467 393.558 606.175 393.5 605.879 393.5H600.5C599.704 393.5 598.941 393.816 598.379 394.379C597.816 394.941 597.5 395.704 597.5 396.5V408.5C597.5 409.296 597.816 410.059 598.379 410.621C598.941 411.184 599.704 411.5 600.5 411.5H615.5ZM608.75 401C608.75 400.801 608.671 400.61 608.53 400.47C608.39 400.329 608.199 400.25 608 400.25C607.801 400.25 607.61 400.329 607.47 400.47C607.329 400.61 607.25 400.801 607.25 401V403.25H605C604.801 403.25 604.61 403.329 604.47 403.47C604.329 403.61 604.25 403.801 604.25 404C604.25 404.199 604.329 404.39 604.47 404.53C604.61 404.671 604.801 404.75 605 404.75H607.25V407C607.25 407.199 607.329 407.39 607.47 407.53C607.61 407.671 607.801 407.75 608 407.75C608.199 407.75 608.39 407.671 608.53 407.53C608.671 407.39 608.75 407.199 608.75 407V404.75H611C611.199 404.75 611.39 404.671 611.53 404.53C611.671 404.39 611.75 404.199 611.75 404C611.75 403.801 611.671 403.61 611.53 403.47C611.39 403.329 611.199 403.25 611 403.25H608.75V401Z" fill="white"/>
<path d="M101.568 211.76L93.216 234H88.992L80.608 211.76H84.512L91.104 230.256L97.728 211.76H101.568ZM106.475 214.032C105.813 214.032 105.259 213.808 104.811 213.36C104.363 212.912 104.139 212.357 104.139 211.696C104.139 211.035 104.363 210.48 104.811 210.032C105.259 209.584 105.813 209.36 106.475 209.36C107.115 209.36 107.659 209.584 108.107 210.032C108.555 210.48 108.779 211.035 108.779 211.696C108.779 212.357 108.555 212.912 108.107 213.36C107.659 213.808 107.115 214.032 106.475 214.032ZM108.267 216.368V234H104.619V216.368H108.267ZM111.84 225.104C111.84 223.333 112.203 221.765 112.928 220.4C113.675 219.035 114.678 217.979 115.936 217.232C117.216 216.464 118.635 216.08 120.192 216.08C121.344 216.08 122.475 216.336 123.584 216.848C124.715 217.339 125.611 218 126.272 218.832V210.32H129.952V234H126.272V231.344C125.675 232.197 124.843 232.901 123.776 233.456C122.731 234.011 121.526 234.288 120.16 234.288C118.624 234.288 117.216 233.904 115.936 233.136C114.678 232.347 113.675 231.259 112.928 229.872C112.203 228.464 111.84 226.875 111.84 225.104ZM126.272 225.168C126.272 223.952 126.016 222.896 125.504 222C125.014 221.104 124.363 220.421 123.552 219.952C122.742 219.483 121.867 219.248 120.928 219.248C119.99 219.248 119.115 219.483 118.304 219.952C117.494 220.4 116.832 221.072 116.32 221.968C115.83 222.843 115.584 223.888 115.584 225.104C115.584 226.32 115.83 227.387 116.32 228.304C116.832 229.221 117.494 229.925 118.304 230.416C119.136 230.885 120.011 231.12 120.928 231.12C121.867 231.12 122.742 230.885 123.552 230.416C124.363 229.947 125.014 229.264 125.504 228.368C126.016 227.451 126.272 226.384 126.272 225.168ZM133.528 225.104C133.528 223.333 133.89 221.765 134.616 220.4C135.362 219.035 136.365 217.979 137.624 217.232C138.904 216.464 140.312 216.08 141.848 216.08C143.234 216.08 144.44 216.357 145.464 216.912C146.509 217.445 147.341 218.117 147.96 218.928V216.368H151.64V234H147.96V231.376C147.341 232.208 146.498 232.901 145.432 233.456C144.365 234.011 143.149 234.288 141.784 234.288C140.269 234.288 138.882 233.904 137.624 233.136C136.365 232.347 135.362 231.259 134.616 229.872C133.89 228.464 133.528 226.875 133.528 225.104ZM147.96 225.168C147.96 223.952 147.704 222.896 147.192 222C146.701 221.104 146.05 220.421 145.24 219.952C144.429 219.483 143.554 219.248 142.616 219.248C141.677 219.248 140.802 219.483 139.992 219.952C139.181 220.4 138.52 221.072 138.008 221.968C137.517 222.843 137.272 223.888 137.272 225.104C137.272 226.32 137.517 227.387 138.008 228.304C138.52 229.221 139.181 229.925 139.992 230.416C140.824 230.885 141.698 231.12 142.616 231.12C143.554 231.12 144.429 230.885 145.24 230.416C146.05 229.947 146.701 229.264 147.192 228.368C147.704 227.451 147.96 226.384 147.96 225.168ZM173.615 223.984H167.151V230.608H163.759V223.984H157.295V220.912H163.759V214.288H167.151V220.912H173.615V223.984Z" fill="url(#paint0_linear_33_115)"/>
<defs>
<linearGradient id="paint0_linear_33_115" x1="80" y1="199" x2="128.5" y2="247" gradientUnits="userSpaceOnUse">
<stop stop-color="#00363C"/>
<stop offset="1" stop-color="#B1CBCF"/>
</linearGradient>
</defs>
</svg>
