<svg width="600" height="227" viewBox="0 0 600 227" fill="none" xmlns="http://www.w3.org/2000/svg">
<g clip-path="url(#clip0_79_320)">
<rect width="600" height="227" fill="white"/>
<rect x="8" y="56" width="284" height="163" rx="12" fill="#00363C"/>
<path d="M112.719 136.254H110.86C110.807 135.949 110.709 135.679 110.567 135.443C110.424 135.205 110.247 135.002 110.035 134.837C109.823 134.671 109.581 134.547 109.309 134.464C109.04 134.378 108.75 134.335 108.439 134.335C107.885 134.335 107.395 134.474 106.967 134.752C106.54 135.027 106.205 135.432 105.963 135.965C105.721 136.496 105.6 137.143 105.6 137.909C105.6 138.688 105.721 139.344 105.963 139.878C106.208 140.408 106.543 140.809 106.967 141.081C107.395 141.349 107.884 141.484 108.434 141.484C108.739 141.484 109.024 141.444 109.289 141.364C109.558 141.281 109.798 141.161 110.01 141.001C110.225 140.842 110.406 140.647 110.552 140.415C110.701 140.183 110.804 139.918 110.86 139.619L112.719 139.629C112.65 140.113 112.499 140.567 112.267 140.991C112.038 141.416 111.738 141.79 111.367 142.115C110.996 142.437 110.562 142.688 110.065 142.871C109.567 143.05 109.016 143.139 108.409 143.139C107.514 143.139 106.715 142.932 106.013 142.518C105.31 142.103 104.757 141.505 104.352 140.723C103.948 139.941 103.746 139.003 103.746 137.909C103.746 136.812 103.95 135.874 104.357 135.095C104.765 134.313 105.32 133.715 106.023 133.3C106.725 132.886 107.521 132.679 108.409 132.679C108.976 132.679 109.503 132.759 109.99 132.918C110.477 133.077 110.911 133.31 111.293 133.619C111.674 133.924 111.987 134.298 112.232 134.742C112.481 135.183 112.643 135.687 112.719 136.254ZM116.526 143.154C116.043 143.154 115.607 143.068 115.219 142.896C114.834 142.72 114.53 142.461 114.304 142.12C114.082 141.779 113.971 141.358 113.971 140.857C113.971 140.426 114.051 140.07 114.21 139.788C114.369 139.507 114.586 139.281 114.861 139.112C115.136 138.943 115.446 138.816 115.791 138.729C116.139 138.64 116.498 138.575 116.869 138.536C117.317 138.489 117.68 138.448 117.958 138.411C118.237 138.371 118.439 138.312 118.565 138.232C118.694 138.149 118.759 138.022 118.759 137.849V137.82C118.759 137.445 118.648 137.155 118.426 136.95C118.204 136.744 117.884 136.641 117.466 136.641C117.025 136.641 116.676 136.737 116.417 136.93C116.162 137.122 115.99 137.349 115.9 137.611L114.22 137.372C114.352 136.908 114.571 136.52 114.876 136.209C115.181 135.894 115.554 135.659 115.994 135.503C116.435 135.344 116.923 135.264 117.456 135.264C117.824 135.264 118.19 135.307 118.555 135.393C118.919 135.48 119.253 135.622 119.554 135.821C119.856 136.017 120.098 136.283 120.28 136.621C120.466 136.96 120.558 137.382 120.558 137.889V143H118.828V141.951H118.769C118.659 142.163 118.505 142.362 118.306 142.548C118.111 142.73 117.864 142.877 117.566 142.99C117.271 143.099 116.924 143.154 116.526 143.154ZM116.994 141.832C117.355 141.832 117.668 141.76 117.933 141.618C118.199 141.472 118.402 141.28 118.545 141.041C118.691 140.803 118.764 140.542 118.764 140.261V139.361C118.707 139.407 118.611 139.45 118.475 139.49C118.343 139.53 118.194 139.565 118.028 139.594C117.862 139.624 117.698 139.651 117.536 139.674C117.373 139.697 117.232 139.717 117.113 139.734C116.845 139.77 116.604 139.83 116.392 139.913C116.18 139.996 116.013 140.112 115.89 140.261C115.767 140.406 115.706 140.595 115.706 140.827C115.706 141.159 115.827 141.409 116.069 141.578C116.311 141.747 116.619 141.832 116.994 141.832ZM126.181 135.364V136.756H121.791V135.364H126.181ZM122.875 133.534H124.675V140.703C124.675 140.945 124.711 141.131 124.784 141.26C124.86 141.386 124.96 141.472 125.083 141.518C125.205 141.565 125.341 141.588 125.49 141.588C125.603 141.588 125.706 141.58 125.798 141.563C125.895 141.547 125.968 141.532 126.017 141.518L126.32 142.925C126.224 142.959 126.087 142.995 125.908 143.035C125.732 143.075 125.517 143.098 125.262 143.104C124.811 143.118 124.405 143.05 124.044 142.901C123.682 142.748 123.396 142.513 123.183 142.195C122.975 141.876 122.872 141.479 122.875 141.001V133.534ZM129.884 143.154C129.4 143.154 128.964 143.068 128.576 142.896C128.192 142.72 127.887 142.461 127.662 142.12C127.44 141.779 127.328 141.358 127.328 140.857C127.328 140.426 127.408 140.07 127.567 139.788C127.726 139.507 127.943 139.281 128.218 139.112C128.493 138.943 128.803 138.816 129.148 138.729C129.496 138.64 129.856 138.575 130.227 138.536C130.674 138.489 131.037 138.448 131.316 138.411C131.594 138.371 131.796 138.312 131.922 138.232C132.051 138.149 132.116 138.022 132.116 137.849V137.82C132.116 137.445 132.005 137.155 131.783 136.95C131.561 136.744 131.241 136.641 130.824 136.641C130.383 136.641 130.033 136.737 129.775 136.93C129.519 137.122 129.347 137.349 129.257 137.611L127.577 137.372C127.71 136.908 127.928 136.52 128.233 136.209C128.538 135.894 128.911 135.659 129.352 135.503C129.793 135.344 130.28 135.264 130.814 135.264C131.181 135.264 131.548 135.307 131.912 135.393C132.277 135.48 132.61 135.622 132.912 135.821C133.213 136.017 133.455 136.283 133.637 136.621C133.823 136.96 133.916 137.382 133.916 137.889V143H132.186V141.951H132.126C132.017 142.163 131.863 142.362 131.664 142.548C131.468 142.73 131.221 142.877 130.923 142.99C130.628 143.099 130.282 143.154 129.884 143.154ZM130.351 141.832C130.712 141.832 131.026 141.76 131.291 141.618C131.556 141.472 131.76 141.28 131.902 141.041C132.048 140.803 132.121 140.542 132.121 140.261V139.361C132.065 139.407 131.969 139.45 131.833 139.49C131.7 139.53 131.551 139.565 131.385 139.594C131.22 139.624 131.056 139.651 130.893 139.674C130.731 139.697 130.59 139.717 130.471 139.734C130.202 139.77 129.962 139.83 129.75 139.913C129.538 139.996 129.37 140.112 129.248 140.261C129.125 140.406 129.064 140.595 129.064 140.827C129.064 141.159 129.185 141.409 129.426 141.578C129.668 141.747 129.977 141.832 130.351 141.832ZM130.202 134.359L131.316 132.087H133.076L131.549 134.359H130.202ZM137.525 132.818V143H135.725V132.818H137.525ZM142.707 143.149C141.961 143.149 141.315 142.985 140.768 142.657C140.221 142.329 139.797 141.87 139.495 141.28C139.197 140.69 139.048 140 139.048 139.212C139.048 138.423 139.197 137.732 139.495 137.138C139.797 136.545 140.221 136.085 140.768 135.756C141.315 135.428 141.961 135.264 142.707 135.264C143.453 135.264 144.099 135.428 144.646 135.756C145.193 136.085 145.615 136.545 145.914 137.138C146.215 137.732 146.366 138.423 146.366 139.212C146.366 140 146.215 140.69 145.914 141.28C145.615 141.87 145.193 142.329 144.646 142.657C144.099 142.985 143.453 143.149 142.707 143.149ZM142.717 141.707C143.121 141.707 143.459 141.596 143.731 141.374C144.003 141.149 144.205 140.847 144.338 140.469C144.473 140.092 144.541 139.671 144.541 139.207C144.541 138.739 144.473 138.317 144.338 137.939C144.205 137.558 144.003 137.254 143.731 137.029C143.459 136.804 143.121 136.691 142.717 136.691C142.302 136.691 141.958 136.804 141.683 137.029C141.411 137.254 141.207 137.558 141.071 137.939C140.939 138.317 140.872 138.739 140.872 139.207C140.872 139.671 140.939 140.092 141.071 140.469C141.207 140.847 141.411 141.149 141.683 141.374C141.958 141.596 142.302 141.707 142.717 141.707ZM151.214 146.023C150.568 146.023 150.013 145.935 149.549 145.759C149.085 145.587 148.712 145.355 148.43 145.063C148.149 144.772 147.953 144.448 147.844 144.094L149.464 143.701C149.537 143.85 149.643 143.998 149.783 144.143C149.922 144.293 150.109 144.415 150.344 144.511C150.583 144.611 150.883 144.661 151.244 144.661C151.755 144.661 152.177 144.536 152.512 144.288C152.847 144.042 153.014 143.638 153.014 143.075V141.628H152.925C152.832 141.813 152.696 142.004 152.517 142.2C152.341 142.395 152.108 142.559 151.816 142.692C151.528 142.824 151.165 142.891 150.727 142.891C150.141 142.891 149.609 142.753 149.131 142.478C148.657 142.2 148.28 141.785 147.998 141.235C147.719 140.682 147.58 139.989 147.58 139.157C147.58 138.318 147.719 137.611 147.998 137.034C148.28 136.454 148.659 136.015 149.136 135.717C149.614 135.415 150.146 135.264 150.732 135.264C151.18 135.264 151.548 135.34 151.836 135.493C152.128 135.642 152.36 135.823 152.532 136.035C152.704 136.244 152.835 136.441 152.925 136.626H153.024V135.364H154.799V143.124C154.799 143.777 154.643 144.317 154.332 144.745C154.02 145.173 153.594 145.492 153.054 145.705C152.514 145.917 151.901 146.023 151.214 146.023ZM151.229 141.479C151.611 141.479 151.935 141.386 152.204 141.2C152.472 141.015 152.676 140.748 152.815 140.4C152.955 140.052 153.024 139.634 153.024 139.147C153.024 138.666 152.955 138.246 152.815 137.884C152.679 137.523 152.477 137.243 152.209 137.044C151.944 136.842 151.617 136.741 151.229 136.741C150.828 136.741 150.494 136.845 150.225 137.054C149.957 137.263 149.754 137.549 149.619 137.914C149.483 138.275 149.415 138.686 149.415 139.147C149.415 139.614 149.483 140.024 149.619 140.375C149.758 140.723 149.962 140.995 150.23 141.19C150.502 141.383 150.835 141.479 151.229 141.479ZM159.974 143.149C159.229 143.149 158.582 142.985 158.036 142.657C157.489 142.329 157.064 141.87 156.763 141.28C156.464 140.69 156.315 140 156.315 139.212C156.315 138.423 156.464 137.732 156.763 137.138C157.064 136.545 157.489 136.085 158.036 135.756C158.582 135.428 159.229 135.264 159.974 135.264C160.72 135.264 161.366 135.428 161.913 135.756C162.46 136.085 162.883 136.545 163.181 137.138C163.483 137.732 163.634 138.423 163.634 139.212C163.634 140 163.483 140.69 163.181 141.28C162.883 141.87 162.46 142.329 161.913 142.657C161.366 142.985 160.72 143.149 159.974 143.149ZM159.984 141.707C160.389 141.707 160.727 141.596 160.999 141.374C161.27 141.149 161.473 140.847 161.605 140.469C161.741 140.092 161.809 139.671 161.809 139.207C161.809 138.739 161.741 138.317 161.605 137.939C161.473 137.558 161.27 137.254 160.999 137.029C160.727 136.804 160.389 136.691 159.984 136.691C159.57 136.691 159.225 136.804 158.95 137.029C158.679 137.254 158.475 137.558 158.339 137.939C158.206 138.317 158.14 138.739 158.14 139.207C158.14 139.671 158.206 140.092 158.339 140.469C158.475 140.847 158.679 141.149 158.95 141.374C159.225 141.596 159.57 141.707 159.984 141.707Z" fill="#81D3DE"/>
<path d="M178.223 127.75C177.726 127.75 177.249 127.948 176.898 128.3L175.598 129.598C174.926 130.269 174.534 131.169 174.499 132.117C174.465 133.066 174.792 133.992 175.414 134.709C176.036 135.426 176.907 135.881 177.85 135.981C178.794 136.081 179.741 135.82 180.5 135.25C181.127 135.72 181.906 136 182.75 136C183.594 136 184.374 135.72 185 135.25C185.626 135.72 186.406 136 187.25 136C188.094 136 188.873 135.72 189.5 135.25C190.259 135.82 191.205 136.081 192.149 135.981C193.093 135.881 193.964 135.426 194.586 134.709C195.208 133.992 195.534 133.066 195.5 132.117C195.466 131.169 195.074 130.269 194.402 129.598L193.102 128.299C192.75 127.948 192.274 127.75 191.777 127.75H178.223Z" fill="#81D3DE"/>
<path fill-rule="evenodd" clip-rule="evenodd" d="M176 145.75V136.995C177.42 137.669 179.08 137.668 180.5 136.995C181.203 137.329 181.972 137.501 182.75 137.5C183.554 137.5 184.318 137.318 185 136.994C185.703 137.328 186.472 137.501 187.25 137.5C188.054 137.5 188.817 137.318 189.5 136.994C190.92 137.668 192.58 137.669 194 136.995V145.75H194.75C194.949 145.75 195.14 145.829 195.28 145.97C195.421 146.11 195.5 146.301 195.5 146.5C195.5 146.699 195.421 146.89 195.28 147.03C195.14 147.171 194.949 147.25 194.75 147.25H175.25C175.051 147.25 174.86 147.171 174.72 147.03C174.579 146.89 174.5 146.699 174.5 146.5C174.5 146.301 174.579 146.11 174.72 145.97C174.86 145.829 175.051 145.75 175.25 145.75H176ZM179 139.75C179 139.551 179.079 139.36 179.22 139.22C179.36 139.079 179.551 139 179.75 139H182.75C182.949 139 183.14 139.079 183.28 139.22C183.421 139.36 183.5 139.551 183.5 139.75V142.75C183.5 142.949 183.421 143.14 183.28 143.28C183.14 143.421 182.949 143.5 182.75 143.5H179.75C179.551 143.5 179.36 143.421 179.22 143.28C179.079 143.14 179 142.949 179 142.75V139.75ZM187.25 139C187.051 139 186.86 139.079 186.72 139.22C186.579 139.36 186.5 139.551 186.5 139.75V145C186.5 145.414 186.836 145.75 187.25 145.75H190.25C190.449 145.75 190.64 145.671 190.78 145.53C190.921 145.39 191 145.199 191 145V139.75C191 139.551 190.921 139.36 190.78 139.22C190.64 139.079 190.449 139 190.25 139H187.25Z" fill="#81D3DE"/>
<rect x="308" y="56" width="284" height="163" rx="12" fill="#FFE4AB"/>
<path d="M351.825 136.07C351.742 135.801 351.628 135.561 351.482 135.349C351.34 135.133 351.167 134.949 350.965 134.797C350.766 134.644 350.538 134.53 350.279 134.454C350.021 134.374 349.739 134.335 349.434 134.335C348.887 134.335 348.4 134.472 347.972 134.747C347.545 135.022 347.208 135.427 346.963 135.96C346.721 136.491 346.6 137.137 346.6 137.899C346.6 138.668 346.721 139.319 346.963 139.853C347.205 140.387 347.541 140.793 347.972 141.071C348.403 141.346 348.904 141.484 349.474 141.484C349.991 141.484 350.438 141.384 350.816 141.185C351.197 140.987 351.491 140.705 351.696 140.34C351.902 139.972 352.004 139.541 352.004 139.048L352.422 139.112H349.658V137.67H353.789V138.893C353.789 139.765 353.603 140.519 353.232 141.156C352.861 141.792 352.351 142.282 351.701 142.627C351.051 142.969 350.306 143.139 349.464 143.139C348.526 143.139 347.702 142.929 346.993 142.508C346.287 142.084 345.735 141.482 345.337 140.703C344.943 139.921 344.746 138.993 344.746 137.919C344.746 137.097 344.862 136.363 345.094 135.717C345.329 135.07 345.657 134.522 346.078 134.071C346.499 133.617 346.993 133.272 347.56 133.037C348.126 132.798 348.743 132.679 349.409 132.679C349.973 132.679 350.498 132.762 350.985 132.928C351.472 133.09 351.905 133.322 352.283 133.624C352.664 133.925 352.977 134.283 353.222 134.697C353.468 135.112 353.628 135.569 353.705 136.07H351.825ZM358.874 143.149C358.108 143.149 357.447 142.99 356.89 142.672C356.337 142.35 355.911 141.896 355.612 141.31C355.314 140.72 355.165 140.025 355.165 139.227C355.165 138.441 355.314 137.752 355.612 137.158C355.914 136.562 356.335 136.098 356.875 135.766C357.415 135.432 358.05 135.264 358.779 135.264C359.25 135.264 359.694 135.34 360.112 135.493C360.533 135.642 360.904 135.874 361.225 136.189C361.55 136.504 361.805 136.905 361.991 137.392C362.177 137.876 362.269 138.453 362.269 139.122V139.674H356.01V138.461H360.544C360.541 138.116 360.466 137.81 360.32 137.541C360.175 137.269 359.971 137.056 359.709 136.9C359.45 136.744 359.149 136.666 358.804 136.666C358.436 136.666 358.113 136.756 357.835 136.935C357.556 137.11 357.339 137.342 357.183 137.631C357.031 137.916 356.953 138.229 356.95 138.57V139.629C356.95 140.073 357.031 140.455 357.193 140.773C357.356 141.088 357.583 141.33 357.874 141.499C358.166 141.664 358.508 141.747 358.899 141.747C359.16 141.747 359.397 141.711 359.61 141.638C359.822 141.562 360.006 141.451 360.161 141.305C360.317 141.159 360.435 140.978 360.514 140.763L362.195 140.952C362.089 141.396 361.887 141.784 361.588 142.115C361.293 142.443 360.915 142.698 360.455 142.881C359.994 143.06 359.467 143.149 358.874 143.149ZM363.792 143V135.364H365.537V136.636H365.616C365.756 136.196 365.994 135.856 366.332 135.617C366.674 135.375 367.063 135.254 367.501 135.254C367.6 135.254 367.711 135.259 367.834 135.269C367.96 135.276 368.064 135.287 368.147 135.304V136.96C368.071 136.933 367.95 136.91 367.784 136.89C367.622 136.867 367.464 136.855 367.312 136.855C366.984 136.855 366.689 136.926 366.427 137.069C366.168 137.208 365.964 137.402 365.815 137.651C365.666 137.899 365.592 138.186 365.592 138.511V143H363.792ZM372.409 143.149C371.643 143.149 370.982 142.99 370.425 142.672C369.872 142.35 369.446 141.896 369.148 141.31C368.849 140.72 368.7 140.025 368.7 139.227C368.7 138.441 368.849 137.752 369.148 137.158C369.449 136.562 369.87 136.098 370.41 135.766C370.951 135.432 371.585 135.264 372.314 135.264C372.785 135.264 373.229 135.34 373.647 135.493C374.068 135.642 374.439 135.874 374.76 136.189C375.085 136.504 375.34 136.905 375.526 137.392C375.712 137.876 375.805 138.453 375.805 139.122V139.674H369.545V138.461H374.079C374.076 138.116 374.001 137.81 373.856 137.541C373.71 137.269 373.506 137.056 373.244 136.9C372.986 136.744 372.684 136.666 372.339 136.666C371.971 136.666 371.648 136.756 371.37 136.935C371.091 137.11 370.874 137.342 370.719 137.631C370.566 137.916 370.488 138.229 370.485 138.57V139.629C370.485 140.073 370.566 140.455 370.729 140.773C370.891 141.088 371.118 141.33 371.41 141.499C371.701 141.664 372.043 141.747 372.434 141.747C372.696 141.747 372.933 141.711 373.145 141.638C373.357 141.562 373.541 141.451 373.697 141.305C373.852 141.159 373.97 140.978 374.05 140.763L375.73 140.952C375.624 141.396 375.422 141.784 375.123 142.115C374.828 142.443 374.451 142.698 373.99 142.881C373.529 143.06 373.002 143.149 372.409 143.149ZM379.127 138.526V143H377.327V135.364H379.047V136.661H379.137C379.312 136.234 379.592 135.894 379.977 135.642C380.365 135.39 380.844 135.264 381.414 135.264C381.941 135.264 382.4 135.377 382.791 135.602C383.185 135.828 383.49 136.154 383.706 136.582C383.924 137.009 384.032 137.528 384.029 138.138V143H382.229V138.416C382.229 137.906 382.096 137.506 381.831 137.218C381.569 136.93 381.207 136.786 380.743 136.786C380.428 136.786 380.148 136.855 379.902 136.994C379.66 137.13 379.47 137.327 379.331 137.586C379.195 137.844 379.127 138.158 379.127 138.526ZM389.189 143.149C388.427 143.149 387.772 142.982 387.225 142.647C386.682 142.312 386.263 141.85 385.968 141.26C385.676 140.667 385.53 139.984 385.53 139.212C385.53 138.436 385.679 137.752 385.978 137.158C386.276 136.562 386.697 136.098 387.24 135.766C387.787 135.432 388.434 135.264 389.179 135.264C389.799 135.264 390.348 135.379 390.825 135.607C391.306 135.833 391.688 136.152 391.973 136.567C392.258 136.978 392.421 137.458 392.461 138.009H390.74C390.671 137.641 390.505 137.334 390.243 137.089C389.985 136.84 389.638 136.716 389.204 136.716C388.836 136.716 388.513 136.815 388.235 137.014C387.956 137.21 387.739 137.491 387.583 137.859C387.431 138.227 387.355 138.668 387.355 139.182C387.355 139.702 387.431 140.15 387.583 140.524C387.736 140.895 387.95 141.182 388.225 141.384C388.503 141.583 388.83 141.683 389.204 141.683C389.469 141.683 389.706 141.633 389.915 141.533C390.127 141.431 390.305 141.283 390.447 141.091C390.59 140.899 390.687 140.665 390.74 140.39H392.461C392.417 140.93 392.258 141.409 391.983 141.827C391.708 142.241 391.334 142.566 390.86 142.801C390.386 143.033 389.829 143.149 389.189 143.149ZM393.938 143V135.364H395.738V143H393.938ZM394.843 134.28C394.558 134.28 394.313 134.185 394.107 133.996C393.902 133.804 393.799 133.574 393.799 133.305C393.799 133.034 393.902 132.803 394.107 132.614C394.313 132.422 394.558 132.326 394.843 132.326C395.132 132.326 395.377 132.422 395.579 132.614C395.785 132.803 395.887 133.034 395.887 133.305C395.887 133.574 395.785 133.804 395.579 133.996C395.377 134.185 395.132 134.28 394.843 134.28ZM399.786 143.154C399.302 143.154 398.866 143.068 398.479 142.896C398.094 142.72 397.789 142.461 397.564 142.12C397.342 141.779 397.231 141.358 397.231 140.857C397.231 140.426 397.31 140.07 397.469 139.788C397.629 139.507 397.846 139.281 398.121 139.112C398.396 138.943 398.706 138.816 399.05 138.729C399.398 138.64 399.758 138.575 400.129 138.536C400.577 138.489 400.94 138.448 401.218 138.411C401.496 138.371 401.699 138.312 401.825 138.232C401.954 138.149 402.018 138.022 402.018 137.849V137.82C402.018 137.445 401.907 137.155 401.685 136.95C401.463 136.744 401.143 136.641 400.726 136.641C400.285 136.641 399.935 136.737 399.677 136.93C399.422 137.122 399.249 137.349 399.16 137.611L397.479 137.372C397.612 136.908 397.831 136.52 398.136 136.209C398.441 135.894 398.813 135.659 399.254 135.503C399.695 135.344 400.182 135.264 400.716 135.264C401.084 135.264 401.45 135.307 401.815 135.393C402.179 135.48 402.512 135.622 402.814 135.821C403.116 136.017 403.357 136.283 403.54 136.621C403.725 136.96 403.818 137.382 403.818 137.889V143H402.088V141.951H402.028C401.919 142.163 401.765 142.362 401.566 142.548C401.371 142.73 401.124 142.877 400.825 142.99C400.53 143.099 400.184 143.154 399.786 143.154ZM400.254 141.832C400.615 141.832 400.928 141.76 401.193 141.618C401.458 141.472 401.662 141.28 401.805 141.041C401.951 140.803 402.023 140.542 402.023 140.261V139.361C401.967 139.407 401.871 139.45 401.735 139.49C401.603 139.53 401.453 139.565 401.288 139.594C401.122 139.624 400.958 139.651 400.795 139.674C400.633 139.697 400.492 139.717 400.373 139.734C400.104 139.77 399.864 139.83 399.652 139.913C399.44 139.996 399.272 140.112 399.15 140.261C399.027 140.406 398.966 140.595 398.966 140.827C398.966 141.159 399.087 141.409 399.329 141.578C399.571 141.747 399.879 141.832 400.254 141.832ZM405.628 143V135.364H407.373V136.636H407.452C407.592 136.196 407.83 135.856 408.168 135.617C408.51 135.375 408.899 135.254 409.337 135.254C409.436 135.254 409.547 135.259 409.67 135.269C409.796 135.276 409.9 135.287 409.983 135.304V136.96C409.907 136.933 409.786 136.91 409.62 136.89C409.458 136.867 409.3 136.855 409.148 136.855C408.82 136.855 408.525 136.926 408.263 137.069C408.004 137.208 407.8 137.402 407.651 137.651C407.502 137.899 407.428 138.186 407.428 138.511V143H405.628ZM414.731 143V132.818H418.549C419.331 132.818 419.987 132.954 420.518 133.226C421.051 133.498 421.454 133.879 421.726 134.369C422.001 134.857 422.138 135.425 422.138 136.075C422.138 136.728 421.999 137.294 421.721 137.775C421.446 138.252 421.04 138.622 420.503 138.884C419.966 139.142 419.306 139.271 418.524 139.271H415.805V137.74H418.276C418.733 137.74 419.107 137.677 419.399 137.551C419.691 137.422 419.906 137.235 420.045 136.989C420.188 136.741 420.259 136.436 420.259 136.075C420.259 135.713 420.188 135.405 420.045 135.15C419.903 134.891 419.686 134.696 419.394 134.563C419.103 134.427 418.726 134.359 418.266 134.359H416.575V143H414.731ZM419.991 138.386L422.511 143H420.453L417.977 138.386H419.991ZM426.978 143.149C426.233 143.149 425.586 142.985 425.039 142.657C424.493 142.329 424.068 141.87 423.767 141.28C423.468 140.69 423.319 140 423.319 139.212C423.319 138.423 423.468 137.732 423.767 137.138C424.068 136.545 424.493 136.085 425.039 135.756C425.586 135.428 426.233 135.264 426.978 135.264C427.724 135.264 428.37 135.428 428.917 135.756C429.464 136.085 429.887 136.545 430.185 137.138C430.487 137.732 430.637 138.423 430.637 139.212C430.637 140 430.487 140.69 430.185 141.28C429.887 141.87 429.464 142.329 428.917 142.657C428.37 142.985 427.724 143.149 426.978 143.149ZM426.988 141.707C427.393 141.707 427.731 141.596 428.002 141.374C428.274 141.149 428.476 140.847 428.609 140.469C428.745 140.092 428.813 139.671 428.813 139.207C428.813 138.739 428.745 138.317 428.609 137.939C428.476 137.558 428.274 137.254 428.002 137.029C427.731 136.804 427.393 136.691 426.988 136.691C426.574 136.691 426.229 136.804 425.954 137.029C425.682 137.254 425.479 137.558 425.343 137.939C425.21 138.317 425.144 138.739 425.144 139.207C425.144 139.671 425.21 140.092 425.343 140.469C425.479 140.847 425.682 141.149 425.954 141.374C426.229 141.596 426.574 141.707 426.988 141.707ZM433.965 132.818V143H432.165V132.818H433.965ZM439.196 143.149C438.43 143.149 437.769 142.99 437.212 142.672C436.659 142.35 436.233 141.896 435.935 141.31C435.636 140.72 435.487 140.025 435.487 139.227C435.487 138.441 435.636 137.752 435.935 137.158C436.236 136.562 436.657 136.098 437.197 135.766C437.738 135.432 438.372 135.264 439.102 135.264C439.572 135.264 440.016 135.34 440.434 135.493C440.855 135.642 441.226 135.874 441.548 136.189C441.872 136.504 442.128 136.905 442.313 137.392C442.499 137.876 442.592 138.453 442.592 139.122V139.674H436.332V138.461H440.866C440.863 138.116 440.789 137.81 440.643 137.541C440.497 137.269 440.293 137.056 440.031 136.9C439.773 136.744 439.471 136.666 439.126 136.666C438.759 136.666 438.435 136.756 438.157 136.935C437.879 137.11 437.661 137.342 437.506 137.631C437.353 137.916 437.275 138.229 437.272 138.57V139.629C437.272 140.073 437.353 140.455 437.516 140.773C437.678 141.088 437.905 141.33 438.197 141.499C438.488 141.664 438.83 141.747 439.221 141.747C439.483 141.747 439.72 141.711 439.932 141.638C440.144 141.562 440.328 141.451 440.484 141.305C440.639 141.159 440.757 140.978 440.837 140.763L442.517 140.952C442.411 141.396 442.209 141.784 441.911 142.115C441.616 142.443 441.238 142.698 440.777 142.881C440.316 143.06 439.789 143.149 439.196 143.149ZM450.15 137.382L448.509 137.561C448.463 137.395 448.381 137.24 448.265 137.094C448.153 136.948 448 136.83 447.808 136.741C447.616 136.651 447.381 136.607 447.102 136.607C446.728 136.607 446.413 136.688 446.157 136.85C445.906 137.013 445.781 137.223 445.785 137.482C445.781 137.704 445.863 137.884 446.028 138.023C446.197 138.163 446.476 138.277 446.863 138.366L448.166 138.645C448.889 138.801 449.425 139.048 449.777 139.386C450.131 139.724 450.31 140.166 450.314 140.713C450.31 141.194 450.17 141.618 449.891 141.986C449.616 142.35 449.233 142.635 448.743 142.841C448.252 143.046 447.689 143.149 447.052 143.149C446.118 143.149 445.365 142.954 444.795 142.562C444.225 142.168 443.885 141.62 443.776 140.917L445.531 140.748C445.611 141.093 445.78 141.353 446.038 141.528C446.297 141.704 446.633 141.792 447.047 141.792C447.475 141.792 447.818 141.704 448.077 141.528C448.338 141.353 448.469 141.136 448.469 140.877C448.469 140.658 448.385 140.478 448.216 140.335C448.05 140.193 447.791 140.083 447.44 140.007L446.138 139.734C445.405 139.581 444.863 139.324 444.512 138.963C444.161 138.598 443.987 138.138 443.99 137.581C443.987 137.11 444.114 136.703 444.373 136.358C444.635 136.01 444.997 135.741 445.461 135.553C445.929 135.36 446.467 135.264 447.077 135.264C447.972 135.264 448.676 135.455 449.19 135.836C449.707 136.217 450.027 136.732 450.15 137.382ZM459.427 132.341L456.145 144.531H454.569L457.851 132.341H459.427ZM470.546 132.818H472.39V139.47C472.39 140.199 472.218 140.841 471.873 141.394C471.532 141.948 471.051 142.38 470.431 142.692C469.811 143 469.087 143.154 468.259 143.154C467.427 143.154 466.701 143 466.081 142.692C465.461 142.38 464.981 141.948 464.639 141.394C464.298 140.841 464.127 140.199 464.127 139.47V132.818H465.972V139.316C465.972 139.74 466.065 140.118 466.25 140.45C466.439 140.781 466.704 141.041 467.046 141.23C467.387 141.416 467.791 141.509 468.259 141.509C468.726 141.509 469.13 141.416 469.472 141.23C469.816 141.041 470.082 140.781 470.267 140.45C470.453 140.118 470.546 139.74 470.546 139.316V132.818ZM480.351 137.382L478.71 137.561C478.664 137.395 478.583 137.24 478.467 137.094C478.354 136.948 478.201 136.83 478.009 136.741C477.817 136.651 477.582 136.607 477.303 136.607C476.929 136.607 476.614 136.688 476.359 136.85C476.107 137.013 475.982 137.223 475.986 137.482C475.982 137.704 476.064 137.884 476.229 138.023C476.398 138.163 476.677 138.277 477.065 138.366L478.367 138.645C479.09 138.801 479.627 139.048 479.978 139.386C480.333 139.724 480.512 140.166 480.515 140.713C480.512 141.194 480.371 141.618 480.092 141.986C479.817 142.35 479.434 142.635 478.944 142.841C478.453 143.046 477.89 143.149 477.254 143.149C476.319 143.149 475.567 142.954 474.996 142.562C474.426 142.168 474.087 141.62 473.977 140.917L475.732 140.748C475.812 141.093 475.981 141.353 476.239 141.528C476.498 141.704 476.834 141.792 477.249 141.792C477.676 141.792 478.019 141.704 478.278 141.528C478.54 141.353 478.67 141.136 478.67 140.877C478.67 140.658 478.586 140.478 478.417 140.335C478.251 140.193 477.993 140.083 477.641 140.007L476.339 139.734C475.606 139.581 475.064 139.324 474.713 138.963C474.362 138.598 474.188 138.138 474.191 137.581C474.188 137.11 474.315 136.703 474.574 136.358C474.836 136.01 475.199 135.741 475.663 135.553C476.13 135.36 476.669 135.264 477.278 135.264C478.173 135.264 478.878 135.455 479.391 135.836C479.908 136.217 480.228 136.732 480.351 137.382ZM486.866 139.788V135.364H488.666V143H486.921V141.643H486.841C486.669 142.07 486.386 142.42 485.991 142.692C485.6 142.964 485.118 143.099 484.544 143.099C484.044 143.099 483.601 142.988 483.217 142.766C482.836 142.541 482.538 142.214 482.322 141.787C482.107 141.356 481.999 140.836 481.999 140.226V135.364H483.799V139.947C483.799 140.431 483.931 140.816 484.196 141.101C484.462 141.386 484.81 141.528 485.24 141.528C485.506 141.528 485.762 141.464 486.011 141.335C486.26 141.205 486.463 141.013 486.623 140.758C486.785 140.499 486.866 140.176 486.866 139.788ZM492.714 143.154C492.23 143.154 491.794 143.068 491.406 142.896C491.022 142.72 490.717 142.461 490.492 142.12C490.27 141.779 490.159 141.358 490.159 140.857C490.159 140.426 490.238 140.07 490.397 139.788C490.556 139.507 490.773 139.281 491.048 139.112C491.324 138.943 491.633 138.816 491.978 138.729C492.326 138.64 492.686 138.575 493.057 138.536C493.504 138.489 493.867 138.448 494.146 138.411C494.424 138.371 494.626 138.312 494.752 138.232C494.882 138.149 494.946 138.022 494.946 137.849V137.82C494.946 137.445 494.835 137.155 494.613 136.95C494.391 136.744 494.071 136.641 493.654 136.641C493.213 136.641 492.863 136.737 492.605 136.93C492.349 137.122 492.177 137.349 492.088 137.611L490.407 137.372C490.54 136.908 490.758 136.52 491.063 136.209C491.368 135.894 491.741 135.659 492.182 135.503C492.623 135.344 493.11 135.264 493.644 135.264C494.012 135.264 494.378 135.307 494.742 135.393C495.107 135.48 495.44 135.622 495.742 135.821C496.043 136.017 496.285 136.283 496.468 136.621C496.653 136.96 496.746 137.382 496.746 137.889V143H495.016V141.951H494.956C494.847 142.163 494.693 142.362 494.494 142.548C494.298 142.73 494.051 142.877 493.753 142.99C493.458 143.099 493.112 143.154 492.714 143.154ZM493.181 141.832C493.543 141.832 493.856 141.76 494.121 141.618C494.386 141.472 494.59 141.28 494.732 141.041C494.878 140.803 494.951 140.542 494.951 140.261V139.361C494.895 139.407 494.799 139.45 494.663 139.49C494.53 139.53 494.381 139.565 494.215 139.594C494.05 139.624 493.886 139.651 493.723 139.674C493.561 139.697 493.42 139.717 493.301 139.734C493.032 139.77 492.792 139.83 492.58 139.913C492.368 139.996 492.2 140.112 492.078 140.261C491.955 140.406 491.894 140.595 491.894 140.827C491.894 141.159 492.015 141.409 492.257 141.578C492.499 141.747 492.807 141.832 493.181 141.832ZM493.032 134.359L494.146 132.087H495.906L494.379 134.359H493.032ZM498.556 143V135.364H500.301V136.636H500.38C500.519 136.196 500.758 135.856 501.096 135.617C501.437 135.375 501.827 135.254 502.264 135.254C502.364 135.254 502.475 135.259 502.597 135.269C502.723 135.276 502.828 135.287 502.911 135.304V136.96C502.834 136.933 502.713 136.91 502.548 136.89C502.385 136.867 502.228 136.855 502.075 136.855C501.747 136.855 501.452 136.926 501.191 137.069C500.932 137.208 500.728 137.402 500.579 137.651C500.43 137.899 500.355 138.186 500.355 138.511V143H498.556ZM504.106 143V135.364H505.906V143H504.106ZM505.011 134.28C504.726 134.28 504.481 134.185 504.275 133.996C504.07 133.804 503.967 133.574 503.967 133.305C503.967 133.034 504.07 132.803 504.275 132.614C504.481 132.422 504.726 132.326 505.011 132.326C505.3 132.326 505.545 132.422 505.747 132.614C505.952 132.803 506.055 133.034 506.055 133.305C506.055 133.574 505.952 133.804 505.747 133.996C505.545 134.185 505.3 134.28 505.011 134.28ZM511.088 143.149C510.342 143.149 509.696 142.985 509.149 142.657C508.602 142.329 508.178 141.87 507.876 141.28C507.578 140.69 507.429 140 507.429 139.212C507.429 138.423 507.578 137.732 507.876 137.138C508.178 136.545 508.602 136.085 509.149 135.756C509.696 135.428 510.342 135.264 511.088 135.264C511.833 135.264 512.48 135.428 513.027 135.756C513.574 136.085 513.996 136.545 514.294 137.138C514.596 137.732 514.747 138.423 514.747 139.212C514.747 140 514.596 140.69 514.294 141.28C513.996 141.87 513.574 142.329 513.027 142.657C512.48 142.985 511.833 143.149 511.088 143.149ZM511.098 141.707C511.502 141.707 511.84 141.596 512.112 141.374C512.384 141.149 512.586 140.847 512.718 140.469C512.854 140.092 512.922 139.671 512.922 139.207C512.922 138.739 512.854 138.317 512.718 137.939C512.586 137.558 512.384 137.254 512.112 137.029C511.84 136.804 511.502 136.691 511.098 136.691C510.683 136.691 510.339 136.804 510.064 137.029C509.792 137.254 509.588 137.558 509.452 137.939C509.319 138.317 509.253 138.739 509.253 139.207C509.253 139.671 509.319 140.092 509.452 140.469C509.588 140.847 509.792 141.149 510.064 141.374C510.339 141.596 510.683 141.707 511.098 141.707ZM522.31 137.382L520.669 137.561C520.623 137.395 520.542 137.24 520.426 137.094C520.313 136.948 520.16 136.83 519.968 136.741C519.776 136.651 519.541 136.607 519.262 136.607C518.888 136.607 518.573 136.688 518.318 136.85C518.066 137.013 517.941 137.223 517.945 137.482C517.941 137.704 518.023 137.884 518.188 138.023C518.357 138.163 518.636 138.277 519.024 138.366L520.326 138.645C521.049 138.801 521.586 139.048 521.937 139.386C522.292 139.724 522.471 140.166 522.474 140.713C522.471 141.194 522.33 141.618 522.051 141.986C521.776 142.35 521.393 142.635 520.903 142.841C520.412 143.046 519.849 143.149 519.213 143.149C518.278 143.149 517.526 142.954 516.955 142.562C516.385 142.168 516.046 141.62 515.936 140.917L517.691 140.748C517.771 141.093 517.94 141.353 518.198 141.528C518.457 141.704 518.793 141.792 519.208 141.792C519.635 141.792 519.978 141.704 520.237 141.528C520.499 141.353 520.629 141.136 520.629 140.877C520.629 140.658 520.545 140.478 520.376 140.335C520.21 140.193 519.952 140.083 519.6 140.007L518.298 139.734C517.565 139.581 517.023 139.324 516.672 138.963C516.321 138.598 516.147 138.138 516.15 137.581C516.147 137.11 516.274 136.703 516.533 136.358C516.795 136.01 517.158 135.741 517.622 135.553C518.089 135.36 518.628 135.264 519.237 135.264C520.132 135.264 520.837 135.455 521.35 135.836C521.867 136.217 522.187 136.732 522.31 137.382Z" fill="#655A44"/>
<path d="M550.75 138.25H552.25C552.449 138.25 552.64 138.171 552.78 138.03C552.921 137.89 553 137.699 553 137.5C553 137.301 552.921 137.11 552.78 136.97C552.64 136.829 552.449 136.75 552.25 136.75H550.75C550.551 136.75 550.36 136.829 550.22 136.97C550.079 137.11 550 137.301 550 137.5C550 137.699 550.079 137.89 550.22 138.03C550.36 138.171 550.551 138.25 550.75 138.25ZM544 131.5C544 131.301 544.079 131.11 544.22 130.97C544.36 130.829 544.551 130.75 544.75 130.75H552.25C552.449 130.75 552.64 130.829 552.78 130.97C552.921 131.11 553 131.301 553 131.5C553 131.699 552.921 131.89 552.78 132.03C552.64 132.171 552.449 132.25 552.25 132.25H544.75C544.551 132.25 544.36 132.171 544.22 132.03C544.079 131.89 544 131.699 544 131.5ZM544 143.5C544 143.301 544.079 143.11 544.22 142.97C544.36 142.829 544.551 142.75 544.75 142.75H552.25C552.449 142.75 552.64 142.829 552.78 142.97C552.921 143.11 553 143.301 553 143.5C553 143.699 552.921 143.89 552.78 144.03C552.64 144.171 552.449 144.25 552.25 144.25H544.75C544.551 144.25 544.36 144.171 544.22 144.03C544.079 143.89 544 143.699 544 143.5ZM535.75 132.25H537.25C537.449 132.25 537.64 132.171 537.78 132.03C537.921 131.89 538 131.699 538 131.5C538 131.301 537.921 131.11 537.78 130.97C537.64 130.829 537.449 130.75 537.25 130.75H535.75C535.551 130.75 535.36 130.829 535.22 130.97C535.079 131.11 535 131.301 535 131.5C535 131.699 535.079 131.89 535.22 132.03C535.36 132.171 535.551 132.25 535.75 132.25ZM537.25 144.25H535.75C535.551 144.25 535.36 144.171 535.22 144.03C535.079 143.89 535 143.699 535 143.5C535 143.301 535.079 143.11 535.22 142.97C535.36 142.829 535.551 142.75 535.75 142.75H537.25C537.449 142.75 537.64 142.829 537.78 142.97C537.921 143.11 538 143.301 538 143.5C538 143.699 537.921 143.89 537.78 144.03C537.64 144.171 537.449 144.25 537.25 144.25ZM535 137.5C535 137.301 535.079 137.11 535.22 136.97C535.36 136.829 535.551 136.75 535.75 136.75H543.25C543.449 136.75 543.64 136.829 543.78 136.97C543.921 137.11 544 137.301 544 137.5C544 137.699 543.921 137.89 543.78 138.03C543.64 138.171 543.449 138.25 543.25 138.25H535.75C535.551 138.25 535.36 138.171 535.22 138.03C535.079 137.89 535 137.699 535 137.5ZM541 129.25C540.403 129.25 539.831 129.487 539.409 129.909C538.987 130.331 538.75 130.903 538.75 131.5C538.75 132.097 538.987 132.669 539.409 133.091C539.831 133.513 540.403 133.75 541 133.75C541.597 133.75 542.169 133.513 542.591 133.091C543.013 132.669 543.25 132.097 543.25 131.5C543.25 130.903 543.013 130.331 542.591 129.909C542.169 129.487 541.597 129.25 541 129.25ZM544.75 137.5C544.75 136.903 544.987 136.331 545.409 135.909C545.831 135.487 546.403 135.25 547 135.25C547.597 135.25 548.169 135.487 548.591 135.909C549.013 136.331 549.25 136.903 549.25 137.5C549.25 138.097 549.013 138.669 548.591 139.091C548.169 139.513 547.597 139.75 547 139.75C546.403 139.75 545.831 139.513 545.409 139.091C544.987 138.669 544.75 138.097 544.75 137.5ZM541 141.25C540.403 141.25 539.831 141.487 539.409 141.909C538.987 142.331 538.75 142.903 538.75 143.5C538.75 144.097 538.987 144.669 539.409 145.091C539.831 145.513 540.403 145.75 541 145.75C541.597 145.75 542.169 145.513 542.591 145.091C543.013 144.669 543.25 144.097 543.25 143.5C543.25 142.903 543.013 142.331 542.591 141.909C542.169 141.487 541.597 141.25 541 141.25Z" fill="#655A44"/>
<path d="M29.568 20.76L21.216 43H16.992L8.608 20.76H12.512L19.104 39.256L25.728 20.76H29.568ZM34.4748 23.032C33.8134 23.032 33.2588 22.808 32.8108 22.36C32.3628 21.912 32.1388 21.3573 32.1388 20.696C32.1388 20.0347 32.3628 19.48 32.8108 19.032C33.2588 18.584 33.8134 18.36 34.4748 18.36C35.1148 18.36 35.6588 18.584 36.1068 19.032C36.5548 19.48 36.7788 20.0347 36.7788 20.696C36.7788 21.3573 36.5548 21.912 36.1068 22.36C35.6588 22.808 35.1148 23.032 34.4748 23.032ZM36.2668 25.368V43H32.6188V25.368H36.2668ZM39.8403 34.104C39.8403 32.3333 40.2029 30.7653 40.9283 29.4C41.6749 28.0347 42.6776 26.9787 43.9363 26.232C45.2163 25.464 46.6349 25.08 48.1923 25.08C49.3443 25.08 50.4749 25.336 51.5843 25.848C52.7149 26.3387 53.6109 27 54.2723 27.832V19.32H57.9523V43H54.2723V40.344C53.6749 41.1973 52.8429 41.9013 51.7763 42.456C50.7309 43.0107 49.5256 43.288 48.1603 43.288C46.6243 43.288 45.2163 42.904 43.9363 42.136C42.6776 41.3467 41.6749 40.2587 40.9283 38.872C40.2029 37.464 39.8403 35.8747 39.8403 34.104ZM54.2723 34.168C54.2723 32.952 54.0163 31.896 53.5043 31C53.0136 30.104 52.3629 29.4213 51.5523 28.952C50.7416 28.4827 49.8669 28.248 48.9283 28.248C47.9896 28.248 47.1149 28.4827 46.3043 28.952C45.4936 29.4 44.8323 30.072 44.3203 30.968C43.8296 31.8427 43.5843 32.888 43.5843 34.104C43.5843 35.32 43.8296 36.3867 44.3203 37.304C44.8323 38.2213 45.4936 38.9253 46.3043 39.416C47.1363 39.8853 48.0109 40.12 48.9283 40.12C49.8669 40.12 50.7416 39.8853 51.5523 39.416C52.3629 38.9467 53.0136 38.264 53.5043 37.368C54.0163 36.4507 54.2723 35.384 54.2723 34.168ZM61.5278 34.104C61.5278 32.3333 61.8904 30.7653 62.6158 29.4C63.3624 28.0347 64.3651 26.9787 65.6238 26.232C66.9038 25.464 68.3118 25.08 69.8478 25.08C71.2344 25.08 72.4398 25.3573 73.4638 25.912C74.5091 26.4453 75.3411 27.1173 75.9598 27.928V25.368H79.6398V43H75.9598V40.376C75.3411 41.208 74.4984 41.9013 73.4318 42.456C72.3651 43.0107 71.1491 43.288 69.7838 43.288C68.2691 43.288 66.8824 42.904 65.6238 42.136C64.3651 41.3467 63.3624 40.2587 62.6158 38.872C61.8904 37.464 61.5278 35.8747 61.5278 34.104ZM75.9598 34.168C75.9598 32.952 75.7038 31.896 75.1918 31C74.7011 30.104 74.0504 29.4213 73.2398 28.952C72.4291 28.4827 71.5544 28.248 70.6158 28.248C69.6771 28.248 68.8024 28.4827 67.9918 28.952C67.1811 29.4 66.5198 30.072 66.0078 30.968C65.5171 31.8427 65.2718 32.888 65.2718 34.104C65.2718 35.32 65.5171 36.3867 66.0078 37.304C66.5198 38.2213 67.1811 38.9253 67.9918 39.416C68.8238 39.8853 69.6984 40.12 70.6158 40.12C71.5544 40.12 72.4291 39.8853 73.2398 39.416C74.0504 38.9467 74.7011 38.264 75.1918 37.368C75.7038 36.4507 75.9598 35.384 75.9598 34.168ZM101.615 32.984H95.1513V39.608H91.7593V32.984H85.2953V29.912H91.7593V23.288H95.1513V29.912H101.615V32.984Z" fill="url(#paint0_linear_79_320)"/>
<rect x="517" y="16" width="75" height="32" rx="12" fill="#FFB4AB"/>
<path d="M531.538 30.1172C531.491 29.683 531.296 29.3449 530.951 29.103C530.61 28.861 530.165 28.7401 529.619 28.7401C529.234 28.7401 528.904 28.7981 528.629 28.9141C528.354 29.0301 528.144 29.1875 527.998 29.3864C527.852 29.5852 527.777 29.8123 527.774 30.0675C527.774 30.2796 527.822 30.4635 527.918 30.6193C528.018 30.7751 528.152 30.9077 528.321 31.017C528.49 31.1231 528.677 31.2126 528.883 31.2855C529.088 31.3584 529.295 31.4197 529.504 31.4695L530.459 31.7081C530.843 31.7976 531.213 31.9186 531.567 32.071C531.925 32.2235 532.245 32.4157 532.527 32.6477C532.812 32.8797 533.037 33.1598 533.203 33.4879C533.369 33.8161 533.452 34.2005 533.452 34.6413C533.452 35.2379 533.299 35.7633 532.994 36.2173C532.689 36.6681 532.249 37.0211 531.672 37.2763C531.098 37.5282 530.404 37.6541 529.589 37.6541C528.797 37.6541 528.109 37.5315 527.526 37.2862C526.946 37.041 526.491 36.683 526.163 36.2124C525.839 35.7417 525.663 35.1683 525.636 34.4922H527.451C527.478 34.8468 527.587 35.1418 527.779 35.3771C527.971 35.6125 528.222 35.7881 528.53 35.9041C528.841 36.0201 529.189 36.0781 529.574 36.0781C529.975 36.0781 530.326 36.0185 530.628 35.8991C530.933 35.7765 531.171 35.6075 531.344 35.392C531.516 35.1733 531.604 34.9181 531.607 34.6264C531.604 34.3613 531.526 34.1425 531.374 33.9702C531.221 33.7945 531.007 33.6487 530.732 33.5327C530.46 33.4134 530.142 33.3073 529.778 33.2145L528.619 32.9162C527.781 32.7008 527.118 32.3743 526.631 31.9368C526.147 31.496 525.905 30.911 525.905 30.1818C525.905 29.5819 526.067 29.0566 526.392 28.6058C526.72 28.1551 527.166 27.8054 527.729 27.5568C528.293 27.3049 528.931 27.179 529.643 27.179C530.366 27.179 530.999 27.3049 531.543 27.5568C532.089 27.8054 532.519 28.1518 532.83 28.5959C533.142 29.0367 533.303 29.5438 533.312 30.1172H531.538ZM537.214 37.6541C536.73 37.6541 536.294 37.5679 535.906 37.3956C535.522 37.2199 535.217 36.9614 534.992 36.62C534.77 36.2786 534.659 35.8577 534.659 35.3572C534.659 34.9264 534.738 34.5701 534.897 34.2884C535.056 34.0066 535.273 33.7812 535.548 33.6122C535.824 33.4432 536.133 33.3156 536.478 33.2294C536.826 33.1399 537.186 33.0753 537.557 33.0355C538.004 32.9891 538.367 32.9477 538.646 32.9112C538.924 32.8714 539.126 32.8118 539.252 32.7322C539.382 32.6494 539.446 32.5218 539.446 32.3494V32.3196C539.446 31.9451 539.335 31.6551 539.113 31.4496C538.891 31.2441 538.571 31.1413 538.154 31.1413C537.713 31.1413 537.363 31.2375 537.105 31.4297C536.849 31.6219 536.677 31.849 536.588 32.1108L534.907 31.8722C535.04 31.4081 535.258 31.0204 535.563 30.7088C535.868 30.3939 536.241 30.1586 536.682 30.0028C537.123 29.8438 537.61 29.7642 538.144 29.7642C538.512 29.7642 538.878 29.8073 539.242 29.8935C539.607 29.9796 539.94 30.1222 540.242 30.321C540.543 30.5166 540.785 30.7834 540.968 31.1214C541.153 31.4595 541.246 31.8821 541.246 32.3892V37.5H539.516V36.451H539.456C539.347 36.6631 539.193 36.862 538.994 37.0476C538.798 37.2299 538.551 37.3774 538.253 37.4901C537.958 37.5994 537.612 37.6541 537.214 37.6541ZM537.681 36.3317C538.043 36.3317 538.356 36.2604 538.621 36.1179C538.886 35.9721 539.09 35.7798 539.232 35.5412C539.378 35.3026 539.451 35.0424 539.451 34.7607V33.8608C539.395 33.9072 539.299 33.9503 539.163 33.9901C539.03 34.0298 538.881 34.0646 538.715 34.0945C538.55 34.1243 538.386 34.1508 538.223 34.174C538.061 34.1972 537.92 34.2171 537.801 34.2337C537.532 34.2701 537.292 34.3298 537.08 34.4126C536.868 34.4955 536.7 34.6115 536.578 34.7607C536.455 34.9065 536.394 35.0954 536.394 35.3274C536.394 35.6589 536.515 35.9091 536.757 36.0781C536.999 36.2472 537.307 36.3317 537.681 36.3317ZM543.056 37.5V29.8636H544.855V37.5H543.056ZM543.96 28.7798C543.675 28.7798 543.43 28.6854 543.225 28.4964C543.019 28.3042 542.916 28.0739 542.916 27.8054C542.916 27.5336 543.019 27.3033 543.225 27.1143C543.43 26.9221 543.675 26.826 543.96 26.826C544.249 26.826 544.494 26.9221 544.696 27.1143C544.902 27.3033 545.004 27.5336 545.004 27.8054C545.004 28.0739 544.902 28.3042 544.696 28.4964C544.494 28.6854 544.249 28.7798 543.96 28.7798ZM546.706 37.5V29.8636H548.451V31.1364H548.531C548.67 30.6955 548.908 30.3558 549.246 30.1172C549.588 29.8752 549.977 29.7543 550.415 29.7543C550.514 29.7543 550.625 29.7592 550.748 29.7692C550.874 29.7758 550.978 29.7874 551.061 29.804V31.4595C550.985 31.433 550.864 31.4098 550.698 31.3899C550.536 31.3667 550.378 31.3551 550.226 31.3551C549.898 31.3551 549.603 31.4264 549.341 31.5689C549.082 31.7081 548.879 31.902 548.729 32.1506C548.58 32.3991 548.506 32.6858 548.506 33.0107V37.5H546.706Z" fill="#690005"/>
<path fill-rule="evenodd" clip-rule="evenodd" d="M567.5 23.75C567.102 23.75 566.721 23.908 566.439 24.1893C566.158 24.4706 566 24.8522 566 25.25V38.75C566 39.1478 566.158 39.5294 566.439 39.8107C566.721 40.092 567.102 40.25 567.5 40.25H573.5C573.898 40.25 574.279 40.092 574.561 39.8107C574.842 39.5294 575 39.1478 575 38.75V35C575 34.8011 575.079 34.6103 575.22 34.4697C575.36 34.329 575.551 34.25 575.75 34.25C575.949 34.25 576.14 34.329 576.28 34.4697C576.421 34.6103 576.5 34.8011 576.5 35V38.75C576.5 39.5456 576.184 40.3087 575.621 40.8713C575.059 41.4339 574.296 41.75 573.5 41.75H567.5C566.704 41.75 565.941 41.4339 565.379 40.8713C564.816 40.3087 564.5 39.5456 564.5 38.75V25.25C564.5 24.4544 564.816 23.6913 565.379 23.1287C565.941 22.5661 566.704 22.25 567.5 22.25H573.5C574.296 22.25 575.059 22.5661 575.621 23.1287C576.184 23.6913 576.5 24.4544 576.5 25.25V29C576.5 29.1989 576.421 29.3897 576.28 29.5303C576.14 29.671 575.949 29.75 575.75 29.75C575.551 29.75 575.36 29.671 575.22 29.5303C575.079 29.3897 575 29.1989 575 29V25.25C575 24.8522 574.842 24.4706 574.561 24.1893C574.279 23.908 573.898 23.75 573.5 23.75H567.5ZM578.22 28.47C578.361 28.3295 578.551 28.2507 578.75 28.2507C578.949 28.2507 579.139 28.3295 579.28 28.47L582.28 31.47C582.42 31.6106 582.499 31.8012 582.499 32C582.499 32.1988 582.42 32.3894 582.28 32.53L579.28 35.53C579.211 35.6037 579.129 35.6628 579.037 35.7038C578.945 35.7448 578.845 35.7668 578.745 35.7686C578.644 35.7704 578.544 35.7518 578.45 35.7141C578.357 35.6764 578.272 35.6203 578.201 35.549C578.13 35.4778 578.074 35.393 578.036 35.2996C577.998 35.2062 577.98 35.1062 577.981 35.0055C577.983 34.9048 578.005 34.8055 578.046 34.7135C578.087 34.6215 578.146 34.5387 578.22 34.47L579.94 32.75H569C568.801 32.75 568.61 32.671 568.47 32.5303C568.329 32.3897 568.25 32.1989 568.25 32C568.25 31.8011 568.329 31.6103 568.47 31.4697C568.61 31.329 568.801 31.25 569 31.25H579.94L578.22 29.53C578.08 29.3894 578.001 29.1988 578.001 29C578.001 28.8012 578.08 28.6106 578.22 28.47Z" fill="#690005"/>
<path d="M269.004 21.8182H271.261L274.284 29.196H274.403L277.426 21.8182H279.683V32H277.913V25.005H277.819L275.005 31.9702H273.683L270.869 24.9901H270.774V32H269.004V21.8182ZM283.81 32.1541C283.326 32.1541 282.89 32.0679 282.502 31.8956C282.118 31.7199 281.813 31.4614 281.587 31.12C281.365 30.7786 281.254 30.3577 281.254 29.8572C281.254 29.4264 281.334 29.0701 281.493 28.7884C281.652 28.5066 281.869 28.2812 282.144 28.1122C282.419 27.9432 282.729 27.8156 283.074 27.7294C283.422 27.6399 283.781 27.5753 284.153 27.5355C284.6 27.4891 284.963 27.4477 285.241 27.4112C285.52 27.3714 285.722 27.3118 285.848 27.2322C285.977 27.1494 286.042 27.0218 286.042 26.8494V26.8196C286.042 26.4451 285.931 26.1551 285.709 25.9496C285.487 25.7441 285.167 25.6413 284.749 25.6413C284.308 25.6413 283.959 25.7375 283.7 25.9297C283.445 26.1219 283.273 26.349 283.183 26.6108L281.503 26.3722C281.635 25.9081 281.854 25.5204 282.159 25.2088C282.464 24.8939 282.837 24.6586 283.278 24.5028C283.719 24.3438 284.206 24.2642 284.739 24.2642C285.107 24.2642 285.473 24.3073 285.838 24.3935C286.203 24.4796 286.536 24.6222 286.837 24.821C287.139 25.0166 287.381 25.2834 287.563 25.6214C287.749 25.9595 287.842 26.3821 287.842 26.8892V32H286.112V30.951H286.052C285.942 31.1631 285.788 31.362 285.589 31.5476C285.394 31.7299 285.147 31.8774 284.849 31.9901C284.554 32.0994 284.207 32.1541 283.81 32.1541ZM284.277 30.8317C284.638 30.8317 284.951 30.7604 285.217 30.6179C285.482 30.4721 285.686 30.2798 285.828 30.0412C285.974 29.8026 286.047 29.5424 286.047 29.2607V28.3608C285.991 28.4072 285.894 28.4503 285.759 28.4901C285.626 28.5298 285.477 28.5646 285.311 28.5945C285.145 28.6243 284.981 28.6508 284.819 28.674C284.656 28.6972 284.516 28.7171 284.396 28.7337C284.128 28.7701 283.888 28.8298 283.675 28.9126C283.463 28.9955 283.296 29.1115 283.173 29.2607C283.051 29.4065 282.989 29.5954 282.989 29.8274C282.989 30.1589 283.11 30.4091 283.352 30.5781C283.594 30.7472 283.902 30.8317 284.277 30.8317ZM291.451 27.5256V32H289.651V24.3636H291.371V25.6612H291.461C291.637 25.2337 291.917 24.8939 292.301 24.642C292.689 24.3902 293.168 24.2642 293.738 24.2642C294.265 24.2642 294.724 24.3769 295.115 24.6023C295.509 24.8277 295.814 25.1541 296.03 25.5817C296.249 26.0092 296.356 26.5279 296.353 27.1378V32H294.553V27.4162C294.553 26.9058 294.421 26.5064 294.156 26.218C293.894 25.9297 293.531 25.7855 293.067 25.7855C292.752 25.7855 292.472 25.8551 292.227 25.9943C291.985 26.1302 291.794 26.3274 291.655 26.5859C291.519 26.8445 291.451 27.1577 291.451 27.5256ZM300.38 32.1541C299.896 32.1541 299.46 32.0679 299.072 31.8956C298.688 31.7199 298.383 31.4614 298.158 31.12C297.936 30.7786 297.825 30.3577 297.825 29.8572C297.825 29.4264 297.904 29.0701 298.063 28.7884C298.222 28.5066 298.439 28.2812 298.714 28.1122C298.99 27.9432 299.299 27.8156 299.644 27.7294C299.992 27.6399 300.352 27.5753 300.723 27.5355C301.17 27.4891 301.533 27.4477 301.812 27.4112C302.09 27.3714 302.292 27.3118 302.418 27.2322C302.548 27.1494 302.612 27.0218 302.612 26.8494V26.8196C302.612 26.4451 302.501 26.1551 302.279 25.9496C302.057 25.7441 301.737 25.6413 301.32 25.6413C300.879 25.6413 300.529 25.7375 300.271 25.9297C300.015 26.1219 299.843 26.349 299.754 26.6108L298.073 26.3722C298.206 25.9081 298.424 25.5204 298.729 25.2088C299.034 24.8939 299.407 24.6586 299.848 24.5028C300.289 24.3438 300.776 24.2642 301.31 24.2642C301.678 24.2642 302.044 24.3073 302.408 24.3935C302.773 24.4796 303.106 24.6222 303.408 24.821C303.709 25.0166 303.951 25.2834 304.134 25.6214C304.319 25.9595 304.412 26.3821 304.412 26.8892V32H302.682V30.951H302.622C302.513 31.1631 302.359 31.362 302.16 31.5476C301.964 31.7299 301.717 31.8774 301.419 31.9901C301.124 32.0994 300.778 32.1541 300.38 32.1541ZM300.847 30.8317C301.209 30.8317 301.522 30.7604 301.787 30.6179C302.052 30.4721 302.256 30.2798 302.398 30.0412C302.544 29.8026 302.617 29.5424 302.617 29.2607V28.3608C302.561 28.4072 302.465 28.4503 302.329 28.4901C302.196 28.5298 302.047 28.5646 301.881 28.5945C301.716 28.6243 301.552 28.6508 301.389 28.674C301.227 28.6972 301.086 28.7171 300.967 28.7337C300.698 28.7701 300.458 28.8298 300.246 28.9126C300.034 28.9955 299.866 29.1115 299.744 29.2607C299.621 29.4065 299.56 29.5954 299.56 29.8274C299.56 30.1589 299.681 30.4091 299.923 30.5781C300.165 30.7472 300.473 30.8317 300.847 30.8317ZM309.543 35.0227C308.896 35.0227 308.341 34.9349 307.877 34.7592C307.413 34.5869 307.04 34.3549 306.759 34.0632C306.477 33.7715 306.281 33.4484 306.172 33.0938L307.793 32.701C307.866 32.8501 307.972 32.9976 308.111 33.1435C308.25 33.2926 308.437 33.4152 308.673 33.5114C308.911 33.6108 309.211 33.6605 309.572 33.6605C310.083 33.6605 310.505 33.5362 310.84 33.2876C311.175 33.0424 311.342 32.638 311.342 32.0746V30.6278H311.253C311.16 30.8134 311.024 31.004 310.845 31.1996C310.67 31.3951 310.436 31.5592 310.144 31.6918C309.856 31.8243 309.493 31.8906 309.055 31.8906C308.469 31.8906 307.937 31.7531 307.46 31.478C306.986 31.1996 306.608 30.7853 306.326 30.2351C306.048 29.6816 305.908 28.9889 305.908 28.157C305.908 27.3184 306.048 26.6108 306.326 26.0341C306.608 25.4541 306.987 25.0149 307.464 24.7166C307.942 24.415 308.474 24.2642 309.06 24.2642C309.508 24.2642 309.876 24.3404 310.164 24.4929C310.456 24.642 310.688 24.8227 310.86 25.0348C311.032 25.2436 311.163 25.4408 311.253 25.6264H311.352V24.3636H313.127V32.1243C313.127 32.7772 312.971 33.3175 312.66 33.745C312.348 34.1726 311.922 34.4924 311.382 34.7045C310.842 34.9167 310.229 35.0227 309.543 35.0227ZM309.558 30.4787C309.939 30.4787 310.263 30.3859 310.532 30.2003C310.8 30.0147 311.004 29.7479 311.143 29.3999C311.283 29.0518 311.352 28.6342 311.352 28.147C311.352 27.6664 311.283 27.2455 311.143 26.8842C311.008 26.523 310.805 26.2429 310.537 26.044C310.272 25.8419 309.945 25.7408 309.558 25.7408C309.156 25.7408 308.822 25.8452 308.553 26.054C308.285 26.2628 308.083 26.5495 307.947 26.9141C307.811 27.2753 307.743 27.6863 307.743 28.147C307.743 28.6143 307.811 29.0237 307.947 29.375C308.086 29.723 308.29 29.9948 308.558 30.1903C308.83 30.3826 309.163 30.4787 309.558 30.4787ZM318.352 32.1491C317.587 32.1491 316.925 31.9901 316.369 31.6719C315.815 31.3504 315.389 30.8963 315.091 30.3097C314.793 29.7197 314.643 29.0253 314.643 28.2266C314.643 27.4411 314.793 26.7517 315.091 26.1584C315.393 25.5618 315.813 25.0978 316.354 24.7663C316.894 24.4316 317.529 24.2642 318.258 24.2642C318.728 24.2642 319.173 24.3404 319.59 24.4929C320.011 24.642 320.382 24.8741 320.704 25.1889C321.029 25.5038 321.284 25.9048 321.469 26.392C321.655 26.8759 321.748 27.4527 321.748 28.1222V28.674H315.489V27.4609H320.023C320.019 27.1162 319.945 26.8097 319.799 26.5412C319.653 26.2694 319.449 26.0556 319.188 25.8999C318.929 25.7441 318.627 25.6662 318.283 25.6662C317.915 25.6662 317.592 25.7557 317.313 25.9347C317.035 26.1103 316.818 26.3423 316.662 26.6307C316.509 26.9157 316.432 27.2289 316.428 27.5703V28.6293C316.428 29.0734 316.509 29.4545 316.672 29.7727C316.834 30.0876 317.061 30.3295 317.353 30.4986C317.645 30.6643 317.986 30.7472 318.377 30.7472C318.639 30.7472 318.876 30.7107 319.088 30.6378C319.3 30.5616 319.484 30.4505 319.64 30.3047C319.796 30.1589 319.913 29.9782 319.993 29.7628L321.673 29.9517C321.567 30.3958 321.365 30.7836 321.067 31.1151C320.772 31.4432 320.394 31.6984 319.933 31.8807C319.473 32.0597 318.946 32.1491 318.352 32.1491ZM323.27 32V24.3636H325.015V25.6364H325.095C325.234 25.1955 325.473 24.8558 325.811 24.6172C326.152 24.3752 326.542 24.2543 326.979 24.2543C327.079 24.2543 327.19 24.2592 327.312 24.2692C327.438 24.2758 327.543 24.2874 327.626 24.304V25.9595C327.549 25.933 327.428 25.9098 327.263 25.8899C327.1 25.8667 326.943 25.8551 326.79 25.8551C326.462 25.8551 326.167 25.9264 325.905 26.0689C325.647 26.2081 325.443 26.402 325.294 26.6506C325.145 26.8991 325.07 27.1858 325.07 27.5107V32H323.27Z" fill="black" fill-opacity="0.5"/>
</g>
<defs>
<linearGradient id="paint0_linear_79_320" x1="8" y1="8" x2="56.5" y2="56" gradientUnits="userSpaceOnUse">
<stop stop-color="#00363C"/>
<stop offset="1" stop-color="#B1CBCF"/>
</linearGradient>
<clipPath id="clip0_79_320">
<rect width="600" height="227" fill="white"/>
</clipPath>
</defs>
</svg>
