<svg width="600" height="227" viewBox="0 0 600 227" fill="none" xmlns="http://www.w3.org/2000/svg">
<rect width="600" height="227" fill="white"/>
<rect x="8" y="56" width="284" height="163" rx="12" fill="#00363C"/>
<path d="M112.719 136.254H110.86C110.807 135.949 110.709 135.679 110.567 135.443C110.424 135.205 110.247 135.002 110.035 134.837C109.823 134.671 109.581 134.547 109.309 134.464C109.04 134.378 108.75 134.335 108.439 134.335C107.885 134.335 107.395 134.474 106.967 134.752C106.54 135.027 106.205 135.432 105.963 135.965C105.721 136.496 105.6 137.143 105.6 137.909C105.6 138.688 105.721 139.344 105.963 139.878C106.208 140.408 106.543 140.809 106.967 141.081C107.395 141.349 107.884 141.484 108.434 141.484C108.739 141.484 109.024 141.444 109.289 141.364C109.558 141.281 109.798 141.161 110.01 141.001C110.225 140.842 110.406 140.647 110.552 140.415C110.701 140.183 110.804 139.918 110.86 139.619L112.719 139.629C112.65 140.113 112.499 140.567 112.267 140.991C112.038 141.416 111.738 141.79 111.367 142.115C110.996 142.437 110.562 142.688 110.065 142.871C109.567 143.05 109.016 143.139 108.409 143.139C107.514 143.139 106.715 142.932 106.013 142.518C105.31 142.103 104.757 141.505 104.352 140.723C103.948 139.941 103.746 139.003 103.746 137.909C103.746 136.812 103.95 135.874 104.357 135.095C104.765 134.313 105.32 133.715 106.023 133.3C106.725 132.886 107.521 132.679 108.409 132.679C108.976 132.679 109.503 132.759 109.99 132.918C110.477 133.077 110.911 133.31 111.293 133.619C111.674 133.924 111.987 134.298 112.232 134.742C112.481 135.183 112.643 135.687 112.719 136.254ZM116.526 143.154C116.043 143.154 115.607 143.068 115.219 142.896C114.834 142.72 114.53 142.461 114.304 142.12C114.082 141.779 113.971 141.358 113.971 140.857C113.971 140.426 114.051 140.07 114.21 139.788C114.369 139.507 114.586 139.281 114.861 139.112C115.136 138.943 115.446 138.816 115.791 138.729C116.139 138.64 116.498 138.575 116.869 138.536C117.317 138.489 117.68 138.448 117.958 138.411C118.237 138.371 118.439 138.312 118.565 138.232C118.694 138.149 118.759 138.022 118.759 137.849V137.82C118.759 137.445 118.648 137.155 118.426 136.95C118.204 136.744 117.884 136.641 117.466 136.641C117.025 136.641 116.676 136.737 116.417 136.93C116.162 137.122 115.99 137.349 115.9 137.611L114.22 137.372C114.352 136.908 114.571 136.52 114.876 136.209C115.181 135.894 115.554 135.659 115.994 135.503C116.435 135.344 116.923 135.264 117.456 135.264C117.824 135.264 118.19 135.307 118.555 135.393C118.919 135.48 119.253 135.622 119.554 135.821C119.856 136.017 120.098 136.283 120.28 136.621C120.466 136.96 120.558 137.382 120.558 137.889V143H118.828V141.951H118.769C118.659 142.163 118.505 142.362 118.306 142.548C118.111 142.73 117.864 142.877 117.566 142.99C117.271 143.099 116.924 143.154 116.526 143.154ZM116.994 141.832C117.355 141.832 117.668 141.76 117.933 141.618C118.199 141.472 118.402 141.28 118.545 141.041C118.691 140.803 118.764 140.542 118.764 140.261V139.361C118.707 139.407 118.611 139.45 118.475 139.49C118.343 139.53 118.194 139.565 118.028 139.594C117.862 139.624 117.698 139.651 117.536 139.674C117.373 139.697 117.232 139.717 117.113 139.734C116.845 139.77 116.604 139.83 116.392 139.913C116.18 139.996 116.013 140.112 115.89 140.261C115.767 140.406 115.706 140.595 115.706 140.827C115.706 141.159 115.827 141.409 116.069 141.578C116.311 141.747 116.619 141.832 116.994 141.832ZM126.181 135.364V136.756H121.791V135.364H126.181ZM122.875 133.534H124.675V140.703C124.675 140.945 124.711 141.131 124.784 141.26C124.86 141.386 124.96 141.472 125.083 141.518C125.205 141.565 125.341 141.588 125.49 141.588C125.603 141.588 125.706 141.58 125.798 141.563C125.895 141.547 125.968 141.532 126.017 141.518L126.32 142.925C126.224 142.959 126.087 142.995 125.908 143.035C125.732 143.075 125.517 143.098 125.262 143.104C124.811 143.118 124.405 143.05 124.044 142.901C123.682 142.748 123.396 142.513 123.183 142.195C122.975 141.876 122.872 141.479 122.875 141.001V133.534ZM129.884 143.154C129.4 143.154 128.964 143.068 128.576 142.896C128.192 142.72 127.887 142.461 127.662 142.12C127.44 141.779 127.328 141.358 127.328 140.857C127.328 140.426 127.408 140.07 127.567 139.788C127.726 139.507 127.943 139.281 128.218 139.112C128.493 138.943 128.803 138.816 129.148 138.729C129.496 138.64 129.856 138.575 130.227 138.536C130.674 138.489 131.037 138.448 131.316 138.411C131.594 138.371 131.796 138.312 131.922 138.232C132.051 138.149 132.116 138.022 132.116 137.849V137.82C132.116 137.445 132.005 137.155 131.783 136.95C131.561 136.744 131.241 136.641 130.824 136.641C130.383 136.641 130.033 136.737 129.775 136.93C129.519 137.122 129.347 137.349 129.257 137.611L127.577 137.372C127.71 136.908 127.928 136.52 128.233 136.209C128.538 135.894 128.911 135.659 129.352 135.503C129.793 135.344 130.28 135.264 130.814 135.264C131.181 135.264 131.548 135.307 131.912 135.393C132.277 135.48 132.61 135.622 132.912 135.821C133.213 136.017 133.455 136.283 133.637 136.621C133.823 136.96 133.916 137.382 133.916 137.889V143H132.186V141.951H132.126C132.017 142.163 131.863 142.362 131.664 142.548C131.468 142.73 131.221 142.877 130.923 142.99C130.628 143.099 130.282 143.154 129.884 143.154ZM130.351 141.832C130.712 141.832 131.026 141.76 131.291 141.618C131.556 141.472 131.76 141.28 131.902 141.041C132.048 140.803 132.121 140.542 132.121 140.261V139.361C132.065 139.407 131.969 139.45 131.833 139.49C131.7 139.53 131.551 139.565 131.385 139.594C131.22 139.624 131.056 139.651 130.893 139.674C130.731 139.697 130.59 139.717 130.471 139.734C130.202 139.77 129.962 139.83 129.75 139.913C129.538 139.996 129.37 140.112 129.248 140.261C129.125 140.406 129.064 140.595 129.064 140.827C129.064 141.159 129.185 141.409 129.426 141.578C129.668 141.747 129.977 141.832 130.351 141.832ZM130.202 134.359L131.316 132.087H133.076L131.549 134.359H130.202ZM137.525 132.818V143H135.725V132.818H137.525ZM142.707 143.149C141.961 143.149 141.315 142.985 140.768 142.657C140.221 142.329 139.797 141.87 139.495 141.28C139.197 140.69 139.048 140 139.048 139.212C139.048 138.423 139.197 137.732 139.495 137.138C139.797 136.545 140.221 136.085 140.768 135.756C141.315 135.428 141.961 135.264 142.707 135.264C143.453 135.264 144.099 135.428 144.646 135.756C145.193 136.085 145.615 136.545 145.914 137.138C146.215 137.732 146.366 138.423 146.366 139.212C146.366 140 146.215 140.69 145.914 141.28C145.615 141.87 145.193 142.329 144.646 142.657C144.099 142.985 143.453 143.149 142.707 143.149ZM142.717 141.707C143.121 141.707 143.459 141.596 143.731 141.374C144.003 141.149 144.205 140.847 144.338 140.469C144.473 140.092 144.541 139.671 144.541 139.207C144.541 138.739 144.473 138.317 144.338 137.939C144.205 137.558 144.003 137.254 143.731 137.029C143.459 136.804 143.121 136.691 142.717 136.691C142.302 136.691 141.958 136.804 141.683 137.029C141.411 137.254 141.207 137.558 141.071 137.939C140.939 138.317 140.872 138.739 140.872 139.207C140.872 139.671 140.939 140.092 141.071 140.469C141.207 140.847 141.411 141.149 141.683 141.374C141.958 141.596 142.302 141.707 142.717 141.707ZM151.214 146.023C150.568 146.023 150.013 145.935 149.549 145.759C149.085 145.587 148.712 145.355 148.43 145.063C148.149 144.772 147.953 144.448 147.844 144.094L149.464 143.701C149.537 143.85 149.643 143.998 149.783 144.143C149.922 144.293 150.109 144.415 150.344 144.511C150.583 144.611 150.883 144.661 151.244 144.661C151.755 144.661 152.177 144.536 152.512 144.288C152.847 144.042 153.014 143.638 153.014 143.075V141.628H152.925C152.832 141.813 152.696 142.004 152.517 142.2C152.341 142.395 152.108 142.559 151.816 142.692C151.528 142.824 151.165 142.891 150.727 142.891C150.141 142.891 149.609 142.753 149.131 142.478C148.657 142.2 148.28 141.785 147.998 141.235C147.719 140.682 147.58 139.989 147.58 139.157C147.58 138.318 147.719 137.611 147.998 137.034C148.28 136.454 148.659 136.015 149.136 135.717C149.614 135.415 150.146 135.264 150.732 135.264C151.18 135.264 151.548 135.34 151.836 135.493C152.128 135.642 152.36 135.823 152.532 136.035C152.704 136.244 152.835 136.441 152.925 136.626H153.024V135.364H154.799V143.124C154.799 143.777 154.643 144.317 154.332 144.745C154.02 145.173 153.594 145.492 153.054 145.705C152.514 145.917 151.901 146.023 151.214 146.023ZM151.229 141.479C151.611 141.479 151.935 141.386 152.204 141.2C152.472 141.015 152.676 140.748 152.815 140.4C152.955 140.052 153.024 139.634 153.024 139.147C153.024 138.666 152.955 138.246 152.815 137.884C152.679 137.523 152.477 137.243 152.209 137.044C151.944 136.842 151.617 136.741 151.229 136.741C150.828 136.741 150.494 136.845 150.225 137.054C149.957 137.263 149.754 137.549 149.619 137.914C149.483 138.275 149.415 138.686 149.415 139.147C149.415 139.614 149.483 140.024 149.619 140.375C149.758 140.723 149.962 140.995 150.23 141.19C150.502 141.383 150.835 141.479 151.229 141.479ZM159.974 143.149C159.229 143.149 158.582 142.985 158.036 142.657C157.489 142.329 157.064 141.87 156.763 141.28C156.464 140.69 156.315 140 156.315 139.212C156.315 138.423 156.464 137.732 156.763 137.138C157.064 136.545 157.489 136.085 158.036 135.756C158.582 135.428 159.229 135.264 159.974 135.264C160.72 135.264 161.366 135.428 161.913 135.756C162.46 136.085 162.883 136.545 163.181 137.138C163.483 137.732 163.634 138.423 163.634 139.212C163.634 140 163.483 140.69 163.181 141.28C162.883 141.87 162.46 142.329 161.913 142.657C161.366 142.985 160.72 143.149 159.974 143.149ZM159.984 141.707C160.389 141.707 160.727 141.596 160.999 141.374C161.27 141.149 161.473 140.847 161.605 140.469C161.741 140.092 161.809 139.671 161.809 139.207C161.809 138.739 161.741 138.317 161.605 137.939C161.473 137.558 161.27 137.254 160.999 137.029C160.727 136.804 160.389 136.691 159.984 136.691C159.57 136.691 159.225 136.804 158.95 137.029C158.679 137.254 158.475 137.558 158.339 137.939C158.206 138.317 158.14 138.739 158.14 139.207C158.14 139.671 158.206 140.092 158.339 140.469C158.475 140.847 158.679 141.149 158.95 141.374C159.225 141.596 159.57 141.707 159.984 141.707Z" fill="#81D3DE"/>
<path d="M178.223 127.75C177.726 127.75 177.249 127.948 176.898 128.3L175.598 129.598C174.926 130.269 174.534 131.169 174.499 132.117C174.465 133.066 174.792 133.992 175.414 134.709C176.036 135.426 176.907 135.881 177.85 135.981C178.794 136.081 179.741 135.82 180.5 135.25C181.127 135.72 181.906 136 182.75 136C183.594 136 184.374 135.72 185 135.25C185.626 135.72 186.406 136 187.25 136C188.094 136 188.873 135.72 189.5 135.25C190.259 135.82 191.205 136.081 192.149 135.981C193.093 135.881 193.964 135.426 194.586 134.709C195.208 133.992 195.534 133.066 195.5 132.117C195.466 131.169 195.074 130.269 194.402 129.598L193.102 128.299C192.75 127.948 192.274 127.75 191.777 127.75H178.223Z" fill="#81D3DE"/>
<path fill-rule="evenodd" clip-rule="evenodd" d="M176 145.75V136.995C177.42 137.669 179.08 137.668 180.5 136.995C181.203 137.329 181.972 137.501 182.75 137.5C183.554 137.5 184.318 137.318 185 136.994C185.703 137.328 186.472 137.501 187.25 137.5C188.054 137.5 188.817 137.318 189.5 136.994C190.92 137.668 192.58 137.669 194 136.995V145.75H194.75C194.949 145.75 195.14 145.829 195.28 145.97C195.421 146.11 195.5 146.301 195.5 146.5C195.5 146.699 195.421 146.89 195.28 147.03C195.14 147.171 194.949 147.25 194.75 147.25H175.25C175.051 147.25 174.86 147.171 174.72 147.03C174.579 146.89 174.5 146.699 174.5 146.5C174.5 146.301 174.579 146.11 174.72 145.97C174.86 145.829 175.051 145.75 175.25 145.75H176ZM179 139.75C179 139.551 179.079 139.36 179.22 139.22C179.36 139.079 179.551 139 179.75 139H182.75C182.949 139 183.14 139.079 183.28 139.22C183.421 139.36 183.5 139.551 183.5 139.75V142.75C183.5 142.949 183.421 143.14 183.28 143.28C183.14 143.421 182.949 143.5 182.75 143.5H179.75C179.551 143.5 179.36 143.421 179.22 143.28C179.079 143.14 179 142.949 179 142.75V139.75ZM187.25 139C187.051 139 186.86 139.079 186.72 139.22C186.579 139.36 186.5 139.551 186.5 139.75V145C186.5 145.414 186.836 145.75 187.25 145.75H190.25C190.449 145.75 190.64 145.671 190.78 145.53C190.921 145.39 191 145.199 191 145V139.75C191 139.551 190.921 139.36 190.78 139.22C190.64 139.079 190.449 139 190.25 139H187.25Z" fill="#81D3DE"/>
<rect x="308" y="56" width="284" height="163" rx="12" fill="#FFE4AB"/>
<path d="M388.325 136.07C388.242 135.801 388.128 135.561 387.982 135.349C387.84 135.133 387.667 134.949 387.465 134.797C387.266 134.644 387.038 134.53 386.779 134.454C386.521 134.374 386.239 134.335 385.934 134.335C385.387 134.335 384.9 134.472 384.472 134.747C384.045 135.022 383.708 135.427 383.463 135.96C383.221 136.491 383.1 137.137 383.1 137.899C383.1 138.668 383.221 139.319 383.463 139.853C383.705 140.387 384.041 140.793 384.472 141.071C384.903 141.346 385.404 141.484 385.974 141.484C386.491 141.484 386.938 141.384 387.316 141.185C387.697 140.987 387.991 140.705 388.196 140.34C388.402 139.972 388.504 139.541 388.504 139.048L388.922 139.112H386.158V137.67H390.289V138.893C390.289 139.765 390.103 140.519 389.732 141.156C389.361 141.792 388.851 142.282 388.201 142.627C387.551 142.969 386.806 143.139 385.964 143.139C385.026 143.139 384.202 142.929 383.493 142.508C382.787 142.084 382.235 141.482 381.837 140.703C381.443 139.921 381.246 138.993 381.246 137.919C381.246 137.097 381.362 136.363 381.594 135.717C381.829 135.07 382.157 134.522 382.578 134.071C382.999 133.617 383.493 133.272 384.06 133.037C384.626 132.798 385.243 132.679 385.909 132.679C386.473 132.679 386.998 132.762 387.485 132.928C387.972 133.09 388.405 133.322 388.783 133.624C389.164 133.925 389.477 134.283 389.722 134.697C389.968 135.112 390.128 135.569 390.205 136.07H388.325ZM395.374 143.149C394.608 143.149 393.947 142.99 393.39 142.672C392.837 142.35 392.411 141.896 392.112 141.31C391.814 140.72 391.665 140.025 391.665 139.227C391.665 138.441 391.814 137.752 392.112 137.158C392.414 136.562 392.835 136.098 393.375 135.766C393.915 135.432 394.55 135.264 395.279 135.264C395.75 135.264 396.194 135.34 396.612 135.493C397.033 135.642 397.404 135.874 397.725 136.189C398.05 136.504 398.305 136.905 398.491 137.392C398.677 137.876 398.769 138.453 398.769 139.122V139.674H392.51V138.461H397.044C397.041 138.116 396.966 137.81 396.82 137.541C396.675 137.269 396.471 137.056 396.209 136.9C395.95 136.744 395.649 136.666 395.304 136.666C394.936 136.666 394.613 136.756 394.335 136.935C394.056 137.11 393.839 137.342 393.683 137.631C393.531 137.916 393.453 138.229 393.45 138.57V139.629C393.45 140.073 393.531 140.455 393.693 140.773C393.856 141.088 394.083 141.33 394.374 141.499C394.666 141.664 395.008 141.747 395.399 141.747C395.66 141.747 395.897 141.711 396.11 141.638C396.322 141.562 396.506 141.451 396.661 141.305C396.817 141.159 396.935 140.978 397.014 140.763L398.695 140.952C398.589 141.396 398.387 141.784 398.088 142.115C397.793 142.443 397.415 142.698 396.955 142.881C396.494 143.06 395.967 143.149 395.374 143.149ZM400.292 143V135.364H402.037V136.636H402.116C402.256 136.196 402.494 135.856 402.832 135.617C403.174 135.375 403.563 135.254 404.001 135.254C404.1 135.254 404.211 135.259 404.334 135.269C404.46 135.276 404.564 135.287 404.647 135.304V136.96C404.571 136.933 404.45 136.91 404.284 136.89C404.122 136.867 403.964 136.855 403.812 136.855C403.484 136.855 403.189 136.926 402.927 137.069C402.668 137.208 402.464 137.402 402.315 137.651C402.166 137.899 402.092 138.186 402.092 138.511V143H400.292ZM408.909 143.149C408.143 143.149 407.482 142.99 406.925 142.672C406.372 142.35 405.946 141.896 405.648 141.31C405.349 140.72 405.2 140.025 405.2 139.227C405.2 138.441 405.349 137.752 405.648 137.158C405.949 136.562 406.37 136.098 406.91 135.766C407.451 135.432 408.085 135.264 408.814 135.264C409.285 135.264 409.729 135.34 410.147 135.493C410.568 135.642 410.939 135.874 411.26 136.189C411.585 136.504 411.84 136.905 412.026 137.392C412.212 137.876 412.305 138.453 412.305 139.122V139.674H406.045V138.461H410.579C410.576 138.116 410.501 137.81 410.356 137.541C410.21 137.269 410.006 137.056 409.744 136.9C409.486 136.744 409.184 136.666 408.839 136.666C408.471 136.666 408.148 136.756 407.87 136.935C407.591 137.11 407.374 137.342 407.219 137.631C407.066 137.916 406.988 138.229 406.985 138.57V139.629C406.985 140.073 407.066 140.455 407.229 140.773C407.391 141.088 407.618 141.33 407.91 141.499C408.201 141.664 408.543 141.747 408.934 141.747C409.196 141.747 409.433 141.711 409.645 141.638C409.857 141.562 410.041 141.451 410.197 141.305C410.352 141.159 410.47 140.978 410.55 140.763L412.23 140.952C412.124 141.396 411.922 141.784 411.623 142.115C411.328 142.443 410.951 142.698 410.49 142.881C410.029 143.06 409.502 143.149 408.909 143.149ZM415.627 138.526V143H413.827V135.364H415.547V136.661H415.637C415.812 136.234 416.092 135.894 416.477 135.642C416.865 135.39 417.344 135.264 417.914 135.264C418.441 135.264 418.9 135.377 419.291 135.602C419.685 135.828 419.99 136.154 420.206 136.582C420.424 137.009 420.532 137.528 420.529 138.138V143H418.729V138.416C418.729 137.906 418.596 137.506 418.331 137.218C418.069 136.93 417.707 136.786 417.243 136.786C416.928 136.786 416.648 136.855 416.402 136.994C416.16 137.13 415.97 137.327 415.831 137.586C415.695 137.844 415.627 138.158 415.627 138.526ZM425.689 143.149C424.927 143.149 424.272 142.982 423.725 142.647C423.182 142.312 422.763 141.85 422.468 141.26C422.176 140.667 422.03 139.984 422.03 139.212C422.03 138.436 422.179 137.752 422.478 137.158C422.776 136.562 423.197 136.098 423.74 135.766C424.287 135.432 424.934 135.264 425.679 135.264C426.299 135.264 426.848 135.379 427.325 135.607C427.806 135.833 428.188 136.152 428.473 136.567C428.758 136.978 428.921 137.458 428.961 138.009H427.24C427.171 137.641 427.005 137.334 426.743 137.089C426.485 136.84 426.138 136.716 425.704 136.716C425.336 136.716 425.013 136.815 424.735 137.014C424.456 137.21 424.239 137.491 424.083 137.859C423.931 138.227 423.855 138.668 423.855 139.182C423.855 139.702 423.931 140.15 424.083 140.524C424.236 140.895 424.45 141.182 424.725 141.384C425.003 141.583 425.33 141.683 425.704 141.683C425.969 141.683 426.206 141.633 426.415 141.533C426.627 141.431 426.805 141.283 426.947 141.091C427.09 140.899 427.187 140.665 427.24 140.39H428.961C428.917 140.93 428.758 141.409 428.483 141.827C428.208 142.241 427.834 142.566 427.36 142.801C426.886 143.033 426.329 143.149 425.689 143.149ZM430.438 143V135.364H432.238V143H430.438ZM431.343 134.28C431.058 134.28 430.813 134.185 430.607 133.996C430.402 133.804 430.299 133.574 430.299 133.305C430.299 133.034 430.402 132.803 430.607 132.614C430.813 132.422 431.058 132.326 431.343 132.326C431.632 132.326 431.877 132.422 432.079 132.614C432.285 132.803 432.387 133.034 432.387 133.305C432.387 133.574 432.285 133.804 432.079 133.996C431.877 134.185 431.632 134.28 431.343 134.28ZM436.286 143.154C435.802 143.154 435.366 143.068 434.979 142.896C434.594 142.72 434.289 142.461 434.064 142.12C433.842 141.779 433.731 141.358 433.731 140.857C433.731 140.426 433.81 140.07 433.969 139.788C434.129 139.507 434.346 139.281 434.621 139.112C434.896 138.943 435.206 138.816 435.55 138.729C435.898 138.64 436.258 138.575 436.629 138.536C437.077 138.489 437.44 138.448 437.718 138.411C437.996 138.371 438.199 138.312 438.325 138.232C438.454 138.149 438.518 138.022 438.518 137.849V137.82C438.518 137.445 438.407 137.155 438.185 136.95C437.963 136.744 437.643 136.641 437.226 136.641C436.785 136.641 436.435 136.737 436.177 136.93C435.922 137.122 435.749 137.349 435.66 137.611L433.979 137.372C434.112 136.908 434.331 136.52 434.636 136.209C434.941 135.894 435.313 135.659 435.754 135.503C436.195 135.344 436.682 135.264 437.216 135.264C437.584 135.264 437.95 135.307 438.315 135.393C438.679 135.48 439.012 135.622 439.314 135.821C439.616 136.017 439.857 136.283 440.04 136.621C440.225 136.96 440.318 137.382 440.318 137.889V143H438.588V141.951H438.528C438.419 142.163 438.265 142.362 438.066 142.548C437.871 142.73 437.624 142.877 437.325 142.99C437.03 143.099 436.684 143.154 436.286 143.154ZM436.754 141.832C437.115 141.832 437.428 141.76 437.693 141.618C437.958 141.472 438.162 141.28 438.305 141.041C438.451 140.803 438.523 140.542 438.523 140.261V139.361C438.467 139.407 438.371 139.45 438.235 139.49C438.103 139.53 437.953 139.565 437.788 139.594C437.622 139.624 437.458 139.651 437.295 139.674C437.133 139.697 436.992 139.717 436.873 139.734C436.604 139.77 436.364 139.83 436.152 139.913C435.94 139.996 435.772 140.112 435.65 140.261C435.527 140.406 435.466 140.595 435.466 140.827C435.466 141.159 435.587 141.409 435.829 141.578C436.071 141.747 436.379 141.832 436.754 141.832ZM442.128 143V135.364H443.873V136.636H443.952C444.092 136.196 444.33 135.856 444.668 135.617C445.01 135.375 445.399 135.254 445.837 135.254C445.936 135.254 446.047 135.259 446.17 135.269C446.296 135.276 446.4 135.287 446.483 135.304V136.96C446.407 136.933 446.286 136.91 446.12 136.89C445.958 136.867 445.8 136.855 445.648 136.855C445.32 136.855 445.025 136.926 444.763 137.069C444.504 137.208 444.3 137.402 444.151 137.651C444.002 137.899 443.928 138.186 443.928 138.511V143H442.128ZM451.231 143V132.818H455.049C455.831 132.818 456.487 132.954 457.018 133.226C457.551 133.498 457.954 133.879 458.226 134.369C458.501 134.857 458.638 135.425 458.638 136.075C458.638 136.728 458.499 137.294 458.221 137.775C457.946 138.252 457.54 138.622 457.003 138.884C456.466 139.142 455.806 139.271 455.024 139.271H452.305V137.74H454.776C455.233 137.74 455.607 137.677 455.899 137.551C456.191 137.422 456.406 137.235 456.545 136.989C456.688 136.741 456.759 136.436 456.759 136.075C456.759 135.713 456.688 135.405 456.545 135.15C456.403 134.891 456.186 134.696 455.894 134.563C455.603 134.427 455.226 134.359 454.766 134.359H453.075V143H451.231ZM456.491 138.386L459.011 143H456.953L454.477 138.386H456.491ZM463.478 143.149C462.733 143.149 462.086 142.985 461.539 142.657C460.993 142.329 460.568 141.87 460.267 141.28C459.968 140.69 459.819 140 459.819 139.212C459.819 138.423 459.968 137.732 460.267 137.138C460.568 136.545 460.993 136.085 461.539 135.756C462.086 135.428 462.733 135.264 463.478 135.264C464.224 135.264 464.87 135.428 465.417 135.756C465.964 136.085 466.387 136.545 466.685 137.138C466.987 137.732 467.137 138.423 467.137 139.212C467.137 140 466.987 140.69 466.685 141.28C466.387 141.87 465.964 142.329 465.417 142.657C464.87 142.985 464.224 143.149 463.478 143.149ZM463.488 141.707C463.893 141.707 464.231 141.596 464.502 141.374C464.774 141.149 464.976 140.847 465.109 140.469C465.245 140.092 465.313 139.671 465.313 139.207C465.313 138.739 465.245 138.317 465.109 137.939C464.976 137.558 464.774 137.254 464.502 137.029C464.231 136.804 463.893 136.691 463.488 136.691C463.074 136.691 462.729 136.804 462.454 137.029C462.182 137.254 461.979 137.558 461.843 137.939C461.71 138.317 461.644 138.739 461.644 139.207C461.644 139.671 461.71 140.092 461.843 140.469C461.979 140.847 462.182 141.149 462.454 141.374C462.729 141.596 463.074 141.707 463.488 141.707ZM470.465 132.818V143H468.665V132.818H470.465ZM475.696 143.149C474.93 143.149 474.269 142.99 473.712 142.672C473.159 142.35 472.733 141.896 472.435 141.31C472.136 140.72 471.987 140.025 471.987 139.227C471.987 138.441 472.136 137.752 472.435 137.158C472.736 136.562 473.157 136.098 473.697 135.766C474.238 135.432 474.872 135.264 475.602 135.264C476.072 135.264 476.516 135.34 476.934 135.493C477.355 135.642 477.726 135.874 478.048 136.189C478.372 136.504 478.628 136.905 478.813 137.392C478.999 137.876 479.092 138.453 479.092 139.122V139.674H472.832V138.461H477.366C477.363 138.116 477.289 137.81 477.143 137.541C476.997 137.269 476.793 137.056 476.531 136.9C476.273 136.744 475.971 136.666 475.626 136.666C475.259 136.666 474.935 136.756 474.657 136.935C474.379 137.11 474.161 137.342 474.006 137.631C473.853 137.916 473.775 138.229 473.772 138.57V139.629C473.772 140.073 473.853 140.455 474.016 140.773C474.178 141.088 474.405 141.33 474.697 141.499C474.988 141.664 475.33 141.747 475.721 141.747C475.983 141.747 476.22 141.711 476.432 141.638C476.644 141.562 476.828 141.451 476.984 141.305C477.139 141.159 477.257 140.978 477.337 140.763L479.017 140.952C478.911 141.396 478.709 141.784 478.411 142.115C478.116 142.443 477.738 142.698 477.277 142.881C476.816 143.06 476.289 143.149 475.696 143.149ZM486.65 137.382L485.009 137.561C484.963 137.395 484.881 137.24 484.765 137.094C484.653 136.948 484.5 136.83 484.308 136.741C484.116 136.651 483.881 136.607 483.602 136.607C483.228 136.607 482.913 136.688 482.657 136.85C482.406 137.013 482.281 137.223 482.285 137.482C482.281 137.704 482.363 137.884 482.528 138.023C482.697 138.163 482.976 138.277 483.363 138.366L484.666 138.645C485.389 138.801 485.925 139.048 486.277 139.386C486.631 139.724 486.81 140.166 486.814 140.713C486.81 141.194 486.67 141.618 486.391 141.986C486.116 142.35 485.733 142.635 485.243 142.841C484.752 143.046 484.189 143.149 483.552 143.149C482.618 143.149 481.865 142.954 481.295 142.562C480.725 142.168 480.385 141.62 480.276 140.917L482.031 140.748C482.111 141.093 482.28 141.353 482.538 141.528C482.797 141.704 483.133 141.792 483.547 141.792C483.975 141.792 484.318 141.704 484.577 141.528C484.838 141.353 484.969 141.136 484.969 140.877C484.969 140.658 484.885 140.478 484.716 140.335C484.55 140.193 484.291 140.083 483.94 140.007L482.638 139.734C481.905 139.581 481.363 139.324 481.012 138.963C480.661 138.598 480.487 138.138 480.49 137.581C480.487 137.11 480.614 136.703 480.873 136.358C481.135 136.01 481.497 135.741 481.961 135.553C482.429 135.36 482.967 135.264 483.577 135.264C484.472 135.264 485.176 135.455 485.69 135.836C486.207 136.217 486.527 136.732 486.65 137.382Z" fill="#655A44"/>
<path d="M514.25 138.25H515.75C515.949 138.25 516.14 138.171 516.28 138.03C516.421 137.89 516.5 137.699 516.5 137.5C516.5 137.301 516.421 137.11 516.28 136.97C516.14 136.829 515.949 136.75 515.75 136.75H514.25C514.051 136.75 513.86 136.829 513.72 136.97C513.579 137.11 513.5 137.301 513.5 137.5C513.5 137.699 513.579 137.89 513.72 138.03C513.86 138.171 514.051 138.25 514.25 138.25ZM507.5 131.5C507.5 131.301 507.579 131.11 507.72 130.97C507.86 130.829 508.051 130.75 508.25 130.75H515.75C515.949 130.75 516.14 130.829 516.28 130.97C516.421 131.11 516.5 131.301 516.5 131.5C516.5 131.699 516.421 131.89 516.28 132.03C516.14 132.171 515.949 132.25 515.75 132.25H508.25C508.051 132.25 507.86 132.171 507.72 132.03C507.579 131.89 507.5 131.699 507.5 131.5ZM507.5 143.5C507.5 143.301 507.579 143.11 507.72 142.97C507.86 142.829 508.051 142.75 508.25 142.75H515.75C515.949 142.75 516.14 142.829 516.28 142.97C516.421 143.11 516.5 143.301 516.5 143.5C516.5 143.699 516.421 143.89 516.28 144.03C516.14 144.171 515.949 144.25 515.75 144.25H508.25C508.051 144.25 507.86 144.171 507.72 144.03C507.579 143.89 507.5 143.699 507.5 143.5ZM499.25 132.25H500.75C500.949 132.25 501.14 132.171 501.28 132.03C501.421 131.89 501.5 131.699 501.5 131.5C501.5 131.301 501.421 131.11 501.28 130.97C501.14 130.829 500.949 130.75 500.75 130.75H499.25C499.051 130.75 498.86 130.829 498.72 130.97C498.579 131.11 498.5 131.301 498.5 131.5C498.5 131.699 498.579 131.89 498.72 132.03C498.86 132.171 499.051 132.25 499.25 132.25ZM500.75 144.25H499.25C499.051 144.25 498.86 144.171 498.72 144.03C498.579 143.89 498.5 143.699 498.5 143.5C498.5 143.301 498.579 143.11 498.72 142.97C498.86 142.829 499.051 142.75 499.25 142.75H500.75C500.949 142.75 501.14 142.829 501.28 142.97C501.421 143.11 501.5 143.301 501.5 143.5C501.5 143.699 501.421 143.89 501.28 144.03C501.14 144.171 500.949 144.25 500.75 144.25ZM498.5 137.5C498.5 137.301 498.579 137.11 498.72 136.97C498.86 136.829 499.051 136.75 499.25 136.75H506.75C506.949 136.75 507.14 136.829 507.28 136.97C507.421 137.11 507.5 137.301 507.5 137.5C507.5 137.699 507.421 137.89 507.28 138.03C507.14 138.171 506.949 138.25 506.75 138.25H499.25C499.051 138.25 498.86 138.171 498.72 138.03C498.579 137.89 498.5 137.699 498.5 137.5ZM504.5 129.25C503.903 129.25 503.331 129.487 502.909 129.909C502.487 130.331 502.25 130.903 502.25 131.5C502.25 132.097 502.487 132.669 502.909 133.091C503.331 133.513 503.903 133.75 504.5 133.75C505.097 133.75 505.669 133.513 506.091 133.091C506.513 132.669 506.75 132.097 506.75 131.5C506.75 130.903 506.513 130.331 506.091 129.909C505.669 129.487 505.097 129.25 504.5 129.25ZM508.25 137.5C508.25 136.903 508.487 136.331 508.909 135.909C509.331 135.487 509.903 135.25 510.5 135.25C511.097 135.25 511.669 135.487 512.091 135.909C512.513 136.331 512.75 136.903 512.75 137.5C512.75 138.097 512.513 138.669 512.091 139.091C511.669 139.513 511.097 139.75 510.5 139.75C509.903 139.75 509.331 139.513 508.909 139.091C508.487 138.669 508.25 138.097 508.25 137.5ZM504.5 141.25C503.903 141.25 503.331 141.487 502.909 141.909C502.487 142.331 502.25 142.903 502.25 143.5C502.25 144.097 502.487 144.669 502.909 145.091C503.331 145.513 503.903 145.75 504.5 145.75C505.097 145.75 505.669 145.513 506.091 145.091C506.513 144.669 506.75 144.097 506.75 143.5C506.75 142.903 506.513 142.331 506.091 141.909C505.669 141.487 505.097 141.25 504.5 141.25Z" fill="#655A44"/>
<path d="M29.568 20.76L21.216 43H16.992L8.608 20.76H12.512L19.104 39.256L25.728 20.76H29.568ZM34.4748 23.032C33.8134 23.032 33.2588 22.808 32.8108 22.36C32.3628 21.912 32.1388 21.3573 32.1388 20.696C32.1388 20.0347 32.3628 19.48 32.8108 19.032C33.2588 18.584 33.8134 18.36 34.4748 18.36C35.1148 18.36 35.6588 18.584 36.1068 19.032C36.5548 19.48 36.7788 20.0347 36.7788 20.696C36.7788 21.3573 36.5548 21.912 36.1068 22.36C35.6588 22.808 35.1148 23.032 34.4748 23.032ZM36.2668 25.368V43H32.6188V25.368H36.2668ZM39.8403 34.104C39.8403 32.3333 40.2029 30.7653 40.9283 29.4C41.6749 28.0347 42.6776 26.9787 43.9363 26.232C45.2163 25.464 46.6349 25.08 48.1923 25.08C49.3443 25.08 50.4749 25.336 51.5843 25.848C52.7149 26.3387 53.6109 27 54.2723 27.832V19.32H57.9523V43H54.2723V40.344C53.6749 41.1973 52.8429 41.9013 51.7763 42.456C50.7309 43.0107 49.5256 43.288 48.1603 43.288C46.6243 43.288 45.2163 42.904 43.9363 42.136C42.6776 41.3467 41.6749 40.2587 40.9283 38.872C40.2029 37.464 39.8403 35.8747 39.8403 34.104ZM54.2723 34.168C54.2723 32.952 54.0163 31.896 53.5043 31C53.0136 30.104 52.3629 29.4213 51.5523 28.952C50.7416 28.4827 49.8669 28.248 48.9283 28.248C47.9896 28.248 47.1149 28.4827 46.3043 28.952C45.4936 29.4 44.8323 30.072 44.3203 30.968C43.8296 31.8427 43.5843 32.888 43.5843 34.104C43.5843 35.32 43.8296 36.3867 44.3203 37.304C44.8323 38.2213 45.4936 38.9253 46.3043 39.416C47.1363 39.8853 48.0109 40.12 48.9283 40.12C49.8669 40.12 50.7416 39.8853 51.5523 39.416C52.3629 38.9467 53.0136 38.264 53.5043 37.368C54.0163 36.4507 54.2723 35.384 54.2723 34.168ZM61.5278 34.104C61.5278 32.3333 61.8904 30.7653 62.6158 29.4C63.3624 28.0347 64.3651 26.9787 65.6238 26.232C66.9038 25.464 68.3118 25.08 69.8478 25.08C71.2344 25.08 72.4398 25.3573 73.4638 25.912C74.5091 26.4453 75.3411 27.1173 75.9598 27.928V25.368H79.6398V43H75.9598V40.376C75.3411 41.208 74.4984 41.9013 73.4318 42.456C72.3651 43.0107 71.1491 43.288 69.7838 43.288C68.2691 43.288 66.8824 42.904 65.6238 42.136C64.3651 41.3467 63.3624 40.2587 62.6158 38.872C61.8904 37.464 61.5278 35.8747 61.5278 34.104ZM75.9598 34.168C75.9598 32.952 75.7038 31.896 75.1918 31C74.7011 30.104 74.0504 29.4213 73.2398 28.952C72.4291 28.4827 71.5544 28.248 70.6158 28.248C69.6771 28.248 68.8024 28.4827 67.9918 28.952C67.1811 29.4 66.5198 30.072 66.0078 30.968C65.5171 31.8427 65.2718 32.888 65.2718 34.104C65.2718 35.32 65.5171 36.3867 66.0078 37.304C66.5198 38.2213 67.1811 38.9253 67.9918 39.416C68.8238 39.8853 69.6984 40.12 70.6158 40.12C71.5544 40.12 72.4291 39.8853 73.2398 39.416C74.0504 38.9467 74.7011 38.264 75.1918 37.368C75.7038 36.4507 75.9598 35.384 75.9598 34.168ZM101.615 32.984H95.1513V39.608H91.7593V32.984H85.2953V29.912H91.7593V23.288H95.1513V29.912H101.615V32.984Z" fill="url(#paint0_linear_79_289)"/>
<rect x="517" y="16" width="75" height="32" rx="12" fill="#FFB4AB"/>
<path d="M531.538 30.1172C531.491 29.683 531.296 29.3449 530.951 29.103C530.61 28.861 530.165 28.7401 529.619 28.7401C529.234 28.7401 528.904 28.7981 528.629 28.9141C528.354 29.0301 528.144 29.1875 527.998 29.3864C527.852 29.5852 527.777 29.8123 527.774 30.0675C527.774 30.2796 527.822 30.4635 527.918 30.6193C528.018 30.7751 528.152 30.9077 528.321 31.017C528.49 31.1231 528.677 31.2126 528.883 31.2855C529.088 31.3584 529.295 31.4197 529.504 31.4695L530.459 31.7081C530.843 31.7976 531.213 31.9186 531.567 32.071C531.925 32.2235 532.245 32.4157 532.527 32.6477C532.812 32.8797 533.037 33.1598 533.203 33.4879C533.369 33.8161 533.452 34.2005 533.452 34.6413C533.452 35.2379 533.299 35.7633 532.994 36.2173C532.689 36.6681 532.249 37.0211 531.672 37.2763C531.098 37.5282 530.404 37.6541 529.589 37.6541C528.797 37.6541 528.109 37.5315 527.526 37.2862C526.946 37.041 526.491 36.683 526.163 36.2124C525.839 35.7417 525.663 35.1683 525.636 34.4922H527.451C527.478 34.8468 527.587 35.1418 527.779 35.3771C527.971 35.6125 528.222 35.7881 528.53 35.9041C528.841 36.0201 529.189 36.0781 529.574 36.0781C529.975 36.0781 530.326 36.0185 530.628 35.8991C530.933 35.7765 531.171 35.6075 531.344 35.392C531.516 35.1733 531.604 34.9181 531.607 34.6264C531.604 34.3613 531.526 34.1425 531.374 33.9702C531.221 33.7945 531.007 33.6487 530.732 33.5327C530.46 33.4134 530.142 33.3073 529.778 33.2145L528.619 32.9162C527.781 32.7008 527.118 32.3743 526.631 31.9368C526.147 31.496 525.905 30.911 525.905 30.1818C525.905 29.5819 526.067 29.0566 526.392 28.6058C526.72 28.1551 527.166 27.8054 527.729 27.5568C528.293 27.3049 528.931 27.179 529.643 27.179C530.366 27.179 530.999 27.3049 531.543 27.5568C532.089 27.8054 532.519 28.1518 532.83 28.5959C533.142 29.0367 533.303 29.5438 533.312 30.1172H531.538ZM537.214 37.6541C536.73 37.6541 536.294 37.5679 535.906 37.3956C535.522 37.2199 535.217 36.9614 534.992 36.62C534.77 36.2786 534.659 35.8577 534.659 35.3572C534.659 34.9264 534.738 34.5701 534.897 34.2884C535.056 34.0066 535.273 33.7812 535.548 33.6122C535.824 33.4432 536.133 33.3156 536.478 33.2294C536.826 33.1399 537.186 33.0753 537.557 33.0355C538.004 32.9891 538.367 32.9477 538.646 32.9112C538.924 32.8714 539.126 32.8118 539.252 32.7322C539.382 32.6494 539.446 32.5218 539.446 32.3494V32.3196C539.446 31.9451 539.335 31.6551 539.113 31.4496C538.891 31.2441 538.571 31.1413 538.154 31.1413C537.713 31.1413 537.363 31.2375 537.105 31.4297C536.849 31.6219 536.677 31.849 536.588 32.1108L534.907 31.8722C535.04 31.4081 535.258 31.0204 535.563 30.7088C535.868 30.3939 536.241 30.1586 536.682 30.0028C537.123 29.8438 537.61 29.7642 538.144 29.7642C538.512 29.7642 538.878 29.8073 539.242 29.8935C539.607 29.9796 539.94 30.1222 540.242 30.321C540.543 30.5166 540.785 30.7834 540.968 31.1214C541.153 31.4595 541.246 31.8821 541.246 32.3892V37.5H539.516V36.451H539.456C539.347 36.6631 539.193 36.862 538.994 37.0476C538.798 37.2299 538.551 37.3774 538.253 37.4901C537.958 37.5994 537.612 37.6541 537.214 37.6541ZM537.681 36.3317C538.043 36.3317 538.356 36.2604 538.621 36.1179C538.886 35.9721 539.09 35.7798 539.232 35.5412C539.378 35.3026 539.451 35.0424 539.451 34.7607V33.8608C539.395 33.9072 539.299 33.9503 539.163 33.9901C539.03 34.0298 538.881 34.0646 538.715 34.0945C538.55 34.1243 538.386 34.1508 538.223 34.174C538.061 34.1972 537.92 34.2171 537.801 34.2337C537.532 34.2701 537.292 34.3298 537.08 34.4126C536.868 34.4955 536.7 34.6115 536.578 34.7607C536.455 34.9065 536.394 35.0954 536.394 35.3274C536.394 35.6589 536.515 35.9091 536.757 36.0781C536.999 36.2472 537.307 36.3317 537.681 36.3317ZM543.056 37.5V29.8636H544.855V37.5H543.056ZM543.96 28.7798C543.675 28.7798 543.43 28.6854 543.225 28.4964C543.019 28.3042 542.916 28.0739 542.916 27.8054C542.916 27.5336 543.019 27.3033 543.225 27.1143C543.43 26.9221 543.675 26.826 543.96 26.826C544.249 26.826 544.494 26.9221 544.696 27.1143C544.902 27.3033 545.004 27.5336 545.004 27.8054C545.004 28.0739 544.902 28.3042 544.696 28.4964C544.494 28.6854 544.249 28.7798 543.96 28.7798ZM546.706 37.5V29.8636H548.451V31.1364H548.531C548.67 30.6955 548.908 30.3558 549.246 30.1172C549.588 29.8752 549.977 29.7543 550.415 29.7543C550.514 29.7543 550.625 29.7592 550.748 29.7692C550.874 29.7758 550.978 29.7874 551.061 29.804V31.4595C550.985 31.433 550.864 31.4098 550.698 31.3899C550.536 31.3667 550.378 31.3551 550.226 31.3551C549.898 31.3551 549.603 31.4264 549.341 31.5689C549.082 31.7081 548.879 31.902 548.729 32.1506C548.58 32.3991 548.506 32.6858 548.506 33.0107V37.5H546.706Z" fill="#690005"/>
<path fill-rule="evenodd" clip-rule="evenodd" d="M567.5 23.75C567.102 23.75 566.721 23.908 566.439 24.1893C566.158 24.4706 566 24.8522 566 25.25V38.75C566 39.1478 566.158 39.5294 566.439 39.8107C566.721 40.092 567.102 40.25 567.5 40.25H573.5C573.898 40.25 574.279 40.092 574.561 39.8107C574.842 39.5294 575 39.1478 575 38.75V35C575 34.8011 575.079 34.6103 575.22 34.4697C575.36 34.329 575.551 34.25 575.75 34.25C575.949 34.25 576.14 34.329 576.28 34.4697C576.421 34.6103 576.5 34.8011 576.5 35V38.75C576.5 39.5456 576.184 40.3087 575.621 40.8713C575.059 41.4339 574.296 41.75 573.5 41.75H567.5C566.704 41.75 565.941 41.4339 565.379 40.8713C564.816 40.3087 564.5 39.5456 564.5 38.75V25.25C564.5 24.4544 564.816 23.6913 565.379 23.1287C565.941 22.5661 566.704 22.25 567.5 22.25H573.5C574.296 22.25 575.059 22.5661 575.621 23.1287C576.184 23.6913 576.5 24.4544 576.5 25.25V29C576.5 29.1989 576.421 29.3897 576.28 29.5303C576.14 29.671 575.949 29.75 575.75 29.75C575.551 29.75 575.36 29.671 575.22 29.5303C575.079 29.3897 575 29.1989 575 29V25.25C575 24.8522 574.842 24.4706 574.561 24.1893C574.279 23.908 573.898 23.75 573.5 23.75H567.5ZM578.22 28.47C578.361 28.3295 578.551 28.2507 578.75 28.2507C578.949 28.2507 579.139 28.3295 579.28 28.47L582.28 31.47C582.42 31.6106 582.499 31.8012 582.499 32C582.499 32.1988 582.42 32.3894 582.28 32.53L579.28 35.53C579.211 35.6037 579.129 35.6628 579.037 35.7038C578.945 35.7448 578.845 35.7668 578.745 35.7686C578.644 35.7704 578.544 35.7518 578.45 35.7141C578.357 35.6764 578.272 35.6203 578.201 35.549C578.13 35.4778 578.074 35.393 578.036 35.2996C577.998 35.2062 577.98 35.1062 577.981 35.0055C577.983 34.9048 578.005 34.8055 578.046 34.7135C578.087 34.6215 578.146 34.5387 578.22 34.47L579.94 32.75H569C568.801 32.75 568.61 32.671 568.47 32.5303C568.329 32.3897 568.25 32.1989 568.25 32C568.25 31.8011 568.329 31.6103 568.47 31.4697C568.61 31.329 568.801 31.25 569 31.25H579.94L578.22 29.53C578.08 29.3894 578.001 29.1988 578.001 29C578.001 28.8012 578.08 28.6106 578.22 28.47Z" fill="#690005"/>
<path d="M270.312 32H268.343L271.928 21.8182H274.205L277.794 32H275.825L273.106 23.9062H273.026L270.312 32ZM270.376 28.0078H275.746V29.4893H270.376V28.0078ZM282.585 32H279.135V21.8182H282.655C283.666 21.8182 284.534 22.022 285.26 22.4297C285.989 22.834 286.549 23.4157 286.941 24.1747C287.332 24.9337 287.527 25.8419 287.527 26.8991C287.527 27.9598 287.33 28.8712 286.936 29.6335C286.544 30.3958 285.979 30.9808 285.24 31.3885C284.504 31.7962 283.619 32 282.585 32ZM280.98 30.4041H282.496C283.205 30.4041 283.797 30.2749 284.271 30.0163C284.745 29.7545 285.101 29.3651 285.34 28.848C285.578 28.3277 285.698 27.678 285.698 26.8991C285.698 26.1203 285.578 25.474 285.34 24.9602C285.101 24.4432 284.748 24.0571 284.281 23.8018C283.817 23.5433 283.24 23.4141 282.551 23.4141H280.98V30.4041ZM289.28 21.8182H291.537L294.559 29.196H294.679L297.702 21.8182H299.959V32H298.189V25.005H298.094L295.28 31.9702H293.958L291.144 24.9901H291.05V32H289.28V21.8182ZM303.812 21.8182V32H301.967V21.8182H303.812ZM314.176 21.8182V32H312.536L307.738 25.0646H307.653V32H305.809V21.8182H307.46L312.252 28.7585H312.342V21.8182H314.176Z" fill="black" fill-opacity="0.5"/>
<defs>
<linearGradient id="paint0_linear_79_289" x1="8" y1="8" x2="56.5" y2="56" gradientUnits="userSpaceOnUse">
<stop stop-color="#00363C"/>
<stop offset="1" stop-color="#B1CBCF"/>
</linearGradient>
</defs>
</svg>
