<svg width="660" height="450" viewBox="0 0 660 450" fill="none" xmlns="http://www.w3.org/2000/svg">
<rect width="660" height="450" fill="white"/>
<path d="M274.045 21.3636H275.455V29.0682C275.455 29.8636 275.267 30.5739 274.892 31.1989C274.521 31.8201 273.996 32.3106 273.318 32.6705C272.64 33.0265 271.845 33.2045 270.932 33.2045C270.019 33.2045 269.223 33.0265 268.545 32.6705C267.867 32.3106 267.341 31.8201 266.966 31.1989C266.595 30.5739 266.409 29.8636 266.409 29.0682V21.3636H267.818V28.9545C267.818 29.5227 267.943 30.0284 268.193 30.4716C268.443 30.911 268.799 31.2576 269.261 31.5114C269.727 31.7614 270.284 31.8864 270.932 31.8864C271.58 31.8864 272.136 31.7614 272.602 31.5114C273.068 31.2576 273.424 30.911 273.67 30.4716C273.92 30.0284 274.045 29.5227 274.045 28.9545V21.3636ZM284.268 26.2273L283.064 26.5682C282.988 26.3674 282.876 26.1723 282.729 25.983C282.585 25.7898 282.388 25.6307 282.138 25.5057C281.888 25.3807 281.568 25.3182 281.178 25.3182C280.643 25.3182 280.198 25.4413 279.842 25.6875C279.49 25.9299 279.314 26.2386 279.314 26.6136C279.314 26.947 279.435 27.2102 279.678 27.4034C279.92 27.5966 280.299 27.7576 280.814 27.8864L282.109 28.2045C282.89 28.3939 283.471 28.6837 283.854 29.0739C284.236 29.4602 284.428 29.9583 284.428 30.5682C284.428 31.0682 284.284 31.5152 283.996 31.9091C283.712 32.303 283.314 32.6136 282.803 32.8409C282.291 33.0682 281.696 33.1818 281.018 33.1818C280.128 33.1818 279.392 32.9886 278.808 32.6023C278.225 32.2159 277.856 31.6515 277.7 30.9091L278.973 30.5909C279.094 31.0606 279.323 31.4129 279.661 31.6477C280.001 31.8826 280.446 32 280.996 32C281.621 32 282.117 31.8674 282.484 31.6023C282.856 31.3333 283.041 31.0114 283.041 30.6364C283.041 30.3333 282.935 30.0795 282.723 29.875C282.511 29.6667 282.185 29.5114 281.746 29.4091L280.291 29.0682C279.492 28.8788 278.905 28.5852 278.53 28.1875C278.159 27.786 277.973 27.2841 277.973 26.6818C277.973 26.1894 278.111 25.7538 278.388 25.375C278.668 24.9962 279.049 24.6989 279.53 24.483C280.015 24.267 280.564 24.1591 281.178 24.1591C282.041 24.1591 282.719 24.3485 283.212 24.7273C283.708 25.1061 284.06 25.6061 284.268 26.2273ZM290.105 33.1818C289.264 33.1818 288.539 32.9962 287.929 32.625C287.323 32.25 286.855 31.7273 286.526 31.0568C286.2 30.3826 286.037 29.5985 286.037 28.7045C286.037 27.8106 286.2 27.0227 286.526 26.3409C286.855 25.6553 287.313 25.1212 287.901 24.7386C288.491 24.3523 289.181 24.1591 289.969 24.1591C290.423 24.1591 290.872 24.2348 291.315 24.3864C291.759 24.5379 292.162 24.7841 292.526 25.125C292.889 25.4621 293.179 25.9091 293.395 26.4659C293.611 27.0227 293.719 27.7083 293.719 28.5227V29.0909H286.991V27.9318H292.355C292.355 27.4394 292.257 27 292.06 26.6136C291.866 26.2273 291.59 25.9223 291.23 25.6989C290.874 25.4754 290.454 25.3636 289.969 25.3636C289.435 25.3636 288.973 25.4962 288.582 25.7614C288.196 26.0227 287.899 26.3636 287.69 26.7841C287.482 27.2045 287.378 27.6553 287.378 28.1364V28.9091C287.378 29.5682 287.491 30.1269 287.719 30.5852C287.95 31.0398 288.27 31.3864 288.679 31.625C289.088 31.8598 289.563 31.9773 290.105 31.9773C290.457 31.9773 290.776 31.928 291.06 31.8295C291.348 31.7273 291.596 31.5758 291.804 31.375C292.012 31.1705 292.173 30.9167 292.287 30.6136L293.582 30.9773C293.446 31.4167 293.217 31.803 292.895 32.1364C292.573 32.4659 292.175 32.7235 291.702 32.9091C291.228 33.0909 290.696 33.1818 290.105 33.1818ZM295.759 33V24.2727H297.054V25.5909H297.145C297.304 25.1591 297.592 24.8087 298.009 24.5398C298.425 24.2708 298.895 24.1364 299.418 24.1364C299.516 24.1364 299.639 24.1383 299.787 24.142C299.935 24.1458 300.046 24.1515 300.122 24.1591V25.5227C300.077 25.5114 299.973 25.4943 299.81 25.4716C299.651 25.4451 299.482 25.4318 299.304 25.4318C298.88 25.4318 298.501 25.5208 298.168 25.6989C297.838 25.8731 297.577 26.1155 297.384 26.4261C297.194 26.733 297.099 27.0833 297.099 27.4773V33H295.759ZM303.053 27.75V33H301.712V24.2727H303.007V25.6364H303.121C303.325 25.1932 303.636 24.8371 304.053 24.5682C304.469 24.2955 305.007 24.1591 305.666 24.1591C306.257 24.1591 306.774 24.2803 307.217 24.5227C307.661 24.7614 308.005 25.125 308.251 25.6136C308.498 26.0985 308.621 26.7121 308.621 27.4545V33H307.28V27.5455C307.28 26.8598 307.102 26.3258 306.746 25.9432C306.39 25.5568 305.901 25.3636 305.28 25.3636C304.852 25.3636 304.469 25.4564 304.132 25.642C303.799 25.8277 303.536 26.0985 303.342 26.4545C303.149 26.8106 303.053 27.2424 303.053 27.75ZM313.639 33.2045C313.086 33.2045 312.584 33.1004 312.134 32.892C311.683 32.6799 311.325 32.375 311.06 31.9773C310.795 31.5758 310.662 31.0909 310.662 30.5227C310.662 30.0227 310.76 29.6174 310.957 29.3068C311.154 28.9924 311.418 28.7462 311.747 28.5682C312.077 28.3902 312.44 28.2576 312.838 28.1705C313.24 28.0795 313.643 28.0076 314.048 27.9545C314.579 27.8864 315.009 27.8352 315.338 27.8011C315.671 27.7633 315.914 27.7008 316.065 27.6136C316.221 27.5265 316.298 27.375 316.298 27.1591V27.1136C316.298 26.553 316.145 26.1174 315.838 25.8068C315.535 25.4962 315.075 25.3409 314.457 25.3409C313.817 25.3409 313.315 25.4811 312.952 25.7614C312.588 26.0417 312.332 26.3409 312.185 26.6591L310.912 26.2045C311.139 25.6742 311.442 25.2614 311.821 24.9659C312.204 24.6667 312.62 24.4583 313.071 24.3409C313.526 24.2197 313.973 24.1591 314.412 24.1591C314.692 24.1591 315.014 24.1932 315.378 24.2614C315.745 24.3258 316.099 24.4602 316.44 24.6648C316.785 24.8693 317.071 25.178 317.298 25.5909C317.526 26.0038 317.639 26.5568 317.639 27.25V33H316.298V31.8182H316.23C316.139 32.0076 315.988 32.2102 315.776 32.4261C315.563 32.642 315.281 32.8258 314.929 32.9773C314.577 33.1288 314.147 33.2045 313.639 33.2045ZM313.844 32C314.374 32 314.821 31.8958 315.185 31.6875C315.552 31.4792 315.829 31.2102 316.014 30.8807C316.204 30.5511 316.298 30.2045 316.298 29.8409V28.6136C316.241 28.6818 316.116 28.7443 315.923 28.8011C315.734 28.8542 315.514 28.9015 315.264 28.9432C315.018 28.9811 314.777 29.0152 314.543 29.0455C314.312 29.072 314.124 29.0947 313.98 29.1136C313.632 29.1591 313.306 29.233 313.003 29.3352C312.704 29.4337 312.461 29.5833 312.276 29.7841C312.094 29.9811 312.003 30.25 312.003 30.5909C312.003 31.0568 312.175 31.4091 312.52 31.6477C312.868 31.8826 313.31 32 313.844 32ZM320.087 33V24.2727H321.382V25.6364H321.496C321.678 25.1705 321.971 24.8087 322.376 24.5511C322.782 24.2898 323.268 24.1591 323.837 24.1591C324.412 24.1591 324.892 24.2898 325.274 24.5511C325.661 24.8087 325.962 25.1705 326.178 25.6364H326.268C326.492 25.1856 326.827 24.8277 327.274 24.5625C327.721 24.2936 328.257 24.1591 328.882 24.1591C329.662 24.1591 330.301 24.4034 330.797 24.892C331.293 25.3769 331.541 26.1326 331.541 27.1591V33H330.2V27.1591C330.2 26.5152 330.024 26.0549 329.672 25.7784C329.32 25.5019 328.905 25.3636 328.428 25.3636C327.814 25.3636 327.339 25.5492 327.001 25.9205C326.664 26.2879 326.496 26.7538 326.496 27.3182V33H325.132V27.0227C325.132 26.5265 324.971 26.1269 324.649 25.8239C324.327 25.517 323.912 25.3636 323.405 25.3636C323.056 25.3636 322.731 25.4564 322.428 25.642C322.128 25.8277 321.886 26.0852 321.7 26.4148C321.518 26.7405 321.428 27.1174 321.428 27.5455V33H320.087ZM337.652 33.1818C336.811 33.1818 336.086 32.9962 335.476 32.625C334.87 32.25 334.402 31.7273 334.072 31.0568C333.747 30.3826 333.584 29.5985 333.584 28.7045C333.584 27.8106 333.747 27.0227 334.072 26.3409C334.402 25.6553 334.86 25.1212 335.447 24.7386C336.038 24.3523 336.728 24.1591 337.516 24.1591C337.97 24.1591 338.419 24.2348 338.862 24.3864C339.305 24.5379 339.709 24.7841 340.072 25.125C340.436 25.4621 340.726 25.9091 340.942 26.4659C341.158 27.0227 341.266 27.7083 341.266 28.5227V29.0909H334.538V27.9318H339.902C339.902 27.4394 339.804 27 339.607 26.6136C339.413 26.2273 339.137 25.9223 338.777 25.6989C338.421 25.4754 338 25.3636 337.516 25.3636C336.982 25.3636 336.519 25.4962 336.129 25.7614C335.743 26.0227 335.446 26.3636 335.237 26.7841C335.029 27.2045 334.925 27.6553 334.925 28.1364V28.9091C334.925 29.5682 335.038 30.1269 335.266 30.5852C335.497 31.0398 335.817 31.3864 336.226 31.625C336.635 31.8598 337.11 31.9773 337.652 31.9773C338.004 31.9773 338.322 31.928 338.607 31.8295C338.894 31.7273 339.143 31.5758 339.351 31.375C339.559 31.1705 339.72 30.9167 339.834 30.6136L341.129 30.9773C340.993 31.4167 340.764 31.803 340.442 32.1364C340.12 32.4659 339.722 32.7235 339.249 32.9091C338.775 33.0909 338.243 33.1818 337.652 33.1818Z" fill="#495057"/>
<rect x="265.25" y="45.25" width="362.5" height="34.5" rx="7.75" stroke="#495057" stroke-opacity="0.5" stroke-width="0.5"/>
<path d="M266.409 109V97.3636H270.341C271.25 97.3636 271.996 97.5189 272.58 97.8295C273.163 98.1364 273.595 98.5587 273.875 99.0966C274.155 99.6345 274.295 100.246 274.295 100.932C274.295 101.617 274.155 102.225 273.875 102.756C273.595 103.286 273.165 103.703 272.585 104.006C272.006 104.305 271.265 104.455 270.364 104.455H267.182V103.182H270.318C270.939 103.182 271.439 103.091 271.818 102.909C272.201 102.727 272.477 102.47 272.648 102.136C272.822 101.799 272.909 101.398 272.909 100.932C272.909 100.466 272.822 100.059 272.648 99.7102C272.473 99.3617 272.195 99.0928 271.812 98.9034C271.43 98.7102 270.924 98.6136 270.295 98.6136H267.818V109H266.409ZM271.886 103.773L274.75 109H273.114L270.295 103.773H271.886ZM280.027 109.182C279.186 109.182 278.461 108.996 277.851 108.625C277.245 108.25 276.777 107.727 276.447 107.057C276.122 106.383 275.959 105.598 275.959 104.705C275.959 103.811 276.122 103.023 276.447 102.341C276.777 101.655 277.235 101.121 277.822 100.739C278.413 100.352 279.103 100.159 279.891 100.159C280.345 100.159 280.794 100.235 281.237 100.386C281.68 100.538 282.084 100.784 282.447 101.125C282.811 101.462 283.101 101.909 283.317 102.466C283.533 103.023 283.641 103.708 283.641 104.523V105.091H276.913V103.932H282.277C282.277 103.439 282.179 103 281.982 102.614C281.788 102.227 281.512 101.922 281.152 101.699C280.796 101.475 280.375 101.364 279.891 101.364C279.357 101.364 278.894 101.496 278.504 101.761C278.118 102.023 277.821 102.364 277.612 102.784C277.404 103.205 277.3 103.655 277.3 104.136V104.909C277.3 105.568 277.413 106.127 277.641 106.585C277.872 107.04 278.192 107.386 278.601 107.625C279.01 107.86 279.485 107.977 280.027 107.977C280.379 107.977 280.697 107.928 280.982 107.83C281.269 107.727 281.518 107.576 281.726 107.375C281.934 107.17 282.095 106.917 282.209 106.614L283.504 106.977C283.368 107.417 283.139 107.803 282.817 108.136C282.495 108.466 282.097 108.723 281.624 108.909C281.15 109.091 280.618 109.182 280.027 109.182ZM289.203 112.455C288.555 112.455 287.999 112.371 287.533 112.205C287.067 112.042 286.679 111.826 286.368 111.557C286.061 111.292 285.817 111.008 285.635 110.705L286.703 109.955C286.824 110.114 286.978 110.295 287.163 110.5C287.349 110.708 287.603 110.888 287.925 111.04C288.25 111.195 288.677 111.273 289.203 111.273C289.908 111.273 290.489 111.102 290.947 110.761C291.406 110.42 291.635 109.886 291.635 109.159V107.386H291.521C291.423 107.545 291.283 107.742 291.101 107.977C290.923 108.208 290.665 108.415 290.328 108.597C289.995 108.775 289.544 108.864 288.976 108.864C288.271 108.864 287.639 108.697 287.078 108.364C286.521 108.03 286.08 107.545 285.754 106.909C285.432 106.273 285.271 105.5 285.271 104.591C285.271 103.697 285.429 102.919 285.743 102.256C286.057 101.589 286.495 101.074 287.055 100.71C287.616 100.343 288.264 100.159 288.999 100.159C289.567 100.159 290.018 100.254 290.351 100.443C290.688 100.629 290.946 100.841 291.124 101.08C291.305 101.314 291.446 101.508 291.544 101.659H291.68V100.273H292.976V109.25C292.976 110 292.805 110.61 292.464 111.08C292.127 111.553 291.673 111.9 291.101 112.119C290.533 112.343 289.9 112.455 289.203 112.455ZM289.158 107.659C289.696 107.659 290.15 107.536 290.521 107.29C290.893 107.044 291.175 106.689 291.368 106.227C291.561 105.765 291.658 105.212 291.658 104.568C291.658 103.939 291.563 103.384 291.374 102.903C291.184 102.422 290.904 102.045 290.533 101.773C290.161 101.5 289.703 101.364 289.158 101.364C288.589 101.364 288.116 101.508 287.737 101.795C287.362 102.083 287.08 102.47 286.891 102.955C286.705 103.439 286.612 103.977 286.612 104.568C286.612 105.174 286.707 105.71 286.896 106.176C287.089 106.638 287.374 107.002 287.749 107.267C288.127 107.528 288.597 107.659 289.158 107.659ZM295.43 109V100.273H296.726V101.591H296.817C296.976 101.159 297.264 100.809 297.68 100.54C298.097 100.271 298.567 100.136 299.089 100.136C299.188 100.136 299.311 100.138 299.459 100.142C299.607 100.146 299.718 100.152 299.794 100.159V101.523C299.749 101.511 299.644 101.494 299.482 101.472C299.322 101.445 299.154 101.432 298.976 101.432C298.552 101.432 298.173 101.521 297.839 101.699C297.51 101.873 297.249 102.116 297.055 102.426C296.866 102.733 296.771 103.083 296.771 103.477V109H295.43ZM303.952 109.205C303.399 109.205 302.897 109.1 302.446 108.892C301.995 108.68 301.637 108.375 301.372 107.977C301.107 107.576 300.974 107.091 300.974 106.523C300.974 106.023 301.073 105.617 301.27 105.307C301.467 104.992 301.73 104.746 302.06 104.568C302.389 104.39 302.753 104.258 303.151 104.17C303.552 104.08 303.955 104.008 304.361 103.955C304.891 103.886 305.321 103.835 305.651 103.801C305.984 103.763 306.226 103.701 306.378 103.614C306.533 103.527 306.611 103.375 306.611 103.159V103.114C306.611 102.553 306.457 102.117 306.151 101.807C305.848 101.496 305.387 101.341 304.77 101.341C304.13 101.341 303.628 101.481 303.264 101.761C302.901 102.042 302.645 102.341 302.497 102.659L301.224 102.205C301.452 101.674 301.755 101.261 302.134 100.966C302.516 100.667 302.933 100.458 303.384 100.341C303.838 100.22 304.285 100.159 304.724 100.159C305.005 100.159 305.327 100.193 305.69 100.261C306.058 100.326 306.412 100.46 306.753 100.665C307.098 100.869 307.384 101.178 307.611 101.591C307.838 102.004 307.952 102.557 307.952 103.25V109H306.611V107.818H306.543C306.452 108.008 306.3 108.21 306.088 108.426C305.876 108.642 305.594 108.826 305.241 108.977C304.889 109.129 304.459 109.205 303.952 109.205ZM304.156 108C304.687 108 305.134 107.896 305.497 107.688C305.865 107.479 306.141 107.21 306.327 106.881C306.516 106.551 306.611 106.205 306.611 105.841V104.614C306.554 104.682 306.429 104.744 306.236 104.801C306.046 104.854 305.827 104.902 305.577 104.943C305.33 104.981 305.09 105.015 304.855 105.045C304.624 105.072 304.437 105.095 304.293 105.114C303.944 105.159 303.618 105.233 303.315 105.335C303.016 105.434 302.774 105.583 302.588 105.784C302.406 105.981 302.315 106.25 302.315 106.591C302.315 107.057 302.488 107.409 302.832 107.648C303.181 107.883 303.622 108 304.156 108Z" fill="#495057"/>
<rect x="265.25" y="121.25" width="362.5" height="34.5" rx="7.75" stroke="#495057" stroke-opacity="0.5" stroke-width="0.5"/>
<path d="M272.773 176.273C272.705 175.697 272.428 175.25 271.943 174.932C271.458 174.614 270.864 174.455 270.159 174.455C269.644 174.455 269.193 174.538 268.807 174.705C268.424 174.871 268.125 175.1 267.909 175.392C267.697 175.684 267.591 176.015 267.591 176.386C267.591 176.697 267.665 176.964 267.812 177.188C267.964 177.407 268.157 177.591 268.392 177.739C268.627 177.883 268.873 178.002 269.131 178.097C269.388 178.187 269.625 178.261 269.841 178.318L271.023 178.636C271.326 178.716 271.663 178.826 272.034 178.966C272.409 179.106 272.767 179.297 273.108 179.54C273.453 179.778 273.737 180.085 273.96 180.46C274.184 180.835 274.295 181.295 274.295 181.841C274.295 182.47 274.131 183.038 273.801 183.545C273.475 184.053 272.998 184.456 272.369 184.756C271.744 185.055 270.985 185.205 270.091 185.205C269.258 185.205 268.536 185.07 267.926 184.801C267.32 184.532 266.843 184.157 266.494 183.676C266.15 183.195 265.955 182.636 265.909 182H267.364C267.402 182.439 267.549 182.803 267.807 183.091C268.068 183.375 268.398 183.587 268.795 183.727C269.197 183.864 269.629 183.932 270.091 183.932C270.629 183.932 271.112 183.845 271.54 183.67C271.968 183.492 272.307 183.246 272.557 182.932C272.807 182.614 272.932 182.242 272.932 181.818C272.932 181.432 272.824 181.117 272.608 180.875C272.392 180.633 272.108 180.436 271.756 180.284C271.403 180.133 271.023 180 270.614 179.886L269.182 179.477C268.273 179.216 267.553 178.843 267.023 178.358C266.492 177.873 266.227 177.239 266.227 176.455C266.227 175.803 266.403 175.235 266.756 174.75C267.112 174.261 267.589 173.883 268.188 173.614C268.79 173.341 269.462 173.205 270.205 173.205C270.955 173.205 271.621 173.339 272.205 173.608C272.788 173.873 273.25 174.237 273.591 174.699C273.936 175.161 274.117 175.686 274.136 176.273H272.773ZM280.089 185.182C279.249 185.182 278.523 184.996 277.913 184.625C277.307 184.25 276.839 183.727 276.51 183.057C276.184 182.383 276.021 181.598 276.021 180.705C276.021 179.811 276.184 179.023 276.51 178.341C276.839 177.655 277.298 177.121 277.885 176.739C278.476 176.352 279.165 176.159 279.953 176.159C280.408 176.159 280.857 176.235 281.3 176.386C281.743 176.538 282.146 176.784 282.51 177.125C282.874 177.462 283.163 177.909 283.379 178.466C283.595 179.023 283.703 179.708 283.703 180.523V181.091H276.976V179.932H282.339C282.339 179.439 282.241 179 282.044 178.614C281.851 178.227 281.574 177.922 281.214 177.699C280.858 177.475 280.438 177.364 279.953 177.364C279.419 177.364 278.957 177.496 278.567 177.761C278.18 178.023 277.883 178.364 277.675 178.784C277.466 179.205 277.362 179.655 277.362 180.136V180.909C277.362 181.568 277.476 182.127 277.703 182.585C277.934 183.04 278.254 183.386 278.663 183.625C279.072 183.86 279.548 183.977 280.089 183.977C280.442 183.977 280.76 183.928 281.044 183.83C281.332 183.727 281.58 183.576 281.788 183.375C281.997 183.17 282.158 182.917 282.271 182.614L283.567 182.977C283.43 183.417 283.201 183.803 282.879 184.136C282.557 184.466 282.16 184.723 281.686 184.909C281.213 185.091 280.68 185.182 280.089 185.182ZM287.084 179.75V185H285.743V176.273H287.038V177.636H287.152C287.357 177.193 287.667 176.837 288.084 176.568C288.5 176.295 289.038 176.159 289.697 176.159C290.288 176.159 290.805 176.28 291.249 176.523C291.692 176.761 292.036 177.125 292.283 177.614C292.529 178.098 292.652 178.712 292.652 179.455V185H291.311V179.545C291.311 178.86 291.133 178.326 290.777 177.943C290.421 177.557 289.932 177.364 289.311 177.364C288.883 177.364 288.5 177.456 288.163 177.642C287.83 177.828 287.567 178.098 287.374 178.455C287.18 178.811 287.084 179.242 287.084 179.75ZM296.443 179.75V185H295.102V173.364H296.443V177.636H296.557C296.761 177.186 297.068 176.828 297.477 176.562C297.89 176.294 298.439 176.159 299.125 176.159C299.72 176.159 300.241 176.278 300.688 176.517C301.134 176.752 301.481 177.114 301.727 177.602C301.977 178.087 302.102 178.705 302.102 179.455V185H300.761V179.545C300.761 178.852 300.581 178.316 300.222 177.938C299.866 177.555 299.371 177.364 298.739 177.364C298.299 177.364 297.905 177.456 297.557 177.642C297.212 177.828 296.939 178.098 296.739 178.455C296.542 178.811 296.443 179.242 296.443 179.75ZM307.124 185.205C306.571 185.205 306.069 185.1 305.618 184.892C305.167 184.68 304.809 184.375 304.544 183.977C304.279 183.576 304.146 183.091 304.146 182.523C304.146 182.023 304.245 181.617 304.442 181.307C304.639 180.992 304.902 180.746 305.232 180.568C305.561 180.39 305.925 180.258 306.322 180.17C306.724 180.08 307.127 180.008 307.533 179.955C308.063 179.886 308.493 179.835 308.822 179.801C309.156 179.763 309.398 179.701 309.55 179.614C309.705 179.527 309.783 179.375 309.783 179.159V179.114C309.783 178.553 309.629 178.117 309.322 177.807C309.019 177.496 308.559 177.341 307.942 177.341C307.302 177.341 306.8 177.481 306.436 177.761C306.072 178.042 305.817 178.341 305.669 178.659L304.396 178.205C304.624 177.674 304.927 177.261 305.305 176.966C305.688 176.667 306.105 176.458 306.555 176.341C307.01 176.22 307.457 176.159 307.896 176.159C308.177 176.159 308.499 176.193 308.862 176.261C309.23 176.326 309.584 176.46 309.925 176.665C310.269 176.869 310.555 177.178 310.783 177.591C311.01 178.004 311.124 178.557 311.124 179.25V185H309.783V183.818H309.714C309.624 184.008 309.472 184.21 309.26 184.426C309.048 184.642 308.766 184.826 308.413 184.977C308.061 185.129 307.631 185.205 307.124 185.205ZM307.328 184C307.858 184 308.305 183.896 308.669 183.688C309.036 183.479 309.313 183.21 309.499 182.881C309.688 182.551 309.783 182.205 309.783 181.841V180.614C309.726 180.682 309.601 180.744 309.408 180.801C309.218 180.854 308.999 180.902 308.749 180.943C308.502 180.981 308.262 181.015 308.027 181.045C307.796 181.072 307.608 181.095 307.464 181.114C307.116 181.159 306.79 181.233 306.487 181.335C306.188 181.434 305.946 181.583 305.76 181.784C305.578 181.981 305.487 182.25 305.487 182.591C305.487 183.057 305.66 183.409 306.004 183.648C306.353 183.883 306.794 184 307.328 184ZM318.73 185H317.253L321.526 173.364H322.98L327.253 185H325.776L322.298 175.205H322.207L318.73 185ZM319.276 180.455H325.23V181.705H319.276V180.455ZM332.179 185.182C331.452 185.182 330.81 184.998 330.253 184.631C329.696 184.259 329.26 183.737 328.946 183.062C328.632 182.384 328.474 181.583 328.474 180.659C328.474 179.742 328.632 178.947 328.946 178.273C329.26 177.598 329.698 177.078 330.259 176.71C330.819 176.343 331.467 176.159 332.202 176.159C332.77 176.159 333.219 176.254 333.548 176.443C333.882 176.629 334.135 176.841 334.31 177.08C334.488 177.314 334.626 177.508 334.724 177.659H334.838V173.364H336.179V185H334.884V183.659H334.724C334.626 183.818 334.486 184.019 334.304 184.261C334.122 184.5 333.863 184.714 333.526 184.903C333.188 185.089 332.74 185.182 332.179 185.182ZM332.361 183.977C332.899 183.977 333.353 183.837 333.724 183.557C334.096 183.273 334.378 182.881 334.571 182.381C334.764 181.877 334.861 181.295 334.861 180.636C334.861 179.985 334.766 179.415 334.577 178.926C334.387 178.434 334.107 178.051 333.736 177.778C333.365 177.502 332.906 177.364 332.361 177.364C331.793 177.364 331.319 177.509 330.94 177.801C330.565 178.089 330.283 178.481 330.094 178.977C329.908 179.47 329.815 180.023 329.815 180.636C329.815 181.258 329.91 181.822 330.099 182.33C330.293 182.833 330.577 183.235 330.952 183.534C331.33 183.83 331.8 183.977 332.361 183.977ZM338.821 185V176.273H340.116V177.636H340.23C340.412 177.17 340.705 176.809 341.111 176.551C341.516 176.29 342.003 176.159 342.571 176.159C343.147 176.159 343.626 176.29 344.009 176.551C344.395 176.809 344.696 177.17 344.912 177.636H345.003C345.226 177.186 345.562 176.828 346.009 176.562C346.455 176.294 346.991 176.159 347.616 176.159C348.397 176.159 349.035 176.403 349.531 176.892C350.027 177.377 350.276 178.133 350.276 179.159V185H348.935V179.159C348.935 178.515 348.759 178.055 348.406 177.778C348.054 177.502 347.639 177.364 347.162 177.364C346.548 177.364 346.073 177.549 345.736 177.92C345.399 178.288 345.23 178.754 345.23 179.318V185H343.866V179.023C343.866 178.527 343.705 178.127 343.384 177.824C343.062 177.517 342.647 177.364 342.139 177.364C341.791 177.364 341.465 177.456 341.162 177.642C340.863 177.828 340.62 178.085 340.435 178.415C340.253 178.741 340.162 179.117 340.162 179.545V185H338.821ZM352.727 185V176.273H354.068V185H352.727ZM353.409 174.818C353.148 174.818 352.922 174.729 352.733 174.551C352.547 174.373 352.455 174.159 352.455 173.909C352.455 173.659 352.547 173.445 352.733 173.267C352.922 173.089 353.148 173 353.409 173C353.67 173 353.894 173.089 354.08 173.267C354.269 173.445 354.364 173.659 354.364 173.909C354.364 174.159 354.269 174.373 354.08 174.551C353.894 174.729 353.67 174.818 353.409 174.818ZM357.865 179.75V185H356.524V176.273H357.82V177.636H357.933C358.138 177.193 358.448 176.837 358.865 176.568C359.282 176.295 359.82 176.159 360.479 176.159C361.07 176.159 361.587 176.28 362.03 176.523C362.473 176.761 362.818 177.125 363.064 177.614C363.31 178.098 363.433 178.712 363.433 179.455V185H362.092V179.545C362.092 178.86 361.914 178.326 361.558 177.943C361.202 177.557 360.714 177.364 360.092 177.364C359.664 177.364 359.282 177.456 358.945 177.642C358.611 177.828 358.348 178.098 358.155 178.455C357.962 178.811 357.865 179.242 357.865 179.75Z" fill="#495057"/>
<rect x="265.25" y="197.25" width="362.5" height="34.5" rx="7.75" stroke="#495057" stroke-opacity="0.5" stroke-width="0.5"/>
<path d="M272.773 252.273C272.705 251.697 272.428 251.25 271.943 250.932C271.458 250.614 270.864 250.455 270.159 250.455C269.644 250.455 269.193 250.538 268.807 250.705C268.424 250.871 268.125 251.1 267.909 251.392C267.697 251.684 267.591 252.015 267.591 252.386C267.591 252.697 267.665 252.964 267.812 253.188C267.964 253.407 268.157 253.591 268.392 253.739C268.627 253.883 268.873 254.002 269.131 254.097C269.388 254.187 269.625 254.261 269.841 254.318L271.023 254.636C271.326 254.716 271.663 254.826 272.034 254.966C272.409 255.106 272.767 255.297 273.108 255.54C273.453 255.778 273.737 256.085 273.96 256.46C274.184 256.835 274.295 257.295 274.295 257.841C274.295 258.47 274.131 259.038 273.801 259.545C273.475 260.053 272.998 260.456 272.369 260.756C271.744 261.055 270.985 261.205 270.091 261.205C269.258 261.205 268.536 261.07 267.926 260.801C267.32 260.532 266.843 260.157 266.494 259.676C266.15 259.195 265.955 258.636 265.909 258H267.364C267.402 258.439 267.549 258.803 267.807 259.091C268.068 259.375 268.398 259.587 268.795 259.727C269.197 259.864 269.629 259.932 270.091 259.932C270.629 259.932 271.112 259.845 271.54 259.67C271.968 259.492 272.307 259.246 272.557 258.932C272.807 258.614 272.932 258.242 272.932 257.818C272.932 257.432 272.824 257.117 272.608 256.875C272.392 256.633 272.108 256.436 271.756 256.284C271.403 256.133 271.023 256 270.614 255.886L269.182 255.477C268.273 255.216 267.553 254.843 267.023 254.358C266.492 253.873 266.227 253.239 266.227 252.455C266.227 251.803 266.403 251.235 266.756 250.75C267.112 250.261 267.589 249.883 268.188 249.614C268.79 249.341 269.462 249.205 270.205 249.205C270.955 249.205 271.621 249.339 272.205 249.608C272.788 249.873 273.25 250.237 273.591 250.699C273.936 251.161 274.117 251.686 274.136 252.273H272.773ZM280.089 261.182C279.249 261.182 278.523 260.996 277.913 260.625C277.307 260.25 276.839 259.727 276.51 259.057C276.184 258.383 276.021 257.598 276.021 256.705C276.021 255.811 276.184 255.023 276.51 254.341C276.839 253.655 277.298 253.121 277.885 252.739C278.476 252.352 279.165 252.159 279.953 252.159C280.408 252.159 280.857 252.235 281.3 252.386C281.743 252.538 282.146 252.784 282.51 253.125C282.874 253.462 283.163 253.909 283.379 254.466C283.595 255.023 283.703 255.708 283.703 256.523V257.091H276.976V255.932H282.339C282.339 255.439 282.241 255 282.044 254.614C281.851 254.227 281.574 253.922 281.214 253.699C280.858 253.475 280.438 253.364 279.953 253.364C279.419 253.364 278.957 253.496 278.567 253.761C278.18 254.023 277.883 254.364 277.675 254.784C277.466 255.205 277.362 255.655 277.362 256.136V256.909C277.362 257.568 277.476 258.127 277.703 258.585C277.934 259.04 278.254 259.386 278.663 259.625C279.072 259.86 279.548 259.977 280.089 259.977C280.442 259.977 280.76 259.928 281.044 259.83C281.332 259.727 281.58 259.576 281.788 259.375C281.997 259.17 282.158 258.917 282.271 258.614L283.567 258.977C283.43 259.417 283.201 259.803 282.879 260.136C282.557 260.466 282.16 260.723 281.686 260.909C281.213 261.091 280.68 261.182 280.089 261.182ZM287.084 255.75V261H285.743V252.273H287.038V253.636H287.152C287.357 253.193 287.667 252.837 288.084 252.568C288.5 252.295 289.038 252.159 289.697 252.159C290.288 252.159 290.805 252.28 291.249 252.523C291.692 252.761 292.036 253.125 292.283 253.614C292.529 254.098 292.652 254.712 292.652 255.455V261H291.311V255.545C291.311 254.86 291.133 254.326 290.777 253.943C290.421 253.557 289.932 253.364 289.311 253.364C288.883 253.364 288.5 253.456 288.163 253.642C287.83 253.828 287.567 254.098 287.374 254.455C287.18 254.811 287.084 255.242 287.084 255.75ZM296.443 255.75V261H295.102V249.364H296.443V253.636H296.557C296.761 253.186 297.068 252.828 297.477 252.562C297.89 252.294 298.439 252.159 299.125 252.159C299.72 252.159 300.241 252.278 300.688 252.517C301.134 252.752 301.481 253.114 301.727 253.602C301.977 254.087 302.102 254.705 302.102 255.455V261H300.761V255.545C300.761 254.852 300.581 254.316 300.222 253.938C299.866 253.555 299.371 253.364 298.739 253.364C298.299 253.364 297.905 253.456 297.557 253.642C297.212 253.828 296.939 254.098 296.739 254.455C296.542 254.811 296.443 255.242 296.443 255.75ZM307.124 261.205C306.571 261.205 306.069 261.1 305.618 260.892C305.167 260.68 304.809 260.375 304.544 259.977C304.279 259.576 304.146 259.091 304.146 258.523C304.146 258.023 304.245 257.617 304.442 257.307C304.639 256.992 304.902 256.746 305.232 256.568C305.561 256.39 305.925 256.258 306.322 256.17C306.724 256.08 307.127 256.008 307.533 255.955C308.063 255.886 308.493 255.835 308.822 255.801C309.156 255.763 309.398 255.701 309.55 255.614C309.705 255.527 309.783 255.375 309.783 255.159V255.114C309.783 254.553 309.629 254.117 309.322 253.807C309.019 253.496 308.559 253.341 307.942 253.341C307.302 253.341 306.8 253.481 306.436 253.761C306.072 254.042 305.817 254.341 305.669 254.659L304.396 254.205C304.624 253.674 304.927 253.261 305.305 252.966C305.688 252.667 306.105 252.458 306.555 252.341C307.01 252.22 307.457 252.159 307.896 252.159C308.177 252.159 308.499 252.193 308.862 252.261C309.23 252.326 309.584 252.46 309.925 252.665C310.269 252.869 310.555 253.178 310.783 253.591C311.01 254.004 311.124 254.557 311.124 255.25V261H309.783V259.818H309.714C309.624 260.008 309.472 260.21 309.26 260.426C309.048 260.642 308.766 260.826 308.413 260.977C308.061 261.129 307.631 261.205 307.124 261.205ZM307.328 260C307.858 260 308.305 259.896 308.669 259.688C309.036 259.479 309.313 259.21 309.499 258.881C309.688 258.551 309.783 258.205 309.783 257.841V256.614C309.726 256.682 309.601 256.744 309.408 256.801C309.218 256.854 308.999 256.902 308.749 256.943C308.502 256.981 308.262 257.015 308.027 257.045C307.796 257.072 307.608 257.095 307.464 257.114C307.116 257.159 306.79 257.233 306.487 257.335C306.188 257.434 305.946 257.583 305.76 257.784C305.578 257.981 305.487 258.25 305.487 258.591C305.487 259.057 305.66 259.409 306.004 259.648C306.353 259.883 306.794 260 307.328 260Z" fill="#495057"/>
<rect x="265.25" y="273.25" width="362.5" height="34.5" rx="7.75" stroke="#495057" stroke-opacity="0.5" stroke-width="0.5"/>
<path d="M272.773 328.273C272.705 327.697 272.428 327.25 271.943 326.932C271.458 326.614 270.864 326.455 270.159 326.455C269.644 326.455 269.193 326.538 268.807 326.705C268.424 326.871 268.125 327.1 267.909 327.392C267.697 327.684 267.591 328.015 267.591 328.386C267.591 328.697 267.665 328.964 267.812 329.188C267.964 329.407 268.157 329.591 268.392 329.739C268.627 329.883 268.873 330.002 269.131 330.097C269.388 330.187 269.625 330.261 269.841 330.318L271.023 330.636C271.326 330.716 271.663 330.826 272.034 330.966C272.409 331.106 272.767 331.297 273.108 331.54C273.453 331.778 273.737 332.085 273.96 332.46C274.184 332.835 274.295 333.295 274.295 333.841C274.295 334.47 274.131 335.038 273.801 335.545C273.475 336.053 272.998 336.456 272.369 336.756C271.744 337.055 270.985 337.205 270.091 337.205C269.258 337.205 268.536 337.07 267.926 336.801C267.32 336.532 266.843 336.157 266.494 335.676C266.15 335.195 265.955 334.636 265.909 334H267.364C267.402 334.439 267.549 334.803 267.807 335.091C268.068 335.375 268.398 335.587 268.795 335.727C269.197 335.864 269.629 335.932 270.091 335.932C270.629 335.932 271.112 335.845 271.54 335.67C271.968 335.492 272.307 335.246 272.557 334.932C272.807 334.614 272.932 334.242 272.932 333.818C272.932 333.432 272.824 333.117 272.608 332.875C272.392 332.633 272.108 332.436 271.756 332.284C271.403 332.133 271.023 332 270.614 331.886L269.182 331.477C268.273 331.216 267.553 330.843 267.023 330.358C266.492 329.873 266.227 329.239 266.227 328.455C266.227 327.803 266.403 327.235 266.756 326.75C267.112 326.261 267.589 325.883 268.188 325.614C268.79 325.341 269.462 325.205 270.205 325.205C270.955 325.205 271.621 325.339 272.205 325.608C272.788 325.873 273.25 326.237 273.591 326.699C273.936 327.161 274.117 327.686 274.136 328.273H272.773ZM280.089 337.182C279.249 337.182 278.523 336.996 277.913 336.625C277.307 336.25 276.839 335.727 276.51 335.057C276.184 334.383 276.021 333.598 276.021 332.705C276.021 331.811 276.184 331.023 276.51 330.341C276.839 329.655 277.298 329.121 277.885 328.739C278.476 328.352 279.165 328.159 279.953 328.159C280.408 328.159 280.857 328.235 281.3 328.386C281.743 328.538 282.146 328.784 282.51 329.125C282.874 329.462 283.163 329.909 283.379 330.466C283.595 331.023 283.703 331.708 283.703 332.523V333.091H276.976V331.932H282.339C282.339 331.439 282.241 331 282.044 330.614C281.851 330.227 281.574 329.922 281.214 329.699C280.858 329.475 280.438 329.364 279.953 329.364C279.419 329.364 278.957 329.496 278.567 329.761C278.18 330.023 277.883 330.364 277.675 330.784C277.466 331.205 277.362 331.655 277.362 332.136V332.909C277.362 333.568 277.476 334.127 277.703 334.585C277.934 335.04 278.254 335.386 278.663 335.625C279.072 335.86 279.548 335.977 280.089 335.977C280.442 335.977 280.76 335.928 281.044 335.83C281.332 335.727 281.58 335.576 281.788 335.375C281.997 335.17 282.158 334.917 282.271 334.614L283.567 334.977C283.43 335.417 283.201 335.803 282.879 336.136C282.557 336.466 282.16 336.723 281.686 336.909C281.213 337.091 280.68 337.182 280.089 337.182ZM287.084 331.75V337H285.743V328.273H287.038V329.636H287.152C287.357 329.193 287.667 328.837 288.084 328.568C288.5 328.295 289.038 328.159 289.697 328.159C290.288 328.159 290.805 328.28 291.249 328.523C291.692 328.761 292.036 329.125 292.283 329.614C292.529 330.098 292.652 330.712 292.652 331.455V337H291.311V331.545C291.311 330.86 291.133 330.326 290.777 329.943C290.421 329.557 289.932 329.364 289.311 329.364C288.883 329.364 288.5 329.456 288.163 329.642C287.83 329.828 287.567 330.098 287.374 330.455C287.18 330.811 287.084 331.242 287.084 331.75ZM296.443 331.75V337H295.102V325.364H296.443V329.636H296.557C296.761 329.186 297.068 328.828 297.477 328.562C297.89 328.294 298.439 328.159 299.125 328.159C299.72 328.159 300.241 328.278 300.688 328.517C301.134 328.752 301.481 329.114 301.727 329.602C301.977 330.087 302.102 330.705 302.102 331.455V337H300.761V331.545C300.761 330.852 300.581 330.316 300.222 329.938C299.866 329.555 299.371 329.364 298.739 329.364C298.299 329.364 297.905 329.456 297.557 329.642C297.212 329.828 296.939 330.098 296.739 330.455C296.542 330.811 296.443 331.242 296.443 331.75ZM307.124 337.205C306.571 337.205 306.069 337.1 305.618 336.892C305.167 336.68 304.809 336.375 304.544 335.977C304.279 335.576 304.146 335.091 304.146 334.523C304.146 334.023 304.245 333.617 304.442 333.307C304.639 332.992 304.902 332.746 305.232 332.568C305.561 332.39 305.925 332.258 306.322 332.17C306.724 332.08 307.127 332.008 307.533 331.955C308.063 331.886 308.493 331.835 308.822 331.801C309.156 331.763 309.398 331.701 309.55 331.614C309.705 331.527 309.783 331.375 309.783 331.159V331.114C309.783 330.553 309.629 330.117 309.322 329.807C309.019 329.496 308.559 329.341 307.942 329.341C307.302 329.341 306.8 329.481 306.436 329.761C306.072 330.042 305.817 330.341 305.669 330.659L304.396 330.205C304.624 329.674 304.927 329.261 305.305 328.966C305.688 328.667 306.105 328.458 306.555 328.341C307.01 328.22 307.457 328.159 307.896 328.159C308.177 328.159 308.499 328.193 308.862 328.261C309.23 328.326 309.584 328.46 309.925 328.665C310.269 328.869 310.555 329.178 310.783 329.591C311.01 330.004 311.124 330.557 311.124 331.25V337H309.783V335.818H309.714C309.624 336.008 309.472 336.21 309.26 336.426C309.048 336.642 308.766 336.826 308.413 336.977C308.061 337.129 307.631 337.205 307.124 337.205ZM307.328 336C307.858 336 308.305 335.896 308.669 335.688C309.036 335.479 309.313 335.21 309.499 334.881C309.688 334.551 309.783 334.205 309.783 333.841V332.614C309.726 332.682 309.601 332.744 309.408 332.801C309.218 332.854 308.999 332.902 308.749 332.943C308.502 332.981 308.262 333.015 308.027 333.045C307.796 333.072 307.608 333.095 307.464 333.114C307.116 333.159 306.79 333.233 306.487 333.335C306.188 333.434 305.946 333.583 305.76 333.784C305.578 333.981 305.487 334.25 305.487 334.591C305.487 335.057 305.66 335.409 306.004 335.648C306.353 335.883 306.794 336 307.328 336Z" fill="#495057"/>
<rect x="265.25" y="349.25" width="362.5" height="34.5" rx="7.75" stroke="#495057" stroke-opacity="0.5" stroke-width="0.5"/>
<rect x="377" y="398" width="119" height="33" rx="12" fill="#00363C"/>
<path fill-rule="evenodd" clip-rule="evenodd" d="M392.354 409.146C392.158 408.951 391.842 408.951 391.646 409.146L386.646 414.146C386.553 414.24 386.5 414.367 386.5 414.5C386.5 414.633 386.553 414.76 386.646 414.854L391.646 419.854C391.842 420.049 392.158 420.049 392.354 419.854C392.549 419.658 392.549 419.342 392.354 419.146L388.207 415H399C399.276 415 399.5 414.776 399.5 414.5C399.5 414.224 399.276 414 399 414H388.207L392.354 409.854C392.549 409.658 392.549 409.342 392.354 409.146Z" fill="#81D3DE"/>
<path d="M410.004 420V409.818H416.527V411.364H411.849V414.129H416.08V415.675H411.849V420H410.004ZM420.257 420.154C419.773 420.154 419.337 420.068 418.949 419.896C418.565 419.72 418.26 419.461 418.035 419.12C417.813 418.779 417.702 418.358 417.702 417.857C417.702 417.426 417.781 417.07 417.94 416.788C418.099 416.507 418.316 416.281 418.591 416.112C418.867 415.943 419.176 415.816 419.521 415.729C419.869 415.64 420.229 415.575 420.6 415.536C421.047 415.489 421.41 415.448 421.689 415.411C421.967 415.371 422.169 415.312 422.295 415.232C422.425 415.149 422.489 415.022 422.489 414.849V414.82C422.489 414.445 422.378 414.155 422.156 413.95C421.934 413.744 421.614 413.641 421.197 413.641C420.756 413.641 420.406 413.737 420.148 413.93C419.892 414.122 419.72 414.349 419.631 414.611L417.95 414.372C418.083 413.908 418.301 413.52 418.606 413.209C418.911 412.894 419.284 412.659 419.725 412.503C420.166 412.344 420.653 412.264 421.187 412.264C421.555 412.264 421.921 412.307 422.285 412.393C422.65 412.48 422.983 412.622 423.285 412.821C423.586 413.017 423.828 413.283 424.01 413.621C424.196 413.96 424.289 414.382 424.289 414.889V420H422.559V418.951H422.499C422.39 419.163 422.236 419.362 422.037 419.548C421.841 419.73 421.594 419.877 421.296 419.99C421.001 420.099 420.655 420.154 420.257 420.154ZM420.724 418.832C421.086 418.832 421.399 418.76 421.664 418.618C421.929 418.472 422.133 418.28 422.275 418.041C422.421 417.803 422.494 417.542 422.494 417.261V416.361C422.438 416.407 422.342 416.45 422.206 416.49C422.073 416.53 421.924 416.565 421.758 416.594C421.593 416.624 421.429 416.651 421.266 416.674C421.104 416.697 420.963 416.717 420.844 416.734C420.575 416.77 420.335 416.83 420.123 416.913C419.911 416.996 419.743 417.112 419.621 417.261C419.498 417.406 419.437 417.595 419.437 417.827C419.437 418.159 419.558 418.409 419.8 418.578C420.041 418.747 420.35 418.832 420.724 418.832ZM425.999 420V418.857L429.937 413.92V413.855H426.128V412.364H432.139V413.592L428.39 418.444V418.509H432.268V420H425.999ZM437.122 420.149C436.356 420.149 435.695 419.99 435.138 419.672C434.585 419.35 434.159 418.896 433.86 418.31C433.562 417.72 433.413 417.025 433.413 416.227C433.413 415.441 433.562 414.752 433.86 414.158C434.162 413.562 434.583 413.098 435.123 412.766C435.663 412.432 436.298 412.264 437.027 412.264C437.498 412.264 437.942 412.34 438.36 412.493C438.781 412.642 439.152 412.874 439.473 413.189C439.798 413.504 440.053 413.905 440.239 414.392C440.425 414.876 440.517 415.453 440.517 416.122V416.674H434.258V415.461H438.792C438.789 415.116 438.714 414.81 438.569 414.541C438.423 414.269 438.219 414.056 437.957 413.9C437.699 413.744 437.397 413.666 437.052 413.666C436.684 413.666 436.361 413.756 436.083 413.935C435.804 414.11 435.587 414.342 435.431 414.631C435.279 414.916 435.201 415.229 435.198 415.57V416.629C435.198 417.073 435.279 417.455 435.441 417.773C435.604 418.088 435.831 418.33 436.123 418.499C436.414 418.664 436.756 418.747 437.147 418.747C437.408 418.747 437.645 418.711 437.858 418.638C438.07 418.562 438.254 418.451 438.409 418.305C438.565 418.159 438.683 417.978 438.762 417.763L440.443 417.952C440.337 418.396 440.135 418.784 439.836 419.115C439.541 419.443 439.163 419.698 438.703 419.881C438.242 420.06 437.715 420.149 437.122 420.149ZM442.04 420V412.364H443.785V413.636H443.865C444.004 413.196 444.242 412.856 444.58 412.617C444.922 412.375 445.311 412.254 445.749 412.254C445.848 412.254 445.959 412.259 446.082 412.269C446.208 412.276 446.312 412.287 446.395 412.304V413.96C446.319 413.933 446.198 413.91 446.032 413.89C445.87 413.867 445.712 413.855 445.56 413.855C445.232 413.855 444.937 413.926 444.675 414.069C444.416 414.208 444.213 414.402 444.063 414.651C443.914 414.899 443.84 415.186 443.84 415.511V420H442.04ZM451.143 420V409.818H452.987V418.454H457.472V420H451.143ZM462.324 420.149C461.578 420.149 460.932 419.985 460.385 419.657C459.838 419.329 459.414 418.87 459.112 418.28C458.814 417.69 458.665 417 458.665 416.212C458.665 415.423 458.814 414.732 459.112 414.138C459.414 413.545 459.838 413.085 460.385 412.756C460.932 412.428 461.578 412.264 462.324 412.264C463.07 412.264 463.716 412.428 464.263 412.756C464.81 413.085 465.232 413.545 465.531 414.138C465.832 414.732 465.983 415.423 465.983 416.212C465.983 417 465.832 417.69 465.531 418.28C465.232 418.87 464.81 419.329 464.263 419.657C463.716 419.985 463.07 420.149 462.324 420.149ZM462.334 418.707C462.738 418.707 463.076 418.596 463.348 418.374C463.62 418.149 463.822 417.847 463.955 417.469C464.091 417.092 464.159 416.671 464.159 416.207C464.159 415.739 464.091 415.317 463.955 414.939C463.822 414.558 463.62 414.254 463.348 414.029C463.076 413.804 462.738 413.691 462.334 413.691C461.92 413.691 461.575 413.804 461.3 414.029C461.028 414.254 460.824 414.558 460.688 414.939C460.556 415.317 460.49 415.739 460.49 416.207C460.49 416.671 460.556 417.092 460.688 417.469C460.824 417.847 461.028 418.149 461.3 418.374C461.575 418.596 461.92 418.707 462.334 418.707ZM470.832 423.023C470.185 423.023 469.63 422.935 469.166 422.759C468.702 422.587 468.329 422.355 468.048 422.063C467.766 421.772 467.57 421.448 467.461 421.094L469.082 420.701C469.155 420.85 469.261 420.998 469.4 421.143C469.539 421.293 469.726 421.415 469.962 421.511C470.2 421.611 470.5 421.661 470.862 421.661C471.372 421.661 471.795 421.536 472.129 421.288C472.464 421.042 472.631 420.638 472.631 420.075V418.628H472.542C472.449 418.813 472.313 419.004 472.134 419.2C471.959 419.395 471.725 419.559 471.433 419.692C471.145 419.824 470.782 419.891 470.344 419.891C469.758 419.891 469.226 419.753 468.749 419.478C468.275 419.2 467.897 418.785 467.615 418.235C467.337 417.682 467.197 416.989 467.197 416.157C467.197 415.318 467.337 414.611 467.615 414.034C467.897 413.454 468.276 413.015 468.754 412.717C469.231 412.415 469.763 412.264 470.349 412.264C470.797 412.264 471.165 412.34 471.453 412.493C471.745 412.642 471.977 412.823 472.149 413.035C472.321 413.244 472.452 413.441 472.542 413.626H472.641V412.364H474.416V420.124C474.416 420.777 474.26 421.317 473.949 421.745C473.637 422.173 473.211 422.492 472.671 422.705C472.131 422.917 471.518 423.023 470.832 423.023ZM470.847 418.479C471.228 418.479 471.553 418.386 471.821 418.2C472.089 418.015 472.293 417.748 472.433 417.4C472.572 417.052 472.641 416.634 472.641 416.147C472.641 415.666 472.572 415.246 472.433 414.884C472.297 414.523 472.094 414.243 471.826 414.044C471.561 413.842 471.234 413.741 470.847 413.741C470.446 413.741 470.111 413.845 469.842 414.054C469.574 414.263 469.372 414.549 469.236 414.914C469.1 415.275 469.032 415.686 469.032 416.147C469.032 416.614 469.1 417.024 469.236 417.375C469.375 417.723 469.579 417.995 469.847 418.19C470.119 418.383 470.452 418.479 470.847 418.479ZM476.261 420V412.364H478.06V420H476.261ZM477.165 411.28C476.88 411.28 476.635 411.185 476.43 410.996C476.224 410.804 476.121 410.574 476.121 410.305C476.121 410.034 476.224 409.803 476.43 409.614C476.635 409.422 476.88 409.326 477.165 409.326C477.454 409.326 477.699 409.422 477.901 409.614C478.107 409.803 478.21 410.034 478.21 410.305C478.21 410.574 478.107 410.804 477.901 410.996C477.699 411.185 477.454 411.28 477.165 411.28ZM481.711 415.526V420H479.911V412.364H481.631V413.661H481.721C481.896 413.234 482.176 412.894 482.561 412.642C482.949 412.39 483.428 412.264 483.998 412.264C484.525 412.264 484.984 412.377 485.375 412.602C485.769 412.828 486.074 413.154 486.29 413.582C486.508 414.009 486.616 414.528 486.613 415.138V420H484.813V415.416C484.813 414.906 484.68 414.506 484.415 414.218C484.153 413.93 483.791 413.786 483.327 413.786C483.012 413.786 482.732 413.855 482.486 413.994C482.244 414.13 482.054 414.327 481.915 414.586C481.779 414.844 481.711 415.158 481.711 415.526Z" fill="#81D3DE"/>
<rect x="504" y="398" width="124" height="33" rx="12" fill="#B1CBCF"/>
<path d="M513.004 420V409.818H516.822C517.605 409.818 518.261 409.954 518.791 410.226C519.325 410.498 519.728 410.879 519.999 411.369C520.274 411.857 520.412 412.425 520.412 413.075C520.412 413.728 520.273 414.294 519.994 414.775C519.719 415.252 519.313 415.622 518.776 415.884C518.239 416.142 517.58 416.271 516.798 416.271H514.078V414.74H516.549C517.006 414.74 517.381 414.677 517.673 414.551C517.964 414.422 518.18 414.235 518.319 413.989C518.461 413.741 518.533 413.436 518.533 413.075C518.533 412.713 518.461 412.405 518.319 412.15C518.176 411.891 517.959 411.696 517.668 411.563C517.376 411.427 517 411.359 516.539 411.359H514.849V420H513.004ZM518.264 415.386L520.785 420H518.727L516.251 415.386H518.264ZM525.301 420.149C524.536 420.149 523.875 419.99 523.318 419.672C522.764 419.35 522.338 418.896 522.04 418.31C521.742 417.72 521.593 417.025 521.593 416.227C521.593 415.441 521.742 414.752 522.04 414.158C522.342 413.562 522.763 413.098 523.303 412.766C523.843 412.432 524.478 412.264 525.207 412.264C525.678 412.264 526.122 412.34 526.539 412.493C526.96 412.642 527.332 412.874 527.653 413.189C527.978 413.504 528.233 413.905 528.419 414.392C528.604 414.876 528.697 415.453 528.697 416.122V416.674H522.438V415.461H526.972C526.969 415.116 526.894 414.81 526.748 414.541C526.602 414.269 526.399 414.056 526.137 413.9C525.878 413.744 525.577 413.666 525.232 413.666C524.864 413.666 524.541 413.756 524.262 413.935C523.984 414.11 523.767 414.342 523.611 414.631C523.459 414.916 523.381 415.229 523.377 415.57V416.629C523.377 417.073 523.459 417.455 523.621 417.773C523.783 418.088 524.011 418.33 524.302 418.499C524.594 418.664 524.935 418.747 525.326 418.747C525.588 418.747 525.825 418.711 526.037 418.638C526.249 418.562 526.433 418.451 526.589 418.305C526.745 418.159 526.863 417.978 526.942 417.763L528.623 417.952C528.516 418.396 528.314 418.784 528.016 419.115C527.721 419.443 527.343 419.698 526.882 419.881C526.422 420.06 525.895 420.149 525.301 420.149ZM533.541 423.023C532.894 423.023 532.339 422.935 531.875 422.759C531.411 422.587 531.038 422.355 530.757 422.063C530.475 421.772 530.279 421.448 530.17 421.094L531.791 420.701C531.864 420.85 531.97 420.998 532.109 421.143C532.248 421.293 532.435 421.415 532.671 421.511C532.909 421.611 533.209 421.661 533.57 421.661C534.081 421.661 534.503 421.536 534.838 421.288C535.173 421.042 535.34 420.638 535.34 420.075V418.628H535.251C535.158 418.813 535.022 419.004 534.843 419.2C534.668 419.395 534.434 419.559 534.142 419.692C533.854 419.824 533.491 419.891 533.053 419.891C532.467 419.891 531.935 419.753 531.458 419.478C530.984 419.2 530.606 418.785 530.324 418.235C530.046 417.682 529.906 416.989 529.906 416.157C529.906 415.318 530.046 414.611 530.324 414.034C530.606 413.454 530.985 413.015 531.463 412.717C531.94 412.415 532.472 412.264 533.058 412.264C533.506 412.264 533.874 412.34 534.162 412.493C534.454 412.642 534.686 412.823 534.858 413.035C535.03 413.244 535.161 413.441 535.251 413.626H535.35V412.364H537.125V420.124C537.125 420.777 536.969 421.317 536.658 421.745C536.346 422.173 535.92 422.492 535.38 422.705C534.84 422.917 534.227 423.023 533.541 423.023ZM533.556 418.479C533.937 418.479 534.262 418.386 534.53 418.2C534.798 418.015 535.002 417.748 535.142 417.4C535.281 417.052 535.35 416.634 535.35 416.147C535.35 415.666 535.281 415.246 535.142 414.884C535.006 414.523 534.803 414.243 534.535 414.044C534.27 413.842 533.943 413.741 533.556 413.741C533.155 413.741 532.82 413.845 532.551 414.054C532.283 414.263 532.081 414.549 531.945 414.914C531.809 415.275 531.741 415.686 531.741 416.147C531.741 416.614 531.809 417.024 531.945 417.375C532.084 417.723 532.288 417.995 532.556 418.19C532.828 418.383 533.161 418.479 533.556 418.479ZM538.97 420V412.364H540.769V420H538.97ZM539.874 411.28C539.589 411.28 539.344 411.185 539.139 410.996C538.933 410.804 538.83 410.574 538.83 410.305C538.83 410.034 538.933 409.803 539.139 409.614C539.344 409.422 539.589 409.326 539.874 409.326C540.163 409.326 540.408 409.422 540.61 409.614C540.816 409.803 540.919 410.034 540.919 410.305C540.919 410.574 540.816 410.804 540.61 410.996C540.408 411.185 540.163 411.28 539.874 411.28ZM548.656 414.382L547.015 414.561C546.969 414.395 546.887 414.24 546.771 414.094C546.659 413.948 546.506 413.83 546.314 413.741C546.122 413.651 545.886 413.607 545.608 413.607C545.233 413.607 544.919 413.688 544.663 413.85C544.411 414.013 544.287 414.223 544.29 414.482C544.287 414.704 544.368 414.884 544.534 415.023C544.703 415.163 544.982 415.277 545.369 415.366L546.672 415.645C547.394 415.801 547.931 416.048 548.283 416.386C548.637 416.724 548.816 417.166 548.82 417.713C548.816 418.194 548.675 418.618 548.397 418.986C548.122 419.35 547.739 419.635 547.249 419.841C546.758 420.046 546.195 420.149 545.558 420.149C544.624 420.149 543.871 419.954 543.301 419.562C542.731 419.168 542.391 418.62 542.282 417.917L544.037 417.748C544.116 418.093 544.286 418.353 544.544 418.528C544.803 418.704 545.139 418.792 545.553 418.792C545.981 418.792 546.324 418.704 546.582 418.528C546.844 418.353 546.975 418.136 546.975 417.877C546.975 417.658 546.891 417.478 546.722 417.335C546.556 417.193 546.297 417.083 545.946 417.007L544.643 416.734C543.911 416.581 543.369 416.324 543.018 415.963C542.666 415.598 542.492 415.138 542.496 414.581C542.492 414.11 542.62 413.703 542.879 413.358C543.14 413.01 543.503 412.741 543.967 412.553C544.435 412.36 544.973 412.264 545.583 412.264C546.478 412.264 547.182 412.455 547.696 412.836C548.213 413.217 548.533 413.732 548.656 414.382ZM554.117 412.364V413.756H549.727V412.364H554.117ZM550.811 410.534H552.61V417.703C552.61 417.945 552.647 418.131 552.72 418.26C552.796 418.386 552.895 418.472 553.018 418.518C553.141 418.565 553.277 418.588 553.426 418.588C553.538 418.588 553.641 418.58 553.734 418.563C553.83 418.547 553.903 418.532 553.953 418.518L554.256 419.925C554.16 419.959 554.022 419.995 553.843 420.035C553.668 420.075 553.452 420.098 553.197 420.104C552.746 420.118 552.34 420.05 551.979 419.901C551.618 419.748 551.331 419.513 551.119 419.195C550.91 418.876 550.807 418.479 550.811 418.001V410.534ZM555.622 420V412.364H557.367V413.636H557.447C557.586 413.196 557.824 412.856 558.162 412.617C558.504 412.375 558.893 412.254 559.331 412.254C559.43 412.254 559.541 412.259 559.664 412.269C559.79 412.276 559.894 412.287 559.977 412.304V413.96C559.901 413.933 559.78 413.91 559.614 413.89C559.452 413.867 559.294 413.855 559.142 413.855C558.814 413.855 558.519 413.926 558.257 414.069C557.998 414.208 557.795 414.402 557.645 414.651C557.496 414.899 557.422 415.186 557.422 415.511V420H555.622ZM563.233 420.154C562.75 420.154 562.314 420.068 561.926 419.896C561.541 419.72 561.237 419.461 561.011 419.12C560.789 418.779 560.678 418.358 560.678 417.857C560.678 417.426 560.758 417.07 560.917 416.788C561.076 416.507 561.293 416.281 561.568 416.112C561.843 415.943 562.153 415.816 562.498 415.729C562.846 415.64 563.205 415.575 563.577 415.536C564.024 415.489 564.387 415.448 564.665 415.411C564.944 415.371 565.146 415.312 565.272 415.232C565.401 415.149 565.466 415.022 565.466 414.849V414.82C565.466 414.445 565.355 414.155 565.133 413.95C564.911 413.744 564.591 413.641 564.173 413.641C563.732 413.641 563.383 413.737 563.124 413.93C562.869 414.122 562.697 414.349 562.607 414.611L560.927 414.372C561.059 413.908 561.278 413.52 561.583 413.209C561.888 412.894 562.261 412.659 562.702 412.503C563.142 412.344 563.63 412.264 564.163 412.264C564.531 412.264 564.897 412.307 565.262 412.393C565.626 412.48 565.96 412.622 566.261 412.821C566.563 413.017 566.805 413.283 566.987 413.621C567.173 413.96 567.265 414.382 567.265 414.889V420H565.535V418.951H565.476C565.366 419.163 565.212 419.362 565.013 419.548C564.818 419.73 564.571 419.877 564.273 419.99C563.978 420.099 563.631 420.154 563.233 420.154ZM563.701 418.832C564.062 418.832 564.375 418.76 564.64 418.618C564.906 418.472 565.109 418.28 565.252 418.041C565.398 417.803 565.471 417.542 565.471 417.261V416.361C565.414 416.407 565.318 416.45 565.182 416.49C565.05 416.53 564.901 416.565 564.735 416.594C564.569 416.624 564.405 416.651 564.243 416.674C564.08 416.697 563.939 416.717 563.82 416.734C563.552 416.77 563.311 416.83 563.099 416.913C562.887 416.996 562.72 417.112 562.597 417.261C562.474 417.406 562.413 417.595 562.413 417.827C562.413 418.159 562.534 418.409 562.776 418.578C563.018 418.747 563.326 418.832 563.701 418.832ZM569.075 420V412.364H570.82V413.636H570.9C571.039 413.196 571.278 412.856 571.616 412.617C571.957 412.375 572.346 412.254 572.784 412.254C572.883 412.254 572.994 412.259 573.117 412.269C573.243 412.276 573.347 412.287 573.43 412.304V413.96C573.354 413.933 573.233 413.91 573.067 413.89C572.905 413.867 572.747 413.855 572.595 413.855C572.267 413.855 571.972 413.926 571.71 414.069C571.452 414.208 571.248 414.402 571.099 414.651C570.949 414.899 570.875 415.186 570.875 415.511V420H569.075ZM578.913 415.018V416.5H574.329V415.018H578.913ZM586.841 414.382L585.2 414.561C585.154 414.395 585.073 414.24 584.957 414.094C584.844 413.948 584.692 413.83 584.499 413.741C584.307 413.651 584.072 413.607 583.794 413.607C583.419 413.607 583.104 413.688 582.849 413.85C582.597 414.013 582.473 414.223 582.476 414.482C582.473 414.704 582.554 414.884 582.72 415.023C582.889 415.163 583.167 415.277 583.555 415.366L584.857 415.645C585.58 415.801 586.117 416.048 586.468 416.386C586.823 416.724 587.002 417.166 587.005 417.713C587.002 418.194 586.861 418.618 586.583 418.986C586.307 419.35 585.925 419.635 585.434 419.841C584.944 420.046 584.38 420.149 583.744 420.149C582.809 420.149 582.057 419.954 581.487 419.562C580.917 419.168 580.577 418.62 580.468 417.917L582.222 417.748C582.302 418.093 582.471 418.353 582.73 418.528C582.988 418.704 583.325 418.792 583.739 418.792C584.166 418.792 584.509 418.704 584.768 418.528C585.03 418.353 585.161 418.136 585.161 417.877C585.161 417.658 585.076 417.478 584.907 417.335C584.741 417.193 584.483 417.083 584.132 417.007L582.829 416.734C582.097 416.581 581.555 416.324 581.203 415.963C580.852 415.598 580.678 415.138 580.681 414.581C580.678 414.11 580.806 413.703 581.064 413.358C581.326 413.01 581.689 412.741 582.153 412.553C582.62 412.36 583.159 412.264 583.769 412.264C584.664 412.264 585.368 412.455 585.882 412.836C586.399 413.217 586.718 413.732 586.841 414.382ZM591.87 420.149C591.104 420.149 590.443 419.99 589.886 419.672C589.333 419.35 588.907 418.896 588.608 418.31C588.31 417.72 588.161 417.025 588.161 416.227C588.161 415.441 588.31 414.752 588.608 414.158C588.91 413.562 589.331 413.098 589.871 412.766C590.412 412.432 591.046 412.264 591.775 412.264C592.246 412.264 592.69 412.34 593.108 412.493C593.529 412.642 593.9 412.874 594.221 413.189C594.546 413.504 594.801 413.905 594.987 414.392C595.173 414.876 595.265 415.453 595.265 416.122V416.674H589.006V415.461H593.54C593.537 415.116 593.462 414.81 593.317 414.541C593.171 414.269 592.967 414.056 592.705 413.9C592.447 413.744 592.145 413.666 591.8 413.666C591.432 413.666 591.109 413.756 590.831 413.935C590.552 414.11 590.335 414.342 590.18 414.631C590.027 414.916 589.949 415.229 589.946 415.57V416.629C589.946 417.073 590.027 417.455 590.189 417.773C590.352 418.088 590.579 418.33 590.871 418.499C591.162 418.664 591.504 418.747 591.895 418.747C592.157 418.747 592.394 418.711 592.606 418.638C592.818 418.562 593.002 418.451 593.157 418.305C593.313 418.159 593.431 417.978 593.51 417.763L595.191 417.952C595.085 418.396 594.883 418.784 594.584 419.115C594.289 419.443 593.912 419.698 593.451 419.881C592.99 420.06 592.463 420.149 591.87 420.149Z" fill="#1C3437"/>
<path fill-rule="evenodd" clip-rule="evenodd" d="M612.646 409.146C612.842 408.951 613.158 408.951 613.354 409.146L618.354 414.146C618.447 414.24 618.5 414.367 618.5 414.5C618.5 414.633 618.447 414.76 618.354 414.854L613.354 419.854C613.158 420.049 612.842 420.049 612.646 419.854C612.451 419.658 612.451 419.342 612.646 419.146L616.793 415H606C605.724 415 605.5 414.776 605.5 414.5C605.5 414.224 605.724 414 606 414H616.793L612.646 409.854C612.451 409.658 612.451 409.342 612.646 409.146Z" fill="#1C3437"/>
<path d="M101.568 211.76L93.216 234H88.992L80.608 211.76H84.512L91.104 230.256L97.728 211.76H101.568ZM106.475 214.032C105.813 214.032 105.259 213.808 104.811 213.36C104.363 212.912 104.139 212.357 104.139 211.696C104.139 211.035 104.363 210.48 104.811 210.032C105.259 209.584 105.813 209.36 106.475 209.36C107.115 209.36 107.659 209.584 108.107 210.032C108.555 210.48 108.779 211.035 108.779 211.696C108.779 212.357 108.555 212.912 108.107 213.36C107.659 213.808 107.115 214.032 106.475 214.032ZM108.267 216.368V234H104.619V216.368H108.267ZM111.84 225.104C111.84 223.333 112.203 221.765 112.928 220.4C113.675 219.035 114.678 217.979 115.936 217.232C117.216 216.464 118.635 216.08 120.192 216.08C121.344 216.08 122.475 216.336 123.584 216.848C124.715 217.339 125.611 218 126.272 218.832V210.32H129.952V234H126.272V231.344C125.675 232.197 124.843 232.901 123.776 233.456C122.731 234.011 121.526 234.288 120.16 234.288C118.624 234.288 117.216 233.904 115.936 233.136C114.678 232.347 113.675 231.259 112.928 229.872C112.203 228.464 111.84 226.875 111.84 225.104ZM126.272 225.168C126.272 223.952 126.016 222.896 125.504 222C125.014 221.104 124.363 220.421 123.552 219.952C122.742 219.483 121.867 219.248 120.928 219.248C119.99 219.248 119.115 219.483 118.304 219.952C117.494 220.4 116.832 221.072 116.32 221.968C115.83 222.843 115.584 223.888 115.584 225.104C115.584 226.32 115.83 227.387 116.32 228.304C116.832 229.221 117.494 229.925 118.304 230.416C119.136 230.885 120.011 231.12 120.928 231.12C121.867 231.12 122.742 230.885 123.552 230.416C124.363 229.947 125.014 229.264 125.504 228.368C126.016 227.451 126.272 226.384 126.272 225.168ZM133.528 225.104C133.528 223.333 133.89 221.765 134.616 220.4C135.362 219.035 136.365 217.979 137.624 217.232C138.904 216.464 140.312 216.08 141.848 216.08C143.234 216.08 144.44 216.357 145.464 216.912C146.509 217.445 147.341 218.117 147.96 218.928V216.368H151.64V234H147.96V231.376C147.341 232.208 146.498 232.901 145.432 233.456C144.365 234.011 143.149 234.288 141.784 234.288C140.269 234.288 138.882 233.904 137.624 233.136C136.365 232.347 135.362 231.259 134.616 229.872C133.89 228.464 133.528 226.875 133.528 225.104ZM147.96 225.168C147.96 223.952 147.704 222.896 147.192 222C146.701 221.104 146.05 220.421 145.24 219.952C144.429 219.483 143.554 219.248 142.616 219.248C141.677 219.248 140.802 219.483 139.992 219.952C139.181 220.4 138.52 221.072 138.008 221.968C137.517 222.843 137.272 223.888 137.272 225.104C137.272 226.32 137.517 227.387 138.008 228.304C138.52 229.221 139.181 229.925 139.992 230.416C140.824 230.885 141.698 231.12 142.616 231.12C143.554 231.12 144.429 230.885 145.24 230.416C146.05 229.947 146.701 229.264 147.192 228.368C147.704 227.451 147.96 226.384 147.96 225.168ZM173.615 223.984H167.151V230.608H163.759V223.984H157.295V220.912H163.759V214.288H167.151V220.912H173.615V223.984Z" fill="url(#paint0_linear_1_189)"/>
<defs>
<linearGradient id="paint0_linear_1_189" x1="80" y1="199" x2="128.5" y2="247" gradientUnits="userSpaceOnUse">
<stop stop-color="#00363C"/>
<stop offset="1" stop-color="#B1CBCF"/>
</linearGradient>
</defs>
</svg>
