<svg width="500" height="400" viewBox="0 0 500 400" fill="none" xmlns="http://www.w3.org/2000/svg">
<g clip-path="url(#clip0_78_186)">
<rect width="500" height="400" fill="white"/>
<path d="M29.568 20.76L21.216 43H16.992L8.608 20.76H12.512L19.104 39.256L25.728 20.76H29.568ZM34.4748 23.032C33.8134 23.032 33.2588 22.808 32.8108 22.36C32.3628 21.912 32.1388 21.3573 32.1388 20.696C32.1388 20.0347 32.3628 19.48 32.8108 19.032C33.2588 18.584 33.8134 18.36 34.4748 18.36C35.1148 18.36 35.6588 18.584 36.1068 19.032C36.5548 19.48 36.7788 20.0347 36.7788 20.696C36.7788 21.3573 36.5548 21.912 36.1068 22.36C35.6588 22.808 35.1148 23.032 34.4748 23.032ZM36.2668 25.368V43H32.6188V25.368H36.2668ZM39.8403 34.104C39.8403 32.3333 40.2029 30.7653 40.9283 29.4C41.6749 28.0347 42.6776 26.9787 43.9363 26.232C45.2163 25.464 46.6349 25.08 48.1923 25.08C49.3443 25.08 50.4749 25.336 51.5843 25.848C52.7149 26.3387 53.6109 27 54.2723 27.832V19.32H57.9523V43H54.2723V40.344C53.6749 41.1973 52.8429 41.9013 51.7763 42.456C50.7309 43.0107 49.5256 43.288 48.1603 43.288C46.6243 43.288 45.2163 42.904 43.9363 42.136C42.6776 41.3467 41.6749 40.2587 40.9283 38.872C40.2029 37.464 39.8403 35.8747 39.8403 34.104ZM54.2723 34.168C54.2723 32.952 54.0163 31.896 53.5043 31C53.0136 30.104 52.3629 29.4213 51.5523 28.952C50.7416 28.4827 49.8669 28.248 48.9283 28.248C47.9896 28.248 47.1149 28.4827 46.3043 28.952C45.4936 29.4 44.8323 30.072 44.3203 30.968C43.8296 31.8427 43.5843 32.888 43.5843 34.104C43.5843 35.32 43.8296 36.3867 44.3203 37.304C44.8323 38.2213 45.4936 38.9253 46.3043 39.416C47.1363 39.8853 48.0109 40.12 48.9283 40.12C49.8669 40.12 50.7416 39.8853 51.5523 39.416C52.3629 38.9467 53.0136 38.264 53.5043 37.368C54.0163 36.4507 54.2723 35.384 54.2723 34.168ZM61.5278 34.104C61.5278 32.3333 61.8904 30.7653 62.6158 29.4C63.3624 28.0347 64.3651 26.9787 65.6238 26.232C66.9038 25.464 68.3118 25.08 69.8478 25.08C71.2344 25.08 72.4398 25.3573 73.4638 25.912C74.5091 26.4453 75.3411 27.1173 75.9598 27.928V25.368H79.6398V43H75.9598V40.376C75.3411 41.208 74.4984 41.9013 73.4318 42.456C72.3651 43.0107 71.1491 43.288 69.7838 43.288C68.2691 43.288 66.8824 42.904 65.6238 42.136C64.3651 41.3467 63.3624 40.2587 62.6158 38.872C61.8904 37.464 61.5278 35.8747 61.5278 34.104ZM75.9598 34.168C75.9598 32.952 75.7038 31.896 75.1918 31C74.7011 30.104 74.0504 29.4213 73.2398 28.952C72.4291 28.4827 71.5544 28.248 70.6158 28.248C69.6771 28.248 68.8024 28.4827 67.9918 28.952C67.1811 29.4 66.5198 30.072 66.0078 30.968C65.5171 31.8427 65.2718 32.888 65.2718 34.104C65.2718 35.32 65.5171 36.3867 66.0078 37.304C66.5198 38.2213 67.1811 38.9253 67.9918 39.416C68.8238 39.8853 69.6984 40.12 70.6158 40.12C71.5544 40.12 72.4291 39.8853 73.2398 39.416C74.0504 38.9467 74.7011 38.264 75.1918 37.368C75.7038 36.4507 75.9598 35.384 75.9598 34.168ZM101.615 32.984H95.1513V39.608H91.7593V32.984H85.2953V29.912H91.7593V23.288H95.1513V29.912H101.615V32.984Z" fill="url(#paint0_linear_78_186)"/>
<path d="M10.8182 59.3636V71H9.40909V59.3636H10.8182ZM17.2344 71H13.6435V59.3636H17.3935C18.5223 59.3636 19.4882 59.5966 20.2912 60.0625C21.0942 60.5246 21.7098 61.1894 22.1378 62.0568C22.5658 62.9205 22.7798 63.9545 22.7798 65.1591C22.7798 66.3712 22.5639 67.4148 22.1321 68.2898C21.7003 69.161 21.0715 69.8314 20.2457 70.3011C19.42 70.767 18.4162 71 17.2344 71ZM15.0526 69.75H17.1435C18.1056 69.75 18.9029 69.5644 19.5355 69.1932C20.1681 68.822 20.6397 68.2936 20.9503 67.608C21.2609 66.9223 21.4162 66.1061 21.4162 65.1591C21.4162 64.2197 21.2628 63.411 20.956 62.733C20.6491 62.0511 20.1908 61.5284 19.581 61.1648C18.9711 60.7973 18.2116 60.6136 17.3026 60.6136H15.0526V69.75Z" fill="#495057"/>
<rect x="8.25" y="83.25" width="232" height="34.5" rx="7.75" stroke="#495057" stroke-opacity="0.5" stroke-width="0.5"/>
<path d="M270.136 59.3636V71H268.773L262.432 61.8636H262.318V71H260.909V59.3636H262.273L268.636 68.5227H268.75V59.3636H270.136ZM276.32 71.1818C275.532 71.1818 274.84 70.9943 274.246 70.6193C273.655 70.2443 273.193 69.7197 272.859 69.0455C272.53 68.3712 272.365 67.5833 272.365 66.6818C272.365 65.7727 272.53 64.9792 272.859 64.3011C273.193 63.6231 273.655 63.0966 274.246 62.7216C274.84 62.3466 275.532 62.1591 276.32 62.1591C277.107 62.1591 277.797 62.3466 278.388 62.7216C278.982 63.0966 279.445 63.6231 279.774 64.3011C280.107 64.9792 280.274 65.7727 280.274 66.6818C280.274 67.5833 280.107 68.3712 279.774 69.0455C279.445 69.7197 278.982 70.2443 278.388 70.6193C277.797 70.9943 277.107 71.1818 276.32 71.1818ZM276.32 69.9773C276.918 69.9773 277.411 69.8239 277.797 69.517C278.183 69.2102 278.469 68.8068 278.655 68.3068C278.84 67.8068 278.933 67.2652 278.933 66.6818C278.933 66.0985 278.84 65.5549 278.655 65.0511C278.469 64.5473 278.183 64.1402 277.797 63.8295C277.411 63.5189 276.918 63.3636 276.32 63.3636C275.721 63.3636 275.229 63.5189 274.842 63.8295C274.456 64.1402 274.17 64.5473 273.984 65.0511C273.799 65.5549 273.706 66.0985 273.706 66.6818C273.706 67.2652 273.799 67.8068 273.984 68.3068C274.17 68.8068 274.456 69.2102 274.842 69.517C275.229 69.8239 275.721 69.9773 276.32 69.9773ZM282.321 71V62.2727H283.616V63.6364H283.73C283.912 63.1705 284.205 62.8087 284.611 62.5511C285.016 62.2898 285.503 62.1591 286.071 62.1591C286.647 62.1591 287.126 62.2898 287.509 62.5511C287.895 62.8087 288.196 63.1705 288.412 63.6364H288.503C288.726 63.1856 289.062 62.8277 289.509 62.5625C289.955 62.2936 290.491 62.1591 291.116 62.1591C291.897 62.1591 292.535 62.4034 293.031 62.892C293.527 63.3769 293.776 64.1326 293.776 65.1591V71H292.435V65.1591C292.435 64.5152 292.259 64.0549 291.906 63.7784C291.554 63.5019 291.139 63.3636 290.662 63.3636C290.048 63.3636 289.573 63.5492 289.236 63.9205C288.899 64.2879 288.73 64.7538 288.73 65.3182V71H287.366V65.0227C287.366 64.5265 287.205 64.1269 286.884 63.8239C286.562 63.517 286.147 63.3636 285.639 63.3636C285.291 63.3636 284.965 63.4564 284.662 63.642C284.363 63.8277 284.12 64.0852 283.935 64.4148C283.753 64.7405 283.662 65.1174 283.662 65.5455V71H282.321ZM299.886 71.1818C299.045 71.1818 298.32 70.9962 297.71 70.625C297.104 70.25 296.636 69.7273 296.307 69.0568C295.981 68.3826 295.818 67.5985 295.818 66.7045C295.818 65.8106 295.981 65.0227 296.307 64.3409C296.636 63.6553 297.095 63.1212 297.682 62.7386C298.273 62.3523 298.962 62.1591 299.75 62.1591C300.205 62.1591 300.653 62.2348 301.097 62.3864C301.54 62.5379 301.943 62.7841 302.307 63.125C302.67 63.4621 302.96 63.9091 303.176 64.4659C303.392 65.0227 303.5 65.7083 303.5 66.5227V67.0909H296.773V65.9318H302.136C302.136 65.4394 302.038 65 301.841 64.6136C301.648 64.2273 301.371 63.9223 301.011 63.6989C300.655 63.4754 300.235 63.3636 299.75 63.3636C299.216 63.3636 298.754 63.4962 298.364 63.7614C297.977 64.0227 297.68 64.3636 297.472 64.7841C297.263 65.2045 297.159 65.6553 297.159 66.1364V66.9091C297.159 67.5682 297.273 68.1269 297.5 68.5852C297.731 69.0398 298.051 69.3864 298.46 69.625C298.869 69.8598 299.345 69.9773 299.886 69.9773C300.239 69.9773 300.557 69.928 300.841 69.8295C301.129 69.7273 301.377 69.5758 301.585 69.375C301.794 69.1705 301.955 68.9167 302.068 68.6136L303.364 68.9773C303.227 69.4167 302.998 69.803 302.676 70.1364C302.354 70.4659 301.956 70.7235 301.483 70.9091C301.009 71.0909 300.477 71.1818 299.886 71.1818Z" fill="#495057"/>
<rect x="259.75" y="83.25" width="232" height="34.5" rx="7.75" stroke="#495057" stroke-opacity="0.5" stroke-width="0.5"/>
<path d="M13.6364 134.364H15.1818L16.4773 136.068L16.8182 136.523L18.75 139.091H17.2045L15.9318 137.386L15.6136 136.955L13.6364 134.364ZM19.2273 132.182C19.2273 133.409 19.0057 134.47 18.5625 135.364C18.1193 136.258 17.5114 136.947 16.7386 137.432C15.9659 137.917 15.0833 138.159 14.0909 138.159C13.0985 138.159 12.2159 137.917 11.4432 137.432C10.6705 136.947 10.0625 136.258 9.61932 135.364C9.17614 134.47 8.95455 133.409 8.95455 132.182C8.95455 130.955 9.17614 129.894 9.61932 129C10.0625 128.106 10.6705 127.417 11.4432 126.932C12.2159 126.447 13.0985 126.205 14.0909 126.205C15.0833 126.205 15.9659 126.447 16.7386 126.932C17.5114 127.417 18.1193 128.106 18.5625 129C19.0057 129.894 19.2273 130.955 19.2273 132.182ZM17.8636 132.182C17.8636 131.174 17.6951 130.324 17.358 129.631C17.0246 128.938 16.572 128.413 16 128.057C15.4318 127.701 14.7955 127.523 14.0909 127.523C13.3864 127.523 12.7481 127.701 12.1761 128.057C11.608 128.413 11.1553 128.938 10.8182 129.631C10.4848 130.324 10.3182 131.174 10.3182 132.182C10.3182 133.189 10.4848 134.04 10.8182 134.733C11.1553 135.426 11.608 135.951 12.1761 136.307C12.7481 136.663 13.3864 136.841 14.0909 136.841C14.7955 136.841 15.4318 136.663 16 136.307C16.572 135.951 17.0246 135.426 17.358 134.733C17.6951 134.04 17.8636 133.189 17.8636 132.182ZM26.9148 134.432V129.273H28.2557V138H26.9148V136.523H26.8239C26.6193 136.966 26.3011 137.343 25.8693 137.653C25.4375 137.96 24.892 138.114 24.233 138.114C23.6875 138.114 23.2027 137.994 22.7784 137.756C22.3542 137.513 22.0208 137.15 21.7784 136.665C21.536 136.176 21.4148 135.561 21.4148 134.818V129.273H22.7557V134.727C22.7557 135.364 22.9337 135.871 23.2898 136.25C23.6496 136.629 24.108 136.818 24.6648 136.818C24.9981 136.818 25.3371 136.733 25.6818 136.562C26.0303 136.392 26.322 136.131 26.5568 135.778C26.7955 135.426 26.9148 134.977 26.9148 134.432ZM33.2798 138.205C32.7268 138.205 32.2249 138.1 31.7741 137.892C31.3234 137.68 30.9654 137.375 30.7003 136.977C30.4351 136.576 30.3026 136.091 30.3026 135.523C30.3026 135.023 30.401 134.617 30.598 134.307C30.795 133.992 31.0582 133.746 31.3878 133.568C31.7173 133.39 32.081 133.258 32.4787 133.17C32.8802 133.08 33.2836 133.008 33.6889 132.955C34.2192 132.886 34.6491 132.835 34.9787 132.801C35.312 132.763 35.5545 132.701 35.706 132.614C35.8613 132.527 35.9389 132.375 35.9389 132.159V132.114C35.9389 131.553 35.7855 131.117 35.4787 130.807C35.1757 130.496 34.7154 130.341 34.098 130.341C33.4579 130.341 32.956 130.481 32.5923 130.761C32.2287 131.042 31.973 131.341 31.8253 131.659L30.5526 131.205C30.7798 130.674 31.0829 130.261 31.4616 129.966C31.8442 129.667 32.2609 129.458 32.7116 129.341C33.1662 129.22 33.6132 129.159 34.0526 129.159C34.3329 129.159 34.6548 129.193 35.0185 129.261C35.3859 129.326 35.7401 129.46 36.081 129.665C36.4257 129.869 36.7116 130.178 36.9389 130.591C37.1662 131.004 37.2798 131.557 37.2798 132.25V138H35.9389V136.818H35.8707C35.7798 137.008 35.6283 137.21 35.4162 137.426C35.2041 137.642 34.9219 137.826 34.5696 137.977C34.2173 138.129 33.7874 138.205 33.2798 138.205ZM33.4844 137C34.0147 137 34.4616 136.896 34.8253 136.688C35.1927 136.479 35.4692 136.21 35.6548 135.881C35.8442 135.551 35.9389 135.205 35.9389 134.841V133.614C35.8821 133.682 35.7571 133.744 35.5639 133.801C35.3745 133.854 35.1548 133.902 34.9048 133.943C34.6586 133.981 34.4181 134.015 34.1832 134.045C33.9522 134.072 33.7647 134.095 33.6207 134.114C33.2723 134.159 32.9465 134.233 32.6435 134.335C32.3442 134.434 32.1018 134.583 31.9162 134.784C31.7344 134.981 31.6435 135.25 31.6435 135.591C31.6435 136.057 31.8158 136.409 32.1605 136.648C32.509 136.883 32.9503 137 33.4844 137ZM41.0682 132.75V138H39.7273V129.273H41.0227V130.636H41.1364C41.3409 130.193 41.6515 129.837 42.0682 129.568C42.4848 129.295 43.0227 129.159 43.6818 129.159C44.2727 129.159 44.7898 129.28 45.233 129.523C45.6761 129.761 46.0208 130.125 46.267 130.614C46.5133 131.098 46.6364 131.712 46.6364 132.455V138H45.2955V132.545C45.2955 131.86 45.1174 131.326 44.7614 130.943C44.4053 130.557 43.9167 130.364 43.2955 130.364C42.8674 130.364 42.4848 130.456 42.1477 130.642C41.8144 130.828 41.5511 131.098 41.358 131.455C41.1648 131.811 41.0682 132.242 41.0682 132.75ZM52.8821 129.273V130.409H48.3594V129.273H52.8821ZM49.6776 127.182H51.0185V135.5C51.0185 135.879 51.0734 136.163 51.1832 136.352C51.2969 136.538 51.4408 136.663 51.6151 136.727C51.7931 136.788 51.9806 136.818 52.1776 136.818C52.3253 136.818 52.4465 136.811 52.5412 136.795C52.6359 136.777 52.7116 136.761 52.7685 136.75L53.0412 137.955C52.9503 137.989 52.8234 138.023 52.6605 138.057C52.4976 138.095 52.2912 138.114 52.0412 138.114C51.6624 138.114 51.2912 138.032 50.9276 137.869C50.5677 137.706 50.2685 137.458 50.0298 137.125C49.795 136.792 49.6776 136.371 49.6776 135.864V127.182ZM54.8991 138V129.273H56.2401V138H54.8991ZM55.581 127.818C55.3196 127.818 55.0942 127.729 54.9048 127.551C54.7192 127.373 54.6264 127.159 54.6264 126.909C54.6264 126.659 54.7192 126.445 54.9048 126.267C55.0942 126.089 55.3196 126 55.581 126C55.8423 126 56.0658 126.089 56.2514 126.267C56.4408 126.445 56.5355 126.659 56.5355 126.909C56.5355 127.159 56.4408 127.373 56.2514 127.551C56.0658 127.729 55.8423 127.818 55.581 127.818ZM61.9915 138.182C61.2642 138.182 60.6222 137.998 60.0653 137.631C59.5085 137.259 59.0729 136.737 58.7585 136.062C58.4441 135.384 58.2869 134.583 58.2869 133.659C58.2869 132.742 58.4441 131.947 58.7585 131.273C59.0729 130.598 59.5104 130.078 60.071 129.71C60.6316 129.343 61.2794 129.159 62.0142 129.159C62.5824 129.159 63.0313 129.254 63.3608 129.443C63.6941 129.629 63.9479 129.841 64.1222 130.08C64.3002 130.314 64.4384 130.508 64.5369 130.659H64.6506V126.364H65.9915V138H64.696V136.659H64.5369C64.4384 136.818 64.2983 137.019 64.1165 137.261C63.9347 137.5 63.6752 137.714 63.3381 137.903C63.0009 138.089 62.5521 138.182 61.9915 138.182ZM62.1733 136.977C62.7112 136.977 63.1657 136.837 63.5369 136.557C63.9081 136.273 64.1903 135.881 64.3835 135.381C64.5767 134.877 64.6733 134.295 64.6733 133.636C64.6733 132.985 64.5786 132.415 64.3892 131.926C64.1998 131.434 63.9195 131.051 63.5483 130.778C63.1771 130.502 62.7188 130.364 62.1733 130.364C61.6051 130.364 61.1316 130.509 60.7528 130.801C60.3778 131.089 60.0956 131.481 59.9062 131.977C59.7206 132.47 59.6278 133.023 59.6278 133.636C59.6278 134.258 59.7225 134.822 59.9119 135.33C60.1051 135.833 60.3892 136.235 60.7642 136.534C61.143 136.83 61.6127 136.977 62.1733 136.977ZM71.2017 138.205C70.6487 138.205 70.1468 138.1 69.696 137.892C69.2453 137.68 68.8873 137.375 68.6222 136.977C68.357 136.576 68.2244 136.091 68.2244 135.523C68.2244 135.023 68.3229 134.617 68.5199 134.307C68.7169 133.992 68.9801 133.746 69.3097 133.568C69.6392 133.39 70.0028 133.258 70.4006 133.17C70.8021 133.08 71.2055 133.008 71.6108 132.955C72.1411 132.886 72.571 132.835 72.9006 132.801C73.2339 132.763 73.4763 132.701 73.6278 132.614C73.7831 132.527 73.8608 132.375 73.8608 132.159V132.114C73.8608 131.553 73.7074 131.117 73.4006 130.807C73.0975 130.496 72.6373 130.341 72.0199 130.341C71.3797 130.341 70.8778 130.481 70.5142 130.761C70.1506 131.042 69.8949 131.341 69.7472 131.659L68.4744 131.205C68.7017 130.674 69.0047 130.261 69.3835 129.966C69.7661 129.667 70.1828 129.458 70.6335 129.341C71.0881 129.22 71.535 129.159 71.9744 129.159C72.2547 129.159 72.5767 129.193 72.9403 129.261C73.3078 129.326 73.6619 129.46 74.0028 129.665C74.3475 129.869 74.6335 130.178 74.8608 130.591C75.0881 131.004 75.2017 131.557 75.2017 132.25V138H73.8608V136.818H73.7926C73.7017 137.008 73.5502 137.21 73.3381 137.426C73.1259 137.642 72.8438 137.826 72.4915 137.977C72.1392 138.129 71.7093 138.205 71.2017 138.205ZM71.4062 137C71.9366 137 72.3835 136.896 72.7472 136.688C73.1146 136.479 73.3911 136.21 73.5767 135.881C73.7661 135.551 73.8608 135.205 73.8608 134.841V133.614C73.804 133.682 73.679 133.744 73.4858 133.801C73.2964 133.854 73.0767 133.902 72.8267 133.943C72.5805 133.981 72.34 134.015 72.1051 134.045C71.8741 134.072 71.6866 134.095 71.5426 134.114C71.1941 134.159 70.8684 134.233 70.5653 134.335C70.2661 134.434 70.0237 134.583 69.8381 134.784C69.6563 134.981 69.5653 135.25 69.5653 135.591C69.5653 136.057 69.7377 136.409 70.0824 136.648C70.4309 136.883 70.8722 137 71.4062 137ZM80.9446 138.182C80.2173 138.182 79.5753 137.998 79.0185 137.631C78.4616 137.259 78.026 136.737 77.7116 136.062C77.3973 135.384 77.2401 134.583 77.2401 133.659C77.2401 132.742 77.3973 131.947 77.7116 131.273C78.026 130.598 78.4635 130.078 79.0241 129.71C79.5848 129.343 80.2325 129.159 80.9673 129.159C81.5355 129.159 81.9844 129.254 82.3139 129.443C82.6473 129.629 82.901 129.841 83.0753 130.08C83.2533 130.314 83.3916 130.508 83.4901 130.659H83.6037V126.364H84.9446V138H83.6491V136.659H83.4901C83.3916 136.818 83.2514 137.019 83.0696 137.261C82.8878 137.5 82.6283 137.714 82.2912 137.903C81.9541 138.089 81.5052 138.182 80.9446 138.182ZM81.1264 136.977C81.6643 136.977 82.1188 136.837 82.4901 136.557C82.8613 136.273 83.1435 135.881 83.3366 135.381C83.5298 134.877 83.6264 134.295 83.6264 133.636C83.6264 132.985 83.5317 132.415 83.3423 131.926C83.1529 131.434 82.8726 131.051 82.5014 130.778C82.1302 130.502 81.6719 130.364 81.1264 130.364C80.5582 130.364 80.0848 130.509 79.706 130.801C79.331 131.089 79.0488 131.481 78.8594 131.977C78.6738 132.47 78.581 133.023 78.581 133.636C78.581 134.258 78.6757 134.822 78.8651 135.33C79.0582 135.833 79.3423 136.235 79.7173 136.534C80.0961 136.83 80.5658 136.977 81.1264 136.977ZM91.2457 138.182C90.4048 138.182 89.6795 137.996 89.0696 137.625C88.4635 137.25 87.9957 136.727 87.6662 136.057C87.3404 135.383 87.1776 134.598 87.1776 133.705C87.1776 132.811 87.3404 132.023 87.6662 131.341C87.9957 130.655 88.4541 130.121 89.0412 129.739C89.6321 129.352 90.3215 129.159 91.1094 129.159C91.5639 129.159 92.0128 129.235 92.456 129.386C92.8991 129.538 93.3026 129.784 93.6662 130.125C94.0298 130.462 94.3196 130.909 94.5355 131.466C94.7514 132.023 94.8594 132.708 94.8594 133.523V134.091H88.1321V132.932H93.4957C93.4957 132.439 93.3973 132 93.2003 131.614C93.0071 131.227 92.7306 130.922 92.3707 130.699C92.0147 130.475 91.5942 130.364 91.1094 130.364C90.5753 130.364 90.1132 130.496 89.723 130.761C89.3366 131.023 89.0393 131.364 88.831 131.784C88.6226 132.205 88.5185 132.655 88.5185 133.136V133.909C88.5185 134.568 88.6321 135.127 88.8594 135.585C89.0904 136.04 89.4105 136.386 89.8196 136.625C90.2287 136.86 90.7041 136.977 91.2457 136.977C91.598 136.977 91.9162 136.928 92.2003 136.83C92.4882 136.727 92.7363 136.576 92.9446 136.375C93.1529 136.17 93.3139 135.917 93.4276 135.614L94.723 135.977C94.5866 136.417 94.3575 136.803 94.0355 137.136C93.7135 137.466 93.3158 137.723 92.8423 137.909C92.3688 138.091 91.8366 138.182 91.2457 138.182Z" fill="#495057"/>
<rect x="8.25" y="150.25" width="231" height="34.5" rx="7.75" stroke="#495057" stroke-opacity="0.5" stroke-width="0.5"/>
<path d="M261.909 138V126.364H265.841C266.754 126.364 267.5 126.528 268.08 126.858C268.663 127.184 269.095 127.625 269.375 128.182C269.655 128.739 269.795 129.36 269.795 130.045C269.795 130.731 269.655 131.354 269.375 131.915C269.098 132.475 268.67 132.922 268.091 133.256C267.511 133.585 266.769 133.75 265.864 133.75H263.045V132.5H265.818C266.443 132.5 266.945 132.392 267.324 132.176C267.703 131.96 267.977 131.669 268.148 131.301C268.322 130.93 268.409 130.511 268.409 130.045C268.409 129.58 268.322 129.163 268.148 128.795C267.977 128.428 267.701 128.14 267.318 127.932C266.936 127.72 266.428 127.614 265.795 127.614H263.318V138H261.909ZM271.884 138V129.273H273.179V130.591H273.27C273.429 130.159 273.717 129.809 274.134 129.54C274.55 129.271 275.02 129.136 275.543 129.136C275.641 129.136 275.764 129.138 275.912 129.142C276.06 129.146 276.171 129.152 276.247 129.159V130.523C276.202 130.511 276.098 130.494 275.935 130.472C275.776 130.445 275.607 130.432 275.429 130.432C275.005 130.432 274.626 130.521 274.293 130.699C273.963 130.873 273.702 131.116 273.509 131.426C273.319 131.733 273.224 132.083 273.224 132.477V138H271.884ZM281.23 138.182C280.389 138.182 279.664 137.996 279.054 137.625C278.448 137.25 277.98 136.727 277.651 136.057C277.325 135.383 277.162 134.598 277.162 133.705C277.162 132.811 277.325 132.023 277.651 131.341C277.98 130.655 278.438 130.121 279.026 129.739C279.616 129.352 280.306 129.159 281.094 129.159C281.548 129.159 281.997 129.235 282.44 129.386C282.884 129.538 283.287 129.784 283.651 130.125C284.014 130.462 284.304 130.909 284.52 131.466C284.736 132.023 284.844 132.708 284.844 133.523V134.091H278.116V132.932H283.48C283.48 132.439 283.382 132 283.185 131.614C282.991 131.227 282.715 130.922 282.355 130.699C281.999 130.475 281.579 130.364 281.094 130.364C280.56 130.364 280.098 130.496 279.707 130.761C279.321 131.023 279.024 131.364 278.815 131.784C278.607 132.205 278.503 132.655 278.503 133.136V133.909C278.503 134.568 278.616 135.127 278.844 135.585C279.075 136.04 279.395 136.386 279.804 136.625C280.213 136.86 280.688 136.977 281.23 136.977C281.582 136.977 281.901 136.928 282.185 136.83C282.473 136.727 282.721 136.576 282.929 136.375C283.137 136.17 283.298 135.917 283.412 135.614L284.707 135.977C284.571 136.417 284.342 136.803 284.02 137.136C283.698 137.466 283.3 137.723 282.827 137.909C282.353 138.091 281.821 138.182 281.23 138.182ZM290.429 138.182C289.611 138.182 288.906 137.989 288.315 137.602C287.724 137.216 287.27 136.684 286.952 136.006C286.634 135.328 286.474 134.553 286.474 133.682C286.474 132.795 286.637 132.013 286.963 131.335C287.293 130.653 287.751 130.121 288.338 129.739C288.929 129.352 289.618 129.159 290.406 129.159C291.02 129.159 291.573 129.273 292.065 129.5C292.558 129.727 292.961 130.045 293.276 130.455C293.59 130.864 293.785 131.341 293.861 131.886H292.52C292.418 131.489 292.19 131.136 291.838 130.83C291.49 130.519 291.02 130.364 290.429 130.364C289.906 130.364 289.448 130.5 289.054 130.773C288.664 131.042 288.359 131.422 288.139 131.915C287.923 132.403 287.815 132.977 287.815 133.636C287.815 134.311 287.921 134.898 288.134 135.398C288.349 135.898 288.652 136.286 289.043 136.562C289.437 136.839 289.899 136.977 290.429 136.977C290.777 136.977 291.094 136.917 291.378 136.795C291.662 136.674 291.902 136.5 292.099 136.273C292.296 136.045 292.437 135.773 292.52 135.455H293.861C293.785 135.97 293.598 136.434 293.298 136.847C293.003 137.256 292.611 137.581 292.122 137.824C291.637 138.062 291.073 138.182 290.429 138.182ZM289.793 137.955H290.906L290.815 138.409C291.111 138.455 291.382 138.578 291.628 138.778C291.874 138.983 291.997 139.307 291.997 139.75C291.997 140.239 291.795 140.636 291.389 140.943C290.988 141.254 290.395 141.409 289.611 141.409L289.565 140.523C289.918 140.523 290.209 140.466 290.44 140.352C290.675 140.242 290.793 140.057 290.793 139.795C290.793 139.534 290.696 139.356 290.503 139.261C290.31 139.167 289.997 139.102 289.565 139.068L289.793 137.955ZM299.366 138.182C298.579 138.182 297.887 137.994 297.293 137.619C296.702 137.244 296.24 136.72 295.906 136.045C295.577 135.371 295.412 134.583 295.412 133.682C295.412 132.773 295.577 131.979 295.906 131.301C296.24 130.623 296.702 130.097 297.293 129.722C297.887 129.347 298.579 129.159 299.366 129.159C300.154 129.159 300.844 129.347 301.435 129.722C302.029 130.097 302.491 130.623 302.821 131.301C303.154 131.979 303.321 132.773 303.321 133.682C303.321 134.583 303.154 135.371 302.821 136.045C302.491 136.72 302.029 137.244 301.435 137.619C300.844 137.994 300.154 138.182 299.366 138.182ZM299.366 136.977C299.965 136.977 300.457 136.824 300.844 136.517C301.23 136.21 301.516 135.807 301.702 135.307C301.887 134.807 301.98 134.265 301.98 133.682C301.98 133.098 301.887 132.555 301.702 132.051C301.516 131.547 301.23 131.14 300.844 130.83C300.457 130.519 299.965 130.364 299.366 130.364C298.768 130.364 298.276 130.519 297.889 130.83C297.503 131.14 297.217 131.547 297.031 132.051C296.846 132.555 296.753 133.098 296.753 133.682C296.753 134.265 296.846 134.807 297.031 135.307C297.217 135.807 297.503 136.21 297.889 136.517C298.276 136.824 298.768 136.977 299.366 136.977Z" fill="#495057"/>
<rect x="260.75" y="150.25" width="231" height="34.5" rx="7.75" stroke="#495057" stroke-opacity="0.5" stroke-width="0.5"/>
<path d="M9.40909 272V260.364H13.3409C14.2538 260.364 15 260.528 15.5795 260.858C16.1629 261.184 16.5947 261.625 16.875 262.182C17.1553 262.739 17.2955 263.36 17.2955 264.045C17.2955 264.731 17.1553 265.354 16.875 265.915C16.5985 266.475 16.1705 266.922 15.5909 267.256C15.0114 267.585 14.2689 267.75 13.3636 267.75H10.5455V266.5H13.3182C13.9432 266.5 14.4451 266.392 14.8239 266.176C15.2027 265.96 15.4773 265.669 15.6477 265.301C15.822 264.93 15.9091 264.511 15.9091 264.045C15.9091 263.58 15.822 263.163 15.6477 262.795C15.4773 262.428 15.2008 262.14 14.8182 261.932C14.4356 261.72 13.928 261.614 13.2955 261.614H10.8182V272H9.40909ZM19.3835 272V263.273H20.679V264.591H20.7699C20.929 264.159 21.2169 263.809 21.6335 263.54C22.0502 263.271 22.5199 263.136 23.0426 263.136C23.1411 263.136 23.2642 263.138 23.4119 263.142C23.5597 263.146 23.6714 263.152 23.7472 263.159V264.523C23.7017 264.511 23.5975 264.494 23.4347 264.472C23.2756 264.445 23.107 264.432 22.929 264.432C22.5047 264.432 22.1259 264.521 21.7926 264.699C21.4631 264.873 21.2017 265.116 21.0085 265.426C20.8191 265.733 20.7244 266.083 20.7244 266.477V272H19.3835ZM28.7301 272.182C27.8892 272.182 27.1638 271.996 26.554 271.625C25.9479 271.25 25.4801 270.727 25.1506 270.057C24.8248 269.383 24.6619 268.598 24.6619 267.705C24.6619 266.811 24.8248 266.023 25.1506 265.341C25.4801 264.655 25.9384 264.121 26.5256 263.739C27.1165 263.352 27.8059 263.159 28.5938 263.159C29.0483 263.159 29.4972 263.235 29.9403 263.386C30.3835 263.538 30.7869 263.784 31.1506 264.125C31.5142 264.462 31.804 264.909 32.0199 265.466C32.2358 266.023 32.3438 266.708 32.3438 267.523V268.091H25.6165V266.932H30.9801C30.9801 266.439 30.8816 266 30.6847 265.614C30.4915 265.227 30.215 264.922 29.8551 264.699C29.4991 264.475 29.0786 264.364 28.5938 264.364C28.0597 264.364 27.5975 264.496 27.2074 264.761C26.821 265.023 26.5237 265.364 26.3153 265.784C26.107 266.205 26.0028 266.655 26.0028 267.136V267.909C26.0028 268.568 26.1165 269.127 26.3438 269.585C26.5748 270.04 26.8949 270.386 27.304 270.625C27.7131 270.86 28.1884 270.977 28.7301 270.977C29.0824 270.977 29.4006 270.928 29.6847 270.83C29.9725 270.727 30.2206 270.576 30.429 270.375C30.6373 270.17 30.7983 269.917 30.9119 269.614L32.2074 269.977C32.071 270.417 31.8419 270.803 31.5199 271.136C31.1979 271.466 30.8002 271.723 30.3267 271.909C29.8532 272.091 29.321 272.182 28.7301 272.182ZM40.5653 265.227L39.3608 265.568C39.285 265.367 39.1733 265.172 39.0256 264.983C38.8816 264.79 38.6847 264.631 38.4347 264.506C38.1847 264.381 37.8646 264.318 37.4744 264.318C36.9403 264.318 36.4953 264.441 36.1392 264.688C35.7869 264.93 35.6108 265.239 35.6108 265.614C35.6108 265.947 35.732 266.21 35.9744 266.403C36.2169 266.597 36.5956 266.758 37.1108 266.886L38.4062 267.205C39.1866 267.394 39.768 267.684 40.1506 268.074C40.5331 268.46 40.7244 268.958 40.7244 269.568C40.7244 270.068 40.5805 270.515 40.2926 270.909C40.0085 271.303 39.6108 271.614 39.0994 271.841C38.5881 272.068 37.9934 272.182 37.3153 272.182C36.4252 272.182 35.6884 271.989 35.1051 271.602C34.5218 271.216 34.1525 270.652 33.9972 269.909L35.2699 269.591C35.3911 270.061 35.6203 270.413 35.9574 270.648C36.2983 270.883 36.7434 271 37.2926 271C37.9176 271 38.4138 270.867 38.7812 270.602C39.1525 270.333 39.3381 270.011 39.3381 269.636C39.3381 269.333 39.232 269.08 39.0199 268.875C38.8078 268.667 38.482 268.511 38.0426 268.409L36.5881 268.068C35.7888 267.879 35.2017 267.585 34.8267 267.188C34.4555 266.786 34.2699 266.284 34.2699 265.682C34.2699 265.189 34.4081 264.754 34.6847 264.375C34.965 263.996 35.3456 263.699 35.8267 263.483C36.3116 263.267 36.8608 263.159 37.4744 263.159C38.3381 263.159 39.0161 263.348 39.5085 263.727C40.0047 264.106 40.357 264.606 40.5653 265.227ZM46.2884 272.182C45.4702 272.182 44.7656 271.989 44.1747 271.602C43.5838 271.216 43.1293 270.684 42.8111 270.006C42.4929 269.328 42.3338 268.553 42.3338 267.682C42.3338 266.795 42.4967 266.013 42.8224 265.335C43.152 264.653 43.6103 264.121 44.1974 263.739C44.7884 263.352 45.4777 263.159 46.2656 263.159C46.8793 263.159 47.4323 263.273 47.9247 263.5C48.4171 263.727 48.8205 264.045 49.1349 264.455C49.4493 264.864 49.6444 265.341 49.7202 265.886H48.3793C48.277 265.489 48.0497 265.136 47.6974 264.83C47.349 264.519 46.8793 264.364 46.2884 264.364C45.7656 264.364 45.3073 264.5 44.9134 264.773C44.5232 265.042 44.2183 265.422 43.9986 265.915C43.7827 266.403 43.6747 266.977 43.6747 267.636C43.6747 268.311 43.7808 268.898 43.9929 269.398C44.2088 269.898 44.5118 270.286 44.902 270.562C45.2959 270.839 45.758 270.977 46.2884 270.977C46.6368 270.977 46.9531 270.917 47.2372 270.795C47.5213 270.674 47.7618 270.5 47.9588 270.273C48.1558 270.045 48.2959 269.773 48.3793 269.455H49.7202C49.6444 269.97 49.4569 270.434 49.1577 270.847C48.8622 271.256 48.4702 271.581 47.9815 271.824C47.4967 272.062 46.9323 272.182 46.2884 272.182ZM51.6804 272V263.273H52.9759V264.591H53.0668C53.2259 264.159 53.5137 263.809 53.9304 263.54C54.3471 263.271 54.8168 263.136 55.3395 263.136C55.438 263.136 55.5611 263.138 55.7088 263.142C55.8565 263.146 55.9683 263.152 56.044 263.159V264.523C55.9986 264.511 55.8944 264.494 55.7315 264.472C55.5724 264.445 55.4039 264.432 55.2259 264.432C54.8016 264.432 54.4228 264.521 54.0895 264.699C53.7599 264.873 53.4986 265.116 53.3054 265.426C53.116 265.733 53.0213 266.083 53.0213 266.477V272H51.6804ZM57.6335 272V263.273H58.9744V272H57.6335ZM58.3153 261.818C58.054 261.818 57.8286 261.729 57.6392 261.551C57.4536 261.373 57.3608 261.159 57.3608 260.909C57.3608 260.659 57.4536 260.445 57.6392 260.267C57.8286 260.089 58.054 260 58.3153 260C58.5767 260 58.8002 260.089 58.9858 260.267C59.1752 260.445 59.2699 260.659 59.2699 260.909C59.2699 261.159 59.1752 261.373 58.9858 261.551C58.8002 261.729 58.5767 261.818 58.3153 261.818ZM64.9759 272.182C64.1577 272.182 63.4531 271.989 62.8622 271.602C62.2713 271.216 61.8168 270.684 61.4986 270.006C61.1804 269.328 61.0213 268.553 61.0213 267.682C61.0213 266.795 61.1842 266.013 61.5099 265.335C61.8395 264.653 62.2978 264.121 62.8849 263.739C63.4759 263.352 64.1652 263.159 64.9531 263.159C65.5668 263.159 66.1198 263.273 66.6122 263.5C67.1046 263.727 67.508 264.045 67.8224 264.455C68.1368 264.864 68.3319 265.341 68.4077 265.886H67.0668C66.9645 265.489 66.7372 265.136 66.3849 264.83C66.0365 264.519 65.5668 264.364 64.9759 264.364C64.4531 264.364 63.9948 264.5 63.6009 264.773C63.2107 265.042 62.9058 265.422 62.6861 265.915C62.4702 266.403 62.3622 266.977 62.3622 267.636C62.3622 268.311 62.4683 268.898 62.6804 269.398C62.8963 269.898 63.1993 270.286 63.5895 270.562C63.9834 270.839 64.4455 270.977 64.9759 270.977C65.3243 270.977 65.6406 270.917 65.9247 270.795C66.2088 270.674 66.4493 270.5 66.6463 270.273C66.8433 270.045 66.9834 269.773 67.0668 269.455H68.4077C68.3319 269.97 68.1444 270.434 67.8452 270.847C67.5497 271.256 67.1577 271.581 66.669 271.824C66.1842 272.062 65.6198 272.182 64.9759 272.182ZM64.3395 271.955H65.4531L65.3622 272.409C65.6577 272.455 65.9285 272.578 66.1747 272.778C66.4209 272.983 66.544 273.307 66.544 273.75C66.544 274.239 66.3414 274.636 65.9361 274.943C65.5346 275.254 64.9418 275.409 64.1577 275.409L64.1122 274.523C64.4645 274.523 64.7562 274.466 64.9872 274.352C65.2221 274.242 65.3395 274.057 65.3395 273.795C65.3395 273.534 65.2429 273.356 65.0497 273.261C64.8565 273.167 64.544 273.102 64.1122 273.068L64.3395 271.955ZM72.9361 272.205C72.383 272.205 71.8812 272.1 71.4304 271.892C70.9796 271.68 70.6217 271.375 70.3565 270.977C70.0914 270.576 69.9588 270.091 69.9588 269.523C69.9588 269.023 70.0573 268.617 70.2543 268.307C70.4512 267.992 70.7145 267.746 71.044 267.568C71.3736 267.39 71.7372 267.258 72.1349 267.17C72.5365 267.08 72.9399 267.008 73.3452 266.955C73.8755 266.886 74.3054 266.835 74.6349 266.801C74.9683 266.763 75.2107 266.701 75.3622 266.614C75.5175 266.527 75.5952 266.375 75.5952 266.159V266.114C75.5952 265.553 75.4418 265.117 75.1349 264.807C74.8319 264.496 74.3717 264.341 73.7543 264.341C73.1141 264.341 72.6122 264.481 72.2486 264.761C71.8849 265.042 71.6293 265.341 71.4815 265.659L70.2088 265.205C70.4361 264.674 70.7391 264.261 71.1179 263.966C71.5005 263.667 71.9171 263.458 72.3679 263.341C72.8224 263.22 73.2694 263.159 73.7088 263.159C73.9891 263.159 74.3111 263.193 74.6747 263.261C75.0421 263.326 75.3963 263.46 75.7372 263.665C76.0819 263.869 76.3679 264.178 76.5952 264.591C76.8224 265.004 76.9361 265.557 76.9361 266.25V272H75.5952V270.818H75.527C75.4361 271.008 75.2846 271.21 75.0724 271.426C74.8603 271.642 74.5781 271.826 74.2259 271.977C73.8736 272.129 73.4437 272.205 72.9361 272.205ZM73.1406 271C73.6709 271 74.1179 270.896 74.4815 270.688C74.849 270.479 75.1255 270.21 75.3111 269.881C75.5005 269.551 75.5952 269.205 75.5952 268.841V267.614C75.5384 267.682 75.4134 267.744 75.2202 267.801C75.0308 267.854 74.8111 267.902 74.5611 267.943C74.3149 267.981 74.0743 268.015 73.8395 268.045C73.6084 268.072 73.4209 268.095 73.277 268.114C72.9285 268.159 72.6027 268.233 72.2997 268.335C72.0005 268.434 71.758 268.583 71.5724 268.784C71.3906 268.981 71.2997 269.25 71.2997 269.591C71.2997 270.057 71.4721 270.409 71.8168 270.648C72.1652 270.883 72.6065 271 73.1406 271ZM72.0497 262.227L71.0043 262.182C71.0043 261.602 71.169 261.129 71.4986 260.761C71.8319 260.39 72.2429 260.205 72.7315 260.205C72.9474 260.205 73.1387 260.242 73.3054 260.318C73.4721 260.39 73.6312 260.473 73.7827 260.568C73.9342 260.663 74.0895 260.748 74.2486 260.824C74.4115 260.896 74.5952 260.932 74.7997 260.932C75.0156 260.932 75.1974 260.848 75.3452 260.682C75.4967 260.511 75.5724 260.307 75.5724 260.068L76.5952 260.159C76.5952 260.75 76.4285 261.22 76.0952 261.568C75.7656 261.917 75.3565 262.091 74.8679 262.091C74.6065 262.091 74.3906 262.055 74.2202 261.983C74.0497 261.907 73.8982 261.822 73.7656 261.727C73.633 261.633 73.4929 261.549 73.3452 261.477C73.1974 261.402 73.0156 261.364 72.7997 261.364C72.5838 261.364 72.4039 261.449 72.2599 261.619C72.1198 261.786 72.0497 261.989 72.0497 262.227ZM82.929 272.182C82.1411 272.182 81.4498 271.994 80.8551 271.619C80.2642 271.244 79.8021 270.72 79.4688 270.045C79.1392 269.371 78.9744 268.583 78.9744 267.682C78.9744 266.773 79.1392 265.979 79.4688 265.301C79.8021 264.623 80.2642 264.097 80.8551 263.722C81.4498 263.347 82.1411 263.159 82.929 263.159C83.7169 263.159 84.4063 263.347 84.9972 263.722C85.5919 264.097 86.054 264.623 86.3835 265.301C86.7169 265.979 86.8835 266.773 86.8835 267.682C86.8835 268.583 86.7169 269.371 86.3835 270.045C86.054 270.72 85.5919 271.244 84.9972 271.619C84.4063 271.994 83.7169 272.182 82.929 272.182ZM82.929 270.977C83.5275 270.977 84.0199 270.824 84.4062 270.517C84.7926 270.21 85.0786 269.807 85.2642 269.307C85.4498 268.807 85.5426 268.265 85.5426 267.682C85.5426 267.098 85.4498 266.555 85.2642 266.051C85.0786 265.547 84.7926 265.14 84.4062 264.83C84.0199 264.519 83.5275 264.364 82.929 264.364C82.3305 264.364 81.8381 264.519 81.4517 264.83C81.0653 265.14 80.7794 265.547 80.5938 266.051C80.4081 266.555 80.3153 267.098 80.3153 267.682C80.3153 268.265 80.4081 268.807 80.5938 269.307C80.7794 269.807 81.0653 270.21 81.4517 270.517C81.8381 270.824 82.3305 270.977 82.929 270.977Z" fill="#495057"/>
<rect x="8.25" y="284.25" width="483.5" height="34.5" rx="7.75" stroke="#495057" stroke-opacity="0.5" stroke-width="0.5"/>
<path d="M9.40909 205V193.364H10.8182V203.75H16.2273V205H9.40909ZM21.7727 205.182C20.9848 205.182 20.2936 204.994 19.6989 204.619C19.108 204.244 18.6458 203.72 18.3125 203.045C17.983 202.371 17.8182 201.583 17.8182 200.682C17.8182 199.773 17.983 198.979 18.3125 198.301C18.6458 197.623 19.108 197.097 19.6989 196.722C20.2936 196.347 20.9848 196.159 21.7727 196.159C22.5606 196.159 23.25 196.347 23.8409 196.722C24.4356 197.097 24.8977 197.623 25.2273 198.301C25.5606 198.979 25.7273 199.773 25.7273 200.682C25.7273 201.583 25.5606 202.371 25.2273 203.045C24.8977 203.72 24.4356 204.244 23.8409 204.619C23.25 204.994 22.5606 205.182 21.7727 205.182ZM21.7727 203.977C22.3712 203.977 22.8636 203.824 23.25 203.517C23.6364 203.21 23.9223 202.807 24.108 202.307C24.2936 201.807 24.3864 201.265 24.3864 200.682C24.3864 200.098 24.2936 199.555 24.108 199.051C23.9223 198.547 23.6364 198.14 23.25 197.83C22.8636 197.519 22.3712 197.364 21.7727 197.364C21.1742 197.364 20.6818 197.519 20.2955 197.83C19.9091 198.14 19.6231 198.547 19.4375 199.051C19.2519 199.555 19.1591 200.098 19.1591 200.682C19.1591 201.265 19.2519 201.807 19.4375 202.307C19.6231 202.807 19.9091 203.21 20.2955 203.517C20.6818 203.824 21.1742 203.977 21.7727 203.977ZM31.5696 196.273V197.409H27.0469V196.273H31.5696ZM28.3651 194.182H29.706V202.5C29.706 202.879 29.7609 203.163 29.8707 203.352C29.9844 203.538 30.1283 203.663 30.3026 203.727C30.4806 203.788 30.6681 203.818 30.8651 203.818C31.0128 203.818 31.134 203.811 31.2287 203.795C31.3234 203.777 31.3991 203.761 31.456 203.75L31.7287 204.955C31.6378 204.989 31.5109 205.023 31.348 205.057C31.1851 205.095 30.9787 205.114 30.7287 205.114C30.3499 205.114 29.9787 205.032 29.6151 204.869C29.2552 204.706 28.956 204.458 28.7173 204.125C28.4825 203.792 28.3651 203.371 28.3651 202.864V194.182ZM37.152 205.182C36.3111 205.182 35.5857 204.996 34.9759 204.625C34.3698 204.25 33.902 203.727 33.5724 203.057C33.2467 202.383 33.0838 201.598 33.0838 200.705C33.0838 199.811 33.2467 199.023 33.5724 198.341C33.902 197.655 34.3603 197.121 34.9474 196.739C35.5384 196.352 36.2277 196.159 37.0156 196.159C37.4702 196.159 37.919 196.235 38.3622 196.386C38.8054 196.538 39.2088 196.784 39.5724 197.125C39.9361 197.462 40.2259 197.909 40.4418 198.466C40.6577 199.023 40.7656 199.708 40.7656 200.523V201.091H34.0384V199.932H39.402C39.402 199.439 39.3035 199 39.1065 198.614C38.9134 198.227 38.6368 197.922 38.277 197.699C37.9209 197.475 37.5005 197.364 37.0156 197.364C36.4815 197.364 36.0194 197.496 35.6293 197.761C35.2429 198.023 34.9455 198.364 34.7372 198.784C34.5289 199.205 34.4247 199.655 34.4247 200.136V200.909C34.4247 201.568 34.5384 202.127 34.7656 202.585C34.9967 203.04 35.3168 203.386 35.7259 203.625C36.1349 203.86 36.6103 203.977 37.152 203.977C37.5043 203.977 37.8224 203.928 38.1065 203.83C38.3944 203.727 38.6425 203.576 38.8509 203.375C39.0592 203.17 39.2202 202.917 39.3338 202.614L40.6293 202.977C40.4929 203.417 40.2637 203.803 39.9418 204.136C39.6198 204.466 39.2221 204.723 38.7486 204.909C38.2751 205.091 37.7429 205.182 37.152 205.182Z" fill="#495057"/>
<rect x="8.25" y="217.25" width="232.5" height="34.5" rx="7.75" stroke="#495057" stroke-opacity="0.5" stroke-width="0.5"/>
<path d="M264 205H260.409V193.364H264.159C265.288 193.364 266.254 193.597 267.057 194.062C267.86 194.525 268.475 195.189 268.903 196.057C269.331 196.92 269.545 197.955 269.545 199.159C269.545 200.371 269.33 201.415 268.898 202.29C268.466 203.161 267.837 203.831 267.011 204.301C266.186 204.767 265.182 205 264 205ZM261.818 203.75H263.909C264.871 203.75 265.669 203.564 266.301 203.193C266.934 202.822 267.405 202.294 267.716 201.608C268.027 200.922 268.182 200.106 268.182 199.159C268.182 198.22 268.028 197.411 267.722 196.733C267.415 196.051 266.956 195.528 266.347 195.165C265.737 194.797 264.977 194.614 264.068 194.614H261.818V203.75ZM274.295 205.205C273.742 205.205 273.241 205.1 272.79 204.892C272.339 204.68 271.981 204.375 271.716 203.977C271.451 203.576 271.318 203.091 271.318 202.523C271.318 202.023 271.417 201.617 271.614 201.307C271.811 200.992 272.074 200.746 272.403 200.568C272.733 200.39 273.097 200.258 273.494 200.17C273.896 200.08 274.299 200.008 274.705 199.955C275.235 199.886 275.665 199.835 275.994 199.801C276.328 199.763 276.57 199.701 276.722 199.614C276.877 199.527 276.955 199.375 276.955 199.159V199.114C276.955 198.553 276.801 198.117 276.494 197.807C276.191 197.496 275.731 197.341 275.114 197.341C274.473 197.341 273.972 197.481 273.608 197.761C273.244 198.042 272.989 198.341 272.841 198.659L271.568 198.205C271.795 197.674 272.098 197.261 272.477 196.966C272.86 196.667 273.277 196.458 273.727 196.341C274.182 196.22 274.629 196.159 275.068 196.159C275.348 196.159 275.67 196.193 276.034 196.261C276.402 196.326 276.756 196.46 277.097 196.665C277.441 196.869 277.727 197.178 277.955 197.591C278.182 198.004 278.295 198.557 278.295 199.25V205H276.955V203.818H276.886C276.795 204.008 276.644 204.21 276.432 204.426C276.22 204.642 275.938 204.826 275.585 204.977C275.233 205.129 274.803 205.205 274.295 205.205ZM274.5 204C275.03 204 275.477 203.896 275.841 203.688C276.208 203.479 276.485 203.21 276.67 202.881C276.86 202.551 276.955 202.205 276.955 201.841V200.614C276.898 200.682 276.773 200.744 276.58 200.801C276.39 200.854 276.17 200.902 275.92 200.943C275.674 200.981 275.434 201.015 275.199 201.045C274.968 201.072 274.78 201.095 274.636 201.114C274.288 201.159 273.962 201.233 273.659 201.335C273.36 201.434 273.117 201.583 272.932 201.784C272.75 201.981 272.659 202.25 272.659 202.591C272.659 203.057 272.831 203.409 273.176 203.648C273.525 203.883 273.966 204 274.5 204ZM284.538 196.273V197.409H280.016V196.273H284.538ZM281.334 194.182H282.675V202.5C282.675 202.879 282.73 203.163 282.839 203.352C282.953 203.538 283.097 203.663 283.271 203.727C283.449 203.788 283.637 203.818 283.834 203.818C283.982 203.818 284.103 203.811 284.197 203.795C284.292 203.777 284.368 203.761 284.425 203.75L284.697 204.955C284.607 204.989 284.48 205.023 284.317 205.057C284.154 205.095 283.947 205.114 283.697 205.114C283.319 205.114 282.947 205.032 282.584 204.869C282.224 204.706 281.925 204.458 281.686 204.125C281.451 203.792 281.334 203.371 281.334 202.864V194.182ZM289.124 205.205C288.571 205.205 288.069 205.1 287.618 204.892C287.167 204.68 286.809 204.375 286.544 203.977C286.279 203.576 286.146 203.091 286.146 202.523C286.146 202.023 286.245 201.617 286.442 201.307C286.639 200.992 286.902 200.746 287.232 200.568C287.561 200.39 287.925 200.258 288.322 200.17C288.724 200.08 289.127 200.008 289.533 199.955C290.063 199.886 290.493 199.835 290.822 199.801C291.156 199.763 291.398 199.701 291.55 199.614C291.705 199.527 291.783 199.375 291.783 199.159V199.114C291.783 198.553 291.629 198.117 291.322 197.807C291.019 197.496 290.559 197.341 289.942 197.341C289.302 197.341 288.8 197.481 288.436 197.761C288.072 198.042 287.817 198.341 287.669 198.659L286.396 198.205C286.624 197.674 286.927 197.261 287.305 196.966C287.688 196.667 288.105 196.458 288.555 196.341C289.01 196.22 289.457 196.159 289.896 196.159C290.177 196.159 290.499 196.193 290.862 196.261C291.23 196.326 291.584 196.46 291.925 196.665C292.269 196.869 292.555 197.178 292.783 197.591C293.01 198.004 293.124 198.557 293.124 199.25V205H291.783V203.818H291.714C291.624 204.008 291.472 204.21 291.26 204.426C291.048 204.642 290.766 204.826 290.413 204.977C290.061 205.129 289.631 205.205 289.124 205.205ZM289.328 204C289.858 204 290.305 203.896 290.669 203.688C291.036 203.479 291.313 203.21 291.499 202.881C291.688 202.551 291.783 202.205 291.783 201.841V200.614C291.726 200.682 291.601 200.744 291.408 200.801C291.218 200.854 290.999 200.902 290.749 200.943C290.502 200.981 290.262 201.015 290.027 201.045C289.796 201.072 289.608 201.095 289.464 201.114C289.116 201.159 288.79 201.233 288.487 201.335C288.188 201.434 287.946 201.583 287.76 201.784C287.578 201.981 287.487 202.25 287.487 202.591C287.487 203.057 287.66 203.409 288.004 203.648C288.353 203.883 288.794 204 289.328 204ZM300.73 193.364L304.185 203.159H304.321L307.776 193.364H309.253L304.98 205H303.526L299.253 193.364H300.73ZM312.639 205.205C312.086 205.205 311.584 205.1 311.134 204.892C310.683 204.68 310.325 204.375 310.06 203.977C309.795 203.576 309.662 203.091 309.662 202.523C309.662 202.023 309.76 201.617 309.957 201.307C310.154 200.992 310.418 200.746 310.747 200.568C311.077 200.39 311.44 200.258 311.838 200.17C312.24 200.08 312.643 200.008 313.048 199.955C313.579 199.886 314.009 199.835 314.338 199.801C314.671 199.763 314.914 199.701 315.065 199.614C315.221 199.527 315.298 199.375 315.298 199.159V199.114C315.298 198.553 315.145 198.117 314.838 197.807C314.535 197.496 314.075 197.341 313.457 197.341C312.817 197.341 312.315 197.481 311.952 197.761C311.588 198.042 311.332 198.341 311.185 198.659L309.912 198.205C310.139 197.674 310.442 197.261 310.821 196.966C311.204 196.667 311.62 196.458 312.071 196.341C312.526 196.22 312.973 196.159 313.412 196.159C313.692 196.159 314.014 196.193 314.378 196.261C314.745 196.326 315.099 196.46 315.44 196.665C315.785 196.869 316.071 197.178 316.298 197.591C316.526 198.004 316.639 198.557 316.639 199.25V205H315.298V203.818H315.23C315.139 204.008 314.988 204.21 314.776 204.426C314.563 204.642 314.281 204.826 313.929 204.977C313.577 205.129 313.147 205.205 312.639 205.205ZM312.844 204C313.374 204 313.821 203.896 314.185 203.688C314.552 203.479 314.829 203.21 315.014 202.881C315.204 202.551 315.298 202.205 315.298 201.841V200.614C315.241 200.682 315.116 200.744 314.923 200.801C314.734 200.854 314.514 200.902 314.264 200.943C314.018 200.981 313.777 201.015 313.543 201.045C313.312 201.072 313.124 201.095 312.98 201.114C312.632 201.159 312.306 201.233 312.003 201.335C311.704 201.434 311.461 201.583 311.276 201.784C311.094 201.981 311.003 202.25 311.003 202.591C311.003 203.057 311.175 203.409 311.52 203.648C311.868 203.883 312.31 204 312.844 204ZM320.428 193.364V205H319.087V193.364H320.428ZM322.884 205V196.273H324.224V205H322.884ZM323.565 194.818C323.304 194.818 323.079 194.729 322.889 194.551C322.704 194.373 322.611 194.159 322.611 193.909C322.611 193.659 322.704 193.445 322.889 193.267C323.079 193.089 323.304 193 323.565 193C323.827 193 324.05 193.089 324.236 193.267C324.425 193.445 324.52 193.659 324.52 193.909C324.52 194.159 324.425 194.373 324.236 194.551C324.05 194.729 323.827 194.818 323.565 194.818ZM329.976 205.182C329.249 205.182 328.607 204.998 328.05 204.631C327.493 204.259 327.057 203.737 326.743 203.062C326.429 202.384 326.271 201.583 326.271 200.659C326.271 199.742 326.429 198.947 326.743 198.273C327.057 197.598 327.495 197.078 328.055 196.71C328.616 196.343 329.264 196.159 329.999 196.159C330.567 196.159 331.016 196.254 331.345 196.443C331.679 196.629 331.932 196.841 332.107 197.08C332.285 197.314 332.423 197.508 332.521 197.659H332.635V193.364H333.976V205H332.68V203.659H332.521C332.423 203.818 332.283 204.019 332.101 204.261C331.919 204.5 331.66 204.714 331.322 204.903C330.985 205.089 330.536 205.182 329.976 205.182ZM330.158 203.977C330.696 203.977 331.15 203.837 331.521 203.557C331.893 203.273 332.175 202.881 332.368 202.381C332.561 201.877 332.658 201.295 332.658 200.636C332.658 199.985 332.563 199.415 332.374 198.926C332.184 198.434 331.904 198.051 331.533 197.778C331.161 197.502 330.703 197.364 330.158 197.364C329.589 197.364 329.116 197.509 328.737 197.801C328.362 198.089 328.08 198.481 327.891 198.977C327.705 199.47 327.612 200.023 327.612 200.636C327.612 201.258 327.707 201.822 327.896 202.33C328.089 202.833 328.374 203.235 328.749 203.534C329.127 203.83 329.597 203.977 330.158 203.977ZM339.186 205.205C338.633 205.205 338.131 205.1 337.68 204.892C337.23 204.68 336.872 204.375 336.607 203.977C336.341 203.576 336.209 203.091 336.209 202.523C336.209 202.023 336.307 201.617 336.504 201.307C336.701 200.992 336.964 200.746 337.294 200.568C337.624 200.39 337.987 200.258 338.385 200.17C338.786 200.08 339.19 200.008 339.595 199.955C340.125 199.886 340.555 199.835 340.885 199.801C341.218 199.763 341.461 199.701 341.612 199.614C341.768 199.527 341.845 199.375 341.845 199.159V199.114C341.845 198.553 341.692 198.117 341.385 197.807C341.082 197.496 340.622 197.341 340.004 197.341C339.364 197.341 338.862 197.481 338.499 197.761C338.135 198.042 337.879 198.341 337.732 198.659L336.459 198.205C336.686 197.674 336.989 197.261 337.368 196.966C337.75 196.667 338.167 196.458 338.618 196.341C339.072 196.22 339.519 196.159 339.959 196.159C340.239 196.159 340.561 196.193 340.925 196.261C341.292 196.326 341.646 196.46 341.987 196.665C342.332 196.869 342.618 197.178 342.845 197.591C343.072 198.004 343.186 198.557 343.186 199.25V205H341.845V203.818H341.777C341.686 204.008 341.535 204.21 341.322 204.426C341.11 204.642 340.828 204.826 340.476 204.977C340.124 205.129 339.694 205.205 339.186 205.205ZM339.391 204C339.921 204 340.368 203.896 340.732 203.688C341.099 203.479 341.375 203.21 341.561 202.881C341.75 202.551 341.845 202.205 341.845 201.841V200.614C341.788 200.682 341.663 200.744 341.47 200.801C341.281 200.854 341.061 200.902 340.811 200.943C340.565 200.981 340.324 201.015 340.089 201.045C339.858 201.072 339.671 201.095 339.527 201.114C339.179 201.159 338.853 201.233 338.55 201.335C338.25 201.434 338.008 201.583 337.822 201.784C337.641 201.981 337.55 202.25 337.55 202.591C337.55 203.057 337.722 203.409 338.067 203.648C338.415 203.883 338.857 204 339.391 204ZM348.929 205.182C348.202 205.182 347.56 204.998 347.003 204.631C346.446 204.259 346.01 203.737 345.696 203.062C345.382 202.384 345.224 201.583 345.224 200.659C345.224 199.742 345.382 198.947 345.696 198.273C346.01 197.598 346.448 197.078 347.009 196.71C347.569 196.343 348.217 196.159 348.952 196.159C349.52 196.159 349.969 196.254 350.298 196.443C350.632 196.629 350.885 196.841 351.06 197.08C351.238 197.314 351.376 197.508 351.474 197.659H351.588V193.364H352.929V205H351.634V203.659H351.474C351.376 203.818 351.236 204.019 351.054 204.261C350.872 204.5 350.613 204.714 350.276 204.903C349.938 205.089 349.49 205.182 348.929 205.182ZM349.111 203.977C349.649 203.977 350.103 203.837 350.474 203.557C350.846 203.273 351.128 202.881 351.321 202.381C351.514 201.877 351.611 201.295 351.611 200.636C351.611 199.985 351.516 199.415 351.327 198.926C351.137 198.434 350.857 198.051 350.486 197.778C350.115 197.502 349.656 197.364 349.111 197.364C348.543 197.364 348.069 197.509 347.69 197.801C347.315 198.089 347.033 198.481 346.844 198.977C346.658 199.47 346.565 200.023 346.565 200.636C346.565 201.258 346.66 201.822 346.849 202.33C347.043 202.833 347.327 203.235 347.702 203.534C348.08 203.83 348.55 203.977 349.111 203.977ZM359.23 205.182C358.389 205.182 357.664 204.996 357.054 204.625C356.448 204.25 355.98 203.727 355.651 203.057C355.325 202.383 355.162 201.598 355.162 200.705C355.162 199.811 355.325 199.023 355.651 198.341C355.98 197.655 356.438 197.121 357.026 196.739C357.616 196.352 358.306 196.159 359.094 196.159C359.548 196.159 359.997 196.235 360.44 196.386C360.884 196.538 361.287 196.784 361.651 197.125C362.014 197.462 362.304 197.909 362.52 198.466C362.736 199.023 362.844 199.708 362.844 200.523V201.091H356.116V199.932H361.48C361.48 199.439 361.382 199 361.185 198.614C360.991 198.227 360.715 197.922 360.355 197.699C359.999 197.475 359.579 197.364 359.094 197.364C358.56 197.364 358.098 197.496 357.707 197.761C357.321 198.023 357.024 198.364 356.815 198.784C356.607 199.205 356.503 199.655 356.503 200.136V200.909C356.503 201.568 356.616 202.127 356.844 202.585C357.075 203.04 357.395 203.386 357.804 203.625C358.213 203.86 358.688 203.977 359.23 203.977C359.582 203.977 359.901 203.928 360.185 203.83C360.473 203.727 360.721 203.576 360.929 203.375C361.137 203.17 361.298 202.917 361.412 202.614L362.707 202.977C362.571 203.417 362.342 203.803 362.02 204.136C361.698 204.466 361.3 204.723 360.827 204.909C360.353 205.091 359.821 205.182 359.23 205.182ZM369.861 200.091C369.861 198.659 370.046 197.343 370.418 196.142C370.793 194.937 371.327 193.83 372.02 192.818H373.202C372.929 193.193 372.673 193.655 372.435 194.205C372.2 194.75 371.993 195.35 371.815 196.006C371.637 196.657 371.497 197.331 371.395 198.028C371.296 198.725 371.247 199.413 371.247 200.091C371.247 200.992 371.334 201.907 371.509 202.835C371.683 203.763 371.918 204.625 372.213 205.42C372.509 206.216 372.838 206.864 373.202 207.364H372.02C371.327 206.352 370.793 205.246 370.418 204.045C370.046 202.841 369.861 201.523 369.861 200.091ZM376.044 208.273C375.817 208.273 375.614 208.254 375.436 208.216C375.258 208.182 375.135 208.148 375.067 208.114L375.408 206.932C375.733 207.015 376.021 207.045 376.271 207.023C376.521 207 376.743 206.888 376.936 206.688C377.133 206.491 377.313 206.17 377.476 205.727L377.726 205.045L374.499 196.273H375.953L378.362 203.227H378.453L380.862 196.273H382.317L378.612 206.273C378.446 206.723 378.239 207.097 377.993 207.392C377.747 207.691 377.461 207.913 377.135 208.057C376.813 208.201 376.449 208.273 376.044 208.273ZM384.95 208.273C384.723 208.273 384.52 208.254 384.342 208.216C384.164 208.182 384.041 208.148 383.973 208.114L384.314 206.932C384.64 207.015 384.928 207.045 385.178 207.023C385.428 207 385.649 206.888 385.842 206.688C386.039 206.491 386.219 206.17 386.382 205.727L386.632 205.045L383.405 196.273H384.859L387.268 203.227H387.359L389.768 196.273H391.223L387.518 206.273C387.352 206.723 387.145 207.097 386.899 207.392C386.653 207.691 386.367 207.913 386.041 208.057C385.719 208.201 385.356 208.273 384.95 208.273ZM393.857 208.273C393.629 208.273 393.427 208.254 393.249 208.216C393.071 208.182 392.947 208.148 392.879 208.114L393.22 206.932C393.546 207.015 393.834 207.045 394.084 207.023C394.334 207 394.555 206.888 394.749 206.688C394.946 206.491 395.125 206.17 395.288 205.727L395.538 205.045L392.311 196.273H393.766L396.175 203.227H396.266L398.675 196.273H400.129L396.425 206.273C396.258 206.723 396.052 207.097 395.805 207.392C395.559 207.691 395.273 207.913 394.947 208.057C394.625 208.201 394.262 208.273 393.857 208.273ZM402.763 208.273C402.536 208.273 402.333 208.254 402.155 208.216C401.977 208.182 401.854 208.148 401.786 208.114L402.126 206.932C402.452 207.015 402.74 207.045 402.99 207.023C403.24 207 403.462 206.888 403.655 206.688C403.852 206.491 404.032 206.17 404.195 205.727L404.445 205.045L401.217 196.273H402.672L405.081 203.227H405.172L407.581 196.273H409.036L405.331 206.273C405.164 206.723 404.958 207.097 404.712 207.392C404.465 207.691 404.179 207.913 403.854 208.057C403.532 208.201 403.168 208.273 402.763 208.273ZM415.805 199.386V200.636H410.714V199.386H415.805ZM418.347 193.364H420.028L423.983 203.023H424.119L428.074 193.364H429.756V205H428.438V196.159H428.324L424.688 205H423.415L419.778 196.159H419.665V205H418.347V193.364ZM432.581 193.364H434.263L438.217 203.023H438.354L442.308 193.364H443.99V205H442.672V196.159H442.558L438.922 205H437.649L434.013 196.159H433.899V205H432.581V193.364ZM451.634 199.386V200.636H446.543V199.386H451.634ZM457.288 205.182C456.561 205.182 455.919 204.998 455.362 204.631C454.805 204.259 454.37 203.737 454.055 203.062C453.741 202.384 453.584 201.583 453.584 200.659C453.584 199.742 453.741 198.947 454.055 198.273C454.37 197.598 454.807 197.078 455.368 196.71C455.929 196.343 456.576 196.159 457.311 196.159C457.879 196.159 458.328 196.254 458.658 196.443C458.991 196.629 459.245 196.841 459.419 197.08C459.597 197.314 459.735 197.508 459.834 197.659H459.947V193.364H461.288V205H459.993V203.659H459.834C459.735 203.818 459.595 204.019 459.413 204.261C459.232 204.5 458.972 204.714 458.635 204.903C458.298 205.089 457.849 205.182 457.288 205.182ZM457.47 203.977C458.008 203.977 458.463 203.837 458.834 203.557C459.205 203.273 459.487 202.881 459.68 202.381C459.874 201.877 459.97 201.295 459.97 200.636C459.97 199.985 459.875 199.415 459.686 198.926C459.497 198.434 459.216 198.051 458.845 197.778C458.474 197.502 458.016 197.364 457.47 197.364C456.902 197.364 456.429 197.509 456.05 197.801C455.675 198.089 455.393 198.481 455.203 198.977C455.018 199.47 454.925 200.023 454.925 200.636C454.925 201.258 455.019 201.822 455.209 202.33C455.402 202.833 455.686 203.235 456.061 203.534C456.44 203.83 456.91 203.977 457.47 203.977ZM467.226 205.182C466.499 205.182 465.857 204.998 465.3 204.631C464.743 204.259 464.307 203.737 463.993 203.062C463.679 202.384 463.521 201.583 463.521 200.659C463.521 199.742 463.679 198.947 463.993 198.273C464.307 197.598 464.745 197.078 465.305 196.71C465.866 196.343 466.514 196.159 467.249 196.159C467.817 196.159 468.266 196.254 468.595 196.443C468.929 196.629 469.182 196.841 469.357 197.08C469.535 197.314 469.673 197.508 469.771 197.659H469.885V193.364H471.226V205H469.93V203.659H469.771C469.673 203.818 469.533 204.019 469.351 204.261C469.169 204.5 468.91 204.714 468.572 204.903C468.235 205.089 467.786 205.182 467.226 205.182ZM467.408 203.977C467.946 203.977 468.4 203.837 468.771 203.557C469.143 203.273 469.425 202.881 469.618 202.381C469.811 201.877 469.908 201.295 469.908 200.636C469.908 199.985 469.813 199.415 469.624 198.926C469.434 198.434 469.154 198.051 468.783 197.778C468.411 197.502 467.953 197.364 467.408 197.364C466.839 197.364 466.366 197.509 465.987 197.801C465.612 198.089 465.33 198.481 465.141 198.977C464.955 199.47 464.862 200.023 464.862 200.636C464.862 201.258 464.957 201.822 465.146 202.33C465.339 202.833 465.624 203.235 465.999 203.534C466.377 203.83 466.847 203.977 467.408 203.977ZM476.732 200.091C476.732 201.523 476.544 202.841 476.169 204.045C475.798 205.246 475.266 206.352 474.572 207.364H473.391C473.663 206.989 473.917 206.527 474.152 205.977C474.391 205.432 474.599 204.833 474.777 204.182C474.955 203.527 475.093 202.85 475.192 202.153C475.294 201.453 475.345 200.765 475.345 200.091C475.345 199.189 475.258 198.275 475.084 197.347C474.91 196.419 474.675 195.557 474.379 194.761C474.084 193.966 473.754 193.318 473.391 192.818H474.572C475.266 193.83 475.798 194.937 476.169 196.142C476.544 197.343 476.732 198.659 476.732 200.091Z" fill="#495057"/>
<rect x="259.25" y="217.25" width="232.5" height="34.5" rx="7.75" stroke="#495057" stroke-opacity="0.5" stroke-width="0.5"/>
<rect x="8" y="341" width="234" height="40" rx="12" fill="#FFE4AB"/>
<path d="M57.5043 366.5V356.318H61.402C62.1378 356.318 62.7493 356.434 63.2365 356.666C63.727 356.895 64.0933 357.208 64.3352 357.606C64.5805 358.004 64.7031 358.454 64.7031 358.958C64.7031 359.372 64.6236 359.727 64.4645 360.022C64.3054 360.314 64.0916 360.551 63.8232 360.733C63.5547 360.915 63.2547 361.046 62.9233 361.126V361.225C63.2846 361.245 63.6309 361.356 63.9624 361.558C64.2971 361.757 64.5705 362.039 64.7827 362.403C64.9948 362.768 65.1009 363.209 65.1009 363.726C65.1009 364.253 64.9732 364.727 64.718 365.148C64.4628 365.565 64.0784 365.895 63.5646 366.137C63.0509 366.379 62.4046 366.5 61.6257 366.5H57.5043ZM59.3487 364.959H61.3324C62.0019 364.959 62.4841 364.831 62.7791 364.576C63.0774 364.317 63.2266 363.986 63.2266 363.582C63.2266 363.28 63.152 363.008 63.0028 362.766C62.8537 362.521 62.6416 362.329 62.3665 362.19C62.0914 362.047 61.7633 361.976 61.3821 361.976H59.3487V364.959ZM59.3487 360.648H61.1733C61.4915 360.648 61.7782 360.59 62.0334 360.474C62.2886 360.355 62.4891 360.188 62.6349 359.972C62.7841 359.754 62.8587 359.495 62.8587 359.197C62.8587 358.802 62.7195 358.478 62.4411 358.222C62.166 357.967 61.7566 357.839 61.2131 357.839H59.3487V360.648ZM71.4931 363.288V358.864H73.2928V366.5H71.5478V365.143H71.4682C71.2959 365.57 71.0125 365.92 70.6181 366.192C70.227 366.464 69.7447 366.599 69.1713 366.599C68.6709 366.599 68.2284 366.488 67.8439 366.266C67.4628 366.041 67.1645 365.714 66.949 365.287C66.7336 364.856 66.6259 364.336 66.6259 363.726V358.864H68.4256V363.447C68.4256 363.931 68.5582 364.316 68.8233 364.601C69.0885 364.886 69.4365 365.028 69.8674 365.028C70.1325 365.028 70.3894 364.964 70.638 364.835C70.8865 364.705 71.0904 364.513 71.2495 364.258C71.4119 363.999 71.4931 363.676 71.4931 363.288ZM81.179 360.882L79.5384 361.061C79.492 360.895 79.4107 360.74 79.2947 360.594C79.1821 360.448 79.0296 360.33 78.8374 360.241C78.6451 360.151 78.4098 360.107 78.1314 360.107C77.7569 360.107 77.442 360.188 77.1868 360.35C76.9349 360.513 76.8106 360.723 76.8139 360.982C76.8106 361.204 76.8918 361.384 77.0575 361.523C77.2266 361.663 77.505 361.777 77.8928 361.866L79.1953 362.145C79.9179 362.301 80.4548 362.548 80.8061 362.886C81.1607 363.224 81.3397 363.666 81.343 364.213C81.3397 364.694 81.1989 365.118 80.9205 365.486C80.6454 365.85 80.2625 366.135 79.772 366.341C79.2815 366.546 78.718 366.649 78.0817 366.649C77.147 366.649 76.3946 366.454 75.8246 366.062C75.2545 365.668 74.9148 365.12 74.8054 364.417L76.5604 364.248C76.6399 364.593 76.8089 364.853 77.0675 365.028C77.326 365.204 77.6624 365.292 78.0767 365.292C78.5043 365.292 78.8473 365.204 79.1058 365.028C79.3677 364.853 79.4986 364.636 79.4986 364.377C79.4986 364.158 79.4141 363.978 79.245 363.835C79.0793 363.693 78.8208 363.583 78.4695 363.507L77.1669 363.234C76.4344 363.081 75.8925 362.824 75.5412 362.463C75.1899 362.098 75.0159 361.638 75.0192 361.081C75.0159 360.61 75.1435 360.203 75.402 359.858C75.6638 359.51 76.0268 359.241 76.4908 359.053C76.9581 358.86 77.4967 358.764 78.1065 358.764C79.0014 358.764 79.7057 358.955 80.2195 359.336C80.7365 359.717 81.0563 360.232 81.179 360.882ZM86.158 366.649C85.3957 366.649 84.7411 366.482 84.1942 366.147C83.6507 365.812 83.2314 365.35 82.9364 364.76C82.6448 364.167 82.4989 363.484 82.4989 362.712C82.4989 361.936 82.6481 361.252 82.9464 360.658C83.2447 360.062 83.6656 359.598 84.2092 359.266C84.756 358.932 85.4023 358.764 86.1481 358.764C86.7679 358.764 87.3164 358.879 87.7937 359.107C88.2743 359.333 88.6571 359.652 88.9421 360.067C89.2272 360.478 89.3896 360.958 89.4293 361.509H87.7092C87.6396 361.141 87.4738 360.834 87.212 360.589C86.9535 360.34 86.6071 360.216 86.1729 360.216C85.805 360.216 85.4819 360.315 85.2035 360.514C84.9251 360.71 84.708 360.991 84.5522 361.359C84.3997 361.727 84.3235 362.168 84.3235 362.682C84.3235 363.202 84.3997 363.65 84.5522 364.024C84.7047 364.395 84.9184 364.682 85.1935 364.884C85.4719 365.083 85.7984 365.183 86.1729 365.183C86.4381 365.183 86.6751 365.133 86.8839 365.033C87.096 364.931 87.2733 364.783 87.4158 364.591C87.5584 364.399 87.6561 364.165 87.7092 363.89H89.4293C89.3862 364.43 89.2272 364.909 88.9521 365.327C88.677 365.741 88.3024 366.066 87.8285 366.301C87.3545 366.533 86.7977 366.649 86.158 366.649ZM93.1046 366.654C92.6207 366.654 92.1848 366.568 91.7971 366.396C91.4126 366.22 91.1077 365.961 90.8823 365.62C90.6602 365.279 90.5492 364.858 90.5492 364.357C90.5492 363.926 90.6287 363.57 90.7878 363.288C90.9469 363.007 91.164 362.781 91.4391 362.612C91.7142 362.443 92.0241 362.316 92.3688 362.229C92.7168 362.14 93.0764 362.075 93.4476 362.036C93.8951 361.989 94.258 361.948 94.5364 361.911C94.8148 361.871 95.017 361.812 95.1429 361.732C95.2722 361.649 95.3368 361.522 95.3368 361.349V361.32C95.3368 360.945 95.2258 360.655 95.0037 360.45C94.7817 360.244 94.4618 360.141 94.0442 360.141C93.6034 360.141 93.2537 360.237 92.9952 360.43C92.74 360.622 92.5676 360.849 92.4782 361.111L90.7978 360.872C90.9303 360.408 91.1491 360.02 91.454 359.709C91.7589 359.394 92.1318 359.159 92.5726 359.003C93.0134 358.844 93.5007 358.764 94.0343 358.764C94.4022 358.764 94.7684 358.807 95.133 358.893C95.4976 358.98 95.8307 359.122 96.1323 359.321C96.4339 359.517 96.6758 359.783 96.8581 360.121C97.0437 360.46 97.1365 360.882 97.1365 361.389V366.5H95.4064V365.451H95.3468C95.2374 365.663 95.0833 365.862 94.8844 366.048C94.6889 366.23 94.4419 366.377 94.1436 366.49C93.8487 366.599 93.5023 366.654 93.1046 366.654ZM93.5719 365.332C93.9332 365.332 94.2464 365.26 94.5115 365.118C94.7767 364.972 94.9805 364.78 95.123 364.541C95.2689 364.303 95.3418 364.042 95.3418 363.761V362.861C95.2855 362.907 95.1893 362.95 95.0534 362.99C94.9209 363.03 94.7717 363.065 94.606 363.094C94.4403 363.124 94.2762 363.151 94.1138 363.174C93.9514 363.197 93.8105 363.217 93.6912 363.234C93.4228 363.27 93.1825 363.33 92.9703 363.413C92.7582 363.496 92.5909 363.612 92.4682 363.761C92.3456 363.906 92.2843 364.095 92.2843 364.327C92.2843 364.659 92.4052 364.909 92.6472 365.078C92.8891 365.247 93.1974 365.332 93.5719 365.332ZM98.9462 366.5V358.864H100.691V360.136H100.771C100.91 359.696 101.149 359.356 101.487 359.117C101.828 358.875 102.218 358.754 102.655 358.754C102.754 358.754 102.865 358.759 102.988 358.769C103.114 358.776 103.218 358.787 103.301 358.804V360.46C103.225 360.433 103.104 360.41 102.938 360.39C102.776 360.367 102.619 360.355 102.466 360.355C102.138 360.355 101.843 360.426 101.581 360.569C101.323 360.708 101.119 360.902 100.97 361.151C100.82 361.399 100.746 361.686 100.746 362.011V366.5H98.9462ZM108.049 366.5V356.318H111.867C112.65 356.318 113.306 356.464 113.836 356.756C114.37 357.047 114.772 357.448 115.044 357.959C115.319 358.466 115.457 359.043 115.457 359.689C115.457 360.342 115.319 360.922 115.044 361.429C114.769 361.936 114.363 362.335 113.826 362.627C113.289 362.915 112.628 363.06 111.843 363.06H109.312V361.543H111.594C112.051 361.543 112.426 361.464 112.718 361.305C113.009 361.146 113.225 360.927 113.364 360.648C113.506 360.37 113.578 360.05 113.578 359.689C113.578 359.328 113.506 359.009 113.364 358.734C113.225 358.459 113.008 358.246 112.713 358.093C112.421 357.937 112.045 357.859 111.584 357.859H109.894V366.5H108.049ZM116.979 366.5V358.864H118.724V360.136H118.804C118.943 359.696 119.182 359.356 119.52 359.117C119.861 358.875 120.251 358.754 120.688 358.754C120.788 358.754 120.899 358.759 121.021 358.769C121.147 358.776 121.252 358.787 121.335 358.804V360.46C121.258 360.433 121.137 360.41 120.972 360.39C120.809 360.367 120.652 360.355 120.499 360.355C120.171 360.355 119.876 360.426 119.614 360.569C119.356 360.708 119.152 360.902 119.003 361.151C118.854 361.399 118.779 361.686 118.779 362.011V366.5H116.979ZM125.547 366.649C124.801 366.649 124.155 366.485 123.608 366.157C123.061 365.829 122.637 365.37 122.335 364.78C122.037 364.19 121.888 363.5 121.888 362.712C121.888 361.923 122.037 361.232 122.335 360.638C122.637 360.045 123.061 359.585 123.608 359.256C124.155 358.928 124.801 358.764 125.547 358.764C126.292 358.764 126.939 358.928 127.486 359.256C128.032 359.585 128.455 360.045 128.753 360.638C129.055 361.232 129.206 361.923 129.206 362.712C129.206 363.5 129.055 364.19 128.753 364.78C128.455 365.37 128.032 365.829 127.486 366.157C126.939 366.485 126.292 366.649 125.547 366.649ZM125.557 365.207C125.961 365.207 126.299 365.096 126.571 364.874C126.843 364.649 127.045 364.347 127.177 363.969C127.313 363.592 127.381 363.171 127.381 362.707C127.381 362.239 127.313 361.817 127.177 361.439C127.045 361.058 126.843 360.754 126.571 360.529C126.299 360.304 125.961 360.191 125.557 360.191C125.142 360.191 124.798 360.304 124.523 360.529C124.251 360.754 124.047 361.058 123.911 361.439C123.778 361.817 123.712 362.239 123.712 362.707C123.712 363.171 123.778 363.592 123.911 363.969C124.047 364.347 124.251 364.649 124.523 364.874C124.798 365.096 125.142 365.207 125.557 365.207ZM133.567 366.634C132.967 366.634 132.43 366.48 131.956 366.172C131.482 365.864 131.108 365.416 130.833 364.83C130.558 364.243 130.42 363.53 130.42 362.692C130.42 361.843 130.559 361.127 130.838 360.544C131.119 359.957 131.499 359.515 131.976 359.217C132.453 358.915 132.985 358.764 133.572 358.764C134.02 358.764 134.387 358.84 134.676 358.993C134.964 359.142 135.193 359.323 135.362 359.535C135.531 359.744 135.662 359.941 135.755 360.126H135.829V356.318H137.634V366.5H135.864V365.297H135.755C135.662 365.482 135.528 365.68 135.352 365.888C135.176 366.094 134.944 366.27 134.656 366.415C134.368 366.561 134.005 366.634 133.567 366.634ZM134.069 365.158C134.45 365.158 134.775 365.055 135.044 364.849C135.312 364.641 135.516 364.351 135.655 363.979C135.794 363.608 135.864 363.176 135.864 362.682C135.864 362.188 135.794 361.759 135.655 361.394C135.519 361.03 135.317 360.746 135.049 360.544C134.783 360.342 134.457 360.241 134.069 360.241C133.668 360.241 133.333 360.345 133.065 360.554C132.797 360.763 132.594 361.051 132.458 361.419C132.323 361.787 132.255 362.208 132.255 362.682C132.255 363.159 132.323 363.585 132.458 363.96C132.598 364.331 132.801 364.624 133.07 364.839C133.342 365.052 133.675 365.158 134.069 365.158ZM144.419 363.288V358.864H146.219V366.5H144.474V365.143H144.394C144.222 365.57 143.938 365.92 143.544 366.192C143.153 366.464 142.671 366.599 142.097 366.599C141.597 366.599 141.154 366.488 140.77 366.266C140.389 366.041 140.09 365.714 139.875 365.287C139.659 364.856 139.552 364.336 139.552 363.726V358.864H141.351V363.447C141.351 363.931 141.484 364.316 141.749 364.601C142.014 364.886 142.362 365.028 142.793 365.028C143.058 365.028 143.315 364.964 143.564 364.835C143.812 364.705 144.016 364.513 144.175 364.258C144.338 363.999 144.419 363.676 144.419 363.288ZM151.882 358.864V360.256H147.493V358.864H151.882ZM148.576 357.034H150.376V364.203C150.376 364.445 150.413 364.631 150.485 364.76C150.562 364.886 150.661 364.972 150.784 365.018C150.906 365.065 151.042 365.088 151.191 365.088C151.304 365.088 151.407 365.08 151.5 365.063C151.596 365.047 151.669 365.032 151.718 365.018L152.022 366.425C151.926 366.459 151.788 366.495 151.609 366.535C151.433 366.575 151.218 366.598 150.963 366.604C150.512 366.618 150.106 366.55 149.745 366.401C149.383 366.248 149.097 366.013 148.885 365.695C148.676 365.376 148.573 364.979 148.576 364.501V357.034ZM156.637 366.649C155.891 366.649 155.244 366.485 154.698 366.157C154.151 365.829 153.727 365.37 153.425 364.78C153.127 364.19 152.977 363.5 152.977 362.712C152.977 361.923 153.127 361.232 153.425 360.638C153.727 360.045 154.151 359.585 154.698 359.256C155.244 358.928 155.891 358.764 156.637 358.764C157.382 358.764 158.029 358.928 158.575 359.256C159.122 359.585 159.545 360.045 159.843 360.638C160.145 361.232 160.296 361.923 160.296 362.712C160.296 363.5 160.145 364.19 159.843 364.78C159.545 365.37 159.122 365.829 158.575 366.157C158.029 366.485 157.382 366.649 156.637 366.649ZM156.646 365.207C157.051 365.207 157.389 365.096 157.661 364.874C157.932 364.649 158.135 364.347 158.267 363.969C158.403 363.592 158.471 363.171 158.471 362.707C158.471 362.239 158.403 361.817 158.267 361.439C158.135 361.058 157.932 360.754 157.661 360.529C157.389 360.304 157.051 360.191 156.646 360.191C156.232 360.191 155.887 360.304 155.612 360.529C155.341 360.754 155.137 361.058 155.001 361.439C154.868 361.817 154.802 362.239 154.802 362.707C154.802 363.171 154.868 363.592 155.001 363.969C155.137 364.347 155.341 364.649 155.612 364.874C155.887 365.096 156.232 365.207 156.646 365.207Z" fill="#655A44"/>
<path fill-rule="evenodd" clip-rule="evenodd" d="M180 352.75C179.114 352.75 178.236 352.925 177.417 353.264C176.598 353.603 175.854 354.1 175.227 354.727C174.6 355.354 174.103 356.098 173.764 356.917C173.425 357.736 173.25 358.614 173.25 359.5C173.25 360.386 173.425 361.264 173.764 362.083C174.103 362.902 174.6 363.646 175.227 364.273C175.854 364.9 176.598 365.397 177.417 365.736C178.236 366.075 179.114 366.25 180 366.25C181.79 366.25 183.507 365.539 184.773 364.273C186.039 363.007 186.75 361.29 186.75 359.5C186.75 357.71 186.039 355.993 184.773 354.727C183.507 353.461 181.79 352.75 180 352.75ZM171.75 359.5C171.75 358.175 172.069 356.87 172.681 355.694C173.292 354.519 174.178 353.508 175.262 352.747C176.347 351.986 177.599 351.498 178.912 351.323C180.225 351.148 181.562 351.293 182.807 351.743C184.053 352.194 185.172 352.939 186.07 353.913C186.967 354.888 187.616 356.065 187.963 357.343C188.309 358.622 188.343 359.966 188.06 361.26C187.778 362.554 187.188 363.762 186.34 364.78L191.03 369.47C191.104 369.539 191.163 369.621 191.204 369.713C191.245 369.805 191.267 369.905 191.269 370.005C191.27 370.106 191.252 370.206 191.214 370.3C191.176 370.393 191.12 370.478 191.049 370.549C190.978 370.62 190.893 370.676 190.8 370.714C190.706 370.752 190.606 370.77 190.505 370.769C190.405 370.767 190.305 370.745 190.213 370.704C190.121 370.663 190.039 370.604 189.97 370.53L185.28 365.84C184.075 366.844 182.609 367.483 181.054 367.683C179.499 367.884 177.919 367.637 176.499 366.971C175.08 366.306 173.879 365.25 173.038 363.927C172.196 362.604 171.75 361.068 171.75 359.5Z" fill="#655A44"/>
<rect x="258" y="341" width="234" height="40" rx="12" fill="#0071E3"/>
<path d="M302.312 366.5H300.343L303.928 356.318H306.205L309.794 366.5H307.825L305.106 358.406H305.026L302.312 366.5ZM302.376 362.508H307.746V363.989H302.376V362.508ZM314.39 358.864V360.256H310V358.864H314.39ZM311.084 357.034H312.884V364.203C312.884 364.445 312.92 364.631 312.993 364.76C313.069 364.886 313.169 364.972 313.292 365.018C313.414 365.065 313.55 365.088 313.699 365.088C313.812 365.088 313.915 365.08 314.007 365.063C314.104 365.047 314.176 365.032 314.226 365.018L314.529 366.425C314.433 366.459 314.296 366.495 314.117 366.535C313.941 366.575 313.726 366.598 313.471 366.604C313.02 366.618 312.614 366.55 312.252 366.401C311.891 366.248 311.605 366.013 311.392 365.695C311.184 365.376 311.081 364.979 311.084 364.501V357.034ZM320.763 363.288V358.864H322.562V366.5H320.817V365.143H320.738C320.565 365.57 320.282 365.92 319.888 366.192C319.497 366.464 319.014 366.599 318.441 366.599C317.94 366.599 317.498 366.488 317.113 366.266C316.732 366.041 316.434 365.714 316.219 365.287C316.003 364.856 315.895 364.336 315.895 363.726V358.864H317.695V363.447C317.695 363.931 317.828 364.316 318.093 364.601C318.358 364.886 318.706 365.028 319.137 365.028C319.402 365.028 319.659 364.964 319.907 364.835C320.156 364.705 320.36 364.513 320.519 364.258C320.681 363.999 320.763 363.676 320.763 363.288ZM326.61 366.654C326.127 366.654 325.691 366.568 325.303 366.396C324.918 366.22 324.614 365.961 324.388 365.62C324.166 365.279 324.055 364.858 324.055 364.357C324.055 363.926 324.135 363.57 324.294 363.288C324.453 363.007 324.67 362.781 324.945 362.612C325.22 362.443 325.53 362.316 325.875 362.229C326.223 362.14 326.582 362.075 326.953 362.036C327.401 361.989 327.764 361.948 328.042 361.911C328.321 361.871 328.523 361.812 328.649 361.732C328.778 361.649 328.843 361.522 328.843 361.349V361.32C328.843 360.945 328.732 360.655 328.51 360.45C328.288 360.244 327.968 360.141 327.55 360.141C327.109 360.141 326.76 360.237 326.501 360.43C326.246 360.622 326.074 360.849 325.984 361.111L324.304 360.872C324.436 360.408 324.655 360.02 324.96 359.709C325.265 359.394 325.638 359.159 326.078 359.003C326.519 358.844 327.007 358.764 327.54 358.764C327.908 358.764 328.274 358.807 328.639 358.893C329.003 358.98 329.337 359.122 329.638 359.321C329.94 359.517 330.182 359.783 330.364 360.121C330.55 360.46 330.642 360.882 330.642 361.389V366.5H328.912V365.451H328.853C328.743 365.663 328.589 365.862 328.39 366.048C328.195 366.23 327.948 366.377 327.65 366.49C327.355 366.599 327.008 366.654 326.61 366.654ZM327.078 365.332C327.439 365.332 327.752 365.26 328.017 365.118C328.283 364.972 328.486 364.78 328.629 364.541C328.775 364.303 328.848 364.042 328.848 363.761V362.861C328.791 362.907 328.695 362.95 328.559 362.99C328.427 363.03 328.278 363.065 328.112 363.094C327.946 363.124 327.782 363.151 327.62 363.174C327.457 363.197 327.316 363.217 327.197 363.234C326.929 363.27 326.688 363.33 326.476 363.413C326.264 363.496 326.097 363.612 325.974 363.761C325.851 363.906 325.79 364.095 325.79 364.327C325.79 364.659 325.911 364.909 326.153 365.078C326.395 365.247 326.703 365.332 327.078 365.332ZM334.252 356.318V366.5H332.452V356.318H334.252ZM336.102 366.5V358.864H337.902V366.5H336.102ZM337.007 357.78C336.722 357.78 336.477 357.685 336.271 357.496C336.066 357.304 335.963 357.074 335.963 356.805C335.963 356.534 336.066 356.303 336.271 356.114C336.477 355.922 336.722 355.826 337.007 355.826C337.296 355.826 337.541 355.922 337.743 356.114C337.949 356.303 338.051 356.534 338.051 356.805C338.051 357.074 337.949 357.304 337.743 357.496C337.541 357.685 337.296 357.78 337.007 357.78ZM339.653 366.5V365.357L343.591 360.42V360.355H339.783V358.864H345.793V360.092L342.045 364.944V365.009H345.923V366.5H339.653ZM349.812 366.654C349.328 366.654 348.892 366.568 348.504 366.396C348.12 366.22 347.815 365.961 347.589 365.62C347.367 365.279 347.256 364.858 347.256 364.357C347.256 363.926 347.336 363.57 347.495 363.288C347.654 363.007 347.871 362.781 348.146 362.612C348.421 362.443 348.731 362.316 349.076 362.229C349.424 362.14 349.783 362.075 350.155 362.036C350.602 361.989 350.965 361.948 351.243 361.911C351.522 361.871 351.724 361.812 351.85 361.732C351.979 361.649 352.044 361.522 352.044 361.349V361.32C352.044 360.945 351.933 360.655 351.711 360.45C351.489 360.244 351.169 360.141 350.751 360.141C350.31 360.141 349.961 360.237 349.702 360.43C349.447 360.622 349.275 360.849 349.185 361.111L347.505 360.872C347.637 360.408 347.856 360.02 348.161 359.709C348.466 359.394 348.839 359.159 349.28 359.003C349.72 358.844 350.208 358.764 350.741 358.764C351.109 358.764 351.475 358.807 351.84 358.893C352.205 358.98 352.538 359.122 352.839 359.321C353.141 359.517 353.383 359.783 353.565 360.121C353.751 360.46 353.844 360.882 353.844 361.389V366.5H352.113V365.451H352.054C351.944 365.663 351.79 365.862 351.591 366.048C351.396 366.23 351.149 366.377 350.851 366.49C350.556 366.599 350.209 366.654 349.812 366.654ZM350.279 365.332C350.64 365.332 350.953 365.26 351.219 365.118C351.484 364.972 351.688 364.78 351.83 364.541C351.976 364.303 352.049 364.042 352.049 363.761V362.861C351.992 362.907 351.896 362.95 351.76 362.99C351.628 363.03 351.479 363.065 351.313 363.094C351.147 363.124 350.983 363.151 350.821 363.174C350.658 363.197 350.518 363.217 350.398 363.234C350.13 363.27 349.89 363.33 349.677 363.413C349.465 363.496 349.298 363.612 349.175 363.761C349.053 363.906 348.991 364.095 348.991 364.327C348.991 364.659 349.112 364.909 349.354 365.078C349.596 365.247 349.904 365.332 350.279 365.332ZM355.653 366.5V358.864H357.398V360.136H357.478C357.617 359.696 357.856 359.356 358.194 359.117C358.535 358.875 358.925 358.754 359.362 358.754C359.461 358.754 359.573 358.759 359.695 358.769C359.821 358.776 359.925 358.787 360.008 358.804V360.46C359.932 360.433 359.811 360.41 359.645 360.39C359.483 360.367 359.326 360.355 359.173 360.355C358.845 360.355 358.55 360.426 358.288 360.569C358.03 360.708 357.826 360.902 357.677 361.151C357.528 361.399 357.453 361.686 357.453 362.011V366.5H355.653ZM364.756 366.5V356.318H368.574C369.357 356.318 370.013 356.464 370.543 356.756C371.077 357.047 371.479 357.448 371.751 357.959C372.026 358.466 372.164 359.043 372.164 359.689C372.164 360.342 372.026 360.922 371.751 361.429C371.476 361.936 371.07 362.335 370.533 362.627C369.996 362.915 369.335 363.06 368.55 363.06H366.019V361.543H368.301C368.758 361.543 369.133 361.464 369.425 361.305C369.716 361.146 369.932 360.927 370.071 360.648C370.213 360.37 370.285 360.05 370.285 359.689C370.285 359.328 370.213 359.009 370.071 358.734C369.932 358.459 369.715 358.246 369.42 358.093C369.128 357.937 368.752 357.859 368.291 357.859H366.601V366.5H364.756ZM373.686 366.5V358.864H375.431V360.136H375.511C375.65 359.696 375.889 359.356 376.227 359.117C376.568 358.875 376.958 358.754 377.395 358.754C377.495 358.754 377.606 358.759 377.728 358.769C377.854 358.776 377.959 358.787 378.042 358.804V360.46C377.965 360.433 377.844 360.41 377.679 360.39C377.516 360.367 377.359 360.355 377.206 360.355C376.878 360.355 376.583 360.426 376.321 360.569C376.063 360.708 375.859 360.902 375.71 361.151C375.561 361.399 375.486 361.686 375.486 362.011V366.5H373.686ZM382.254 366.649C381.508 366.649 380.862 366.485 380.315 366.157C379.768 365.829 379.344 365.37 379.042 364.78C378.744 364.19 378.595 363.5 378.595 362.712C378.595 361.923 378.744 361.232 379.042 360.638C379.344 360.045 379.768 359.585 380.315 359.256C380.862 358.928 381.508 358.764 382.254 358.764C382.999 358.764 383.646 358.928 384.193 359.256C384.74 359.585 385.162 360.045 385.46 360.638C385.762 361.232 385.913 361.923 385.913 362.712C385.913 363.5 385.762 364.19 385.46 364.78C385.162 365.37 384.74 365.829 384.193 366.157C383.646 366.485 382.999 366.649 382.254 366.649ZM382.264 365.207C382.668 365.207 383.006 365.096 383.278 364.874C383.55 364.649 383.752 364.347 383.884 363.969C384.02 363.592 384.088 363.171 384.088 362.707C384.088 362.239 384.02 361.817 383.884 361.439C383.752 361.058 383.55 360.754 383.278 360.529C383.006 360.304 382.668 360.191 382.264 360.191C381.849 360.191 381.505 360.304 381.23 360.529C380.958 360.754 380.754 361.058 380.618 361.439C380.485 361.817 380.419 362.239 380.419 362.707C380.419 363.171 380.485 363.592 380.618 363.969C380.754 364.347 380.958 364.649 381.23 364.874C381.505 365.096 381.849 365.207 382.264 365.207ZM390.274 366.634C389.674 366.634 389.137 366.48 388.663 366.172C388.189 365.864 387.815 365.416 387.54 364.83C387.265 364.243 387.127 363.53 387.127 362.692C387.127 361.843 387.266 361.127 387.545 360.544C387.826 359.957 388.206 359.515 388.683 359.217C389.161 358.915 389.692 358.764 390.279 358.764C390.727 358.764 391.094 358.84 391.383 358.993C391.671 359.142 391.9 359.323 392.069 359.535C392.238 359.744 392.369 359.941 392.462 360.126H392.536V356.318H394.341V366.5H392.571V365.297H392.462C392.369 365.482 392.235 365.68 392.059 365.888C391.883 366.094 391.651 366.27 391.363 366.415C391.075 366.561 390.712 366.634 390.274 366.634ZM390.776 365.158C391.157 365.158 391.482 365.055 391.751 364.849C392.019 364.641 392.223 364.351 392.362 363.979C392.501 363.608 392.571 363.176 392.571 362.682C392.571 362.188 392.501 361.759 392.362 361.394C392.226 361.03 392.024 360.746 391.756 360.544C391.491 360.342 391.164 360.241 390.776 360.241C390.375 360.241 390.04 360.345 389.772 360.554C389.504 360.763 389.301 361.051 389.165 361.419C389.03 361.787 388.962 362.208 388.962 362.682C388.962 363.159 389.03 363.585 389.165 363.96C389.305 364.331 389.509 364.624 389.777 364.839C390.049 365.052 390.382 365.158 390.776 365.158ZM401.126 363.288V358.864H402.926V366.5H401.181V365.143H401.101C400.929 365.57 400.645 365.92 400.251 366.192C399.86 366.464 399.378 366.599 398.804 366.599C398.304 366.599 397.861 366.488 397.477 366.266C397.096 366.041 396.797 365.714 396.582 365.287C396.366 364.856 396.259 364.336 396.259 363.726V358.864H398.058V363.447C398.058 363.931 398.191 364.316 398.456 364.601C398.721 364.886 399.069 365.028 399.5 365.028C399.765 365.028 400.022 364.964 400.271 364.835C400.519 364.705 400.723 364.513 400.882 364.258C401.045 363.999 401.126 363.676 401.126 363.288ZM408.589 358.864V360.256H404.2V358.864H408.589ZM405.283 357.034H407.083V364.203C407.083 364.445 407.12 364.631 407.192 364.76C407.269 364.886 407.368 364.972 407.491 365.018C407.613 365.065 407.749 365.088 407.898 365.088C408.011 365.088 408.114 365.08 408.207 365.063C408.303 365.047 408.376 365.032 408.425 365.018L408.729 366.425C408.633 366.459 408.495 366.495 408.316 366.535C408.14 366.575 407.925 366.598 407.67 366.604C407.219 366.618 406.813 366.55 406.452 366.401C406.09 366.248 405.804 366.013 405.592 365.695C405.383 365.376 405.28 364.979 405.283 364.501V357.034ZM413.344 366.649C412.598 366.649 411.952 366.485 411.405 366.157C410.858 365.829 410.434 365.37 410.132 364.78C409.834 364.19 409.684 363.5 409.684 362.712C409.684 361.923 409.834 361.232 410.132 360.638C410.434 360.045 410.858 359.585 411.405 359.256C411.952 358.928 412.598 358.764 413.344 358.764C414.089 358.764 414.736 358.928 415.282 359.256C415.829 359.585 416.252 360.045 416.55 360.638C416.852 361.232 417.003 361.923 417.003 362.712C417.003 363.5 416.852 364.19 416.55 364.78C416.252 365.37 415.829 365.829 415.282 366.157C414.736 366.485 414.089 366.649 413.344 366.649ZM413.354 365.207C413.758 365.207 414.096 365.096 414.368 364.874C414.64 364.649 414.842 364.347 414.974 363.969C415.11 363.592 415.178 363.171 415.178 362.707C415.178 362.239 415.11 361.817 414.974 361.439C414.842 361.058 414.64 360.754 414.368 360.529C414.096 360.304 413.758 360.191 413.354 360.191C412.939 360.191 412.595 360.304 412.319 360.529C412.048 360.754 411.844 361.058 411.708 361.439C411.575 361.817 411.509 362.239 411.509 362.707C411.509 363.171 411.575 363.592 411.708 363.969C411.844 364.347 412.048 364.649 412.319 364.874C412.595 365.096 412.939 365.207 413.354 365.207Z" fill="white"/>
<path fill-rule="evenodd" clip-rule="evenodd" d="M445.5 370C446.296 370 447.059 369.684 447.621 369.121C448.184 368.559 448.5 367.796 448.5 367V358C448.5 357.204 448.184 356.441 447.621 355.879C447.059 355.316 446.296 355 445.5 355H440.121C439.922 355 439.732 354.921 439.591 354.78L437.47 352.66C437.261 352.451 437.013 352.285 436.74 352.172C436.467 352.058 436.175 352 435.879 352H430.5C429.704 352 428.941 352.316 428.379 352.879C427.816 353.441 427.5 354.204 427.5 355V367C427.5 367.796 427.816 368.559 428.379 369.121C428.941 369.684 429.704 370 430.5 370H445.5ZM438.75 359.5C438.75 359.301 438.671 359.11 438.53 358.97C438.39 358.829 438.199 358.75 438 358.75C437.801 358.75 437.61 358.829 437.47 358.97C437.329 359.11 437.25 359.301 437.25 359.5V361.75H435C434.801 361.75 434.61 361.829 434.47 361.97C434.329 362.11 434.25 362.301 434.25 362.5C434.25 362.699 434.329 362.89 434.47 363.03C434.61 363.171 434.801 363.25 435 363.25H437.25V365.5C437.25 365.699 437.329 365.89 437.47 366.03C437.61 366.171 437.801 366.25 438 366.25C438.199 366.25 438.39 366.171 438.53 366.03C438.671 365.89 438.75 365.699 438.75 365.5V363.25H441C441.199 363.25 441.39 363.171 441.53 363.03C441.671 362.89 441.75 362.699 441.75 362.5C441.75 362.301 441.671 362.11 441.53 361.97C441.39 361.829 441.199 361.75 441 361.75H438.75V359.5Z" fill="white"/>
</g>
<defs>
<linearGradient id="paint0_linear_78_186" x1="8" y1="8" x2="56.5" y2="56" gradientUnits="userSpaceOnUse">
<stop stop-color="#00363C"/>
<stop offset="1" stop-color="#B1CBCF"/>
</linearGradient>
<clipPath id="clip0_78_186">
<rect width="500" height="400" fill="white"/>
</clipPath>
</defs>
</svg>
