<svg width="660" height="450" viewBox="0 0 660 450" fill="none" xmlns="http://www.w3.org/2000/svg">
<rect width="660" height="450" fill="white"/>
<path d="M275.773 139H274.364C274.28 138.595 274.134 138.239 273.926 137.932C273.722 137.625 273.472 137.367 273.176 137.159C272.884 136.947 272.561 136.788 272.205 136.682C271.848 136.576 271.477 136.523 271.091 136.523C270.386 136.523 269.748 136.701 269.176 137.057C268.608 137.413 268.155 137.938 267.818 138.631C267.485 139.324 267.318 140.174 267.318 141.182C267.318 142.189 267.485 143.04 267.818 143.733C268.155 144.426 268.608 144.951 269.176 145.307C269.748 145.663 270.386 145.841 271.091 145.841C271.477 145.841 271.848 145.788 272.205 145.682C272.561 145.576 272.884 145.419 273.176 145.21C273.472 144.998 273.722 144.739 273.926 144.432C274.134 144.121 274.28 143.765 274.364 143.364H275.773C275.667 143.958 275.473 144.491 275.193 144.96C274.913 145.43 274.564 145.83 274.148 146.159C273.731 146.485 273.263 146.733 272.744 146.903C272.229 147.074 271.678 147.159 271.091 147.159C270.098 147.159 269.216 146.917 268.443 146.432C267.67 145.947 267.063 145.258 266.619 144.364C266.176 143.47 265.955 142.409 265.955 141.182C265.955 139.955 266.176 138.894 266.619 138C267.063 137.106 267.67 136.417 268.443 135.932C269.216 135.447 270.098 135.205 271.091 135.205C271.678 135.205 272.229 135.29 272.744 135.46C273.263 135.631 273.731 135.881 274.148 136.21C274.564 136.536 274.913 136.934 275.193 137.403C275.473 137.869 275.667 138.402 275.773 139ZM279.459 135.364V147H278.05V135.364H279.459ZM282.284 147V135.364H286.216C287.129 135.364 287.875 135.528 288.455 135.858C289.038 136.184 289.47 136.625 289.75 137.182C290.03 137.739 290.17 138.36 290.17 139.045C290.17 139.731 290.03 140.354 289.75 140.915C289.473 141.475 289.045 141.922 288.466 142.256C287.886 142.585 287.144 142.75 286.239 142.75H283.42V141.5H286.193C286.818 141.5 287.32 141.392 287.699 141.176C288.078 140.96 288.352 140.669 288.523 140.301C288.697 139.93 288.784 139.511 288.784 139.045C288.784 138.58 288.697 138.163 288.523 137.795C288.352 137.428 288.076 137.14 287.693 136.932C287.311 136.72 286.803 136.614 286.17 136.614H283.693V147H282.284Z" fill="#495057"/>
<rect x="265.25" y="159.25" width="362.5" height="34.5" rx="7.75" stroke="#495057" stroke-opacity="0.5" stroke-width="0.5"/>
<path d="M272.773 214.273C272.705 213.697 272.428 213.25 271.943 212.932C271.458 212.614 270.864 212.455 270.159 212.455C269.644 212.455 269.193 212.538 268.807 212.705C268.424 212.871 268.125 213.1 267.909 213.392C267.697 213.684 267.591 214.015 267.591 214.386C267.591 214.697 267.665 214.964 267.812 215.188C267.964 215.407 268.157 215.591 268.392 215.739C268.627 215.883 268.873 216.002 269.131 216.097C269.388 216.187 269.625 216.261 269.841 216.318L271.023 216.636C271.326 216.716 271.663 216.826 272.034 216.966C272.409 217.106 272.767 217.297 273.108 217.54C273.453 217.778 273.737 218.085 273.96 218.46C274.184 218.835 274.295 219.295 274.295 219.841C274.295 220.47 274.131 221.038 273.801 221.545C273.475 222.053 272.998 222.456 272.369 222.756C271.744 223.055 270.985 223.205 270.091 223.205C269.258 223.205 268.536 223.07 267.926 222.801C267.32 222.532 266.843 222.157 266.494 221.676C266.15 221.195 265.955 220.636 265.909 220H267.364C267.402 220.439 267.549 220.803 267.807 221.091C268.068 221.375 268.398 221.587 268.795 221.727C269.197 221.864 269.629 221.932 270.091 221.932C270.629 221.932 271.112 221.845 271.54 221.67C271.968 221.492 272.307 221.246 272.557 220.932C272.807 220.614 272.932 220.242 272.932 219.818C272.932 219.432 272.824 219.117 272.608 218.875C272.392 218.633 272.108 218.436 271.756 218.284C271.403 218.133 271.023 218 270.614 217.886L269.182 217.477C268.273 217.216 267.553 216.843 267.023 216.358C266.492 215.873 266.227 215.239 266.227 214.455C266.227 213.803 266.403 213.235 266.756 212.75C267.112 212.261 267.589 211.883 268.188 211.614C268.79 211.341 269.462 211.205 270.205 211.205C270.955 211.205 271.621 211.339 272.205 211.608C272.788 211.873 273.25 212.237 273.591 212.699C273.936 213.161 274.117 213.686 274.136 214.273H272.773ZM280.089 223.182C279.249 223.182 278.523 222.996 277.913 222.625C277.307 222.25 276.839 221.727 276.51 221.057C276.184 220.383 276.021 219.598 276.021 218.705C276.021 217.811 276.184 217.023 276.51 216.341C276.839 215.655 277.298 215.121 277.885 214.739C278.476 214.352 279.165 214.159 279.953 214.159C280.408 214.159 280.857 214.235 281.3 214.386C281.743 214.538 282.146 214.784 282.51 215.125C282.874 215.462 283.163 215.909 283.379 216.466C283.595 217.023 283.703 217.708 283.703 218.523V219.091H276.976V217.932H282.339C282.339 217.439 282.241 217 282.044 216.614C281.851 216.227 281.574 215.922 281.214 215.699C280.858 215.475 280.438 215.364 279.953 215.364C279.419 215.364 278.957 215.496 278.567 215.761C278.18 216.023 277.883 216.364 277.675 216.784C277.466 217.205 277.362 217.655 277.362 218.136V218.909C277.362 219.568 277.476 220.127 277.703 220.585C277.934 221.04 278.254 221.386 278.663 221.625C279.072 221.86 279.548 221.977 280.089 221.977C280.442 221.977 280.76 221.928 281.044 221.83C281.332 221.727 281.58 221.576 281.788 221.375C281.997 221.17 282.158 220.917 282.271 220.614L283.567 220.977C283.43 221.417 283.201 221.803 282.879 222.136C282.557 222.466 282.16 222.723 281.686 222.909C281.213 223.091 280.68 223.182 280.089 223.182ZM287.084 217.75V223H285.743V214.273H287.038V215.636H287.152C287.357 215.193 287.667 214.837 288.084 214.568C288.5 214.295 289.038 214.159 289.697 214.159C290.288 214.159 290.805 214.28 291.249 214.523C291.692 214.761 292.036 215.125 292.283 215.614C292.529 216.098 292.652 216.712 292.652 217.455V223H291.311V217.545C291.311 216.86 291.133 216.326 290.777 215.943C290.421 215.557 289.932 215.364 289.311 215.364C288.883 215.364 288.5 215.456 288.163 215.642C287.83 215.828 287.567 216.098 287.374 216.455C287.18 216.811 287.084 217.242 287.084 217.75ZM296.443 217.75V223H295.102V211.364H296.443V215.636H296.557C296.761 215.186 297.068 214.828 297.477 214.562C297.89 214.294 298.439 214.159 299.125 214.159C299.72 214.159 300.241 214.278 300.688 214.517C301.134 214.752 301.481 215.114 301.727 215.602C301.977 216.087 302.102 216.705 302.102 217.455V223H300.761V217.545C300.761 216.852 300.581 216.316 300.222 215.938C299.866 215.555 299.371 215.364 298.739 215.364C298.299 215.364 297.905 215.456 297.557 215.642C297.212 215.828 296.939 216.098 296.739 216.455C296.542 216.811 296.443 217.242 296.443 217.75ZM307.124 223.205C306.571 223.205 306.069 223.1 305.618 222.892C305.167 222.68 304.809 222.375 304.544 221.977C304.279 221.576 304.146 221.091 304.146 220.523C304.146 220.023 304.245 219.617 304.442 219.307C304.639 218.992 304.902 218.746 305.232 218.568C305.561 218.39 305.925 218.258 306.322 218.17C306.724 218.08 307.127 218.008 307.533 217.955C308.063 217.886 308.493 217.835 308.822 217.801C309.156 217.763 309.398 217.701 309.55 217.614C309.705 217.527 309.783 217.375 309.783 217.159V217.114C309.783 216.553 309.629 216.117 309.322 215.807C309.019 215.496 308.559 215.341 307.942 215.341C307.302 215.341 306.8 215.481 306.436 215.761C306.072 216.042 305.817 216.341 305.669 216.659L304.396 216.205C304.624 215.674 304.927 215.261 305.305 214.966C305.688 214.667 306.105 214.458 306.555 214.341C307.01 214.22 307.457 214.159 307.896 214.159C308.177 214.159 308.499 214.193 308.862 214.261C309.23 214.326 309.584 214.46 309.925 214.665C310.269 214.869 310.555 215.178 310.783 215.591C311.01 216.004 311.124 216.557 311.124 217.25V223H309.783V221.818H309.714C309.624 222.008 309.472 222.21 309.26 222.426C309.048 222.642 308.766 222.826 308.413 222.977C308.061 223.129 307.631 223.205 307.124 223.205ZM307.328 222C307.858 222 308.305 221.896 308.669 221.688C309.036 221.479 309.313 221.21 309.499 220.881C309.688 220.551 309.783 220.205 309.783 219.841V218.614C309.726 218.682 309.601 218.744 309.408 218.801C309.218 218.854 308.999 218.902 308.749 218.943C308.502 218.981 308.262 219.015 308.027 219.045C307.796 219.072 307.608 219.095 307.464 219.114C307.116 219.159 306.79 219.233 306.487 219.335C306.188 219.434 305.946 219.583 305.76 219.784C305.578 219.981 305.487 220.25 305.487 220.591C305.487 221.057 305.66 221.409 306.004 221.648C306.353 221.883 306.794 222 307.328 222Z" fill="#495057"/>
<rect x="265.25" y="235.25" width="362.5" height="34.5" rx="7.75" stroke="#495057" stroke-opacity="0.5" stroke-width="0.5"/>
<rect x="550" y="284" width="78" height="33" rx="12" fill="#00363C"/>
<path d="M559.004 306V295.818H560.849V304.454H565.333V306H559.004ZM570.185 306.149C569.44 306.149 568.793 305.985 568.246 305.657C567.7 305.329 567.275 304.87 566.974 304.28C566.675 303.69 566.526 303 566.526 302.212C566.526 301.423 566.675 300.732 566.974 300.138C567.275 299.545 567.7 299.085 568.246 298.756C568.793 298.428 569.44 298.264 570.185 298.264C570.931 298.264 571.577 298.428 572.124 298.756C572.671 299.085 573.094 299.545 573.392 300.138C573.694 300.732 573.844 301.423 573.844 302.212C573.844 303 573.694 303.69 573.392 304.28C573.094 304.87 572.671 305.329 572.124 305.657C571.577 305.985 570.931 306.149 570.185 306.149ZM570.195 304.707C570.6 304.707 570.938 304.596 571.21 304.374C571.481 304.149 571.683 303.847 571.816 303.469C571.952 303.092 572.02 302.671 572.02 302.207C572.02 301.739 571.952 301.317 571.816 300.939C571.683 300.558 571.481 300.254 571.21 300.029C570.938 299.804 570.6 299.691 570.195 299.691C569.781 299.691 569.436 299.804 569.161 300.029C568.889 300.254 568.686 300.558 568.55 300.939C568.417 301.317 568.351 301.739 568.351 302.207C568.351 302.671 568.417 303.092 568.55 303.469C568.686 303.847 568.889 304.149 569.161 304.374C569.436 304.596 569.781 304.707 570.195 304.707ZM578.693 309.023C578.047 309.023 577.492 308.935 577.028 308.759C576.564 308.587 576.191 308.355 575.909 308.063C575.627 307.772 575.432 307.448 575.322 307.094L576.943 306.701C577.016 306.85 577.122 306.998 577.261 307.143C577.4 307.293 577.588 307.415 577.823 307.511C578.062 307.611 578.362 307.661 578.723 307.661C579.233 307.661 579.656 307.536 579.991 307.288C580.325 307.042 580.493 306.638 580.493 306.075V304.628H580.403C580.31 304.813 580.175 305.004 579.996 305.2C579.82 305.395 579.586 305.559 579.295 305.692C579.006 305.824 578.643 305.891 578.206 305.891C577.619 305.891 577.087 305.753 576.61 305.478C576.136 305.2 575.758 304.785 575.476 304.235C575.198 303.682 575.059 302.989 575.059 302.157C575.059 301.318 575.198 300.611 575.476 300.034C575.758 299.454 576.138 299.015 576.615 298.717C577.092 298.415 577.624 298.264 578.211 298.264C578.658 298.264 579.026 298.34 579.314 298.493C579.606 298.642 579.838 298.823 580.01 299.035C580.183 299.244 580.314 299.441 580.403 299.626H580.503V298.364H582.278V306.124C582.278 306.777 582.122 307.317 581.81 307.745C581.499 308.173 581.073 308.492 580.532 308.705C579.992 308.917 579.379 309.023 578.693 309.023ZM578.708 304.479C579.089 304.479 579.414 304.386 579.682 304.2C579.951 304.015 580.155 303.748 580.294 303.4C580.433 303.052 580.503 302.634 580.503 302.147C580.503 301.666 580.433 301.246 580.294 300.884C580.158 300.523 579.956 300.243 579.687 300.044C579.422 299.842 579.096 299.741 578.708 299.741C578.307 299.741 577.972 299.845 577.704 300.054C577.435 300.263 577.233 300.549 577.097 300.914C576.961 301.275 576.893 301.686 576.893 302.147C576.893 302.614 576.961 303.024 577.097 303.375C577.236 303.723 577.44 303.995 577.709 304.19C577.98 304.383 578.314 304.479 578.708 304.479ZM584.122 306V298.364H585.922V306H584.122ZM585.027 297.28C584.742 297.28 584.497 297.185 584.291 296.996C584.086 296.804 583.983 296.574 583.983 296.305C583.983 296.034 584.086 295.803 584.291 295.614C584.497 295.422 584.742 295.326 585.027 295.326C585.315 295.326 585.56 295.422 585.763 295.614C585.968 295.803 586.071 296.034 586.071 296.305C586.071 296.574 585.968 296.804 585.763 296.996C585.56 297.185 585.315 297.28 585.027 297.28ZM589.572 301.526V306H587.772V298.364H589.493V299.661H589.582C589.758 299.234 590.038 298.894 590.422 298.642C590.81 298.39 591.289 298.264 591.859 298.264C592.386 298.264 592.845 298.377 593.236 298.602C593.631 298.828 593.935 299.154 594.151 299.582C594.37 300.009 594.477 300.528 594.474 301.138V306H592.674V301.416C592.674 300.906 592.542 300.506 592.277 300.218C592.015 299.93 591.652 299.786 591.188 299.786C590.873 299.786 590.593 299.855 590.348 299.994C590.106 300.13 589.915 300.327 589.776 300.586C589.64 300.844 589.572 301.158 589.572 301.526Z" fill="#81D3DE"/>
<path fill-rule="evenodd" clip-rule="evenodd" d="M612.646 295.146C612.842 294.951 613.158 294.951 613.354 295.146L618.354 300.146C618.447 300.24 618.5 300.367 618.5 300.5C618.5 300.633 618.447 300.76 618.354 300.854L613.354 305.854C613.158 306.049 612.842 306.049 612.646 305.854C612.451 305.658 612.451 305.342 612.646 305.146L616.793 301H606C605.724 301 605.5 300.776 605.5 300.5C605.5 300.224 605.724 300 606 300H616.793L612.646 295.854C612.451 295.658 612.451 295.342 612.646 295.146Z" fill="#81D3DE"/>
<rect x="526" y="385" width="102" height="33" rx="12" fill="#B1CBCF"/>
<path d="M535.004 407V396.818H538.822C539.605 396.818 540.261 396.954 540.791 397.226C541.325 397.498 541.728 397.879 541.999 398.369C542.274 398.857 542.412 399.425 542.412 400.075C542.412 400.728 542.273 401.294 541.994 401.775C541.719 402.252 541.313 402.622 540.776 402.884C540.239 403.142 539.58 403.271 538.798 403.271H536.078V401.74H538.549C539.006 401.74 539.381 401.677 539.673 401.551C539.964 401.422 540.18 401.235 540.319 400.989C540.461 400.741 540.533 400.436 540.533 400.075C540.533 399.713 540.461 399.405 540.319 399.15C540.176 398.891 539.959 398.696 539.668 398.563C539.376 398.427 539 398.359 538.539 398.359H536.849V407H535.004ZM540.264 402.386L542.785 407H540.727L538.251 402.386H540.264ZM547.301 407.149C546.536 407.149 545.875 406.99 545.318 406.672C544.764 406.35 544.338 405.896 544.04 405.31C543.742 404.72 543.593 404.025 543.593 403.227C543.593 402.441 543.742 401.752 544.04 401.158C544.342 400.562 544.763 400.098 545.303 399.766C545.843 399.432 546.478 399.264 547.207 399.264C547.678 399.264 548.122 399.34 548.539 399.493C548.96 399.642 549.332 399.874 549.653 400.189C549.978 400.504 550.233 400.905 550.419 401.392C550.604 401.876 550.697 402.453 550.697 403.122V403.674H544.438V402.461H548.972C548.969 402.116 548.894 401.81 548.748 401.541C548.602 401.269 548.399 401.056 548.137 400.9C547.878 400.744 547.577 400.666 547.232 400.666C546.864 400.666 546.541 400.756 546.262 400.935C545.984 401.11 545.767 401.342 545.611 401.631C545.459 401.916 545.381 402.229 545.377 402.57V403.629C545.377 404.073 545.459 404.455 545.621 404.773C545.783 405.088 546.011 405.33 546.302 405.499C546.594 405.664 546.935 405.747 547.326 405.747C547.588 405.747 547.825 405.711 548.037 405.638C548.249 405.562 548.433 405.451 548.589 405.305C548.745 405.159 548.863 404.978 548.942 404.763L550.623 404.952C550.516 405.396 550.314 405.784 550.016 406.115C549.721 406.443 549.343 406.698 548.882 406.881C548.422 407.06 547.895 407.149 547.301 407.149ZM555.541 410.023C554.894 410.023 554.339 409.935 553.875 409.759C553.411 409.587 553.038 409.355 552.757 409.063C552.475 408.772 552.279 408.448 552.17 408.094L553.791 407.701C553.864 407.85 553.97 407.998 554.109 408.143C554.248 408.293 554.435 408.415 554.671 408.511C554.909 408.611 555.209 408.661 555.57 408.661C556.081 408.661 556.503 408.536 556.838 408.288C557.173 408.042 557.34 407.638 557.34 407.075V405.628H557.251C557.158 405.813 557.022 406.004 556.843 406.2C556.668 406.395 556.434 406.559 556.142 406.692C555.854 406.824 555.491 406.891 555.053 406.891C554.467 406.891 553.935 406.753 553.458 406.478C552.984 406.2 552.606 405.785 552.324 405.235C552.046 404.682 551.906 403.989 551.906 403.157C551.906 402.318 552.046 401.611 552.324 401.034C552.606 400.454 552.985 400.015 553.463 399.717C553.94 399.415 554.472 399.264 555.058 399.264C555.506 399.264 555.874 399.34 556.162 399.493C556.454 399.642 556.686 399.823 556.858 400.035C557.03 400.244 557.161 400.441 557.251 400.626H557.35V399.364H559.125V407.124C559.125 407.777 558.969 408.317 558.658 408.745C558.346 409.173 557.92 409.492 557.38 409.705C556.84 409.917 556.227 410.023 555.541 410.023ZM555.556 405.479C555.937 405.479 556.262 405.386 556.53 405.2C556.798 405.015 557.002 404.748 557.142 404.4C557.281 404.052 557.35 403.634 557.35 403.147C557.35 402.666 557.281 402.246 557.142 401.884C557.006 401.523 556.803 401.243 556.535 401.044C556.27 400.842 555.943 400.741 555.556 400.741C555.155 400.741 554.82 400.845 554.551 401.054C554.283 401.263 554.081 401.549 553.945 401.914C553.809 402.275 553.741 402.686 553.741 403.147C553.741 403.614 553.809 404.024 553.945 404.375C554.084 404.723 554.288 404.995 554.556 405.19C554.828 405.383 555.161 405.479 555.556 405.479ZM560.97 407V399.364H562.769V407H560.97ZM561.874 398.28C561.589 398.28 561.344 398.185 561.139 397.996C560.933 397.804 560.83 397.574 560.83 397.305C560.83 397.034 560.933 396.803 561.139 396.614C561.344 396.422 561.589 396.326 561.874 396.326C562.163 396.326 562.408 396.422 562.61 396.614C562.816 396.803 562.919 397.034 562.919 397.305C562.919 397.574 562.816 397.804 562.61 397.996C562.408 398.185 562.163 398.28 561.874 398.28ZM570.656 401.382L569.015 401.561C568.969 401.395 568.887 401.24 568.771 401.094C568.659 400.948 568.506 400.83 568.314 400.741C568.122 400.651 567.886 400.607 567.608 400.607C567.233 400.607 566.919 400.688 566.663 400.85C566.411 401.013 566.287 401.223 566.29 401.482C566.287 401.704 566.368 401.884 566.534 402.023C566.703 402.163 566.982 402.277 567.369 402.366L568.672 402.645C569.394 402.801 569.931 403.048 570.283 403.386C570.637 403.724 570.816 404.166 570.82 404.713C570.816 405.194 570.675 405.618 570.397 405.986C570.122 406.35 569.739 406.635 569.249 406.841C568.758 407.046 568.195 407.149 567.558 407.149C566.624 407.149 565.871 406.954 565.301 406.562C564.731 406.168 564.391 405.62 564.282 404.917L566.037 404.748C566.116 405.093 566.286 405.353 566.544 405.528C566.803 405.704 567.139 405.792 567.553 405.792C567.981 405.792 568.324 405.704 568.582 405.528C568.844 405.353 568.975 405.136 568.975 404.877C568.975 404.658 568.891 404.478 568.722 404.335C568.556 404.193 568.297 404.083 567.946 404.007L566.643 403.734C565.911 403.581 565.369 403.324 565.018 402.963C564.666 402.598 564.492 402.138 564.496 401.581C564.492 401.11 564.62 400.703 564.879 400.358C565.14 400.01 565.503 399.741 565.967 399.553C566.435 399.36 566.973 399.264 567.583 399.264C568.478 399.264 569.182 399.455 569.696 399.836C570.213 400.217 570.533 400.732 570.656 401.382ZM576.117 399.364V400.756H571.727V399.364H576.117ZM572.811 397.534H574.61V404.703C574.61 404.945 574.647 405.131 574.72 405.26C574.796 405.386 574.895 405.472 575.018 405.518C575.141 405.565 575.277 405.588 575.426 405.588C575.538 405.588 575.641 405.58 575.734 405.563C575.83 405.547 575.903 405.532 575.953 405.518L576.256 406.925C576.16 406.959 576.022 406.995 575.843 407.035C575.668 407.075 575.452 407.098 575.197 407.104C574.746 407.118 574.34 407.05 573.979 406.901C573.618 406.748 573.331 406.513 573.119 406.195C572.91 405.876 572.807 405.479 572.811 405.001V397.534ZM577.622 407V399.364H579.367V400.636H579.447C579.586 400.196 579.824 399.856 580.162 399.617C580.504 399.375 580.893 399.254 581.331 399.254C581.43 399.254 581.541 399.259 581.664 399.269C581.79 399.276 581.894 399.287 581.977 399.304V400.96C581.901 400.933 581.78 400.91 581.614 400.89C581.452 400.867 581.294 400.855 581.142 400.855C580.814 400.855 580.519 400.926 580.257 401.069C579.998 401.208 579.795 401.402 579.645 401.651C579.496 401.899 579.422 402.186 579.422 402.511V407H577.622ZM585.233 407.154C584.75 407.154 584.314 407.068 583.926 406.896C583.541 406.72 583.237 406.461 583.011 406.12C582.789 405.779 582.678 405.358 582.678 404.857C582.678 404.426 582.758 404.07 582.917 403.788C583.076 403.507 583.293 403.281 583.568 403.112C583.843 402.943 584.153 402.816 584.498 402.729C584.846 402.64 585.205 402.575 585.577 402.536C586.024 402.489 586.387 402.448 586.665 402.411C586.944 402.371 587.146 402.312 587.272 402.232C587.401 402.149 587.466 402.022 587.466 401.849V401.82C587.466 401.445 587.355 401.155 587.133 400.95C586.911 400.744 586.591 400.641 586.173 400.641C585.732 400.641 585.383 400.737 585.124 400.93C584.869 401.122 584.697 401.349 584.607 401.611L582.927 401.372C583.059 400.908 583.278 400.52 583.583 400.209C583.888 399.894 584.261 399.659 584.702 399.503C585.142 399.344 585.63 399.264 586.163 399.264C586.531 399.264 586.897 399.307 587.262 399.393C587.626 399.48 587.96 399.622 588.261 399.821C588.563 400.017 588.805 400.283 588.987 400.621C589.173 400.96 589.265 401.382 589.265 401.889V407H587.535V405.951H587.476C587.366 406.163 587.212 406.362 587.013 406.548C586.818 406.73 586.571 406.877 586.273 406.99C585.978 407.099 585.631 407.154 585.233 407.154ZM585.701 405.832C586.062 405.832 586.375 405.76 586.64 405.618C586.906 405.472 587.109 405.28 587.252 405.041C587.398 404.803 587.471 404.542 587.471 404.261V403.361C587.414 403.407 587.318 403.45 587.182 403.49C587.05 403.53 586.901 403.565 586.735 403.594C586.569 403.624 586.405 403.651 586.243 403.674C586.08 403.697 585.939 403.717 585.82 403.734C585.552 403.77 585.311 403.83 585.099 403.913C584.887 403.996 584.72 404.112 584.597 404.261C584.474 404.406 584.413 404.595 584.413 404.827C584.413 405.159 584.534 405.409 584.776 405.578C585.018 405.747 585.326 405.832 585.701 405.832ZM591.075 407V399.364H592.82V400.636H592.9C593.039 400.196 593.278 399.856 593.616 399.617C593.957 399.375 594.346 399.254 594.784 399.254C594.883 399.254 594.994 399.259 595.117 399.269C595.243 399.276 595.347 399.287 595.43 399.304V400.96C595.354 400.933 595.233 400.91 595.067 400.89C594.905 400.867 594.747 400.855 594.595 400.855C594.267 400.855 593.972 400.926 593.71 401.069C593.452 401.208 593.248 401.402 593.099 401.651C592.949 401.899 592.875 402.186 592.875 402.511V407H591.075Z" fill="#1C3437"/>
<path fill-rule="evenodd" clip-rule="evenodd" d="M612.646 396.146C612.842 395.951 613.158 395.951 613.354 396.146L618.354 401.146C618.447 401.24 618.5 401.367 618.5 401.5C618.5 401.633 618.447 401.76 618.354 401.854L613.354 406.854C613.158 407.049 612.842 407.049 612.646 406.854C612.451 406.658 612.451 406.342 612.646 406.146L616.793 402H606C605.724 402 605.5 401.776 605.5 401.5C605.5 401.224 605.724 401 606 401H616.793L612.646 396.854C612.451 396.658 612.451 396.342 612.646 396.146Z" fill="#1C3437"/>
<path d="M101.568 211.76L93.216 234H88.992L80.608 211.76H84.512L91.104 230.256L97.728 211.76H101.568ZM106.475 214.032C105.813 214.032 105.259 213.808 104.811 213.36C104.363 212.912 104.139 212.357 104.139 211.696C104.139 211.035 104.363 210.48 104.811 210.032C105.259 209.584 105.813 209.36 106.475 209.36C107.115 209.36 107.659 209.584 108.107 210.032C108.555 210.48 108.779 211.035 108.779 211.696C108.779 212.357 108.555 212.912 108.107 213.36C107.659 213.808 107.115 214.032 106.475 214.032ZM108.267 216.368V234H104.619V216.368H108.267ZM111.84 225.104C111.84 223.333 112.203 221.765 112.928 220.4C113.675 219.035 114.678 217.979 115.936 217.232C117.216 216.464 118.635 216.08 120.192 216.08C121.344 216.08 122.475 216.336 123.584 216.848C124.715 217.339 125.611 218 126.272 218.832V210.32H129.952V234H126.272V231.344C125.675 232.197 124.843 232.901 123.776 233.456C122.731 234.011 121.526 234.288 120.16 234.288C118.624 234.288 117.216 233.904 115.936 233.136C114.678 232.347 113.675 231.259 112.928 229.872C112.203 228.464 111.84 226.875 111.84 225.104ZM126.272 225.168C126.272 223.952 126.016 222.896 125.504 222C125.014 221.104 124.363 220.421 123.552 219.952C122.742 219.483 121.867 219.248 120.928 219.248C119.99 219.248 119.115 219.483 118.304 219.952C117.494 220.4 116.832 221.072 116.32 221.968C115.83 222.843 115.584 223.888 115.584 225.104C115.584 226.32 115.83 227.387 116.32 228.304C116.832 229.221 117.494 229.925 118.304 230.416C119.136 230.885 120.011 231.12 120.928 231.12C121.867 231.12 122.742 230.885 123.552 230.416C124.363 229.947 125.014 229.264 125.504 228.368C126.016 227.451 126.272 226.384 126.272 225.168ZM133.528 225.104C133.528 223.333 133.89 221.765 134.616 220.4C135.362 219.035 136.365 217.979 137.624 217.232C138.904 216.464 140.312 216.08 141.848 216.08C143.234 216.08 144.44 216.357 145.464 216.912C146.509 217.445 147.341 218.117 147.96 218.928V216.368H151.64V234H147.96V231.376C147.341 232.208 146.498 232.901 145.432 233.456C144.365 234.011 143.149 234.288 141.784 234.288C140.269 234.288 138.882 233.904 137.624 233.136C136.365 232.347 135.362 231.259 134.616 229.872C133.89 228.464 133.528 226.875 133.528 225.104ZM147.96 225.168C147.96 223.952 147.704 222.896 147.192 222C146.701 221.104 146.05 220.421 145.24 219.952C144.429 219.483 143.554 219.248 142.616 219.248C141.677 219.248 140.802 219.483 139.992 219.952C139.181 220.4 138.52 221.072 138.008 221.968C137.517 222.843 137.272 223.888 137.272 225.104C137.272 226.32 137.517 227.387 138.008 228.304C138.52 229.221 139.181 229.925 139.992 230.416C140.824 230.885 141.698 231.12 142.616 231.12C143.554 231.12 144.429 230.885 145.24 230.416C146.05 229.947 146.701 229.264 147.192 228.368C147.704 227.451 147.96 226.384 147.96 225.168ZM173.615 223.984H167.151V230.608H163.759V223.984H157.295V220.912H163.759V214.288H167.151V220.912H173.615V223.984Z" fill="url(#paint0_linear_1_9)"/>
<defs>
<linearGradient id="paint0_linear_1_9" x1="80" y1="199" x2="128.5" y2="247" gradientUnits="userSpaceOnUse">
<stop stop-color="#00363C"/>
<stop offset="1" stop-color="#B1CBCF"/>
</linearGradient>
</defs>
</svg>
