<svg width="660" height="450" viewBox="0 0 660 450" fill="none" xmlns="http://www.w3.org/2000/svg">
<rect width="660" height="450" fill="white"/>
<path d="M275.636 56.3636V68H274.273L267.932 58.8636H267.818V68H266.409V56.3636H267.773L274.136 65.5227H274.25V56.3636H275.636ZM281.82 68.1818C281.032 68.1818 280.34 67.9943 279.746 67.6193C279.155 67.2443 278.693 66.7197 278.359 66.0455C278.03 65.3712 277.865 64.5833 277.865 63.6818C277.865 62.7727 278.03 61.9792 278.359 61.3011C278.693 60.6231 279.155 60.0966 279.746 59.7216C280.34 59.3466 281.032 59.1591 281.82 59.1591C282.607 59.1591 283.297 59.3466 283.888 59.7216C284.482 60.0966 284.945 60.6231 285.274 61.3011C285.607 61.9792 285.774 62.7727 285.774 63.6818C285.774 64.5833 285.607 65.3712 285.274 66.0455C284.945 66.7197 284.482 67.2443 283.888 67.6193C283.297 67.9943 282.607 68.1818 281.82 68.1818ZM281.82 66.9773C282.418 66.9773 282.911 66.8239 283.297 66.517C283.683 66.2102 283.969 65.8068 284.155 65.3068C284.34 64.8068 284.433 64.2652 284.433 63.6818C284.433 63.0985 284.34 62.5549 284.155 62.0511C283.969 61.5473 283.683 61.1402 283.297 60.8295C282.911 60.5189 282.418 60.3636 281.82 60.3636C281.221 60.3636 280.729 60.5189 280.342 60.8295C279.956 61.1402 279.67 61.5473 279.484 62.0511C279.299 62.5549 279.206 63.0985 279.206 63.6818C279.206 64.2652 279.299 64.8068 279.484 65.3068C279.67 65.8068 279.956 66.2102 280.342 66.517C280.729 66.8239 281.221 66.9773 281.82 66.9773ZM287.821 68V59.2727H289.116V60.6364H289.23C289.412 60.1705 289.705 59.8087 290.111 59.5511C290.516 59.2898 291.003 59.1591 291.571 59.1591C292.147 59.1591 292.626 59.2898 293.009 59.5511C293.395 59.8087 293.696 60.1705 293.912 60.6364H294.003C294.226 60.1856 294.562 59.8277 295.009 59.5625C295.455 59.2936 295.991 59.1591 296.616 59.1591C297.397 59.1591 298.035 59.4034 298.531 59.892C299.027 60.3769 299.276 61.1326 299.276 62.1591V68H297.935V62.1591C297.935 61.5152 297.759 61.0549 297.406 60.7784C297.054 60.5019 296.639 60.3636 296.162 60.3636C295.548 60.3636 295.073 60.5492 294.736 60.9205C294.399 61.2879 294.23 61.7538 294.23 62.3182V68H292.866V62.0227C292.866 61.5265 292.705 61.1269 292.384 60.8239C292.062 60.517 291.647 60.3636 291.139 60.3636C290.791 60.3636 290.465 60.4564 290.162 60.642C289.863 60.8277 289.62 61.0852 289.435 61.4148C289.253 61.7405 289.162 62.1174 289.162 62.5455V68H287.821ZM305.386 68.1818C304.545 68.1818 303.82 67.9962 303.21 67.625C302.604 67.25 302.136 66.7273 301.807 66.0568C301.481 65.3826 301.318 64.5985 301.318 63.7045C301.318 62.8106 301.481 62.0227 301.807 61.3409C302.136 60.6553 302.595 60.1212 303.182 59.7386C303.773 59.3523 304.462 59.1591 305.25 59.1591C305.705 59.1591 306.153 59.2348 306.597 59.3864C307.04 59.5379 307.443 59.7841 307.807 60.125C308.17 60.4621 308.46 60.9091 308.676 61.4659C308.892 62.0227 309 62.7083 309 63.5227V64.0909H302.273V62.9318H307.636C307.636 62.4394 307.538 62 307.341 61.6136C307.148 61.2273 306.871 60.9223 306.511 60.6989C306.155 60.4754 305.735 60.3636 305.25 60.3636C304.716 60.3636 304.254 60.4962 303.864 60.7614C303.477 61.0227 303.18 61.3636 302.972 61.7841C302.763 62.2045 302.659 62.6553 302.659 63.1364V63.9091C302.659 64.5682 302.773 65.1269 303 65.5852C303.231 66.0398 303.551 66.3864 303.96 66.625C304.369 66.8598 304.845 66.9773 305.386 66.9773C305.739 66.9773 306.057 66.928 306.341 66.8295C306.629 66.7273 306.877 66.5758 307.085 66.375C307.294 66.1705 307.455 65.9167 307.568 65.6136L308.864 65.9773C308.727 66.4167 308.498 66.803 308.176 67.1364C307.854 67.4659 307.456 67.7235 306.983 67.9091C306.509 68.0909 305.977 68.1818 305.386 68.1818Z" fill="#495057"/>
<rect x="265.25" y="80.25" width="362.5" height="34.5" rx="7.75" stroke="#495057" stroke-opacity="0.5" stroke-width="0.5"/>
<path d="M270.636 140.364H272.182L273.477 142.068L273.818 142.523L275.75 145.091H274.205L272.932 143.386L272.614 142.955L270.636 140.364ZM276.227 138.182C276.227 139.409 276.006 140.47 275.562 141.364C275.119 142.258 274.511 142.947 273.739 143.432C272.966 143.917 272.083 144.159 271.091 144.159C270.098 144.159 269.216 143.917 268.443 143.432C267.67 142.947 267.063 142.258 266.619 141.364C266.176 140.47 265.955 139.409 265.955 138.182C265.955 136.955 266.176 135.894 266.619 135C267.063 134.106 267.67 133.417 268.443 132.932C269.216 132.447 270.098 132.205 271.091 132.205C272.083 132.205 272.966 132.447 273.739 132.932C274.511 133.417 275.119 134.106 275.562 135C276.006 135.894 276.227 136.955 276.227 138.182ZM274.864 138.182C274.864 137.174 274.695 136.324 274.358 135.631C274.025 134.938 273.572 134.413 273 134.057C272.432 133.701 271.795 133.523 271.091 133.523C270.386 133.523 269.748 133.701 269.176 134.057C268.608 134.413 268.155 134.938 267.818 135.631C267.485 136.324 267.318 137.174 267.318 138.182C267.318 139.189 267.485 140.04 267.818 140.733C268.155 141.426 268.608 141.951 269.176 142.307C269.748 142.663 270.386 142.841 271.091 142.841C271.795 142.841 272.432 142.663 273 142.307C273.572 141.951 274.025 141.426 274.358 140.733C274.695 140.04 274.864 139.189 274.864 138.182ZM283.915 140.432V135.273H285.256V144H283.915V142.523H283.824C283.619 142.966 283.301 143.343 282.869 143.653C282.438 143.96 281.892 144.114 281.233 144.114C280.688 144.114 280.203 143.994 279.778 143.756C279.354 143.513 279.021 143.15 278.778 142.665C278.536 142.176 278.415 141.561 278.415 140.818V135.273H279.756V140.727C279.756 141.364 279.934 141.871 280.29 142.25C280.65 142.629 281.108 142.818 281.665 142.818C281.998 142.818 282.337 142.733 282.682 142.562C283.03 142.392 283.322 142.131 283.557 141.778C283.795 141.426 283.915 140.977 283.915 140.432ZM290.28 144.205C289.727 144.205 289.225 144.1 288.774 143.892C288.323 143.68 287.965 143.375 287.7 142.977C287.435 142.576 287.303 142.091 287.303 141.523C287.303 141.023 287.401 140.617 287.598 140.307C287.795 139.992 288.058 139.746 288.388 139.568C288.717 139.39 289.081 139.258 289.479 139.17C289.88 139.08 290.284 139.008 290.689 138.955C291.219 138.886 291.649 138.835 291.979 138.801C292.312 138.763 292.554 138.701 292.706 138.614C292.861 138.527 292.939 138.375 292.939 138.159V138.114C292.939 137.553 292.786 137.117 292.479 136.807C292.176 136.496 291.715 136.341 291.098 136.341C290.458 136.341 289.956 136.481 289.592 136.761C289.229 137.042 288.973 137.341 288.825 137.659L287.553 137.205C287.78 136.674 288.083 136.261 288.462 135.966C288.844 135.667 289.261 135.458 289.712 135.341C290.166 135.22 290.613 135.159 291.053 135.159C291.333 135.159 291.655 135.193 292.018 135.261C292.386 135.326 292.74 135.46 293.081 135.665C293.426 135.869 293.712 136.178 293.939 136.591C294.166 137.004 294.28 137.557 294.28 138.25V144H292.939V142.818H292.871C292.78 143.008 292.628 143.21 292.416 143.426C292.204 143.642 291.922 143.826 291.57 143.977C291.217 144.129 290.787 144.205 290.28 144.205ZM290.484 143C291.015 143 291.462 142.896 291.825 142.688C292.193 142.479 292.469 142.21 292.655 141.881C292.844 141.551 292.939 141.205 292.939 140.841V139.614C292.882 139.682 292.757 139.744 292.564 139.801C292.375 139.854 292.155 139.902 291.905 139.943C291.659 139.981 291.418 140.015 291.183 140.045C290.952 140.072 290.765 140.095 290.621 140.114C290.272 140.159 289.946 140.233 289.643 140.335C289.344 140.434 289.102 140.583 288.916 140.784C288.734 140.981 288.643 141.25 288.643 141.591C288.643 142.057 288.816 142.409 289.161 142.648C289.509 142.883 289.95 143 290.484 143ZM298.068 138.75V144H296.727V135.273H298.023V136.636H298.136C298.341 136.193 298.652 135.837 299.068 135.568C299.485 135.295 300.023 135.159 300.682 135.159C301.273 135.159 301.79 135.28 302.233 135.523C302.676 135.761 303.021 136.125 303.267 136.614C303.513 137.098 303.636 137.712 303.636 138.455V144H302.295V138.545C302.295 137.86 302.117 137.326 301.761 136.943C301.405 136.557 300.917 136.364 300.295 136.364C299.867 136.364 299.485 136.456 299.148 136.642C298.814 136.828 298.551 137.098 298.358 137.455C298.165 137.811 298.068 138.242 298.068 138.75ZM309.882 135.273V136.409H305.359V135.273H309.882ZM306.678 133.182H308.018V141.5C308.018 141.879 308.073 142.163 308.183 142.352C308.297 142.538 308.441 142.663 308.615 142.727C308.793 142.788 308.981 142.818 309.178 142.818C309.325 142.818 309.446 142.811 309.541 142.795C309.636 142.777 309.712 142.761 309.768 142.75L310.041 143.955C309.95 143.989 309.823 144.023 309.661 144.057C309.498 144.095 309.291 144.114 309.041 144.114C308.662 144.114 308.291 144.032 307.928 143.869C307.568 143.706 307.268 143.458 307.03 143.125C306.795 142.792 306.678 142.371 306.678 141.864V133.182ZM311.899 144V135.273H313.24V144H311.899ZM312.581 133.818C312.32 133.818 312.094 133.729 311.905 133.551C311.719 133.373 311.626 133.159 311.626 132.909C311.626 132.659 311.719 132.445 311.905 132.267C312.094 132.089 312.32 132 312.581 132C312.842 132 313.066 132.089 313.251 132.267C313.441 132.445 313.536 132.659 313.536 132.909C313.536 133.159 313.441 133.373 313.251 133.551C313.066 133.729 312.842 133.818 312.581 133.818ZM318.991 144.182C318.264 144.182 317.622 143.998 317.065 143.631C316.509 143.259 316.073 142.737 315.759 142.062C315.444 141.384 315.287 140.583 315.287 139.659C315.287 138.742 315.444 137.947 315.759 137.273C316.073 136.598 316.51 136.078 317.071 135.71C317.632 135.343 318.279 135.159 319.014 135.159C319.582 135.159 320.031 135.254 320.361 135.443C320.694 135.629 320.948 135.841 321.122 136.08C321.3 136.314 321.438 136.508 321.537 136.659H321.651V132.364H322.991V144H321.696V142.659H321.537C321.438 142.818 321.298 143.019 321.116 143.261C320.935 143.5 320.675 143.714 320.338 143.903C320.001 144.089 319.552 144.182 318.991 144.182ZM319.173 142.977C319.711 142.977 320.166 142.837 320.537 142.557C320.908 142.273 321.19 141.881 321.384 141.381C321.577 140.877 321.673 140.295 321.673 139.636C321.673 138.985 321.579 138.415 321.389 137.926C321.2 137.434 320.92 137.051 320.548 136.778C320.177 136.502 319.719 136.364 319.173 136.364C318.605 136.364 318.132 136.509 317.753 136.801C317.378 137.089 317.096 137.481 316.906 137.977C316.721 138.47 316.628 139.023 316.628 139.636C316.628 140.258 316.723 140.822 316.912 141.33C317.105 141.833 317.389 142.235 317.764 142.534C318.143 142.83 318.613 142.977 319.173 142.977ZM328.202 144.205C327.649 144.205 327.147 144.1 326.696 143.892C326.245 143.68 325.887 143.375 325.622 142.977C325.357 142.576 325.224 142.091 325.224 141.523C325.224 141.023 325.323 140.617 325.52 140.307C325.717 139.992 325.98 139.746 326.31 139.568C326.639 139.39 327.003 139.258 327.401 139.17C327.802 139.08 328.205 139.008 328.611 138.955C329.141 138.886 329.571 138.835 329.901 138.801C330.234 138.763 330.476 138.701 330.628 138.614C330.783 138.527 330.861 138.375 330.861 138.159V138.114C330.861 137.553 330.707 137.117 330.401 136.807C330.098 136.496 329.637 136.341 329.02 136.341C328.38 136.341 327.878 136.481 327.514 136.761C327.151 137.042 326.895 137.341 326.747 137.659L325.474 137.205C325.702 136.674 326.005 136.261 326.384 135.966C326.766 135.667 327.183 135.458 327.634 135.341C328.088 135.22 328.535 135.159 328.974 135.159C329.255 135.159 329.577 135.193 329.94 135.261C330.308 135.326 330.662 135.46 331.003 135.665C331.348 135.869 331.634 136.178 331.861 136.591C332.088 137.004 332.202 137.557 332.202 138.25V144H330.861V142.818H330.793C330.702 143.008 330.55 143.21 330.338 143.426C330.126 143.642 329.844 143.826 329.491 143.977C329.139 144.129 328.709 144.205 328.202 144.205ZM328.406 143C328.937 143 329.384 142.896 329.747 142.688C330.115 142.479 330.391 142.21 330.577 141.881C330.766 141.551 330.861 141.205 330.861 140.841V139.614C330.804 139.682 330.679 139.744 330.486 139.801C330.296 139.854 330.077 139.902 329.827 139.943C329.58 139.981 329.34 140.015 329.105 140.045C328.874 140.072 328.687 140.095 328.543 140.114C328.194 140.159 327.868 140.233 327.565 140.335C327.266 140.434 327.024 140.583 326.838 140.784C326.656 140.981 326.565 141.25 326.565 141.591C326.565 142.057 326.738 142.409 327.082 142.648C327.431 142.883 327.872 143 328.406 143ZM337.945 144.182C337.217 144.182 336.575 143.998 336.018 143.631C335.462 143.259 335.026 142.737 334.712 142.062C334.397 141.384 334.24 140.583 334.24 139.659C334.24 138.742 334.397 137.947 334.712 137.273C335.026 136.598 335.464 136.078 336.024 135.71C336.585 135.343 337.232 135.159 337.967 135.159C338.536 135.159 338.984 135.254 339.314 135.443C339.647 135.629 339.901 135.841 340.075 136.08C340.253 136.314 340.392 136.508 340.49 136.659H340.604V132.364H341.945V144H340.649V142.659H340.49C340.392 142.818 340.251 143.019 340.07 143.261C339.888 143.5 339.628 143.714 339.291 143.903C338.954 144.089 338.505 144.182 337.945 144.182ZM338.126 142.977C338.664 142.977 339.119 142.837 339.49 142.557C339.861 142.273 340.143 141.881 340.337 141.381C340.53 140.877 340.626 140.295 340.626 139.636C340.626 138.985 340.532 138.415 340.342 137.926C340.153 137.434 339.873 137.051 339.501 136.778C339.13 136.502 338.672 136.364 338.126 136.364C337.558 136.364 337.085 136.509 336.706 136.801C336.331 137.089 336.049 137.481 335.859 137.977C335.674 138.47 335.581 139.023 335.581 139.636C335.581 140.258 335.676 140.822 335.865 141.33C336.058 141.833 336.342 142.235 336.717 142.534C337.096 142.83 337.566 142.977 338.126 142.977ZM348.246 144.182C347.405 144.182 346.679 143.996 346.07 143.625C345.464 143.25 344.996 142.727 344.666 142.057C344.34 141.383 344.178 140.598 344.178 139.705C344.178 138.811 344.34 138.023 344.666 137.341C344.996 136.655 345.454 136.121 346.041 135.739C346.632 135.352 347.321 135.159 348.109 135.159C348.564 135.159 349.013 135.235 349.456 135.386C349.899 135.538 350.303 135.784 350.666 136.125C351.03 136.462 351.32 136.909 351.536 137.466C351.751 138.023 351.859 138.708 351.859 139.523V140.091H345.132V138.932H350.496C350.496 138.439 350.397 138 350.2 137.614C350.007 137.227 349.731 136.922 349.371 136.699C349.015 136.475 348.594 136.364 348.109 136.364C347.575 136.364 347.113 136.496 346.723 136.761C346.337 137.023 346.039 137.364 345.831 137.784C345.623 138.205 345.518 138.655 345.518 139.136V139.909C345.518 140.568 345.632 141.127 345.859 141.585C346.09 142.04 346.411 142.386 346.82 142.625C347.229 142.86 347.704 142.977 348.246 142.977C348.598 142.977 348.916 142.928 349.2 142.83C349.488 142.727 349.736 142.576 349.945 142.375C350.153 142.17 350.314 141.917 350.428 141.614L351.723 141.977C351.587 142.417 351.357 142.803 351.036 143.136C350.714 143.466 350.316 143.723 349.842 143.909C349.369 144.091 348.837 144.182 348.246 144.182ZM358.581 144V132.364H365.604V133.614H359.99V137.545H365.24V138.795H359.99V142.75H365.695V144H358.581ZM374.143 137.227L372.939 137.568C372.863 137.367 372.751 137.172 372.604 136.983C372.46 136.79 372.263 136.631 372.013 136.506C371.763 136.381 371.443 136.318 371.053 136.318C370.518 136.318 370.073 136.441 369.717 136.688C369.365 136.93 369.189 137.239 369.189 137.614C369.189 137.947 369.31 138.21 369.553 138.403C369.795 138.597 370.174 138.758 370.689 138.886L371.984 139.205C372.765 139.394 373.346 139.684 373.729 140.074C374.111 140.46 374.303 140.958 374.303 141.568C374.303 142.068 374.159 142.515 373.871 142.909C373.587 143.303 373.189 143.614 372.678 143.841C372.166 144.068 371.571 144.182 370.893 144.182C370.003 144.182 369.267 143.989 368.683 143.602C368.1 143.216 367.731 142.652 367.575 141.909L368.848 141.591C368.969 142.061 369.198 142.413 369.536 142.648C369.876 142.883 370.321 143 370.871 143C371.496 143 371.992 142.867 372.359 142.602C372.731 142.333 372.916 142.011 372.916 141.636C372.916 141.333 372.81 141.08 372.598 140.875C372.386 140.667 372.06 140.511 371.621 140.409L370.166 140.068C369.367 139.879 368.78 139.585 368.405 139.188C368.034 138.786 367.848 138.284 367.848 137.682C367.848 137.189 367.986 136.754 368.263 136.375C368.543 135.996 368.924 135.699 369.405 135.483C369.89 135.267 370.439 135.159 371.053 135.159C371.916 135.159 372.594 135.348 373.087 135.727C373.583 136.106 373.935 136.606 374.143 137.227ZM380.116 135.273V136.409H375.594V135.273H380.116ZM376.912 133.182H378.253V141.5C378.253 141.879 378.308 142.163 378.418 142.352C378.531 142.538 378.675 142.663 378.849 142.727C379.027 142.788 379.215 142.818 379.412 142.818C379.56 142.818 379.681 142.811 379.776 142.795C379.87 142.777 379.946 142.761 380.003 142.75L380.276 143.955C380.185 143.989 380.058 144.023 379.895 144.057C379.732 144.095 379.526 144.114 379.276 144.114C378.897 144.114 378.526 144.032 378.162 143.869C377.802 143.706 377.503 143.458 377.264 143.125C377.029 142.792 376.912 142.371 376.912 141.864V133.182ZM385.585 144.182C384.797 144.182 384.106 143.994 383.511 143.619C382.92 143.244 382.458 142.72 382.125 142.045C381.795 141.371 381.631 140.583 381.631 139.682C381.631 138.773 381.795 137.979 382.125 137.301C382.458 136.623 382.92 136.097 383.511 135.722C384.106 135.347 384.797 135.159 385.585 135.159C386.373 135.159 387.063 135.347 387.653 135.722C388.248 136.097 388.71 136.623 389.04 137.301C389.373 137.979 389.54 138.773 389.54 139.682C389.54 140.583 389.373 141.371 389.04 142.045C388.71 142.72 388.248 143.244 387.653 143.619C387.063 143.994 386.373 144.182 385.585 144.182ZM385.585 142.977C386.184 142.977 386.676 142.824 387.062 142.517C387.449 142.21 387.735 141.807 387.92 141.307C388.106 140.807 388.199 140.265 388.199 139.682C388.199 139.098 388.106 138.555 387.92 138.051C387.735 137.547 387.449 137.14 387.062 136.83C386.676 136.519 386.184 136.364 385.585 136.364C384.987 136.364 384.494 136.519 384.108 136.83C383.722 137.14 383.436 137.547 383.25 138.051C383.064 138.555 382.972 139.098 382.972 139.682C382.972 140.265 383.064 140.807 383.25 141.307C383.436 141.807 383.722 142.21 384.108 142.517C384.494 142.824 384.987 142.977 385.585 142.977ZM397.541 147.273V142.659H397.428C397.329 142.818 397.189 143.019 397.007 143.261C396.825 143.5 396.566 143.714 396.229 143.903C395.892 144.089 395.443 144.182 394.882 144.182C394.155 144.182 393.513 143.998 392.956 143.631C392.399 143.259 391.964 142.737 391.649 142.062C391.335 141.384 391.178 140.583 391.178 139.659C391.178 138.742 391.335 137.947 391.649 137.273C391.964 136.598 392.401 136.078 392.962 135.71C393.522 135.343 394.17 135.159 394.905 135.159C395.473 135.159 395.922 135.254 396.251 135.443C396.585 135.629 396.839 135.841 397.013 136.08C397.191 136.314 397.329 136.508 397.428 136.659H397.587V135.273H398.882V147.273H397.541ZM395.064 142.977C395.602 142.977 396.056 142.837 396.428 142.557C396.799 142.273 397.081 141.881 397.274 141.381C397.467 140.877 397.564 140.295 397.564 139.636C397.564 138.985 397.469 138.415 397.28 137.926C397.09 137.434 396.81 137.051 396.439 136.778C396.068 136.502 395.609 136.364 395.064 136.364C394.496 136.364 394.022 136.509 393.643 136.801C393.268 137.089 392.986 137.481 392.797 137.977C392.611 138.47 392.518 139.023 392.518 139.636C392.518 140.258 392.613 140.822 392.803 141.33C392.996 141.833 393.28 142.235 393.655 142.534C394.034 142.83 394.503 142.977 395.064 142.977ZM406.837 140.432V135.273H408.178V144H406.837V142.523H406.746C406.541 142.966 406.223 143.343 405.791 143.653C405.359 143.96 404.814 144.114 404.155 144.114C403.609 144.114 403.125 143.994 402.7 143.756C402.276 143.513 401.943 143.15 401.7 142.665C401.458 142.176 401.337 141.561 401.337 140.818V135.273H402.678V140.727C402.678 141.364 402.856 141.871 403.212 142.25C403.571 142.629 404.03 142.818 404.587 142.818C404.92 142.818 405.259 142.733 405.604 142.562C405.952 142.392 406.244 142.131 406.479 141.778C406.717 141.426 406.837 140.977 406.837 140.432ZM414.293 144.182C413.452 144.182 412.726 143.996 412.116 143.625C411.51 143.25 411.043 142.727 410.713 142.057C410.387 141.383 410.224 140.598 410.224 139.705C410.224 138.811 410.387 138.023 410.713 137.341C411.043 136.655 411.501 136.121 412.088 135.739C412.679 135.352 413.368 135.159 414.156 135.159C414.611 135.159 415.06 135.235 415.503 135.386C415.946 135.538 416.349 135.784 416.713 136.125C417.077 136.462 417.366 136.909 417.582 137.466C417.798 138.023 417.906 138.708 417.906 139.523V140.091H411.179V138.932H416.543C416.543 138.439 416.444 138 416.247 137.614C416.054 137.227 415.777 136.922 415.418 136.699C415.062 136.475 414.641 136.364 414.156 136.364C413.622 136.364 413.16 136.496 412.77 136.761C412.384 137.023 412.086 137.364 411.878 137.784C411.67 138.205 411.565 138.655 411.565 139.136V139.909C411.565 140.568 411.679 141.127 411.906 141.585C412.137 142.04 412.457 142.386 412.866 142.625C413.276 142.86 413.751 142.977 414.293 142.977C414.645 142.977 414.963 142.928 415.247 142.83C415.535 142.727 415.783 142.576 415.991 142.375C416.2 142.17 416.361 141.917 416.474 141.614L417.77 141.977C417.634 142.417 417.404 142.803 417.082 143.136C416.76 143.466 416.363 143.723 415.889 143.909C415.416 144.091 414.884 144.182 414.293 144.182Z" fill="#495057"/>
<rect x="265.25" y="156.25" width="362.5" height="34.5" rx="7.75" stroke="#495057" stroke-opacity="0.5" stroke-width="0.5"/>
<path d="M266.409 220V208.364H270.341C271.254 208.364 272 208.528 272.58 208.858C273.163 209.184 273.595 209.625 273.875 210.182C274.155 210.739 274.295 211.36 274.295 212.045C274.295 212.731 274.155 213.354 273.875 213.915C273.598 214.475 273.17 214.922 272.591 215.256C272.011 215.585 271.269 215.75 270.364 215.75H267.545V214.5H270.318C270.943 214.5 271.445 214.392 271.824 214.176C272.203 213.96 272.477 213.669 272.648 213.301C272.822 212.93 272.909 212.511 272.909 212.045C272.909 211.58 272.822 211.163 272.648 210.795C272.477 210.428 272.201 210.14 271.818 209.932C271.436 209.72 270.928 209.614 270.295 209.614H267.818V220H266.409ZM276.384 220V211.273H277.679V212.591H277.77C277.929 212.159 278.217 211.809 278.634 211.54C279.05 211.271 279.52 211.136 280.043 211.136C280.141 211.136 280.264 211.138 280.412 211.142C280.56 211.146 280.671 211.152 280.747 211.159V212.523C280.702 212.511 280.598 212.494 280.435 212.472C280.276 212.445 280.107 212.432 279.929 212.432C279.505 212.432 279.126 212.521 278.793 212.699C278.463 212.873 278.202 213.116 278.009 213.426C277.819 213.733 277.724 214.083 277.724 214.477V220H276.384ZM285.73 220.182C284.889 220.182 284.164 219.996 283.554 219.625C282.948 219.25 282.48 218.727 282.151 218.057C281.825 217.383 281.662 216.598 281.662 215.705C281.662 214.811 281.825 214.023 282.151 213.341C282.48 212.655 282.938 212.121 283.526 211.739C284.116 211.352 284.806 211.159 285.594 211.159C286.048 211.159 286.497 211.235 286.94 211.386C287.384 211.538 287.787 211.784 288.151 212.125C288.514 212.462 288.804 212.909 289.02 213.466C289.236 214.023 289.344 214.708 289.344 215.523V216.091H282.616V214.932H287.98C287.98 214.439 287.882 214 287.685 213.614C287.491 213.227 287.215 212.922 286.855 212.699C286.499 212.475 286.079 212.364 285.594 212.364C285.06 212.364 284.598 212.496 284.207 212.761C283.821 213.023 283.524 213.364 283.315 213.784C283.107 214.205 283.003 214.655 283.003 215.136V215.909C283.003 216.568 283.116 217.127 283.344 217.585C283.575 218.04 283.895 218.386 284.304 218.625C284.713 218.86 285.188 218.977 285.73 218.977C286.082 218.977 286.401 218.928 286.685 218.83C286.973 218.727 287.221 218.576 287.429 218.375C287.637 218.17 287.798 217.917 287.912 217.614L289.207 217.977C289.071 218.417 288.842 218.803 288.52 219.136C288.198 219.466 287.8 219.723 287.327 219.909C286.853 220.091 286.321 220.182 285.73 220.182ZM294.929 220.182C294.111 220.182 293.406 219.989 292.815 219.602C292.224 219.216 291.77 218.684 291.452 218.006C291.134 217.328 290.974 216.553 290.974 215.682C290.974 214.795 291.137 214.013 291.463 213.335C291.793 212.653 292.251 212.121 292.838 211.739C293.429 211.352 294.118 211.159 294.906 211.159C295.52 211.159 296.073 211.273 296.565 211.5C297.058 211.727 297.461 212.045 297.776 212.455C298.09 212.864 298.285 213.341 298.361 213.886H297.02C296.918 213.489 296.69 213.136 296.338 212.83C295.99 212.519 295.52 212.364 294.929 212.364C294.406 212.364 293.948 212.5 293.554 212.773C293.164 213.042 292.859 213.422 292.639 213.915C292.423 214.403 292.315 214.977 292.315 215.636C292.315 216.311 292.421 216.898 292.634 217.398C292.849 217.898 293.152 218.286 293.543 218.562C293.937 218.839 294.399 218.977 294.929 218.977C295.277 218.977 295.594 218.917 295.878 218.795C296.162 218.674 296.402 218.5 296.599 218.273C296.796 218.045 296.937 217.773 297.02 217.455H298.361C298.285 217.97 298.098 218.434 297.798 218.847C297.503 219.256 297.111 219.581 296.622 219.824C296.137 220.062 295.573 220.182 294.929 220.182ZM294.293 219.955H295.406L295.315 220.409C295.611 220.455 295.882 220.578 296.128 220.778C296.374 220.983 296.497 221.307 296.497 221.75C296.497 222.239 296.295 222.636 295.889 222.943C295.488 223.254 294.895 223.409 294.111 223.409L294.065 222.523C294.418 222.523 294.709 222.466 294.94 222.352C295.175 222.242 295.293 222.057 295.293 221.795C295.293 221.534 295.196 221.356 295.003 221.261C294.81 221.167 294.497 221.102 294.065 221.068L294.293 219.955ZM303.866 220.182C303.079 220.182 302.387 219.994 301.793 219.619C301.202 219.244 300.74 218.72 300.406 218.045C300.077 217.371 299.912 216.583 299.912 215.682C299.912 214.773 300.077 213.979 300.406 213.301C300.74 212.623 301.202 212.097 301.793 211.722C302.387 211.347 303.079 211.159 303.866 211.159C304.654 211.159 305.344 211.347 305.935 211.722C306.529 212.097 306.991 212.623 307.321 213.301C307.654 213.979 307.821 214.773 307.821 215.682C307.821 216.583 307.654 217.371 307.321 218.045C306.991 218.72 306.529 219.244 305.935 219.619C305.344 219.994 304.654 220.182 303.866 220.182ZM303.866 218.977C304.465 218.977 304.957 218.824 305.344 218.517C305.73 218.21 306.016 217.807 306.202 217.307C306.387 216.807 306.48 216.265 306.48 215.682C306.48 215.098 306.387 214.555 306.202 214.051C306.016 213.547 305.73 213.14 305.344 212.83C304.957 212.519 304.465 212.364 303.866 212.364C303.268 212.364 302.776 212.519 302.389 212.83C302.003 213.14 301.717 213.547 301.531 214.051C301.346 214.555 301.253 215.098 301.253 215.682C301.253 216.265 301.346 216.807 301.531 217.307C301.717 217.807 302.003 218.21 302.389 218.517C302.776 218.824 303.268 218.977 303.866 218.977Z" fill="#495057"/>
<rect x="265.25" y="232.25" width="362.5" height="34.5" rx="7.75" stroke="#495057" stroke-opacity="0.5" stroke-width="0.5"/>
<path d="M266.409 296V284.364H270.341C271.25 284.364 271.996 284.519 272.58 284.83C273.163 285.136 273.595 285.559 273.875 286.097C274.155 286.634 274.295 287.246 274.295 287.932C274.295 288.617 274.155 289.225 273.875 289.756C273.595 290.286 273.165 290.703 272.585 291.006C272.006 291.305 271.265 291.455 270.364 291.455H267.182V290.182H270.318C270.939 290.182 271.439 290.091 271.818 289.909C272.201 289.727 272.477 289.47 272.648 289.136C272.822 288.799 272.909 288.398 272.909 287.932C272.909 287.466 272.822 287.059 272.648 286.71C272.473 286.362 272.195 286.093 271.812 285.903C271.43 285.71 270.924 285.614 270.295 285.614H267.818V296H266.409ZM271.886 290.773L274.75 296H273.114L270.295 290.773H271.886ZM280.027 296.182C279.186 296.182 278.461 295.996 277.851 295.625C277.245 295.25 276.777 294.727 276.447 294.057C276.122 293.383 275.959 292.598 275.959 291.705C275.959 290.811 276.122 290.023 276.447 289.341C276.777 288.655 277.235 288.121 277.822 287.739C278.413 287.352 279.103 287.159 279.891 287.159C280.345 287.159 280.794 287.235 281.237 287.386C281.68 287.538 282.084 287.784 282.447 288.125C282.811 288.462 283.101 288.909 283.317 289.466C283.533 290.023 283.641 290.708 283.641 291.523V292.091H276.913V290.932H282.277C282.277 290.439 282.179 290 281.982 289.614C281.788 289.227 281.512 288.922 281.152 288.699C280.796 288.475 280.375 288.364 279.891 288.364C279.357 288.364 278.894 288.496 278.504 288.761C278.118 289.023 277.821 289.364 277.612 289.784C277.404 290.205 277.3 290.655 277.3 291.136V291.909C277.3 292.568 277.413 293.127 277.641 293.585C277.872 294.04 278.192 294.386 278.601 294.625C279.01 294.86 279.485 294.977 280.027 294.977C280.379 294.977 280.697 294.928 280.982 294.83C281.269 294.727 281.518 294.576 281.726 294.375C281.934 294.17 282.095 293.917 282.209 293.614L283.504 293.977C283.368 294.417 283.139 294.803 282.817 295.136C282.495 295.466 282.097 295.723 281.624 295.909C281.15 296.091 280.618 296.182 280.027 296.182ZM289.226 296.182C288.408 296.182 287.703 295.989 287.112 295.602C286.521 295.216 286.067 294.684 285.749 294.006C285.43 293.328 285.271 292.553 285.271 291.682C285.271 290.795 285.434 290.013 285.76 289.335C286.089 288.653 286.548 288.121 287.135 287.739C287.726 287.352 288.415 287.159 289.203 287.159C289.817 287.159 290.37 287.273 290.862 287.5C291.355 287.727 291.758 288.045 292.072 288.455C292.387 288.864 292.582 289.341 292.658 289.886H291.317C291.214 289.489 290.987 289.136 290.635 288.83C290.286 288.519 289.817 288.364 289.226 288.364C288.703 288.364 288.245 288.5 287.851 288.773C287.461 289.042 287.156 289.422 286.936 289.915C286.72 290.403 286.612 290.977 286.612 291.636C286.612 292.311 286.718 292.898 286.93 293.398C287.146 293.898 287.449 294.286 287.839 294.562C288.233 294.839 288.696 294.977 289.226 294.977C289.574 294.977 289.891 294.917 290.175 294.795C290.459 294.674 290.699 294.5 290.896 294.273C291.093 294.045 291.233 293.773 291.317 293.455H292.658C292.582 293.97 292.394 294.434 292.095 294.847C291.8 295.256 291.408 295.581 290.919 295.824C290.434 296.062 289.87 296.182 289.226 296.182ZM298.277 296.182C297.436 296.182 296.711 295.996 296.101 295.625C295.495 295.25 295.027 294.727 294.697 294.057C294.372 293.383 294.209 292.598 294.209 291.705C294.209 290.811 294.372 290.023 294.697 289.341C295.027 288.655 295.485 288.121 296.072 287.739C296.663 287.352 297.353 287.159 298.141 287.159C298.595 287.159 299.044 287.235 299.487 287.386C299.93 287.538 300.334 287.784 300.697 288.125C301.061 288.462 301.351 288.909 301.567 289.466C301.783 290.023 301.891 290.708 301.891 291.523V292.091H295.163V290.932H300.527C300.527 290.439 300.429 290 300.232 289.614C300.038 289.227 299.762 288.922 299.402 288.699C299.046 288.475 298.625 288.364 298.141 288.364C297.607 288.364 297.144 288.496 296.754 288.761C296.368 289.023 296.071 289.364 295.862 289.784C295.654 290.205 295.55 290.655 295.55 291.136V291.909C295.55 292.568 295.663 293.127 295.891 293.585C296.122 294.04 296.442 294.386 296.851 294.625C297.26 294.86 297.735 294.977 298.277 294.977C298.629 294.977 298.947 294.928 299.232 294.83C299.519 294.727 299.768 294.576 299.976 294.375C300.184 294.17 300.345 293.917 300.459 293.614L301.754 293.977C301.618 294.417 301.389 294.803 301.067 295.136C300.745 295.466 300.347 295.723 299.874 295.909C299.4 296.091 298.868 296.182 298.277 296.182ZM303.93 296V287.273H305.271V296H303.93ZM304.612 285.818C304.351 285.818 304.125 285.729 303.936 285.551C303.75 285.373 303.658 285.159 303.658 284.909C303.658 284.659 303.75 284.445 303.936 284.267C304.125 284.089 304.351 284 304.612 284C304.874 284 305.097 284.089 305.283 284.267C305.472 284.445 305.567 284.659 305.567 284.909C305.567 285.159 305.472 285.373 305.283 285.551C305.097 285.729 304.874 285.818 304.612 285.818ZM311.523 287.273V288.409H307V287.273H311.523ZM308.318 285.182H309.659V293.5C309.659 293.879 309.714 294.163 309.824 294.352C309.938 294.538 310.081 294.663 310.256 294.727C310.434 294.788 310.621 294.818 310.818 294.818C310.966 294.818 311.087 294.811 311.182 294.795C311.277 294.777 311.352 294.761 311.409 294.75L311.682 295.955C311.591 295.989 311.464 296.023 311.301 296.057C311.138 296.095 310.932 296.114 310.682 296.114C310.303 296.114 309.932 296.032 309.568 295.869C309.208 295.706 308.909 295.458 308.67 295.125C308.436 294.792 308.318 294.371 308.318 293.864V285.182ZM316.108 296.205C315.555 296.205 315.053 296.1 314.602 295.892C314.152 295.68 313.794 295.375 313.528 294.977C313.263 294.576 313.131 294.091 313.131 293.523C313.131 293.023 313.229 292.617 313.426 292.307C313.623 291.992 313.886 291.746 314.216 291.568C314.545 291.39 314.909 291.258 315.307 291.17C315.708 291.08 316.112 291.008 316.517 290.955C317.047 290.886 317.477 290.835 317.807 290.801C318.14 290.763 318.383 290.701 318.534 290.614C318.689 290.527 318.767 290.375 318.767 290.159V290.114C318.767 289.553 318.614 289.117 318.307 288.807C318.004 288.496 317.544 288.341 316.926 288.341C316.286 288.341 315.784 288.481 315.42 288.761C315.057 289.042 314.801 289.341 314.653 289.659L313.381 289.205C313.608 288.674 313.911 288.261 314.29 287.966C314.672 287.667 315.089 287.458 315.54 287.341C315.994 287.22 316.441 287.159 316.881 287.159C317.161 287.159 317.483 287.193 317.847 287.261C318.214 287.326 318.568 287.46 318.909 287.665C319.254 287.869 319.54 288.178 319.767 288.591C319.994 289.004 320.108 289.557 320.108 290.25V296H318.767V294.818H318.699C318.608 295.008 318.456 295.21 318.244 295.426C318.032 295.642 317.75 295.826 317.398 295.977C317.045 296.129 316.616 296.205 316.108 296.205ZM316.312 295C316.843 295 317.29 294.896 317.653 294.688C318.021 294.479 318.297 294.21 318.483 293.881C318.672 293.551 318.767 293.205 318.767 292.841V291.614C318.71 291.682 318.585 291.744 318.392 291.801C318.203 291.854 317.983 291.902 317.733 291.943C317.487 291.981 317.246 292.015 317.011 292.045C316.78 292.072 316.593 292.095 316.449 292.114C316.1 292.159 315.775 292.233 315.472 292.335C315.172 292.434 314.93 292.583 314.744 292.784C314.563 292.981 314.472 293.25 314.472 293.591C314.472 294.057 314.644 294.409 314.989 294.648C315.337 294.883 315.778 295 316.312 295Z" fill="#495057"/>
<rect x="265.25" y="308.25" width="362.5" height="34.5" rx="7.75" stroke="#495057" stroke-opacity="0.5" stroke-width="0.5"/>
<rect x="420" y="357" width="109" height="40" rx="12" fill="#FFB4AB"/>
<path d="M437.719 375.754H435.86C435.807 375.449 435.709 375.179 435.567 374.943C435.424 374.705 435.247 374.502 435.035 374.337C434.823 374.171 434.581 374.047 434.309 373.964C434.04 373.878 433.75 373.835 433.439 373.835C432.885 373.835 432.395 373.974 431.967 374.252C431.54 374.527 431.205 374.932 430.963 375.465C430.721 375.996 430.6 376.643 430.6 377.409C430.6 378.188 430.721 378.844 430.963 379.378C431.208 379.908 431.543 380.309 431.967 380.581C432.395 380.849 432.884 380.984 433.434 380.984C433.739 380.984 434.024 380.944 434.289 380.864C434.558 380.781 434.798 380.661 435.01 380.501C435.225 380.342 435.406 380.147 435.552 379.915C435.701 379.683 435.804 379.418 435.86 379.119L437.719 379.129C437.65 379.613 437.499 380.067 437.267 380.491C437.038 380.916 436.738 381.29 436.367 381.615C435.996 381.937 435.562 382.188 435.065 382.371C434.567 382.55 434.016 382.639 433.409 382.639C432.514 382.639 431.715 382.432 431.013 382.018C430.31 381.603 429.757 381.005 429.352 380.223C428.948 379.441 428.746 378.503 428.746 377.409C428.746 376.312 428.95 375.374 429.357 374.595C429.765 373.813 430.32 373.215 431.023 372.8C431.725 372.386 432.521 372.179 433.409 372.179C433.976 372.179 434.503 372.259 434.99 372.418C435.477 372.577 435.911 372.81 436.293 373.119C436.674 373.424 436.987 373.798 437.232 374.242C437.481 374.683 437.643 375.187 437.719 375.754ZM441.526 382.654C441.043 382.654 440.607 382.568 440.219 382.396C439.834 382.22 439.53 381.961 439.304 381.62C439.082 381.279 438.971 380.858 438.971 380.357C438.971 379.926 439.051 379.57 439.21 379.288C439.369 379.007 439.586 378.781 439.861 378.612C440.136 378.443 440.446 378.316 440.791 378.229C441.139 378.14 441.498 378.075 441.869 378.036C442.317 377.989 442.68 377.948 442.958 377.911C443.237 377.871 443.439 377.812 443.565 377.732C443.694 377.649 443.759 377.522 443.759 377.349V377.32C443.759 376.945 443.648 376.655 443.426 376.45C443.204 376.244 442.884 376.141 442.466 376.141C442.025 376.141 441.676 376.237 441.417 376.43C441.162 376.622 440.99 376.849 440.9 377.111L439.22 376.872C439.352 376.408 439.571 376.02 439.876 375.709C440.181 375.394 440.554 375.159 440.994 375.003C441.435 374.844 441.923 374.764 442.456 374.764C442.824 374.764 443.19 374.807 443.555 374.893C443.919 374.98 444.253 375.122 444.554 375.321C444.856 375.517 445.098 375.783 445.28 376.121C445.466 376.46 445.558 376.882 445.558 377.389V382.5H443.828V381.451H443.769C443.659 381.663 443.505 381.862 443.306 382.048C443.111 382.23 442.864 382.377 442.566 382.49C442.271 382.599 441.924 382.654 441.526 382.654ZM441.994 381.332C442.355 381.332 442.668 381.26 442.933 381.118C443.199 380.972 443.402 380.78 443.545 380.541C443.691 380.303 443.764 380.042 443.764 379.761V378.861C443.707 378.907 443.611 378.95 443.475 378.99C443.343 379.03 443.194 379.065 443.028 379.094C442.862 379.124 442.698 379.151 442.536 379.174C442.373 379.197 442.232 379.217 442.113 379.234C441.845 379.27 441.604 379.33 441.392 379.413C441.18 379.496 441.013 379.612 440.89 379.761C440.767 379.906 440.706 380.095 440.706 380.327C440.706 380.659 440.827 380.909 441.069 381.078C441.311 381.247 441.619 381.332 441.994 381.332ZM449.168 378.026V382.5H447.368V374.864H449.088V376.161H449.178C449.353 375.734 449.633 375.394 450.018 375.142C450.406 374.89 450.885 374.764 451.455 374.764C451.982 374.764 452.441 374.877 452.832 375.102C453.226 375.328 453.531 375.654 453.747 376.082C453.965 376.509 454.073 377.028 454.07 377.638V382.5H452.27V377.916C452.27 377.406 452.137 377.006 451.872 376.718C451.61 376.43 451.248 376.286 450.784 376.286C450.469 376.286 450.189 376.355 449.943 376.494C449.701 376.63 449.511 376.827 449.372 377.086C449.236 377.344 449.168 377.658 449.168 378.026ZM459.23 382.649C458.468 382.649 457.813 382.482 457.267 382.147C456.723 381.812 456.304 381.35 456.009 380.76C455.717 380.167 455.571 379.484 455.571 378.712C455.571 377.936 455.72 377.252 456.019 376.658C456.317 376.062 456.738 375.598 457.281 375.266C457.828 374.932 458.475 374.764 459.22 374.764C459.84 374.764 460.389 374.879 460.866 375.107C461.347 375.333 461.729 375.652 462.014 376.067C462.299 376.478 462.462 376.958 462.502 377.509H460.781C460.712 377.141 460.546 376.834 460.284 376.589C460.026 376.34 459.679 376.216 459.245 376.216C458.877 376.216 458.554 376.315 458.276 376.514C457.997 376.71 457.78 376.991 457.624 377.359C457.472 377.727 457.396 378.168 457.396 378.682C457.396 379.202 457.472 379.65 457.624 380.024C457.777 380.395 457.991 380.682 458.266 380.884C458.544 381.083 458.871 381.183 459.245 381.183C459.51 381.183 459.747 381.133 459.956 381.033C460.168 380.931 460.346 380.783 460.488 380.591C460.631 380.399 460.728 380.165 460.781 379.89H462.502C462.459 380.43 462.299 380.909 462.024 381.327C461.749 381.741 461.375 382.066 460.901 382.301C460.427 382.533 459.87 382.649 459.23 382.649ZM467.36 382.649C466.594 382.649 465.933 382.49 465.376 382.172C464.823 381.85 464.397 381.396 464.099 380.81C463.8 380.22 463.651 379.525 463.651 378.727C463.651 377.941 463.8 377.252 464.099 376.658C464.4 376.062 464.821 375.598 465.362 375.266C465.902 374.932 466.536 374.764 467.266 374.764C467.736 374.764 468.18 374.84 468.598 374.993C469.019 375.142 469.39 375.374 469.712 375.689C470.036 376.004 470.292 376.405 470.477 376.892C470.663 377.376 470.756 377.953 470.756 378.622V379.174H464.496V377.961H469.031C469.027 377.616 468.953 377.31 468.807 377.041C468.661 376.769 468.457 376.556 468.195 376.4C467.937 376.244 467.635 376.166 467.29 376.166C466.923 376.166 466.599 376.256 466.321 376.435C466.043 376.61 465.826 376.842 465.67 377.131C465.517 377.416 465.439 377.729 465.436 378.07V379.129C465.436 379.573 465.517 379.955 465.68 380.273C465.842 380.588 466.069 380.83 466.361 380.999C466.652 381.164 466.994 381.247 467.385 381.247C467.647 381.247 467.884 381.211 468.096 381.138C468.308 381.062 468.492 380.951 468.648 380.805C468.804 380.659 468.921 380.478 469.001 380.263L470.681 380.452C470.575 380.896 470.373 381.284 470.075 381.615C469.78 381.943 469.402 382.198 468.941 382.381C468.48 382.56 467.953 382.649 467.36 382.649ZM474.078 372.318V382.5H472.278V372.318H474.078ZM478.126 382.654C477.642 382.654 477.206 382.568 476.819 382.396C476.434 382.22 476.129 381.961 475.904 381.62C475.682 381.279 475.571 380.858 475.571 380.357C475.571 379.926 475.65 379.57 475.809 379.288C475.968 379.007 476.185 378.781 476.461 378.612C476.736 378.443 477.046 378.316 477.39 378.229C477.738 378.14 478.098 378.075 478.469 378.036C478.917 377.989 479.279 377.948 479.558 377.911C479.836 377.871 480.038 377.812 480.164 377.732C480.294 377.649 480.358 377.522 480.358 377.349V377.32C480.358 376.945 480.247 376.655 480.025 376.45C479.803 376.244 479.483 376.141 479.066 376.141C478.625 376.141 478.275 376.237 478.017 376.43C477.761 376.622 477.589 376.849 477.5 377.111L475.819 376.872C475.952 376.408 476.171 376.02 476.475 375.709C476.78 375.394 477.153 375.159 477.594 375.003C478.035 374.844 478.522 374.764 479.056 374.764C479.424 374.764 479.79 374.807 480.154 374.893C480.519 374.98 480.852 375.122 481.154 375.321C481.455 375.517 481.697 375.783 481.88 376.121C482.065 376.46 482.158 376.882 482.158 377.389V382.5H480.428V381.451H480.368C480.259 381.663 480.105 381.862 479.906 382.048C479.71 382.23 479.463 382.377 479.165 382.49C478.87 382.599 478.524 382.654 478.126 382.654ZM478.593 381.332C478.955 381.332 479.268 381.26 479.533 381.118C479.798 380.972 480.002 380.78 480.145 380.541C480.29 380.303 480.363 380.042 480.363 379.761V378.861C480.307 378.907 480.211 378.95 480.075 378.99C479.942 379.03 479.793 379.065 479.627 379.094C479.462 379.124 479.298 379.151 479.135 379.174C478.973 379.197 478.832 379.217 478.713 379.234C478.444 379.27 478.204 379.33 477.992 379.413C477.78 379.496 477.612 379.612 477.49 379.761C477.367 379.906 477.306 380.095 477.306 380.327C477.306 380.659 477.427 380.909 477.669 381.078C477.911 381.247 478.219 381.332 478.593 381.332ZM483.968 382.5V374.864H485.713V376.136H485.792C485.931 375.696 486.17 375.356 486.508 375.117C486.85 374.875 487.239 374.754 487.676 374.754C487.776 374.754 487.887 374.759 488.01 374.769C488.136 374.776 488.24 374.787 488.323 374.804V376.46C488.247 376.433 488.126 376.41 487.96 376.39C487.797 376.367 487.64 376.355 487.488 376.355C487.159 376.355 486.864 376.426 486.603 376.569C486.344 376.708 486.14 376.902 485.991 377.151C485.842 377.399 485.767 377.686 485.767 378.011V382.5H483.968Z" fill="#690005"/>
<path fill-rule="evenodd" clip-rule="evenodd" d="M509 367.25C503.615 367.25 499.25 371.615 499.25 377C499.25 382.385 503.615 386.75 509 386.75C514.385 386.75 518.75 382.385 518.75 377C518.75 371.615 514.385 367.25 509 367.25ZM507.28 374.22C507.211 374.146 507.129 374.087 507.037 374.046C506.945 374.005 506.845 373.983 506.745 373.981C506.644 373.98 506.544 373.998 506.45 374.036C506.357 374.074 506.272 374.13 506.201 374.201C506.13 374.272 506.074 374.357 506.036 374.45C505.998 374.544 505.98 374.644 505.981 374.745C505.983 374.845 506.005 374.945 506.046 375.037C506.087 375.129 506.146 375.211 506.22 375.28L507.94 377L506.22 378.72C506.146 378.789 506.087 378.871 506.046 378.963C506.005 379.055 505.983 379.155 505.981 379.255C505.98 379.356 505.998 379.456 506.036 379.55C506.074 379.643 506.13 379.728 506.201 379.799C506.272 379.87 506.357 379.926 506.45 379.964C506.544 380.002 506.644 380.02 506.745 380.019C506.845 380.017 506.945 379.995 507.037 379.954C507.129 379.913 507.211 379.854 507.28 379.78L509 378.06L510.72 379.78C510.789 379.854 510.871 379.913 510.963 379.954C511.055 379.995 511.155 380.017 511.255 380.019C511.356 380.02 511.456 380.002 511.55 379.964C511.643 379.926 511.728 379.87 511.799 379.799C511.87 379.728 511.926 379.643 511.964 379.55C512.002 379.456 512.02 379.356 512.019 379.255C512.017 379.155 511.995 379.055 511.954 378.963C511.913 378.871 511.854 378.789 511.78 378.72L510.06 377L511.78 375.28C511.854 375.211 511.913 375.129 511.954 375.037C511.995 374.945 512.017 374.845 512.019 374.745C512.02 374.644 512.002 374.544 511.964 374.45C511.926 374.357 511.87 374.272 511.799 374.201C511.728 374.13 511.643 374.074 511.55 374.036C511.456 373.998 511.356 373.98 511.255 373.981C511.155 373.983 511.055 374.005 510.963 374.046C510.871 374.087 510.789 374.146 510.72 374.22L509 375.94L507.28 374.22Z" fill="#690005"/>
<rect x="537" y="357" width="91" height="40" rx="12" fill="#0071E3"/>
<path d="M551.538 375.117C551.491 374.683 551.296 374.345 550.951 374.103C550.61 373.861 550.165 373.74 549.619 373.74C549.234 373.74 548.904 373.798 548.629 373.914C548.354 374.03 548.144 374.187 547.998 374.386C547.852 374.585 547.777 374.812 547.774 375.067C547.774 375.28 547.822 375.464 547.918 375.619C548.018 375.775 548.152 375.908 548.321 376.017C548.49 376.123 548.677 376.213 548.883 376.286C549.088 376.358 549.295 376.42 549.504 376.469L550.459 376.708C550.843 376.798 551.213 376.919 551.567 377.071C551.925 377.223 552.245 377.416 552.527 377.648C552.812 377.88 553.037 378.16 553.203 378.488C553.369 378.816 553.452 379.201 553.452 379.641C553.452 380.238 553.299 380.763 552.994 381.217C552.689 381.668 552.249 382.021 551.672 382.276C551.098 382.528 550.404 382.654 549.589 382.654C548.797 382.654 548.109 382.531 547.526 382.286C546.946 382.041 546.491 381.683 546.163 381.212C545.839 380.742 545.663 380.168 545.636 379.492H547.451C547.478 379.847 547.587 380.142 547.779 380.377C547.971 380.612 548.222 380.788 548.53 380.904C548.841 381.02 549.189 381.078 549.574 381.078C549.975 381.078 550.326 381.018 550.628 380.899C550.933 380.777 551.171 380.607 551.344 380.392C551.516 380.173 551.604 379.918 551.607 379.626C551.604 379.361 551.526 379.143 551.374 378.97C551.221 378.795 551.007 378.649 550.732 378.533C550.46 378.413 550.142 378.307 549.778 378.214L548.619 377.916C547.781 377.701 547.118 377.374 546.631 376.937C546.147 376.496 545.905 375.911 545.905 375.182C545.905 374.582 546.067 374.057 546.392 373.606C546.72 373.155 547.166 372.805 547.729 372.557C548.293 372.305 548.931 372.179 549.643 372.179C550.366 372.179 550.999 372.305 551.543 372.557C552.089 372.805 552.519 373.152 552.83 373.596C553.142 374.037 553.303 374.544 553.312 375.117H551.538ZM557.214 382.654C556.73 382.654 556.294 382.568 555.906 382.396C555.522 382.22 555.217 381.961 554.992 381.62C554.77 381.279 554.659 380.858 554.659 380.357C554.659 379.926 554.738 379.57 554.897 379.288C555.056 379.007 555.273 378.781 555.548 378.612C555.824 378.443 556.133 378.316 556.478 378.229C556.826 378.14 557.186 378.075 557.557 378.036C558.004 377.989 558.367 377.948 558.646 377.911C558.924 377.871 559.126 377.812 559.252 377.732C559.382 377.649 559.446 377.522 559.446 377.349V377.32C559.446 376.945 559.335 376.655 559.113 376.45C558.891 376.244 558.571 376.141 558.154 376.141C557.713 376.141 557.363 376.237 557.105 376.43C556.849 376.622 556.677 376.849 556.588 377.111L554.907 376.872C555.04 376.408 555.258 376.02 555.563 375.709C555.868 375.394 556.241 375.159 556.682 375.003C557.123 374.844 557.61 374.764 558.144 374.764C558.512 374.764 558.878 374.807 559.242 374.893C559.607 374.98 559.94 375.122 560.242 375.321C560.543 375.517 560.785 375.783 560.968 376.121C561.153 376.46 561.246 376.882 561.246 377.389V382.5H559.516V381.451H559.456C559.347 381.663 559.193 381.862 558.994 382.048C558.798 382.23 558.551 382.377 558.253 382.49C557.958 382.599 557.612 382.654 557.214 382.654ZM557.681 381.332C558.043 381.332 558.356 381.26 558.621 381.118C558.886 380.972 559.09 380.78 559.232 380.541C559.378 380.303 559.451 380.042 559.451 379.761V378.861C559.395 378.907 559.299 378.95 559.163 378.99C559.03 379.03 558.881 379.065 558.715 379.094C558.55 379.124 558.386 379.151 558.223 379.174C558.061 379.197 557.92 379.217 557.801 379.234C557.532 379.27 557.292 379.33 557.08 379.413C556.868 379.496 556.7 379.612 556.578 379.761C556.455 379.906 556.394 380.095 556.394 380.327C556.394 380.659 556.515 380.909 556.757 381.078C556.999 381.247 557.307 381.332 557.681 381.332ZM564.855 372.318V382.5H563.056V372.318H564.855ZM573.527 374.864L570.808 382.5H568.819L566.099 374.864H568.018L569.773 380.536H569.853L571.613 374.864H573.527ZM576.751 382.654C576.267 382.654 575.831 382.568 575.444 382.396C575.059 382.22 574.754 381.961 574.529 381.62C574.307 381.279 574.196 380.858 574.196 380.357C574.196 379.926 574.275 379.57 574.434 379.288C574.593 379.007 574.81 378.781 575.086 378.612C575.361 378.443 575.671 378.316 576.015 378.229C576.363 378.14 576.723 378.075 577.094 378.036C577.542 377.989 577.904 377.948 578.183 377.911C578.461 377.871 578.663 377.812 578.789 377.732C578.919 377.649 578.983 377.522 578.983 377.349V377.32C578.983 376.945 578.872 376.655 578.65 376.45C578.428 376.244 578.108 376.141 577.691 376.141C577.25 376.141 576.9 376.237 576.642 376.43C576.386 376.622 576.214 376.849 576.125 377.111L574.444 376.872C574.577 376.408 574.796 376.02 575.1 375.709C575.405 375.394 575.778 375.159 576.219 375.003C576.66 374.844 577.147 374.764 577.681 374.764C578.049 374.764 578.415 374.807 578.779 374.893C579.144 374.98 579.477 375.122 579.779 375.321C580.08 375.517 580.322 375.783 580.505 376.121C580.69 376.46 580.783 376.882 580.783 377.389V382.5H579.053V381.451H578.993C578.884 381.663 578.73 381.862 578.531 382.048C578.335 382.23 578.088 382.377 577.79 382.49C577.495 382.599 577.149 382.654 576.751 382.654ZM577.218 381.332C577.58 381.332 577.893 381.26 578.158 381.118C578.423 380.972 578.627 380.78 578.77 380.541C578.915 380.303 578.988 380.042 578.988 379.761V378.861C578.932 378.907 578.836 378.95 578.7 378.99C578.567 379.03 578.418 379.065 578.252 379.094C578.087 379.124 577.923 379.151 577.76 379.174C577.598 379.197 577.457 379.217 577.338 379.234C577.069 379.27 576.829 379.33 576.617 379.413C576.405 379.496 576.237 379.612 576.115 379.761C575.992 379.906 575.931 380.095 575.931 380.327C575.931 380.659 576.052 380.909 576.294 381.078C576.536 381.247 576.844 381.332 577.218 381.332ZM582.593 382.5V374.864H584.338V376.136H584.417C584.556 375.696 584.795 375.356 585.133 375.117C585.475 374.875 585.864 374.754 586.301 374.754C586.401 374.754 586.512 374.759 586.635 374.769C586.761 374.776 586.865 374.787 586.948 374.804V376.46C586.872 376.433 586.751 376.41 586.585 376.39C586.422 376.367 586.265 376.355 586.113 376.355C585.784 376.355 585.489 376.426 585.228 376.569C584.969 376.708 584.765 376.902 584.616 377.151C584.467 377.399 584.392 377.686 584.392 378.011V382.5H582.593Z" fill="white"/>
<path fill-rule="evenodd" clip-rule="evenodd" d="M615.5 386C616.296 386 617.059 385.684 617.621 385.121C618.184 384.559 618.5 383.796 618.5 383V374C618.5 373.204 618.184 372.441 617.621 371.879C617.059 371.316 616.296 371 615.5 371H610.121C609.922 371 609.732 370.921 609.591 370.78L607.47 368.66C607.261 368.451 607.013 368.285 606.74 368.172C606.467 368.058 606.175 368 605.879 368H600.5C599.704 368 598.941 368.316 598.379 368.879C597.816 369.441 597.5 370.204 597.5 371V383C597.5 383.796 597.816 384.559 598.379 385.121C598.941 385.684 599.704 386 600.5 386H615.5ZM608.75 375.5C608.75 375.301 608.671 375.11 608.53 374.97C608.39 374.829 608.199 374.75 608 374.75C607.801 374.75 607.61 374.829 607.47 374.97C607.329 375.11 607.25 375.301 607.25 375.5V377.75H605C604.801 377.75 604.61 377.829 604.47 377.97C604.329 378.11 604.25 378.301 604.25 378.5C604.25 378.699 604.329 378.89 604.47 379.03C604.61 379.171 604.801 379.25 605 379.25H607.25V381.5C607.25 381.699 607.329 381.89 607.47 382.03C607.61 382.171 607.801 382.25 608 382.25C608.199 382.25 608.39 382.171 608.53 382.03C608.671 381.89 608.75 381.699 608.75 381.5V379.25H611C611.199 379.25 611.39 379.171 611.53 379.03C611.671 378.89 611.75 378.699 611.75 378.5C611.75 378.301 611.671 378.11 611.53 377.97C611.39 377.829 611.199 377.75 611 377.75H608.75V375.5Z" fill="white"/>
<path d="M101.568 211.76L93.216 234H88.992L80.608 211.76H84.512L91.104 230.256L97.728 211.76H101.568ZM106.475 214.032C105.813 214.032 105.259 213.808 104.811 213.36C104.363 212.912 104.139 212.357 104.139 211.696C104.139 211.035 104.363 210.48 104.811 210.032C105.259 209.584 105.813 209.36 106.475 209.36C107.115 209.36 107.659 209.584 108.107 210.032C108.555 210.48 108.779 211.035 108.779 211.696C108.779 212.357 108.555 212.912 108.107 213.36C107.659 213.808 107.115 214.032 106.475 214.032ZM108.267 216.368V234H104.619V216.368H108.267ZM111.84 225.104C111.84 223.333 112.203 221.765 112.928 220.4C113.675 219.035 114.678 217.979 115.936 217.232C117.216 216.464 118.635 216.08 120.192 216.08C121.344 216.08 122.475 216.336 123.584 216.848C124.715 217.339 125.611 218 126.272 218.832V210.32H129.952V234H126.272V231.344C125.675 232.197 124.843 232.901 123.776 233.456C122.731 234.011 121.526 234.288 120.16 234.288C118.624 234.288 117.216 233.904 115.936 233.136C114.678 232.347 113.675 231.259 112.928 229.872C112.203 228.464 111.84 226.875 111.84 225.104ZM126.272 225.168C126.272 223.952 126.016 222.896 125.504 222C125.014 221.104 124.363 220.421 123.552 219.952C122.742 219.483 121.867 219.248 120.928 219.248C119.99 219.248 119.115 219.483 118.304 219.952C117.494 220.4 116.832 221.072 116.32 221.968C115.83 222.843 115.584 223.888 115.584 225.104C115.584 226.32 115.83 227.387 116.32 228.304C116.832 229.221 117.494 229.925 118.304 230.416C119.136 230.885 120.011 231.12 120.928 231.12C121.867 231.12 122.742 230.885 123.552 230.416C124.363 229.947 125.014 229.264 125.504 228.368C126.016 227.451 126.272 226.384 126.272 225.168ZM133.528 225.104C133.528 223.333 133.89 221.765 134.616 220.4C135.362 219.035 136.365 217.979 137.624 217.232C138.904 216.464 140.312 216.08 141.848 216.08C143.234 216.08 144.44 216.357 145.464 216.912C146.509 217.445 147.341 218.117 147.96 218.928V216.368H151.64V234H147.96V231.376C147.341 232.208 146.498 232.901 145.432 233.456C144.365 234.011 143.149 234.288 141.784 234.288C140.269 234.288 138.882 233.904 137.624 233.136C136.365 232.347 135.362 231.259 134.616 229.872C133.89 228.464 133.528 226.875 133.528 225.104ZM147.96 225.168C147.96 223.952 147.704 222.896 147.192 222C146.701 221.104 146.05 220.421 145.24 219.952C144.429 219.483 143.554 219.248 142.616 219.248C141.677 219.248 140.802 219.483 139.992 219.952C139.181 220.4 138.52 221.072 138.008 221.968C137.517 222.843 137.272 223.888 137.272 225.104C137.272 226.32 137.517 227.387 138.008 228.304C138.52 229.221 139.181 229.925 139.992 230.416C140.824 230.885 141.698 231.12 142.616 231.12C143.554 231.12 144.429 230.885 145.24 230.416C146.05 229.947 146.701 229.264 147.192 228.368C147.704 227.451 147.96 226.384 147.96 225.168ZM173.615 223.984H167.151V230.608H163.759V223.984H157.295V220.912H163.759V214.288H167.151V220.912H173.615V223.984Z" fill="url(#paint0_linear_33_63)"/>
<defs>
<linearGradient id="paint0_linear_33_63" x1="80" y1="199" x2="128.5" y2="247" gradientUnits="userSpaceOnUse">
<stop stop-color="#00363C"/>
<stop offset="1" stop-color="#B1CBCF"/>
</linearGradient>
</defs>
</svg>
