<svg width="660" height="450" viewBox="0 0 660 450" fill="none" xmlns="http://www.w3.org/2000/svg">
<rect width="660" height="450" fill="white"/>
<path d="M275.636 61.3636V73H274.273L267.932 63.8636H267.818V73H266.409V61.3636H267.773L274.136 70.5227H274.25V61.3636H275.636ZM281.82 73.1818C281.032 73.1818 280.34 72.9943 279.746 72.6193C279.155 72.2443 278.693 71.7197 278.359 71.0455C278.03 70.3712 277.865 69.5833 277.865 68.6818C277.865 67.7727 278.03 66.9792 278.359 66.3011C278.693 65.6231 279.155 65.0966 279.746 64.7216C280.34 64.3466 281.032 64.1591 281.82 64.1591C282.607 64.1591 283.297 64.3466 283.888 64.7216C284.482 65.0966 284.945 65.6231 285.274 66.3011C285.607 66.9792 285.774 67.7727 285.774 68.6818C285.774 69.5833 285.607 70.3712 285.274 71.0455C284.945 71.7197 284.482 72.2443 283.888 72.6193C283.297 72.9943 282.607 73.1818 281.82 73.1818ZM281.82 71.9773C282.418 71.9773 282.911 71.8239 283.297 71.517C283.683 71.2102 283.969 70.8068 284.155 70.3068C284.34 69.8068 284.433 69.2652 284.433 68.6818C284.433 68.0985 284.34 67.5549 284.155 67.0511C283.969 66.5473 283.683 66.1402 283.297 65.8295C282.911 65.5189 282.418 65.3636 281.82 65.3636C281.221 65.3636 280.729 65.5189 280.342 65.8295C279.956 66.1402 279.67 66.5473 279.484 67.0511C279.299 67.5549 279.206 68.0985 279.206 68.6818C279.206 69.2652 279.299 69.8068 279.484 70.3068C279.67 70.8068 279.956 71.2102 280.342 71.517C280.729 71.8239 281.221 71.9773 281.82 71.9773ZM287.821 73V64.2727H289.116V65.6364H289.23C289.412 65.1705 289.705 64.8087 290.111 64.5511C290.516 64.2898 291.003 64.1591 291.571 64.1591C292.147 64.1591 292.626 64.2898 293.009 64.5511C293.395 64.8087 293.696 65.1705 293.912 65.6364H294.003C294.226 65.1856 294.562 64.8277 295.009 64.5625C295.455 64.2936 295.991 64.1591 296.616 64.1591C297.397 64.1591 298.035 64.4034 298.531 64.892C299.027 65.3769 299.276 66.1326 299.276 67.1591V73H297.935V67.1591C297.935 66.5152 297.759 66.0549 297.406 65.7784C297.054 65.5019 296.639 65.3636 296.162 65.3636C295.548 65.3636 295.073 65.5492 294.736 65.9205C294.399 66.2879 294.23 66.7538 294.23 67.3182V73H292.866V67.0227C292.866 66.5265 292.705 66.1269 292.384 65.8239C292.062 65.517 291.647 65.3636 291.139 65.3636C290.791 65.3636 290.465 65.4564 290.162 65.642C289.863 65.8277 289.62 66.0852 289.435 66.4148C289.253 66.7405 289.162 67.1174 289.162 67.5455V73H287.821ZM305.386 73.1818C304.545 73.1818 303.82 72.9962 303.21 72.625C302.604 72.25 302.136 71.7273 301.807 71.0568C301.481 70.3826 301.318 69.5985 301.318 68.7045C301.318 67.8106 301.481 67.0227 301.807 66.3409C302.136 65.6553 302.595 65.1212 303.182 64.7386C303.773 64.3523 304.462 64.1591 305.25 64.1591C305.705 64.1591 306.153 64.2348 306.597 64.3864C307.04 64.5379 307.443 64.7841 307.807 65.125C308.17 65.4621 308.46 65.9091 308.676 66.4659C308.892 67.0227 309 67.7083 309 68.5227V69.0909H302.273V67.9318H307.636C307.636 67.4394 307.538 67 307.341 66.6136C307.148 66.2273 306.871 65.9223 306.511 65.6989C306.155 65.4754 305.735 65.3636 305.25 65.3636C304.716 65.3636 304.254 65.4962 303.864 65.7614C303.477 66.0227 303.18 66.3636 302.972 66.7841C302.763 67.2045 302.659 67.6553 302.659 68.1364V68.9091C302.659 69.5682 302.773 70.1269 303 70.5852C303.231 71.0398 303.551 71.3864 303.96 71.625C304.369 71.8598 304.845 71.9773 305.386 71.9773C305.739 71.9773 306.057 71.928 306.341 71.8295C306.629 71.7273 306.877 71.5758 307.085 71.375C307.294 71.1705 307.455 70.9167 307.568 70.6136L308.864 70.9773C308.727 71.4167 308.498 71.803 308.176 72.1364C307.854 72.4659 307.456 72.7235 306.983 72.9091C306.509 73.0909 305.977 73.1818 305.386 73.1818Z" fill="#495057"/>
<rect x="265.25" y="85.25" width="362.5" height="34.5" rx="7.75" stroke="#495057" stroke-opacity="0.5" stroke-width="0.5"/>
<path d="M270.636 141.364H272.182L273.477 143.068L273.818 143.523L275.75 146.091H274.205L272.932 144.386L272.614 143.955L270.636 141.364ZM276.227 139.182C276.227 140.409 276.006 141.47 275.562 142.364C275.119 143.258 274.511 143.947 273.739 144.432C272.966 144.917 272.083 145.159 271.091 145.159C270.098 145.159 269.216 144.917 268.443 144.432C267.67 143.947 267.063 143.258 266.619 142.364C266.176 141.47 265.955 140.409 265.955 139.182C265.955 137.955 266.176 136.894 266.619 136C267.063 135.106 267.67 134.417 268.443 133.932C269.216 133.447 270.098 133.205 271.091 133.205C272.083 133.205 272.966 133.447 273.739 133.932C274.511 134.417 275.119 135.106 275.562 136C276.006 136.894 276.227 137.955 276.227 139.182ZM274.864 139.182C274.864 138.174 274.695 137.324 274.358 136.631C274.025 135.938 273.572 135.413 273 135.057C272.432 134.701 271.795 134.523 271.091 134.523C270.386 134.523 269.748 134.701 269.176 135.057C268.608 135.413 268.155 135.938 267.818 136.631C267.485 137.324 267.318 138.174 267.318 139.182C267.318 140.189 267.485 141.04 267.818 141.733C268.155 142.426 268.608 142.951 269.176 143.307C269.748 143.663 270.386 143.841 271.091 143.841C271.795 143.841 272.432 143.663 273 143.307C273.572 142.951 274.025 142.426 274.358 141.733C274.695 141.04 274.864 140.189 274.864 139.182ZM283.915 141.432V136.273H285.256V145H283.915V143.523H283.824C283.619 143.966 283.301 144.343 282.869 144.653C282.438 144.96 281.892 145.114 281.233 145.114C280.688 145.114 280.203 144.994 279.778 144.756C279.354 144.513 279.021 144.15 278.778 143.665C278.536 143.176 278.415 142.561 278.415 141.818V136.273H279.756V141.727C279.756 142.364 279.934 142.871 280.29 143.25C280.65 143.629 281.108 143.818 281.665 143.818C281.998 143.818 282.337 143.733 282.682 143.562C283.03 143.392 283.322 143.131 283.557 142.778C283.795 142.426 283.915 141.977 283.915 141.432ZM290.28 145.205C289.727 145.205 289.225 145.1 288.774 144.892C288.323 144.68 287.965 144.375 287.7 143.977C287.435 143.576 287.303 143.091 287.303 142.523C287.303 142.023 287.401 141.617 287.598 141.307C287.795 140.992 288.058 140.746 288.388 140.568C288.717 140.39 289.081 140.258 289.479 140.17C289.88 140.08 290.284 140.008 290.689 139.955C291.219 139.886 291.649 139.835 291.979 139.801C292.312 139.763 292.554 139.701 292.706 139.614C292.861 139.527 292.939 139.375 292.939 139.159V139.114C292.939 138.553 292.786 138.117 292.479 137.807C292.176 137.496 291.715 137.341 291.098 137.341C290.458 137.341 289.956 137.481 289.592 137.761C289.229 138.042 288.973 138.341 288.825 138.659L287.553 138.205C287.78 137.674 288.083 137.261 288.462 136.966C288.844 136.667 289.261 136.458 289.712 136.341C290.166 136.22 290.613 136.159 291.053 136.159C291.333 136.159 291.655 136.193 292.018 136.261C292.386 136.326 292.74 136.46 293.081 136.665C293.426 136.869 293.712 137.178 293.939 137.591C294.166 138.004 294.28 138.557 294.28 139.25V145H292.939V143.818H292.871C292.78 144.008 292.628 144.21 292.416 144.426C292.204 144.642 291.922 144.826 291.57 144.977C291.217 145.129 290.787 145.205 290.28 145.205ZM290.484 144C291.015 144 291.462 143.896 291.825 143.688C292.193 143.479 292.469 143.21 292.655 142.881C292.844 142.551 292.939 142.205 292.939 141.841V140.614C292.882 140.682 292.757 140.744 292.564 140.801C292.375 140.854 292.155 140.902 291.905 140.943C291.659 140.981 291.418 141.015 291.183 141.045C290.952 141.072 290.765 141.095 290.621 141.114C290.272 141.159 289.946 141.233 289.643 141.335C289.344 141.434 289.102 141.583 288.916 141.784C288.734 141.981 288.643 142.25 288.643 142.591C288.643 143.057 288.816 143.409 289.161 143.648C289.509 143.883 289.95 144 290.484 144ZM298.068 139.75V145H296.727V136.273H298.023V137.636H298.136C298.341 137.193 298.652 136.837 299.068 136.568C299.485 136.295 300.023 136.159 300.682 136.159C301.273 136.159 301.79 136.28 302.233 136.523C302.676 136.761 303.021 137.125 303.267 137.614C303.513 138.098 303.636 138.712 303.636 139.455V145H302.295V139.545C302.295 138.86 302.117 138.326 301.761 137.943C301.405 137.557 300.917 137.364 300.295 137.364C299.867 137.364 299.485 137.456 299.148 137.642C298.814 137.828 298.551 138.098 298.358 138.455C298.165 138.811 298.068 139.242 298.068 139.75ZM309.882 136.273V137.409H305.359V136.273H309.882ZM306.678 134.182H308.018V142.5C308.018 142.879 308.073 143.163 308.183 143.352C308.297 143.538 308.441 143.663 308.615 143.727C308.793 143.788 308.981 143.818 309.178 143.818C309.325 143.818 309.446 143.811 309.541 143.795C309.636 143.777 309.712 143.761 309.768 143.75L310.041 144.955C309.95 144.989 309.823 145.023 309.661 145.057C309.498 145.095 309.291 145.114 309.041 145.114C308.662 145.114 308.291 145.032 307.928 144.869C307.568 144.706 307.268 144.458 307.03 144.125C306.795 143.792 306.678 143.371 306.678 142.864V134.182ZM311.899 145V136.273H313.24V145H311.899ZM312.581 134.818C312.32 134.818 312.094 134.729 311.905 134.551C311.719 134.373 311.626 134.159 311.626 133.909C311.626 133.659 311.719 133.445 311.905 133.267C312.094 133.089 312.32 133 312.581 133C312.842 133 313.066 133.089 313.251 133.267C313.441 133.445 313.536 133.659 313.536 133.909C313.536 134.159 313.441 134.373 313.251 134.551C313.066 134.729 312.842 134.818 312.581 134.818ZM318.991 145.182C318.264 145.182 317.622 144.998 317.065 144.631C316.509 144.259 316.073 143.737 315.759 143.062C315.444 142.384 315.287 141.583 315.287 140.659C315.287 139.742 315.444 138.947 315.759 138.273C316.073 137.598 316.51 137.078 317.071 136.71C317.632 136.343 318.279 136.159 319.014 136.159C319.582 136.159 320.031 136.254 320.361 136.443C320.694 136.629 320.948 136.841 321.122 137.08C321.3 137.314 321.438 137.508 321.537 137.659H321.651V133.364H322.991V145H321.696V143.659H321.537C321.438 143.818 321.298 144.019 321.116 144.261C320.935 144.5 320.675 144.714 320.338 144.903C320.001 145.089 319.552 145.182 318.991 145.182ZM319.173 143.977C319.711 143.977 320.166 143.837 320.537 143.557C320.908 143.273 321.19 142.881 321.384 142.381C321.577 141.877 321.673 141.295 321.673 140.636C321.673 139.985 321.579 139.415 321.389 138.926C321.2 138.434 320.92 138.051 320.548 137.778C320.177 137.502 319.719 137.364 319.173 137.364C318.605 137.364 318.132 137.509 317.753 137.801C317.378 138.089 317.096 138.481 316.906 138.977C316.721 139.47 316.628 140.023 316.628 140.636C316.628 141.258 316.723 141.822 316.912 142.33C317.105 142.833 317.389 143.235 317.764 143.534C318.143 143.83 318.613 143.977 319.173 143.977ZM328.202 145.205C327.649 145.205 327.147 145.1 326.696 144.892C326.245 144.68 325.887 144.375 325.622 143.977C325.357 143.576 325.224 143.091 325.224 142.523C325.224 142.023 325.323 141.617 325.52 141.307C325.717 140.992 325.98 140.746 326.31 140.568C326.639 140.39 327.003 140.258 327.401 140.17C327.802 140.08 328.205 140.008 328.611 139.955C329.141 139.886 329.571 139.835 329.901 139.801C330.234 139.763 330.476 139.701 330.628 139.614C330.783 139.527 330.861 139.375 330.861 139.159V139.114C330.861 138.553 330.707 138.117 330.401 137.807C330.098 137.496 329.637 137.341 329.02 137.341C328.38 137.341 327.878 137.481 327.514 137.761C327.151 138.042 326.895 138.341 326.747 138.659L325.474 138.205C325.702 137.674 326.005 137.261 326.384 136.966C326.766 136.667 327.183 136.458 327.634 136.341C328.088 136.22 328.535 136.159 328.974 136.159C329.255 136.159 329.577 136.193 329.94 136.261C330.308 136.326 330.662 136.46 331.003 136.665C331.348 136.869 331.634 137.178 331.861 137.591C332.088 138.004 332.202 138.557 332.202 139.25V145H330.861V143.818H330.793C330.702 144.008 330.55 144.21 330.338 144.426C330.126 144.642 329.844 144.826 329.491 144.977C329.139 145.129 328.709 145.205 328.202 145.205ZM328.406 144C328.937 144 329.384 143.896 329.747 143.688C330.115 143.479 330.391 143.21 330.577 142.881C330.766 142.551 330.861 142.205 330.861 141.841V140.614C330.804 140.682 330.679 140.744 330.486 140.801C330.296 140.854 330.077 140.902 329.827 140.943C329.58 140.981 329.34 141.015 329.105 141.045C328.874 141.072 328.687 141.095 328.543 141.114C328.194 141.159 327.868 141.233 327.565 141.335C327.266 141.434 327.024 141.583 326.838 141.784C326.656 141.981 326.565 142.25 326.565 142.591C326.565 143.057 326.738 143.409 327.082 143.648C327.431 143.883 327.872 144 328.406 144ZM337.945 145.182C337.217 145.182 336.575 144.998 336.018 144.631C335.462 144.259 335.026 143.737 334.712 143.062C334.397 142.384 334.24 141.583 334.24 140.659C334.24 139.742 334.397 138.947 334.712 138.273C335.026 137.598 335.464 137.078 336.024 136.71C336.585 136.343 337.232 136.159 337.967 136.159C338.536 136.159 338.984 136.254 339.314 136.443C339.647 136.629 339.901 136.841 340.075 137.08C340.253 137.314 340.392 137.508 340.49 137.659H340.604V133.364H341.945V145H340.649V143.659H340.49C340.392 143.818 340.251 144.019 340.07 144.261C339.888 144.5 339.628 144.714 339.291 144.903C338.954 145.089 338.505 145.182 337.945 145.182ZM338.126 143.977C338.664 143.977 339.119 143.837 339.49 143.557C339.861 143.273 340.143 142.881 340.337 142.381C340.53 141.877 340.626 141.295 340.626 140.636C340.626 139.985 340.532 139.415 340.342 138.926C340.153 138.434 339.873 138.051 339.501 137.778C339.13 137.502 338.672 137.364 338.126 137.364C337.558 137.364 337.085 137.509 336.706 137.801C336.331 138.089 336.049 138.481 335.859 138.977C335.674 139.47 335.581 140.023 335.581 140.636C335.581 141.258 335.676 141.822 335.865 142.33C336.058 142.833 336.342 143.235 336.717 143.534C337.096 143.83 337.566 143.977 338.126 143.977ZM348.246 145.182C347.405 145.182 346.679 144.996 346.07 144.625C345.464 144.25 344.996 143.727 344.666 143.057C344.34 142.383 344.178 141.598 344.178 140.705C344.178 139.811 344.34 139.023 344.666 138.341C344.996 137.655 345.454 137.121 346.041 136.739C346.632 136.352 347.321 136.159 348.109 136.159C348.564 136.159 349.013 136.235 349.456 136.386C349.899 136.538 350.303 136.784 350.666 137.125C351.03 137.462 351.32 137.909 351.536 138.466C351.751 139.023 351.859 139.708 351.859 140.523V141.091H345.132V139.932H350.496C350.496 139.439 350.397 139 350.2 138.614C350.007 138.227 349.731 137.922 349.371 137.699C349.015 137.475 348.594 137.364 348.109 137.364C347.575 137.364 347.113 137.496 346.723 137.761C346.337 138.023 346.039 138.364 345.831 138.784C345.623 139.205 345.518 139.655 345.518 140.136V140.909C345.518 141.568 345.632 142.127 345.859 142.585C346.09 143.04 346.411 143.386 346.82 143.625C347.229 143.86 347.704 143.977 348.246 143.977C348.598 143.977 348.916 143.928 349.2 143.83C349.488 143.727 349.736 143.576 349.945 143.375C350.153 143.17 350.314 142.917 350.428 142.614L351.723 142.977C351.587 143.417 351.357 143.803 351.036 144.136C350.714 144.466 350.316 144.723 349.842 144.909C349.369 145.091 348.837 145.182 348.246 145.182ZM358.581 145V133.364H365.604V134.614H359.99V138.545H365.24V139.795H359.99V143.75H365.695V145H358.581ZM374.143 138.227L372.939 138.568C372.863 138.367 372.751 138.172 372.604 137.983C372.46 137.79 372.263 137.631 372.013 137.506C371.763 137.381 371.443 137.318 371.053 137.318C370.518 137.318 370.073 137.441 369.717 137.688C369.365 137.93 369.189 138.239 369.189 138.614C369.189 138.947 369.31 139.21 369.553 139.403C369.795 139.597 370.174 139.758 370.689 139.886L371.984 140.205C372.765 140.394 373.346 140.684 373.729 141.074C374.111 141.46 374.303 141.958 374.303 142.568C374.303 143.068 374.159 143.515 373.871 143.909C373.587 144.303 373.189 144.614 372.678 144.841C372.166 145.068 371.571 145.182 370.893 145.182C370.003 145.182 369.267 144.989 368.683 144.602C368.1 144.216 367.731 143.652 367.575 142.909L368.848 142.591C368.969 143.061 369.198 143.413 369.536 143.648C369.876 143.883 370.321 144 370.871 144C371.496 144 371.992 143.867 372.359 143.602C372.731 143.333 372.916 143.011 372.916 142.636C372.916 142.333 372.81 142.08 372.598 141.875C372.386 141.667 372.06 141.511 371.621 141.409L370.166 141.068C369.367 140.879 368.78 140.585 368.405 140.188C368.034 139.786 367.848 139.284 367.848 138.682C367.848 138.189 367.986 137.754 368.263 137.375C368.543 136.996 368.924 136.699 369.405 136.483C369.89 136.267 370.439 136.159 371.053 136.159C371.916 136.159 372.594 136.348 373.087 136.727C373.583 137.106 373.935 137.606 374.143 138.227ZM380.116 136.273V137.409H375.594V136.273H380.116ZM376.912 134.182H378.253V142.5C378.253 142.879 378.308 143.163 378.418 143.352C378.531 143.538 378.675 143.663 378.849 143.727C379.027 143.788 379.215 143.818 379.412 143.818C379.56 143.818 379.681 143.811 379.776 143.795C379.87 143.777 379.946 143.761 380.003 143.75L380.276 144.955C380.185 144.989 380.058 145.023 379.895 145.057C379.732 145.095 379.526 145.114 379.276 145.114C378.897 145.114 378.526 145.032 378.162 144.869C377.802 144.706 377.503 144.458 377.264 144.125C377.029 143.792 376.912 143.371 376.912 142.864V134.182ZM385.585 145.182C384.797 145.182 384.106 144.994 383.511 144.619C382.92 144.244 382.458 143.72 382.125 143.045C381.795 142.371 381.631 141.583 381.631 140.682C381.631 139.773 381.795 138.979 382.125 138.301C382.458 137.623 382.92 137.097 383.511 136.722C384.106 136.347 384.797 136.159 385.585 136.159C386.373 136.159 387.063 136.347 387.653 136.722C388.248 137.097 388.71 137.623 389.04 138.301C389.373 138.979 389.54 139.773 389.54 140.682C389.54 141.583 389.373 142.371 389.04 143.045C388.71 143.72 388.248 144.244 387.653 144.619C387.063 144.994 386.373 145.182 385.585 145.182ZM385.585 143.977C386.184 143.977 386.676 143.824 387.062 143.517C387.449 143.21 387.735 142.807 387.92 142.307C388.106 141.807 388.199 141.265 388.199 140.682C388.199 140.098 388.106 139.555 387.92 139.051C387.735 138.547 387.449 138.14 387.062 137.83C386.676 137.519 386.184 137.364 385.585 137.364C384.987 137.364 384.494 137.519 384.108 137.83C383.722 138.14 383.436 138.547 383.25 139.051C383.064 139.555 382.972 140.098 382.972 140.682C382.972 141.265 383.064 141.807 383.25 142.307C383.436 142.807 383.722 143.21 384.108 143.517C384.494 143.824 384.987 143.977 385.585 143.977ZM397.541 148.273V143.659H397.428C397.329 143.818 397.189 144.019 397.007 144.261C396.825 144.5 396.566 144.714 396.229 144.903C395.892 145.089 395.443 145.182 394.882 145.182C394.155 145.182 393.513 144.998 392.956 144.631C392.399 144.259 391.964 143.737 391.649 143.062C391.335 142.384 391.178 141.583 391.178 140.659C391.178 139.742 391.335 138.947 391.649 138.273C391.964 137.598 392.401 137.078 392.962 136.71C393.522 136.343 394.17 136.159 394.905 136.159C395.473 136.159 395.922 136.254 396.251 136.443C396.585 136.629 396.839 136.841 397.013 137.08C397.191 137.314 397.329 137.508 397.428 137.659H397.587V136.273H398.882V148.273H397.541ZM395.064 143.977C395.602 143.977 396.056 143.837 396.428 143.557C396.799 143.273 397.081 142.881 397.274 142.381C397.467 141.877 397.564 141.295 397.564 140.636C397.564 139.985 397.469 139.415 397.28 138.926C397.09 138.434 396.81 138.051 396.439 137.778C396.068 137.502 395.609 137.364 395.064 137.364C394.496 137.364 394.022 137.509 393.643 137.801C393.268 138.089 392.986 138.481 392.797 138.977C392.611 139.47 392.518 140.023 392.518 140.636C392.518 141.258 392.613 141.822 392.803 142.33C392.996 142.833 393.28 143.235 393.655 143.534C394.034 143.83 394.503 143.977 395.064 143.977ZM406.837 141.432V136.273H408.178V145H406.837V143.523H406.746C406.541 143.966 406.223 144.343 405.791 144.653C405.359 144.96 404.814 145.114 404.155 145.114C403.609 145.114 403.125 144.994 402.7 144.756C402.276 144.513 401.943 144.15 401.7 143.665C401.458 143.176 401.337 142.561 401.337 141.818V136.273H402.678V141.727C402.678 142.364 402.856 142.871 403.212 143.25C403.571 143.629 404.03 143.818 404.587 143.818C404.92 143.818 405.259 143.733 405.604 143.562C405.952 143.392 406.244 143.131 406.479 142.778C406.717 142.426 406.837 141.977 406.837 141.432ZM414.293 145.182C413.452 145.182 412.726 144.996 412.116 144.625C411.51 144.25 411.043 143.727 410.713 143.057C410.387 142.383 410.224 141.598 410.224 140.705C410.224 139.811 410.387 139.023 410.713 138.341C411.043 137.655 411.501 137.121 412.088 136.739C412.679 136.352 413.368 136.159 414.156 136.159C414.611 136.159 415.06 136.235 415.503 136.386C415.946 136.538 416.349 136.784 416.713 137.125C417.077 137.462 417.366 137.909 417.582 138.466C417.798 139.023 417.906 139.708 417.906 140.523V141.091H411.179V139.932H416.543C416.543 139.439 416.444 139 416.247 138.614C416.054 138.227 415.777 137.922 415.418 137.699C415.062 137.475 414.641 137.364 414.156 137.364C413.622 137.364 413.16 137.496 412.77 137.761C412.384 138.023 412.086 138.364 411.878 138.784C411.67 139.205 411.565 139.655 411.565 140.136V140.909C411.565 141.568 411.679 142.127 411.906 142.585C412.137 143.04 412.457 143.386 412.866 143.625C413.276 143.86 413.751 143.977 414.293 143.977C414.645 143.977 414.963 143.928 415.247 143.83C415.535 143.727 415.783 143.576 415.991 143.375C416.2 143.17 416.361 142.917 416.474 142.614L417.77 142.977C417.634 143.417 417.404 143.803 417.082 144.136C416.76 144.466 416.363 144.723 415.889 144.909C415.416 145.091 414.884 145.182 414.293 145.182Z" fill="#495057"/>
<rect x="265.25" y="157.25" width="362.5" height="34.5" rx="7.75" stroke="#495057" stroke-opacity="0.5" stroke-width="0.5"/>
<path d="M266.409 217V205.364H267.818V215.75H273.227V217H266.409ZM278.773 217.182C277.985 217.182 277.294 216.994 276.699 216.619C276.108 216.244 275.646 215.72 275.312 215.045C274.983 214.371 274.818 213.583 274.818 212.682C274.818 211.773 274.983 210.979 275.312 210.301C275.646 209.623 276.108 209.097 276.699 208.722C277.294 208.347 277.985 208.159 278.773 208.159C279.561 208.159 280.25 208.347 280.841 208.722C281.436 209.097 281.898 209.623 282.227 210.301C282.561 210.979 282.727 211.773 282.727 212.682C282.727 213.583 282.561 214.371 282.227 215.045C281.898 215.72 281.436 216.244 280.841 216.619C280.25 216.994 279.561 217.182 278.773 217.182ZM278.773 215.977C279.371 215.977 279.864 215.824 280.25 215.517C280.636 215.21 280.922 214.807 281.108 214.307C281.294 213.807 281.386 213.265 281.386 212.682C281.386 212.098 281.294 211.555 281.108 211.051C280.922 210.547 280.636 210.14 280.25 209.83C279.864 209.519 279.371 209.364 278.773 209.364C278.174 209.364 277.682 209.519 277.295 209.83C276.909 210.14 276.623 210.547 276.438 211.051C276.252 211.555 276.159 212.098 276.159 212.682C276.159 213.265 276.252 213.807 276.438 214.307C276.623 214.807 276.909 215.21 277.295 215.517C277.682 215.824 278.174 215.977 278.773 215.977ZM288.57 208.273V209.409H284.047V208.273H288.57ZM285.365 206.182H286.706V214.5C286.706 214.879 286.761 215.163 286.871 215.352C286.984 215.538 287.128 215.663 287.303 215.727C287.481 215.788 287.668 215.818 287.865 215.818C288.013 215.818 288.134 215.811 288.229 215.795C288.323 215.777 288.399 215.761 288.456 215.75L288.729 216.955C288.638 216.989 288.511 217.023 288.348 217.057C288.185 217.095 287.979 217.114 287.729 217.114C287.35 217.114 286.979 217.032 286.615 216.869C286.255 216.706 285.956 216.458 285.717 216.125C285.482 215.792 285.365 215.371 285.365 214.864V206.182ZM294.152 217.182C293.311 217.182 292.586 216.996 291.976 216.625C291.37 216.25 290.902 215.727 290.572 215.057C290.247 214.383 290.084 213.598 290.084 212.705C290.084 211.811 290.247 211.023 290.572 210.341C290.902 209.655 291.36 209.121 291.947 208.739C292.538 208.352 293.228 208.159 294.016 208.159C294.47 208.159 294.919 208.235 295.362 208.386C295.805 208.538 296.209 208.784 296.572 209.125C296.936 209.462 297.226 209.909 297.442 210.466C297.658 211.023 297.766 211.708 297.766 212.523V213.091H291.038V211.932H296.402C296.402 211.439 296.304 211 296.107 210.614C295.913 210.227 295.637 209.922 295.277 209.699C294.921 209.475 294.5 209.364 294.016 209.364C293.482 209.364 293.019 209.496 292.629 209.761C292.243 210.023 291.946 210.364 291.737 210.784C291.529 211.205 291.425 211.655 291.425 212.136V212.909C291.425 213.568 291.538 214.127 291.766 214.585C291.997 215.04 292.317 215.386 292.726 215.625C293.135 215.86 293.61 215.977 294.152 215.977C294.504 215.977 294.822 215.928 295.107 215.83C295.394 215.727 295.643 215.576 295.851 215.375C296.059 215.17 296.22 214.917 296.334 214.614L297.629 214.977C297.493 215.417 297.264 215.803 296.942 216.136C296.62 216.466 296.222 216.723 295.749 216.909C295.275 217.091 294.743 217.182 294.152 217.182Z" fill="#495057"/>
<rect x="265.25" y="229.25" width="176" height="34.5" rx="7.75" stroke="#495057" stroke-opacity="0.5" stroke-width="0.5"/>
<path d="M453.386 205.364L456.841 215.159H456.977L460.432 205.364H461.909L457.636 217H456.182L451.909 205.364H453.386ZM466.386 217.182C465.545 217.182 464.82 216.996 464.21 216.625C463.604 216.25 463.136 215.727 462.807 215.057C462.481 214.383 462.318 213.598 462.318 212.705C462.318 211.811 462.481 211.023 462.807 210.341C463.136 209.655 463.595 209.121 464.182 208.739C464.773 208.352 465.462 208.159 466.25 208.159C466.705 208.159 467.153 208.235 467.597 208.386C468.04 208.538 468.443 208.784 468.807 209.125C469.17 209.462 469.46 209.909 469.676 210.466C469.892 211.023 470 211.708 470 212.523V213.091H463.273V211.932H468.636C468.636 211.439 468.538 211 468.341 210.614C468.148 210.227 467.871 209.922 467.511 209.699C467.155 209.475 466.735 209.364 466.25 209.364C465.716 209.364 465.254 209.496 464.864 209.761C464.477 210.023 464.18 210.364 463.972 210.784C463.763 211.205 463.659 211.655 463.659 212.136V212.909C463.659 213.568 463.773 214.127 464 214.585C464.231 215.04 464.551 215.386 464.96 215.625C465.369 215.86 465.845 215.977 466.386 215.977C466.739 215.977 467.057 215.928 467.341 215.83C467.629 215.727 467.877 215.576 468.085 215.375C468.294 215.17 468.455 214.917 468.568 214.614L469.864 214.977C469.727 215.417 469.498 215.803 469.176 216.136C468.854 216.466 468.456 216.723 467.983 216.909C467.509 217.091 466.977 217.182 466.386 217.182ZM473.381 211.75V217H472.04V208.273H473.335V209.636H473.449C473.653 209.193 473.964 208.837 474.381 208.568C474.797 208.295 475.335 208.159 475.994 208.159C476.585 208.159 477.102 208.28 477.545 208.523C477.989 208.761 478.333 209.125 478.58 209.614C478.826 210.098 478.949 210.712 478.949 211.455V217H477.608V211.545C477.608 210.86 477.43 210.326 477.074 209.943C476.718 209.557 476.229 209.364 475.608 209.364C475.18 209.364 474.797 209.456 474.46 209.642C474.127 209.828 473.864 210.098 473.67 210.455C473.477 210.811 473.381 211.242 473.381 211.75ZM484.945 217.182C484.126 217.182 483.422 216.989 482.831 216.602C482.24 216.216 481.786 215.684 481.467 215.006C481.149 214.328 480.99 213.553 480.99 212.682C480.99 211.795 481.153 211.013 481.479 210.335C481.808 209.653 482.267 209.121 482.854 208.739C483.445 208.352 484.134 208.159 484.922 208.159C485.536 208.159 486.089 208.273 486.581 208.5C487.073 208.727 487.477 209.045 487.791 209.455C488.106 209.864 488.301 210.341 488.376 210.886H487.036C486.933 210.489 486.706 210.136 486.354 209.83C486.005 209.519 485.536 209.364 484.945 209.364C484.422 209.364 483.964 209.5 483.57 209.773C483.179 210.042 482.875 210.422 482.655 210.915C482.439 211.403 482.331 211.977 482.331 212.636C482.331 213.311 482.437 213.898 482.649 214.398C482.865 214.898 483.168 215.286 483.558 215.562C483.952 215.839 484.414 215.977 484.945 215.977C485.293 215.977 485.609 215.917 485.893 215.795C486.178 215.674 486.418 215.5 486.615 215.273C486.812 215.045 486.952 214.773 487.036 214.455H488.376C488.301 214.97 488.113 215.434 487.814 215.847C487.518 216.256 487.126 216.581 486.638 216.824C486.153 217.062 485.589 217.182 484.945 217.182ZM490.337 217V208.273H491.678V217H490.337ZM491.018 206.818C490.757 206.818 490.532 206.729 490.342 206.551C490.157 206.373 490.064 206.159 490.064 205.909C490.064 205.659 490.157 205.445 490.342 205.267C490.532 205.089 490.757 205 491.018 205C491.28 205 491.503 205.089 491.689 205.267C491.878 205.445 491.973 205.659 491.973 205.909C491.973 206.159 491.878 206.373 491.689 206.551C491.503 206.729 491.28 206.818 491.018 206.818ZM494.134 217V208.273H495.429V209.636H495.543C495.724 209.17 496.018 208.809 496.423 208.551C496.829 208.29 497.315 208.159 497.884 208.159C498.459 208.159 498.938 208.29 499.321 208.551C499.707 208.809 500.009 209.17 500.224 209.636H500.315C500.539 209.186 500.874 208.828 501.321 208.562C501.768 208.294 502.304 208.159 502.929 208.159C503.709 208.159 504.348 208.403 504.844 208.892C505.34 209.377 505.588 210.133 505.588 211.159V217H504.247V211.159C504.247 210.515 504.071 210.055 503.719 209.778C503.366 209.502 502.952 209.364 502.474 209.364C501.861 209.364 501.385 209.549 501.048 209.92C500.711 210.288 500.543 210.754 500.543 211.318V217H499.179V211.023C499.179 210.527 499.018 210.127 498.696 209.824C498.374 209.517 497.959 209.364 497.452 209.364C497.103 209.364 496.777 209.456 496.474 209.642C496.175 209.828 495.933 210.085 495.747 210.415C495.565 210.741 495.474 211.117 495.474 211.545V217H494.134ZM511.699 217.182C510.858 217.182 510.133 216.996 509.523 216.625C508.917 216.25 508.449 215.727 508.119 215.057C507.794 214.383 507.631 213.598 507.631 212.705C507.631 211.811 507.794 211.023 508.119 210.341C508.449 209.655 508.907 209.121 509.494 208.739C510.085 208.352 510.775 208.159 511.562 208.159C512.017 208.159 512.466 208.235 512.909 208.386C513.352 208.538 513.756 208.784 514.119 209.125C514.483 209.462 514.773 209.909 514.989 210.466C515.205 211.023 515.312 211.708 515.312 212.523V213.091H508.585V211.932H513.949C513.949 211.439 513.85 211 513.653 210.614C513.46 210.227 513.184 209.922 512.824 209.699C512.468 209.475 512.047 209.364 511.562 209.364C511.028 209.364 510.566 209.496 510.176 209.761C509.79 210.023 509.492 210.364 509.284 210.784C509.076 211.205 508.972 211.655 508.972 212.136V212.909C508.972 213.568 509.085 214.127 509.312 214.585C509.544 215.04 509.864 215.386 510.273 215.625C510.682 215.86 511.157 215.977 511.699 215.977C512.051 215.977 512.369 215.928 512.653 215.83C512.941 215.727 513.189 215.576 513.398 215.375C513.606 215.17 513.767 214.917 513.881 214.614L515.176 214.977C515.04 215.417 514.811 215.803 514.489 216.136C514.167 216.466 513.769 216.723 513.295 216.909C512.822 217.091 512.29 217.182 511.699 217.182ZM518.693 211.75V217H517.352V208.273H518.648V209.636H518.761C518.966 209.193 519.277 208.837 519.693 208.568C520.11 208.295 520.648 208.159 521.307 208.159C521.898 208.159 522.415 208.28 522.858 208.523C523.301 208.761 523.646 209.125 523.892 209.614C524.138 210.098 524.261 210.712 524.261 211.455V217H522.92V211.545C522.92 210.86 522.742 210.326 522.386 209.943C522.03 209.557 521.542 209.364 520.92 209.364C520.492 209.364 520.11 209.456 519.773 209.642C519.439 209.828 519.176 210.098 518.983 210.455C518.79 210.811 518.693 211.242 518.693 211.75ZM530.507 208.273V209.409H525.984V208.273H530.507ZM527.303 206.182H528.643V214.5C528.643 214.879 528.698 215.163 528.808 215.352C528.922 215.538 529.066 215.663 529.24 215.727C529.418 215.788 529.606 215.818 529.803 215.818C529.95 215.818 530.071 215.811 530.166 215.795C530.261 215.777 530.337 215.761 530.393 215.75L530.666 216.955C530.575 216.989 530.448 217.023 530.286 217.057C530.123 217.095 529.916 217.114 529.666 217.114C529.287 217.114 528.916 217.032 528.553 216.869C528.193 216.706 527.893 216.458 527.655 216.125C527.42 215.792 527.303 215.371 527.303 214.864V206.182ZM535.976 217.182C535.188 217.182 534.497 216.994 533.902 216.619C533.311 216.244 532.849 215.72 532.516 215.045C532.186 214.371 532.021 213.583 532.021 212.682C532.021 211.773 532.186 210.979 532.516 210.301C532.849 209.623 533.311 209.097 533.902 208.722C534.497 208.347 535.188 208.159 535.976 208.159C536.764 208.159 537.453 208.347 538.044 208.722C538.639 209.097 539.101 209.623 539.43 210.301C539.764 210.979 539.93 211.773 539.93 212.682C539.93 213.583 539.764 214.371 539.43 215.045C539.101 215.72 538.639 216.244 538.044 216.619C537.453 216.994 536.764 217.182 535.976 217.182ZM535.976 215.977C536.574 215.977 537.067 215.824 537.453 215.517C537.839 215.21 538.125 214.807 538.311 214.307C538.497 213.807 538.589 213.265 538.589 212.682C538.589 212.098 538.497 211.555 538.311 211.051C538.125 210.547 537.839 210.14 537.453 209.83C537.067 209.519 536.574 209.364 535.976 209.364C535.377 209.364 534.885 209.519 534.499 209.83C534.112 210.14 533.826 210.547 533.641 211.051C533.455 211.555 533.362 212.098 533.362 212.682C533.362 213.265 533.455 213.807 533.641 214.307C533.826 214.807 534.112 215.21 534.499 215.517C534.885 215.824 535.377 215.977 535.976 215.977Z" fill="#495057"/>
<rect x="451.75" y="229.25" width="176" height="34.5" rx="7.75" stroke="#495057" stroke-opacity="0.5" stroke-width="0.5"/>
<path d="M266.409 289V277.364H270.341C271.254 277.364 272 277.528 272.58 277.858C273.163 278.184 273.595 278.625 273.875 279.182C274.155 279.739 274.295 280.36 274.295 281.045C274.295 281.731 274.155 282.354 273.875 282.915C273.598 283.475 273.17 283.922 272.591 284.256C272.011 284.585 271.269 284.75 270.364 284.75H267.545V283.5H270.318C270.943 283.5 271.445 283.392 271.824 283.176C272.203 282.96 272.477 282.669 272.648 282.301C272.822 281.93 272.909 281.511 272.909 281.045C272.909 280.58 272.822 280.163 272.648 279.795C272.477 279.428 272.201 279.14 271.818 278.932C271.436 278.72 270.928 278.614 270.295 278.614H267.818V289H266.409ZM276.384 289V280.273H277.679V281.591H277.77C277.929 281.159 278.217 280.809 278.634 280.54C279.05 280.271 279.52 280.136 280.043 280.136C280.141 280.136 280.264 280.138 280.412 280.142C280.56 280.146 280.671 280.152 280.747 280.159V281.523C280.702 281.511 280.598 281.494 280.435 281.472C280.276 281.445 280.107 281.432 279.929 281.432C279.505 281.432 279.126 281.521 278.793 281.699C278.463 281.873 278.202 282.116 278.009 282.426C277.819 282.733 277.724 283.083 277.724 283.477V289H276.384ZM285.73 289.182C284.889 289.182 284.164 288.996 283.554 288.625C282.948 288.25 282.48 287.727 282.151 287.057C281.825 286.383 281.662 285.598 281.662 284.705C281.662 283.811 281.825 283.023 282.151 282.341C282.48 281.655 282.938 281.121 283.526 280.739C284.116 280.352 284.806 280.159 285.594 280.159C286.048 280.159 286.497 280.235 286.94 280.386C287.384 280.538 287.787 280.784 288.151 281.125C288.514 281.462 288.804 281.909 289.02 282.466C289.236 283.023 289.344 283.708 289.344 284.523V285.091H282.616V283.932H287.98C287.98 283.439 287.882 283 287.685 282.614C287.491 282.227 287.215 281.922 286.855 281.699C286.499 281.475 286.079 281.364 285.594 281.364C285.06 281.364 284.598 281.496 284.207 281.761C283.821 282.023 283.524 282.364 283.315 282.784C283.107 283.205 283.003 283.655 283.003 284.136V284.909C283.003 285.568 283.116 286.127 283.344 286.585C283.575 287.04 283.895 287.386 284.304 287.625C284.713 287.86 285.188 287.977 285.73 287.977C286.082 287.977 286.401 287.928 286.685 287.83C286.973 287.727 287.221 287.576 287.429 287.375C287.637 287.17 287.798 286.917 287.912 286.614L289.207 286.977C289.071 287.417 288.842 287.803 288.52 288.136C288.198 288.466 287.8 288.723 287.327 288.909C286.853 289.091 286.321 289.182 285.73 289.182ZM294.929 289.182C294.111 289.182 293.406 288.989 292.815 288.602C292.224 288.216 291.77 287.684 291.452 287.006C291.134 286.328 290.974 285.553 290.974 284.682C290.974 283.795 291.137 283.013 291.463 282.335C291.793 281.653 292.251 281.121 292.838 280.739C293.429 280.352 294.118 280.159 294.906 280.159C295.52 280.159 296.073 280.273 296.565 280.5C297.058 280.727 297.461 281.045 297.776 281.455C298.09 281.864 298.285 282.341 298.361 282.886H297.02C296.918 282.489 296.69 282.136 296.338 281.83C295.99 281.519 295.52 281.364 294.929 281.364C294.406 281.364 293.948 281.5 293.554 281.773C293.164 282.042 292.859 282.422 292.639 282.915C292.423 283.403 292.315 283.977 292.315 284.636C292.315 285.311 292.421 285.898 292.634 286.398C292.849 286.898 293.152 287.286 293.543 287.562C293.937 287.839 294.399 287.977 294.929 287.977C295.277 287.977 295.594 287.917 295.878 287.795C296.162 287.674 296.402 287.5 296.599 287.273C296.796 287.045 296.937 286.773 297.02 286.455H298.361C298.285 286.97 298.098 287.434 297.798 287.847C297.503 288.256 297.111 288.581 296.622 288.824C296.137 289.062 295.573 289.182 294.929 289.182ZM294.293 288.955H295.406L295.315 289.409C295.611 289.455 295.882 289.578 296.128 289.778C296.374 289.983 296.497 290.307 296.497 290.75C296.497 291.239 296.295 291.636 295.889 291.943C295.488 292.254 294.895 292.409 294.111 292.409L294.065 291.523C294.418 291.523 294.709 291.466 294.94 291.352C295.175 291.242 295.293 291.057 295.293 290.795C295.293 290.534 295.196 290.356 295.003 290.261C294.81 290.167 294.497 290.102 294.065 290.068L294.293 288.955ZM303.866 289.182C303.079 289.182 302.387 288.994 301.793 288.619C301.202 288.244 300.74 287.72 300.406 287.045C300.077 286.371 299.912 285.583 299.912 284.682C299.912 283.773 300.077 282.979 300.406 282.301C300.74 281.623 301.202 281.097 301.793 280.722C302.387 280.347 303.079 280.159 303.866 280.159C304.654 280.159 305.344 280.347 305.935 280.722C306.529 281.097 306.991 281.623 307.321 282.301C307.654 282.979 307.821 283.773 307.821 284.682C307.821 285.583 307.654 286.371 307.321 287.045C306.991 287.72 306.529 288.244 305.935 288.619C305.344 288.994 304.654 289.182 303.866 289.182ZM303.866 287.977C304.465 287.977 304.957 287.824 305.344 287.517C305.73 287.21 306.016 286.807 306.202 286.307C306.387 285.807 306.48 285.265 306.48 284.682C306.48 284.098 306.387 283.555 306.202 283.051C306.016 282.547 305.73 282.14 305.344 281.83C304.957 281.519 304.465 281.364 303.866 281.364C303.268 281.364 302.776 281.519 302.389 281.83C302.003 282.14 301.717 282.547 301.531 283.051C301.346 283.555 301.253 284.098 301.253 284.682C301.253 285.265 301.346 285.807 301.531 286.307C301.717 286.807 302.003 287.21 302.389 287.517C302.776 287.824 303.268 287.977 303.866 287.977Z" fill="#495057"/>
<rect x="265.25" y="301.25" width="176.5" height="34.5" rx="7.75" stroke="#495057" stroke-opacity="0.5" stroke-width="0.5"/>
<path d="M452.409 289V277.364H456.341C457.254 277.364 458 277.528 458.58 277.858C459.163 278.184 459.595 278.625 459.875 279.182C460.155 279.739 460.295 280.36 460.295 281.045C460.295 281.731 460.155 282.354 459.875 282.915C459.598 283.475 459.17 283.922 458.591 284.256C458.011 284.585 457.269 284.75 456.364 284.75H453.545V283.5H456.318C456.943 283.5 457.445 283.392 457.824 283.176C458.203 282.96 458.477 282.669 458.648 282.301C458.822 281.93 458.909 281.511 458.909 281.045C458.909 280.58 458.822 280.163 458.648 279.795C458.477 279.428 458.201 279.14 457.818 278.932C457.436 278.72 456.928 278.614 456.295 278.614H453.818V289H452.409ZM462.384 289V280.273H463.679V281.591H463.77C463.929 281.159 464.217 280.809 464.634 280.54C465.05 280.271 465.52 280.136 466.043 280.136C466.141 280.136 466.264 280.138 466.412 280.142C466.56 280.146 466.671 280.152 466.747 280.159V281.523C466.702 281.511 466.598 281.494 466.435 281.472C466.276 281.445 466.107 281.432 465.929 281.432C465.505 281.432 465.126 281.521 464.793 281.699C464.463 281.873 464.202 282.116 464.009 282.426C463.819 282.733 463.724 283.083 463.724 283.477V289H462.384ZM471.73 289.182C470.889 289.182 470.164 288.996 469.554 288.625C468.948 288.25 468.48 287.727 468.151 287.057C467.825 286.383 467.662 285.598 467.662 284.705C467.662 283.811 467.825 283.023 468.151 282.341C468.48 281.655 468.938 281.121 469.526 280.739C470.116 280.352 470.806 280.159 471.594 280.159C472.048 280.159 472.497 280.235 472.94 280.386C473.384 280.538 473.787 280.784 474.151 281.125C474.514 281.462 474.804 281.909 475.02 282.466C475.236 283.023 475.344 283.708 475.344 284.523V285.091H468.616V283.932H473.98C473.98 283.439 473.882 283 473.685 282.614C473.491 282.227 473.215 281.922 472.855 281.699C472.499 281.475 472.079 281.364 471.594 281.364C471.06 281.364 470.598 281.496 470.207 281.761C469.821 282.023 469.524 282.364 469.315 282.784C469.107 283.205 469.003 283.655 469.003 284.136V284.909C469.003 285.568 469.116 286.127 469.344 286.585C469.575 287.04 469.895 287.386 470.304 287.625C470.713 287.86 471.188 287.977 471.73 287.977C472.082 287.977 472.401 287.928 472.685 287.83C472.973 287.727 473.221 287.576 473.429 287.375C473.637 287.17 473.798 286.917 473.912 286.614L475.207 286.977C475.071 287.417 474.842 287.803 474.52 288.136C474.198 288.466 473.8 288.723 473.327 288.909C472.853 289.091 472.321 289.182 471.73 289.182ZM483.565 282.227L482.361 282.568C482.285 282.367 482.173 282.172 482.026 281.983C481.882 281.79 481.685 281.631 481.435 281.506C481.185 281.381 480.865 281.318 480.474 281.318C479.94 281.318 479.495 281.441 479.139 281.688C478.787 281.93 478.611 282.239 478.611 282.614C478.611 282.947 478.732 283.21 478.974 283.403C479.217 283.597 479.596 283.758 480.111 283.886L481.406 284.205C482.187 284.394 482.768 284.684 483.151 285.074C483.533 285.46 483.724 285.958 483.724 286.568C483.724 287.068 483.58 287.515 483.293 287.909C483.009 288.303 482.611 288.614 482.099 288.841C481.588 289.068 480.993 289.182 480.315 289.182C479.425 289.182 478.688 288.989 478.105 288.602C477.522 288.216 477.152 287.652 476.997 286.909L478.27 286.591C478.391 287.061 478.62 287.413 478.957 287.648C479.298 287.883 479.743 288 480.293 288C480.918 288 481.414 287.867 481.781 287.602C482.152 287.333 482.338 287.011 482.338 286.636C482.338 286.333 482.232 286.08 482.02 285.875C481.808 285.667 481.482 285.511 481.043 285.409L479.588 285.068C478.789 284.879 478.202 284.585 477.827 284.188C477.455 283.786 477.27 283.284 477.27 282.682C477.27 282.189 477.408 281.754 477.685 281.375C477.965 280.996 478.346 280.699 478.827 280.483C479.312 280.267 479.861 280.159 480.474 280.159C481.338 280.159 482.016 280.348 482.509 280.727C483.005 281.106 483.357 281.606 483.565 282.227ZM489.288 289.182C488.47 289.182 487.766 288.989 487.175 288.602C486.584 288.216 486.129 287.684 485.811 287.006C485.493 286.328 485.334 285.553 485.334 284.682C485.334 283.795 485.497 283.013 485.822 282.335C486.152 281.653 486.61 281.121 487.197 280.739C487.788 280.352 488.478 280.159 489.266 280.159C489.879 280.159 490.432 280.273 490.925 280.5C491.417 280.727 491.821 281.045 492.135 281.455C492.449 281.864 492.644 282.341 492.72 282.886H491.379C491.277 282.489 491.05 282.136 490.697 281.83C490.349 281.519 489.879 281.364 489.288 281.364C488.766 281.364 488.307 281.5 487.913 281.773C487.523 282.042 487.218 282.422 486.999 282.915C486.783 283.403 486.675 283.977 486.675 284.636C486.675 285.311 486.781 285.898 486.993 286.398C487.209 286.898 487.512 287.286 487.902 287.562C488.296 287.839 488.758 287.977 489.288 287.977C489.637 287.977 489.953 287.917 490.237 287.795C490.521 287.674 490.762 287.5 490.959 287.273C491.156 287.045 491.296 286.773 491.379 286.455H492.72C492.644 286.97 492.457 287.434 492.158 287.847C491.862 288.256 491.47 288.581 490.982 288.824C490.497 289.062 489.932 289.182 489.288 289.182ZM494.68 289V280.273H495.976V281.591H496.067C496.226 281.159 496.514 280.809 496.93 280.54C497.347 280.271 497.817 280.136 498.339 280.136C498.438 280.136 498.561 280.138 498.709 280.142C498.857 280.146 498.968 280.152 499.044 280.159V281.523C498.999 281.511 498.894 281.494 498.732 281.472C498.572 281.445 498.404 281.432 498.226 281.432C497.802 281.432 497.423 281.521 497.089 281.699C496.76 281.873 496.499 282.116 496.305 282.426C496.116 282.733 496.021 283.083 496.021 283.477V289H494.68ZM500.634 289V280.273H501.974V289H500.634ZM501.315 278.818C501.054 278.818 500.829 278.729 500.639 278.551C500.454 278.373 500.361 278.159 500.361 277.909C500.361 277.659 500.454 277.445 500.639 277.267C500.829 277.089 501.054 277 501.315 277C501.577 277 501.8 277.089 501.986 277.267C502.175 277.445 502.27 277.659 502.27 277.909C502.27 278.159 502.175 278.373 501.986 278.551C501.8 278.729 501.577 278.818 501.315 278.818ZM507.976 289.182C507.158 289.182 506.453 288.989 505.862 288.602C505.271 288.216 504.817 287.684 504.499 287.006C504.18 286.328 504.021 285.553 504.021 284.682C504.021 283.795 504.184 283.013 504.51 282.335C504.839 281.653 505.298 281.121 505.885 280.739C506.476 280.352 507.165 280.159 507.953 280.159C508.567 280.159 509.12 280.273 509.612 280.5C510.105 280.727 510.508 281.045 510.822 281.455C511.137 281.864 511.332 282.341 511.408 282.886H510.067C509.964 282.489 509.737 282.136 509.385 281.83C509.036 281.519 508.567 281.364 507.976 281.364C507.453 281.364 506.995 281.5 506.601 281.773C506.211 282.042 505.906 282.422 505.686 282.915C505.47 283.403 505.362 283.977 505.362 284.636C505.362 285.311 505.468 285.898 505.68 286.398C505.896 286.898 506.199 287.286 506.589 287.562C506.983 287.839 507.446 287.977 507.976 287.977C508.324 287.977 508.641 287.917 508.925 287.795C509.209 287.674 509.449 287.5 509.646 287.273C509.843 287.045 509.983 286.773 510.067 286.455H511.408C511.332 286.97 511.144 287.434 510.845 287.847C510.55 288.256 510.158 288.581 509.669 288.824C509.184 289.062 508.62 289.182 507.976 289.182ZM507.339 288.955H508.453L508.362 289.409C508.658 289.455 508.929 289.578 509.175 289.778C509.421 289.983 509.544 290.307 509.544 290.75C509.544 291.239 509.341 291.636 508.936 291.943C508.535 292.254 507.942 292.409 507.158 292.409L507.112 291.523C507.464 291.523 507.756 291.466 507.987 291.352C508.222 291.242 508.339 291.057 508.339 290.795C508.339 290.534 508.243 290.356 508.05 290.261C507.857 290.167 507.544 290.102 507.112 290.068L507.339 288.955ZM515.936 289.205C515.383 289.205 514.881 289.1 514.43 288.892C513.98 288.68 513.622 288.375 513.357 287.977C513.091 287.576 512.959 287.091 512.959 286.523C512.959 286.023 513.057 285.617 513.254 285.307C513.451 284.992 513.714 284.746 514.044 284.568C514.374 284.39 514.737 284.258 515.135 284.17C515.536 284.08 515.94 284.008 516.345 283.955C516.875 283.886 517.305 283.835 517.635 283.801C517.968 283.763 518.211 283.701 518.362 283.614C518.518 283.527 518.595 283.375 518.595 283.159V283.114C518.595 282.553 518.442 282.117 518.135 281.807C517.832 281.496 517.372 281.341 516.754 281.341C516.114 281.341 515.612 281.481 515.249 281.761C514.885 282.042 514.629 282.341 514.482 282.659L513.209 282.205C513.436 281.674 513.739 281.261 514.118 280.966C514.5 280.667 514.917 280.458 515.368 280.341C515.822 280.22 516.269 280.159 516.709 280.159C516.989 280.159 517.311 280.193 517.675 280.261C518.042 280.326 518.396 280.46 518.737 280.665C519.082 280.869 519.368 281.178 519.595 281.591C519.822 282.004 519.936 282.557 519.936 283.25V289H518.595V287.818H518.527C518.436 288.008 518.285 288.21 518.072 288.426C517.86 288.642 517.578 288.826 517.226 288.977C516.874 289.129 516.444 289.205 515.936 289.205ZM516.141 288C516.671 288 517.118 287.896 517.482 287.688C517.849 287.479 518.125 287.21 518.311 286.881C518.5 286.551 518.595 286.205 518.595 285.841V284.614C518.538 284.682 518.413 284.744 518.22 284.801C518.031 284.854 517.811 284.902 517.561 284.943C517.315 284.981 517.074 285.015 516.839 285.045C516.608 285.072 516.421 285.095 516.277 285.114C515.929 285.159 515.603 285.233 515.3 285.335C515 285.434 514.758 285.583 514.572 285.784C514.391 285.981 514.3 286.25 514.3 286.591C514.3 287.057 514.472 287.409 514.817 287.648C515.165 287.883 515.607 288 516.141 288ZM515.05 279.227L514.004 279.182C514.004 278.602 514.169 278.129 514.499 277.761C514.832 277.39 515.243 277.205 515.732 277.205C515.947 277.205 516.139 277.242 516.305 277.318C516.472 277.39 516.631 277.473 516.783 277.568C516.934 277.663 517.089 277.748 517.249 277.824C517.411 277.896 517.595 277.932 517.8 277.932C518.016 277.932 518.197 277.848 518.345 277.682C518.497 277.511 518.572 277.307 518.572 277.068L519.595 277.159C519.595 277.75 519.429 278.22 519.095 278.568C518.766 278.917 518.357 279.091 517.868 279.091C517.607 279.091 517.391 279.055 517.22 278.983C517.05 278.907 516.898 278.822 516.766 278.727C516.633 278.633 516.493 278.549 516.345 278.477C516.197 278.402 516.016 278.364 515.8 278.364C515.584 278.364 515.404 278.449 515.26 278.619C515.12 278.786 515.05 278.989 515.05 279.227ZM525.929 289.182C525.141 289.182 524.45 288.994 523.855 288.619C523.264 288.244 522.802 287.72 522.469 287.045C522.139 286.371 521.974 285.583 521.974 284.682C521.974 283.773 522.139 282.979 522.469 282.301C522.802 281.623 523.264 281.097 523.855 280.722C524.45 280.347 525.141 280.159 525.929 280.159C526.717 280.159 527.406 280.347 527.997 280.722C528.592 281.097 529.054 281.623 529.384 282.301C529.717 282.979 529.884 283.773 529.884 284.682C529.884 285.583 529.717 286.371 529.384 287.045C529.054 287.72 528.592 288.244 527.997 288.619C527.406 288.994 526.717 289.182 525.929 289.182ZM525.929 287.977C526.527 287.977 527.02 287.824 527.406 287.517C527.793 287.21 528.079 286.807 528.264 286.307C528.45 285.807 528.543 285.265 528.543 284.682C528.543 284.098 528.45 283.555 528.264 283.051C528.079 282.547 527.793 282.14 527.406 281.83C527.02 281.519 526.527 281.364 525.929 281.364C525.33 281.364 524.838 281.519 524.452 281.83C524.065 282.14 523.779 282.547 523.594 283.051C523.408 283.555 523.315 284.098 523.315 284.682C523.315 285.265 523.408 285.807 523.594 286.307C523.779 286.807 524.065 287.21 524.452 287.517C524.838 287.824 525.33 287.977 525.929 287.977Z" fill="#495057"/>
<rect x="451.25" y="301.25" width="176.5" height="34.5" rx="7.75" stroke="#495057" stroke-opacity="0.5" stroke-width="0.5"/>
<rect x="420" y="352" width="109" height="40" rx="12" fill="#FFB4AB"/>
<path d="M437.719 370.754H435.86C435.807 370.449 435.709 370.179 435.567 369.943C435.424 369.705 435.247 369.502 435.035 369.337C434.823 369.171 434.581 369.047 434.309 368.964C434.04 368.878 433.75 368.835 433.439 368.835C432.885 368.835 432.395 368.974 431.967 369.252C431.54 369.527 431.205 369.932 430.963 370.465C430.721 370.996 430.6 371.643 430.6 372.409C430.6 373.188 430.721 373.844 430.963 374.378C431.208 374.908 431.543 375.309 431.967 375.581C432.395 375.849 432.884 375.984 433.434 375.984C433.739 375.984 434.024 375.944 434.289 375.864C434.558 375.781 434.798 375.661 435.01 375.501C435.225 375.342 435.406 375.147 435.552 374.915C435.701 374.683 435.804 374.418 435.86 374.119L437.719 374.129C437.65 374.613 437.499 375.067 437.267 375.491C437.038 375.916 436.738 376.29 436.367 376.615C435.996 376.937 435.562 377.188 435.065 377.371C434.567 377.55 434.016 377.639 433.409 377.639C432.514 377.639 431.715 377.432 431.013 377.018C430.31 376.603 429.757 376.005 429.352 375.223C428.948 374.441 428.746 373.503 428.746 372.409C428.746 371.312 428.95 370.374 429.357 369.595C429.765 368.813 430.32 368.215 431.023 367.8C431.725 367.386 432.521 367.179 433.409 367.179C433.976 367.179 434.503 367.259 434.99 367.418C435.477 367.577 435.911 367.81 436.293 368.119C436.674 368.424 436.987 368.798 437.232 369.242C437.481 369.683 437.643 370.187 437.719 370.754ZM441.526 377.654C441.043 377.654 440.607 377.568 440.219 377.396C439.834 377.22 439.53 376.961 439.304 376.62C439.082 376.279 438.971 375.858 438.971 375.357C438.971 374.926 439.051 374.57 439.21 374.288C439.369 374.007 439.586 373.781 439.861 373.612C440.136 373.443 440.446 373.316 440.791 373.229C441.139 373.14 441.498 373.075 441.869 373.036C442.317 372.989 442.68 372.948 442.958 372.911C443.237 372.871 443.439 372.812 443.565 372.732C443.694 372.649 443.759 372.522 443.759 372.349V372.32C443.759 371.945 443.648 371.655 443.426 371.45C443.204 371.244 442.884 371.141 442.466 371.141C442.025 371.141 441.676 371.237 441.417 371.43C441.162 371.622 440.99 371.849 440.9 372.111L439.22 371.872C439.352 371.408 439.571 371.02 439.876 370.709C440.181 370.394 440.554 370.159 440.994 370.003C441.435 369.844 441.923 369.764 442.456 369.764C442.824 369.764 443.19 369.807 443.555 369.893C443.919 369.98 444.253 370.122 444.554 370.321C444.856 370.517 445.098 370.783 445.28 371.121C445.466 371.46 445.558 371.882 445.558 372.389V377.5H443.828V376.451H443.769C443.659 376.663 443.505 376.862 443.306 377.048C443.111 377.23 442.864 377.377 442.566 377.49C442.271 377.599 441.924 377.654 441.526 377.654ZM441.994 376.332C442.355 376.332 442.668 376.26 442.933 376.118C443.199 375.972 443.402 375.78 443.545 375.541C443.691 375.303 443.764 375.042 443.764 374.761V373.861C443.707 373.907 443.611 373.95 443.475 373.99C443.343 374.03 443.194 374.065 443.028 374.094C442.862 374.124 442.698 374.151 442.536 374.174C442.373 374.197 442.232 374.217 442.113 374.234C441.845 374.27 441.604 374.33 441.392 374.413C441.18 374.496 441.013 374.612 440.89 374.761C440.767 374.906 440.706 375.095 440.706 375.327C440.706 375.659 440.827 375.909 441.069 376.078C441.311 376.247 441.619 376.332 441.994 376.332ZM449.168 373.026V377.5H447.368V369.864H449.088V371.161H449.178C449.353 370.734 449.633 370.394 450.018 370.142C450.406 369.89 450.885 369.764 451.455 369.764C451.982 369.764 452.441 369.877 452.832 370.102C453.226 370.328 453.531 370.654 453.747 371.082C453.965 371.509 454.073 372.028 454.07 372.638V377.5H452.27V372.916C452.27 372.406 452.137 372.006 451.872 371.718C451.61 371.43 451.248 371.286 450.784 371.286C450.469 371.286 450.189 371.355 449.943 371.494C449.701 371.63 449.511 371.827 449.372 372.086C449.236 372.344 449.168 372.658 449.168 373.026ZM459.23 377.649C458.468 377.649 457.813 377.482 457.267 377.147C456.723 376.812 456.304 376.35 456.009 375.76C455.717 375.167 455.571 374.484 455.571 373.712C455.571 372.936 455.72 372.252 456.019 371.658C456.317 371.062 456.738 370.598 457.281 370.266C457.828 369.932 458.475 369.764 459.22 369.764C459.84 369.764 460.389 369.879 460.866 370.107C461.347 370.333 461.729 370.652 462.014 371.067C462.299 371.478 462.462 371.958 462.502 372.509H460.781C460.712 372.141 460.546 371.834 460.284 371.589C460.026 371.34 459.679 371.216 459.245 371.216C458.877 371.216 458.554 371.315 458.276 371.514C457.997 371.71 457.78 371.991 457.624 372.359C457.472 372.727 457.396 373.168 457.396 373.682C457.396 374.202 457.472 374.65 457.624 375.024C457.777 375.395 457.991 375.682 458.266 375.884C458.544 376.083 458.871 376.183 459.245 376.183C459.51 376.183 459.747 376.133 459.956 376.033C460.168 375.931 460.346 375.783 460.488 375.591C460.631 375.399 460.728 375.165 460.781 374.89H462.502C462.459 375.43 462.299 375.909 462.024 376.327C461.749 376.741 461.375 377.066 460.901 377.301C460.427 377.533 459.87 377.649 459.23 377.649ZM467.36 377.649C466.594 377.649 465.933 377.49 465.376 377.172C464.823 376.85 464.397 376.396 464.099 375.81C463.8 375.22 463.651 374.525 463.651 373.727C463.651 372.941 463.8 372.252 464.099 371.658C464.4 371.062 464.821 370.598 465.362 370.266C465.902 369.932 466.536 369.764 467.266 369.764C467.736 369.764 468.18 369.84 468.598 369.993C469.019 370.142 469.39 370.374 469.712 370.689C470.036 371.004 470.292 371.405 470.477 371.892C470.663 372.376 470.756 372.953 470.756 373.622V374.174H464.496V372.961H469.031C469.027 372.616 468.953 372.31 468.807 372.041C468.661 371.769 468.457 371.556 468.195 371.4C467.937 371.244 467.635 371.166 467.29 371.166C466.923 371.166 466.599 371.256 466.321 371.435C466.043 371.61 465.826 371.842 465.67 372.131C465.517 372.416 465.439 372.729 465.436 373.07V374.129C465.436 374.573 465.517 374.955 465.68 375.273C465.842 375.588 466.069 375.83 466.361 375.999C466.652 376.164 466.994 376.247 467.385 376.247C467.647 376.247 467.884 376.211 468.096 376.138C468.308 376.062 468.492 375.951 468.648 375.805C468.804 375.659 468.921 375.478 469.001 375.263L470.681 375.452C470.575 375.896 470.373 376.284 470.075 376.615C469.78 376.943 469.402 377.198 468.941 377.381C468.48 377.56 467.953 377.649 467.36 377.649ZM474.078 367.318V377.5H472.278V367.318H474.078ZM478.126 377.654C477.642 377.654 477.206 377.568 476.819 377.396C476.434 377.22 476.129 376.961 475.904 376.62C475.682 376.279 475.571 375.858 475.571 375.357C475.571 374.926 475.65 374.57 475.809 374.288C475.968 374.007 476.185 373.781 476.461 373.612C476.736 373.443 477.046 373.316 477.39 373.229C477.738 373.14 478.098 373.075 478.469 373.036C478.917 372.989 479.279 372.948 479.558 372.911C479.836 372.871 480.038 372.812 480.164 372.732C480.294 372.649 480.358 372.522 480.358 372.349V372.32C480.358 371.945 480.247 371.655 480.025 371.45C479.803 371.244 479.483 371.141 479.066 371.141C478.625 371.141 478.275 371.237 478.017 371.43C477.761 371.622 477.589 371.849 477.5 372.111L475.819 371.872C475.952 371.408 476.171 371.02 476.475 370.709C476.78 370.394 477.153 370.159 477.594 370.003C478.035 369.844 478.522 369.764 479.056 369.764C479.424 369.764 479.79 369.807 480.154 369.893C480.519 369.98 480.852 370.122 481.154 370.321C481.455 370.517 481.697 370.783 481.88 371.121C482.065 371.46 482.158 371.882 482.158 372.389V377.5H480.428V376.451H480.368C480.259 376.663 480.105 376.862 479.906 377.048C479.71 377.23 479.463 377.377 479.165 377.49C478.87 377.599 478.524 377.654 478.126 377.654ZM478.593 376.332C478.955 376.332 479.268 376.26 479.533 376.118C479.798 375.972 480.002 375.78 480.145 375.541C480.29 375.303 480.363 375.042 480.363 374.761V373.861C480.307 373.907 480.211 373.95 480.075 373.99C479.942 374.03 479.793 374.065 479.627 374.094C479.462 374.124 479.298 374.151 479.135 374.174C478.973 374.197 478.832 374.217 478.713 374.234C478.444 374.27 478.204 374.33 477.992 374.413C477.78 374.496 477.612 374.612 477.49 374.761C477.367 374.906 477.306 375.095 477.306 375.327C477.306 375.659 477.427 375.909 477.669 376.078C477.911 376.247 478.219 376.332 478.593 376.332ZM483.968 377.5V369.864H485.713V371.136H485.792C485.931 370.696 486.17 370.356 486.508 370.117C486.85 369.875 487.239 369.754 487.676 369.754C487.776 369.754 487.887 369.759 488.01 369.769C488.136 369.776 488.24 369.787 488.323 369.804V371.46C488.247 371.433 488.126 371.41 487.96 371.39C487.797 371.367 487.64 371.355 487.488 371.355C487.159 371.355 486.864 371.426 486.603 371.569C486.344 371.708 486.14 371.902 485.991 372.151C485.842 372.399 485.767 372.686 485.767 373.011V377.5H483.968Z" fill="#690005"/>
<path fill-rule="evenodd" clip-rule="evenodd" d="M509 362.25C503.615 362.25 499.25 366.615 499.25 372C499.25 377.385 503.615 381.75 509 381.75C514.385 381.75 518.75 377.385 518.75 372C518.75 366.615 514.385 362.25 509 362.25ZM507.28 369.22C507.211 369.146 507.129 369.087 507.037 369.046C506.945 369.005 506.845 368.983 506.745 368.981C506.644 368.98 506.544 368.998 506.45 369.036C506.357 369.074 506.272 369.13 506.201 369.201C506.13 369.272 506.074 369.357 506.036 369.45C505.998 369.544 505.98 369.644 505.981 369.745C505.983 369.845 506.005 369.945 506.046 370.037C506.087 370.129 506.146 370.211 506.22 370.28L507.94 372L506.22 373.72C506.146 373.789 506.087 373.871 506.046 373.963C506.005 374.055 505.983 374.155 505.981 374.255C505.98 374.356 505.998 374.456 506.036 374.55C506.074 374.643 506.13 374.728 506.201 374.799C506.272 374.87 506.357 374.926 506.45 374.964C506.544 375.002 506.644 375.02 506.745 375.019C506.845 375.017 506.945 374.995 507.037 374.954C507.129 374.913 507.211 374.854 507.28 374.78L509 373.06L510.72 374.78C510.789 374.854 510.871 374.913 510.963 374.954C511.055 374.995 511.155 375.017 511.255 375.019C511.356 375.02 511.456 375.002 511.55 374.964C511.643 374.926 511.728 374.87 511.799 374.799C511.87 374.728 511.926 374.643 511.964 374.55C512.002 374.456 512.02 374.356 512.019 374.255C512.017 374.155 511.995 374.055 511.954 373.963C511.913 373.871 511.854 373.789 511.78 373.72L510.06 372L511.78 370.28C511.854 370.211 511.913 370.129 511.954 370.037C511.995 369.945 512.017 369.845 512.019 369.745C512.02 369.644 512.002 369.544 511.964 369.45C511.926 369.357 511.87 369.272 511.799 369.201C511.728 369.13 511.643 369.074 511.55 369.036C511.456 368.998 511.356 368.98 511.255 368.981C511.155 368.983 511.055 369.005 510.963 369.046C510.871 369.087 510.789 369.146 510.72 369.22L509 370.94L507.28 369.22Z" fill="#690005"/>
<rect x="537" y="352" width="91" height="40" rx="12" fill="#0071E3"/>
<path d="M551.538 370.117C551.491 369.683 551.296 369.345 550.951 369.103C550.61 368.861 550.165 368.74 549.619 368.74C549.234 368.74 548.904 368.798 548.629 368.914C548.354 369.03 548.144 369.187 547.998 369.386C547.852 369.585 547.777 369.812 547.774 370.067C547.774 370.28 547.822 370.464 547.918 370.619C548.018 370.775 548.152 370.908 548.321 371.017C548.49 371.123 548.677 371.213 548.883 371.286C549.088 371.358 549.295 371.42 549.504 371.469L550.459 371.708C550.843 371.798 551.213 371.919 551.567 372.071C551.925 372.223 552.245 372.416 552.527 372.648C552.812 372.88 553.037 373.16 553.203 373.488C553.369 373.816 553.452 374.201 553.452 374.641C553.452 375.238 553.299 375.763 552.994 376.217C552.689 376.668 552.249 377.021 551.672 377.276C551.098 377.528 550.404 377.654 549.589 377.654C548.797 377.654 548.109 377.531 547.526 377.286C546.946 377.041 546.491 376.683 546.163 376.212C545.839 375.742 545.663 375.168 545.636 374.492H547.451C547.478 374.847 547.587 375.142 547.779 375.377C547.971 375.612 548.222 375.788 548.53 375.904C548.841 376.02 549.189 376.078 549.574 376.078C549.975 376.078 550.326 376.018 550.628 375.899C550.933 375.777 551.171 375.607 551.344 375.392C551.516 375.173 551.604 374.918 551.607 374.626C551.604 374.361 551.526 374.143 551.374 373.97C551.221 373.795 551.007 373.649 550.732 373.533C550.46 373.413 550.142 373.307 549.778 373.214L548.619 372.916C547.781 372.701 547.118 372.374 546.631 371.937C546.147 371.496 545.905 370.911 545.905 370.182C545.905 369.582 546.067 369.057 546.392 368.606C546.72 368.155 547.166 367.805 547.729 367.557C548.293 367.305 548.931 367.179 549.643 367.179C550.366 367.179 550.999 367.305 551.543 367.557C552.089 367.805 552.519 368.152 552.83 368.596C553.142 369.037 553.303 369.544 553.312 370.117H551.538ZM557.214 377.654C556.73 377.654 556.294 377.568 555.906 377.396C555.522 377.22 555.217 376.961 554.992 376.62C554.77 376.279 554.659 375.858 554.659 375.357C554.659 374.926 554.738 374.57 554.897 374.288C555.056 374.007 555.273 373.781 555.548 373.612C555.824 373.443 556.133 373.316 556.478 373.229C556.826 373.14 557.186 373.075 557.557 373.036C558.004 372.989 558.367 372.948 558.646 372.911C558.924 372.871 559.126 372.812 559.252 372.732C559.382 372.649 559.446 372.522 559.446 372.349V372.32C559.446 371.945 559.335 371.655 559.113 371.45C558.891 371.244 558.571 371.141 558.154 371.141C557.713 371.141 557.363 371.237 557.105 371.43C556.849 371.622 556.677 371.849 556.588 372.111L554.907 371.872C555.04 371.408 555.258 371.02 555.563 370.709C555.868 370.394 556.241 370.159 556.682 370.003C557.123 369.844 557.61 369.764 558.144 369.764C558.512 369.764 558.878 369.807 559.242 369.893C559.607 369.98 559.94 370.122 560.242 370.321C560.543 370.517 560.785 370.783 560.968 371.121C561.153 371.46 561.246 371.882 561.246 372.389V377.5H559.516V376.451H559.456C559.347 376.663 559.193 376.862 558.994 377.048C558.798 377.23 558.551 377.377 558.253 377.49C557.958 377.599 557.612 377.654 557.214 377.654ZM557.681 376.332C558.043 376.332 558.356 376.26 558.621 376.118C558.886 375.972 559.09 375.78 559.232 375.541C559.378 375.303 559.451 375.042 559.451 374.761V373.861C559.395 373.907 559.299 373.95 559.163 373.99C559.03 374.03 558.881 374.065 558.715 374.094C558.55 374.124 558.386 374.151 558.223 374.174C558.061 374.197 557.92 374.217 557.801 374.234C557.532 374.27 557.292 374.33 557.08 374.413C556.868 374.496 556.7 374.612 556.578 374.761C556.455 374.906 556.394 375.095 556.394 375.327C556.394 375.659 556.515 375.909 556.757 376.078C556.999 376.247 557.307 376.332 557.681 376.332ZM564.855 367.318V377.5H563.056V367.318H564.855ZM573.527 369.864L570.808 377.5H568.819L566.099 369.864H568.018L569.773 375.536H569.853L571.613 369.864H573.527ZM576.751 377.654C576.267 377.654 575.831 377.568 575.444 377.396C575.059 377.22 574.754 376.961 574.529 376.62C574.307 376.279 574.196 375.858 574.196 375.357C574.196 374.926 574.275 374.57 574.434 374.288C574.593 374.007 574.81 373.781 575.086 373.612C575.361 373.443 575.671 373.316 576.015 373.229C576.363 373.14 576.723 373.075 577.094 373.036C577.542 372.989 577.904 372.948 578.183 372.911C578.461 372.871 578.663 372.812 578.789 372.732C578.919 372.649 578.983 372.522 578.983 372.349V372.32C578.983 371.945 578.872 371.655 578.65 371.45C578.428 371.244 578.108 371.141 577.691 371.141C577.25 371.141 576.9 371.237 576.642 371.43C576.386 371.622 576.214 371.849 576.125 372.111L574.444 371.872C574.577 371.408 574.796 371.02 575.1 370.709C575.405 370.394 575.778 370.159 576.219 370.003C576.66 369.844 577.147 369.764 577.681 369.764C578.049 369.764 578.415 369.807 578.779 369.893C579.144 369.98 579.477 370.122 579.779 370.321C580.08 370.517 580.322 370.783 580.505 371.121C580.69 371.46 580.783 371.882 580.783 372.389V377.5H579.053V376.451H578.993C578.884 376.663 578.73 376.862 578.531 377.048C578.335 377.23 578.088 377.377 577.79 377.49C577.495 377.599 577.149 377.654 576.751 377.654ZM577.218 376.332C577.58 376.332 577.893 376.26 578.158 376.118C578.423 375.972 578.627 375.78 578.77 375.541C578.915 375.303 578.988 375.042 578.988 374.761V373.861C578.932 373.907 578.836 373.95 578.7 373.99C578.567 374.03 578.418 374.065 578.252 374.094C578.087 374.124 577.923 374.151 577.76 374.174C577.598 374.197 577.457 374.217 577.338 374.234C577.069 374.27 576.829 374.33 576.617 374.413C576.405 374.496 576.237 374.612 576.115 374.761C575.992 374.906 575.931 375.095 575.931 375.327C575.931 375.659 576.052 375.909 576.294 376.078C576.536 376.247 576.844 376.332 577.218 376.332ZM582.593 377.5V369.864H584.338V371.136H584.417C584.556 370.696 584.795 370.356 585.133 370.117C585.475 369.875 585.864 369.754 586.301 369.754C586.401 369.754 586.512 369.759 586.635 369.769C586.761 369.776 586.865 369.787 586.948 369.804V371.46C586.872 371.433 586.751 371.41 586.585 371.39C586.422 371.367 586.265 371.355 586.113 371.355C585.784 371.355 585.489 371.426 585.228 371.569C584.969 371.708 584.765 371.902 584.616 372.151C584.467 372.399 584.392 372.686 584.392 373.011V377.5H582.593Z" fill="white"/>
<path fill-rule="evenodd" clip-rule="evenodd" d="M615.5 381C616.296 381 617.059 380.684 617.621 380.121C618.184 379.559 618.5 378.796 618.5 378V369C618.5 368.204 618.184 367.441 617.621 366.879C617.059 366.316 616.296 366 615.5 366H610.121C609.922 366 609.732 365.921 609.591 365.78L607.47 363.66C607.261 363.451 607.013 363.285 606.74 363.172C606.467 363.058 606.175 363 605.879 363H600.5C599.704 363 598.941 363.316 598.379 363.879C597.816 364.441 597.5 365.204 597.5 366V378C597.5 378.796 597.816 379.559 598.379 380.121C598.941 380.684 599.704 381 600.5 381H615.5ZM608.75 370.5C608.75 370.301 608.671 370.11 608.53 369.97C608.39 369.829 608.199 369.75 608 369.75C607.801 369.75 607.61 369.829 607.47 369.97C607.329 370.11 607.25 370.301 607.25 370.5V372.75H605C604.801 372.75 604.61 372.829 604.47 372.97C604.329 373.11 604.25 373.301 604.25 373.5C604.25 373.699 604.329 373.89 604.47 374.03C604.61 374.171 604.801 374.25 605 374.25H607.25V376.5C607.25 376.699 607.329 376.89 607.47 377.03C607.61 377.171 607.801 377.25 608 377.25C608.199 377.25 608.39 377.171 608.53 377.03C608.671 376.89 608.75 376.699 608.75 376.5V374.25H611C611.199 374.25 611.39 374.171 611.53 374.03C611.671 373.89 611.75 373.699 611.75 373.5C611.75 373.301 611.671 373.11 611.53 372.97C611.39 372.829 611.199 372.75 611 372.75H608.75V370.5Z" fill="white"/>
<path d="M101.568 211.76L93.216 234H88.992L80.608 211.76H84.512L91.104 230.256L97.728 211.76H101.568ZM106.475 214.032C105.813 214.032 105.259 213.808 104.811 213.36C104.363 212.912 104.139 212.357 104.139 211.696C104.139 211.035 104.363 210.48 104.811 210.032C105.259 209.584 105.813 209.36 106.475 209.36C107.115 209.36 107.659 209.584 108.107 210.032C108.555 210.48 108.779 211.035 108.779 211.696C108.779 212.357 108.555 212.912 108.107 213.36C107.659 213.808 107.115 214.032 106.475 214.032ZM108.267 216.368V234H104.619V216.368H108.267ZM111.84 225.104C111.84 223.333 112.203 221.765 112.928 220.4C113.675 219.035 114.678 217.979 115.936 217.232C117.216 216.464 118.635 216.08 120.192 216.08C121.344 216.08 122.475 216.336 123.584 216.848C124.715 217.339 125.611 218 126.272 218.832V210.32H129.952V234H126.272V231.344C125.675 232.197 124.843 232.901 123.776 233.456C122.731 234.011 121.526 234.288 120.16 234.288C118.624 234.288 117.216 233.904 115.936 233.136C114.678 232.347 113.675 231.259 112.928 229.872C112.203 228.464 111.84 226.875 111.84 225.104ZM126.272 225.168C126.272 223.952 126.016 222.896 125.504 222C125.014 221.104 124.363 220.421 123.552 219.952C122.742 219.483 121.867 219.248 120.928 219.248C119.99 219.248 119.115 219.483 118.304 219.952C117.494 220.4 116.832 221.072 116.32 221.968C115.83 222.843 115.584 223.888 115.584 225.104C115.584 226.32 115.83 227.387 116.32 228.304C116.832 229.221 117.494 229.925 118.304 230.416C119.136 230.885 120.011 231.12 120.928 231.12C121.867 231.12 122.742 230.885 123.552 230.416C124.363 229.947 125.014 229.264 125.504 228.368C126.016 227.451 126.272 226.384 126.272 225.168ZM133.528 225.104C133.528 223.333 133.89 221.765 134.616 220.4C135.362 219.035 136.365 217.979 137.624 217.232C138.904 216.464 140.312 216.08 141.848 216.08C143.234 216.08 144.44 216.357 145.464 216.912C146.509 217.445 147.341 218.117 147.96 218.928V216.368H151.64V234H147.96V231.376C147.341 232.208 146.498 232.901 145.432 233.456C144.365 234.011 143.149 234.288 141.784 234.288C140.269 234.288 138.882 233.904 137.624 233.136C136.365 232.347 135.362 231.259 134.616 229.872C133.89 228.464 133.528 226.875 133.528 225.104ZM147.96 225.168C147.96 223.952 147.704 222.896 147.192 222C146.701 221.104 146.05 220.421 145.24 219.952C144.429 219.483 143.554 219.248 142.616 219.248C141.677 219.248 140.802 219.483 139.992 219.952C139.181 220.4 138.52 221.072 138.008 221.968C137.517 222.843 137.272 223.888 137.272 225.104C137.272 226.32 137.517 227.387 138.008 228.304C138.52 229.221 139.181 229.925 139.992 230.416C140.824 230.885 141.698 231.12 142.616 231.12C143.554 231.12 144.429 230.885 145.24 230.416C146.05 229.947 146.701 229.264 147.192 228.368C147.704 227.451 147.96 226.384 147.96 225.168ZM173.615 223.984H167.151V230.608H163.759V223.984H157.295V220.912H163.759V214.288H167.151V220.912H173.615V223.984Z" fill="url(#paint0_linear_33_63)"/>
<defs>
<linearGradient id="paint0_linear_33_63" x1="80" y1="199" x2="128.5" y2="247" gradientUnits="userSpaceOnUse">
<stop stop-color="#00363C"/>
<stop offset="1" stop-color="#B1CBCF"/>
</linearGradient>
</defs>
</svg>
