<svg width="660" height="450" viewBox="0 0 660 450" fill="none" xmlns="http://www.w3.org/2000/svg">
<rect width="660" height="450" fill="white"/>
<path d="M275.636 65.1136V76.75H274.273L267.932 67.6136H267.818V76.75H266.409V65.1136H267.773L274.136 74.2727H274.25V65.1136H275.636ZM281.82 76.9318C281.032 76.9318 280.34 76.7443 279.746 76.3693C279.155 75.9943 278.693 75.4697 278.359 74.7955C278.03 74.1212 277.865 73.3333 277.865 72.4318C277.865 71.5227 278.03 70.7292 278.359 70.0511C278.693 69.3731 279.155 68.8466 279.746 68.4716C280.34 68.0966 281.032 67.9091 281.82 67.9091C282.607 67.9091 283.297 68.0966 283.888 68.4716C284.482 68.8466 284.945 69.3731 285.274 70.0511C285.607 70.7292 285.774 71.5227 285.774 72.4318C285.774 73.3333 285.607 74.1212 285.274 74.7955C284.945 75.4697 284.482 75.9943 283.888 76.3693C283.297 76.7443 282.607 76.9318 281.82 76.9318ZM281.82 75.7273C282.418 75.7273 282.911 75.5739 283.297 75.267C283.683 74.9602 283.969 74.5568 284.155 74.0568C284.34 73.5568 284.433 73.0152 284.433 72.4318C284.433 71.8485 284.34 71.3049 284.155 70.8011C283.969 70.2973 283.683 69.8902 283.297 69.5795C282.911 69.2689 282.418 69.1136 281.82 69.1136C281.221 69.1136 280.729 69.2689 280.342 69.5795C279.956 69.8902 279.67 70.2973 279.484 70.8011C279.299 71.3049 279.206 71.8485 279.206 72.4318C279.206 73.0152 279.299 73.5568 279.484 74.0568C279.67 74.5568 279.956 74.9602 280.342 75.267C280.729 75.5739 281.221 75.7273 281.82 75.7273ZM287.821 76.75V68.0227H289.116V69.3864H289.23C289.412 68.9205 289.705 68.5587 290.111 68.3011C290.516 68.0398 291.003 67.9091 291.571 67.9091C292.147 67.9091 292.626 68.0398 293.009 68.3011C293.395 68.5587 293.696 68.9205 293.912 69.3864H294.003C294.226 68.9356 294.562 68.5777 295.009 68.3125C295.455 68.0436 295.991 67.9091 296.616 67.9091C297.397 67.9091 298.035 68.1534 298.531 68.642C299.027 69.1269 299.276 69.8826 299.276 70.9091V76.75H297.935V70.9091C297.935 70.2652 297.759 69.8049 297.406 69.5284C297.054 69.2519 296.639 69.1136 296.162 69.1136C295.548 69.1136 295.073 69.2992 294.736 69.6705C294.399 70.0379 294.23 70.5038 294.23 71.0682V76.75H292.866V70.7727C292.866 70.2765 292.705 69.8769 292.384 69.5739C292.062 69.267 291.647 69.1136 291.139 69.1136C290.791 69.1136 290.465 69.2064 290.162 69.392C289.863 69.5777 289.62 69.8352 289.435 70.1648C289.253 70.4905 289.162 70.8674 289.162 71.2955V76.75H287.821ZM305.386 76.9318C304.545 76.9318 303.82 76.7462 303.21 76.375C302.604 76 302.136 75.4773 301.807 74.8068C301.481 74.1326 301.318 73.3485 301.318 72.4545C301.318 71.5606 301.481 70.7727 301.807 70.0909C302.136 69.4053 302.595 68.8712 303.182 68.4886C303.773 68.1023 304.462 67.9091 305.25 67.9091C305.705 67.9091 306.153 67.9848 306.597 68.1364C307.04 68.2879 307.443 68.5341 307.807 68.875C308.17 69.2121 308.46 69.6591 308.676 70.2159C308.892 70.7727 309 71.4583 309 72.2727V72.8409H302.273V71.6818H307.636C307.636 71.1894 307.538 70.75 307.341 70.3636C307.148 69.9773 306.871 69.6723 306.511 69.4489C306.155 69.2254 305.735 69.1136 305.25 69.1136C304.716 69.1136 304.254 69.2462 303.864 69.5114C303.477 69.7727 303.18 70.1136 302.972 70.5341C302.763 70.9545 302.659 71.4053 302.659 71.8864V72.6591C302.659 73.3182 302.773 73.8769 303 74.3352C303.231 74.7898 303.551 75.1364 303.96 75.375C304.369 75.6098 304.845 75.7273 305.386 75.7273C305.739 75.7273 306.057 75.678 306.341 75.5795C306.629 75.4773 306.877 75.3258 307.085 75.125C307.294 74.9205 307.455 74.6667 307.568 74.3636L308.864 74.7273C308.727 75.1667 308.498 75.553 308.176 75.8864C307.854 76.2159 307.456 76.4735 306.983 76.6591C306.509 76.8409 305.977 76.9318 305.386 76.9318Z" fill="#495057"/>
<rect x="265.25" y="88.5" width="362.5" height="34.5" rx="7.75" stroke="#495057" stroke-opacity="0.5" stroke-width="0.5"/>
<path d="M270.636 142.614H272.182L273.477 144.318L273.818 144.773L275.75 147.341H274.205L272.932 145.636L272.614 145.205L270.636 142.614ZM276.227 140.432C276.227 141.659 276.006 142.72 275.562 143.614C275.119 144.508 274.511 145.197 273.739 145.682C272.966 146.167 272.083 146.409 271.091 146.409C270.098 146.409 269.216 146.167 268.443 145.682C267.67 145.197 267.063 144.508 266.619 143.614C266.176 142.72 265.955 141.659 265.955 140.432C265.955 139.205 266.176 138.144 266.619 137.25C267.063 136.356 267.67 135.667 268.443 135.182C269.216 134.697 270.098 134.455 271.091 134.455C272.083 134.455 272.966 134.697 273.739 135.182C274.511 135.667 275.119 136.356 275.562 137.25C276.006 138.144 276.227 139.205 276.227 140.432ZM274.864 140.432C274.864 139.424 274.695 138.574 274.358 137.881C274.025 137.188 273.572 136.663 273 136.307C272.432 135.951 271.795 135.773 271.091 135.773C270.386 135.773 269.748 135.951 269.176 136.307C268.608 136.663 268.155 137.188 267.818 137.881C267.485 138.574 267.318 139.424 267.318 140.432C267.318 141.439 267.485 142.29 267.818 142.983C268.155 143.676 268.608 144.201 269.176 144.557C269.748 144.913 270.386 145.091 271.091 145.091C271.795 145.091 272.432 144.913 273 144.557C273.572 144.201 274.025 143.676 274.358 142.983C274.695 142.29 274.864 141.439 274.864 140.432ZM283.915 142.682V137.523H285.256V146.25H283.915V144.773H283.824C283.619 145.216 283.301 145.593 282.869 145.903C282.438 146.21 281.892 146.364 281.233 146.364C280.688 146.364 280.203 146.244 279.778 146.006C279.354 145.763 279.021 145.4 278.778 144.915C278.536 144.426 278.415 143.811 278.415 143.068V137.523H279.756V142.977C279.756 143.614 279.934 144.121 280.29 144.5C280.65 144.879 281.108 145.068 281.665 145.068C281.998 145.068 282.337 144.983 282.682 144.812C283.03 144.642 283.322 144.381 283.557 144.028C283.795 143.676 283.915 143.227 283.915 142.682ZM290.28 146.455C289.727 146.455 289.225 146.35 288.774 146.142C288.323 145.93 287.965 145.625 287.7 145.227C287.435 144.826 287.303 144.341 287.303 143.773C287.303 143.273 287.401 142.867 287.598 142.557C287.795 142.242 288.058 141.996 288.388 141.818C288.717 141.64 289.081 141.508 289.479 141.42C289.88 141.33 290.284 141.258 290.689 141.205C291.219 141.136 291.649 141.085 291.979 141.051C292.312 141.013 292.554 140.951 292.706 140.864C292.861 140.777 292.939 140.625 292.939 140.409V140.364C292.939 139.803 292.786 139.367 292.479 139.057C292.176 138.746 291.715 138.591 291.098 138.591C290.458 138.591 289.956 138.731 289.592 139.011C289.229 139.292 288.973 139.591 288.825 139.909L287.553 139.455C287.78 138.924 288.083 138.511 288.462 138.216C288.844 137.917 289.261 137.708 289.712 137.591C290.166 137.47 290.613 137.409 291.053 137.409C291.333 137.409 291.655 137.443 292.018 137.511C292.386 137.576 292.74 137.71 293.081 137.915C293.426 138.119 293.712 138.428 293.939 138.841C294.166 139.254 294.28 139.807 294.28 140.5V146.25H292.939V145.068H292.871C292.78 145.258 292.628 145.46 292.416 145.676C292.204 145.892 291.922 146.076 291.57 146.227C291.217 146.379 290.787 146.455 290.28 146.455ZM290.484 145.25C291.015 145.25 291.462 145.146 291.825 144.938C292.193 144.729 292.469 144.46 292.655 144.131C292.844 143.801 292.939 143.455 292.939 143.091V141.864C292.882 141.932 292.757 141.994 292.564 142.051C292.375 142.104 292.155 142.152 291.905 142.193C291.659 142.231 291.418 142.265 291.183 142.295C290.952 142.322 290.765 142.345 290.621 142.364C290.272 142.409 289.946 142.483 289.643 142.585C289.344 142.684 289.102 142.833 288.916 143.034C288.734 143.231 288.643 143.5 288.643 143.841C288.643 144.307 288.816 144.659 289.161 144.898C289.509 145.133 289.95 145.25 290.484 145.25ZM298.068 141V146.25H296.727V137.523H298.023V138.886H298.136C298.341 138.443 298.652 138.087 299.068 137.818C299.485 137.545 300.023 137.409 300.682 137.409C301.273 137.409 301.79 137.53 302.233 137.773C302.676 138.011 303.021 138.375 303.267 138.864C303.513 139.348 303.636 139.962 303.636 140.705V146.25H302.295V140.795C302.295 140.11 302.117 139.576 301.761 139.193C301.405 138.807 300.917 138.614 300.295 138.614C299.867 138.614 299.485 138.706 299.148 138.892C298.814 139.078 298.551 139.348 298.358 139.705C298.165 140.061 298.068 140.492 298.068 141ZM309.882 137.523V138.659H305.359V137.523H309.882ZM306.678 135.432H308.018V143.75C308.018 144.129 308.073 144.413 308.183 144.602C308.297 144.788 308.441 144.913 308.615 144.977C308.793 145.038 308.981 145.068 309.178 145.068C309.325 145.068 309.446 145.061 309.541 145.045C309.636 145.027 309.712 145.011 309.768 145L310.041 146.205C309.95 146.239 309.823 146.273 309.661 146.307C309.498 146.345 309.291 146.364 309.041 146.364C308.662 146.364 308.291 146.282 307.928 146.119C307.568 145.956 307.268 145.708 307.03 145.375C306.795 145.042 306.678 144.621 306.678 144.114V135.432ZM311.899 146.25V137.523H313.24V146.25H311.899ZM312.581 136.068C312.32 136.068 312.094 135.979 311.905 135.801C311.719 135.623 311.626 135.409 311.626 135.159C311.626 134.909 311.719 134.695 311.905 134.517C312.094 134.339 312.32 134.25 312.581 134.25C312.842 134.25 313.066 134.339 313.251 134.517C313.441 134.695 313.536 134.909 313.536 135.159C313.536 135.409 313.441 135.623 313.251 135.801C313.066 135.979 312.842 136.068 312.581 136.068ZM318.991 146.432C318.264 146.432 317.622 146.248 317.065 145.881C316.509 145.509 316.073 144.987 315.759 144.312C315.444 143.634 315.287 142.833 315.287 141.909C315.287 140.992 315.444 140.197 315.759 139.523C316.073 138.848 316.51 138.328 317.071 137.96C317.632 137.593 318.279 137.409 319.014 137.409C319.582 137.409 320.031 137.504 320.361 137.693C320.694 137.879 320.948 138.091 321.122 138.33C321.3 138.564 321.438 138.758 321.537 138.909H321.651V134.614H322.991V146.25H321.696V144.909H321.537C321.438 145.068 321.298 145.269 321.116 145.511C320.935 145.75 320.675 145.964 320.338 146.153C320.001 146.339 319.552 146.432 318.991 146.432ZM319.173 145.227C319.711 145.227 320.166 145.087 320.537 144.807C320.908 144.523 321.19 144.131 321.384 143.631C321.577 143.127 321.673 142.545 321.673 141.886C321.673 141.235 321.579 140.665 321.389 140.176C321.2 139.684 320.92 139.301 320.548 139.028C320.177 138.752 319.719 138.614 319.173 138.614C318.605 138.614 318.132 138.759 317.753 139.051C317.378 139.339 317.096 139.731 316.906 140.227C316.721 140.72 316.628 141.273 316.628 141.886C316.628 142.508 316.723 143.072 316.912 143.58C317.105 144.083 317.389 144.485 317.764 144.784C318.143 145.08 318.613 145.227 319.173 145.227ZM328.202 146.455C327.649 146.455 327.147 146.35 326.696 146.142C326.245 145.93 325.887 145.625 325.622 145.227C325.357 144.826 325.224 144.341 325.224 143.773C325.224 143.273 325.323 142.867 325.52 142.557C325.717 142.242 325.98 141.996 326.31 141.818C326.639 141.64 327.003 141.508 327.401 141.42C327.802 141.33 328.205 141.258 328.611 141.205C329.141 141.136 329.571 141.085 329.901 141.051C330.234 141.013 330.476 140.951 330.628 140.864C330.783 140.777 330.861 140.625 330.861 140.409V140.364C330.861 139.803 330.707 139.367 330.401 139.057C330.098 138.746 329.637 138.591 329.02 138.591C328.38 138.591 327.878 138.731 327.514 139.011C327.151 139.292 326.895 139.591 326.747 139.909L325.474 139.455C325.702 138.924 326.005 138.511 326.384 138.216C326.766 137.917 327.183 137.708 327.634 137.591C328.088 137.47 328.535 137.409 328.974 137.409C329.255 137.409 329.577 137.443 329.94 137.511C330.308 137.576 330.662 137.71 331.003 137.915C331.348 138.119 331.634 138.428 331.861 138.841C332.088 139.254 332.202 139.807 332.202 140.5V146.25H330.861V145.068H330.793C330.702 145.258 330.55 145.46 330.338 145.676C330.126 145.892 329.844 146.076 329.491 146.227C329.139 146.379 328.709 146.455 328.202 146.455ZM328.406 145.25C328.937 145.25 329.384 145.146 329.747 144.938C330.115 144.729 330.391 144.46 330.577 144.131C330.766 143.801 330.861 143.455 330.861 143.091V141.864C330.804 141.932 330.679 141.994 330.486 142.051C330.296 142.104 330.077 142.152 329.827 142.193C329.58 142.231 329.34 142.265 329.105 142.295C328.874 142.322 328.687 142.345 328.543 142.364C328.194 142.409 327.868 142.483 327.565 142.585C327.266 142.684 327.024 142.833 326.838 143.034C326.656 143.231 326.565 143.5 326.565 143.841C326.565 144.307 326.738 144.659 327.082 144.898C327.431 145.133 327.872 145.25 328.406 145.25ZM337.945 146.432C337.217 146.432 336.575 146.248 336.018 145.881C335.462 145.509 335.026 144.987 334.712 144.312C334.397 143.634 334.24 142.833 334.24 141.909C334.24 140.992 334.397 140.197 334.712 139.523C335.026 138.848 335.464 138.328 336.024 137.96C336.585 137.593 337.232 137.409 337.967 137.409C338.536 137.409 338.984 137.504 339.314 137.693C339.647 137.879 339.901 138.091 340.075 138.33C340.253 138.564 340.392 138.758 340.49 138.909H340.604V134.614H341.945V146.25H340.649V144.909H340.49C340.392 145.068 340.251 145.269 340.07 145.511C339.888 145.75 339.628 145.964 339.291 146.153C338.954 146.339 338.505 146.432 337.945 146.432ZM338.126 145.227C338.664 145.227 339.119 145.087 339.49 144.807C339.861 144.523 340.143 144.131 340.337 143.631C340.53 143.127 340.626 142.545 340.626 141.886C340.626 141.235 340.532 140.665 340.342 140.176C340.153 139.684 339.873 139.301 339.501 139.028C339.13 138.752 338.672 138.614 338.126 138.614C337.558 138.614 337.085 138.759 336.706 139.051C336.331 139.339 336.049 139.731 335.859 140.227C335.674 140.72 335.581 141.273 335.581 141.886C335.581 142.508 335.676 143.072 335.865 143.58C336.058 144.083 336.342 144.485 336.717 144.784C337.096 145.08 337.566 145.227 338.126 145.227ZM348.246 146.432C347.405 146.432 346.679 146.246 346.07 145.875C345.464 145.5 344.996 144.977 344.666 144.307C344.34 143.633 344.178 142.848 344.178 141.955C344.178 141.061 344.34 140.273 344.666 139.591C344.996 138.905 345.454 138.371 346.041 137.989C346.632 137.602 347.321 137.409 348.109 137.409C348.564 137.409 349.013 137.485 349.456 137.636C349.899 137.788 350.303 138.034 350.666 138.375C351.03 138.712 351.32 139.159 351.536 139.716C351.751 140.273 351.859 140.958 351.859 141.773V142.341H345.132V141.182H350.496C350.496 140.689 350.397 140.25 350.2 139.864C350.007 139.477 349.731 139.172 349.371 138.949C349.015 138.725 348.594 138.614 348.109 138.614C347.575 138.614 347.113 138.746 346.723 139.011C346.337 139.273 346.039 139.614 345.831 140.034C345.623 140.455 345.518 140.905 345.518 141.386V142.159C345.518 142.818 345.632 143.377 345.859 143.835C346.09 144.29 346.411 144.636 346.82 144.875C347.229 145.11 347.704 145.227 348.246 145.227C348.598 145.227 348.916 145.178 349.2 145.08C349.488 144.977 349.736 144.826 349.945 144.625C350.153 144.42 350.314 144.167 350.428 143.864L351.723 144.227C351.587 144.667 351.357 145.053 351.036 145.386C350.714 145.716 350.316 145.973 349.842 146.159C349.369 146.341 348.837 146.432 348.246 146.432ZM358.581 146.25V134.614H365.604V135.864H359.99V139.795H365.24V141.045H359.99V145H365.695V146.25H358.581ZM374.143 139.477L372.939 139.818C372.863 139.617 372.751 139.422 372.604 139.233C372.46 139.04 372.263 138.881 372.013 138.756C371.763 138.631 371.443 138.568 371.053 138.568C370.518 138.568 370.073 138.691 369.717 138.938C369.365 139.18 369.189 139.489 369.189 139.864C369.189 140.197 369.31 140.46 369.553 140.653C369.795 140.847 370.174 141.008 370.689 141.136L371.984 141.455C372.765 141.644 373.346 141.934 373.729 142.324C374.111 142.71 374.303 143.208 374.303 143.818C374.303 144.318 374.159 144.765 373.871 145.159C373.587 145.553 373.189 145.864 372.678 146.091C372.166 146.318 371.571 146.432 370.893 146.432C370.003 146.432 369.267 146.239 368.683 145.852C368.1 145.466 367.731 144.902 367.575 144.159L368.848 143.841C368.969 144.311 369.198 144.663 369.536 144.898C369.876 145.133 370.321 145.25 370.871 145.25C371.496 145.25 371.992 145.117 372.359 144.852C372.731 144.583 372.916 144.261 372.916 143.886C372.916 143.583 372.81 143.33 372.598 143.125C372.386 142.917 372.06 142.761 371.621 142.659L370.166 142.318C369.367 142.129 368.78 141.835 368.405 141.438C368.034 141.036 367.848 140.534 367.848 139.932C367.848 139.439 367.986 139.004 368.263 138.625C368.543 138.246 368.924 137.949 369.405 137.733C369.89 137.517 370.439 137.409 371.053 137.409C371.916 137.409 372.594 137.598 373.087 137.977C373.583 138.356 373.935 138.856 374.143 139.477ZM380.116 137.523V138.659H375.594V137.523H380.116ZM376.912 135.432H378.253V143.75C378.253 144.129 378.308 144.413 378.418 144.602C378.531 144.788 378.675 144.913 378.849 144.977C379.027 145.038 379.215 145.068 379.412 145.068C379.56 145.068 379.681 145.061 379.776 145.045C379.87 145.027 379.946 145.011 380.003 145L380.276 146.205C380.185 146.239 380.058 146.273 379.895 146.307C379.732 146.345 379.526 146.364 379.276 146.364C378.897 146.364 378.526 146.282 378.162 146.119C377.802 145.956 377.503 145.708 377.264 145.375C377.029 145.042 376.912 144.621 376.912 144.114V135.432ZM385.585 146.432C384.797 146.432 384.106 146.244 383.511 145.869C382.92 145.494 382.458 144.97 382.125 144.295C381.795 143.621 381.631 142.833 381.631 141.932C381.631 141.023 381.795 140.229 382.125 139.551C382.458 138.873 382.92 138.347 383.511 137.972C384.106 137.597 384.797 137.409 385.585 137.409C386.373 137.409 387.063 137.597 387.653 137.972C388.248 138.347 388.71 138.873 389.04 139.551C389.373 140.229 389.54 141.023 389.54 141.932C389.54 142.833 389.373 143.621 389.04 144.295C388.71 144.97 388.248 145.494 387.653 145.869C387.063 146.244 386.373 146.432 385.585 146.432ZM385.585 145.227C386.184 145.227 386.676 145.074 387.062 144.767C387.449 144.46 387.735 144.057 387.92 143.557C388.106 143.057 388.199 142.515 388.199 141.932C388.199 141.348 388.106 140.805 387.92 140.301C387.735 139.797 387.449 139.39 387.062 139.08C386.676 138.769 386.184 138.614 385.585 138.614C384.987 138.614 384.494 138.769 384.108 139.08C383.722 139.39 383.436 139.797 383.25 140.301C383.064 140.805 382.972 141.348 382.972 141.932C382.972 142.515 383.064 143.057 383.25 143.557C383.436 144.057 383.722 144.46 384.108 144.767C384.494 145.074 384.987 145.227 385.585 145.227ZM397.541 149.523V144.909H397.428C397.329 145.068 397.189 145.269 397.007 145.511C396.825 145.75 396.566 145.964 396.229 146.153C395.892 146.339 395.443 146.432 394.882 146.432C394.155 146.432 393.513 146.248 392.956 145.881C392.399 145.509 391.964 144.987 391.649 144.312C391.335 143.634 391.178 142.833 391.178 141.909C391.178 140.992 391.335 140.197 391.649 139.523C391.964 138.848 392.401 138.328 392.962 137.96C393.522 137.593 394.17 137.409 394.905 137.409C395.473 137.409 395.922 137.504 396.251 137.693C396.585 137.879 396.839 138.091 397.013 138.33C397.191 138.564 397.329 138.758 397.428 138.909H397.587V137.523H398.882V149.523H397.541ZM395.064 145.227C395.602 145.227 396.056 145.087 396.428 144.807C396.799 144.523 397.081 144.131 397.274 143.631C397.467 143.127 397.564 142.545 397.564 141.886C397.564 141.235 397.469 140.665 397.28 140.176C397.09 139.684 396.81 139.301 396.439 139.028C396.068 138.752 395.609 138.614 395.064 138.614C394.496 138.614 394.022 138.759 393.643 139.051C393.268 139.339 392.986 139.731 392.797 140.227C392.611 140.72 392.518 141.273 392.518 141.886C392.518 142.508 392.613 143.072 392.803 143.58C392.996 144.083 393.28 144.485 393.655 144.784C394.034 145.08 394.503 145.227 395.064 145.227ZM406.837 142.682V137.523H408.178V146.25H406.837V144.773H406.746C406.541 145.216 406.223 145.593 405.791 145.903C405.359 146.21 404.814 146.364 404.155 146.364C403.609 146.364 403.125 146.244 402.7 146.006C402.276 145.763 401.943 145.4 401.7 144.915C401.458 144.426 401.337 143.811 401.337 143.068V137.523H402.678V142.977C402.678 143.614 402.856 144.121 403.212 144.5C403.571 144.879 404.03 145.068 404.587 145.068C404.92 145.068 405.259 144.983 405.604 144.812C405.952 144.642 406.244 144.381 406.479 144.028C406.717 143.676 406.837 143.227 406.837 142.682ZM414.293 146.432C413.452 146.432 412.726 146.246 412.116 145.875C411.51 145.5 411.043 144.977 410.713 144.307C410.387 143.633 410.224 142.848 410.224 141.955C410.224 141.061 410.387 140.273 410.713 139.591C411.043 138.905 411.501 138.371 412.088 137.989C412.679 137.602 413.368 137.409 414.156 137.409C414.611 137.409 415.06 137.485 415.503 137.636C415.946 137.788 416.349 138.034 416.713 138.375C417.077 138.712 417.366 139.159 417.582 139.716C417.798 140.273 417.906 140.958 417.906 141.773V142.341H411.179V141.182H416.543C416.543 140.689 416.444 140.25 416.247 139.864C416.054 139.477 415.777 139.172 415.418 138.949C415.062 138.725 414.641 138.614 414.156 138.614C413.622 138.614 413.16 138.746 412.77 139.011C412.384 139.273 412.086 139.614 411.878 140.034C411.67 140.455 411.565 140.905 411.565 141.386V142.159C411.565 142.818 411.679 143.377 411.906 143.835C412.137 144.29 412.457 144.636 412.866 144.875C413.276 145.11 413.751 145.227 414.293 145.227C414.645 145.227 414.963 145.178 415.247 145.08C415.535 144.977 415.783 144.826 415.991 144.625C416.2 144.42 416.361 144.167 416.474 143.864L417.77 144.227C417.634 144.667 417.404 145.053 417.082 145.386C416.76 145.716 416.363 145.973 415.889 146.159C415.416 146.341 414.884 146.432 414.293 146.432Z" fill="#495057"/>
<rect x="265.25" y="158" width="362.5" height="34.5" rx="7.75" stroke="#495057" stroke-opacity="0.5" stroke-width="0.5"/>
<path d="M266.409 215.75V204.114H270.341C271.254 204.114 272 204.278 272.58 204.608C273.163 204.934 273.595 205.375 273.875 205.932C274.155 206.489 274.295 207.11 274.295 207.795C274.295 208.481 274.155 209.104 273.875 209.665C273.598 210.225 273.17 210.672 272.591 211.006C272.011 211.335 271.269 211.5 270.364 211.5H267.545V210.25H270.318C270.943 210.25 271.445 210.142 271.824 209.926C272.203 209.71 272.477 209.419 272.648 209.051C272.822 208.68 272.909 208.261 272.909 207.795C272.909 207.33 272.822 206.913 272.648 206.545C272.477 206.178 272.201 205.89 271.818 205.682C271.436 205.47 270.928 205.364 270.295 205.364H267.818V215.75H266.409ZM276.384 215.75V207.023H277.679V208.341H277.77C277.929 207.909 278.217 207.559 278.634 207.29C279.05 207.021 279.52 206.886 280.043 206.886C280.141 206.886 280.264 206.888 280.412 206.892C280.56 206.896 280.671 206.902 280.747 206.909V208.273C280.702 208.261 280.598 208.244 280.435 208.222C280.276 208.195 280.107 208.182 279.929 208.182C279.505 208.182 279.126 208.271 278.793 208.449C278.463 208.623 278.202 208.866 278.009 209.176C277.819 209.483 277.724 209.833 277.724 210.227V215.75H276.384ZM285.73 215.932C284.889 215.932 284.164 215.746 283.554 215.375C282.948 215 282.48 214.477 282.151 213.807C281.825 213.133 281.662 212.348 281.662 211.455C281.662 210.561 281.825 209.773 282.151 209.091C282.48 208.405 282.938 207.871 283.526 207.489C284.116 207.102 284.806 206.909 285.594 206.909C286.048 206.909 286.497 206.985 286.94 207.136C287.384 207.288 287.787 207.534 288.151 207.875C288.514 208.212 288.804 208.659 289.02 209.216C289.236 209.773 289.344 210.458 289.344 211.273V211.841H282.616V210.682H287.98C287.98 210.189 287.882 209.75 287.685 209.364C287.491 208.977 287.215 208.672 286.855 208.449C286.499 208.225 286.079 208.114 285.594 208.114C285.06 208.114 284.598 208.246 284.207 208.511C283.821 208.773 283.524 209.114 283.315 209.534C283.107 209.955 283.003 210.405 283.003 210.886V211.659C283.003 212.318 283.116 212.877 283.344 213.335C283.575 213.79 283.895 214.136 284.304 214.375C284.713 214.61 285.188 214.727 285.73 214.727C286.082 214.727 286.401 214.678 286.685 214.58C286.973 214.477 287.221 214.326 287.429 214.125C287.637 213.92 287.798 213.667 287.912 213.364L289.207 213.727C289.071 214.167 288.842 214.553 288.52 214.886C288.198 215.216 287.8 215.473 287.327 215.659C286.853 215.841 286.321 215.932 285.73 215.932ZM294.929 215.932C294.111 215.932 293.406 215.739 292.815 215.352C292.224 214.966 291.77 214.434 291.452 213.756C291.134 213.078 290.974 212.303 290.974 211.432C290.974 210.545 291.137 209.763 291.463 209.085C291.793 208.403 292.251 207.871 292.838 207.489C293.429 207.102 294.118 206.909 294.906 206.909C295.52 206.909 296.073 207.023 296.565 207.25C297.058 207.477 297.461 207.795 297.776 208.205C298.09 208.614 298.285 209.091 298.361 209.636H297.02C296.918 209.239 296.69 208.886 296.338 208.58C295.99 208.269 295.52 208.114 294.929 208.114C294.406 208.114 293.948 208.25 293.554 208.523C293.164 208.792 292.859 209.172 292.639 209.665C292.423 210.153 292.315 210.727 292.315 211.386C292.315 212.061 292.421 212.648 292.634 213.148C292.849 213.648 293.152 214.036 293.543 214.312C293.937 214.589 294.399 214.727 294.929 214.727C295.277 214.727 295.594 214.667 295.878 214.545C296.162 214.424 296.402 214.25 296.599 214.023C296.796 213.795 296.937 213.523 297.02 213.205H298.361C298.285 213.72 298.098 214.184 297.798 214.597C297.503 215.006 297.111 215.331 296.622 215.574C296.137 215.812 295.573 215.932 294.929 215.932ZM294.293 215.705H295.406L295.315 216.159C295.611 216.205 295.882 216.328 296.128 216.528C296.374 216.733 296.497 217.057 296.497 217.5C296.497 217.989 296.295 218.386 295.889 218.693C295.488 219.004 294.895 219.159 294.111 219.159L294.065 218.273C294.418 218.273 294.709 218.216 294.94 218.102C295.175 217.992 295.293 217.807 295.293 217.545C295.293 217.284 295.196 217.106 295.003 217.011C294.81 216.917 294.497 216.852 294.065 216.818L294.293 215.705ZM303.866 215.932C303.079 215.932 302.387 215.744 301.793 215.369C301.202 214.994 300.74 214.47 300.406 213.795C300.077 213.121 299.912 212.333 299.912 211.432C299.912 210.523 300.077 209.729 300.406 209.051C300.74 208.373 301.202 207.847 301.793 207.472C302.387 207.097 303.079 206.909 303.866 206.909C304.654 206.909 305.344 207.097 305.935 207.472C306.529 207.847 306.991 208.373 307.321 209.051C307.654 209.729 307.821 210.523 307.821 211.432C307.821 212.333 307.654 213.121 307.321 213.795C306.991 214.47 306.529 214.994 305.935 215.369C305.344 215.744 304.654 215.932 303.866 215.932ZM303.866 214.727C304.465 214.727 304.957 214.574 305.344 214.267C305.73 213.96 306.016 213.557 306.202 213.057C306.387 212.557 306.48 212.015 306.48 211.432C306.48 210.848 306.387 210.305 306.202 209.801C306.016 209.297 305.73 208.89 305.344 208.58C304.957 208.269 304.465 208.114 303.866 208.114C303.268 208.114 302.776 208.269 302.389 208.58C302.003 208.89 301.717 209.297 301.531 209.801C301.346 210.305 301.253 210.848 301.253 211.432C301.253 212.015 301.346 212.557 301.531 213.057C301.717 213.557 302.003 213.96 302.389 214.267C302.776 214.574 303.268 214.727 303.866 214.727Z" fill="#495057"/>
<rect x="265.25" y="227.5" width="362.5" height="34.5" rx="7.75" stroke="#495057" stroke-opacity="0.5" stroke-width="0.5"/>
<path d="M266.409 285.25V273.614H270.341C271.25 273.614 271.996 273.769 272.58 274.08C273.163 274.386 273.595 274.809 273.875 275.347C274.155 275.884 274.295 276.496 274.295 277.182C274.295 277.867 274.155 278.475 273.875 279.006C273.595 279.536 273.165 279.953 272.585 280.256C272.006 280.555 271.265 280.705 270.364 280.705H267.182V279.432H270.318C270.939 279.432 271.439 279.341 271.818 279.159C272.201 278.977 272.477 278.72 272.648 278.386C272.822 278.049 272.909 277.648 272.909 277.182C272.909 276.716 272.822 276.309 272.648 275.96C272.473 275.612 272.195 275.343 271.812 275.153C271.43 274.96 270.924 274.864 270.295 274.864H267.818V285.25H266.409ZM271.886 280.023L274.75 285.25H273.114L270.295 280.023H271.886ZM280.027 285.432C279.186 285.432 278.461 285.246 277.851 284.875C277.245 284.5 276.777 283.977 276.447 283.307C276.122 282.633 275.959 281.848 275.959 280.955C275.959 280.061 276.122 279.273 276.447 278.591C276.777 277.905 277.235 277.371 277.822 276.989C278.413 276.602 279.103 276.409 279.891 276.409C280.345 276.409 280.794 276.485 281.237 276.636C281.68 276.788 282.084 277.034 282.447 277.375C282.811 277.712 283.101 278.159 283.317 278.716C283.533 279.273 283.641 279.958 283.641 280.773V281.341H276.913V280.182H282.277C282.277 279.689 282.179 279.25 281.982 278.864C281.788 278.477 281.512 278.172 281.152 277.949C280.796 277.725 280.375 277.614 279.891 277.614C279.357 277.614 278.894 277.746 278.504 278.011C278.118 278.273 277.821 278.614 277.612 279.034C277.404 279.455 277.3 279.905 277.3 280.386V281.159C277.3 281.818 277.413 282.377 277.641 282.835C277.872 283.29 278.192 283.636 278.601 283.875C279.01 284.11 279.485 284.227 280.027 284.227C280.379 284.227 280.697 284.178 280.982 284.08C281.269 283.977 281.518 283.826 281.726 283.625C281.934 283.42 282.095 283.167 282.209 282.864L283.504 283.227C283.368 283.667 283.139 284.053 282.817 284.386C282.495 284.716 282.097 284.973 281.624 285.159C281.15 285.341 280.618 285.432 280.027 285.432ZM289.226 285.432C288.408 285.432 287.703 285.239 287.112 284.852C286.521 284.466 286.067 283.934 285.749 283.256C285.43 282.578 285.271 281.803 285.271 280.932C285.271 280.045 285.434 279.263 285.76 278.585C286.089 277.903 286.548 277.371 287.135 276.989C287.726 276.602 288.415 276.409 289.203 276.409C289.817 276.409 290.37 276.523 290.862 276.75C291.355 276.977 291.758 277.295 292.072 277.705C292.387 278.114 292.582 278.591 292.658 279.136H291.317C291.214 278.739 290.987 278.386 290.635 278.08C290.286 277.769 289.817 277.614 289.226 277.614C288.703 277.614 288.245 277.75 287.851 278.023C287.461 278.292 287.156 278.672 286.936 279.165C286.72 279.653 286.612 280.227 286.612 280.886C286.612 281.561 286.718 282.148 286.93 282.648C287.146 283.148 287.449 283.536 287.839 283.812C288.233 284.089 288.696 284.227 289.226 284.227C289.574 284.227 289.891 284.167 290.175 284.045C290.459 283.924 290.699 283.75 290.896 283.523C291.093 283.295 291.233 283.023 291.317 282.705H292.658C292.582 283.22 292.394 283.684 292.095 284.097C291.8 284.506 291.408 284.831 290.919 285.074C290.434 285.312 289.87 285.432 289.226 285.432ZM298.277 285.432C297.436 285.432 296.711 285.246 296.101 284.875C295.495 284.5 295.027 283.977 294.697 283.307C294.372 282.633 294.209 281.848 294.209 280.955C294.209 280.061 294.372 279.273 294.697 278.591C295.027 277.905 295.485 277.371 296.072 276.989C296.663 276.602 297.353 276.409 298.141 276.409C298.595 276.409 299.044 276.485 299.487 276.636C299.93 276.788 300.334 277.034 300.697 277.375C301.061 277.712 301.351 278.159 301.567 278.716C301.783 279.273 301.891 279.958 301.891 280.773V281.341H295.163V280.182H300.527C300.527 279.689 300.429 279.25 300.232 278.864C300.038 278.477 299.762 278.172 299.402 277.949C299.046 277.725 298.625 277.614 298.141 277.614C297.607 277.614 297.144 277.746 296.754 278.011C296.368 278.273 296.071 278.614 295.862 279.034C295.654 279.455 295.55 279.905 295.55 280.386V281.159C295.55 281.818 295.663 282.377 295.891 282.835C296.122 283.29 296.442 283.636 296.851 283.875C297.26 284.11 297.735 284.227 298.277 284.227C298.629 284.227 298.947 284.178 299.232 284.08C299.519 283.977 299.768 283.826 299.976 283.625C300.184 283.42 300.345 283.167 300.459 282.864L301.754 283.227C301.618 283.667 301.389 284.053 301.067 284.386C300.745 284.716 300.347 284.973 299.874 285.159C299.4 285.341 298.868 285.432 298.277 285.432ZM303.93 285.25V276.523H305.271V285.25H303.93ZM304.612 275.068C304.351 275.068 304.125 274.979 303.936 274.801C303.75 274.623 303.658 274.409 303.658 274.159C303.658 273.909 303.75 273.695 303.936 273.517C304.125 273.339 304.351 273.25 304.612 273.25C304.874 273.25 305.097 273.339 305.283 273.517C305.472 273.695 305.567 273.909 305.567 274.159C305.567 274.409 305.472 274.623 305.283 274.801C305.097 274.979 304.874 275.068 304.612 275.068ZM311.523 276.523V277.659H307V276.523H311.523ZM308.318 274.432H309.659V282.75C309.659 283.129 309.714 283.413 309.824 283.602C309.938 283.788 310.081 283.913 310.256 283.977C310.434 284.038 310.621 284.068 310.818 284.068C310.966 284.068 311.087 284.061 311.182 284.045C311.277 284.027 311.352 284.011 311.409 284L311.682 285.205C311.591 285.239 311.464 285.273 311.301 285.307C311.138 285.345 310.932 285.364 310.682 285.364C310.303 285.364 309.932 285.282 309.568 285.119C309.208 284.956 308.909 284.708 308.67 284.375C308.436 284.042 308.318 283.621 308.318 283.114V274.432ZM316.108 285.455C315.555 285.455 315.053 285.35 314.602 285.142C314.152 284.93 313.794 284.625 313.528 284.227C313.263 283.826 313.131 283.341 313.131 282.773C313.131 282.273 313.229 281.867 313.426 281.557C313.623 281.242 313.886 280.996 314.216 280.818C314.545 280.64 314.909 280.508 315.307 280.42C315.708 280.33 316.112 280.258 316.517 280.205C317.047 280.136 317.477 280.085 317.807 280.051C318.14 280.013 318.383 279.951 318.534 279.864C318.689 279.777 318.767 279.625 318.767 279.409V279.364C318.767 278.803 318.614 278.367 318.307 278.057C318.004 277.746 317.544 277.591 316.926 277.591C316.286 277.591 315.784 277.731 315.42 278.011C315.057 278.292 314.801 278.591 314.653 278.909L313.381 278.455C313.608 277.924 313.911 277.511 314.29 277.216C314.672 276.917 315.089 276.708 315.54 276.591C315.994 276.47 316.441 276.409 316.881 276.409C317.161 276.409 317.483 276.443 317.847 276.511C318.214 276.576 318.568 276.71 318.909 276.915C319.254 277.119 319.54 277.428 319.767 277.841C319.994 278.254 320.108 278.807 320.108 279.5V285.25H318.767V284.068H318.699C318.608 284.258 318.456 284.46 318.244 284.676C318.032 284.892 317.75 285.076 317.398 285.227C317.045 285.379 316.616 285.455 316.108 285.455ZM316.312 284.25C316.843 284.25 317.29 284.146 317.653 283.938C318.021 283.729 318.297 283.46 318.483 283.131C318.672 282.801 318.767 282.455 318.767 282.091V280.864C318.71 280.932 318.585 280.994 318.392 281.051C318.203 281.104 317.983 281.152 317.733 281.193C317.487 281.231 317.246 281.265 317.011 281.295C316.78 281.322 316.593 281.345 316.449 281.364C316.1 281.409 315.775 281.483 315.472 281.585C315.172 281.684 314.93 281.833 314.744 282.034C314.563 282.231 314.472 282.5 314.472 282.841C314.472 283.307 314.644 283.659 314.989 283.898C315.337 284.133 315.778 284.25 316.312 284.25Z" fill="#495057"/>
<rect x="265.25" y="297" width="362.5" height="34.5" rx="7.75" stroke="#495057" stroke-opacity="0.5" stroke-width="0.5"/>
<rect x="420" y="347.75" width="109" height="40" rx="12" fill="#FFB4AB"/>
<path d="M437.719 366.504H435.86C435.807 366.199 435.709 365.929 435.567 365.693C435.424 365.455 435.247 365.252 435.035 365.087C434.823 364.921 434.581 364.797 434.309 364.714C434.04 364.628 433.75 364.585 433.439 364.585C432.885 364.585 432.395 364.724 431.967 365.002C431.54 365.277 431.205 365.682 430.963 366.215C430.721 366.746 430.6 367.393 430.6 368.159C430.6 368.938 430.721 369.594 430.963 370.128C431.208 370.658 431.543 371.059 431.967 371.331C432.395 371.599 432.884 371.734 433.434 371.734C433.739 371.734 434.024 371.694 434.289 371.614C434.558 371.531 434.798 371.411 435.01 371.251C435.225 371.092 435.406 370.897 435.552 370.665C435.701 370.433 435.804 370.168 435.86 369.869L437.719 369.879C437.65 370.363 437.499 370.817 437.267 371.241C437.038 371.666 436.738 372.04 436.367 372.365C435.996 372.687 435.562 372.938 435.065 373.121C434.567 373.3 434.016 373.389 433.409 373.389C432.514 373.389 431.715 373.182 431.013 372.768C430.31 372.353 429.757 371.755 429.352 370.973C428.948 370.191 428.746 369.253 428.746 368.159C428.746 367.062 428.95 366.124 429.357 365.345C429.765 364.563 430.32 363.965 431.023 363.55C431.725 363.136 432.521 362.929 433.409 362.929C433.976 362.929 434.503 363.009 434.99 363.168C435.477 363.327 435.911 363.56 436.293 363.869C436.674 364.174 436.987 364.548 437.232 364.992C437.481 365.433 437.643 365.937 437.719 366.504ZM441.526 373.404C441.043 373.404 440.607 373.318 440.219 373.146C439.834 372.97 439.53 372.711 439.304 372.37C439.082 372.029 438.971 371.608 438.971 371.107C438.971 370.676 439.051 370.32 439.21 370.038C439.369 369.757 439.586 369.531 439.861 369.362C440.136 369.193 440.446 369.066 440.791 368.979C441.139 368.89 441.498 368.825 441.869 368.786C442.317 368.739 442.68 368.698 442.958 368.661C443.237 368.621 443.439 368.562 443.565 368.482C443.694 368.399 443.759 368.272 443.759 368.099V368.07C443.759 367.695 443.648 367.405 443.426 367.2C443.204 366.994 442.884 366.891 442.466 366.891C442.025 366.891 441.676 366.987 441.417 367.18C441.162 367.372 440.99 367.599 440.9 367.861L439.22 367.622C439.352 367.158 439.571 366.77 439.876 366.459C440.181 366.144 440.554 365.909 440.994 365.753C441.435 365.594 441.923 365.514 442.456 365.514C442.824 365.514 443.19 365.557 443.555 365.643C443.919 365.73 444.253 365.872 444.554 366.071C444.856 366.267 445.098 366.533 445.28 366.871C445.466 367.21 445.558 367.632 445.558 368.139V373.25H443.828V372.201H443.769C443.659 372.413 443.505 372.612 443.306 372.798C443.111 372.98 442.864 373.127 442.566 373.24C442.271 373.349 441.924 373.404 441.526 373.404ZM441.994 372.082C442.355 372.082 442.668 372.01 442.933 371.868C443.199 371.722 443.402 371.53 443.545 371.291C443.691 371.053 443.764 370.792 443.764 370.511V369.611C443.707 369.657 443.611 369.7 443.475 369.74C443.343 369.78 443.194 369.815 443.028 369.844C442.862 369.874 442.698 369.901 442.536 369.924C442.373 369.947 442.232 369.967 442.113 369.984C441.845 370.02 441.604 370.08 441.392 370.163C441.18 370.246 441.013 370.362 440.89 370.511C440.767 370.656 440.706 370.845 440.706 371.077C440.706 371.409 440.827 371.659 441.069 371.828C441.311 371.997 441.619 372.082 441.994 372.082ZM449.168 368.776V373.25H447.368V365.614H449.088V366.911H449.178C449.353 366.484 449.633 366.144 450.018 365.892C450.406 365.64 450.885 365.514 451.455 365.514C451.982 365.514 452.441 365.627 452.832 365.852C453.226 366.078 453.531 366.404 453.747 366.832C453.965 367.259 454.073 367.778 454.07 368.388V373.25H452.27V368.666C452.27 368.156 452.137 367.756 451.872 367.468C451.61 367.18 451.248 367.036 450.784 367.036C450.469 367.036 450.189 367.105 449.943 367.244C449.701 367.38 449.511 367.577 449.372 367.836C449.236 368.094 449.168 368.408 449.168 368.776ZM459.23 373.399C458.468 373.399 457.813 373.232 457.267 372.897C456.723 372.562 456.304 372.1 456.009 371.51C455.717 370.917 455.571 370.234 455.571 369.462C455.571 368.686 455.72 368.002 456.019 367.408C456.317 366.812 456.738 366.348 457.281 366.016C457.828 365.682 458.475 365.514 459.22 365.514C459.84 365.514 460.389 365.629 460.866 365.857C461.347 366.083 461.729 366.402 462.014 366.817C462.299 367.228 462.462 367.708 462.502 368.259H460.781C460.712 367.891 460.546 367.584 460.284 367.339C460.026 367.09 459.679 366.966 459.245 366.966C458.877 366.966 458.554 367.065 458.276 367.264C457.997 367.46 457.78 367.741 457.624 368.109C457.472 368.477 457.396 368.918 457.396 369.432C457.396 369.952 457.472 370.4 457.624 370.774C457.777 371.145 457.991 371.432 458.266 371.634C458.544 371.833 458.871 371.933 459.245 371.933C459.51 371.933 459.747 371.883 459.956 371.783C460.168 371.681 460.346 371.533 460.488 371.341C460.631 371.149 460.728 370.915 460.781 370.64H462.502C462.459 371.18 462.299 371.659 462.024 372.077C461.749 372.491 461.375 372.816 460.901 373.051C460.427 373.283 459.87 373.399 459.23 373.399ZM467.36 373.399C466.594 373.399 465.933 373.24 465.376 372.922C464.823 372.6 464.397 372.146 464.099 371.56C463.8 370.97 463.651 370.275 463.651 369.477C463.651 368.691 463.8 368.002 464.099 367.408C464.4 366.812 464.821 366.348 465.362 366.016C465.902 365.682 466.536 365.514 467.266 365.514C467.736 365.514 468.18 365.59 468.598 365.743C469.019 365.892 469.39 366.124 469.712 366.439C470.036 366.754 470.292 367.155 470.477 367.642C470.663 368.126 470.756 368.703 470.756 369.372V369.924H464.496V368.711H469.031C469.027 368.366 468.953 368.06 468.807 367.791C468.661 367.519 468.457 367.306 468.195 367.15C467.937 366.994 467.635 366.916 467.29 366.916C466.923 366.916 466.599 367.006 466.321 367.185C466.043 367.36 465.826 367.592 465.67 367.881C465.517 368.166 465.439 368.479 465.436 368.82V369.879C465.436 370.323 465.517 370.705 465.68 371.023C465.842 371.338 466.069 371.58 466.361 371.749C466.652 371.914 466.994 371.997 467.385 371.997C467.647 371.997 467.884 371.961 468.096 371.888C468.308 371.812 468.492 371.701 468.648 371.555C468.804 371.409 468.921 371.228 469.001 371.013L470.681 371.202C470.575 371.646 470.373 372.034 470.075 372.365C469.78 372.693 469.402 372.948 468.941 373.131C468.48 373.31 467.953 373.399 467.36 373.399ZM474.078 363.068V373.25H472.278V363.068H474.078ZM478.126 373.404C477.642 373.404 477.206 373.318 476.819 373.146C476.434 372.97 476.129 372.711 475.904 372.37C475.682 372.029 475.571 371.608 475.571 371.107C475.571 370.676 475.65 370.32 475.809 370.038C475.968 369.757 476.185 369.531 476.461 369.362C476.736 369.193 477.046 369.066 477.39 368.979C477.738 368.89 478.098 368.825 478.469 368.786C478.917 368.739 479.279 368.698 479.558 368.661C479.836 368.621 480.038 368.562 480.164 368.482C480.294 368.399 480.358 368.272 480.358 368.099V368.07C480.358 367.695 480.247 367.405 480.025 367.2C479.803 366.994 479.483 366.891 479.066 366.891C478.625 366.891 478.275 366.987 478.017 367.18C477.761 367.372 477.589 367.599 477.5 367.861L475.819 367.622C475.952 367.158 476.171 366.77 476.475 366.459C476.78 366.144 477.153 365.909 477.594 365.753C478.035 365.594 478.522 365.514 479.056 365.514C479.424 365.514 479.79 365.557 480.154 365.643C480.519 365.73 480.852 365.872 481.154 366.071C481.455 366.267 481.697 366.533 481.88 366.871C482.065 367.21 482.158 367.632 482.158 368.139V373.25H480.428V372.201H480.368C480.259 372.413 480.105 372.612 479.906 372.798C479.71 372.98 479.463 373.127 479.165 373.24C478.87 373.349 478.524 373.404 478.126 373.404ZM478.593 372.082C478.955 372.082 479.268 372.01 479.533 371.868C479.798 371.722 480.002 371.53 480.145 371.291C480.29 371.053 480.363 370.792 480.363 370.511V369.611C480.307 369.657 480.211 369.7 480.075 369.74C479.942 369.78 479.793 369.815 479.627 369.844C479.462 369.874 479.298 369.901 479.135 369.924C478.973 369.947 478.832 369.967 478.713 369.984C478.444 370.02 478.204 370.08 477.992 370.163C477.78 370.246 477.612 370.362 477.49 370.511C477.367 370.656 477.306 370.845 477.306 371.077C477.306 371.409 477.427 371.659 477.669 371.828C477.911 371.997 478.219 372.082 478.593 372.082ZM483.968 373.25V365.614H485.713V366.886H485.792C485.931 366.446 486.17 366.106 486.508 365.867C486.85 365.625 487.239 365.504 487.676 365.504C487.776 365.504 487.887 365.509 488.01 365.519C488.136 365.526 488.24 365.537 488.323 365.554V367.21C488.247 367.183 488.126 367.16 487.96 367.14C487.797 367.117 487.64 367.105 487.488 367.105C487.159 367.105 486.864 367.176 486.603 367.319C486.344 367.458 486.14 367.652 485.991 367.901C485.842 368.149 485.767 368.436 485.767 368.761V373.25H483.968Z" fill="#690005"/>
<path fill-rule="evenodd" clip-rule="evenodd" d="M509 358C503.615 358 499.25 362.365 499.25 367.75C499.25 373.135 503.615 377.5 509 377.5C514.385 377.5 518.75 373.135 518.75 367.75C518.75 362.365 514.385 358 509 358ZM507.28 364.97C507.211 364.896 507.129 364.837 507.037 364.796C506.945 364.755 506.845 364.733 506.745 364.731C506.644 364.73 506.544 364.748 506.45 364.786C506.357 364.824 506.272 364.88 506.201 364.951C506.13 365.022 506.074 365.107 506.036 365.2C505.998 365.294 505.98 365.394 505.981 365.495C505.983 365.595 506.005 365.695 506.046 365.787C506.087 365.879 506.146 365.961 506.22 366.03L507.94 367.75L506.22 369.47C506.146 369.539 506.087 369.621 506.046 369.713C506.005 369.805 505.983 369.905 505.981 370.005C505.98 370.106 505.998 370.206 506.036 370.3C506.074 370.393 506.13 370.478 506.201 370.549C506.272 370.62 506.357 370.676 506.45 370.714C506.544 370.752 506.644 370.77 506.745 370.769C506.845 370.767 506.945 370.745 507.037 370.704C507.129 370.663 507.211 370.604 507.28 370.53L509 368.81L510.72 370.53C510.789 370.604 510.871 370.663 510.963 370.704C511.055 370.745 511.155 370.767 511.255 370.769C511.356 370.77 511.456 370.752 511.55 370.714C511.643 370.676 511.728 370.62 511.799 370.549C511.87 370.478 511.926 370.393 511.964 370.3C512.002 370.206 512.02 370.106 512.019 370.005C512.017 369.905 511.995 369.805 511.954 369.713C511.913 369.621 511.854 369.539 511.78 369.47L510.06 367.75L511.78 366.03C511.854 365.961 511.913 365.879 511.954 365.787C511.995 365.695 512.017 365.595 512.019 365.495C512.02 365.394 512.002 365.294 511.964 365.2C511.926 365.107 511.87 365.022 511.799 364.951C511.728 364.88 511.643 364.824 511.55 364.786C511.456 364.748 511.356 364.73 511.255 364.731C511.155 364.733 511.055 364.755 510.963 364.796C510.871 364.837 510.789 364.896 510.72 364.97L509 366.69L507.28 364.97Z" fill="#690005"/>
<rect x="537" y="347.75" width="91" height="40" rx="12" fill="#0071E3"/>
<path d="M551.538 365.867C551.491 365.433 551.296 365.095 550.951 364.853C550.61 364.611 550.165 364.49 549.619 364.49C549.234 364.49 548.904 364.548 548.629 364.664C548.354 364.78 548.144 364.937 547.998 365.136C547.852 365.335 547.777 365.562 547.774 365.817C547.774 366.03 547.822 366.214 547.918 366.369C548.018 366.525 548.152 366.658 548.321 366.767C548.49 366.873 548.677 366.963 548.883 367.036C549.088 367.108 549.295 367.17 549.504 367.219L550.459 367.458C550.843 367.548 551.213 367.669 551.567 367.821C551.925 367.973 552.245 368.166 552.527 368.398C552.812 368.63 553.037 368.91 553.203 369.238C553.369 369.566 553.452 369.951 553.452 370.391C553.452 370.988 553.299 371.513 552.994 371.967C552.689 372.418 552.249 372.771 551.672 373.026C551.098 373.278 550.404 373.404 549.589 373.404C548.797 373.404 548.109 373.281 547.526 373.036C546.946 372.791 546.491 372.433 546.163 371.962C545.839 371.492 545.663 370.918 545.636 370.242H547.451C547.478 370.597 547.587 370.892 547.779 371.127C547.971 371.362 548.222 371.538 548.53 371.654C548.841 371.77 549.189 371.828 549.574 371.828C549.975 371.828 550.326 371.768 550.628 371.649C550.933 371.527 551.171 371.357 551.344 371.142C551.516 370.923 551.604 370.668 551.607 370.376C551.604 370.111 551.526 369.893 551.374 369.72C551.221 369.545 551.007 369.399 550.732 369.283C550.46 369.163 550.142 369.057 549.778 368.964L548.619 368.666C547.781 368.451 547.118 368.124 546.631 367.687C546.147 367.246 545.905 366.661 545.905 365.932C545.905 365.332 546.067 364.807 546.392 364.356C546.72 363.905 547.166 363.555 547.729 363.307C548.293 363.055 548.931 362.929 549.643 362.929C550.366 362.929 550.999 363.055 551.543 363.307C552.089 363.555 552.519 363.902 552.83 364.346C553.142 364.787 553.303 365.294 553.312 365.867H551.538ZM557.214 373.404C556.73 373.404 556.294 373.318 555.906 373.146C555.522 372.97 555.217 372.711 554.992 372.37C554.77 372.029 554.659 371.608 554.659 371.107C554.659 370.676 554.738 370.32 554.897 370.038C555.056 369.757 555.273 369.531 555.548 369.362C555.824 369.193 556.133 369.066 556.478 368.979C556.826 368.89 557.186 368.825 557.557 368.786C558.004 368.739 558.367 368.698 558.646 368.661C558.924 368.621 559.126 368.562 559.252 368.482C559.382 368.399 559.446 368.272 559.446 368.099V368.07C559.446 367.695 559.335 367.405 559.113 367.2C558.891 366.994 558.571 366.891 558.154 366.891C557.713 366.891 557.363 366.987 557.105 367.18C556.849 367.372 556.677 367.599 556.588 367.861L554.907 367.622C555.04 367.158 555.258 366.77 555.563 366.459C555.868 366.144 556.241 365.909 556.682 365.753C557.123 365.594 557.61 365.514 558.144 365.514C558.512 365.514 558.878 365.557 559.242 365.643C559.607 365.73 559.94 365.872 560.242 366.071C560.543 366.267 560.785 366.533 560.968 366.871C561.153 367.21 561.246 367.632 561.246 368.139V373.25H559.516V372.201H559.456C559.347 372.413 559.193 372.612 558.994 372.798C558.798 372.98 558.551 373.127 558.253 373.24C557.958 373.349 557.612 373.404 557.214 373.404ZM557.681 372.082C558.043 372.082 558.356 372.01 558.621 371.868C558.886 371.722 559.09 371.53 559.232 371.291C559.378 371.053 559.451 370.792 559.451 370.511V369.611C559.395 369.657 559.299 369.7 559.163 369.74C559.03 369.78 558.881 369.815 558.715 369.844C558.55 369.874 558.386 369.901 558.223 369.924C558.061 369.947 557.92 369.967 557.801 369.984C557.532 370.02 557.292 370.08 557.08 370.163C556.868 370.246 556.7 370.362 556.578 370.511C556.455 370.656 556.394 370.845 556.394 371.077C556.394 371.409 556.515 371.659 556.757 371.828C556.999 371.997 557.307 372.082 557.681 372.082ZM564.855 363.068V373.25H563.056V363.068H564.855ZM573.527 365.614L570.808 373.25H568.819L566.099 365.614H568.018L569.773 371.286H569.853L571.613 365.614H573.527ZM576.751 373.404C576.267 373.404 575.831 373.318 575.444 373.146C575.059 372.97 574.754 372.711 574.529 372.37C574.307 372.029 574.196 371.608 574.196 371.107C574.196 370.676 574.275 370.32 574.434 370.038C574.593 369.757 574.81 369.531 575.086 369.362C575.361 369.193 575.671 369.066 576.015 368.979C576.363 368.89 576.723 368.825 577.094 368.786C577.542 368.739 577.904 368.698 578.183 368.661C578.461 368.621 578.663 368.562 578.789 368.482C578.919 368.399 578.983 368.272 578.983 368.099V368.07C578.983 367.695 578.872 367.405 578.65 367.2C578.428 366.994 578.108 366.891 577.691 366.891C577.25 366.891 576.9 366.987 576.642 367.18C576.386 367.372 576.214 367.599 576.125 367.861L574.444 367.622C574.577 367.158 574.796 366.77 575.1 366.459C575.405 366.144 575.778 365.909 576.219 365.753C576.66 365.594 577.147 365.514 577.681 365.514C578.049 365.514 578.415 365.557 578.779 365.643C579.144 365.73 579.477 365.872 579.779 366.071C580.08 366.267 580.322 366.533 580.505 366.871C580.69 367.21 580.783 367.632 580.783 368.139V373.25H579.053V372.201H578.993C578.884 372.413 578.73 372.612 578.531 372.798C578.335 372.98 578.088 373.127 577.79 373.24C577.495 373.349 577.149 373.404 576.751 373.404ZM577.218 372.082C577.58 372.082 577.893 372.01 578.158 371.868C578.423 371.722 578.627 371.53 578.77 371.291C578.915 371.053 578.988 370.792 578.988 370.511V369.611C578.932 369.657 578.836 369.7 578.7 369.74C578.567 369.78 578.418 369.815 578.252 369.844C578.087 369.874 577.923 369.901 577.76 369.924C577.598 369.947 577.457 369.967 577.338 369.984C577.069 370.02 576.829 370.08 576.617 370.163C576.405 370.246 576.237 370.362 576.115 370.511C575.992 370.656 575.931 370.845 575.931 371.077C575.931 371.409 576.052 371.659 576.294 371.828C576.536 371.997 576.844 372.082 577.218 372.082ZM582.593 373.25V365.614H584.338V366.886H584.417C584.556 366.446 584.795 366.106 585.133 365.867C585.475 365.625 585.864 365.504 586.301 365.504C586.401 365.504 586.512 365.509 586.635 365.519C586.761 365.526 586.865 365.537 586.948 365.554V367.21C586.872 367.183 586.751 367.16 586.585 367.14C586.422 367.117 586.265 367.105 586.113 367.105C585.784 367.105 585.489 367.176 585.228 367.319C584.969 367.458 584.765 367.652 584.616 367.901C584.467 368.149 584.392 368.436 584.392 368.761V373.25H582.593Z" fill="white"/>
<path fill-rule="evenodd" clip-rule="evenodd" d="M615.5 376.75C616.296 376.75 617.059 376.434 617.621 375.871C618.184 375.309 618.5 374.546 618.5 373.75V364.75C618.5 363.954 618.184 363.191 617.621 362.629C617.059 362.066 616.296 361.75 615.5 361.75H610.121C609.922 361.75 609.732 361.671 609.591 361.53L607.47 359.41C607.261 359.201 607.013 359.035 606.74 358.922C606.467 358.808 606.175 358.75 605.879 358.75H600.5C599.704 358.75 598.941 359.066 598.379 359.629C597.816 360.191 597.5 360.954 597.5 361.75V373.75C597.5 374.546 597.816 375.309 598.379 375.871C598.941 376.434 599.704 376.75 600.5 376.75H615.5ZM608.75 366.25C608.75 366.051 608.671 365.86 608.53 365.72C608.39 365.579 608.199 365.5 608 365.5C607.801 365.5 607.61 365.579 607.47 365.72C607.329 365.86 607.25 366.051 607.25 366.25V368.5H605C604.801 368.5 604.61 368.579 604.47 368.72C604.329 368.86 604.25 369.051 604.25 369.25C604.25 369.449 604.329 369.64 604.47 369.78C604.61 369.921 604.801 370 605 370H607.25V372.25C607.25 372.449 607.329 372.64 607.47 372.78C607.61 372.921 607.801 373 608 373C608.199 373 608.39 372.921 608.53 372.78C608.671 372.64 608.75 372.449 608.75 372.25V370H611C611.199 370 611.39 369.921 611.53 369.78C611.671 369.64 611.75 369.449 611.75 369.25C611.75 369.051 611.671 368.86 611.53 368.72C611.39 368.579 611.199 368.5 611 368.5H608.75V366.25Z" fill="white"/>
<path d="M101.568 211.76L93.216 234H88.992L80.608 211.76H84.512L91.104 230.256L97.728 211.76H101.568ZM106.475 214.032C105.813 214.032 105.259 213.808 104.811 213.36C104.363 212.912 104.139 212.357 104.139 211.696C104.139 211.035 104.363 210.48 104.811 210.032C105.259 209.584 105.813 209.36 106.475 209.36C107.115 209.36 107.659 209.584 108.107 210.032C108.555 210.48 108.779 211.035 108.779 211.696C108.779 212.357 108.555 212.912 108.107 213.36C107.659 213.808 107.115 214.032 106.475 214.032ZM108.267 216.368V234H104.619V216.368H108.267ZM111.84 225.104C111.84 223.333 112.203 221.765 112.928 220.4C113.675 219.035 114.678 217.979 115.936 217.232C117.216 216.464 118.635 216.08 120.192 216.08C121.344 216.08 122.475 216.336 123.584 216.848C124.715 217.339 125.611 218 126.272 218.832V210.32H129.952V234H126.272V231.344C125.675 232.197 124.843 232.901 123.776 233.456C122.731 234.011 121.526 234.288 120.16 234.288C118.624 234.288 117.216 233.904 115.936 233.136C114.678 232.347 113.675 231.259 112.928 229.872C112.203 228.464 111.84 226.875 111.84 225.104ZM126.272 225.168C126.272 223.952 126.016 222.896 125.504 222C125.014 221.104 124.363 220.421 123.552 219.952C122.742 219.483 121.867 219.248 120.928 219.248C119.99 219.248 119.115 219.483 118.304 219.952C117.494 220.4 116.832 221.072 116.32 221.968C115.83 222.843 115.584 223.888 115.584 225.104C115.584 226.32 115.83 227.387 116.32 228.304C116.832 229.221 117.494 229.925 118.304 230.416C119.136 230.885 120.011 231.12 120.928 231.12C121.867 231.12 122.742 230.885 123.552 230.416C124.363 229.947 125.014 229.264 125.504 228.368C126.016 227.451 126.272 226.384 126.272 225.168ZM133.528 225.104C133.528 223.333 133.89 221.765 134.616 220.4C135.362 219.035 136.365 217.979 137.624 217.232C138.904 216.464 140.312 216.08 141.848 216.08C143.234 216.08 144.44 216.357 145.464 216.912C146.509 217.445 147.341 218.117 147.96 218.928V216.368H151.64V234H147.96V231.376C147.341 232.208 146.498 232.901 145.432 233.456C144.365 234.011 143.149 234.288 141.784 234.288C140.269 234.288 138.882 233.904 137.624 233.136C136.365 232.347 135.362 231.259 134.616 229.872C133.89 228.464 133.528 226.875 133.528 225.104ZM147.96 225.168C147.96 223.952 147.704 222.896 147.192 222C146.701 221.104 146.05 220.421 145.24 219.952C144.429 219.483 143.554 219.248 142.616 219.248C141.677 219.248 140.802 219.483 139.992 219.952C139.181 220.4 138.52 221.072 138.008 221.968C137.517 222.843 137.272 223.888 137.272 225.104C137.272 226.32 137.517 227.387 138.008 228.304C138.52 229.221 139.181 229.925 139.992 230.416C140.824 230.885 141.698 231.12 142.616 231.12C143.554 231.12 144.429 230.885 145.24 230.416C146.05 229.947 146.701 229.264 147.192 228.368C147.704 227.451 147.96 226.384 147.96 225.168ZM173.615 223.984H167.151V230.608H163.759V223.984H157.295V220.912H163.759V214.288H167.151V220.912H173.615V223.984Z" fill="url(#paint0_linear_43_39)"/>
<defs>
<linearGradient id="paint0_linear_43_39" x1="80" y1="199" x2="128.5" y2="247" gradientUnits="userSpaceOnUse">
<stop stop-color="#00363C"/>
<stop offset="1" stop-color="#B1CBCF"/>
</linearGradient>
</defs>
</svg>
