<svg width="900" height="600" viewBox="0 0 900 600" fill="none" xmlns="http://www.w3.org/2000/svg">
<rect width="900" height="600" fill="white"/>
<rect x="174" y="251" width="551" height="49" rx="14" fill="#E6E6E6" fill-opacity="0.29"/>
<rect x="182.25" y="259.25" width="120.5" height="32.5" rx="7.75" stroke="#495057" stroke-opacity="0.5" stroke-width="0.5"/>
<path fill-rule="evenodd" clip-rule="evenodd" d="M194.5 267.25C193.704 267.25 192.941 267.566 192.379 268.129C191.816 268.691 191.5 269.454 191.5 270.25V280.75C191.5 281.546 191.816 282.309 192.379 282.871C192.941 283.434 193.704 283.75 194.5 283.75H209.5C210.296 283.75 211.059 283.434 211.621 282.871C212.184 282.309 212.5 281.546 212.5 280.75V270.25C212.5 269.454 212.184 268.691 211.621 268.129C211.059 267.566 210.296 267.25 209.5 267.25H194.5ZM198.625 270.25C198.028 270.25 197.456 270.487 197.034 270.909C196.612 271.331 196.375 271.903 196.375 272.5C196.375 273.097 196.612 273.669 197.034 274.091C197.456 274.513 198.028 274.75 198.625 274.75C199.222 274.75 199.794 274.513 200.216 274.091C200.638 273.669 200.875 273.097 200.875 272.5C200.875 271.903 200.638 271.331 200.216 270.909C199.794 270.487 199.222 270.25 198.625 270.25ZM194.752 278.953C195.043 278.16 195.571 277.476 196.263 276.992C196.956 276.509 197.78 276.25 198.625 276.25C199.47 276.25 200.294 276.509 200.987 276.992C201.679 277.476 202.207 278.16 202.498 278.953C202.56 279.123 202.559 279.31 202.495 279.479C202.43 279.648 202.307 279.788 202.147 279.873C201.063 280.45 199.853 280.752 198.625 280.75C197.397 280.752 196.187 280.45 195.103 279.873C194.943 279.788 194.82 279.648 194.755 279.479C194.691 279.31 194.69 279.123 194.752 278.953ZM205 271.75C204.801 271.75 204.61 271.829 204.47 271.97C204.329 272.11 204.25 272.301 204.25 272.5C204.25 272.699 204.329 272.89 204.47 273.03C204.61 273.171 204.801 273.25 205 273.25H208.75C208.949 273.25 209.14 273.171 209.28 273.03C209.421 272.89 209.5 272.699 209.5 272.5C209.5 272.301 209.421 272.11 209.28 271.97C209.14 271.829 208.949 271.75 208.75 271.75H205ZM204.25 275.5C204.25 275.301 204.329 275.11 204.47 274.97C204.61 274.829 204.801 274.75 205 274.75H208.75C208.949 274.75 209.14 274.829 209.28 274.97C209.421 275.11 209.5 275.301 209.5 275.5C209.5 275.699 209.421 275.89 209.28 276.03C209.14 276.171 208.949 276.25 208.75 276.25H205C204.801 276.25 204.61 276.171 204.47 276.03C204.329 275.89 204.25 275.699 204.25 275.5ZM205 277.75C204.801 277.75 204.61 277.829 204.47 277.97C204.329 278.11 204.25 278.301 204.25 278.5C204.25 278.699 204.329 278.89 204.47 279.03C204.61 279.171 204.801 279.25 205 279.25H208.75C208.949 279.25 209.14 279.171 209.28 279.03C209.421 278.89 209.5 278.699 209.5 278.5C209.5 278.301 209.421 278.11 209.28 277.97C209.14 277.829 208.949 277.75 208.75 277.75H205Z" fill="black"/>
<rect x="309.25" y="259.25" width="120.5" height="32.5" rx="7.75" stroke="#495057" stroke-opacity="0.5" stroke-width="0.5"/>
<rect x="436" y="259" width="142" height="33" rx="12" fill="#00363C"/>
<path d="M446.312 281H444.343L447.928 270.818H450.205L453.794 281H451.825L449.106 272.906H449.026L446.312 281ZM446.376 277.008H451.746V278.489H446.376V277.008ZM458.39 273.364V274.756H454V273.364H458.39ZM455.084 271.534H456.884V278.703C456.884 278.945 456.92 279.131 456.993 279.26C457.069 279.386 457.169 279.472 457.292 279.518C457.414 279.565 457.55 279.588 457.699 279.588C457.812 279.588 457.915 279.58 458.007 279.563C458.104 279.547 458.176 279.532 458.226 279.518L458.529 280.925C458.433 280.959 458.296 280.995 458.117 281.035C457.941 281.075 457.726 281.098 457.471 281.104C457.02 281.118 456.614 281.05 456.252 280.901C455.891 280.748 455.605 280.513 455.392 280.195C455.184 279.876 455.081 279.479 455.084 279.001V271.534ZM464.763 277.788V273.364H466.562V281H464.817V279.643H464.738C464.565 280.07 464.282 280.42 463.888 280.692C463.497 280.964 463.014 281.099 462.441 281.099C461.94 281.099 461.498 280.988 461.113 280.766C460.732 280.541 460.434 280.214 460.219 279.787C460.003 279.356 459.895 278.836 459.895 278.226V273.364H461.695V277.947C461.695 278.431 461.828 278.816 462.093 279.101C462.358 279.386 462.706 279.528 463.137 279.528C463.402 279.528 463.659 279.464 463.907 279.335C464.156 279.205 464.36 279.013 464.519 278.758C464.681 278.499 464.763 278.176 464.763 277.788ZM470.61 281.154C470.127 281.154 469.691 281.068 469.303 280.896C468.918 280.72 468.614 280.461 468.388 280.12C468.166 279.779 468.055 279.358 468.055 278.857C468.055 278.426 468.135 278.07 468.294 277.788C468.453 277.507 468.67 277.281 468.945 277.112C469.22 276.943 469.53 276.816 469.875 276.729C470.223 276.64 470.582 276.575 470.953 276.536C471.401 276.489 471.764 276.448 472.042 276.411C472.321 276.371 472.523 276.312 472.649 276.232C472.778 276.149 472.843 276.022 472.843 275.849V275.82C472.843 275.445 472.732 275.155 472.51 274.95C472.288 274.744 471.968 274.641 471.55 274.641C471.109 274.641 470.76 274.737 470.501 274.93C470.246 275.122 470.074 275.349 469.984 275.611L468.304 275.372C468.436 274.908 468.655 274.52 468.96 274.209C469.265 273.894 469.638 273.659 470.078 273.503C470.519 273.344 471.007 273.264 471.54 273.264C471.908 273.264 472.274 273.307 472.639 273.393C473.003 273.48 473.337 273.622 473.638 273.821C473.94 274.017 474.182 274.283 474.364 274.621C474.55 274.96 474.642 275.382 474.642 275.889V281H472.912V279.951H472.853C472.743 280.163 472.589 280.362 472.39 280.548C472.195 280.73 471.948 280.877 471.65 280.99C471.355 281.099 471.008 281.154 470.61 281.154ZM471.078 279.832C471.439 279.832 471.752 279.76 472.017 279.618C472.283 279.472 472.486 279.28 472.629 279.041C472.775 278.803 472.848 278.542 472.848 278.261V277.361C472.791 277.407 472.695 277.45 472.559 277.49C472.427 277.53 472.278 277.565 472.112 277.594C471.946 277.624 471.782 277.651 471.62 277.674C471.457 277.697 471.316 277.717 471.197 277.734C470.929 277.77 470.688 277.83 470.476 277.913C470.264 277.996 470.097 278.112 469.974 278.261C469.851 278.406 469.79 278.595 469.79 278.827C469.79 279.159 469.911 279.409 470.153 279.578C470.395 279.747 470.703 279.832 471.078 279.832ZM478.252 270.818V281H476.452V270.818H478.252ZM480.102 281V273.364H481.902V281H480.102ZM481.007 272.28C480.722 272.28 480.477 272.185 480.271 271.996C480.066 271.804 479.963 271.574 479.963 271.305C479.963 271.034 480.066 270.803 480.271 270.614C480.477 270.422 480.722 270.326 481.007 270.326C481.296 270.326 481.541 270.422 481.743 270.614C481.949 270.803 482.051 271.034 482.051 271.305C482.051 271.574 481.949 271.804 481.743 271.996C481.541 272.185 481.296 272.28 481.007 272.28ZM483.653 281V279.857L487.591 274.92V274.855H483.783V273.364H489.793V274.592L486.045 279.444V279.509H489.923V281H483.653ZM493.812 281.154C493.328 281.154 492.892 281.068 492.504 280.896C492.12 280.72 491.815 280.461 491.589 280.12C491.367 279.779 491.256 279.358 491.256 278.857C491.256 278.426 491.336 278.07 491.495 277.788C491.654 277.507 491.871 277.281 492.146 277.112C492.421 276.943 492.731 276.816 493.076 276.729C493.424 276.64 493.783 276.575 494.155 276.536C494.602 276.489 494.965 276.448 495.243 276.411C495.522 276.371 495.724 276.312 495.85 276.232C495.979 276.149 496.044 276.022 496.044 275.849V275.82C496.044 275.445 495.933 275.155 495.711 274.95C495.489 274.744 495.169 274.641 494.751 274.641C494.31 274.641 493.961 274.737 493.702 274.93C493.447 275.122 493.275 275.349 493.185 275.611L491.505 275.372C491.637 274.908 491.856 274.52 492.161 274.209C492.466 273.894 492.839 273.659 493.28 273.503C493.72 273.344 494.208 273.264 494.741 273.264C495.109 273.264 495.475 273.307 495.84 273.393C496.205 273.48 496.538 273.622 496.839 273.821C497.141 274.017 497.383 274.283 497.565 274.621C497.751 274.96 497.844 275.382 497.844 275.889V281H496.113V279.951H496.054C495.944 280.163 495.79 280.362 495.591 280.548C495.396 280.73 495.149 280.877 494.851 280.99C494.556 281.099 494.209 281.154 493.812 281.154ZM494.279 279.832C494.64 279.832 494.953 279.76 495.219 279.618C495.484 279.472 495.688 279.28 495.83 279.041C495.976 278.803 496.049 278.542 496.049 278.261V277.361C495.992 277.407 495.896 277.45 495.76 277.49C495.628 277.53 495.479 277.565 495.313 277.594C495.147 277.624 494.983 277.651 494.821 277.674C494.658 277.697 494.518 277.717 494.398 277.734C494.13 277.77 493.89 277.83 493.677 277.913C493.465 277.996 493.298 278.112 493.175 278.261C493.053 278.406 492.991 278.595 492.991 278.827C492.991 279.159 493.112 279.409 493.354 279.578C493.596 279.747 493.904 279.832 494.279 279.832ZM499.653 281V273.364H501.398V274.636H501.478C501.617 274.196 501.856 273.856 502.194 273.617C502.535 273.375 502.925 273.254 503.362 273.254C503.461 273.254 503.573 273.259 503.695 273.269C503.821 273.276 503.925 273.287 504.008 273.304V274.96C503.932 274.933 503.811 274.91 503.645 274.89C503.483 274.867 503.326 274.855 503.173 274.855C502.845 274.855 502.55 274.926 502.288 275.069C502.03 275.208 501.826 275.402 501.677 275.651C501.528 275.899 501.453 276.186 501.453 276.511V281H499.653ZM508.756 281V270.818H512.574C513.357 270.818 514.013 270.954 514.543 271.226C515.077 271.498 515.479 271.879 515.751 272.369C516.026 272.857 516.164 273.425 516.164 274.075C516.164 274.728 516.025 275.294 515.746 275.775C515.471 276.252 515.065 276.622 514.528 276.884C513.991 277.142 513.332 277.271 512.55 277.271H509.83V275.74H512.301C512.758 275.74 513.133 275.677 513.425 275.551C513.716 275.422 513.932 275.235 514.071 274.989C514.213 274.741 514.285 274.436 514.285 274.075C514.285 273.713 514.213 273.405 514.071 273.15C513.928 272.891 513.711 272.696 513.42 272.563C513.128 272.427 512.752 272.359 512.291 272.359H510.601V281H508.756ZM514.016 276.386L516.537 281H514.479L512.003 276.386H514.016ZM521.004 281.149C520.258 281.149 519.612 280.985 519.065 280.657C518.518 280.329 518.094 279.87 517.792 279.28C517.494 278.69 517.345 278 517.345 277.212C517.345 276.423 517.494 275.732 517.792 275.138C518.094 274.545 518.518 274.085 519.065 273.756C519.612 273.428 520.258 273.264 521.004 273.264C521.749 273.264 522.396 273.428 522.943 273.756C523.49 274.085 523.912 274.545 524.21 275.138C524.512 275.732 524.663 276.423 524.663 277.212C524.663 278 524.512 278.69 524.21 279.28C523.912 279.87 523.49 280.329 522.943 280.657C522.396 280.985 521.749 281.149 521.004 281.149ZM521.014 279.707C521.418 279.707 521.756 279.596 522.028 279.374C522.3 279.149 522.502 278.847 522.634 278.469C522.77 278.092 522.838 277.671 522.838 277.207C522.838 276.739 522.77 276.317 522.634 275.939C522.502 275.558 522.3 275.254 522.028 275.029C521.756 274.804 521.418 274.691 521.014 274.691C520.599 274.691 520.255 274.804 519.98 275.029C519.708 275.254 519.504 275.558 519.368 275.939C519.235 276.317 519.169 276.739 519.169 277.207C519.169 277.671 519.235 278.092 519.368 278.469C519.504 278.847 519.708 279.149 519.98 279.374C520.255 279.596 520.599 279.707 521.014 279.707ZM527.99 270.818V281H526.19V270.818H527.99ZM533.221 281.149C532.456 281.149 531.795 280.99 531.238 280.672C530.684 280.35 530.258 279.896 529.96 279.31C529.662 278.72 529.513 278.025 529.513 277.227C529.513 276.441 529.662 275.752 529.96 275.158C530.262 274.562 530.683 274.098 531.223 273.766C531.763 273.432 532.398 273.264 533.127 273.264C533.598 273.264 534.042 273.34 534.459 273.493C534.88 273.642 535.251 273.874 535.573 274.189C535.898 274.504 536.153 274.905 536.339 275.392C536.524 275.876 536.617 276.453 536.617 277.122V277.674H530.358V276.461H534.892C534.889 276.116 534.814 275.81 534.668 275.541C534.522 275.269 534.318 275.056 534.057 274.9C533.798 274.744 533.497 274.666 533.152 274.666C532.784 274.666 532.461 274.756 532.182 274.935C531.904 275.11 531.687 275.342 531.531 275.631C531.379 275.916 531.301 276.229 531.297 276.57V277.629C531.297 278.073 531.379 278.455 531.541 278.773C531.703 279.088 531.93 279.33 532.222 279.499C532.514 279.664 532.855 279.747 533.246 279.747C533.508 279.747 533.745 279.711 533.957 279.638C534.169 279.562 534.353 279.451 534.509 279.305C534.665 279.159 534.782 278.978 534.862 278.763L536.542 278.952C536.436 279.396 536.234 279.784 535.936 280.115C535.641 280.443 535.263 280.698 534.802 280.881C534.342 281.06 533.815 281.149 533.221 281.149Z" fill="#81D3DE"/>
<path fill-rule="evenodd" clip-rule="evenodd" d="M550.755 273.559C551.095 272.287 551.765 271.127 552.696 270.196C553.626 269.265 554.786 268.595 556.058 268.254C557.329 267.913 558.668 267.913 559.94 268.254C561.212 268.595 562.372 269.264 563.303 270.195L565.206 272.098H562.023C561.824 272.098 561.633 272.177 561.493 272.318C561.352 272.458 561.273 272.649 561.273 272.848C561.273 273.047 561.352 273.238 561.493 273.378C561.633 273.519 561.824 273.598 562.023 273.598H567.015C567.214 273.598 567.405 273.519 567.545 273.378C567.686 273.238 567.765 273.047 567.765 272.848V267.856C567.765 267.657 567.686 267.466 567.545 267.326C567.405 267.185 567.214 267.106 567.015 267.106C566.816 267.106 566.625 267.185 566.485 267.326C566.344 267.466 566.265 267.657 566.265 267.856V271.036L564.365 269.136C563.248 268.018 561.856 267.215 560.33 266.806C558.804 266.396 557.197 266.396 555.671 266.805C554.144 267.214 552.753 268.017 551.635 269.135C550.518 270.252 549.715 271.644 549.306 273.17C549.28 273.265 549.274 273.365 549.287 273.462C549.3 273.56 549.332 273.654 549.381 273.739C549.43 273.825 549.496 273.9 549.574 273.96C549.652 274.02 549.742 274.064 549.837 274.089C549.932 274.114 550.031 274.121 550.129 274.108C550.227 274.095 550.321 274.063 550.406 274.014C550.492 273.965 550.566 273.899 550.626 273.821C550.686 273.742 550.73 273.653 550.756 273.558L550.755 273.559ZM566.163 276.911C566.068 276.885 565.968 276.879 565.871 276.892C565.773 276.904 565.679 276.936 565.594 276.986C565.508 277.035 565.433 277.1 565.373 277.179C565.313 277.257 565.269 277.346 565.244 277.441C564.903 278.713 564.234 279.873 563.303 280.804C562.372 281.735 561.213 282.405 559.941 282.746C558.669 283.087 557.33 283.087 556.058 282.746C554.787 282.405 553.627 281.736 552.696 280.805L550.794 278.902H553.977C554.176 278.902 554.367 278.823 554.507 278.682C554.648 278.542 554.727 278.351 554.727 278.152C554.727 277.953 554.648 277.762 554.507 277.622C554.367 277.481 554.176 277.402 553.977 277.402H548.984C548.785 277.402 548.594 277.481 548.454 277.622C548.313 277.762 548.234 277.953 548.234 278.152V283.144C548.234 283.343 548.313 283.534 548.454 283.674C548.594 283.815 548.785 283.894 548.984 283.894C549.183 283.894 549.374 283.815 549.514 283.674C549.655 283.534 549.734 283.343 549.734 283.144V279.964L551.634 281.864C552.751 282.982 554.143 283.785 555.669 284.194C557.195 284.604 558.802 284.604 560.328 284.195C561.855 283.786 563.246 282.982 564.364 281.865C565.481 280.747 566.284 279.355 566.693 277.829C566.744 277.637 566.717 277.432 566.618 277.26C566.518 277.088 566.355 276.963 566.163 276.911Z" fill="#81D3DE"/>
<rect x="584" y="260" width="133" height="32" rx="12" fill="#FFB4AB"/>
<path d="M593.004 281.5V271.318H599.626V272.864H594.849V275.629H599.283V277.175H594.849V279.954H599.666V281.5H593.004ZM602.9 273.864L604.441 276.683L606.007 273.864H607.912L605.61 277.682L607.951 281.5H606.057L604.441 278.751L602.841 281.5H600.931L603.258 277.682L600.991 273.864H602.9ZM612.347 281.649C611.585 281.649 610.931 281.482 610.384 281.147C609.84 280.812 609.421 280.35 609.126 279.76C608.834 279.167 608.688 278.484 608.688 277.712C608.688 276.936 608.838 276.252 609.136 275.658C609.434 275.062 609.855 274.598 610.399 274.266C610.945 273.932 611.592 273.764 612.338 273.764C612.957 273.764 613.506 273.879 613.983 274.107C614.464 274.333 614.847 274.652 615.132 275.067C615.417 275.478 615.579 275.958 615.619 276.509H613.899C613.829 276.141 613.663 275.834 613.401 275.589C613.143 275.34 612.797 275.216 612.362 275.216C611.994 275.216 611.671 275.315 611.393 275.514C611.115 275.71 610.897 275.991 610.742 276.359C610.589 276.727 610.513 277.168 610.513 277.682C610.513 278.202 610.589 278.65 610.742 279.024C610.894 279.395 611.108 279.682 611.383 279.884C611.661 280.083 611.988 280.183 612.362 280.183C612.628 280.183 612.865 280.133 613.073 280.033C613.285 279.931 613.463 279.783 613.605 279.591C613.748 279.399 613.846 279.165 613.899 278.89H615.619C615.576 279.43 615.417 279.909 615.142 280.327C614.866 280.741 614.492 281.066 614.018 281.301C613.544 281.533 612.987 281.649 612.347 281.649ZM618.896 271.318V281.5H617.097V271.318H618.896ZM625.614 278.288V273.864H627.414V281.5H625.669V280.143H625.589C625.417 280.57 625.134 280.92 624.739 281.192C624.348 281.464 623.866 281.599 623.292 281.599C622.792 281.599 622.349 281.488 621.965 281.266C621.584 281.041 621.286 280.714 621.07 280.287C620.855 279.856 620.747 279.336 620.747 278.726V273.864H622.547V278.447C622.547 278.931 622.679 279.316 622.944 279.601C623.21 279.886 623.558 280.028 623.988 280.028C624.254 280.028 624.51 279.964 624.759 279.835C625.008 279.705 625.211 279.513 625.371 279.258C625.533 278.999 625.614 278.676 625.614 278.288ZM629.265 281.5V273.864H631.064V281.5H629.265ZM630.169 272.78C629.884 272.78 629.639 272.685 629.434 272.496C629.228 272.304 629.125 272.074 629.125 271.805C629.125 271.534 629.228 271.303 629.434 271.114C629.639 270.922 629.884 270.826 630.169 270.826C630.458 270.826 630.703 270.922 630.905 271.114C631.111 271.303 631.213 271.534 631.213 271.805C631.213 272.074 631.111 272.304 630.905 272.496C630.703 272.685 630.458 272.78 630.169 272.78ZM632.915 281.5V273.864H634.66V275.136H634.74C634.879 274.696 635.117 274.356 635.455 274.117C635.797 273.875 636.186 273.754 636.624 273.754C636.723 273.754 636.834 273.759 636.957 273.769C637.083 273.776 637.187 273.787 637.27 273.804V275.46C637.194 275.433 637.073 275.41 636.907 275.39C636.745 275.367 636.587 275.355 636.435 275.355C636.107 275.355 635.812 275.426 635.55 275.569C635.291 275.708 635.088 275.902 634.938 276.151C634.789 276.399 634.715 276.686 634.715 277.011V281.5H632.915ZM642.018 281.5V271.318H645.836C646.618 271.318 647.275 271.464 647.805 271.756C648.338 272.047 648.741 272.448 649.013 272.959C649.288 273.466 649.426 274.043 649.426 274.689C649.426 275.342 649.288 275.922 649.013 276.429C648.738 276.936 648.332 277.335 647.795 277.627C647.258 277.915 646.597 278.06 645.811 278.06H643.281V276.543H645.563C646.02 276.543 646.395 276.464 646.686 276.305C646.978 276.146 647.193 275.927 647.333 275.648C647.475 275.37 647.546 275.05 647.546 274.689C647.546 274.328 647.475 274.009 647.333 273.734C647.193 273.459 646.976 273.246 646.681 273.093C646.39 272.937 646.013 272.859 645.553 272.859H643.862V281.5H642.018ZM654.219 281.649C653.454 281.649 652.793 281.49 652.236 281.172C651.682 280.85 651.256 280.396 650.958 279.81C650.66 279.22 650.511 278.525 650.511 277.727C650.511 276.941 650.66 276.252 650.958 275.658C651.26 275.062 651.681 274.598 652.221 274.266C652.761 273.932 653.396 273.764 654.125 273.764C654.596 273.764 655.04 273.84 655.457 273.993C655.878 274.142 656.25 274.374 656.571 274.689C656.896 275.004 657.151 275.405 657.337 275.892C657.522 276.376 657.615 276.953 657.615 277.622V278.174H651.356V276.961H655.89C655.887 276.616 655.812 276.31 655.666 276.041C655.52 275.769 655.317 275.556 655.055 275.4C654.796 275.244 654.495 275.166 654.15 275.166C653.782 275.166 653.459 275.256 653.18 275.435C652.902 275.61 652.685 275.842 652.529 276.131C652.377 276.416 652.299 276.729 652.295 277.07V278.129C652.295 278.573 652.377 278.955 652.539 279.273C652.701 279.588 652.929 279.83 653.22 279.999C653.512 280.164 653.853 280.247 654.244 280.247C654.506 280.247 654.743 280.211 654.955 280.138C655.167 280.062 655.351 279.951 655.507 279.805C655.663 279.659 655.781 279.478 655.86 279.263L657.54 279.452C657.434 279.896 657.232 280.284 656.934 280.615C656.639 280.943 656.261 281.198 655.8 281.381C655.34 281.56 654.813 281.649 654.219 281.649ZM659.138 281.5V273.864H660.883V275.136H660.962C661.101 274.696 661.34 274.356 661.678 274.117C662.019 273.875 662.409 273.754 662.846 273.754C662.946 273.754 663.057 273.759 663.18 273.769C663.305 273.776 663.41 273.787 663.493 273.804V275.46C663.416 275.433 663.296 275.41 663.13 275.39C662.967 275.367 662.81 275.355 662.657 275.355C662.329 275.355 662.034 275.426 661.773 275.569C661.514 275.708 661.31 275.902 661.161 276.151C661.012 276.399 660.937 276.686 660.937 277.011V281.5H659.138ZM668.966 273.864V275.256H664.452V273.864H668.966ZM665.581 281.5V273.143C665.581 272.629 665.687 272.201 665.899 271.86C666.114 271.519 666.403 271.263 666.764 271.094C667.125 270.925 667.526 270.841 667.967 270.841C668.279 270.841 668.555 270.866 668.797 270.915C669.039 270.965 669.218 271.01 669.334 271.05L668.976 272.442C668.9 272.419 668.804 272.395 668.688 272.372C668.572 272.346 668.443 272.332 668.3 272.332C667.965 272.332 667.729 272.414 667.589 272.576C667.453 272.735 667.385 272.964 667.385 273.262V281.5H665.581ZM670.376 281.5V273.864H672.176V281.5H670.376ZM671.281 272.78C670.996 272.78 670.75 272.685 670.545 272.496C670.339 272.304 670.237 272.074 670.237 271.805C670.237 271.534 670.339 271.303 670.545 271.114C670.75 270.922 670.996 270.826 671.281 270.826C671.569 270.826 671.814 270.922 672.017 271.114C672.222 271.303 672.325 271.534 672.325 271.805C672.325 272.074 672.222 272.304 672.017 272.496C671.814 272.685 671.569 272.78 671.281 272.78ZM675.826 271.318V281.5H674.026V271.318H675.826Z" fill="#690005"/>
<path fill-rule="evenodd" clip-rule="evenodd" d="M687.515 274.674C687.341 274.848 687.203 275.055 687.109 275.282C687.014 275.51 686.966 275.754 686.966 276C686.966 276.246 687.014 276.49 687.109 276.718C687.203 276.945 687.341 277.152 687.515 277.326L693.89 283.7C694.242 284.051 694.719 284.249 695.216 284.249H704.5C705.296 284.249 706.059 283.933 706.621 283.37C707.184 282.808 707.5 282.045 707.5 281.249V270.75C707.5 269.954 707.184 269.191 706.621 268.629C706.059 268.066 705.296 267.75 704.5 267.75H695.216C694.719 267.75 694.242 267.948 693.89 268.3L687.515 274.674ZM697.53 273.22C697.462 273.146 697.379 273.087 697.287 273.046C697.195 273.005 697.095 272.983 696.995 272.981C696.894 272.98 696.794 272.998 696.701 273.036C696.607 273.074 696.522 273.13 696.451 273.201C696.38 273.272 696.324 273.357 696.286 273.45C696.248 273.544 696.23 273.644 696.232 273.745C696.233 273.845 696.255 273.945 696.296 274.037C696.337 274.129 696.396 274.211 696.47 274.28L698.19 276L696.47 277.72C696.396 277.789 696.337 277.871 696.296 277.963C696.255 278.055 696.233 278.155 696.232 278.255C696.23 278.356 696.248 278.456 696.286 278.55C696.324 278.643 696.38 278.728 696.451 278.799C696.522 278.87 696.607 278.926 696.701 278.964C696.794 279.002 696.894 279.02 696.995 279.019C697.095 279.017 697.195 278.995 697.287 278.954C697.379 278.913 697.462 278.854 697.53 278.78L699.25 277.06L700.97 278.78C701.039 278.854 701.122 278.913 701.214 278.954C701.306 278.995 701.405 279.017 701.506 279.019C701.606 279.02 701.706 279.002 701.8 278.964C701.893 278.926 701.978 278.87 702.049 278.799C702.12 278.728 702.177 278.643 702.214 278.55C702.252 278.456 702.271 278.356 702.269 278.255C702.267 278.155 702.245 278.055 702.204 277.963C702.163 277.871 702.104 277.789 702.03 277.72L700.31 276L702.03 274.28C702.104 274.211 702.163 274.129 702.204 274.037C702.245 273.945 702.267 273.845 702.269 273.745C702.271 273.644 702.252 273.544 702.214 273.45C702.177 273.357 702.12 273.272 702.049 273.201C701.978 273.13 701.893 273.074 701.8 273.036C701.706 272.998 701.606 272.98 701.506 272.981C701.405 272.983 701.306 273.005 701.214 273.046C701.122 273.087 701.039 273.146 700.97 273.22L699.25 274.94L697.53 273.22Z" fill="#690005"/>
<path d="M29.568 20.76L21.216 43H16.992L8.608 20.76H12.512L19.104 39.256L25.728 20.76H29.568ZM34.4748 23.032C33.8134 23.032 33.2588 22.808 32.8108 22.36C32.3628 21.912 32.1388 21.3573 32.1388 20.696C32.1388 20.0347 32.3628 19.48 32.8108 19.032C33.2588 18.584 33.8134 18.36 34.4748 18.36C35.1148 18.36 35.6588 18.584 36.1068 19.032C36.5548 19.48 36.7788 20.0347 36.7788 20.696C36.7788 21.3573 36.5548 21.912 36.1068 22.36C35.6588 22.808 35.1148 23.032 34.4748 23.032ZM36.2668 25.368V43H32.6188V25.368H36.2668ZM39.8403 34.104C39.8403 32.3333 40.2029 30.7653 40.9283 29.4C41.6749 28.0347 42.6776 26.9787 43.9363 26.232C45.2163 25.464 46.6349 25.08 48.1923 25.08C49.3443 25.08 50.4749 25.336 51.5843 25.848C52.7149 26.3387 53.6109 27 54.2723 27.832V19.32H57.9523V43H54.2723V40.344C53.6749 41.1973 52.8429 41.9013 51.7763 42.456C50.7309 43.0107 49.5256 43.288 48.1603 43.288C46.6243 43.288 45.2163 42.904 43.9363 42.136C42.6776 41.3467 41.6749 40.2587 40.9283 38.872C40.2029 37.464 39.8403 35.8747 39.8403 34.104ZM54.2723 34.168C54.2723 32.952 54.0163 31.896 53.5043 31C53.0136 30.104 52.3629 29.4213 51.5523 28.952C50.7416 28.4827 49.8669 28.248 48.9283 28.248C47.9896 28.248 47.1149 28.4827 46.3043 28.952C45.4936 29.4 44.8323 30.072 44.3203 30.968C43.8296 31.8427 43.5843 32.888 43.5843 34.104C43.5843 35.32 43.8296 36.3867 44.3203 37.304C44.8323 38.2213 45.4936 38.9253 46.3043 39.416C47.1363 39.8853 48.0109 40.12 48.9283 40.12C49.8669 40.12 50.7416 39.8853 51.5523 39.416C52.3629 38.9467 53.0136 38.264 53.5043 37.368C54.0163 36.4507 54.2723 35.384 54.2723 34.168ZM61.5278 34.104C61.5278 32.3333 61.8904 30.7653 62.6158 29.4C63.3624 28.0347 64.3651 26.9787 65.6238 26.232C66.9038 25.464 68.3118 25.08 69.8478 25.08C71.2344 25.08 72.4398 25.3573 73.4638 25.912C74.5091 26.4453 75.3411 27.1173 75.9598 27.928V25.368H79.6398V43H75.9598V40.376C75.3411 41.208 74.4984 41.9013 73.4318 42.456C72.3651 43.0107 71.1491 43.288 69.7838 43.288C68.2691 43.288 66.8824 42.904 65.6238 42.136C64.3651 41.3467 63.3624 40.2587 62.6158 38.872C61.8904 37.464 61.5278 35.8747 61.5278 34.104ZM75.9598 34.168C75.9598 32.952 75.7038 31.896 75.1918 31C74.7011 30.104 74.0504 29.4213 73.2398 28.952C72.4291 28.4827 71.5544 28.248 70.6158 28.248C69.6771 28.248 68.8024 28.4827 67.9918 28.952C67.1811 29.4 66.5198 30.072 66.0078 30.968C65.5171 31.8427 65.2718 32.888 65.2718 34.104C65.2718 35.32 65.5171 36.3867 66.0078 37.304C66.5198 38.2213 67.1811 38.9253 67.9918 39.416C68.8238 39.8853 69.6984 40.12 70.6158 40.12C71.5544 40.12 72.4291 39.8853 73.2398 39.416C74.0504 38.9467 74.7011 38.264 75.1918 37.368C75.7038 36.4507 75.9598 35.384 75.9598 34.168ZM101.615 32.984H95.1513V39.608H91.7593V32.984H85.2953V29.912H91.7593V23.288H95.1513V29.912H101.615V32.984Z" fill="url(#paint0_linear_76_155)"/>
<rect x="817" y="16" width="75" height="32" rx="12" fill="#FFB4AB"/>
<path d="M831.538 30.1172C831.491 29.683 831.296 29.3449 830.951 29.103C830.61 28.861 830.165 28.7401 829.619 28.7401C829.234 28.7401 828.904 28.7981 828.629 28.9141C828.354 29.0301 828.144 29.1875 827.998 29.3864C827.852 29.5852 827.777 29.8123 827.774 30.0675C827.774 30.2796 827.822 30.4635 827.918 30.6193C828.018 30.7751 828.152 30.9077 828.321 31.017C828.49 31.1231 828.677 31.2126 828.883 31.2855C829.088 31.3584 829.295 31.4197 829.504 31.4695L830.459 31.7081C830.843 31.7976 831.213 31.9186 831.567 32.071C831.925 32.2235 832.245 32.4157 832.527 32.6477C832.812 32.8797 833.037 33.1598 833.203 33.4879C833.369 33.8161 833.452 34.2005 833.452 34.6413C833.452 35.2379 833.299 35.7633 832.994 36.2173C832.689 36.6681 832.249 37.0211 831.672 37.2763C831.098 37.5282 830.404 37.6541 829.589 37.6541C828.797 37.6541 828.109 37.5315 827.526 37.2862C826.946 37.041 826.491 36.683 826.163 36.2124C825.839 35.7417 825.663 35.1683 825.636 34.4922H827.451C827.478 34.8468 827.587 35.1418 827.779 35.3771C827.971 35.6125 828.222 35.7881 828.53 35.9041C828.841 36.0201 829.189 36.0781 829.574 36.0781C829.975 36.0781 830.326 36.0185 830.628 35.8991C830.933 35.7765 831.171 35.6075 831.344 35.392C831.516 35.1733 831.604 34.9181 831.607 34.6264C831.604 34.3613 831.526 34.1425 831.374 33.9702C831.221 33.7945 831.007 33.6487 830.732 33.5327C830.46 33.4134 830.142 33.3073 829.778 33.2145L828.619 32.9162C827.781 32.7008 827.118 32.3743 826.631 31.9368C826.147 31.496 825.905 30.911 825.905 30.1818C825.905 29.5819 826.067 29.0566 826.392 28.6058C826.72 28.1551 827.166 27.8054 827.729 27.5568C828.293 27.3049 828.931 27.179 829.643 27.179C830.366 27.179 830.999 27.3049 831.543 27.5568C832.089 27.8054 832.519 28.1518 832.83 28.5959C833.142 29.0367 833.303 29.5438 833.312 30.1172H831.538ZM837.214 37.6541C836.73 37.6541 836.294 37.5679 835.906 37.3956C835.522 37.2199 835.217 36.9614 834.992 36.62C834.77 36.2786 834.659 35.8577 834.659 35.3572C834.659 34.9264 834.738 34.5701 834.897 34.2884C835.056 34.0066 835.273 33.7812 835.548 33.6122C835.824 33.4432 836.133 33.3156 836.478 33.2294C836.826 33.1399 837.186 33.0753 837.557 33.0355C838.004 32.9891 838.367 32.9477 838.646 32.9112C838.924 32.8714 839.126 32.8118 839.252 32.7322C839.382 32.6494 839.446 32.5218 839.446 32.3494V32.3196C839.446 31.9451 839.335 31.6551 839.113 31.4496C838.891 31.2441 838.571 31.1413 838.154 31.1413C837.713 31.1413 837.363 31.2375 837.105 31.4297C836.849 31.6219 836.677 31.849 836.588 32.1108L834.907 31.8722C835.04 31.4081 835.258 31.0204 835.563 30.7088C835.868 30.3939 836.241 30.1586 836.682 30.0028C837.123 29.8438 837.61 29.7642 838.144 29.7642C838.512 29.7642 838.878 29.8073 839.242 29.8935C839.607 29.9796 839.94 30.1222 840.242 30.321C840.543 30.5166 840.785 30.7834 840.968 31.1214C841.153 31.4595 841.246 31.8821 841.246 32.3892V37.5H839.516V36.451H839.456C839.347 36.6631 839.193 36.862 838.994 37.0476C838.798 37.2299 838.551 37.3774 838.253 37.4901C837.958 37.5994 837.612 37.6541 837.214 37.6541ZM837.681 36.3317C838.043 36.3317 838.356 36.2604 838.621 36.1179C838.886 35.9721 839.09 35.7798 839.232 35.5412C839.378 35.3026 839.451 35.0424 839.451 34.7607V33.8608C839.395 33.9072 839.299 33.9503 839.163 33.9901C839.03 34.0298 838.881 34.0646 838.715 34.0945C838.55 34.1243 838.386 34.1508 838.223 34.174C838.061 34.1972 837.92 34.2171 837.801 34.2337C837.532 34.2701 837.292 34.3298 837.08 34.4126C836.868 34.4955 836.7 34.6115 836.578 34.7607C836.455 34.9065 836.394 35.0954 836.394 35.3274C836.394 35.6589 836.515 35.9091 836.757 36.0781C836.999 36.2472 837.307 36.3317 837.681 36.3317ZM843.056 37.5V29.8636H844.855V37.5H843.056ZM843.96 28.7798C843.675 28.7798 843.43 28.6854 843.225 28.4964C843.019 28.3042 842.916 28.0739 842.916 27.8054C842.916 27.5336 843.019 27.3033 843.225 27.1143C843.43 26.9221 843.675 26.826 843.96 26.826C844.249 26.826 844.494 26.9221 844.696 27.1143C844.902 27.3033 845.004 27.5336 845.004 27.8054C845.004 28.0739 844.902 28.3042 844.696 28.4964C844.494 28.6854 844.249 28.7798 843.96 28.7798ZM846.706 37.5V29.8636H848.451V31.1364H848.531C848.67 30.6955 848.908 30.3558 849.246 30.1172C849.588 29.8752 849.977 29.7543 850.415 29.7543C850.514 29.7543 850.625 29.7592 850.748 29.7692C850.874 29.7758 850.978 29.7874 851.061 29.804V31.4595C850.985 31.433 850.864 31.4098 850.698 31.3899C850.536 31.3667 850.378 31.3551 850.226 31.3551C849.898 31.3551 849.603 31.4264 849.341 31.5689C849.082 31.7081 848.879 31.902 848.729 32.1506C848.58 32.3991 848.506 32.6858 848.506 33.0107V37.5H846.706Z" fill="#690005"/>
<path fill-rule="evenodd" clip-rule="evenodd" d="M867.5 23.75C867.102 23.75 866.721 23.908 866.439 24.1893C866.158 24.4706 866 24.8522 866 25.25V38.75C866 39.1478 866.158 39.5294 866.439 39.8107C866.721 40.092 867.102 40.25 867.5 40.25H873.5C873.898 40.25 874.279 40.092 874.561 39.8107C874.842 39.5294 875 39.1478 875 38.75V35C875 34.8011 875.079 34.6103 875.22 34.4697C875.36 34.329 875.551 34.25 875.75 34.25C875.949 34.25 876.14 34.329 876.28 34.4697C876.421 34.6103 876.5 34.8011 876.5 35V38.75C876.5 39.5456 876.184 40.3087 875.621 40.8713C875.059 41.4339 874.296 41.75 873.5 41.75H867.5C866.704 41.75 865.941 41.4339 865.379 40.8713C864.816 40.3087 864.5 39.5456 864.5 38.75V25.25C864.5 24.4544 864.816 23.6913 865.379 23.1287C865.941 22.5661 866.704 22.25 867.5 22.25H873.5C874.296 22.25 875.059 22.5661 875.621 23.1287C876.184 23.6913 876.5 24.4544 876.5 25.25V29C876.5 29.1989 876.421 29.3897 876.28 29.5303C876.14 29.671 875.949 29.75 875.75 29.75C875.551 29.75 875.36 29.671 875.22 29.5303C875.079 29.3897 875 29.1989 875 29V25.25C875 24.8522 874.842 24.4706 874.561 24.1893C874.279 23.908 873.898 23.75 873.5 23.75H867.5ZM878.22 28.47C878.361 28.3295 878.551 28.2507 878.75 28.2507C878.949 28.2507 879.139 28.3295 879.28 28.47L882.28 31.47C882.42 31.6106 882.499 31.8012 882.499 32C882.499 32.1988 882.42 32.3894 882.28 32.53L879.28 35.53C879.211 35.6037 879.129 35.6628 879.037 35.7038C878.945 35.7448 878.845 35.7668 878.745 35.7686C878.644 35.7704 878.544 35.7518 878.45 35.7141C878.357 35.6764 878.272 35.6203 878.201 35.549C878.13 35.4778 878.074 35.393 878.036 35.2996C877.998 35.2062 877.98 35.1062 877.981 35.0055C877.983 34.9048 878.005 34.8055 878.046 34.7135C878.087 34.6215 878.146 34.5387 878.22 34.47L879.94 32.75H869C868.801 32.75 868.61 32.671 868.47 32.5303C868.329 32.3897 868.25 32.1989 868.25 32C868.25 31.8011 868.329 31.6103 868.47 31.4697C868.61 31.329 868.801 31.25 869 31.25H879.94L878.22 29.53C878.08 29.3894 878.001 29.1988 878.001 29C878.001 28.8012 878.08 28.6106 878.22 28.47Z" fill="#690005"/>
<rect x="36" y="550" width="856" height="33" rx="12" fill="#00363C"/>
<path d="M371.812 572H369.843L373.428 561.818H375.705L379.294 572H377.325L374.606 563.906H374.526L371.812 572ZM371.876 568.008H377.246V569.489H371.876V568.008ZM383.89 564.364V565.756H379.5V564.364H383.89ZM380.584 562.534H382.384V569.703C382.384 569.945 382.42 570.131 382.493 570.26C382.569 570.386 382.669 570.472 382.792 570.518C382.914 570.565 383.05 570.588 383.199 570.588C383.312 570.588 383.415 570.58 383.507 570.563C383.604 570.547 383.676 570.532 383.726 570.518L384.029 571.925C383.933 571.959 383.796 571.995 383.617 572.035C383.441 572.075 383.226 572.098 382.971 572.104C382.52 572.118 382.114 572.05 381.752 571.901C381.391 571.748 381.105 571.513 380.892 571.195C380.684 570.876 380.581 570.479 380.584 570.001V562.534ZM390.263 568.788V564.364H392.062V572H390.317V570.643H390.238C390.065 571.07 389.782 571.42 389.388 571.692C388.997 571.964 388.514 572.099 387.941 572.099C387.44 572.099 386.998 571.988 386.613 571.766C386.232 571.541 385.934 571.214 385.719 570.787C385.503 570.356 385.395 569.836 385.395 569.226V564.364H387.195V568.947C387.195 569.431 387.328 569.816 387.593 570.101C387.858 570.386 388.206 570.528 388.637 570.528C388.902 570.528 389.159 570.464 389.407 570.335C389.656 570.205 389.86 570.013 390.019 569.758C390.181 569.499 390.263 569.176 390.263 568.788ZM396.11 572.154C395.627 572.154 395.191 572.068 394.803 571.896C394.418 571.72 394.114 571.461 393.888 571.12C393.666 570.779 393.555 570.358 393.555 569.857C393.555 569.426 393.635 569.07 393.794 568.788C393.953 568.507 394.17 568.281 394.445 568.112C394.72 567.943 395.03 567.816 395.375 567.729C395.723 567.64 396.082 567.575 396.453 567.536C396.901 567.489 397.264 567.448 397.542 567.411C397.821 567.371 398.023 567.312 398.149 567.232C398.278 567.149 398.343 567.022 398.343 566.849V566.82C398.343 566.445 398.232 566.155 398.01 565.95C397.788 565.744 397.468 565.641 397.05 565.641C396.609 565.641 396.26 565.737 396.001 565.93C395.746 566.122 395.574 566.349 395.484 566.611L393.804 566.372C393.936 565.908 394.155 565.52 394.46 565.209C394.765 564.894 395.138 564.659 395.578 564.503C396.019 564.344 396.507 564.264 397.04 564.264C397.408 564.264 397.774 564.307 398.139 564.393C398.503 564.48 398.837 564.622 399.138 564.821C399.44 565.017 399.682 565.283 399.864 565.621C400.05 565.96 400.142 566.382 400.142 566.889V572H398.412V570.951H398.353C398.243 571.163 398.089 571.362 397.89 571.548C397.695 571.73 397.448 571.877 397.15 571.99C396.855 572.099 396.508 572.154 396.11 572.154ZM396.578 570.832C396.939 570.832 397.252 570.76 397.517 570.618C397.783 570.472 397.986 570.28 398.129 570.041C398.275 569.803 398.348 569.542 398.348 569.261V568.361C398.291 568.407 398.195 568.45 398.059 568.49C397.927 568.53 397.778 568.565 397.612 568.594C397.446 568.624 397.282 568.651 397.12 568.674C396.957 568.697 396.816 568.717 396.697 568.734C396.429 568.77 396.188 568.83 395.976 568.913C395.764 568.996 395.597 569.112 395.474 569.261C395.351 569.406 395.29 569.595 395.29 569.827C395.29 570.159 395.411 570.409 395.653 570.578C395.895 570.747 396.203 570.832 396.578 570.832ZM403.752 561.818V572H401.952V561.818H403.752ZM405.602 572V564.364H407.402V572H405.602ZM406.507 563.28C406.222 563.28 405.977 563.185 405.771 562.996C405.566 562.804 405.463 562.574 405.463 562.305C405.463 562.034 405.566 561.803 405.771 561.614C405.977 561.422 406.222 561.326 406.507 561.326C406.796 561.326 407.041 561.422 407.243 561.614C407.449 561.803 407.551 562.034 407.551 562.305C407.551 562.574 407.449 562.804 407.243 562.996C407.041 563.185 406.796 563.28 406.507 563.28ZM409.153 572V570.857L413.091 565.92V565.855H409.283V564.364H415.293V565.592L411.545 570.444V570.509H415.423V572H409.153ZM419.312 572.154C418.828 572.154 418.392 572.068 418.004 571.896C417.62 571.72 417.315 571.461 417.089 571.12C416.867 570.779 416.756 570.358 416.756 569.857C416.756 569.426 416.836 569.07 416.995 568.788C417.154 568.507 417.371 568.281 417.646 568.112C417.921 567.943 418.231 567.816 418.576 567.729C418.924 567.64 419.283 567.575 419.655 567.536C420.102 567.489 420.465 567.448 420.743 567.411C421.022 567.371 421.224 567.312 421.35 567.232C421.479 567.149 421.544 567.022 421.544 566.849V566.82C421.544 566.445 421.433 566.155 421.211 565.95C420.989 565.744 420.669 565.641 420.251 565.641C419.81 565.641 419.461 565.737 419.202 565.93C418.947 566.122 418.775 566.349 418.685 566.611L417.005 566.372C417.137 565.908 417.356 565.52 417.661 565.209C417.966 564.894 418.339 564.659 418.78 564.503C419.22 564.344 419.708 564.264 420.241 564.264C420.609 564.264 420.975 564.307 421.34 564.393C421.705 564.48 422.038 564.622 422.339 564.821C422.641 565.017 422.883 565.283 423.065 565.621C423.251 565.96 423.344 566.382 423.344 566.889V572H421.613V570.951H421.554C421.444 571.163 421.29 571.362 421.091 571.548C420.896 571.73 420.649 571.877 420.351 571.99C420.056 572.099 419.709 572.154 419.312 572.154ZM419.779 570.832C420.14 570.832 420.453 570.76 420.719 570.618C420.984 570.472 421.188 570.28 421.33 570.041C421.476 569.803 421.549 569.542 421.549 569.261V568.361C421.492 568.407 421.396 568.45 421.26 568.49C421.128 568.53 420.979 568.565 420.813 568.594C420.647 568.624 420.483 568.651 420.321 568.674C420.158 568.697 420.018 568.717 419.898 568.734C419.63 568.77 419.39 568.83 419.177 568.913C418.965 568.996 418.798 569.112 418.675 569.261C418.553 569.406 418.491 569.595 418.491 569.827C418.491 570.159 418.612 570.409 418.854 570.578C419.096 570.747 419.404 570.832 419.779 570.832ZM425.153 572V564.364H426.898V565.636H426.978C427.117 565.196 427.356 564.856 427.694 564.617C428.035 564.375 428.425 564.254 428.862 564.254C428.961 564.254 429.073 564.259 429.195 564.269C429.321 564.276 429.425 564.287 429.508 564.304V565.96C429.432 565.933 429.311 565.91 429.145 565.89C428.983 565.867 428.826 565.855 428.673 565.855C428.345 565.855 428.05 565.926 427.788 566.069C427.53 566.208 427.326 566.402 427.177 566.651C427.028 566.899 426.953 567.186 426.953 567.511V572H425.153ZM434.256 561.818H436.513L439.536 569.196H439.655L442.678 561.818H444.935V572H443.165V565.005H443.071L440.257 571.97H438.934L436.121 564.99H436.026V572H434.256V561.818ZM450.245 572.149C449.479 572.149 448.818 571.99 448.261 571.672C447.708 571.35 447.282 570.896 446.983 570.31C446.685 569.72 446.536 569.025 446.536 568.227C446.536 567.441 446.685 566.752 446.983 566.158C447.285 565.562 447.706 565.098 448.246 564.766C448.787 564.432 449.421 564.264 450.15 564.264C450.621 564.264 451.065 564.34 451.483 564.493C451.904 564.642 452.275 564.874 452.596 565.189C452.921 565.504 453.176 565.905 453.362 566.392C453.548 566.876 453.64 567.453 453.64 568.122V568.674H447.381V567.461H451.915C451.912 567.116 451.837 566.81 451.692 566.541C451.546 566.269 451.342 566.056 451.08 565.9C450.822 565.744 450.52 565.666 450.175 565.666C449.807 565.666 449.484 565.756 449.206 565.935C448.927 566.11 448.71 566.342 448.555 566.631C448.402 566.916 448.324 567.229 448.321 567.57V568.629C448.321 569.073 448.402 569.455 448.564 569.773C448.727 570.088 448.954 570.33 449.246 570.499C449.537 570.664 449.879 570.747 450.27 570.747C450.532 570.747 450.769 570.711 450.981 570.638C451.193 570.562 451.377 570.451 451.532 570.305C451.688 570.159 451.806 569.978 451.885 569.763L453.566 569.952C453.46 570.396 453.258 570.784 452.959 571.115C452.664 571.443 452.287 571.698 451.826 571.881C451.365 572.06 450.838 572.149 450.245 572.149ZM457.997 572.134C457.397 572.134 456.86 571.98 456.386 571.672C455.912 571.364 455.538 570.916 455.262 570.33C454.987 569.743 454.85 569.03 454.85 568.192C454.85 567.343 454.989 566.627 455.267 566.044C455.549 565.457 455.929 565.015 456.406 564.717C456.883 564.415 457.415 564.264 458.002 564.264C458.449 564.264 458.817 564.34 459.105 564.493C459.394 564.642 459.623 564.823 459.792 565.035C459.961 565.244 460.092 565.441 460.184 565.626H460.259V561.818H462.064V572H460.294V570.797H460.184C460.092 570.982 459.957 571.18 459.782 571.388C459.606 571.594 459.374 571.77 459.086 571.915C458.797 572.061 458.434 572.134 457.997 572.134ZM458.499 570.658C458.88 570.658 459.205 570.555 459.473 570.349C459.742 570.141 459.946 569.851 460.085 569.479C460.224 569.108 460.294 568.676 460.294 568.182C460.294 567.688 460.224 567.259 460.085 566.894C459.949 566.53 459.747 566.246 459.478 566.044C459.213 565.842 458.887 565.741 458.499 565.741C458.098 565.741 457.763 565.845 457.495 566.054C457.226 566.263 457.024 566.551 456.888 566.919C456.752 567.287 456.684 567.708 456.684 568.182C456.684 568.659 456.752 569.085 456.888 569.46C457.027 569.831 457.231 570.124 457.5 570.339C457.771 570.552 458.105 570.658 458.499 570.658ZM463.981 572V564.364H465.781V572H463.981ZM464.886 563.28C464.601 563.28 464.356 563.185 464.15 562.996C463.945 562.804 463.842 562.574 463.842 562.305C463.842 562.034 463.945 561.803 464.15 561.614C464.356 561.422 464.601 561.326 464.886 561.326C465.175 561.326 465.42 561.422 465.622 561.614C465.827 561.803 465.93 562.034 465.93 562.305C465.93 562.574 465.827 562.804 465.622 562.996C465.42 563.185 465.175 563.28 464.886 563.28ZM470.963 572.149C470.2 572.149 469.546 571.982 468.999 571.647C468.455 571.312 468.036 570.85 467.741 570.26C467.449 569.667 467.304 568.984 467.304 568.212C467.304 567.436 467.453 566.752 467.751 566.158C468.049 565.562 468.47 565.098 469.014 564.766C469.561 564.432 470.207 564.264 470.953 564.264C471.573 564.264 472.121 564.379 472.598 564.607C473.079 564.833 473.462 565.152 473.747 565.567C474.032 565.978 474.194 566.458 474.234 567.009H472.514C472.444 566.641 472.279 566.334 472.017 566.089C471.758 565.84 471.412 565.716 470.978 565.716C470.61 565.716 470.287 565.815 470.008 566.014C469.73 566.21 469.513 566.491 469.357 566.859C469.204 567.227 469.128 567.668 469.128 568.182C469.128 568.702 469.204 569.15 469.357 569.524C469.509 569.895 469.723 570.182 469.998 570.384C470.277 570.583 470.603 570.683 470.978 570.683C471.243 570.683 471.48 570.633 471.689 570.533C471.901 570.431 472.078 570.283 472.221 570.091C472.363 569.899 472.461 569.665 472.514 569.39H474.234C474.191 569.93 474.032 570.409 473.757 570.827C473.482 571.241 473.107 571.566 472.633 571.801C472.159 572.033 471.602 572.149 470.963 572.149ZM477.909 572.154C477.425 572.154 476.99 572.068 476.602 571.896C476.217 571.72 475.912 571.461 475.687 571.12C475.465 570.779 475.354 570.358 475.354 569.857C475.354 569.426 475.433 569.07 475.593 568.788C475.752 568.507 475.969 568.281 476.244 568.112C476.519 567.943 476.829 567.816 477.173 567.729C477.521 567.64 477.881 567.575 478.252 567.536C478.7 567.489 479.063 567.448 479.341 567.411C479.619 567.371 479.822 567.312 479.948 567.232C480.077 567.149 480.142 567.022 480.142 566.849V566.82C480.142 566.445 480.03 566.155 479.808 565.95C479.586 565.744 479.267 565.641 478.849 565.641C478.408 565.641 478.058 565.737 477.8 565.93C477.545 566.122 477.372 566.349 477.283 566.611L475.602 566.372C475.735 565.908 475.954 565.52 476.259 565.209C476.564 564.894 476.936 564.659 477.377 564.503C477.818 564.344 478.305 564.264 478.839 564.264C479.207 564.264 479.573 564.307 479.938 564.393C480.302 564.48 480.635 564.622 480.937 564.821C481.239 565.017 481.481 565.283 481.663 565.621C481.848 565.96 481.941 566.382 481.941 566.889V572H480.211V570.951H480.151C480.042 571.163 479.888 571.362 479.689 571.548C479.494 571.73 479.247 571.877 478.948 571.99C478.653 572.099 478.307 572.154 477.909 572.154ZM478.377 570.832C478.738 570.832 479.051 570.76 479.316 570.618C479.581 570.472 479.785 570.28 479.928 570.041C480.074 569.803 480.146 569.542 480.146 569.261V568.361C480.09 568.407 479.994 568.45 479.858 568.49C479.726 568.53 479.576 568.565 479.411 568.594C479.245 568.624 479.081 568.651 478.919 568.674C478.756 568.697 478.615 568.717 478.496 568.734C478.227 568.77 477.987 568.83 477.775 568.913C477.563 568.996 477.396 569.112 477.273 569.261C477.15 569.406 477.089 569.595 477.089 569.827C477.089 570.159 477.21 570.409 477.452 570.578C477.694 570.747 478.002 570.832 478.377 570.832ZM483.751 572V564.364H485.471V565.661H485.561C485.72 565.224 485.983 564.882 486.351 564.637C486.719 564.388 487.158 564.264 487.669 564.264C488.186 564.264 488.621 564.39 488.976 564.642C489.334 564.891 489.586 565.23 489.732 565.661H489.811C489.98 565.237 490.265 564.899 490.666 564.647C491.071 564.392 491.55 564.264 492.103 564.264C492.806 564.264 493.379 564.486 493.823 564.93C494.267 565.375 494.49 566.022 494.49 566.874V572H492.685V567.153C492.685 566.679 492.559 566.332 492.307 566.114C492.055 565.892 491.747 565.781 491.382 565.781C490.948 565.781 490.608 565.916 490.363 566.188C490.121 566.457 490 566.806 490 567.237V572H488.235V567.078C488.235 566.684 488.116 566.369 487.877 566.134C487.642 565.898 487.334 565.781 486.953 565.781C486.694 565.781 486.459 565.847 486.247 565.979C486.035 566.109 485.865 566.293 485.74 566.531C485.614 566.767 485.551 567.042 485.551 567.357V572H483.751ZM499.696 572.149C498.93 572.149 498.269 571.99 497.712 571.672C497.159 571.35 496.733 570.896 496.435 570.31C496.136 569.72 495.987 569.025 495.987 568.227C495.987 567.441 496.136 566.752 496.435 566.158C496.736 565.562 497.157 565.098 497.697 564.766C498.238 564.432 498.872 564.264 499.602 564.264C500.072 564.264 500.516 564.34 500.934 564.493C501.355 564.642 501.726 564.874 502.048 565.189C502.372 565.504 502.628 565.905 502.813 566.392C502.999 566.876 503.092 567.453 503.092 568.122V568.674H496.832V567.461H501.366C501.363 567.116 501.289 566.81 501.143 566.541C500.997 566.269 500.793 566.056 500.531 565.9C500.273 565.744 499.971 565.666 499.626 565.666C499.259 565.666 498.935 565.756 498.657 565.935C498.379 566.11 498.161 566.342 498.006 566.631C497.853 566.916 497.775 567.229 497.772 567.57V568.629C497.772 569.073 497.853 569.455 498.016 569.773C498.178 570.088 498.405 570.33 498.697 570.499C498.988 570.664 499.33 570.747 499.721 570.747C499.983 570.747 500.22 570.711 500.432 570.638C500.644 570.562 500.828 570.451 500.984 570.305C501.139 570.159 501.257 569.978 501.337 569.763L503.017 569.952C502.911 570.396 502.709 570.784 502.411 571.115C502.116 571.443 501.738 571.698 501.277 571.881C500.816 572.06 500.289 572.149 499.696 572.149ZM506.414 567.526V572H504.614V564.364H506.334V565.661H506.424C506.599 565.234 506.88 564.894 507.264 564.642C507.652 564.39 508.131 564.264 508.701 564.264C509.228 564.264 509.687 564.377 510.078 564.602C510.472 564.828 510.777 565.154 510.993 565.582C511.211 566.009 511.319 566.528 511.316 567.138V572H509.516V567.416C509.516 566.906 509.384 566.506 509.118 566.218C508.857 565.93 508.494 565.786 508.03 565.786C507.715 565.786 507.435 565.855 507.189 565.994C506.948 566.13 506.757 566.327 506.618 566.586C506.482 566.844 506.414 567.158 506.414 567.526ZM516.959 564.364V565.756H512.569V564.364H516.959ZM513.653 562.534H515.452V569.703C515.452 569.945 515.489 570.131 515.562 570.26C515.638 570.386 515.737 570.472 515.86 570.518C515.983 570.565 516.118 570.588 516.268 570.588C516.38 570.588 516.483 570.58 516.576 570.563C516.672 570.547 516.745 570.532 516.795 570.518L517.098 571.925C517.002 571.959 516.864 571.995 516.685 572.035C516.51 572.075 516.294 572.098 516.039 572.104C515.588 572.118 515.182 572.05 514.821 571.901C514.46 571.748 514.173 571.513 513.961 571.195C513.752 570.876 513.649 570.479 513.653 570.001V562.534ZM521.713 572.149C520.967 572.149 520.321 571.985 519.774 571.657C519.227 571.329 518.803 570.87 518.501 570.28C518.203 569.69 518.054 569 518.054 568.212C518.054 567.423 518.203 566.732 518.501 566.138C518.803 565.545 519.227 565.085 519.774 564.756C520.321 564.428 520.967 564.264 521.713 564.264C522.458 564.264 523.105 564.428 523.652 564.756C524.199 565.085 524.621 565.545 524.919 566.138C525.221 566.732 525.372 567.423 525.372 568.212C525.372 569 525.221 569.69 524.919 570.28C524.621 570.87 524.199 571.329 523.652 571.657C523.105 571.985 522.458 572.149 521.713 572.149ZM521.723 570.707C522.127 570.707 522.465 570.596 522.737 570.374C523.009 570.149 523.211 569.847 523.343 569.469C523.479 569.092 523.547 568.671 523.547 568.207C523.547 567.739 523.479 567.317 523.343 566.939C523.211 566.558 523.009 566.254 522.737 566.029C522.465 565.804 522.127 565.691 521.723 565.691C521.308 565.691 520.964 565.804 520.689 566.029C520.417 566.254 520.213 566.558 520.077 566.939C519.944 567.317 519.878 567.739 519.878 568.207C519.878 568.671 519.944 569.092 520.077 569.469C520.213 569.847 520.417 570.149 520.689 570.374C520.964 570.596 521.308 570.707 521.723 570.707Z" fill="#81D3DE"/>
<path fill-rule="evenodd" clip-rule="evenodd" d="M539.255 564.559C539.595 563.287 540.265 562.127 541.196 561.196C542.126 560.265 543.286 559.595 544.558 559.254C545.829 558.913 547.168 558.913 548.44 559.254C549.712 559.595 550.872 560.264 551.803 561.195L553.706 563.098H550.523C550.324 563.098 550.133 563.177 549.993 563.318C549.852 563.458 549.773 563.649 549.773 563.848C549.773 564.047 549.852 564.238 549.993 564.378C550.133 564.519 550.324 564.598 550.523 564.598H555.515C555.714 564.598 555.905 564.519 556.045 564.378C556.186 564.238 556.265 564.047 556.265 563.848V558.856C556.265 558.657 556.186 558.466 556.045 558.326C555.905 558.185 555.714 558.106 555.515 558.106C555.316 558.106 555.125 558.185 554.985 558.326C554.844 558.466 554.765 558.657 554.765 558.856V562.036L552.865 560.136C551.748 559.018 550.356 558.215 548.83 557.805C547.304 557.396 545.697 557.396 544.171 557.805C542.644 558.214 541.253 559.017 540.135 560.135C539.018 561.252 538.215 562.644 537.806 564.17C537.78 564.265 537.774 564.364 537.787 564.462C537.8 564.56 537.832 564.654 537.881 564.739C537.93 564.825 537.996 564.9 538.074 564.96C538.152 565.02 538.242 565.064 538.337 565.089C538.432 565.114 538.531 565.121 538.629 565.108C538.727 565.095 538.821 565.063 538.906 565.014C538.992 564.965 539.066 564.899 539.126 564.821C539.186 564.742 539.23 564.653 539.256 564.558L539.255 564.559ZM554.663 567.911C554.568 567.885 554.468 567.879 554.371 567.892C554.273 567.904 554.179 567.936 554.094 567.986C554.008 568.035 553.933 568.1 553.873 568.179C553.813 568.257 553.769 568.346 553.744 568.441C553.403 569.713 552.734 570.873 551.803 571.804C550.872 572.735 549.713 573.405 548.441 573.746C547.169 574.087 545.83 574.087 544.558 573.746C543.287 573.405 542.127 572.736 541.196 571.805L539.294 569.902H542.477C542.676 569.902 542.867 569.823 543.007 569.682C543.148 569.542 543.227 569.351 543.227 569.152C543.227 568.953 543.148 568.762 543.007 568.622C542.867 568.481 542.676 568.402 542.477 568.402H537.484C537.285 568.402 537.094 568.481 536.954 568.622C536.813 568.762 536.734 568.953 536.734 569.152V574.144C536.734 574.343 536.813 574.534 536.954 574.674C537.094 574.815 537.285 574.894 537.484 574.894C537.683 574.894 537.874 574.815 538.014 574.674C538.155 574.534 538.234 574.343 538.234 574.144V570.964L540.134 572.864C541.251 573.982 542.643 574.785 544.169 575.194C545.695 575.604 547.302 575.604 548.828 575.195C550.355 574.786 551.746 573.982 552.864 572.865C553.981 571.747 554.784 570.355 555.193 568.829C555.244 568.637 555.217 568.432 555.118 568.26C555.018 568.088 554.855 567.963 554.663 567.911Z" fill="#81D3DE"/>
<path d="M11.8182 172.577V170.733H18.4702C19.1993 170.733 19.8407 170.905 20.3942 171.25C20.9477 171.591 21.3802 172.072 21.6918 172.692C22 173.312 22.1541 174.036 22.1541 174.864C22.1541 175.696 22 176.422 21.6918 177.042C21.3802 177.662 20.9477 178.142 20.3942 178.484C19.8407 178.825 19.1993 178.996 18.4702 178.996H11.8182V177.151H18.3161C18.7403 177.151 19.1181 177.058 19.4496 176.873C19.781 176.684 20.0412 176.419 20.2301 176.077C20.4157 175.736 20.5085 175.332 20.5085 174.864C20.5085 174.397 20.4157 173.993 20.2301 173.651C20.0412 173.307 19.781 173.041 19.4496 172.856C19.1181 172.67 18.7403 172.577 18.3161 172.577H11.8182ZM16.3821 162.772L16.5611 164.413C16.3954 164.459 16.2396 164.54 16.0938 164.656C15.9479 164.769 15.8303 164.922 15.7408 165.114C15.6513 165.306 15.6065 165.541 15.6065 165.82C15.6065 166.194 15.6877 166.509 15.8501 166.764C16.0125 167.016 16.223 167.141 16.4815 167.137C16.7036 167.141 16.8842 167.059 17.0234 166.894C17.1626 166.725 17.277 166.446 17.3665 166.058L17.6449 164.756C17.8007 164.033 18.0476 163.496 18.3857 163.145C18.7237 162.79 19.1662 162.611 19.7131 162.608C20.1937 162.611 20.6179 162.752 20.9858 163.031C21.3504 163.306 21.6354 163.689 21.8409 164.179C22.0464 164.67 22.1491 165.233 22.1491 165.869C22.1491 166.804 21.9536 167.557 21.5625 168.127C21.1681 168.697 20.6196 169.036 19.9169 169.146L19.7479 167.391C20.0926 167.311 20.3527 167.142 20.5284 166.884C20.7041 166.625 20.7919 166.289 20.7919 165.874C20.7919 165.447 20.7041 165.104 20.5284 164.845C20.3527 164.584 20.1357 164.453 19.8771 164.453C19.6584 164.453 19.4777 164.537 19.3352 164.706C19.1927 164.872 19.0833 165.13 19.0071 165.482L18.7337 166.784C18.5812 167.517 18.3243 168.059 17.9631 168.41C17.5985 168.761 17.1378 168.935 16.581 168.932C16.1103 168.935 15.7027 168.808 15.358 168.549C15.0099 168.287 14.7415 167.924 14.5526 167.46C14.3603 166.993 14.2642 166.454 14.2642 165.845C14.2642 164.95 14.4548 164.245 14.8359 163.732C15.2171 163.215 15.7325 162.895 16.3821 162.772ZM18.7884 156.257H14.3636V154.457H22V156.202H20.6428V156.282C21.0703 156.454 21.42 156.738 21.6918 157.132C21.9635 157.523 22.0994 158.005 22.0994 158.579C22.0994 159.079 21.9884 159.522 21.7663 159.906C21.541 160.287 21.2145 160.586 20.7869 160.801C20.3561 161.016 19.8357 161.124 19.2259 161.124H14.3636V159.324H18.9474C19.4313 159.324 19.8158 159.192 20.1009 158.927C20.3859 158.662 20.5284 158.314 20.5284 157.883C20.5284 157.617 20.4638 157.361 20.3345 157.112C20.2053 156.863 20.013 156.66 19.7578 156.501C19.4993 156.338 19.1761 156.257 18.7884 156.257ZM22.1541 150.409C22.1541 150.893 22.0679 151.329 21.8956 151.717C21.7199 152.101 21.4614 152.406 21.12 152.631C20.7786 152.853 20.3577 152.964 19.8572 152.964C19.4264 152.964 19.0701 152.885 18.7884 152.726C18.5066 152.567 18.2812 152.35 18.1122 152.075C17.9432 151.799 17.8156 151.49 17.7294 151.145C17.6399 150.797 17.5753 150.437 17.5355 150.066C17.4891 149.619 17.4477 149.256 17.4112 148.977C17.3714 148.699 17.3118 148.497 17.2322 148.371C17.1494 148.241 17.0218 148.177 16.8494 148.177H16.8196C16.4451 148.177 16.1551 148.288 15.9496 148.51C15.7441 148.732 15.6413 149.052 15.6413 149.469C15.6413 149.91 15.7375 150.26 15.9297 150.518C16.1219 150.774 16.349 150.946 16.6108 151.036L16.3722 152.716C15.9081 152.583 15.5204 152.365 15.2088 152.06C14.8939 151.755 14.6586 151.382 14.5028 150.941C14.3438 150.5 14.2642 150.013 14.2642 149.479C14.2642 149.112 14.3073 148.745 14.3935 148.381C14.4796 148.016 14.6222 147.683 14.821 147.381C15.0166 147.08 15.2834 146.838 15.6214 146.656C15.9595 146.47 16.3821 146.377 16.8892 146.377H22V148.107H20.951V148.167C21.1631 148.276 21.362 148.43 21.5476 148.629C21.7299 148.825 21.8774 149.072 21.9901 149.37C22.0994 149.665 22.1541 150.011 22.1541 150.409ZM20.8317 149.942C20.8317 149.58 20.7604 149.267 20.6179 149.002C20.4721 148.737 20.2798 148.533 20.0412 148.391C19.8026 148.245 19.5424 148.172 19.2607 148.172H18.3608C18.4072 148.228 18.4503 148.324 18.4901 148.46C18.5298 148.593 18.5646 148.742 18.5945 148.908C18.6243 149.073 18.6508 149.237 18.674 149.4C18.6972 149.562 18.7171 149.703 18.7337 149.822C18.7701 150.091 18.8298 150.331 18.9126 150.543C18.9955 150.755 19.1115 150.923 19.2607 151.045C19.4065 151.168 19.5954 151.229 19.8274 151.229C20.1589 151.229 20.4091 151.108 20.5781 150.866C20.7472 150.625 20.8317 150.316 20.8317 149.942ZM13.3594 150.091L11.0874 148.977V147.217L13.3594 148.744V150.091ZM22 144.567H14.3636L14.3636 142.822H15.6364V142.743C15.1955 142.604 14.8558 142.365 14.6172 142.027C14.3752 141.686 14.2543 141.296 14.2543 140.859C14.2543 140.759 14.2592 140.648 14.2692 140.526C14.2758 140.4 14.2874 140.295 14.304 140.212H15.9595C15.933 140.289 15.9098 140.41 15.8899 140.575C15.8667 140.738 15.8551 140.895 15.8551 141.048C15.8551 141.376 15.9264 141.671 16.0689 141.933C16.2081 142.191 16.402 142.395 16.6506 142.544C16.8991 142.693 17.1858 142.768 17.5107 142.768H22V144.567ZM22 139.017H14.3636V137.217H22V139.017ZM13.2798 138.112C13.2798 138.397 13.1854 138.642 12.9964 138.848C12.8042 139.053 12.5739 139.156 12.3054 139.156C12.0336 139.156 11.8033 139.053 11.6143 138.848C11.4221 138.642 11.326 138.397 11.326 138.112C11.326 137.824 11.4221 137.578 11.6143 137.376C11.8033 137.171 12.0336 137.068 12.3054 137.068C12.5739 137.068 12.8042 137.171 12.9964 137.376C13.1854 137.578 13.2798 137.824 13.2798 138.112ZM22.1491 132.035C22.1491 132.781 21.9851 133.427 21.657 133.974C21.3288 134.521 20.8698 134.945 20.2798 135.247C19.6899 135.545 19.0005 135.694 18.2116 135.694C17.4228 135.694 16.7318 135.545 16.1385 135.247C15.5452 134.945 15.0845 134.521 14.7564 133.974C14.4283 133.427 14.2642 132.781 14.2642 132.035C14.2642 131.29 14.4283 130.643 14.7564 130.096C15.0845 129.55 15.5452 129.127 16.1385 128.829C16.7318 128.527 17.4228 128.376 18.2116 128.376C19.0005 128.376 19.6899 128.527 20.2798 128.829C20.8698 129.127 21.3288 129.55 21.657 130.096C21.9851 130.643 22.1491 131.29 22.1491 132.035ZM20.7074 132.025C20.7074 131.621 20.5964 131.283 20.3743 131.011C20.1489 130.739 19.8473 130.537 19.4695 130.405C19.0916 130.269 18.6707 130.201 18.2067 130.201C17.7393 130.201 17.3168 130.269 16.9389 130.405C16.5578 130.537 16.2545 130.739 16.0291 131.011C15.8037 131.283 15.6911 131.621 15.6911 132.025C15.6911 132.44 15.8037 132.784 16.0291 133.059C16.2545 133.331 16.5578 133.535 16.9389 133.671C17.3168 133.804 17.7393 133.87 18.2067 133.87C18.6707 133.87 19.0916 133.804 19.4695 133.671C19.8473 133.535 20.1489 133.331 20.3743 133.059C20.5964 132.784 20.7074 132.44 20.7074 132.025ZM16.3821 120.813L16.5611 122.454C16.3954 122.5 16.2396 122.581 16.0938 122.697C15.9479 122.81 15.8303 122.963 15.7408 123.155C15.6513 123.347 15.6065 123.582 15.6065 123.861C15.6065 124.235 15.6877 124.55 15.8501 124.805C16.0125 125.057 16.223 125.182 16.4815 125.178C16.7036 125.182 16.8842 125.1 17.0234 124.935C17.1626 124.766 17.277 124.487 17.3665 124.099L17.6449 122.797C17.8007 122.074 18.0476 121.537 18.3857 121.186C18.7237 120.831 19.1662 120.652 19.7131 120.649C20.1937 120.652 20.6179 120.793 20.9858 121.072C21.3504 121.347 21.6354 121.73 21.8409 122.22C22.0464 122.711 22.1491 123.274 22.1491 123.911C22.1491 124.845 21.9536 125.598 21.5625 126.168C21.1681 126.738 20.6196 127.077 19.9169 127.187L19.7479 125.432C20.0926 125.352 20.3527 125.183 20.5284 124.925C20.7041 124.666 20.7919 124.33 20.7919 123.915C20.7919 123.488 20.7041 123.145 20.5284 122.886C20.3527 122.625 20.1357 122.494 19.8771 122.494C19.6584 122.494 19.4777 122.578 19.3352 122.747C19.1927 122.913 19.0833 123.171 19.0071 123.523L18.7337 124.825C18.5812 125.558 18.3243 126.1 17.9631 126.451C17.5985 126.802 17.1378 126.976 16.581 126.973C16.1103 126.976 15.7027 126.849 15.358 126.59C15.0099 126.328 14.7415 125.965 14.5526 125.501C14.3603 125.034 14.2642 124.496 14.2642 123.886C14.2642 122.991 14.4548 122.286 14.8359 121.773C15.2171 121.256 15.7325 120.936 16.3821 120.813Z" fill="black"/>
<path d="M15.2536 446.281V448.14C14.9486 448.193 14.6785 448.291 14.4432 448.433C14.2045 448.576 14.0024 448.753 13.8366 448.965C13.6709 449.177 13.5466 449.419 13.4638 449.691C13.3776 449.96 13.3345 450.25 13.3345 450.561C13.3345 451.115 13.4737 451.605 13.7521 452.033C14.0272 452.46 14.4316 452.795 14.9652 453.037C15.4955 453.279 16.1435 453.4 16.9091 453.4C17.688 453.4 18.3442 453.279 18.8778 453.037C19.4081 452.792 19.8092 452.457 20.081 452.033C20.3494 451.605 20.4837 451.116 20.4837 450.566C20.4837 450.261 20.4439 449.976 20.3643 449.711C20.2815 449.442 20.1605 449.202 20.0014 448.99C19.8423 448.775 19.6468 448.594 19.4148 448.448C19.1828 448.299 18.9176 448.196 18.6193 448.14L18.6293 446.281C19.1132 446.35 19.5672 446.501 19.9915 446.733C20.4157 446.962 20.7902 447.262 21.1151 447.633C21.4366 448.004 21.6884 448.438 21.8707 448.935C22.0497 449.433 22.1392 449.984 22.1392 450.591C22.1392 451.486 21.9321 452.285 21.5178 452.987C21.1035 453.69 20.5052 454.243 19.723 454.648C18.9408 455.052 18.0028 455.254 16.9091 455.254C15.812 455.254 14.8741 455.05 14.0952 454.643C13.313 454.235 12.7147 453.68 12.3004 452.977C11.8861 452.275 11.679 451.479 11.679 450.591C11.679 450.024 11.7585 449.497 11.9176 449.01C12.0767 448.523 12.3104 448.089 12.6186 447.707C12.9235 447.326 13.2981 447.013 13.7422 446.768C14.183 446.519 14.6868 446.357 15.2536 446.281ZM22.1541 442.474C22.1541 442.957 22.0679 443.393 21.8956 443.781C21.7199 444.166 21.4614 444.47 21.12 444.696C20.7786 444.918 20.3577 445.029 19.8572 445.029C19.4264 445.029 19.0701 444.949 18.7884 444.79C18.5066 444.631 18.2812 444.414 18.1122 444.139C17.9432 443.864 17.8156 443.554 17.7294 443.209C17.6399 442.861 17.5753 442.502 17.5355 442.131C17.4891 441.683 17.4477 441.32 17.4112 441.042C17.3714 440.763 17.3118 440.561 17.2322 440.435C17.1494 440.306 17.0218 440.241 16.8494 440.241H16.8196C16.4451 440.241 16.1551 440.352 15.9496 440.574C15.7441 440.796 15.6413 441.116 15.6413 441.534C15.6413 441.975 15.7375 442.324 15.9297 442.583C16.1219 442.838 16.349 443.01 16.6108 443.1L16.3722 444.78C15.9081 444.648 15.5204 444.429 15.2088 444.124C14.8939 443.819 14.6586 443.446 14.5028 443.006C14.3438 442.565 14.2642 442.077 14.2642 441.544C14.2642 441.176 14.3073 440.81 14.3935 440.445C14.4796 440.081 14.6222 439.747 14.821 439.446C15.0166 439.144 15.2834 438.902 15.6214 438.72C15.9595 438.534 16.3821 438.442 16.8892 438.442H22V440.172H20.951V440.231C21.1631 440.341 21.362 440.495 21.5476 440.694C21.7299 440.889 21.8774 441.136 21.9901 441.434C22.0994 441.729 22.1541 442.076 22.1541 442.474ZM20.8317 442.006C20.8317 441.645 20.7604 441.332 20.6179 441.067C20.4721 440.801 20.2798 440.598 20.0412 440.455C19.8026 440.309 19.5424 440.236 19.2607 440.236H18.3608C18.4072 440.293 18.4503 440.389 18.4901 440.525C18.5298 440.657 18.5646 440.806 18.5945 440.972C18.6243 441.138 18.6508 441.302 18.674 441.464C18.6972 441.627 18.7171 441.768 18.7337 441.887C18.7701 442.155 18.8298 442.396 18.9126 442.608C18.9955 442.82 19.1115 442.987 19.2607 443.11C19.4065 443.233 19.5954 443.294 19.8274 443.294C20.1589 443.294 20.4091 443.173 20.5781 442.931C20.7472 442.689 20.8317 442.381 20.8317 442.006ZM14.3636 432.819H15.7557L15.7557 437.209H14.3636L14.3636 432.819ZM12.5341 436.125V434.325H19.7031C19.9451 434.325 20.1307 434.289 20.2599 434.216C20.3859 434.14 20.4721 434.04 20.5185 433.917C20.5649 433.795 20.5881 433.659 20.5881 433.51C20.5881 433.397 20.5798 433.294 20.5632 433.202C20.5466 433.105 20.5317 433.032 20.5185 432.983L21.9254 432.68C21.9586 432.776 21.995 432.913 22.0348 433.092C22.0746 433.268 22.0978 433.483 22.1044 433.738C22.1177 434.189 22.0497 434.595 21.9006 434.956C21.7481 435.318 21.5128 435.604 21.1946 435.817C20.8764 436.025 20.4787 436.128 20.0014 436.125H12.5341ZM22.1541 429.116C22.1541 429.6 22.0679 430.036 21.8956 430.424C21.7199 430.808 21.4614 431.113 21.12 431.338C20.7786 431.56 20.3577 431.672 19.8572 431.672C19.4264 431.672 19.0701 431.592 18.7884 431.433C18.5066 431.274 18.2812 431.057 18.1122 430.782C17.9432 430.507 17.8156 430.197 17.7294 429.852C17.6399 429.504 17.5753 429.144 17.5355 428.773C17.4891 428.326 17.4477 427.963 17.4112 427.684C17.3714 427.406 17.3118 427.204 17.2322 427.078C17.1494 426.949 17.0218 426.884 16.8494 426.884H16.8196C16.4451 426.884 16.1551 426.995 15.9496 427.217C15.7441 427.439 15.6413 427.759 15.6413 428.176C15.6413 428.617 15.7375 428.967 15.9297 429.225C16.1219 429.481 16.349 429.653 16.6108 429.743L16.3722 431.423C15.9081 431.29 15.5204 431.072 15.2088 430.767C14.8939 430.462 14.6586 430.089 14.5028 429.648C14.3438 429.207 14.2642 428.72 14.2642 428.186C14.2642 427.819 14.3073 427.452 14.3935 427.088C14.4796 426.723 14.6222 426.39 14.821 426.088C15.0166 425.787 15.2834 425.545 15.6214 425.363C15.9595 425.177 16.3821 425.084 16.8892 425.084H22V426.814H20.951V426.874C21.1631 426.983 21.362 427.137 21.5476 427.336C21.7299 427.532 21.8774 427.779 21.9901 428.077C22.0994 428.372 22.1541 428.718 22.1541 429.116ZM20.8317 428.649C20.8317 428.288 20.7604 427.974 20.6179 427.709C20.4721 427.444 20.2798 427.24 20.0412 427.098C19.8026 426.952 19.5424 426.879 19.2607 426.879H18.3608C18.4072 426.935 18.4503 427.031 18.4901 427.167C18.5298 427.3 18.5646 427.449 18.5945 427.615C18.6243 427.78 18.6508 427.944 18.674 428.107C18.6972 428.269 18.7171 428.41 18.7337 428.529C18.7701 428.798 18.8298 429.038 18.9126 429.25C18.9955 429.462 19.1115 429.63 19.2607 429.752C19.4065 429.875 19.5954 429.936 19.8274 429.936C20.1589 429.936 20.4091 429.815 20.5781 429.574C20.7472 429.332 20.8317 429.023 20.8317 428.649ZM13.3594 428.798L11.0874 427.684V425.924L13.3594 427.451V428.798ZM11.8182 421.475H22V423.275H11.8182V421.475ZM22.1491 416.293C22.1491 417.039 21.9851 417.685 21.657 418.232C21.3288 418.779 20.8698 419.203 20.2798 419.505C19.6899 419.803 19.0005 419.952 18.2116 419.952C17.4228 419.952 16.7318 419.803 16.1385 419.505C15.5452 419.203 15.0845 418.779 14.7564 418.232C14.4283 417.685 14.2642 417.039 14.2642 416.293C14.2642 415.547 14.4283 414.901 14.7564 414.354C15.0845 413.807 15.5452 413.385 16.1385 413.086C16.7318 412.785 17.4228 412.634 18.2116 412.634C19.0005 412.634 19.6899 412.785 20.2798 413.086C20.8698 413.385 21.3288 413.807 21.657 414.354C21.9851 414.901 22.1491 415.547 22.1491 416.293ZM20.7074 416.283C20.7074 415.879 20.5964 415.541 20.3743 415.269C20.1489 414.997 19.8473 414.795 19.4695 414.662C19.0916 414.527 18.6707 414.459 18.2067 414.459C17.7393 414.459 17.3168 414.527 16.9389 414.662C16.5578 414.795 16.2545 414.997 16.0291 415.269C15.8037 415.541 15.6911 415.879 15.6911 416.283C15.6911 416.698 15.8037 417.042 16.0291 417.317C16.2545 417.589 16.5578 417.793 16.9389 417.929C17.3168 418.061 17.7393 418.128 18.2067 418.128C18.6707 418.128 19.0916 418.061 19.4695 417.929C19.8473 417.793 20.1489 417.589 20.3743 417.317C20.5964 417.042 20.7074 416.698 20.7074 416.283ZM25.0227 407.786C25.0227 408.432 24.9349 408.987 24.7592 409.451C24.5869 409.915 24.3549 410.288 24.0632 410.57C23.7715 410.851 23.4484 411.047 23.0938 411.156L22.701 409.536C22.8501 409.463 22.9976 409.357 23.1435 409.217C23.2926 409.078 23.4152 408.891 23.5114 408.656C23.6108 408.417 23.6605 408.117 23.6605 407.756C23.6605 407.245 23.5362 406.823 23.2876 406.488C23.0424 406.153 22.638 405.986 22.0746 405.986H20.6278V406.075C20.8134 406.168 21.004 406.304 21.1996 406.483C21.3951 406.659 21.5592 406.892 21.6918 407.184C21.8243 407.472 21.8906 407.835 21.8906 408.273C21.8906 408.859 21.7531 409.391 21.478 409.869C21.1996 410.343 20.7853 410.72 20.2351 411.002C19.6816 411.281 18.9889 411.42 18.157 411.42C17.3184 411.42 16.6108 411.281 16.0341 411.002C15.4541 410.72 15.0149 410.341 14.7166 409.864C14.415 409.386 14.2642 408.854 14.2642 408.268C14.2642 407.82 14.3404 407.452 14.4929 407.164C14.642 406.872 14.8227 406.64 15.0348 406.468C15.2436 406.296 15.4408 406.165 15.6264 406.075V405.976H14.3636V404.201H22.1243C22.7772 404.201 23.3175 404.357 23.745 404.668C24.1726 404.98 24.4924 405.406 24.7045 405.946C24.9167 406.486 25.0227 407.099 25.0227 407.786ZM20.4787 407.771C20.4787 407.389 20.3859 407.065 20.2003 406.796C20.0147 406.528 19.7479 406.324 19.3999 406.185C19.0518 406.045 18.6342 405.976 18.147 405.976C17.6664 405.976 17.2455 406.045 16.8842 406.185C16.523 406.321 16.2429 406.523 16.044 406.791C15.8419 407.056 15.7408 407.383 15.7408 407.771C15.7408 408.172 15.8452 408.506 16.054 408.775C16.2628 409.043 16.5495 409.246 16.9141 409.381C17.2753 409.517 17.6863 409.585 18.147 409.585C18.6143 409.585 19.0237 409.517 19.375 409.381C19.723 409.242 19.9948 409.038 20.1903 408.77C20.3826 408.498 20.4787 408.165 20.4787 407.771ZM22.1491 399.026C22.1491 399.771 21.9851 400.418 21.657 400.964C21.3288 401.511 20.8698 401.936 20.2798 402.237C19.6899 402.536 19.0005 402.685 18.2116 402.685C17.4228 402.685 16.7318 402.536 16.1385 402.237C15.5452 401.936 15.0845 401.511 14.7564 400.964C14.4283 400.418 14.2642 399.771 14.2642 399.026C14.2642 398.28 14.4283 397.634 14.7564 397.087C15.0845 396.54 15.5452 396.117 16.1385 395.819C16.7318 395.517 17.4228 395.366 18.2116 395.366C19.0005 395.366 19.6899 395.517 20.2798 395.819C20.8698 396.117 21.3288 396.54 21.657 397.087C21.9851 397.634 22.1491 398.28 22.1491 399.026ZM20.7074 399.016C20.7074 398.611 20.5964 398.273 20.3743 398.001C20.1489 397.73 19.8473 397.527 19.4695 397.395C19.0916 397.259 18.6707 397.191 18.2067 397.191C17.7393 397.191 17.3168 397.259 16.9389 397.395C16.5578 397.527 16.2545 397.73 16.0291 398.001C15.8037 398.273 15.6911 398.611 15.6911 399.016C15.6911 399.43 15.8037 399.775 16.0291 400.05C16.2545 400.321 16.5578 400.525 16.9389 400.661C17.3168 400.794 17.7393 400.86 18.2067 400.86C18.6707 400.86 19.0916 400.794 19.4695 400.661C19.8473 400.525 20.1489 400.321 20.3743 400.05C20.5964 399.775 20.7074 399.43 20.7074 399.016Z" fill="black"/>
<path d="M36 305.5C35.7239 305.5 35.5 305.724 35.5 306C35.5 306.276 35.7239 306.5 36 306.5L36 305.5ZM36 306L36 306.5L892 306.501L892 306.001L892 305.501L36 305.5L36 306Z" fill="black" fill-opacity="0.3"/>
<defs>
<linearGradient id="paint0_linear_76_155" x1="8" y1="8" x2="56.5" y2="56" gradientUnits="userSpaceOnUse">
<stop stop-color="#00363C"/>
<stop offset="1" stop-color="#B1CBCF"/>
</linearGradient>
</defs>
</svg>
