<svg width="500" height="400" viewBox="0 0 500 400" fill="none" xmlns="http://www.w3.org/2000/svg">
<g clip-path="url(#clip0_85_21)">
<rect width="500" height="400" fill="white"/>
<path d="M29.568 20.76L21.216 43H16.992L8.608 20.76H12.512L19.104 39.256L25.728 20.76H29.568ZM34.4748 23.032C33.8134 23.032 33.2588 22.808 32.8108 22.36C32.3628 21.912 32.1388 21.3573 32.1388 20.696C32.1388 20.0347 32.3628 19.48 32.8108 19.032C33.2588 18.584 33.8134 18.36 34.4748 18.36C35.1148 18.36 35.6588 18.584 36.1068 19.032C36.5548 19.48 36.7788 20.0347 36.7788 20.696C36.7788 21.3573 36.5548 21.912 36.1068 22.36C35.6588 22.808 35.1148 23.032 34.4748 23.032ZM36.2668 25.368V43H32.6188V25.368H36.2668ZM39.8403 34.104C39.8403 32.3333 40.2029 30.7653 40.9283 29.4C41.6749 28.0347 42.6776 26.9787 43.9363 26.232C45.2163 25.464 46.6349 25.08 48.1923 25.08C49.3443 25.08 50.4749 25.336 51.5843 25.848C52.7149 26.3387 53.6109 27 54.2723 27.832V19.32H57.9523V43H54.2723V40.344C53.6749 41.1973 52.8429 41.9013 51.7763 42.456C50.7309 43.0107 49.5256 43.288 48.1603 43.288C46.6243 43.288 45.2163 42.904 43.9363 42.136C42.6776 41.3467 41.6749 40.2587 40.9283 38.872C40.2029 37.464 39.8403 35.8747 39.8403 34.104ZM54.2723 34.168C54.2723 32.952 54.0163 31.896 53.5043 31C53.0136 30.104 52.3629 29.4213 51.5523 28.952C50.7416 28.4827 49.8669 28.248 48.9283 28.248C47.9896 28.248 47.1149 28.4827 46.3043 28.952C45.4936 29.4 44.8323 30.072 44.3203 30.968C43.8296 31.8427 43.5843 32.888 43.5843 34.104C43.5843 35.32 43.8296 36.3867 44.3203 37.304C44.8323 38.2213 45.4936 38.9253 46.3043 39.416C47.1363 39.8853 48.0109 40.12 48.9283 40.12C49.8669 40.12 50.7416 39.8853 51.5523 39.416C52.3629 38.9467 53.0136 38.264 53.5043 37.368C54.0163 36.4507 54.2723 35.384 54.2723 34.168ZM61.5278 34.104C61.5278 32.3333 61.8904 30.7653 62.6158 29.4C63.3624 28.0347 64.3651 26.9787 65.6238 26.232C66.9038 25.464 68.3118 25.08 69.8478 25.08C71.2344 25.08 72.4398 25.3573 73.4638 25.912C74.5091 26.4453 75.3411 27.1173 75.9598 27.928V25.368H79.6398V43H75.9598V40.376C75.3411 41.208 74.4984 41.9013 73.4318 42.456C72.3651 43.0107 71.1491 43.288 69.7838 43.288C68.2691 43.288 66.8824 42.904 65.6238 42.136C64.3651 41.3467 63.3624 40.2587 62.6158 38.872C61.8904 37.464 61.5278 35.8747 61.5278 34.104ZM75.9598 34.168C75.9598 32.952 75.7038 31.896 75.1918 31C74.7011 30.104 74.0504 29.4213 73.2398 28.952C72.4291 28.4827 71.5544 28.248 70.6158 28.248C69.6771 28.248 68.8024 28.4827 67.9918 28.952C67.1811 29.4 66.5198 30.072 66.0078 30.968C65.5171 31.8427 65.2718 32.888 65.2718 34.104C65.2718 35.32 65.5171 36.3867 66.0078 37.304C66.5198 38.2213 67.1811 38.9253 67.9918 39.416C68.8238 39.8853 69.6984 40.12 70.6158 40.12C71.5544 40.12 72.4291 39.8853 73.2398 39.416C74.0504 38.9467 74.7011 38.264 75.1918 37.368C75.7038 36.4507 75.9598 35.384 75.9598 34.168ZM101.615 32.984H95.1513V39.608H91.7593V32.984H85.2953V29.912H91.7593V23.288H95.1513V29.912H101.615V32.984Z" fill="url(#paint0_linear_85_21)"/>
<path d="M10.8182 59.3636V71H9.40909V59.3636H10.8182ZM17.2344 71H13.6435V59.3636H17.3935C18.5223 59.3636 19.4882 59.5966 20.2912 60.0625C21.0942 60.5246 21.7098 61.1894 22.1378 62.0568C22.5658 62.9205 22.7798 63.9545 22.7798 65.1591C22.7798 66.3712 22.5639 67.4148 22.1321 68.2898C21.7003 69.161 21.0715 69.8314 20.2457 70.3011C19.42 70.767 18.4162 71 17.2344 71ZM15.0526 69.75H17.1435C18.1056 69.75 18.9029 69.5644 19.5355 69.1932C20.1681 68.822 20.6397 68.2936 20.9503 67.608C21.2609 66.9223 21.4162 66.1061 21.4162 65.1591C21.4162 64.2197 21.2628 63.411 20.956 62.733C20.6491 62.0511 20.1908 61.5284 19.581 61.1648C18.9711 60.7973 18.2116 60.6136 17.3026 60.6136H15.0526V69.75Z" fill="#495057"/>
<rect x="8.25" y="83.25" width="232" height="34.5" rx="7.75" stroke="#495057" stroke-opacity="0.5" stroke-width="0.5"/>
<path d="M270.136 59.3636V71H268.773L262.432 61.8636H262.318V71H260.909V59.3636H262.273L268.636 68.5227H268.75V59.3636H270.136ZM276.32 71.1818C275.532 71.1818 274.84 70.9943 274.246 70.6193C273.655 70.2443 273.193 69.7197 272.859 69.0455C272.53 68.3712 272.365 67.5833 272.365 66.6818C272.365 65.7727 272.53 64.9792 272.859 64.3011C273.193 63.6231 273.655 63.0966 274.246 62.7216C274.84 62.3466 275.532 62.1591 276.32 62.1591C277.107 62.1591 277.797 62.3466 278.388 62.7216C278.982 63.0966 279.445 63.6231 279.774 64.3011C280.107 64.9792 280.274 65.7727 280.274 66.6818C280.274 67.5833 280.107 68.3712 279.774 69.0455C279.445 69.7197 278.982 70.2443 278.388 70.6193C277.797 70.9943 277.107 71.1818 276.32 71.1818ZM276.32 69.9773C276.918 69.9773 277.411 69.8239 277.797 69.517C278.183 69.2102 278.469 68.8068 278.655 68.3068C278.84 67.8068 278.933 67.2652 278.933 66.6818C278.933 66.0985 278.84 65.5549 278.655 65.0511C278.469 64.5473 278.183 64.1402 277.797 63.8295C277.411 63.5189 276.918 63.3636 276.32 63.3636C275.721 63.3636 275.229 63.5189 274.842 63.8295C274.456 64.1402 274.17 64.5473 273.984 65.0511C273.799 65.5549 273.706 66.0985 273.706 66.6818C273.706 67.2652 273.799 67.8068 273.984 68.3068C274.17 68.8068 274.456 69.2102 274.842 69.517C275.229 69.8239 275.721 69.9773 276.32 69.9773ZM282.321 71V62.2727H283.616V63.6364H283.73C283.912 63.1705 284.205 62.8087 284.611 62.5511C285.016 62.2898 285.503 62.1591 286.071 62.1591C286.647 62.1591 287.126 62.2898 287.509 62.5511C287.895 62.8087 288.196 63.1705 288.412 63.6364H288.503C288.726 63.1856 289.062 62.8277 289.509 62.5625C289.955 62.2936 290.491 62.1591 291.116 62.1591C291.897 62.1591 292.535 62.4034 293.031 62.892C293.527 63.3769 293.776 64.1326 293.776 65.1591V71H292.435V65.1591C292.435 64.5152 292.259 64.0549 291.906 63.7784C291.554 63.5019 291.139 63.3636 290.662 63.3636C290.048 63.3636 289.573 63.5492 289.236 63.9205C288.899 64.2879 288.73 64.7538 288.73 65.3182V71H287.366V65.0227C287.366 64.5265 287.205 64.1269 286.884 63.8239C286.562 63.517 286.147 63.3636 285.639 63.3636C285.291 63.3636 284.965 63.4564 284.662 63.642C284.363 63.8277 284.12 64.0852 283.935 64.4148C283.753 64.7405 283.662 65.1174 283.662 65.5455V71H282.321ZM299.886 71.1818C299.045 71.1818 298.32 70.9962 297.71 70.625C297.104 70.25 296.636 69.7273 296.307 69.0568C295.981 68.3826 295.818 67.5985 295.818 66.7045C295.818 65.8106 295.981 65.0227 296.307 64.3409C296.636 63.6553 297.095 63.1212 297.682 62.7386C298.273 62.3523 298.962 62.1591 299.75 62.1591C300.205 62.1591 300.653 62.2348 301.097 62.3864C301.54 62.5379 301.943 62.7841 302.307 63.125C302.67 63.4621 302.96 63.9091 303.176 64.4659C303.392 65.0227 303.5 65.7083 303.5 66.5227V67.0909H296.773V65.9318H302.136C302.136 65.4394 302.038 65 301.841 64.6136C301.648 64.2273 301.371 63.9223 301.011 63.6989C300.655 63.4754 300.235 63.3636 299.75 63.3636C299.216 63.3636 298.754 63.4962 298.364 63.7614C297.977 64.0227 297.68 64.3636 297.472 64.7841C297.263 65.2045 297.159 65.6553 297.159 66.1364V66.9091C297.159 67.5682 297.273 68.1269 297.5 68.5852C297.731 69.0398 298.051 69.3864 298.46 69.625C298.869 69.8598 299.345 69.9773 299.886 69.9773C300.239 69.9773 300.557 69.928 300.841 69.8295C301.129 69.7273 301.377 69.5758 301.585 69.375C301.794 69.1705 301.955 68.9167 302.068 68.6136L303.364 68.9773C303.227 69.4167 302.998 69.803 302.676 70.1364C302.354 70.4659 301.956 70.7235 301.483 70.9091C301.009 71.0909 300.477 71.1818 299.886 71.1818Z" fill="#495057"/>
<rect x="259.75" y="83.25" width="232" height="34.5" rx="7.75" stroke="#495057" stroke-opacity="0.5" stroke-width="0.5"/>
<path d="M13.6364 134.364H15.1818L16.4773 136.068L16.8182 136.523L18.75 139.091H17.2045L15.9318 137.386L15.6136 136.955L13.6364 134.364ZM19.2273 132.182C19.2273 133.409 19.0057 134.47 18.5625 135.364C18.1193 136.258 17.5114 136.947 16.7386 137.432C15.9659 137.917 15.0833 138.159 14.0909 138.159C13.0985 138.159 12.2159 137.917 11.4432 137.432C10.6705 136.947 10.0625 136.258 9.61932 135.364C9.17614 134.47 8.95455 133.409 8.95455 132.182C8.95455 130.955 9.17614 129.894 9.61932 129C10.0625 128.106 10.6705 127.417 11.4432 126.932C12.2159 126.447 13.0985 126.205 14.0909 126.205C15.0833 126.205 15.9659 126.447 16.7386 126.932C17.5114 127.417 18.1193 128.106 18.5625 129C19.0057 129.894 19.2273 130.955 19.2273 132.182ZM17.8636 132.182C17.8636 131.174 17.6951 130.324 17.358 129.631C17.0246 128.938 16.572 128.413 16 128.057C15.4318 127.701 14.7955 127.523 14.0909 127.523C13.3864 127.523 12.7481 127.701 12.1761 128.057C11.608 128.413 11.1553 128.938 10.8182 129.631C10.4848 130.324 10.3182 131.174 10.3182 132.182C10.3182 133.189 10.4848 134.04 10.8182 134.733C11.1553 135.426 11.608 135.951 12.1761 136.307C12.7481 136.663 13.3864 136.841 14.0909 136.841C14.7955 136.841 15.4318 136.663 16 136.307C16.572 135.951 17.0246 135.426 17.358 134.733C17.6951 134.04 17.8636 133.189 17.8636 132.182ZM26.9148 134.432V129.273H28.2557V138H26.9148V136.523H26.8239C26.6193 136.966 26.3011 137.343 25.8693 137.653C25.4375 137.96 24.892 138.114 24.233 138.114C23.6875 138.114 23.2027 137.994 22.7784 137.756C22.3542 137.513 22.0208 137.15 21.7784 136.665C21.536 136.176 21.4148 135.561 21.4148 134.818V129.273H22.7557V134.727C22.7557 135.364 22.9337 135.871 23.2898 136.25C23.6496 136.629 24.108 136.818 24.6648 136.818C24.9981 136.818 25.3371 136.733 25.6818 136.562C26.0303 136.392 26.322 136.131 26.5568 135.778C26.7955 135.426 26.9148 134.977 26.9148 134.432ZM33.2798 138.205C32.7268 138.205 32.2249 138.1 31.7741 137.892C31.3234 137.68 30.9654 137.375 30.7003 136.977C30.4351 136.576 30.3026 136.091 30.3026 135.523C30.3026 135.023 30.401 134.617 30.598 134.307C30.795 133.992 31.0582 133.746 31.3878 133.568C31.7173 133.39 32.081 133.258 32.4787 133.17C32.8802 133.08 33.2836 133.008 33.6889 132.955C34.2192 132.886 34.6491 132.835 34.9787 132.801C35.312 132.763 35.5545 132.701 35.706 132.614C35.8613 132.527 35.9389 132.375 35.9389 132.159V132.114C35.9389 131.553 35.7855 131.117 35.4787 130.807C35.1757 130.496 34.7154 130.341 34.098 130.341C33.4579 130.341 32.956 130.481 32.5923 130.761C32.2287 131.042 31.973 131.341 31.8253 131.659L30.5526 131.205C30.7798 130.674 31.0829 130.261 31.4616 129.966C31.8442 129.667 32.2609 129.458 32.7116 129.341C33.1662 129.22 33.6132 129.159 34.0526 129.159C34.3329 129.159 34.6548 129.193 35.0185 129.261C35.3859 129.326 35.7401 129.46 36.081 129.665C36.4257 129.869 36.7116 130.178 36.9389 130.591C37.1662 131.004 37.2798 131.557 37.2798 132.25V138H35.9389V136.818H35.8707C35.7798 137.008 35.6283 137.21 35.4162 137.426C35.2041 137.642 34.9219 137.826 34.5696 137.977C34.2173 138.129 33.7874 138.205 33.2798 138.205ZM33.4844 137C34.0147 137 34.4616 136.896 34.8253 136.688C35.1927 136.479 35.4692 136.21 35.6548 135.881C35.8442 135.551 35.9389 135.205 35.9389 134.841V133.614C35.8821 133.682 35.7571 133.744 35.5639 133.801C35.3745 133.854 35.1548 133.902 34.9048 133.943C34.6586 133.981 34.4181 134.015 34.1832 134.045C33.9522 134.072 33.7647 134.095 33.6207 134.114C33.2723 134.159 32.9465 134.233 32.6435 134.335C32.3442 134.434 32.1018 134.583 31.9162 134.784C31.7344 134.981 31.6435 135.25 31.6435 135.591C31.6435 136.057 31.8158 136.409 32.1605 136.648C32.509 136.883 32.9503 137 33.4844 137ZM41.0682 132.75V138H39.7273V129.273H41.0227V130.636H41.1364C41.3409 130.193 41.6515 129.837 42.0682 129.568C42.4848 129.295 43.0227 129.159 43.6818 129.159C44.2727 129.159 44.7898 129.28 45.233 129.523C45.6761 129.761 46.0208 130.125 46.267 130.614C46.5133 131.098 46.6364 131.712 46.6364 132.455V138H45.2955V132.545C45.2955 131.86 45.1174 131.326 44.7614 130.943C44.4053 130.557 43.9167 130.364 43.2955 130.364C42.8674 130.364 42.4848 130.456 42.1477 130.642C41.8144 130.828 41.5511 131.098 41.358 131.455C41.1648 131.811 41.0682 132.242 41.0682 132.75ZM52.8821 129.273V130.409H48.3594V129.273H52.8821ZM49.6776 127.182H51.0185V135.5C51.0185 135.879 51.0734 136.163 51.1832 136.352C51.2969 136.538 51.4408 136.663 51.6151 136.727C51.7931 136.788 51.9806 136.818 52.1776 136.818C52.3253 136.818 52.4465 136.811 52.5412 136.795C52.6359 136.777 52.7116 136.761 52.7685 136.75L53.0412 137.955C52.9503 137.989 52.8234 138.023 52.6605 138.057C52.4976 138.095 52.2912 138.114 52.0412 138.114C51.6624 138.114 51.2912 138.032 50.9276 137.869C50.5677 137.706 50.2685 137.458 50.0298 137.125C49.795 136.792 49.6776 136.371 49.6776 135.864V127.182ZM54.8991 138V129.273H56.2401V138H54.8991ZM55.581 127.818C55.3196 127.818 55.0942 127.729 54.9048 127.551C54.7192 127.373 54.6264 127.159 54.6264 126.909C54.6264 126.659 54.7192 126.445 54.9048 126.267C55.0942 126.089 55.3196 126 55.581 126C55.8423 126 56.0658 126.089 56.2514 126.267C56.4408 126.445 56.5355 126.659 56.5355 126.909C56.5355 127.159 56.4408 127.373 56.2514 127.551C56.0658 127.729 55.8423 127.818 55.581 127.818ZM61.9915 138.182C61.2642 138.182 60.6222 137.998 60.0653 137.631C59.5085 137.259 59.0729 136.737 58.7585 136.062C58.4441 135.384 58.2869 134.583 58.2869 133.659C58.2869 132.742 58.4441 131.947 58.7585 131.273C59.0729 130.598 59.5104 130.078 60.071 129.71C60.6316 129.343 61.2794 129.159 62.0142 129.159C62.5824 129.159 63.0313 129.254 63.3608 129.443C63.6941 129.629 63.9479 129.841 64.1222 130.08C64.3002 130.314 64.4384 130.508 64.5369 130.659H64.6506V126.364H65.9915V138H64.696V136.659H64.5369C64.4384 136.818 64.2983 137.019 64.1165 137.261C63.9347 137.5 63.6752 137.714 63.3381 137.903C63.0009 138.089 62.5521 138.182 61.9915 138.182ZM62.1733 136.977C62.7112 136.977 63.1657 136.837 63.5369 136.557C63.9081 136.273 64.1903 135.881 64.3835 135.381C64.5767 134.877 64.6733 134.295 64.6733 133.636C64.6733 132.985 64.5786 132.415 64.3892 131.926C64.1998 131.434 63.9195 131.051 63.5483 130.778C63.1771 130.502 62.7188 130.364 62.1733 130.364C61.6051 130.364 61.1316 130.509 60.7528 130.801C60.3778 131.089 60.0956 131.481 59.9062 131.977C59.7206 132.47 59.6278 133.023 59.6278 133.636C59.6278 134.258 59.7225 134.822 59.9119 135.33C60.1051 135.833 60.3892 136.235 60.7642 136.534C61.143 136.83 61.6127 136.977 62.1733 136.977ZM71.2017 138.205C70.6487 138.205 70.1468 138.1 69.696 137.892C69.2453 137.68 68.8873 137.375 68.6222 136.977C68.357 136.576 68.2244 136.091 68.2244 135.523C68.2244 135.023 68.3229 134.617 68.5199 134.307C68.7169 133.992 68.9801 133.746 69.3097 133.568C69.6392 133.39 70.0028 133.258 70.4006 133.17C70.8021 133.08 71.2055 133.008 71.6108 132.955C72.1411 132.886 72.571 132.835 72.9006 132.801C73.2339 132.763 73.4763 132.701 73.6278 132.614C73.7831 132.527 73.8608 132.375 73.8608 132.159V132.114C73.8608 131.553 73.7074 131.117 73.4006 130.807C73.0975 130.496 72.6373 130.341 72.0199 130.341C71.3797 130.341 70.8778 130.481 70.5142 130.761C70.1506 131.042 69.8949 131.341 69.7472 131.659L68.4744 131.205C68.7017 130.674 69.0047 130.261 69.3835 129.966C69.7661 129.667 70.1828 129.458 70.6335 129.341C71.0881 129.22 71.535 129.159 71.9744 129.159C72.2547 129.159 72.5767 129.193 72.9403 129.261C73.3078 129.326 73.6619 129.46 74.0028 129.665C74.3475 129.869 74.6335 130.178 74.8608 130.591C75.0881 131.004 75.2017 131.557 75.2017 132.25V138H73.8608V136.818H73.7926C73.7017 137.008 73.5502 137.21 73.3381 137.426C73.1259 137.642 72.8438 137.826 72.4915 137.977C72.1392 138.129 71.7093 138.205 71.2017 138.205ZM71.4062 137C71.9366 137 72.3835 136.896 72.7472 136.688C73.1146 136.479 73.3911 136.21 73.5767 135.881C73.7661 135.551 73.8608 135.205 73.8608 134.841V133.614C73.804 133.682 73.679 133.744 73.4858 133.801C73.2964 133.854 73.0767 133.902 72.8267 133.943C72.5805 133.981 72.34 134.015 72.1051 134.045C71.8741 134.072 71.6866 134.095 71.5426 134.114C71.1941 134.159 70.8684 134.233 70.5653 134.335C70.2661 134.434 70.0237 134.583 69.8381 134.784C69.6563 134.981 69.5653 135.25 69.5653 135.591C69.5653 136.057 69.7377 136.409 70.0824 136.648C70.4309 136.883 70.8722 137 71.4062 137ZM80.9446 138.182C80.2173 138.182 79.5753 137.998 79.0185 137.631C78.4616 137.259 78.026 136.737 77.7116 136.062C77.3973 135.384 77.2401 134.583 77.2401 133.659C77.2401 132.742 77.3973 131.947 77.7116 131.273C78.026 130.598 78.4635 130.078 79.0241 129.71C79.5848 129.343 80.2325 129.159 80.9673 129.159C81.5355 129.159 81.9844 129.254 82.3139 129.443C82.6473 129.629 82.901 129.841 83.0753 130.08C83.2533 130.314 83.3916 130.508 83.4901 130.659H83.6037V126.364H84.9446V138H83.6491V136.659H83.4901C83.3916 136.818 83.2514 137.019 83.0696 137.261C82.8878 137.5 82.6283 137.714 82.2912 137.903C81.9541 138.089 81.5052 138.182 80.9446 138.182ZM81.1264 136.977C81.6643 136.977 82.1188 136.837 82.4901 136.557C82.8613 136.273 83.1435 135.881 83.3366 135.381C83.5298 134.877 83.6264 134.295 83.6264 133.636C83.6264 132.985 83.5317 132.415 83.3423 131.926C83.1529 131.434 82.8726 131.051 82.5014 130.778C82.1302 130.502 81.6719 130.364 81.1264 130.364C80.5582 130.364 80.0848 130.509 79.706 130.801C79.331 131.089 79.0488 131.481 78.8594 131.977C78.6738 132.47 78.581 133.023 78.581 133.636C78.581 134.258 78.6757 134.822 78.8651 135.33C79.0582 135.833 79.3423 136.235 79.7173 136.534C80.0961 136.83 80.5658 136.977 81.1264 136.977ZM91.2457 138.182C90.4048 138.182 89.6795 137.996 89.0696 137.625C88.4635 137.25 87.9957 136.727 87.6662 136.057C87.3404 135.383 87.1776 134.598 87.1776 133.705C87.1776 132.811 87.3404 132.023 87.6662 131.341C87.9957 130.655 88.4541 130.121 89.0412 129.739C89.6321 129.352 90.3215 129.159 91.1094 129.159C91.5639 129.159 92.0128 129.235 92.456 129.386C92.8991 129.538 93.3026 129.784 93.6662 130.125C94.0298 130.462 94.3196 130.909 94.5355 131.466C94.7514 132.023 94.8594 132.708 94.8594 133.523V134.091H88.1321V132.932H93.4957C93.4957 132.439 93.3973 132 93.2003 131.614C93.0071 131.227 92.7306 130.922 92.3707 130.699C92.0147 130.475 91.5942 130.364 91.1094 130.364C90.5753 130.364 90.1132 130.496 89.723 130.761C89.3366 131.023 89.0393 131.364 88.831 131.784C88.6226 132.205 88.5185 132.655 88.5185 133.136V133.909C88.5185 134.568 88.6321 135.127 88.8594 135.585C89.0904 136.04 89.4105 136.386 89.8196 136.625C90.2287 136.86 90.7041 136.977 91.2457 136.977C91.598 136.977 91.9162 136.928 92.2003 136.83C92.4882 136.727 92.7363 136.576 92.9446 136.375C93.1529 136.17 93.3139 135.917 93.4276 135.614L94.723 135.977C94.5866 136.417 94.3575 136.803 94.0355 137.136C93.7135 137.466 93.3158 137.723 92.8423 137.909C92.3688 138.091 91.8366 138.182 91.2457 138.182Z" fill="#495057"/>
<rect x="8.25" y="150.25" width="231" height="34.5" rx="7.75" stroke="#495057" stroke-opacity="0.5" stroke-width="0.5"/>
<path d="M261.909 138V126.364H265.841C266.754 126.364 267.5 126.528 268.08 126.858C268.663 127.184 269.095 127.625 269.375 128.182C269.655 128.739 269.795 129.36 269.795 130.045C269.795 130.731 269.655 131.354 269.375 131.915C269.098 132.475 268.67 132.922 268.091 133.256C267.511 133.585 266.769 133.75 265.864 133.75H263.045V132.5H265.818C266.443 132.5 266.945 132.392 267.324 132.176C267.703 131.96 267.977 131.669 268.148 131.301C268.322 130.93 268.409 130.511 268.409 130.045C268.409 129.58 268.322 129.163 268.148 128.795C267.977 128.428 267.701 128.14 267.318 127.932C266.936 127.72 266.428 127.614 265.795 127.614H263.318V138H261.909ZM271.884 138V129.273H273.179V130.591H273.27C273.429 130.159 273.717 129.809 274.134 129.54C274.55 129.271 275.02 129.136 275.543 129.136C275.641 129.136 275.764 129.138 275.912 129.142C276.06 129.146 276.171 129.152 276.247 129.159V130.523C276.202 130.511 276.098 130.494 275.935 130.472C275.776 130.445 275.607 130.432 275.429 130.432C275.005 130.432 274.626 130.521 274.293 130.699C273.963 130.873 273.702 131.116 273.509 131.426C273.319 131.733 273.224 132.083 273.224 132.477V138H271.884ZM281.23 138.182C280.389 138.182 279.664 137.996 279.054 137.625C278.448 137.25 277.98 136.727 277.651 136.057C277.325 135.383 277.162 134.598 277.162 133.705C277.162 132.811 277.325 132.023 277.651 131.341C277.98 130.655 278.438 130.121 279.026 129.739C279.616 129.352 280.306 129.159 281.094 129.159C281.548 129.159 281.997 129.235 282.44 129.386C282.884 129.538 283.287 129.784 283.651 130.125C284.014 130.462 284.304 130.909 284.52 131.466C284.736 132.023 284.844 132.708 284.844 133.523V134.091H278.116V132.932H283.48C283.48 132.439 283.382 132 283.185 131.614C282.991 131.227 282.715 130.922 282.355 130.699C281.999 130.475 281.579 130.364 281.094 130.364C280.56 130.364 280.098 130.496 279.707 130.761C279.321 131.023 279.024 131.364 278.815 131.784C278.607 132.205 278.503 132.655 278.503 133.136V133.909C278.503 134.568 278.616 135.127 278.844 135.585C279.075 136.04 279.395 136.386 279.804 136.625C280.213 136.86 280.688 136.977 281.23 136.977C281.582 136.977 281.901 136.928 282.185 136.83C282.473 136.727 282.721 136.576 282.929 136.375C283.137 136.17 283.298 135.917 283.412 135.614L284.707 135.977C284.571 136.417 284.342 136.803 284.02 137.136C283.698 137.466 283.3 137.723 282.827 137.909C282.353 138.091 281.821 138.182 281.23 138.182ZM290.429 138.182C289.611 138.182 288.906 137.989 288.315 137.602C287.724 137.216 287.27 136.684 286.952 136.006C286.634 135.328 286.474 134.553 286.474 133.682C286.474 132.795 286.637 132.013 286.963 131.335C287.293 130.653 287.751 130.121 288.338 129.739C288.929 129.352 289.618 129.159 290.406 129.159C291.02 129.159 291.573 129.273 292.065 129.5C292.558 129.727 292.961 130.045 293.276 130.455C293.59 130.864 293.785 131.341 293.861 131.886H292.52C292.418 131.489 292.19 131.136 291.838 130.83C291.49 130.519 291.02 130.364 290.429 130.364C289.906 130.364 289.448 130.5 289.054 130.773C288.664 131.042 288.359 131.422 288.139 131.915C287.923 132.403 287.815 132.977 287.815 133.636C287.815 134.311 287.921 134.898 288.134 135.398C288.349 135.898 288.652 136.286 289.043 136.562C289.437 136.839 289.899 136.977 290.429 136.977C290.777 136.977 291.094 136.917 291.378 136.795C291.662 136.674 291.902 136.5 292.099 136.273C292.296 136.045 292.437 135.773 292.52 135.455H293.861C293.785 135.97 293.598 136.434 293.298 136.847C293.003 137.256 292.611 137.581 292.122 137.824C291.637 138.062 291.073 138.182 290.429 138.182ZM289.793 137.955H290.906L290.815 138.409C291.111 138.455 291.382 138.578 291.628 138.778C291.874 138.983 291.997 139.307 291.997 139.75C291.997 140.239 291.795 140.636 291.389 140.943C290.988 141.254 290.395 141.409 289.611 141.409L289.565 140.523C289.918 140.523 290.209 140.466 290.44 140.352C290.675 140.242 290.793 140.057 290.793 139.795C290.793 139.534 290.696 139.356 290.503 139.261C290.31 139.167 289.997 139.102 289.565 139.068L289.793 137.955ZM299.366 138.182C298.579 138.182 297.887 137.994 297.293 137.619C296.702 137.244 296.24 136.72 295.906 136.045C295.577 135.371 295.412 134.583 295.412 133.682C295.412 132.773 295.577 131.979 295.906 131.301C296.24 130.623 296.702 130.097 297.293 129.722C297.887 129.347 298.579 129.159 299.366 129.159C300.154 129.159 300.844 129.347 301.435 129.722C302.029 130.097 302.491 130.623 302.821 131.301C303.154 131.979 303.321 132.773 303.321 133.682C303.321 134.583 303.154 135.371 302.821 136.045C302.491 136.72 302.029 137.244 301.435 137.619C300.844 137.994 300.154 138.182 299.366 138.182ZM299.366 136.977C299.965 136.977 300.457 136.824 300.844 136.517C301.23 136.21 301.516 135.807 301.702 135.307C301.887 134.807 301.98 134.265 301.98 133.682C301.98 133.098 301.887 132.555 301.702 132.051C301.516 131.547 301.23 131.14 300.844 130.83C300.457 130.519 299.965 130.364 299.366 130.364C298.768 130.364 298.276 130.519 297.889 130.83C297.503 131.14 297.217 131.547 297.031 132.051C296.846 132.555 296.753 133.098 296.753 133.682C296.753 134.265 296.846 134.807 297.031 135.307C297.217 135.807 297.503 136.21 297.889 136.517C298.276 136.824 298.768 136.977 299.366 136.977Z" fill="#495057"/>
<rect x="260.75" y="150.25" width="231" height="34.5" rx="7.75" stroke="#495057" stroke-opacity="0.5" stroke-width="0.5"/>
<path d="M9.40909 272V260.364H13.3409C14.2538 260.364 15 260.528 15.5795 260.858C16.1629 261.184 16.5947 261.625 16.875 262.182C17.1553 262.739 17.2955 263.36 17.2955 264.045C17.2955 264.731 17.1553 265.354 16.875 265.915C16.5985 266.475 16.1705 266.922 15.5909 267.256C15.0114 267.585 14.2689 267.75 13.3636 267.75H10.5455V266.5H13.3182C13.9432 266.5 14.4451 266.392 14.8239 266.176C15.2027 265.96 15.4773 265.669 15.6477 265.301C15.822 264.93 15.9091 264.511 15.9091 264.045C15.9091 263.58 15.822 263.163 15.6477 262.795C15.4773 262.428 15.2008 262.14 14.8182 261.932C14.4356 261.72 13.928 261.614 13.2955 261.614H10.8182V272H9.40909ZM19.3835 272V263.273H20.679V264.591H20.7699C20.929 264.159 21.2169 263.809 21.6335 263.54C22.0502 263.271 22.5199 263.136 23.0426 263.136C23.1411 263.136 23.2642 263.138 23.4119 263.142C23.5597 263.146 23.6714 263.152 23.7472 263.159V264.523C23.7017 264.511 23.5975 264.494 23.4347 264.472C23.2756 264.445 23.107 264.432 22.929 264.432C22.5047 264.432 22.1259 264.521 21.7926 264.699C21.4631 264.873 21.2017 265.116 21.0085 265.426C20.8191 265.733 20.7244 266.083 20.7244 266.477V272H19.3835ZM28.7301 272.182C27.8892 272.182 27.1638 271.996 26.554 271.625C25.9479 271.25 25.4801 270.727 25.1506 270.057C24.8248 269.383 24.6619 268.598 24.6619 267.705C24.6619 266.811 24.8248 266.023 25.1506 265.341C25.4801 264.655 25.9384 264.121 26.5256 263.739C27.1165 263.352 27.8059 263.159 28.5938 263.159C29.0483 263.159 29.4972 263.235 29.9403 263.386C30.3835 263.538 30.7869 263.784 31.1506 264.125C31.5142 264.462 31.804 264.909 32.0199 265.466C32.2358 266.023 32.3438 266.708 32.3438 267.523V268.091H25.6165V266.932H30.9801C30.9801 266.439 30.8816 266 30.6847 265.614C30.4915 265.227 30.215 264.922 29.8551 264.699C29.4991 264.475 29.0786 264.364 28.5938 264.364C28.0597 264.364 27.5975 264.496 27.2074 264.761C26.821 265.023 26.5237 265.364 26.3153 265.784C26.107 266.205 26.0028 266.655 26.0028 267.136V267.909C26.0028 268.568 26.1165 269.127 26.3438 269.585C26.5748 270.04 26.8949 270.386 27.304 270.625C27.7131 270.86 28.1884 270.977 28.7301 270.977C29.0824 270.977 29.4006 270.928 29.6847 270.83C29.9725 270.727 30.2206 270.576 30.429 270.375C30.6373 270.17 30.7983 269.917 30.9119 269.614L32.2074 269.977C32.071 270.417 31.8419 270.803 31.5199 271.136C31.1979 271.466 30.8002 271.723 30.3267 271.909C29.8532 272.091 29.321 272.182 28.7301 272.182ZM40.5653 265.227L39.3608 265.568C39.285 265.367 39.1733 265.172 39.0256 264.983C38.8816 264.79 38.6847 264.631 38.4347 264.506C38.1847 264.381 37.8646 264.318 37.4744 264.318C36.9403 264.318 36.4953 264.441 36.1392 264.688C35.7869 264.93 35.6108 265.239 35.6108 265.614C35.6108 265.947 35.732 266.21 35.9744 266.403C36.2169 266.597 36.5956 266.758 37.1108 266.886L38.4062 267.205C39.1866 267.394 39.768 267.684 40.1506 268.074C40.5331 268.46 40.7244 268.958 40.7244 269.568C40.7244 270.068 40.5805 270.515 40.2926 270.909C40.0085 271.303 39.6108 271.614 39.0994 271.841C38.5881 272.068 37.9934 272.182 37.3153 272.182C36.4252 272.182 35.6884 271.989 35.1051 271.602C34.5218 271.216 34.1525 270.652 33.9972 269.909L35.2699 269.591C35.3911 270.061 35.6203 270.413 35.9574 270.648C36.2983 270.883 36.7434 271 37.2926 271C37.9176 271 38.4138 270.867 38.7812 270.602C39.1525 270.333 39.3381 270.011 39.3381 269.636C39.3381 269.333 39.232 269.08 39.0199 268.875C38.8078 268.667 38.482 268.511 38.0426 268.409L36.5881 268.068C35.7888 267.879 35.2017 267.585 34.8267 267.188C34.4555 266.786 34.2699 266.284 34.2699 265.682C34.2699 265.189 34.4081 264.754 34.6847 264.375C34.965 263.996 35.3456 263.699 35.8267 263.483C36.3116 263.267 36.8608 263.159 37.4744 263.159C38.3381 263.159 39.0161 263.348 39.5085 263.727C40.0047 264.106 40.357 264.606 40.5653 265.227ZM46.2884 272.182C45.4702 272.182 44.7656 271.989 44.1747 271.602C43.5838 271.216 43.1293 270.684 42.8111 270.006C42.4929 269.328 42.3338 268.553 42.3338 267.682C42.3338 266.795 42.4967 266.013 42.8224 265.335C43.152 264.653 43.6103 264.121 44.1974 263.739C44.7884 263.352 45.4777 263.159 46.2656 263.159C46.8793 263.159 47.4323 263.273 47.9247 263.5C48.4171 263.727 48.8205 264.045 49.1349 264.455C49.4493 264.864 49.6444 265.341 49.7202 265.886H48.3793C48.277 265.489 48.0497 265.136 47.6974 264.83C47.349 264.519 46.8793 264.364 46.2884 264.364C45.7656 264.364 45.3073 264.5 44.9134 264.773C44.5232 265.042 44.2183 265.422 43.9986 265.915C43.7827 266.403 43.6747 266.977 43.6747 267.636C43.6747 268.311 43.7808 268.898 43.9929 269.398C44.2088 269.898 44.5118 270.286 44.902 270.562C45.2959 270.839 45.758 270.977 46.2884 270.977C46.6368 270.977 46.9531 270.917 47.2372 270.795C47.5213 270.674 47.7618 270.5 47.9588 270.273C48.1558 270.045 48.2959 269.773 48.3793 269.455H49.7202C49.6444 269.97 49.4569 270.434 49.1577 270.847C48.8622 271.256 48.4702 271.581 47.9815 271.824C47.4967 272.062 46.9323 272.182 46.2884 272.182ZM51.6804 272V263.273H52.9759V264.591H53.0668C53.2259 264.159 53.5137 263.809 53.9304 263.54C54.3471 263.271 54.8168 263.136 55.3395 263.136C55.438 263.136 55.5611 263.138 55.7088 263.142C55.8565 263.146 55.9683 263.152 56.044 263.159V264.523C55.9986 264.511 55.8944 264.494 55.7315 264.472C55.5724 264.445 55.4039 264.432 55.2259 264.432C54.8016 264.432 54.4228 264.521 54.0895 264.699C53.7599 264.873 53.4986 265.116 53.3054 265.426C53.116 265.733 53.0213 266.083 53.0213 266.477V272H51.6804ZM57.6335 272V263.273H58.9744V272H57.6335ZM58.3153 261.818C58.054 261.818 57.8286 261.729 57.6392 261.551C57.4536 261.373 57.3608 261.159 57.3608 260.909C57.3608 260.659 57.4536 260.445 57.6392 260.267C57.8286 260.089 58.054 260 58.3153 260C58.5767 260 58.8002 260.089 58.9858 260.267C59.1752 260.445 59.2699 260.659 59.2699 260.909C59.2699 261.159 59.1752 261.373 58.9858 261.551C58.8002 261.729 58.5767 261.818 58.3153 261.818ZM64.9759 272.182C64.1577 272.182 63.4531 271.989 62.8622 271.602C62.2713 271.216 61.8168 270.684 61.4986 270.006C61.1804 269.328 61.0213 268.553 61.0213 267.682C61.0213 266.795 61.1842 266.013 61.5099 265.335C61.8395 264.653 62.2978 264.121 62.8849 263.739C63.4759 263.352 64.1652 263.159 64.9531 263.159C65.5668 263.159 66.1198 263.273 66.6122 263.5C67.1046 263.727 67.508 264.045 67.8224 264.455C68.1368 264.864 68.3319 265.341 68.4077 265.886H67.0668C66.9645 265.489 66.7372 265.136 66.3849 264.83C66.0365 264.519 65.5668 264.364 64.9759 264.364C64.4531 264.364 63.9948 264.5 63.6009 264.773C63.2107 265.042 62.9058 265.422 62.6861 265.915C62.4702 266.403 62.3622 266.977 62.3622 267.636C62.3622 268.311 62.4683 268.898 62.6804 269.398C62.8963 269.898 63.1993 270.286 63.5895 270.562C63.9834 270.839 64.4455 270.977 64.9759 270.977C65.3243 270.977 65.6406 270.917 65.9247 270.795C66.2088 270.674 66.4493 270.5 66.6463 270.273C66.8433 270.045 66.9834 269.773 67.0668 269.455H68.4077C68.3319 269.97 68.1444 270.434 67.8452 270.847C67.5497 271.256 67.1577 271.581 66.669 271.824C66.1842 272.062 65.6198 272.182 64.9759 272.182ZM64.3395 271.955H65.4531L65.3622 272.409C65.6577 272.455 65.9285 272.578 66.1747 272.778C66.4209 272.983 66.544 273.307 66.544 273.75C66.544 274.239 66.3414 274.636 65.9361 274.943C65.5346 275.254 64.9418 275.409 64.1577 275.409L64.1122 274.523C64.4645 274.523 64.7562 274.466 64.9872 274.352C65.2221 274.242 65.3395 274.057 65.3395 273.795C65.3395 273.534 65.2429 273.356 65.0497 273.261C64.8565 273.167 64.544 273.102 64.1122 273.068L64.3395 271.955ZM72.9361 272.205C72.383 272.205 71.8812 272.1 71.4304 271.892C70.9796 271.68 70.6217 271.375 70.3565 270.977C70.0914 270.576 69.9588 270.091 69.9588 269.523C69.9588 269.023 70.0573 268.617 70.2543 268.307C70.4512 267.992 70.7145 267.746 71.044 267.568C71.3736 267.39 71.7372 267.258 72.1349 267.17C72.5365 267.08 72.9399 267.008 73.3452 266.955C73.8755 266.886 74.3054 266.835 74.6349 266.801C74.9683 266.763 75.2107 266.701 75.3622 266.614C75.5175 266.527 75.5952 266.375 75.5952 266.159V266.114C75.5952 265.553 75.4418 265.117 75.1349 264.807C74.8319 264.496 74.3717 264.341 73.7543 264.341C73.1141 264.341 72.6122 264.481 72.2486 264.761C71.8849 265.042 71.6293 265.341 71.4815 265.659L70.2088 265.205C70.4361 264.674 70.7391 264.261 71.1179 263.966C71.5005 263.667 71.9171 263.458 72.3679 263.341C72.8224 263.22 73.2694 263.159 73.7088 263.159C73.9891 263.159 74.3111 263.193 74.6747 263.261C75.0421 263.326 75.3963 263.46 75.7372 263.665C76.0819 263.869 76.3679 264.178 76.5952 264.591C76.8224 265.004 76.9361 265.557 76.9361 266.25V272H75.5952V270.818H75.527C75.4361 271.008 75.2846 271.21 75.0724 271.426C74.8603 271.642 74.5781 271.826 74.2259 271.977C73.8736 272.129 73.4437 272.205 72.9361 272.205ZM73.1406 271C73.6709 271 74.1179 270.896 74.4815 270.688C74.849 270.479 75.1255 270.21 75.3111 269.881C75.5005 269.551 75.5952 269.205 75.5952 268.841V267.614C75.5384 267.682 75.4134 267.744 75.2202 267.801C75.0308 267.854 74.8111 267.902 74.5611 267.943C74.3149 267.981 74.0743 268.015 73.8395 268.045C73.6084 268.072 73.4209 268.095 73.277 268.114C72.9285 268.159 72.6027 268.233 72.2997 268.335C72.0005 268.434 71.758 268.583 71.5724 268.784C71.3906 268.981 71.2997 269.25 71.2997 269.591C71.2997 270.057 71.4721 270.409 71.8168 270.648C72.1652 270.883 72.6065 271 73.1406 271ZM72.0497 262.227L71.0043 262.182C71.0043 261.602 71.169 261.129 71.4986 260.761C71.8319 260.39 72.2429 260.205 72.7315 260.205C72.9474 260.205 73.1387 260.242 73.3054 260.318C73.4721 260.39 73.6312 260.473 73.7827 260.568C73.9342 260.663 74.0895 260.748 74.2486 260.824C74.4115 260.896 74.5952 260.932 74.7997 260.932C75.0156 260.932 75.1974 260.848 75.3452 260.682C75.4967 260.511 75.5724 260.307 75.5724 260.068L76.5952 260.159C76.5952 260.75 76.4285 261.22 76.0952 261.568C75.7656 261.917 75.3565 262.091 74.8679 262.091C74.6065 262.091 74.3906 262.055 74.2202 261.983C74.0497 261.907 73.8982 261.822 73.7656 261.727C73.633 261.633 73.4929 261.549 73.3452 261.477C73.1974 261.402 73.0156 261.364 72.7997 261.364C72.5838 261.364 72.4039 261.449 72.2599 261.619C72.1198 261.786 72.0497 261.989 72.0497 262.227ZM82.929 272.182C82.1411 272.182 81.4498 271.994 80.8551 271.619C80.2642 271.244 79.8021 270.72 79.4688 270.045C79.1392 269.371 78.9744 268.583 78.9744 267.682C78.9744 266.773 79.1392 265.979 79.4688 265.301C79.8021 264.623 80.2642 264.097 80.8551 263.722C81.4498 263.347 82.1411 263.159 82.929 263.159C83.7169 263.159 84.4063 263.347 84.9972 263.722C85.5919 264.097 86.054 264.623 86.3835 265.301C86.7169 265.979 86.8835 266.773 86.8835 267.682C86.8835 268.583 86.7169 269.371 86.3835 270.045C86.054 270.72 85.5919 271.244 84.9972 271.619C84.4063 271.994 83.7169 272.182 82.929 272.182ZM82.929 270.977C83.5275 270.977 84.0199 270.824 84.4062 270.517C84.7926 270.21 85.0786 269.807 85.2642 269.307C85.4498 268.807 85.5426 268.265 85.5426 267.682C85.5426 267.098 85.4498 266.555 85.2642 266.051C85.0786 265.547 84.7926 265.14 84.4062 264.83C84.0199 264.519 83.5275 264.364 82.929 264.364C82.3305 264.364 81.8381 264.519 81.4517 264.83C81.0653 265.14 80.7794 265.547 80.5938 266.051C80.4081 266.555 80.3153 267.098 80.3153 267.682C80.3153 268.265 80.4081 268.807 80.5938 269.307C80.7794 269.807 81.0653 270.21 81.4517 270.517C81.8381 270.824 82.3305 270.977 82.929 270.977Z" fill="#495057"/>
<rect x="8.25" y="284.25" width="483.5" height="34.5" rx="7.75" stroke="#495057" stroke-opacity="0.5" stroke-width="0.5"/>
<path d="M9.40909 205V193.364H10.8182V203.75H16.2273V205H9.40909ZM21.7727 205.182C20.9848 205.182 20.2936 204.994 19.6989 204.619C19.108 204.244 18.6458 203.72 18.3125 203.045C17.983 202.371 17.8182 201.583 17.8182 200.682C17.8182 199.773 17.983 198.979 18.3125 198.301C18.6458 197.623 19.108 197.097 19.6989 196.722C20.2936 196.347 20.9848 196.159 21.7727 196.159C22.5606 196.159 23.25 196.347 23.8409 196.722C24.4356 197.097 24.8977 197.623 25.2273 198.301C25.5606 198.979 25.7273 199.773 25.7273 200.682C25.7273 201.583 25.5606 202.371 25.2273 203.045C24.8977 203.72 24.4356 204.244 23.8409 204.619C23.25 204.994 22.5606 205.182 21.7727 205.182ZM21.7727 203.977C22.3712 203.977 22.8636 203.824 23.25 203.517C23.6364 203.21 23.9223 202.807 24.108 202.307C24.2936 201.807 24.3864 201.265 24.3864 200.682C24.3864 200.098 24.2936 199.555 24.108 199.051C23.9223 198.547 23.6364 198.14 23.25 197.83C22.8636 197.519 22.3712 197.364 21.7727 197.364C21.1742 197.364 20.6818 197.519 20.2955 197.83C19.9091 198.14 19.6231 198.547 19.4375 199.051C19.2519 199.555 19.1591 200.098 19.1591 200.682C19.1591 201.265 19.2519 201.807 19.4375 202.307C19.6231 202.807 19.9091 203.21 20.2955 203.517C20.6818 203.824 21.1742 203.977 21.7727 203.977ZM31.5696 196.273V197.409H27.0469V196.273H31.5696ZM28.3651 194.182H29.706V202.5C29.706 202.879 29.7609 203.163 29.8707 203.352C29.9844 203.538 30.1283 203.663 30.3026 203.727C30.4806 203.788 30.6681 203.818 30.8651 203.818C31.0128 203.818 31.134 203.811 31.2287 203.795C31.3234 203.777 31.3991 203.761 31.456 203.75L31.7287 204.955C31.6378 204.989 31.5109 205.023 31.348 205.057C31.1851 205.095 30.9787 205.114 30.7287 205.114C30.3499 205.114 29.9787 205.032 29.6151 204.869C29.2552 204.706 28.956 204.458 28.7173 204.125C28.4825 203.792 28.3651 203.371 28.3651 202.864V194.182ZM37.152 205.182C36.3111 205.182 35.5857 204.996 34.9759 204.625C34.3698 204.25 33.902 203.727 33.5724 203.057C33.2467 202.383 33.0838 201.598 33.0838 200.705C33.0838 199.811 33.2467 199.023 33.5724 198.341C33.902 197.655 34.3603 197.121 34.9474 196.739C35.5384 196.352 36.2277 196.159 37.0156 196.159C37.4702 196.159 37.919 196.235 38.3622 196.386C38.8054 196.538 39.2088 196.784 39.5724 197.125C39.9361 197.462 40.2259 197.909 40.4418 198.466C40.6577 199.023 40.7656 199.708 40.7656 200.523V201.091H34.0384V199.932H39.402C39.402 199.439 39.3035 199 39.1065 198.614C38.9134 198.227 38.6368 197.922 38.277 197.699C37.9209 197.475 37.5005 197.364 37.0156 197.364C36.4815 197.364 36.0194 197.496 35.6293 197.761C35.2429 198.023 34.9455 198.364 34.7372 198.784C34.5289 199.205 34.4247 199.655 34.4247 200.136V200.909C34.4247 201.568 34.5384 202.127 34.7656 202.585C34.9967 203.04 35.3168 203.386 35.7259 203.625C36.1349 203.86 36.6103 203.977 37.152 203.977C37.5043 203.977 37.8224 203.928 38.1065 203.83C38.3944 203.727 38.6425 203.576 38.8509 203.375C39.0592 203.17 39.2202 202.917 39.3338 202.614L40.6293 202.977C40.4929 203.417 40.2637 203.803 39.9418 204.136C39.6198 204.466 39.2221 204.723 38.7486 204.909C38.2751 205.091 37.7429 205.182 37.152 205.182Z" fill="#495057"/>
<rect x="8.25" y="217.25" width="232.5" height="34.5" rx="7.75" stroke="#495057" stroke-opacity="0.5" stroke-width="0.5"/>
<path d="M264 205H260.409V193.364H264.159C265.288 193.364 266.254 193.597 267.057 194.062C267.86 194.525 268.475 195.189 268.903 196.057C269.331 196.92 269.545 197.955 269.545 199.159C269.545 200.371 269.33 201.415 268.898 202.29C268.466 203.161 267.837 203.831 267.011 204.301C266.186 204.767 265.182 205 264 205ZM261.818 203.75H263.909C264.871 203.75 265.669 203.564 266.301 203.193C266.934 202.822 267.405 202.294 267.716 201.608C268.027 200.922 268.182 200.106 268.182 199.159C268.182 198.22 268.028 197.411 267.722 196.733C267.415 196.051 266.956 195.528 266.347 195.165C265.737 194.797 264.977 194.614 264.068 194.614H261.818V203.75ZM274.295 205.205C273.742 205.205 273.241 205.1 272.79 204.892C272.339 204.68 271.981 204.375 271.716 203.977C271.451 203.576 271.318 203.091 271.318 202.523C271.318 202.023 271.417 201.617 271.614 201.307C271.811 200.992 272.074 200.746 272.403 200.568C272.733 200.39 273.097 200.258 273.494 200.17C273.896 200.08 274.299 200.008 274.705 199.955C275.235 199.886 275.665 199.835 275.994 199.801C276.328 199.763 276.57 199.701 276.722 199.614C276.877 199.527 276.955 199.375 276.955 199.159V199.114C276.955 198.553 276.801 198.117 276.494 197.807C276.191 197.496 275.731 197.341 275.114 197.341C274.473 197.341 273.972 197.481 273.608 197.761C273.244 198.042 272.989 198.341 272.841 198.659L271.568 198.205C271.795 197.674 272.098 197.261 272.477 196.966C272.86 196.667 273.277 196.458 273.727 196.341C274.182 196.22 274.629 196.159 275.068 196.159C275.348 196.159 275.67 196.193 276.034 196.261C276.402 196.326 276.756 196.46 277.097 196.665C277.441 196.869 277.727 197.178 277.955 197.591C278.182 198.004 278.295 198.557 278.295 199.25V205H276.955V203.818H276.886C276.795 204.008 276.644 204.21 276.432 204.426C276.22 204.642 275.938 204.826 275.585 204.977C275.233 205.129 274.803 205.205 274.295 205.205ZM274.5 204C275.03 204 275.477 203.896 275.841 203.688C276.208 203.479 276.485 203.21 276.67 202.881C276.86 202.551 276.955 202.205 276.955 201.841V200.614C276.898 200.682 276.773 200.744 276.58 200.801C276.39 200.854 276.17 200.902 275.92 200.943C275.674 200.981 275.434 201.015 275.199 201.045C274.968 201.072 274.78 201.095 274.636 201.114C274.288 201.159 273.962 201.233 273.659 201.335C273.36 201.434 273.117 201.583 272.932 201.784C272.75 201.981 272.659 202.25 272.659 202.591C272.659 203.057 272.831 203.409 273.176 203.648C273.525 203.883 273.966 204 274.5 204ZM284.538 196.273V197.409H280.016V196.273H284.538ZM281.334 194.182H282.675V202.5C282.675 202.879 282.73 203.163 282.839 203.352C282.953 203.538 283.097 203.663 283.271 203.727C283.449 203.788 283.637 203.818 283.834 203.818C283.982 203.818 284.103 203.811 284.197 203.795C284.292 203.777 284.368 203.761 284.425 203.75L284.697 204.955C284.607 204.989 284.48 205.023 284.317 205.057C284.154 205.095 283.947 205.114 283.697 205.114C283.319 205.114 282.947 205.032 282.584 204.869C282.224 204.706 281.925 204.458 281.686 204.125C281.451 203.792 281.334 203.371 281.334 202.864V194.182ZM289.124 205.205C288.571 205.205 288.069 205.1 287.618 204.892C287.167 204.68 286.809 204.375 286.544 203.977C286.279 203.576 286.146 203.091 286.146 202.523C286.146 202.023 286.245 201.617 286.442 201.307C286.639 200.992 286.902 200.746 287.232 200.568C287.561 200.39 287.925 200.258 288.322 200.17C288.724 200.08 289.127 200.008 289.533 199.955C290.063 199.886 290.493 199.835 290.822 199.801C291.156 199.763 291.398 199.701 291.55 199.614C291.705 199.527 291.783 199.375 291.783 199.159V199.114C291.783 198.553 291.629 198.117 291.322 197.807C291.019 197.496 290.559 197.341 289.942 197.341C289.302 197.341 288.8 197.481 288.436 197.761C288.072 198.042 287.817 198.341 287.669 198.659L286.396 198.205C286.624 197.674 286.927 197.261 287.305 196.966C287.688 196.667 288.105 196.458 288.555 196.341C289.01 196.22 289.457 196.159 289.896 196.159C290.177 196.159 290.499 196.193 290.862 196.261C291.23 196.326 291.584 196.46 291.925 196.665C292.269 196.869 292.555 197.178 292.783 197.591C293.01 198.004 293.124 198.557 293.124 199.25V205H291.783V203.818H291.714C291.624 204.008 291.472 204.21 291.26 204.426C291.048 204.642 290.766 204.826 290.413 204.977C290.061 205.129 289.631 205.205 289.124 205.205ZM289.328 204C289.858 204 290.305 203.896 290.669 203.688C291.036 203.479 291.313 203.21 291.499 202.881C291.688 202.551 291.783 202.205 291.783 201.841V200.614C291.726 200.682 291.601 200.744 291.408 200.801C291.218 200.854 290.999 200.902 290.749 200.943C290.502 200.981 290.262 201.015 290.027 201.045C289.796 201.072 289.608 201.095 289.464 201.114C289.116 201.159 288.79 201.233 288.487 201.335C288.188 201.434 287.946 201.583 287.76 201.784C287.578 201.981 287.487 202.25 287.487 202.591C287.487 203.057 287.66 203.409 288.004 203.648C288.353 203.883 288.794 204 289.328 204ZM300.73 193.364L304.185 203.159H304.321L307.776 193.364H309.253L304.98 205H303.526L299.253 193.364H300.73ZM312.639 205.205C312.086 205.205 311.584 205.1 311.134 204.892C310.683 204.68 310.325 204.375 310.06 203.977C309.795 203.576 309.662 203.091 309.662 202.523C309.662 202.023 309.76 201.617 309.957 201.307C310.154 200.992 310.418 200.746 310.747 200.568C311.077 200.39 311.44 200.258 311.838 200.17C312.24 200.08 312.643 200.008 313.048 199.955C313.579 199.886 314.009 199.835 314.338 199.801C314.671 199.763 314.914 199.701 315.065 199.614C315.221 199.527 315.298 199.375 315.298 199.159V199.114C315.298 198.553 315.145 198.117 314.838 197.807C314.535 197.496 314.075 197.341 313.457 197.341C312.817 197.341 312.315 197.481 311.952 197.761C311.588 198.042 311.332 198.341 311.185 198.659L309.912 198.205C310.139 197.674 310.442 197.261 310.821 196.966C311.204 196.667 311.62 196.458 312.071 196.341C312.526 196.22 312.973 196.159 313.412 196.159C313.692 196.159 314.014 196.193 314.378 196.261C314.745 196.326 315.099 196.46 315.44 196.665C315.785 196.869 316.071 197.178 316.298 197.591C316.526 198.004 316.639 198.557 316.639 199.25V205H315.298V203.818H315.23C315.139 204.008 314.988 204.21 314.776 204.426C314.563 204.642 314.281 204.826 313.929 204.977C313.577 205.129 313.147 205.205 312.639 205.205ZM312.844 204C313.374 204 313.821 203.896 314.185 203.688C314.552 203.479 314.829 203.21 315.014 202.881C315.204 202.551 315.298 202.205 315.298 201.841V200.614C315.241 200.682 315.116 200.744 314.923 200.801C314.734 200.854 314.514 200.902 314.264 200.943C314.018 200.981 313.777 201.015 313.543 201.045C313.312 201.072 313.124 201.095 312.98 201.114C312.632 201.159 312.306 201.233 312.003 201.335C311.704 201.434 311.461 201.583 311.276 201.784C311.094 201.981 311.003 202.25 311.003 202.591C311.003 203.057 311.175 203.409 311.52 203.648C311.868 203.883 312.31 204 312.844 204ZM320.428 193.364V205H319.087V193.364H320.428ZM322.884 205V196.273H324.224V205H322.884ZM323.565 194.818C323.304 194.818 323.079 194.729 322.889 194.551C322.704 194.373 322.611 194.159 322.611 193.909C322.611 193.659 322.704 193.445 322.889 193.267C323.079 193.089 323.304 193 323.565 193C323.827 193 324.05 193.089 324.236 193.267C324.425 193.445 324.52 193.659 324.52 193.909C324.52 194.159 324.425 194.373 324.236 194.551C324.05 194.729 323.827 194.818 323.565 194.818ZM329.976 205.182C329.249 205.182 328.607 204.998 328.05 204.631C327.493 204.259 327.057 203.737 326.743 203.062C326.429 202.384 326.271 201.583 326.271 200.659C326.271 199.742 326.429 198.947 326.743 198.273C327.057 197.598 327.495 197.078 328.055 196.71C328.616 196.343 329.264 196.159 329.999 196.159C330.567 196.159 331.016 196.254 331.345 196.443C331.679 196.629 331.932 196.841 332.107 197.08C332.285 197.314 332.423 197.508 332.521 197.659H332.635V193.364H333.976V205H332.68V203.659H332.521C332.423 203.818 332.283 204.019 332.101 204.261C331.919 204.5 331.66 204.714 331.322 204.903C330.985 205.089 330.536 205.182 329.976 205.182ZM330.158 203.977C330.696 203.977 331.15 203.837 331.521 203.557C331.893 203.273 332.175 202.881 332.368 202.381C332.561 201.877 332.658 201.295 332.658 200.636C332.658 199.985 332.563 199.415 332.374 198.926C332.184 198.434 331.904 198.051 331.533 197.778C331.161 197.502 330.703 197.364 330.158 197.364C329.589 197.364 329.116 197.509 328.737 197.801C328.362 198.089 328.08 198.481 327.891 198.977C327.705 199.47 327.612 200.023 327.612 200.636C327.612 201.258 327.707 201.822 327.896 202.33C328.089 202.833 328.374 203.235 328.749 203.534C329.127 203.83 329.597 203.977 330.158 203.977ZM339.186 205.205C338.633 205.205 338.131 205.1 337.68 204.892C337.23 204.68 336.872 204.375 336.607 203.977C336.341 203.576 336.209 203.091 336.209 202.523C336.209 202.023 336.307 201.617 336.504 201.307C336.701 200.992 336.964 200.746 337.294 200.568C337.624 200.39 337.987 200.258 338.385 200.17C338.786 200.08 339.19 200.008 339.595 199.955C340.125 199.886 340.555 199.835 340.885 199.801C341.218 199.763 341.461 199.701 341.612 199.614C341.768 199.527 341.845 199.375 341.845 199.159V199.114C341.845 198.553 341.692 198.117 341.385 197.807C341.082 197.496 340.622 197.341 340.004 197.341C339.364 197.341 338.862 197.481 338.499 197.761C338.135 198.042 337.879 198.341 337.732 198.659L336.459 198.205C336.686 197.674 336.989 197.261 337.368 196.966C337.75 196.667 338.167 196.458 338.618 196.341C339.072 196.22 339.519 196.159 339.959 196.159C340.239 196.159 340.561 196.193 340.925 196.261C341.292 196.326 341.646 196.46 341.987 196.665C342.332 196.869 342.618 197.178 342.845 197.591C343.072 198.004 343.186 198.557 343.186 199.25V205H341.845V203.818H341.777C341.686 204.008 341.535 204.21 341.322 204.426C341.11 204.642 340.828 204.826 340.476 204.977C340.124 205.129 339.694 205.205 339.186 205.205ZM339.391 204C339.921 204 340.368 203.896 340.732 203.688C341.099 203.479 341.375 203.21 341.561 202.881C341.75 202.551 341.845 202.205 341.845 201.841V200.614C341.788 200.682 341.663 200.744 341.47 200.801C341.281 200.854 341.061 200.902 340.811 200.943C340.565 200.981 340.324 201.015 340.089 201.045C339.858 201.072 339.671 201.095 339.527 201.114C339.179 201.159 338.853 201.233 338.55 201.335C338.25 201.434 338.008 201.583 337.822 201.784C337.641 201.981 337.55 202.25 337.55 202.591C337.55 203.057 337.722 203.409 338.067 203.648C338.415 203.883 338.857 204 339.391 204ZM348.929 205.182C348.202 205.182 347.56 204.998 347.003 204.631C346.446 204.259 346.01 203.737 345.696 203.062C345.382 202.384 345.224 201.583 345.224 200.659C345.224 199.742 345.382 198.947 345.696 198.273C346.01 197.598 346.448 197.078 347.009 196.71C347.569 196.343 348.217 196.159 348.952 196.159C349.52 196.159 349.969 196.254 350.298 196.443C350.632 196.629 350.885 196.841 351.06 197.08C351.238 197.314 351.376 197.508 351.474 197.659H351.588V193.364H352.929V205H351.634V203.659H351.474C351.376 203.818 351.236 204.019 351.054 204.261C350.872 204.5 350.613 204.714 350.276 204.903C349.938 205.089 349.49 205.182 348.929 205.182ZM349.111 203.977C349.649 203.977 350.103 203.837 350.474 203.557C350.846 203.273 351.128 202.881 351.321 202.381C351.514 201.877 351.611 201.295 351.611 200.636C351.611 199.985 351.516 199.415 351.327 198.926C351.137 198.434 350.857 198.051 350.486 197.778C350.115 197.502 349.656 197.364 349.111 197.364C348.543 197.364 348.069 197.509 347.69 197.801C347.315 198.089 347.033 198.481 346.844 198.977C346.658 199.47 346.565 200.023 346.565 200.636C346.565 201.258 346.66 201.822 346.849 202.33C347.043 202.833 347.327 203.235 347.702 203.534C348.08 203.83 348.55 203.977 349.111 203.977ZM359.23 205.182C358.389 205.182 357.664 204.996 357.054 204.625C356.448 204.25 355.98 203.727 355.651 203.057C355.325 202.383 355.162 201.598 355.162 200.705C355.162 199.811 355.325 199.023 355.651 198.341C355.98 197.655 356.438 197.121 357.026 196.739C357.616 196.352 358.306 196.159 359.094 196.159C359.548 196.159 359.997 196.235 360.44 196.386C360.884 196.538 361.287 196.784 361.651 197.125C362.014 197.462 362.304 197.909 362.52 198.466C362.736 199.023 362.844 199.708 362.844 200.523V201.091H356.116V199.932H361.48C361.48 199.439 361.382 199 361.185 198.614C360.991 198.227 360.715 197.922 360.355 197.699C359.999 197.475 359.579 197.364 359.094 197.364C358.56 197.364 358.098 197.496 357.707 197.761C357.321 198.023 357.024 198.364 356.815 198.784C356.607 199.205 356.503 199.655 356.503 200.136V200.909C356.503 201.568 356.616 202.127 356.844 202.585C357.075 203.04 357.395 203.386 357.804 203.625C358.213 203.86 358.688 203.977 359.23 203.977C359.582 203.977 359.901 203.928 360.185 203.83C360.473 203.727 360.721 203.576 360.929 203.375C361.137 203.17 361.298 202.917 361.412 202.614L362.707 202.977C362.571 203.417 362.342 203.803 362.02 204.136C361.698 204.466 361.3 204.723 360.827 204.909C360.353 205.091 359.821 205.182 359.23 205.182ZM369.861 200.091C369.861 198.659 370.046 197.343 370.418 196.142C370.793 194.937 371.327 193.83 372.02 192.818H373.202C372.929 193.193 372.673 193.655 372.435 194.205C372.2 194.75 371.993 195.35 371.815 196.006C371.637 196.657 371.497 197.331 371.395 198.028C371.296 198.725 371.247 199.413 371.247 200.091C371.247 200.992 371.334 201.907 371.509 202.835C371.683 203.763 371.918 204.625 372.213 205.42C372.509 206.216 372.838 206.864 373.202 207.364H372.02C371.327 206.352 370.793 205.246 370.418 204.045C370.046 202.841 369.861 201.523 369.861 200.091ZM376.044 208.273C375.817 208.273 375.614 208.254 375.436 208.216C375.258 208.182 375.135 208.148 375.067 208.114L375.408 206.932C375.733 207.015 376.021 207.045 376.271 207.023C376.521 207 376.743 206.888 376.936 206.688C377.133 206.491 377.313 206.17 377.476 205.727L377.726 205.045L374.499 196.273H375.953L378.362 203.227H378.453L380.862 196.273H382.317L378.612 206.273C378.446 206.723 378.239 207.097 377.993 207.392C377.747 207.691 377.461 207.913 377.135 208.057C376.813 208.201 376.449 208.273 376.044 208.273ZM384.95 208.273C384.723 208.273 384.52 208.254 384.342 208.216C384.164 208.182 384.041 208.148 383.973 208.114L384.314 206.932C384.64 207.015 384.928 207.045 385.178 207.023C385.428 207 385.649 206.888 385.842 206.688C386.039 206.491 386.219 206.17 386.382 205.727L386.632 205.045L383.405 196.273H384.859L387.268 203.227H387.359L389.768 196.273H391.223L387.518 206.273C387.352 206.723 387.145 207.097 386.899 207.392C386.653 207.691 386.367 207.913 386.041 208.057C385.719 208.201 385.356 208.273 384.95 208.273ZM393.857 208.273C393.629 208.273 393.427 208.254 393.249 208.216C393.071 208.182 392.947 208.148 392.879 208.114L393.22 206.932C393.546 207.015 393.834 207.045 394.084 207.023C394.334 207 394.555 206.888 394.749 206.688C394.946 206.491 395.125 206.17 395.288 205.727L395.538 205.045L392.311 196.273H393.766L396.175 203.227H396.266L398.675 196.273H400.129L396.425 206.273C396.258 206.723 396.052 207.097 395.805 207.392C395.559 207.691 395.273 207.913 394.947 208.057C394.625 208.201 394.262 208.273 393.857 208.273ZM402.763 208.273C402.536 208.273 402.333 208.254 402.155 208.216C401.977 208.182 401.854 208.148 401.786 208.114L402.126 206.932C402.452 207.015 402.74 207.045 402.99 207.023C403.24 207 403.462 206.888 403.655 206.688C403.852 206.491 404.032 206.17 404.195 205.727L404.445 205.045L401.217 196.273H402.672L405.081 203.227H405.172L407.581 196.273H409.036L405.331 206.273C405.164 206.723 404.958 207.097 404.712 207.392C404.465 207.691 404.179 207.913 403.854 208.057C403.532 208.201 403.168 208.273 402.763 208.273ZM415.805 199.386V200.636H410.714V199.386H415.805ZM418.347 193.364H420.028L423.983 203.023H424.119L428.074 193.364H429.756V205H428.438V196.159H428.324L424.688 205H423.415L419.778 196.159H419.665V205H418.347V193.364ZM432.581 193.364H434.263L438.217 203.023H438.354L442.308 193.364H443.99V205H442.672V196.159H442.558L438.922 205H437.649L434.013 196.159H433.899V205H432.581V193.364ZM451.634 199.386V200.636H446.543V199.386H451.634ZM457.288 205.182C456.561 205.182 455.919 204.998 455.362 204.631C454.805 204.259 454.37 203.737 454.055 203.062C453.741 202.384 453.584 201.583 453.584 200.659C453.584 199.742 453.741 198.947 454.055 198.273C454.37 197.598 454.807 197.078 455.368 196.71C455.929 196.343 456.576 196.159 457.311 196.159C457.879 196.159 458.328 196.254 458.658 196.443C458.991 196.629 459.245 196.841 459.419 197.08C459.597 197.314 459.735 197.508 459.834 197.659H459.947V193.364H461.288V205H459.993V203.659H459.834C459.735 203.818 459.595 204.019 459.413 204.261C459.232 204.5 458.972 204.714 458.635 204.903C458.298 205.089 457.849 205.182 457.288 205.182ZM457.47 203.977C458.008 203.977 458.463 203.837 458.834 203.557C459.205 203.273 459.487 202.881 459.68 202.381C459.874 201.877 459.97 201.295 459.97 200.636C459.97 199.985 459.875 199.415 459.686 198.926C459.497 198.434 459.216 198.051 458.845 197.778C458.474 197.502 458.016 197.364 457.47 197.364C456.902 197.364 456.429 197.509 456.05 197.801C455.675 198.089 455.393 198.481 455.203 198.977C455.018 199.47 454.925 200.023 454.925 200.636C454.925 201.258 455.019 201.822 455.209 202.33C455.402 202.833 455.686 203.235 456.061 203.534C456.44 203.83 456.91 203.977 457.47 203.977ZM467.226 205.182C466.499 205.182 465.857 204.998 465.3 204.631C464.743 204.259 464.307 203.737 463.993 203.062C463.679 202.384 463.521 201.583 463.521 200.659C463.521 199.742 463.679 198.947 463.993 198.273C464.307 197.598 464.745 197.078 465.305 196.71C465.866 196.343 466.514 196.159 467.249 196.159C467.817 196.159 468.266 196.254 468.595 196.443C468.929 196.629 469.182 196.841 469.357 197.08C469.535 197.314 469.673 197.508 469.771 197.659H469.885V193.364H471.226V205H469.93V203.659H469.771C469.673 203.818 469.533 204.019 469.351 204.261C469.169 204.5 468.91 204.714 468.572 204.903C468.235 205.089 467.786 205.182 467.226 205.182ZM467.408 203.977C467.946 203.977 468.4 203.837 468.771 203.557C469.143 203.273 469.425 202.881 469.618 202.381C469.811 201.877 469.908 201.295 469.908 200.636C469.908 199.985 469.813 199.415 469.624 198.926C469.434 198.434 469.154 198.051 468.783 197.778C468.411 197.502 467.953 197.364 467.408 197.364C466.839 197.364 466.366 197.509 465.987 197.801C465.612 198.089 465.33 198.481 465.141 198.977C464.955 199.47 464.862 200.023 464.862 200.636C464.862 201.258 464.957 201.822 465.146 202.33C465.339 202.833 465.624 203.235 465.999 203.534C466.377 203.83 466.847 203.977 467.408 203.977ZM476.732 200.091C476.732 201.523 476.544 202.841 476.169 204.045C475.798 205.246 475.266 206.352 474.572 207.364H473.391C473.663 206.989 473.917 206.527 474.152 205.977C474.391 205.432 474.599 204.833 474.777 204.182C474.955 203.527 475.093 202.85 475.192 202.153C475.294 201.453 475.345 200.765 475.345 200.091C475.345 199.189 475.258 198.275 475.084 197.347C474.91 196.419 474.675 195.557 474.379 194.761C474.084 193.966 473.754 193.318 473.391 192.818H474.572C475.266 193.83 475.798 194.937 476.169 196.142C476.544 197.343 476.732 198.659 476.732 200.091Z" fill="#495057"/>
<rect x="259.25" y="217.25" width="232.5" height="34.5" rx="7.75" stroke="#495057" stroke-opacity="0.5" stroke-width="0.5"/>
<rect x="8" y="341" width="150.667" height="40" rx="12" fill="#FFE4AB"/>
<path d="M15.8373 366.5V356.318H19.735C20.4708 356.318 21.0823 356.434 21.5695 356.666C22.06 356.895 22.4263 357.208 22.6682 357.606C22.9135 358.004 23.0361 358.454 23.0361 358.958C23.0361 359.372 22.9566 359.727 22.7975 360.022C22.6384 360.314 22.4246 360.551 22.1562 360.733C21.8877 360.915 21.5877 361.046 21.2563 361.126V361.225C21.6176 361.245 21.9639 361.356 22.2954 361.558C22.6301 361.757 22.9036 362.039 23.1157 362.403C23.3278 362.768 23.4339 363.209 23.4339 363.726C23.4339 364.253 23.3063 364.727 23.051 365.148C22.7958 365.565 22.4114 365.895 21.8976 366.137C21.3839 366.379 20.7376 366.5 19.9587 366.5H15.8373ZM17.6817 364.959H19.6654C20.3349 364.959 20.8171 364.831 21.1121 364.576C21.4104 364.317 21.5596 363.986 21.5596 363.582C21.5596 363.28 21.485 363.008 21.3358 362.766C21.1867 362.521 20.9746 362.329 20.6995 362.19C20.4244 362.047 20.0963 361.976 19.7151 361.976H17.6817V364.959ZM17.6817 360.648H19.5063C19.8245 360.648 20.1112 360.59 20.3664 360.474C20.6216 360.355 20.8221 360.188 20.968 359.972C21.1171 359.754 21.1917 359.495 21.1917 359.197C21.1917 358.802 21.0525 358.478 20.7741 358.222C20.499 357.967 20.0896 357.839 19.5461 357.839H17.6817V360.648ZM29.8261 363.288V358.864H31.6258V366.5H29.8808V365.143H29.8012C29.6289 365.57 29.3455 365.92 28.9511 366.192C28.56 366.464 28.0777 366.599 27.5044 366.599C27.0039 366.599 26.5614 366.488 26.1769 366.266C25.7958 366.041 25.4975 365.714 25.282 365.287C25.0666 364.856 24.9589 364.336 24.9589 363.726V358.864H26.7586V363.447C26.7586 363.931 26.8912 364.316 27.1563 364.601C27.4215 364.886 27.7695 365.028 28.2004 365.028C28.4655 365.028 28.7224 364.964 28.971 364.835C29.2195 364.705 29.4234 364.513 29.5825 364.258C29.7449 363.999 29.8261 363.676 29.8261 363.288ZM39.512 360.882L37.8714 361.061C37.825 360.895 37.7438 360.74 37.6278 360.594C37.5151 360.448 37.3626 360.33 37.1704 360.241C36.9781 360.151 36.7428 360.107 36.4644 360.107C36.0899 360.107 35.775 360.188 35.5198 360.35C35.2679 360.513 35.1436 360.723 35.1469 360.982C35.1436 361.204 35.2248 361.384 35.3905 361.523C35.5596 361.663 35.838 361.777 36.2258 361.866L37.5283 362.145C38.2509 362.301 38.7878 362.548 39.1391 362.886C39.4938 363.224 39.6727 363.666 39.676 364.213C39.6727 364.694 39.5319 365.118 39.2535 365.486C38.9784 365.85 38.5956 366.135 38.105 366.341C37.6145 366.546 37.051 366.649 36.4147 366.649C35.48 366.649 34.7277 366.454 34.1576 366.062C33.5875 365.668 33.2478 365.12 33.1384 364.417L34.8934 364.248C34.9729 364.593 35.142 364.853 35.4005 365.028C35.659 365.204 35.9954 365.292 36.4097 365.292C36.8373 365.292 37.1803 365.204 37.4388 365.028C37.7007 364.853 37.8316 364.636 37.8316 364.377C37.8316 364.158 37.7471 363.978 37.578 363.835C37.4123 363.693 37.1538 363.583 36.8025 363.507L35.4999 363.234C34.7674 363.081 34.2255 362.824 33.8742 362.463C33.5229 362.098 33.3489 361.638 33.3522 361.081C33.3489 360.61 33.4765 360.203 33.735 359.858C33.9968 359.51 34.3598 359.241 34.8238 359.053C35.2911 358.86 35.8297 358.764 36.4395 358.764C37.3344 358.764 38.0387 358.955 38.5525 359.336C39.0695 359.717 39.3894 360.232 39.512 360.882ZM44.491 366.649C43.7287 366.649 43.0741 366.482 42.5273 366.147C41.9837 365.812 41.5644 365.35 41.2694 364.76C40.9778 364.167 40.8319 363.484 40.8319 362.712C40.8319 361.936 40.9811 361.252 41.2794 360.658C41.5777 360.062 41.9986 359.598 42.5422 359.266C43.089 358.932 43.7354 358.764 44.4811 358.764C45.1009 358.764 45.6494 358.879 46.1267 359.107C46.6073 359.333 46.9901 359.652 47.2751 360.067C47.5602 360.478 47.7226 360.958 47.7623 361.509H46.0422C45.9726 361.141 45.8068 360.834 45.545 360.589C45.2865 360.34 44.9401 360.216 44.5059 360.216C44.1381 360.216 43.8149 360.315 43.5365 360.514C43.2581 360.71 43.041 360.991 42.8852 361.359C42.7327 361.727 42.6565 362.168 42.6565 362.682C42.6565 363.202 42.7327 363.65 42.8852 364.024C43.0377 364.395 43.2515 364.682 43.5265 364.884C43.805 365.083 44.1314 365.183 44.5059 365.183C44.7711 365.183 45.0081 365.133 45.2169 365.033C45.429 364.931 45.6063 364.783 45.7488 364.591C45.8914 364.399 45.9891 364.165 46.0422 363.89H47.7623C47.7193 364.43 47.5602 364.909 47.2851 365.327C47.01 365.741 46.6354 366.066 46.1615 366.301C45.6875 366.533 45.1307 366.649 44.491 366.649ZM51.4376 366.654C50.9537 366.654 50.5178 366.568 50.1301 366.396C49.7456 366.22 49.4407 365.961 49.2153 365.62C48.9932 365.279 48.8822 364.858 48.8822 364.357C48.8822 363.926 48.9617 363.57 49.1208 363.288C49.2799 363.007 49.497 362.781 49.7721 362.612C50.0472 362.443 50.3571 362.316 50.7018 362.229C51.0498 362.14 51.4094 362.075 51.7806 362.036C52.2281 361.989 52.591 361.948 52.8694 361.911C53.1478 361.871 53.35 361.812 53.4759 361.732C53.6052 361.649 53.6698 361.522 53.6698 361.349V361.32C53.6698 360.945 53.5588 360.655 53.3367 360.45C53.1147 360.244 52.7948 360.141 52.3772 360.141C51.9364 360.141 51.5867 360.237 51.3282 360.43C51.073 360.622 50.9007 360.849 50.8112 361.111L49.1308 360.872C49.2633 360.408 49.4821 360.02 49.787 359.709C50.0919 359.394 50.4648 359.159 50.9056 359.003C51.3464 358.844 51.8337 358.764 52.3673 358.764C52.7352 358.764 53.1014 358.807 53.466 358.893C53.8306 358.98 54.1637 359.122 54.4653 359.321C54.7669 359.517 55.0088 359.783 55.1911 360.121C55.3767 360.46 55.4695 360.882 55.4695 361.389V366.5H53.7394V365.451H53.6798C53.5704 365.663 53.4163 365.862 53.2174 366.048C53.0219 366.23 52.7749 366.377 52.4767 366.49C52.1817 366.599 51.8353 366.654 51.4376 366.654ZM51.9049 365.332C52.2662 365.332 52.5794 365.26 52.8445 365.118C53.1097 364.972 53.3135 364.78 53.4561 364.541C53.6019 364.303 53.6748 364.042 53.6748 363.761V362.861C53.6185 362.907 53.5223 362.95 53.3865 362.99C53.2539 363.03 53.1047 363.065 52.939 363.094C52.7733 363.124 52.6092 363.151 52.4468 363.174C52.2844 363.197 52.1436 363.217 52.0242 363.234C51.7558 363.27 51.5155 363.33 51.3034 363.413C51.0912 363.496 50.9239 363.612 50.8012 363.761C50.6786 363.906 50.6173 364.095 50.6173 364.327C50.6173 364.659 50.7383 364.909 50.9802 365.078C51.2222 365.247 51.5304 365.332 51.9049 365.332ZM57.2792 366.5V358.864H59.0242V360.136H59.1038C59.243 359.696 59.4816 359.356 59.8197 359.117C60.1611 358.875 60.5505 358.754 60.988 358.754C61.0874 358.754 61.1985 358.759 61.3211 358.769C61.4471 358.776 61.5515 358.787 61.6343 358.804V360.46C61.5581 360.433 61.4371 360.41 61.2714 360.39C61.109 360.367 60.9516 360.355 60.7991 360.355C60.471 360.355 60.176 360.426 59.9142 360.569C59.6556 360.708 59.4518 360.902 59.3026 361.151C59.1535 361.399 59.0789 361.686 59.0789 362.011V366.5H57.2792ZM66.3822 366.5V356.318H70.2004C70.9826 356.318 71.6388 356.464 72.1691 356.756C72.7027 357.047 73.1054 357.448 73.3772 357.959C73.6523 358.466 73.7899 359.043 73.7899 359.689C73.7899 360.342 73.6523 360.922 73.3772 361.429C73.1021 361.936 72.6961 362.335 72.1592 362.627C71.6222 362.915 70.961 363.06 70.1755 363.06H67.645V361.543H69.9269C70.3843 361.543 70.7588 361.464 71.0505 361.305C71.3422 361.146 71.5576 360.927 71.6968 360.648C71.8393 360.37 71.9106 360.05 71.9106 359.689C71.9106 359.328 71.8393 359.009 71.6968 358.734C71.5576 358.459 71.3405 358.246 71.0455 358.093C70.7539 357.937 70.3777 357.859 69.917 357.859H68.2267V366.5H66.3822ZM75.3124 366.5V358.864H77.0574V360.136H77.137C77.2762 359.696 77.5148 359.356 77.8529 359.117C78.1943 358.875 78.5837 358.754 79.0212 358.754C79.1207 358.754 79.2317 358.759 79.3543 358.769C79.4803 358.776 79.5847 358.787 79.6675 358.804V360.46C79.5913 360.433 79.4703 360.41 79.3046 360.39C79.1422 360.367 78.9848 360.355 78.8323 360.355C78.5042 360.355 78.2092 360.426 77.9474 360.569C77.6888 360.708 77.485 360.902 77.3358 361.151C77.1867 361.399 77.1121 361.686 77.1121 362.011V366.5H75.3124ZM83.8797 366.649C83.134 366.649 82.4877 366.485 81.9408 366.157C81.3939 365.829 80.9697 365.37 80.6681 364.78C80.3698 364.19 80.2206 363.5 80.2206 362.712C80.2206 361.923 80.3698 361.232 80.6681 360.638C80.9697 360.045 81.3939 359.585 81.9408 359.256C82.4877 358.928 83.134 358.764 83.8797 358.764C84.6254 358.764 85.2718 358.928 85.8186 359.256C86.3655 359.585 86.7881 360.045 87.0864 360.638C87.388 361.232 87.5388 361.923 87.5388 362.712C87.5388 363.5 87.388 364.19 87.0864 364.78C86.7881 365.37 86.3655 365.829 85.8186 366.157C85.2718 366.485 84.6254 366.649 83.8797 366.649ZM83.8896 365.207C84.294 365.207 84.6321 365.096 84.9039 364.874C85.1756 364.649 85.3778 364.347 85.5104 363.969C85.6463 363.592 85.7142 363.171 85.7142 362.707C85.7142 362.239 85.6463 361.817 85.5104 361.439C85.3778 361.058 85.1756 360.754 84.9039 360.529C84.6321 360.304 84.294 360.191 83.8896 360.191C83.4753 360.191 83.1307 360.304 82.8556 360.529C82.5838 360.754 82.3799 361.058 82.2441 361.439C82.1115 361.817 82.0452 362.239 82.0452 362.707C82.0452 363.171 82.1115 363.592 82.2441 363.969C82.3799 364.347 82.5838 364.649 82.8556 364.874C83.1307 365.096 83.4753 365.207 83.8896 365.207ZM91.9001 366.634C91.3002 366.634 90.7633 366.48 90.2893 366.172C89.8154 365.864 89.4408 365.416 89.1657 364.83C88.8907 364.243 88.7531 363.53 88.7531 362.692C88.7531 361.843 88.8923 361.127 89.1707 360.544C89.4524 359.957 89.8319 359.515 90.3092 359.217C90.7865 358.915 91.3184 358.764 91.9051 358.764C92.3525 358.764 92.7204 358.84 93.0088 358.993C93.2971 359.142 93.5258 359.323 93.6949 359.535C93.8639 359.744 93.9948 359.941 94.0876 360.126H94.1622V356.318H95.9669V366.5H94.197V365.297H94.0876C93.9948 365.482 93.8606 365.68 93.6849 365.888C93.5093 366.094 93.2773 366.27 92.9889 366.415C92.7006 366.561 92.3376 366.634 91.9001 366.634ZM92.4023 365.158C92.7834 365.158 93.1082 365.055 93.3767 364.849C93.6452 364.641 93.849 364.351 93.9882 363.979C94.1274 363.608 94.197 363.176 94.197 362.682C94.197 362.188 94.1274 361.759 93.9882 361.394C93.8523 361.03 93.6501 360.746 93.3817 360.544C93.1165 360.342 92.79 360.241 92.4023 360.241C92.0012 360.241 91.6665 360.345 91.398 360.554C91.1295 360.763 90.9273 361.051 90.7915 361.419C90.6556 361.787 90.5876 362.208 90.5876 362.682C90.5876 363.159 90.6556 363.585 90.7915 363.96C90.9307 364.331 91.1345 364.624 91.403 364.839C91.6747 365.052 92.0078 365.158 92.4023 365.158ZM102.752 363.288V358.864H104.552V366.5H102.807V365.143H102.727C102.555 365.57 102.271 365.92 101.877 366.192C101.486 366.464 101.004 366.599 100.43 366.599C99.9297 366.599 99.4872 366.488 99.1027 366.266C98.7216 366.041 98.4233 365.714 98.2078 365.287C97.9924 364.856 97.8847 364.336 97.8847 363.726V358.864H99.6844V363.447C99.6844 363.931 99.817 364.316 100.082 364.601C100.347 364.886 100.695 365.028 101.126 365.028C101.391 365.028 101.648 364.964 101.897 364.835C102.145 364.705 102.349 364.513 102.508 364.258C102.671 363.999 102.752 363.676 102.752 363.288ZM110.215 358.864V360.256H105.826V358.864H110.215ZM106.909 357.034H108.709V364.203C108.709 364.445 108.746 364.631 108.818 364.76C108.895 364.886 108.994 364.972 109.117 365.018C109.239 365.065 109.375 365.088 109.524 365.088C109.637 365.088 109.74 365.08 109.833 365.063C109.929 365.047 110.002 365.032 110.051 365.018L110.355 366.425C110.259 366.459 110.121 366.495 109.942 366.535C109.766 366.575 109.551 366.598 109.296 366.604C108.845 366.618 108.439 366.55 108.078 366.401C107.716 366.248 107.43 366.013 107.218 365.695C107.009 365.376 106.906 364.979 106.909 364.501V357.034ZM114.97 366.649C114.224 366.649 113.578 366.485 113.031 366.157C112.484 365.829 112.06 365.37 111.758 364.78C111.46 364.19 111.31 363.5 111.31 362.712C111.31 361.923 111.46 361.232 111.758 360.638C112.06 360.045 112.484 359.585 113.031 359.256C113.578 358.928 114.224 358.764 114.97 358.764C115.715 358.764 116.362 358.928 116.908 359.256C117.455 359.585 117.878 360.045 118.176 360.638C118.478 361.232 118.629 361.923 118.629 362.712C118.629 363.5 118.478 364.19 118.176 364.78C117.878 365.37 117.455 365.829 116.908 366.157C116.362 366.485 115.715 366.649 114.97 366.649ZM114.979 365.207C115.384 365.207 115.722 365.096 115.994 364.874C116.265 364.649 116.468 364.347 116.6 363.969C116.736 363.592 116.804 363.171 116.804 362.707C116.804 362.239 116.736 361.817 116.6 361.439C116.468 361.058 116.265 360.754 115.994 360.529C115.722 360.304 115.384 360.191 114.979 360.191C114.565 360.191 114.22 360.304 113.945 360.529C113.674 360.754 113.47 361.058 113.334 361.439C113.201 361.817 113.135 362.239 113.135 362.707C113.135 363.171 113.201 363.592 113.334 363.969C113.47 364.347 113.674 364.649 113.945 364.874C114.22 365.096 114.565 365.207 114.979 365.207Z" fill="#655A44"/>
<path fill-rule="evenodd" clip-rule="evenodd" d="M138.333 352.75C137.447 352.75 136.569 352.925 135.75 353.264C134.931 353.603 134.187 354.1 133.56 354.727C132.933 355.354 132.436 356.098 132.097 356.917C131.758 357.736 131.583 358.614 131.583 359.5C131.583 360.386 131.758 361.264 132.097 362.083C132.436 362.902 132.933 363.646 133.56 364.273C134.187 364.9 134.931 365.397 135.75 365.736C136.569 366.075 137.447 366.25 138.333 366.25C140.123 366.25 141.84 365.539 143.106 364.273C144.372 363.007 145.083 361.29 145.083 359.5C145.083 357.71 144.372 355.993 143.106 354.727C141.84 353.461 140.123 352.75 138.333 352.75ZM130.083 359.5C130.083 358.175 130.402 356.87 131.014 355.694C131.625 354.519 132.511 353.508 133.595 352.747C134.68 351.986 135.932 351.498 137.245 351.323C138.559 351.148 139.895 351.293 141.14 351.743C142.386 352.194 143.505 352.939 144.403 353.913C145.3 354.888 145.949 356.065 146.296 357.343C146.642 358.622 146.676 359.966 146.393 361.26C146.111 362.554 145.521 363.762 144.673 364.78L149.363 369.47C149.437 369.539 149.496 369.621 149.537 369.713C149.578 369.805 149.6 369.905 149.602 370.005C149.603 370.106 149.585 370.206 149.547 370.3C149.509 370.393 149.453 370.478 149.382 370.549C149.311 370.62 149.226 370.676 149.133 370.714C149.039 370.752 148.939 370.77 148.838 370.769C148.738 370.767 148.638 370.745 148.546 370.704C148.454 370.663 148.372 370.604 148.303 370.53L143.613 365.84C142.408 366.844 140.942 367.483 139.387 367.683C137.832 367.884 136.252 367.637 134.832 366.971C133.413 366.306 132.212 365.25 131.371 363.927C130.529 362.604 130.083 361.068 130.083 359.5Z" fill="#655A44"/>
<rect x="174.667" y="341" width="150.667" height="40" rx="12" fill="#0071E3"/>
<path d="M205.812 366.5H203.843L207.428 356.318H209.705L213.294 366.5H211.325L208.606 358.406H208.526L205.812 366.5ZM205.876 362.508H211.246V363.989H205.876V362.508ZM217.89 358.864V360.256H213.5V358.864H217.89ZM214.584 357.034H216.384V364.203C216.384 364.445 216.42 364.631 216.493 364.76C216.569 364.886 216.669 364.972 216.792 365.018C216.914 365.065 217.05 365.088 217.199 365.088C217.312 365.088 217.415 365.08 217.507 365.063C217.604 365.047 217.676 365.032 217.726 365.018L218.029 366.425C217.933 366.459 217.796 366.495 217.617 366.535C217.441 366.575 217.226 366.598 216.971 366.604C216.52 366.618 216.114 366.55 215.752 366.401C215.391 366.248 215.105 366.013 214.892 365.695C214.684 365.376 214.581 364.979 214.584 364.501V357.034ZM224.263 363.288V358.864H226.062V366.5H224.317V365.143H224.238C224.065 365.57 223.782 365.92 223.388 366.192C222.997 366.464 222.514 366.599 221.941 366.599C221.44 366.599 220.998 366.488 220.613 366.266C220.232 366.041 219.934 365.714 219.719 365.287C219.503 364.856 219.395 364.336 219.395 363.726V358.864H221.195V363.447C221.195 363.931 221.328 364.316 221.593 364.601C221.858 364.886 222.206 365.028 222.637 365.028C222.902 365.028 223.159 364.964 223.407 364.835C223.656 364.705 223.86 364.513 224.019 364.258C224.181 363.999 224.263 363.676 224.263 363.288ZM230.11 366.654C229.627 366.654 229.191 366.568 228.803 366.396C228.418 366.22 228.114 365.961 227.888 365.62C227.666 365.279 227.555 364.858 227.555 364.357C227.555 363.926 227.635 363.57 227.794 363.288C227.953 363.007 228.17 362.781 228.445 362.612C228.72 362.443 229.03 362.316 229.375 362.229C229.723 362.14 230.082 362.075 230.453 362.036C230.901 361.989 231.264 361.948 231.542 361.911C231.821 361.871 232.023 361.812 232.149 361.732C232.278 361.649 232.343 361.522 232.343 361.349V361.32C232.343 360.945 232.232 360.655 232.01 360.45C231.788 360.244 231.468 360.141 231.05 360.141C230.609 360.141 230.26 360.237 230.001 360.43C229.746 360.622 229.574 360.849 229.484 361.111L227.804 360.872C227.936 360.408 228.155 360.02 228.46 359.709C228.765 359.394 229.138 359.159 229.578 359.003C230.019 358.844 230.507 358.764 231.04 358.764C231.408 358.764 231.774 358.807 232.139 358.893C232.503 358.98 232.837 359.122 233.138 359.321C233.44 359.517 233.682 359.783 233.864 360.121C234.05 360.46 234.142 360.882 234.142 361.389V366.5H232.412V365.451H232.353C232.243 365.663 232.089 365.862 231.89 366.048C231.695 366.23 231.448 366.377 231.15 366.49C230.855 366.599 230.508 366.654 230.11 366.654ZM230.578 365.332C230.939 365.332 231.252 365.26 231.517 365.118C231.783 364.972 231.986 364.78 232.129 364.541C232.275 364.303 232.348 364.042 232.348 363.761V362.861C232.291 362.907 232.195 362.95 232.059 362.99C231.927 363.03 231.778 363.065 231.612 363.094C231.446 363.124 231.282 363.151 231.12 363.174C230.957 363.197 230.816 363.217 230.697 363.234C230.429 363.27 230.188 363.33 229.976 363.413C229.764 363.496 229.597 363.612 229.474 363.761C229.351 363.906 229.29 364.095 229.29 364.327C229.29 364.659 229.411 364.909 229.653 365.078C229.895 365.247 230.203 365.332 230.578 365.332ZM237.752 356.318V366.5H235.952V356.318H237.752ZM239.602 366.5V358.864H241.402V366.5H239.602ZM240.507 357.78C240.222 357.78 239.977 357.685 239.771 357.496C239.566 357.304 239.463 357.074 239.463 356.805C239.463 356.534 239.566 356.303 239.771 356.114C239.977 355.922 240.222 355.826 240.507 355.826C240.796 355.826 241.041 355.922 241.243 356.114C241.449 356.303 241.551 356.534 241.551 356.805C241.551 357.074 241.449 357.304 241.243 357.496C241.041 357.685 240.796 357.78 240.507 357.78ZM243.153 366.5V365.357L247.091 360.42V360.355H243.283V358.864H249.293V360.092L245.545 364.944V365.009H249.423V366.5H243.153ZM253.312 366.654C252.828 366.654 252.392 366.568 252.004 366.396C251.62 366.22 251.315 365.961 251.089 365.62C250.867 365.279 250.756 364.858 250.756 364.357C250.756 363.926 250.836 363.57 250.995 363.288C251.154 363.007 251.371 362.781 251.646 362.612C251.921 362.443 252.231 362.316 252.576 362.229C252.924 362.14 253.283 362.075 253.655 362.036C254.102 361.989 254.465 361.948 254.743 361.911C255.022 361.871 255.224 361.812 255.35 361.732C255.479 361.649 255.544 361.522 255.544 361.349V361.32C255.544 360.945 255.433 360.655 255.211 360.45C254.989 360.244 254.669 360.141 254.251 360.141C253.81 360.141 253.461 360.237 253.202 360.43C252.947 360.622 252.775 360.849 252.685 361.111L251.005 360.872C251.137 360.408 251.356 360.02 251.661 359.709C251.966 359.394 252.339 359.159 252.78 359.003C253.22 358.844 253.708 358.764 254.241 358.764C254.609 358.764 254.975 358.807 255.34 358.893C255.705 358.98 256.038 359.122 256.339 359.321C256.641 359.517 256.883 359.783 257.065 360.121C257.251 360.46 257.344 360.882 257.344 361.389V366.5H255.613V365.451H255.554C255.444 365.663 255.29 365.862 255.091 366.048C254.896 366.23 254.649 366.377 254.351 366.49C254.056 366.599 253.709 366.654 253.312 366.654ZM253.779 365.332C254.14 365.332 254.453 365.26 254.719 365.118C254.984 364.972 255.188 364.78 255.33 364.541C255.476 364.303 255.549 364.042 255.549 363.761V362.861C255.492 362.907 255.396 362.95 255.26 362.99C255.128 363.03 254.979 363.065 254.813 363.094C254.647 363.124 254.483 363.151 254.321 363.174C254.158 363.197 254.018 363.217 253.898 363.234C253.63 363.27 253.39 363.33 253.177 363.413C252.965 363.496 252.798 363.612 252.675 363.761C252.553 363.906 252.491 364.095 252.491 364.327C252.491 364.659 252.612 364.909 252.854 365.078C253.096 365.247 253.404 365.332 253.779 365.332ZM259.153 366.5V358.864H260.898V360.136H260.978C261.117 359.696 261.356 359.356 261.694 359.117C262.035 358.875 262.425 358.754 262.862 358.754C262.961 358.754 263.073 358.759 263.195 358.769C263.321 358.776 263.425 358.787 263.508 358.804V360.46C263.432 360.433 263.311 360.41 263.145 360.39C262.983 360.367 262.826 360.355 262.673 360.355C262.345 360.355 262.05 360.426 261.788 360.569C261.53 360.708 261.326 360.902 261.177 361.151C261.028 361.399 260.953 361.686 260.953 362.011V366.5H259.153Z" fill="white"/>
<path fill-rule="evenodd" clip-rule="evenodd" d="M292 370C292.796 370 293.559 369.684 294.121 369.121C294.684 368.559 295 367.796 295 367V358C295 357.204 294.684 356.441 294.121 355.879C293.559 355.316 292.796 355 292 355H286.621C286.422 355 286.232 354.921 286.091 354.78L283.97 352.66C283.761 352.451 283.513 352.285 283.24 352.172C282.967 352.058 282.675 352 282.379 352H277C276.204 352 275.441 352.316 274.879 352.879C274.316 353.441 274 354.204 274 355V367C274 367.796 274.316 368.559 274.879 369.121C275.441 369.684 276.204 370 277 370H292ZM285.25 359.5C285.25 359.301 285.171 359.11 285.03 358.97C284.89 358.829 284.699 358.75 284.5 358.75C284.301 358.75 284.11 358.829 283.97 358.97C283.829 359.11 283.75 359.301 283.75 359.5V361.75H281.5C281.301 361.75 281.11 361.829 280.97 361.97C280.829 362.11 280.75 362.301 280.75 362.5C280.75 362.699 280.829 362.89 280.97 363.03C281.11 363.171 281.301 363.25 281.5 363.25H283.75V365.5C283.75 365.699 283.829 365.89 283.97 366.03C284.11 366.171 284.301 366.25 284.5 366.25C284.699 366.25 284.89 366.171 285.03 366.03C285.171 365.89 285.25 365.699 285.25 365.5V363.25H287.5C287.699 363.25 287.89 363.171 288.03 363.03C288.171 362.89 288.25 362.699 288.25 362.5C288.25 362.301 288.171 362.11 288.03 361.97C287.89 361.829 287.699 361.75 287.5 361.75H285.25V359.5Z" fill="white"/>
<rect x="341.333" y="341" width="150.667" height="40" rx="12" fill="#FFB4AB"/>
<path d="M378.67 366.5V356.318H385.292V357.864H380.515V360.629H384.949V362.175H380.515V364.954H385.332V366.5H378.67ZM388.566 358.864L390.107 361.683L391.673 358.864H393.578L391.276 362.682L393.617 366.5H391.723L390.107 363.751L388.507 366.5H386.597L388.924 362.682L386.657 358.864H388.566ZM398.013 366.649C397.251 366.649 396.597 366.482 396.05 366.147C395.506 365.812 395.087 365.35 394.792 364.76C394.5 364.167 394.354 363.484 394.354 362.712C394.354 361.936 394.504 361.252 394.802 360.658C395.1 360.062 395.521 359.598 396.065 359.266C396.612 358.932 397.258 358.764 398.004 358.764C398.623 358.764 399.172 358.879 399.649 359.107C400.13 359.333 400.513 359.652 400.798 360.067C401.083 360.478 401.245 360.958 401.285 361.509H399.565C399.495 361.141 399.329 360.834 399.067 360.589C398.809 360.34 398.463 360.216 398.028 360.216C397.661 360.216 397.337 360.315 397.059 360.514C396.781 360.71 396.563 360.991 396.408 361.359C396.255 361.727 396.179 362.168 396.179 362.682C396.179 363.202 396.255 363.65 396.408 364.024C396.56 364.395 396.774 364.682 397.049 364.884C397.327 365.083 397.654 365.183 398.028 365.183C398.294 365.183 398.531 365.133 398.739 365.033C398.951 364.931 399.129 364.783 399.271 364.591C399.414 364.399 399.512 364.165 399.565 363.89H401.285C401.242 364.43 401.083 364.909 400.808 365.327C400.532 365.741 400.158 366.066 399.684 366.301C399.21 366.533 398.653 366.649 398.013 366.649ZM404.562 356.318V366.5H402.763V356.318H404.562ZM411.28 363.288V358.864H413.08V366.5H411.335V365.143H411.255C411.083 365.57 410.8 365.92 410.405 366.192C410.014 366.464 409.532 366.599 408.958 366.599C408.458 366.599 408.016 366.488 407.631 366.266C407.25 366.041 406.952 365.714 406.736 365.287C406.521 364.856 406.413 364.336 406.413 363.726V358.864H408.213V363.447C408.213 363.931 408.345 364.316 408.61 364.601C408.876 364.886 409.224 365.028 409.654 365.028C409.92 365.028 410.176 364.964 410.425 364.835C410.674 364.705 410.877 364.513 411.037 364.258C411.199 363.999 411.28 363.676 411.28 363.288ZM414.931 366.5V358.864H416.73V366.5H414.931ZM415.835 357.78C415.55 357.78 415.305 357.685 415.1 357.496C414.894 357.304 414.791 357.074 414.791 356.805C414.791 356.534 414.894 356.303 415.1 356.114C415.305 355.922 415.55 355.826 415.835 355.826C416.124 355.826 416.369 355.922 416.571 356.114C416.777 356.303 416.879 356.534 416.879 356.805C416.879 357.074 416.777 357.304 416.571 357.496C416.369 357.685 416.124 357.78 415.835 357.78ZM418.581 366.5V358.864H420.326V360.136H420.406C420.545 359.696 420.783 359.356 421.121 359.117C421.463 358.875 421.852 358.754 422.29 358.754C422.389 358.754 422.5 358.759 422.623 358.769C422.749 358.776 422.853 358.787 422.936 358.804V360.46C422.86 360.433 422.739 360.41 422.573 360.39C422.411 360.367 422.253 360.355 422.101 360.355C421.773 360.355 421.478 360.426 421.216 360.569C420.957 360.708 420.754 360.902 420.604 361.151C420.455 361.399 420.381 361.686 420.381 362.011V366.5H418.581Z" fill="#690005"/>
<path fill-rule="evenodd" clip-rule="evenodd" d="M434.181 359.674C434.007 359.848 433.869 360.055 433.775 360.282C433.68 360.51 433.632 360.754 433.632 361C433.632 361.246 433.68 361.49 433.775 361.718C433.869 361.945 434.007 362.152 434.181 362.326L440.556 368.7C440.908 369.051 441.385 369.249 441.882 369.249H451.166C451.962 369.249 452.725 368.933 453.288 368.37C453.85 367.808 454.166 367.045 454.166 366.249V355.75C454.166 354.954 453.85 354.191 453.288 353.629C452.725 353.066 451.962 352.75 451.166 352.75H441.882C441.385 352.75 440.908 352.948 440.556 353.3L434.181 359.674ZM444.196 358.22C444.128 358.146 444.045 358.087 443.953 358.046C443.861 358.005 443.761 357.983 443.661 357.981C443.56 357.98 443.46 357.998 443.367 358.036C443.273 358.074 443.188 358.13 443.117 358.201C443.046 358.272 442.99 358.357 442.952 358.45C442.914 358.544 442.896 358.644 442.898 358.745C442.899 358.845 442.921 358.945 442.962 359.037C443.003 359.129 443.062 359.211 443.136 359.28L444.856 361L443.136 362.72C443.062 362.789 443.003 362.871 442.962 362.963C442.921 363.055 442.899 363.155 442.898 363.255C442.896 363.356 442.914 363.456 442.952 363.55C442.99 363.643 443.046 363.728 443.117 363.799C443.188 363.87 443.273 363.926 443.367 363.964C443.46 364.002 443.56 364.02 443.661 364.019C443.761 364.017 443.861 363.995 443.953 363.954C444.045 363.913 444.128 363.854 444.196 363.78L445.916 362.06L447.636 363.78C447.705 363.854 447.788 363.913 447.88 363.954C447.972 363.995 448.071 364.017 448.172 364.019C448.272 364.02 448.372 364.002 448.466 363.964C448.559 363.926 448.644 363.87 448.715 363.799C448.786 363.728 448.843 363.643 448.88 363.55C448.918 363.456 448.937 363.356 448.935 363.255C448.933 363.155 448.911 363.055 448.87 362.963C448.829 362.871 448.77 362.789 448.696 362.72L446.976 361L448.696 359.28C448.77 359.211 448.829 359.129 448.87 359.037C448.911 358.945 448.933 358.845 448.935 358.745C448.937 358.644 448.918 358.544 448.88 358.45C448.843 358.357 448.786 358.272 448.715 358.201C448.644 358.13 448.559 358.074 448.466 358.036C448.372 357.998 448.272 357.98 448.172 357.981C448.071 357.983 447.972 358.005 447.88 358.046C447.788 358.087 447.705 358.146 447.636 358.22L445.916 359.94L444.196 358.22Z" fill="#690005"/>
</g>
<defs>
<linearGradient id="paint0_linear_85_21" x1="8" y1="8" x2="56.5" y2="56" gradientUnits="userSpaceOnUse">
<stop stop-color="#00363C"/>
<stop offset="1" stop-color="#B1CBCF"/>
</linearGradient>
<clipPath id="clip0_85_21">
<rect width="500" height="400" fill="white"/>
</clipPath>
</defs>
</svg>
