<svg width="660" height="450" viewBox="0 0 660 450" fill="none" xmlns="http://www.w3.org/2000/svg">
<rect width="660" height="450" fill="white"/>
<path d="M275.636 60.3636V72H274.273L267.932 62.8636H267.818V72H266.409V60.3636H267.773L274.136 69.5227H274.25V60.3636H275.636ZM281.82 72.1818C281.032 72.1818 280.34 71.9943 279.746 71.6193C279.155 71.2443 278.693 70.7197 278.359 70.0455C278.03 69.3712 277.865 68.5833 277.865 67.6818C277.865 66.7727 278.03 65.9792 278.359 65.3011C278.693 64.6231 279.155 64.0966 279.746 63.7216C280.34 63.3466 281.032 63.1591 281.82 63.1591C282.607 63.1591 283.297 63.3466 283.888 63.7216C284.482 64.0966 284.945 64.6231 285.274 65.3011C285.607 65.9792 285.774 66.7727 285.774 67.6818C285.774 68.5833 285.607 69.3712 285.274 70.0455C284.945 70.7197 284.482 71.2443 283.888 71.6193C283.297 71.9943 282.607 72.1818 281.82 72.1818ZM281.82 70.9773C282.418 70.9773 282.911 70.8239 283.297 70.517C283.683 70.2102 283.969 69.8068 284.155 69.3068C284.34 68.8068 284.433 68.2652 284.433 67.6818C284.433 67.0985 284.34 66.5549 284.155 66.0511C283.969 65.5473 283.683 65.1402 283.297 64.8295C282.911 64.5189 282.418 64.3636 281.82 64.3636C281.221 64.3636 280.729 64.5189 280.342 64.8295C279.956 65.1402 279.67 65.5473 279.484 66.0511C279.299 66.5549 279.206 67.0985 279.206 67.6818C279.206 68.2652 279.299 68.8068 279.484 69.3068C279.67 69.8068 279.956 70.2102 280.342 70.517C280.729 70.8239 281.221 70.9773 281.82 70.9773ZM287.821 72V63.2727H289.116V64.6364H289.23C289.412 64.1705 289.705 63.8087 290.111 63.5511C290.516 63.2898 291.003 63.1591 291.571 63.1591C292.147 63.1591 292.626 63.2898 293.009 63.5511C293.395 63.8087 293.696 64.1705 293.912 64.6364H294.003C294.226 64.1856 294.562 63.8277 295.009 63.5625C295.455 63.2936 295.991 63.1591 296.616 63.1591C297.397 63.1591 298.035 63.4034 298.531 63.892C299.027 64.3769 299.276 65.1326 299.276 66.1591V72H297.935V66.1591C297.935 65.5152 297.759 65.0549 297.406 64.7784C297.054 64.5019 296.639 64.3636 296.162 64.3636C295.548 64.3636 295.073 64.5492 294.736 64.9205C294.399 65.2879 294.23 65.7538 294.23 66.3182V72H292.866V66.0227C292.866 65.5265 292.705 65.1269 292.384 64.8239C292.062 64.517 291.647 64.3636 291.139 64.3636C290.791 64.3636 290.465 64.4564 290.162 64.642C289.863 64.8277 289.62 65.0852 289.435 65.4148C289.253 65.7405 289.162 66.1174 289.162 66.5455V72H287.821ZM305.386 72.1818C304.545 72.1818 303.82 71.9962 303.21 71.625C302.604 71.25 302.136 70.7273 301.807 70.0568C301.481 69.3826 301.318 68.5985 301.318 67.7045C301.318 66.8106 301.481 66.0227 301.807 65.3409C302.136 64.6553 302.595 64.1212 303.182 63.7386C303.773 63.3523 304.462 63.1591 305.25 63.1591C305.705 63.1591 306.153 63.2348 306.597 63.3864C307.04 63.5379 307.443 63.7841 307.807 64.125C308.17 64.4621 308.46 64.9091 308.676 65.4659C308.892 66.0227 309 66.7083 309 67.5227V68.0909H302.273V66.9318H307.636C307.636 66.4394 307.538 66 307.341 65.6136C307.148 65.2273 306.871 64.9223 306.511 64.6989C306.155 64.4754 305.735 64.3636 305.25 64.3636C304.716 64.3636 304.254 64.4962 303.864 64.7614C303.477 65.0227 303.18 65.3636 302.972 65.7841C302.763 66.2045 302.659 66.6553 302.659 67.1364V67.9091C302.659 68.5682 302.773 69.1269 303 69.5852C303.231 70.0398 303.551 70.3864 303.96 70.625C304.369 70.8598 304.845 70.9773 305.386 70.9773C305.739 70.9773 306.057 70.928 306.341 70.8295C306.629 70.7273 306.877 70.5758 307.085 70.375C307.294 70.1705 307.455 69.9167 307.568 69.6136L308.864 69.9773C308.727 70.4167 308.498 70.803 308.176 71.1364C307.854 71.4659 307.456 71.7235 306.983 71.9091C306.509 72.0909 305.977 72.1818 305.386 72.1818Z" fill="#495057"/>
<rect x="265.25" y="84.25" width="362.5" height="34.5" rx="7.75" stroke="#495057" stroke-opacity="0.5" stroke-width="0.5"/>
<path d="M275.773 140H274.364C274.28 139.595 274.134 139.239 273.926 138.932C273.722 138.625 273.472 138.367 273.176 138.159C272.884 137.947 272.561 137.788 272.205 137.682C271.848 137.576 271.477 137.523 271.091 137.523C270.386 137.523 269.748 137.701 269.176 138.057C268.608 138.413 268.155 138.938 267.818 139.631C267.485 140.324 267.318 141.174 267.318 142.182C267.318 143.189 267.485 144.04 267.818 144.733C268.155 145.426 268.608 145.951 269.176 146.307C269.748 146.663 270.386 146.841 271.091 146.841C271.477 146.841 271.848 146.788 272.205 146.682C272.561 146.576 272.884 146.419 273.176 146.21C273.472 145.998 273.722 145.739 273.926 145.432C274.134 145.121 274.28 144.765 274.364 144.364H275.773C275.667 144.958 275.473 145.491 275.193 145.96C274.913 146.43 274.564 146.83 274.148 147.159C273.731 147.485 273.263 147.733 272.744 147.903C272.229 148.074 271.678 148.159 271.091 148.159C270.098 148.159 269.216 147.917 268.443 147.432C267.67 146.947 267.063 146.258 266.619 145.364C266.176 144.47 265.955 143.409 265.955 142.182C265.955 140.955 266.176 139.894 266.619 139C267.063 138.106 267.67 137.417 268.443 136.932C269.216 136.447 270.098 136.205 271.091 136.205C271.678 136.205 272.229 136.29 272.744 136.46C273.263 136.631 273.731 136.881 274.148 137.21C274.564 137.536 274.913 137.934 275.193 138.403C275.473 138.869 275.667 139.402 275.773 140ZM279.459 136.364V148H278.05V136.364H279.459ZM282.284 148V136.364H286.216C287.129 136.364 287.875 136.528 288.455 136.858C289.038 137.184 289.47 137.625 289.75 138.182C290.03 138.739 290.17 139.36 290.17 140.045C290.17 140.731 290.03 141.354 289.75 141.915C289.473 142.475 289.045 142.922 288.466 143.256C287.886 143.585 287.144 143.75 286.239 143.75H283.42V142.5H286.193C286.818 142.5 287.32 142.392 287.699 142.176C288.078 141.96 288.352 141.669 288.523 141.301C288.697 140.93 288.784 140.511 288.784 140.045C288.784 139.58 288.697 139.163 288.523 138.795C288.352 138.428 288.076 138.14 287.693 137.932C287.311 137.72 286.803 137.614 286.17 137.614H283.693V148H282.284Z" fill="#495057"/>
<rect x="265.25" y="160.25" width="362.5" height="34.5" rx="7.75" stroke="#495057" stroke-opacity="0.5" stroke-width="0.5"/>
<path d="M272.773 215.273C272.705 214.697 272.428 214.25 271.943 213.932C271.458 213.614 270.864 213.455 270.159 213.455C269.644 213.455 269.193 213.538 268.807 213.705C268.424 213.871 268.125 214.1 267.909 214.392C267.697 214.684 267.591 215.015 267.591 215.386C267.591 215.697 267.665 215.964 267.812 216.188C267.964 216.407 268.157 216.591 268.392 216.739C268.627 216.883 268.873 217.002 269.131 217.097C269.388 217.187 269.625 217.261 269.841 217.318L271.023 217.636C271.326 217.716 271.663 217.826 272.034 217.966C272.409 218.106 272.767 218.297 273.108 218.54C273.453 218.778 273.737 219.085 273.96 219.46C274.184 219.835 274.295 220.295 274.295 220.841C274.295 221.47 274.131 222.038 273.801 222.545C273.475 223.053 272.998 223.456 272.369 223.756C271.744 224.055 270.985 224.205 270.091 224.205C269.258 224.205 268.536 224.07 267.926 223.801C267.32 223.532 266.843 223.157 266.494 222.676C266.15 222.195 265.955 221.636 265.909 221H267.364C267.402 221.439 267.549 221.803 267.807 222.091C268.068 222.375 268.398 222.587 268.795 222.727C269.197 222.864 269.629 222.932 270.091 222.932C270.629 222.932 271.112 222.845 271.54 222.67C271.968 222.492 272.307 222.246 272.557 221.932C272.807 221.614 272.932 221.242 272.932 220.818C272.932 220.432 272.824 220.117 272.608 219.875C272.392 219.633 272.108 219.436 271.756 219.284C271.403 219.133 271.023 219 270.614 218.886L269.182 218.477C268.273 218.216 267.553 217.843 267.023 217.358C266.492 216.873 266.227 216.239 266.227 215.455C266.227 214.803 266.403 214.235 266.756 213.75C267.112 213.261 267.589 212.883 268.188 212.614C268.79 212.341 269.462 212.205 270.205 212.205C270.955 212.205 271.621 212.339 272.205 212.608C272.788 212.873 273.25 213.237 273.591 213.699C273.936 214.161 274.117 214.686 274.136 215.273H272.773ZM280.089 224.182C279.249 224.182 278.523 223.996 277.913 223.625C277.307 223.25 276.839 222.727 276.51 222.057C276.184 221.383 276.021 220.598 276.021 219.705C276.021 218.811 276.184 218.023 276.51 217.341C276.839 216.655 277.298 216.121 277.885 215.739C278.476 215.352 279.165 215.159 279.953 215.159C280.408 215.159 280.857 215.235 281.3 215.386C281.743 215.538 282.146 215.784 282.51 216.125C282.874 216.462 283.163 216.909 283.379 217.466C283.595 218.023 283.703 218.708 283.703 219.523V220.091H276.976V218.932H282.339C282.339 218.439 282.241 218 282.044 217.614C281.851 217.227 281.574 216.922 281.214 216.699C280.858 216.475 280.438 216.364 279.953 216.364C279.419 216.364 278.957 216.496 278.567 216.761C278.18 217.023 277.883 217.364 277.675 217.784C277.466 218.205 277.362 218.655 277.362 219.136V219.909C277.362 220.568 277.476 221.127 277.703 221.585C277.934 222.04 278.254 222.386 278.663 222.625C279.072 222.86 279.548 222.977 280.089 222.977C280.442 222.977 280.76 222.928 281.044 222.83C281.332 222.727 281.58 222.576 281.788 222.375C281.997 222.17 282.158 221.917 282.271 221.614L283.567 221.977C283.43 222.417 283.201 222.803 282.879 223.136C282.557 223.466 282.16 223.723 281.686 223.909C281.213 224.091 280.68 224.182 280.089 224.182ZM287.084 218.75V224H285.743V215.273H287.038V216.636H287.152C287.357 216.193 287.667 215.837 288.084 215.568C288.5 215.295 289.038 215.159 289.697 215.159C290.288 215.159 290.805 215.28 291.249 215.523C291.692 215.761 292.036 216.125 292.283 216.614C292.529 217.098 292.652 217.712 292.652 218.455V224H291.311V218.545C291.311 217.86 291.133 217.326 290.777 216.943C290.421 216.557 289.932 216.364 289.311 216.364C288.883 216.364 288.5 216.456 288.163 216.642C287.83 216.828 287.567 217.098 287.374 217.455C287.18 217.811 287.084 218.242 287.084 218.75ZM296.443 218.75V224H295.102V212.364H296.443V216.636H296.557C296.761 216.186 297.068 215.828 297.477 215.562C297.89 215.294 298.439 215.159 299.125 215.159C299.72 215.159 300.241 215.278 300.688 215.517C301.134 215.752 301.481 216.114 301.727 216.602C301.977 217.087 302.102 217.705 302.102 218.455V224H300.761V218.545C300.761 217.852 300.581 217.316 300.222 216.938C299.866 216.555 299.371 216.364 298.739 216.364C298.299 216.364 297.905 216.456 297.557 216.642C297.212 216.828 296.939 217.098 296.739 217.455C296.542 217.811 296.443 218.242 296.443 218.75ZM307.124 224.205C306.571 224.205 306.069 224.1 305.618 223.892C305.167 223.68 304.809 223.375 304.544 222.977C304.279 222.576 304.146 222.091 304.146 221.523C304.146 221.023 304.245 220.617 304.442 220.307C304.639 219.992 304.902 219.746 305.232 219.568C305.561 219.39 305.925 219.258 306.322 219.17C306.724 219.08 307.127 219.008 307.533 218.955C308.063 218.886 308.493 218.835 308.822 218.801C309.156 218.763 309.398 218.701 309.55 218.614C309.705 218.527 309.783 218.375 309.783 218.159V218.114C309.783 217.553 309.629 217.117 309.322 216.807C309.019 216.496 308.559 216.341 307.942 216.341C307.302 216.341 306.8 216.481 306.436 216.761C306.072 217.042 305.817 217.341 305.669 217.659L304.396 217.205C304.624 216.674 304.927 216.261 305.305 215.966C305.688 215.667 306.105 215.458 306.555 215.341C307.01 215.22 307.457 215.159 307.896 215.159C308.177 215.159 308.499 215.193 308.862 215.261C309.23 215.326 309.584 215.46 309.925 215.665C310.269 215.869 310.555 216.178 310.783 216.591C311.01 217.004 311.124 217.557 311.124 218.25V224H309.783V222.818H309.714C309.624 223.008 309.472 223.21 309.26 223.426C309.048 223.642 308.766 223.826 308.413 223.977C308.061 224.129 307.631 224.205 307.124 224.205ZM307.328 223C307.858 223 308.305 222.896 308.669 222.688C309.036 222.479 309.313 222.21 309.499 221.881C309.688 221.551 309.783 221.205 309.783 220.841V219.614C309.726 219.682 309.601 219.744 309.408 219.801C309.218 219.854 308.999 219.902 308.749 219.943C308.502 219.981 308.262 220.015 308.027 220.045C307.796 220.072 307.608 220.095 307.464 220.114C307.116 220.159 306.79 220.233 306.487 220.335C306.188 220.434 305.946 220.583 305.76 220.784C305.578 220.981 305.487 221.25 305.487 221.591C305.487 222.057 305.66 222.409 306.004 222.648C306.353 222.883 306.794 223 307.328 223Z" fill="#495057"/>
<rect x="265.25" y="236.25" width="362.5" height="34.5" rx="7.75" stroke="#495057" stroke-opacity="0.5" stroke-width="0.5"/>
<path d="M275.773 292H274.364C274.28 291.595 274.134 291.239 273.926 290.932C273.722 290.625 273.472 290.367 273.176 290.159C272.884 289.947 272.561 289.788 272.205 289.682C271.848 289.576 271.477 289.523 271.091 289.523C270.386 289.523 269.748 289.701 269.176 290.057C268.608 290.413 268.155 290.938 267.818 291.631C267.485 292.324 267.318 293.174 267.318 294.182C267.318 295.189 267.485 296.04 267.818 296.733C268.155 297.426 268.608 297.951 269.176 298.307C269.748 298.663 270.386 298.841 271.091 298.841C271.477 298.841 271.848 298.788 272.205 298.682C272.561 298.576 272.884 298.419 273.176 298.21C273.472 297.998 273.722 297.739 273.926 297.432C274.134 297.121 274.28 296.765 274.364 296.364H275.773C275.667 296.958 275.473 297.491 275.193 297.96C274.913 298.43 274.564 298.83 274.148 299.159C273.731 299.485 273.263 299.733 272.744 299.903C272.229 300.074 271.678 300.159 271.091 300.159C270.098 300.159 269.216 299.917 268.443 299.432C267.67 298.947 267.063 298.258 266.619 297.364C266.176 296.47 265.955 295.409 265.955 294.182C265.955 292.955 266.176 291.894 266.619 291C267.063 290.106 267.67 289.417 268.443 288.932C269.216 288.447 270.098 288.205 271.091 288.205C271.678 288.205 272.229 288.29 272.744 288.46C273.263 288.631 273.731 288.881 274.148 289.21C274.564 289.536 274.913 289.934 275.193 290.403C275.473 290.869 275.667 291.402 275.773 292ZM281.413 300.182C280.625 300.182 279.934 299.994 279.339 299.619C278.749 299.244 278.286 298.72 277.953 298.045C277.624 297.371 277.459 296.583 277.459 295.682C277.459 294.773 277.624 293.979 277.953 293.301C278.286 292.623 278.749 292.097 279.339 291.722C279.934 291.347 280.625 291.159 281.413 291.159C282.201 291.159 282.891 291.347 283.482 291.722C284.076 292.097 284.538 292.623 284.868 293.301C285.201 293.979 285.368 294.773 285.368 295.682C285.368 296.583 285.201 297.371 284.868 298.045C284.538 298.72 284.076 299.244 283.482 299.619C282.891 299.994 282.201 300.182 281.413 300.182ZM281.413 298.977C282.012 298.977 282.504 298.824 282.891 298.517C283.277 298.21 283.563 297.807 283.749 297.307C283.934 296.807 284.027 296.265 284.027 295.682C284.027 295.098 283.934 294.555 283.749 294.051C283.563 293.547 283.277 293.14 282.891 292.83C282.504 292.519 282.012 292.364 281.413 292.364C280.815 292.364 280.322 292.519 279.936 292.83C279.55 293.14 279.264 293.547 279.078 294.051C278.893 294.555 278.8 295.098 278.8 295.682C278.8 296.265 278.893 296.807 279.078 297.307C279.264 297.807 279.55 298.21 279.936 298.517C280.322 298.824 280.815 298.977 281.413 298.977ZM288.756 294.75V300H287.415V291.273H288.71V292.636H288.824C289.028 292.193 289.339 291.837 289.756 291.568C290.172 291.295 290.71 291.159 291.369 291.159C291.96 291.159 292.477 291.28 292.92 291.523C293.364 291.761 293.708 292.125 293.955 292.614C294.201 293.098 294.324 293.712 294.324 294.455V300H292.983V294.545C292.983 293.86 292.805 293.326 292.449 292.943C292.093 292.557 291.604 292.364 290.983 292.364C290.555 292.364 290.172 292.456 289.835 292.642C289.502 292.828 289.239 293.098 289.045 293.455C288.852 293.811 288.756 294.242 288.756 294.75ZM300.661 291.273V292.409H295.956V291.273H300.661ZM297.365 300V290.068C297.365 289.568 297.482 289.152 297.717 288.818C297.952 288.485 298.257 288.235 298.632 288.068C299.007 287.902 299.403 287.818 299.82 287.818C300.149 287.818 300.418 287.845 300.626 287.898C300.835 287.951 300.99 288 301.092 288.045L300.706 289.205C300.638 289.182 300.543 289.153 300.422 289.119C300.304 289.085 300.149 289.068 299.956 289.068C299.513 289.068 299.193 289.18 298.996 289.403C298.803 289.627 298.706 289.955 298.706 290.386V300H297.365ZM302.54 300V291.273H303.881V300H302.54ZM303.222 289.818C302.96 289.818 302.735 289.729 302.545 289.551C302.36 289.373 302.267 289.159 302.267 288.909C302.267 288.659 302.36 288.445 302.545 288.267C302.735 288.089 302.96 288 303.222 288C303.483 288 303.706 288.089 303.892 288.267C304.081 288.445 304.176 288.659 304.176 288.909C304.176 289.159 304.081 289.373 303.892 289.551C303.706 289.729 303.483 289.818 303.222 289.818ZM306.337 300V291.273H307.632V292.591H307.723C307.882 292.159 308.17 291.809 308.587 291.54C309.003 291.271 309.473 291.136 309.996 291.136C310.094 291.136 310.217 291.138 310.365 291.142C310.513 291.146 310.625 291.152 310.7 291.159V292.523C310.655 292.511 310.551 292.494 310.388 292.472C310.229 292.445 310.06 292.432 309.882 292.432C309.458 292.432 309.079 292.521 308.746 292.699C308.416 292.873 308.155 293.116 307.962 293.426C307.772 293.733 307.678 294.083 307.678 294.477V300H306.337ZM312.29 300V291.273H313.585V292.636H313.699C313.881 292.17 314.174 291.809 314.58 291.551C314.985 291.29 315.472 291.159 316.04 291.159C316.616 291.159 317.095 291.29 317.477 291.551C317.864 291.809 318.165 292.17 318.381 292.636H318.472C318.695 292.186 319.03 291.828 319.477 291.562C319.924 291.294 320.46 291.159 321.085 291.159C321.866 291.159 322.504 291.403 323 291.892C323.496 292.377 323.744 293.133 323.744 294.159V300H322.403V294.159C322.403 293.515 322.227 293.055 321.875 292.778C321.523 292.502 321.108 292.364 320.631 292.364C320.017 292.364 319.542 292.549 319.205 292.92C318.867 293.288 318.699 293.754 318.699 294.318V300H317.335V294.023C317.335 293.527 317.174 293.127 316.852 292.824C316.53 292.517 316.116 292.364 315.608 292.364C315.259 292.364 314.934 292.456 314.631 292.642C314.331 292.828 314.089 293.085 313.903 293.415C313.722 293.741 313.631 294.117 313.631 294.545V300H312.29ZM328.764 300.205C328.211 300.205 327.709 300.1 327.259 299.892C326.808 299.68 326.45 299.375 326.185 298.977C325.92 298.576 325.787 298.091 325.787 297.523C325.787 297.023 325.885 296.617 326.082 296.307C326.279 295.992 326.543 295.746 326.872 295.568C327.202 295.39 327.565 295.258 327.963 295.17C328.365 295.08 328.768 295.008 329.173 294.955C329.704 294.886 330.134 294.835 330.463 294.801C330.796 294.763 331.039 294.701 331.19 294.614C331.346 294.527 331.423 294.375 331.423 294.159V294.114C331.423 293.553 331.27 293.117 330.963 292.807C330.66 292.496 330.2 292.341 329.582 292.341C328.942 292.341 328.44 292.481 328.077 292.761C327.713 293.042 327.457 293.341 327.31 293.659L326.037 293.205C326.264 292.674 326.567 292.261 326.946 291.966C327.329 291.667 327.745 291.458 328.196 291.341C328.651 291.22 329.098 291.159 329.537 291.159C329.817 291.159 330.139 291.193 330.503 291.261C330.87 291.326 331.224 291.46 331.565 291.665C331.91 291.869 332.196 292.178 332.423 292.591C332.651 293.004 332.764 293.557 332.764 294.25V300H331.423V298.818H331.355C331.264 299.008 331.113 299.21 330.901 299.426C330.688 299.642 330.406 299.826 330.054 299.977C329.702 300.129 329.272 300.205 328.764 300.205ZM328.969 299C329.499 299 329.946 298.896 330.31 298.688C330.677 298.479 330.954 298.21 331.139 297.881C331.329 297.551 331.423 297.205 331.423 296.841V295.614C331.366 295.682 331.241 295.744 331.048 295.801C330.859 295.854 330.639 295.902 330.389 295.943C330.143 295.981 329.902 296.015 329.668 296.045C329.437 296.072 329.249 296.095 329.105 296.114C328.757 296.159 328.431 296.233 328.128 296.335C327.829 296.434 327.586 296.583 327.401 296.784C327.219 296.981 327.128 297.25 327.128 297.591C327.128 298.057 327.3 298.409 327.645 298.648C327.993 298.883 328.435 299 328.969 299ZM335.212 300V291.273H336.507V292.591H336.598C336.757 292.159 337.045 291.809 337.462 291.54C337.878 291.271 338.348 291.136 338.871 291.136C338.969 291.136 339.092 291.138 339.24 291.142C339.388 291.146 339.5 291.152 339.575 291.159V292.523C339.53 292.511 339.426 292.494 339.263 292.472C339.104 292.445 338.935 292.432 338.757 292.432C338.333 292.432 337.954 292.521 337.621 292.699C337.291 292.873 337.03 293.116 336.837 293.426C336.647 293.733 336.553 294.083 336.553 294.477V300H335.212ZM352.21 291.273C352.142 290.697 351.866 290.25 351.381 289.932C350.896 289.614 350.301 289.455 349.597 289.455C349.081 289.455 348.631 289.538 348.244 289.705C347.862 289.871 347.563 290.1 347.347 290.392C347.134 290.684 347.028 291.015 347.028 291.386C347.028 291.697 347.102 291.964 347.25 292.188C347.402 292.407 347.595 292.591 347.83 292.739C348.064 292.883 348.311 293.002 348.568 293.097C348.826 293.187 349.062 293.261 349.278 293.318L350.46 293.636C350.763 293.716 351.1 293.826 351.472 293.966C351.847 294.106 352.205 294.297 352.545 294.54C352.89 294.778 353.174 295.085 353.398 295.46C353.621 295.835 353.733 296.295 353.733 296.841C353.733 297.47 353.568 298.038 353.239 298.545C352.913 299.053 352.436 299.456 351.807 299.756C351.182 300.055 350.422 300.205 349.528 300.205C348.695 300.205 347.973 300.07 347.364 299.801C346.758 299.532 346.28 299.157 345.932 298.676C345.587 298.195 345.392 297.636 345.347 297H346.801C346.839 297.439 346.987 297.803 347.244 298.091C347.506 298.375 347.835 298.587 348.233 298.727C348.634 298.864 349.066 298.932 349.528 298.932C350.066 298.932 350.549 298.845 350.977 298.67C351.405 298.492 351.744 298.246 351.994 297.932C352.244 297.614 352.369 297.242 352.369 296.818C352.369 296.432 352.261 296.117 352.045 295.875C351.83 295.633 351.545 295.436 351.193 295.284C350.841 295.133 350.46 295 350.051 294.886L348.619 294.477C347.71 294.216 346.991 293.843 346.46 293.358C345.93 292.873 345.665 292.239 345.665 291.455C345.665 290.803 345.841 290.235 346.193 289.75C346.549 289.261 347.027 288.883 347.625 288.614C348.227 288.341 348.9 288.205 349.642 288.205C350.392 288.205 351.059 288.339 351.642 288.608C352.225 288.873 352.688 289.237 353.028 289.699C353.373 290.161 353.555 290.686 353.574 291.273H352.21ZM359.527 300.182C358.686 300.182 357.961 299.996 357.351 299.625C356.745 299.25 356.277 298.727 355.947 298.057C355.622 297.383 355.459 296.598 355.459 295.705C355.459 294.811 355.622 294.023 355.947 293.341C356.277 292.655 356.735 292.121 357.322 291.739C357.913 291.352 358.603 291.159 359.391 291.159C359.845 291.159 360.294 291.235 360.737 291.386C361.18 291.538 361.584 291.784 361.947 292.125C362.311 292.462 362.601 292.909 362.817 293.466C363.033 294.023 363.141 294.708 363.141 295.523V296.091H356.413V294.932H361.777C361.777 294.439 361.679 294 361.482 293.614C361.288 293.227 361.012 292.922 360.652 292.699C360.296 292.475 359.875 292.364 359.391 292.364C358.857 292.364 358.394 292.496 358.004 292.761C357.618 293.023 357.321 293.364 357.112 293.784C356.904 294.205 356.8 294.655 356.8 295.136V295.909C356.8 296.568 356.913 297.127 357.141 297.585C357.372 298.04 357.692 298.386 358.101 298.625C358.51 298.86 358.985 298.977 359.527 298.977C359.879 298.977 360.197 298.928 360.482 298.83C360.769 298.727 361.018 298.576 361.226 298.375C361.434 298.17 361.595 297.917 361.709 297.614L363.004 297.977C362.868 298.417 362.639 298.803 362.317 299.136C361.995 299.466 361.597 299.723 361.124 299.909C360.65 300.091 360.118 300.182 359.527 300.182ZM366.521 294.75V300H365.18V291.273H366.476V292.636H366.589C366.794 292.193 367.105 291.837 367.521 291.568C367.938 291.295 368.476 291.159 369.135 291.159C369.726 291.159 370.243 291.28 370.686 291.523C371.129 291.761 371.474 292.125 371.72 292.614C371.966 293.098 372.089 293.712 372.089 294.455V300H370.749V294.545C370.749 293.86 370.571 293.326 370.214 292.943C369.858 292.557 369.37 292.364 368.749 292.364C368.321 292.364 367.938 292.456 367.601 292.642C367.268 292.828 367.004 293.098 366.811 293.455C366.618 293.811 366.521 294.242 366.521 294.75ZM375.881 294.75V300H374.54V288.364H375.881V292.636H375.994C376.199 292.186 376.506 291.828 376.915 291.562C377.328 291.294 377.877 291.159 378.562 291.159C379.157 291.159 379.678 291.278 380.125 291.517C380.572 291.752 380.919 292.114 381.165 292.602C381.415 293.087 381.54 293.705 381.54 294.455V300H380.199V294.545C380.199 293.852 380.019 293.316 379.659 292.938C379.303 292.555 378.809 292.364 378.176 292.364C377.737 292.364 377.343 292.456 376.994 292.642C376.65 292.828 376.377 293.098 376.176 293.455C375.979 293.811 375.881 294.242 375.881 294.75ZM386.561 300.205C386.008 300.205 385.506 300.1 385.055 299.892C384.605 299.68 384.247 299.375 383.982 298.977C383.716 298.576 383.584 298.091 383.584 297.523C383.584 297.023 383.682 296.617 383.879 296.307C384.076 295.992 384.339 295.746 384.669 295.568C384.999 295.39 385.362 295.258 385.76 295.17C386.161 295.08 386.565 295.008 386.97 294.955C387.5 294.886 387.93 294.835 388.26 294.801C388.593 294.763 388.836 294.701 388.987 294.614C389.143 294.527 389.22 294.375 389.22 294.159V294.114C389.22 293.553 389.067 293.117 388.76 292.807C388.457 292.496 387.997 292.341 387.379 292.341C386.739 292.341 386.237 292.481 385.874 292.761C385.51 293.042 385.254 293.341 385.107 293.659L383.834 293.205C384.061 292.674 384.364 292.261 384.743 291.966C385.125 291.667 385.542 291.458 385.993 291.341C386.447 291.22 386.894 291.159 387.334 291.159C387.614 291.159 387.936 291.193 388.3 291.261C388.667 291.326 389.021 291.46 389.362 291.665C389.707 291.869 389.993 292.178 390.22 292.591C390.447 293.004 390.561 293.557 390.561 294.25V300H389.22V298.818H389.152C389.061 299.008 388.91 299.21 388.697 299.426C388.485 299.642 388.203 299.826 387.851 299.977C387.499 300.129 387.069 300.205 386.561 300.205ZM386.766 299C387.296 299 387.743 298.896 388.107 298.688C388.474 298.479 388.75 298.21 388.936 297.881C389.125 297.551 389.22 297.205 389.22 296.841V295.614C389.163 295.682 389.038 295.744 388.845 295.801C388.656 295.854 388.436 295.902 388.186 295.943C387.94 295.981 387.699 296.015 387.464 296.045C387.233 296.072 387.046 296.095 386.902 296.114C386.554 296.159 386.228 296.233 385.925 296.335C385.625 296.434 385.383 296.583 385.197 296.784C385.016 296.981 384.925 297.25 384.925 297.591C384.925 298.057 385.097 298.409 385.442 298.648C385.79 298.883 386.232 299 386.766 299Z" fill="#495057"/>
<rect x="265.25" y="312.25" width="362.5" height="34.5" rx="7.75" stroke="#495057" stroke-opacity="0.5" stroke-width="0.5"/>
<rect x="377" y="361" width="119" height="33" rx="12" fill="#00363C"/>
<path fill-rule="evenodd" clip-rule="evenodd" d="M392.354 372.146C392.158 371.951 391.842 371.951 391.646 372.146L386.646 377.146C386.553 377.24 386.5 377.367 386.5 377.5C386.5 377.633 386.553 377.76 386.646 377.854L391.646 382.854C391.842 383.049 392.158 383.049 392.354 382.854C392.549 382.658 392.549 382.342 392.354 382.146L388.207 378H399C399.276 378 399.5 377.776 399.5 377.5C399.5 377.224 399.276 377 399 377H388.207L392.354 372.854C392.549 372.658 392.549 372.342 392.354 372.146Z" fill="#81D3DE"/>
<path d="M410.004 383V372.818H416.527V374.364H411.849V377.129H416.08V378.675H411.849V383H410.004ZM420.257 383.154C419.773 383.154 419.337 383.068 418.949 382.896C418.565 382.72 418.26 382.461 418.035 382.12C417.813 381.779 417.702 381.358 417.702 380.857C417.702 380.426 417.781 380.07 417.94 379.788C418.099 379.507 418.316 379.281 418.591 379.112C418.867 378.943 419.176 378.816 419.521 378.729C419.869 378.64 420.229 378.575 420.6 378.536C421.047 378.489 421.41 378.448 421.689 378.411C421.967 378.371 422.169 378.312 422.295 378.232C422.425 378.149 422.489 378.022 422.489 377.849V377.82C422.489 377.445 422.378 377.155 422.156 376.95C421.934 376.744 421.614 376.641 421.197 376.641C420.756 376.641 420.406 376.737 420.148 376.93C419.892 377.122 419.72 377.349 419.631 377.611L417.95 377.372C418.083 376.908 418.301 376.52 418.606 376.209C418.911 375.894 419.284 375.659 419.725 375.503C420.166 375.344 420.653 375.264 421.187 375.264C421.555 375.264 421.921 375.307 422.285 375.393C422.65 375.48 422.983 375.622 423.285 375.821C423.586 376.017 423.828 376.283 424.01 376.621C424.196 376.96 424.289 377.382 424.289 377.889V383H422.559V381.951H422.499C422.39 382.163 422.236 382.362 422.037 382.548C421.841 382.73 421.594 382.877 421.296 382.99C421.001 383.099 420.655 383.154 420.257 383.154ZM420.724 381.832C421.086 381.832 421.399 381.76 421.664 381.618C421.929 381.472 422.133 381.28 422.275 381.041C422.421 380.803 422.494 380.542 422.494 380.261V379.361C422.438 379.407 422.342 379.45 422.206 379.49C422.073 379.53 421.924 379.565 421.758 379.594C421.593 379.624 421.429 379.651 421.266 379.674C421.104 379.697 420.963 379.717 420.844 379.734C420.575 379.77 420.335 379.83 420.123 379.913C419.911 379.996 419.743 380.112 419.621 380.261C419.498 380.406 419.437 380.595 419.437 380.827C419.437 381.159 419.558 381.409 419.8 381.578C420.041 381.747 420.35 381.832 420.724 381.832ZM425.999 383V381.857L429.937 376.92V376.855H426.128V375.364H432.139V376.592L428.39 381.444V381.509H432.268V383H425.999ZM437.122 383.149C436.356 383.149 435.695 382.99 435.138 382.672C434.585 382.35 434.159 381.896 433.86 381.31C433.562 380.72 433.413 380.025 433.413 379.227C433.413 378.441 433.562 377.752 433.86 377.158C434.162 376.562 434.583 376.098 435.123 375.766C435.663 375.432 436.298 375.264 437.027 375.264C437.498 375.264 437.942 375.34 438.36 375.493C438.781 375.642 439.152 375.874 439.473 376.189C439.798 376.504 440.053 376.905 440.239 377.392C440.425 377.876 440.517 378.453 440.517 379.122V379.674H434.258V378.461H438.792C438.789 378.116 438.714 377.81 438.569 377.541C438.423 377.269 438.219 377.056 437.957 376.9C437.699 376.744 437.397 376.666 437.052 376.666C436.684 376.666 436.361 376.756 436.083 376.935C435.804 377.11 435.587 377.342 435.431 377.631C435.279 377.916 435.201 378.229 435.198 378.57V379.629C435.198 380.073 435.279 380.455 435.441 380.773C435.604 381.088 435.831 381.33 436.123 381.499C436.414 381.664 436.756 381.747 437.147 381.747C437.408 381.747 437.645 381.711 437.858 381.638C438.07 381.562 438.254 381.451 438.409 381.305C438.565 381.159 438.683 380.978 438.762 380.763L440.443 380.952C440.337 381.396 440.135 381.784 439.836 382.115C439.541 382.443 439.163 382.698 438.703 382.881C438.242 383.06 437.715 383.149 437.122 383.149ZM442.04 383V375.364H443.785V376.636H443.865C444.004 376.196 444.242 375.856 444.58 375.617C444.922 375.375 445.311 375.254 445.749 375.254C445.848 375.254 445.959 375.259 446.082 375.269C446.208 375.276 446.312 375.287 446.395 375.304V376.96C446.319 376.933 446.198 376.91 446.032 376.89C445.87 376.867 445.712 376.855 445.56 376.855C445.232 376.855 444.937 376.926 444.675 377.069C444.416 377.208 444.213 377.402 444.063 377.651C443.914 377.899 443.84 378.186 443.84 378.511V383H442.04ZM451.143 383V372.818H452.987V381.454H457.472V383H451.143ZM462.324 383.149C461.578 383.149 460.932 382.985 460.385 382.657C459.838 382.329 459.414 381.87 459.112 381.28C458.814 380.69 458.665 380 458.665 379.212C458.665 378.423 458.814 377.732 459.112 377.138C459.414 376.545 459.838 376.085 460.385 375.756C460.932 375.428 461.578 375.264 462.324 375.264C463.07 375.264 463.716 375.428 464.263 375.756C464.81 376.085 465.232 376.545 465.531 377.138C465.832 377.732 465.983 378.423 465.983 379.212C465.983 380 465.832 380.69 465.531 381.28C465.232 381.87 464.81 382.329 464.263 382.657C463.716 382.985 463.07 383.149 462.324 383.149ZM462.334 381.707C462.738 381.707 463.076 381.596 463.348 381.374C463.62 381.149 463.822 380.847 463.955 380.469C464.091 380.092 464.159 379.671 464.159 379.207C464.159 378.739 464.091 378.317 463.955 377.939C463.822 377.558 463.62 377.254 463.348 377.029C463.076 376.804 462.738 376.691 462.334 376.691C461.92 376.691 461.575 376.804 461.3 377.029C461.028 377.254 460.824 377.558 460.688 377.939C460.556 378.317 460.49 378.739 460.49 379.207C460.49 379.671 460.556 380.092 460.688 380.469C460.824 380.847 461.028 381.149 461.3 381.374C461.575 381.596 461.92 381.707 462.334 381.707ZM470.832 386.023C470.185 386.023 469.63 385.935 469.166 385.759C468.702 385.587 468.329 385.355 468.048 385.063C467.766 384.772 467.57 384.448 467.461 384.094L469.082 383.701C469.155 383.85 469.261 383.998 469.4 384.143C469.539 384.293 469.726 384.415 469.962 384.511C470.2 384.611 470.5 384.661 470.862 384.661C471.372 384.661 471.795 384.536 472.129 384.288C472.464 384.042 472.631 383.638 472.631 383.075V381.628H472.542C472.449 381.813 472.313 382.004 472.134 382.2C471.959 382.395 471.725 382.559 471.433 382.692C471.145 382.824 470.782 382.891 470.344 382.891C469.758 382.891 469.226 382.753 468.749 382.478C468.275 382.2 467.897 381.785 467.615 381.235C467.337 380.682 467.197 379.989 467.197 379.157C467.197 378.318 467.337 377.611 467.615 377.034C467.897 376.454 468.276 376.015 468.754 375.717C469.231 375.415 469.763 375.264 470.349 375.264C470.797 375.264 471.165 375.34 471.453 375.493C471.745 375.642 471.977 375.823 472.149 376.035C472.321 376.244 472.452 376.441 472.542 376.626H472.641V375.364H474.416V383.124C474.416 383.777 474.26 384.317 473.949 384.745C473.637 385.173 473.211 385.492 472.671 385.705C472.131 385.917 471.518 386.023 470.832 386.023ZM470.847 381.479C471.228 381.479 471.553 381.386 471.821 381.2C472.089 381.015 472.293 380.748 472.433 380.4C472.572 380.052 472.641 379.634 472.641 379.147C472.641 378.666 472.572 378.246 472.433 377.884C472.297 377.523 472.094 377.243 471.826 377.044C471.561 376.842 471.234 376.741 470.847 376.741C470.446 376.741 470.111 376.845 469.842 377.054C469.574 377.263 469.372 377.549 469.236 377.914C469.1 378.275 469.032 378.686 469.032 379.147C469.032 379.614 469.1 380.024 469.236 380.375C469.375 380.723 469.579 380.995 469.847 381.19C470.119 381.383 470.452 381.479 470.847 381.479ZM476.261 383V375.364H478.06V383H476.261ZM477.165 374.28C476.88 374.28 476.635 374.185 476.43 373.996C476.224 373.804 476.121 373.574 476.121 373.305C476.121 373.034 476.224 372.803 476.43 372.614C476.635 372.422 476.88 372.326 477.165 372.326C477.454 372.326 477.699 372.422 477.901 372.614C478.107 372.803 478.21 373.034 478.21 373.305C478.21 373.574 478.107 373.804 477.901 373.996C477.699 374.185 477.454 374.28 477.165 374.28ZM481.711 378.526V383H479.911V375.364H481.631V376.661H481.721C481.896 376.234 482.176 375.894 482.561 375.642C482.949 375.39 483.428 375.264 483.998 375.264C484.525 375.264 484.984 375.377 485.375 375.602C485.769 375.828 486.074 376.154 486.29 376.582C486.508 377.009 486.616 377.528 486.613 378.138V383H484.813V378.416C484.813 377.906 484.68 377.506 484.415 377.218C484.153 376.93 483.791 376.786 483.327 376.786C483.012 376.786 482.732 376.855 482.486 376.994C482.244 377.13 482.054 377.327 481.915 377.586C481.779 377.844 481.711 378.158 481.711 378.526Z" fill="#81D3DE"/>
<rect x="504" y="361" width="124" height="33" rx="12" fill="#B1CBCF"/>
<path d="M513.004 383V372.818H516.822C517.605 372.818 518.261 372.954 518.791 373.226C519.325 373.498 519.728 373.879 519.999 374.369C520.274 374.857 520.412 375.425 520.412 376.075C520.412 376.728 520.273 377.294 519.994 377.775C519.719 378.252 519.313 378.622 518.776 378.884C518.239 379.142 517.58 379.271 516.798 379.271H514.078V377.74H516.549C517.006 377.74 517.381 377.677 517.673 377.551C517.964 377.422 518.18 377.235 518.319 376.989C518.461 376.741 518.533 376.436 518.533 376.075C518.533 375.713 518.461 375.405 518.319 375.15C518.176 374.891 517.959 374.696 517.668 374.563C517.376 374.427 517 374.359 516.539 374.359H514.849V383H513.004ZM518.264 378.386L520.785 383H518.727L516.251 378.386H518.264ZM525.301 383.149C524.536 383.149 523.875 382.99 523.318 382.672C522.764 382.35 522.338 381.896 522.04 381.31C521.742 380.72 521.593 380.025 521.593 379.227C521.593 378.441 521.742 377.752 522.04 377.158C522.342 376.562 522.763 376.098 523.303 375.766C523.843 375.432 524.478 375.264 525.207 375.264C525.678 375.264 526.122 375.34 526.539 375.493C526.96 375.642 527.332 375.874 527.653 376.189C527.978 376.504 528.233 376.905 528.419 377.392C528.604 377.876 528.697 378.453 528.697 379.122V379.674H522.438V378.461H526.972C526.969 378.116 526.894 377.81 526.748 377.541C526.602 377.269 526.399 377.056 526.137 376.9C525.878 376.744 525.577 376.666 525.232 376.666C524.864 376.666 524.541 376.756 524.262 376.935C523.984 377.11 523.767 377.342 523.611 377.631C523.459 377.916 523.381 378.229 523.377 378.57V379.629C523.377 380.073 523.459 380.455 523.621 380.773C523.783 381.088 524.011 381.33 524.302 381.499C524.594 381.664 524.935 381.747 525.326 381.747C525.588 381.747 525.825 381.711 526.037 381.638C526.249 381.562 526.433 381.451 526.589 381.305C526.745 381.159 526.863 380.978 526.942 380.763L528.623 380.952C528.516 381.396 528.314 381.784 528.016 382.115C527.721 382.443 527.343 382.698 526.882 382.881C526.422 383.06 525.895 383.149 525.301 383.149ZM533.541 386.023C532.894 386.023 532.339 385.935 531.875 385.759C531.411 385.587 531.038 385.355 530.757 385.063C530.475 384.772 530.279 384.448 530.17 384.094L531.791 383.701C531.864 383.85 531.97 383.998 532.109 384.143C532.248 384.293 532.435 384.415 532.671 384.511C532.909 384.611 533.209 384.661 533.57 384.661C534.081 384.661 534.503 384.536 534.838 384.288C535.173 384.042 535.34 383.638 535.34 383.075V381.628H535.251C535.158 381.813 535.022 382.004 534.843 382.2C534.668 382.395 534.434 382.559 534.142 382.692C533.854 382.824 533.491 382.891 533.053 382.891C532.467 382.891 531.935 382.753 531.458 382.478C530.984 382.2 530.606 381.785 530.324 381.235C530.046 380.682 529.906 379.989 529.906 379.157C529.906 378.318 530.046 377.611 530.324 377.034C530.606 376.454 530.985 376.015 531.463 375.717C531.94 375.415 532.472 375.264 533.058 375.264C533.506 375.264 533.874 375.34 534.162 375.493C534.454 375.642 534.686 375.823 534.858 376.035C535.03 376.244 535.161 376.441 535.251 376.626H535.35V375.364H537.125V383.124C537.125 383.777 536.969 384.317 536.658 384.745C536.346 385.173 535.92 385.492 535.38 385.705C534.84 385.917 534.227 386.023 533.541 386.023ZM533.556 381.479C533.937 381.479 534.262 381.386 534.53 381.2C534.798 381.015 535.002 380.748 535.142 380.4C535.281 380.052 535.35 379.634 535.35 379.147C535.35 378.666 535.281 378.246 535.142 377.884C535.006 377.523 534.803 377.243 534.535 377.044C534.27 376.842 533.943 376.741 533.556 376.741C533.155 376.741 532.82 376.845 532.551 377.054C532.283 377.263 532.081 377.549 531.945 377.914C531.809 378.275 531.741 378.686 531.741 379.147C531.741 379.614 531.809 380.024 531.945 380.375C532.084 380.723 532.288 380.995 532.556 381.19C532.828 381.383 533.161 381.479 533.556 381.479ZM538.97 383V375.364H540.769V383H538.97ZM539.874 374.28C539.589 374.28 539.344 374.185 539.139 373.996C538.933 373.804 538.83 373.574 538.83 373.305C538.83 373.034 538.933 372.803 539.139 372.614C539.344 372.422 539.589 372.326 539.874 372.326C540.163 372.326 540.408 372.422 540.61 372.614C540.816 372.803 540.919 373.034 540.919 373.305C540.919 373.574 540.816 373.804 540.61 373.996C540.408 374.185 540.163 374.28 539.874 374.28ZM548.656 377.382L547.015 377.561C546.969 377.395 546.887 377.24 546.771 377.094C546.659 376.948 546.506 376.83 546.314 376.741C546.122 376.651 545.886 376.607 545.608 376.607C545.233 376.607 544.919 376.688 544.663 376.85C544.411 377.013 544.287 377.223 544.29 377.482C544.287 377.704 544.368 377.884 544.534 378.023C544.703 378.163 544.982 378.277 545.369 378.366L546.672 378.645C547.394 378.801 547.931 379.048 548.283 379.386C548.637 379.724 548.816 380.166 548.82 380.713C548.816 381.194 548.675 381.618 548.397 381.986C548.122 382.35 547.739 382.635 547.249 382.841C546.758 383.046 546.195 383.149 545.558 383.149C544.624 383.149 543.871 382.954 543.301 382.562C542.731 382.168 542.391 381.62 542.282 380.917L544.037 380.748C544.116 381.093 544.286 381.353 544.544 381.528C544.803 381.704 545.139 381.792 545.553 381.792C545.981 381.792 546.324 381.704 546.582 381.528C546.844 381.353 546.975 381.136 546.975 380.877C546.975 380.658 546.891 380.478 546.722 380.335C546.556 380.193 546.297 380.083 545.946 380.007L544.643 379.734C543.911 379.581 543.369 379.324 543.018 378.963C542.666 378.598 542.492 378.138 542.496 377.581C542.492 377.11 542.62 376.703 542.879 376.358C543.14 376.01 543.503 375.741 543.967 375.553C544.435 375.36 544.973 375.264 545.583 375.264C546.478 375.264 547.182 375.455 547.696 375.836C548.213 376.217 548.533 376.732 548.656 377.382ZM554.117 375.364V376.756H549.727V375.364H554.117ZM550.811 373.534H552.61V380.703C552.61 380.945 552.647 381.131 552.72 381.26C552.796 381.386 552.895 381.472 553.018 381.518C553.141 381.565 553.277 381.588 553.426 381.588C553.538 381.588 553.641 381.58 553.734 381.563C553.83 381.547 553.903 381.532 553.953 381.518L554.256 382.925C554.16 382.959 554.022 382.995 553.843 383.035C553.668 383.075 553.452 383.098 553.197 383.104C552.746 383.118 552.34 383.05 551.979 382.901C551.618 382.748 551.331 382.513 551.119 382.195C550.91 381.876 550.807 381.479 550.811 381.001V373.534ZM555.622 383V375.364H557.367V376.636H557.447C557.586 376.196 557.824 375.856 558.162 375.617C558.504 375.375 558.893 375.254 559.331 375.254C559.43 375.254 559.541 375.259 559.664 375.269C559.79 375.276 559.894 375.287 559.977 375.304V376.96C559.901 376.933 559.78 376.91 559.614 376.89C559.452 376.867 559.294 376.855 559.142 376.855C558.814 376.855 558.519 376.926 558.257 377.069C557.998 377.208 557.795 377.402 557.645 377.651C557.496 377.899 557.422 378.186 557.422 378.511V383H555.622ZM563.233 383.154C562.75 383.154 562.314 383.068 561.926 382.896C561.541 382.72 561.237 382.461 561.011 382.12C560.789 381.779 560.678 381.358 560.678 380.857C560.678 380.426 560.758 380.07 560.917 379.788C561.076 379.507 561.293 379.281 561.568 379.112C561.843 378.943 562.153 378.816 562.498 378.729C562.846 378.64 563.205 378.575 563.577 378.536C564.024 378.489 564.387 378.448 564.665 378.411C564.944 378.371 565.146 378.312 565.272 378.232C565.401 378.149 565.466 378.022 565.466 377.849V377.82C565.466 377.445 565.355 377.155 565.133 376.95C564.911 376.744 564.591 376.641 564.173 376.641C563.732 376.641 563.383 376.737 563.124 376.93C562.869 377.122 562.697 377.349 562.607 377.611L560.927 377.372C561.059 376.908 561.278 376.52 561.583 376.209C561.888 375.894 562.261 375.659 562.702 375.503C563.142 375.344 563.63 375.264 564.163 375.264C564.531 375.264 564.897 375.307 565.262 375.393C565.626 375.48 565.96 375.622 566.261 375.821C566.563 376.017 566.805 376.283 566.987 376.621C567.173 376.96 567.265 377.382 567.265 377.889V383H565.535V381.951H565.476C565.366 382.163 565.212 382.362 565.013 382.548C564.818 382.73 564.571 382.877 564.273 382.99C563.978 383.099 563.631 383.154 563.233 383.154ZM563.701 381.832C564.062 381.832 564.375 381.76 564.64 381.618C564.906 381.472 565.109 381.28 565.252 381.041C565.398 380.803 565.471 380.542 565.471 380.261V379.361C565.414 379.407 565.318 379.45 565.182 379.49C565.05 379.53 564.901 379.565 564.735 379.594C564.569 379.624 564.405 379.651 564.243 379.674C564.08 379.697 563.939 379.717 563.82 379.734C563.552 379.77 563.311 379.83 563.099 379.913C562.887 379.996 562.72 380.112 562.597 380.261C562.474 380.406 562.413 380.595 562.413 380.827C562.413 381.159 562.534 381.409 562.776 381.578C563.018 381.747 563.326 381.832 563.701 381.832ZM569.075 383V375.364H570.82V376.636H570.9C571.039 376.196 571.278 375.856 571.616 375.617C571.957 375.375 572.346 375.254 572.784 375.254C572.883 375.254 572.994 375.259 573.117 375.269C573.243 375.276 573.347 375.287 573.43 375.304V376.96C573.354 376.933 573.233 376.91 573.067 376.89C572.905 376.867 572.747 376.855 572.595 376.855C572.267 376.855 571.972 376.926 571.71 377.069C571.452 377.208 571.248 377.402 571.099 377.651C570.949 377.899 570.875 378.186 570.875 378.511V383H569.075ZM578.913 378.018V379.5H574.329V378.018H578.913ZM586.841 377.382L585.2 377.561C585.154 377.395 585.073 377.24 584.957 377.094C584.844 376.948 584.692 376.83 584.499 376.741C584.307 376.651 584.072 376.607 583.794 376.607C583.419 376.607 583.104 376.688 582.849 376.85C582.597 377.013 582.473 377.223 582.476 377.482C582.473 377.704 582.554 377.884 582.72 378.023C582.889 378.163 583.167 378.277 583.555 378.366L584.857 378.645C585.58 378.801 586.117 379.048 586.468 379.386C586.823 379.724 587.002 380.166 587.005 380.713C587.002 381.194 586.861 381.618 586.583 381.986C586.307 382.35 585.925 382.635 585.434 382.841C584.944 383.046 584.38 383.149 583.744 383.149C582.809 383.149 582.057 382.954 581.487 382.562C580.917 382.168 580.577 381.62 580.468 380.917L582.222 380.748C582.302 381.093 582.471 381.353 582.73 381.528C582.988 381.704 583.325 381.792 583.739 381.792C584.166 381.792 584.509 381.704 584.768 381.528C585.03 381.353 585.161 381.136 585.161 380.877C585.161 380.658 585.076 380.478 584.907 380.335C584.741 380.193 584.483 380.083 584.132 380.007L582.829 379.734C582.097 379.581 581.555 379.324 581.203 378.963C580.852 378.598 580.678 378.138 580.681 377.581C580.678 377.11 580.806 376.703 581.064 376.358C581.326 376.01 581.689 375.741 582.153 375.553C582.62 375.36 583.159 375.264 583.769 375.264C584.664 375.264 585.368 375.455 585.882 375.836C586.399 376.217 586.718 376.732 586.841 377.382ZM591.87 383.149C591.104 383.149 590.443 382.99 589.886 382.672C589.333 382.35 588.907 381.896 588.608 381.31C588.31 380.72 588.161 380.025 588.161 379.227C588.161 378.441 588.31 377.752 588.608 377.158C588.91 376.562 589.331 376.098 589.871 375.766C590.412 375.432 591.046 375.264 591.775 375.264C592.246 375.264 592.69 375.34 593.108 375.493C593.529 375.642 593.9 375.874 594.221 376.189C594.546 376.504 594.801 376.905 594.987 377.392C595.173 377.876 595.265 378.453 595.265 379.122V379.674H589.006V378.461H593.54C593.537 378.116 593.462 377.81 593.317 377.541C593.171 377.269 592.967 377.056 592.705 376.9C592.447 376.744 592.145 376.666 591.8 376.666C591.432 376.666 591.109 376.756 590.831 376.935C590.552 377.11 590.335 377.342 590.18 377.631C590.027 377.916 589.949 378.229 589.946 378.57V379.629C589.946 380.073 590.027 380.455 590.189 380.773C590.352 381.088 590.579 381.33 590.871 381.499C591.162 381.664 591.504 381.747 591.895 381.747C592.157 381.747 592.394 381.711 592.606 381.638C592.818 381.562 593.002 381.451 593.157 381.305C593.313 381.159 593.431 380.978 593.51 380.763L595.191 380.952C595.085 381.396 594.883 381.784 594.584 382.115C594.289 382.443 593.912 382.698 593.451 382.881C592.99 383.06 592.463 383.149 591.87 383.149Z" fill="#1C3437"/>
<path fill-rule="evenodd" clip-rule="evenodd" d="M612.646 372.146C612.842 371.951 613.158 371.951 613.354 372.146L618.354 377.146C618.447 377.24 618.5 377.367 618.5 377.5C618.5 377.633 618.447 377.76 618.354 377.854L613.354 382.854C613.158 383.049 612.842 383.049 612.646 382.854C612.451 382.658 612.451 382.342 612.646 382.146L616.793 378H606C605.724 378 605.5 377.776 605.5 377.5C605.5 377.224 605.724 377 606 377H616.793L612.646 372.854C612.451 372.658 612.451 372.342 612.646 372.146Z" fill="#1C3437"/>
<path d="M101.568 211.76L93.216 234H88.992L80.608 211.76H84.512L91.104 230.256L97.728 211.76H101.568ZM106.475 214.032C105.813 214.032 105.259 213.808 104.811 213.36C104.363 212.912 104.139 212.357 104.139 211.696C104.139 211.035 104.363 210.48 104.811 210.032C105.259 209.584 105.813 209.36 106.475 209.36C107.115 209.36 107.659 209.584 108.107 210.032C108.555 210.48 108.779 211.035 108.779 211.696C108.779 212.357 108.555 212.912 108.107 213.36C107.659 213.808 107.115 214.032 106.475 214.032ZM108.267 216.368V234H104.619V216.368H108.267ZM111.84 225.104C111.84 223.333 112.203 221.765 112.928 220.4C113.675 219.035 114.678 217.979 115.936 217.232C117.216 216.464 118.635 216.08 120.192 216.08C121.344 216.08 122.475 216.336 123.584 216.848C124.715 217.339 125.611 218 126.272 218.832V210.32H129.952V234H126.272V231.344C125.675 232.197 124.843 232.901 123.776 233.456C122.731 234.011 121.526 234.288 120.16 234.288C118.624 234.288 117.216 233.904 115.936 233.136C114.678 232.347 113.675 231.259 112.928 229.872C112.203 228.464 111.84 226.875 111.84 225.104ZM126.272 225.168C126.272 223.952 126.016 222.896 125.504 222C125.014 221.104 124.363 220.421 123.552 219.952C122.742 219.483 121.867 219.248 120.928 219.248C119.99 219.248 119.115 219.483 118.304 219.952C117.494 220.4 116.832 221.072 116.32 221.968C115.83 222.843 115.584 223.888 115.584 225.104C115.584 226.32 115.83 227.387 116.32 228.304C116.832 229.221 117.494 229.925 118.304 230.416C119.136 230.885 120.011 231.12 120.928 231.12C121.867 231.12 122.742 230.885 123.552 230.416C124.363 229.947 125.014 229.264 125.504 228.368C126.016 227.451 126.272 226.384 126.272 225.168ZM133.528 225.104C133.528 223.333 133.89 221.765 134.616 220.4C135.362 219.035 136.365 217.979 137.624 217.232C138.904 216.464 140.312 216.08 141.848 216.08C143.234 216.08 144.44 216.357 145.464 216.912C146.509 217.445 147.341 218.117 147.96 218.928V216.368H151.64V234H147.96V231.376C147.341 232.208 146.498 232.901 145.432 233.456C144.365 234.011 143.149 234.288 141.784 234.288C140.269 234.288 138.882 233.904 137.624 233.136C136.365 232.347 135.362 231.259 134.616 229.872C133.89 228.464 133.528 226.875 133.528 225.104ZM147.96 225.168C147.96 223.952 147.704 222.896 147.192 222C146.701 221.104 146.05 220.421 145.24 219.952C144.429 219.483 143.554 219.248 142.616 219.248C141.677 219.248 140.802 219.483 139.992 219.952C139.181 220.4 138.52 221.072 138.008 221.968C137.517 222.843 137.272 223.888 137.272 225.104C137.272 226.32 137.517 227.387 138.008 228.304C138.52 229.221 139.181 229.925 139.992 230.416C140.824 230.885 141.698 231.12 142.616 231.12C143.554 231.12 144.429 230.885 145.24 230.416C146.05 229.947 146.701 229.264 147.192 228.368C147.704 227.451 147.96 226.384 147.96 225.168ZM173.615 223.984H167.151V230.608H163.759V223.984H157.295V220.912H163.759V214.288H167.151V220.912H173.615V223.984Z" fill="url(#paint0_linear_1_189)"/>
<defs>
<linearGradient id="paint0_linear_1_189" x1="80" y1="199" x2="128.5" y2="247" gradientUnits="userSpaceOnUse">
<stop stop-color="#00363C"/>
<stop offset="1" stop-color="#B1CBCF"/>
</linearGradient>
</defs>
</svg>
