<svg width="600" height="600" viewBox="0 0 600 600" fill="none" xmlns="http://www.w3.org/2000/svg">
<rect width="600" height="600" fill="white"/>
<rect x="25" y="542" width="551" height="49" rx="14" fill="#E6E6E6" fill-opacity="0.29"/>
<rect x="33.25" y="550.25" width="120.5" height="32.5" rx="7.75" stroke="#495057" stroke-opacity="0.5" stroke-width="0.5"/>
<path fill-rule="evenodd" clip-rule="evenodd" d="M45.5 558.25C44.7044 558.25 43.9413 558.566 43.3787 559.129C42.8161 559.691 42.5 560.454 42.5 561.25V571.75C42.5 572.546 42.8161 573.309 43.3787 573.871C43.9413 574.434 44.7044 574.75 45.5 574.75H60.5C61.2956 574.75 62.0587 574.434 62.6213 573.871C63.1839 573.309 63.5 572.546 63.5 571.75V561.25C63.5 560.454 63.1839 559.691 62.6213 559.129C62.0587 558.566 61.2956 558.25 60.5 558.25H45.5ZM49.625 561.25C49.0283 561.25 48.456 561.487 48.034 561.909C47.6121 562.331 47.375 562.903 47.375 563.5C47.375 564.097 47.6121 564.669 48.034 565.091C48.456 565.513 49.0283 565.75 49.625 565.75C50.2217 565.75 50.794 565.513 51.216 565.091C51.6379 564.669 51.875 564.097 51.875 563.5C51.875 562.903 51.6379 562.331 51.216 561.909C50.794 561.487 50.2217 561.25 49.625 561.25ZM45.752 569.953C46.0432 569.16 46.5708 568.476 47.2634 567.992C47.956 567.509 48.7803 567.25 49.625 567.25C50.4697 567.25 51.294 567.509 51.9866 567.992C52.6792 568.476 53.2068 569.16 53.498 569.953C53.5603 570.123 53.5591 570.31 53.4946 570.479C53.4301 570.648 53.3067 570.788 53.147 570.873C52.063 571.45 50.8532 571.752 49.625 571.75C48.3968 571.752 47.187 571.45 46.103 570.873C45.9433 570.788 45.8199 570.648 45.7554 570.479C45.6909 570.31 45.6897 570.123 45.752 569.953ZM56 562.75C55.8011 562.75 55.6103 562.829 55.4697 562.97C55.329 563.11 55.25 563.301 55.25 563.5C55.25 563.699 55.329 563.89 55.4697 564.03C55.6103 564.171 55.8011 564.25 56 564.25H59.75C59.9489 564.25 60.1397 564.171 60.2803 564.03C60.421 563.89 60.5 563.699 60.5 563.5C60.5 563.301 60.421 563.11 60.2803 562.97C60.1397 562.829 59.9489 562.75 59.75 562.75H56ZM55.25 566.5C55.25 566.301 55.329 566.11 55.4697 565.97C55.6103 565.829 55.8011 565.75 56 565.75H59.75C59.9489 565.75 60.1397 565.829 60.2803 565.97C60.421 566.11 60.5 566.301 60.5 566.5C60.5 566.699 60.421 566.89 60.2803 567.03C60.1397 567.171 59.9489 567.25 59.75 567.25H56C55.8011 567.25 55.6103 567.171 55.4697 567.03C55.329 566.89 55.25 566.699 55.25 566.5ZM56 568.75C55.8011 568.75 55.6103 568.829 55.4697 568.97C55.329 569.11 55.25 569.301 55.25 569.5C55.25 569.699 55.329 569.89 55.4697 570.03C55.6103 570.171 55.8011 570.25 56 570.25H59.75C59.9489 570.25 60.1397 570.171 60.2803 570.03C60.421 569.89 60.5 569.699 60.5 569.5C60.5 569.301 60.421 569.11 60.2803 568.97C60.1397 568.829 59.9489 568.75 59.75 568.75H56Z" fill="black"/>
<rect x="160.25" y="550.25" width="120.5" height="32.5" rx="7.75" stroke="#495057" stroke-opacity="0.5" stroke-width="0.5"/>
<rect x="287" y="550" width="142" height="33" rx="12" fill="#00363C"/>
<path d="M297.312 572H295.343L298.928 561.818H301.205L304.794 572H302.825L300.106 563.906H300.026L297.312 572ZM297.376 568.008H302.746V569.489H297.376V568.008ZM309.39 564.364V565.756H305V564.364H309.39ZM306.084 562.534H307.884V569.703C307.884 569.945 307.92 570.131 307.993 570.26C308.069 570.386 308.169 570.472 308.292 570.518C308.414 570.565 308.55 570.588 308.699 570.588C308.812 570.588 308.915 570.58 309.007 570.563C309.104 570.547 309.176 570.532 309.226 570.518L309.529 571.925C309.433 571.959 309.296 571.995 309.117 572.035C308.941 572.075 308.726 572.098 308.471 572.104C308.02 572.118 307.614 572.05 307.252 571.901C306.891 571.748 306.605 571.513 306.392 571.195C306.184 570.876 306.081 570.479 306.084 570.001V562.534ZM315.763 568.788V564.364H317.562V572H315.817V570.643H315.738C315.565 571.07 315.282 571.42 314.888 571.692C314.497 571.964 314.014 572.099 313.441 572.099C312.94 572.099 312.498 571.988 312.113 571.766C311.732 571.541 311.434 571.214 311.219 570.787C311.003 570.356 310.895 569.836 310.895 569.226V564.364H312.695V568.947C312.695 569.431 312.828 569.816 313.093 570.101C313.358 570.386 313.706 570.528 314.137 570.528C314.402 570.528 314.659 570.464 314.907 570.335C315.156 570.205 315.36 570.013 315.519 569.758C315.681 569.499 315.763 569.176 315.763 568.788ZM321.61 572.154C321.127 572.154 320.691 572.068 320.303 571.896C319.918 571.72 319.614 571.461 319.388 571.12C319.166 570.779 319.055 570.358 319.055 569.857C319.055 569.426 319.135 569.07 319.294 568.788C319.453 568.507 319.67 568.281 319.945 568.112C320.22 567.943 320.53 567.816 320.875 567.729C321.223 567.64 321.582 567.575 321.953 567.536C322.401 567.489 322.764 567.448 323.042 567.411C323.321 567.371 323.523 567.312 323.649 567.232C323.778 567.149 323.843 567.022 323.843 566.849V566.82C323.843 566.445 323.732 566.155 323.51 565.95C323.288 565.744 322.968 565.641 322.55 565.641C322.109 565.641 321.76 565.737 321.501 565.93C321.246 566.122 321.074 566.349 320.984 566.611L319.304 566.372C319.436 565.908 319.655 565.52 319.96 565.209C320.265 564.894 320.638 564.659 321.078 564.503C321.519 564.344 322.007 564.264 322.54 564.264C322.908 564.264 323.274 564.307 323.639 564.393C324.003 564.48 324.337 564.622 324.638 564.821C324.94 565.017 325.182 565.283 325.364 565.621C325.55 565.96 325.642 566.382 325.642 566.889V572H323.912V570.951H323.853C323.743 571.163 323.589 571.362 323.39 571.548C323.195 571.73 322.948 571.877 322.65 571.99C322.355 572.099 322.008 572.154 321.61 572.154ZM322.078 570.832C322.439 570.832 322.752 570.76 323.017 570.618C323.283 570.472 323.486 570.28 323.629 570.041C323.775 569.803 323.848 569.542 323.848 569.261V568.361C323.791 568.407 323.695 568.45 323.559 568.49C323.427 568.53 323.278 568.565 323.112 568.594C322.946 568.624 322.782 568.651 322.62 568.674C322.457 568.697 322.316 568.717 322.197 568.734C321.929 568.77 321.688 568.83 321.476 568.913C321.264 568.996 321.097 569.112 320.974 569.261C320.851 569.406 320.79 569.595 320.79 569.827C320.79 570.159 320.911 570.409 321.153 570.578C321.395 570.747 321.703 570.832 322.078 570.832ZM329.252 561.818V572H327.452V561.818H329.252ZM331.102 572V564.364H332.902V572H331.102ZM332.007 563.28C331.722 563.28 331.477 563.185 331.271 562.996C331.066 562.804 330.963 562.574 330.963 562.305C330.963 562.034 331.066 561.803 331.271 561.614C331.477 561.422 331.722 561.326 332.007 561.326C332.296 561.326 332.541 561.422 332.743 561.614C332.949 561.803 333.051 562.034 333.051 562.305C333.051 562.574 332.949 562.804 332.743 562.996C332.541 563.185 332.296 563.28 332.007 563.28ZM334.653 572V570.857L338.591 565.92V565.855H334.783V564.364H340.793V565.592L337.045 570.444V570.509H340.923V572H334.653ZM344.812 572.154C344.328 572.154 343.892 572.068 343.504 571.896C343.12 571.72 342.815 571.461 342.589 571.12C342.367 570.779 342.256 570.358 342.256 569.857C342.256 569.426 342.336 569.07 342.495 568.788C342.654 568.507 342.871 568.281 343.146 568.112C343.421 567.943 343.731 567.816 344.076 567.729C344.424 567.64 344.783 567.575 345.155 567.536C345.602 567.489 345.965 567.448 346.243 567.411C346.522 567.371 346.724 567.312 346.85 567.232C346.979 567.149 347.044 567.022 347.044 566.849V566.82C347.044 566.445 346.933 566.155 346.711 565.95C346.489 565.744 346.169 565.641 345.751 565.641C345.31 565.641 344.961 565.737 344.702 565.93C344.447 566.122 344.275 566.349 344.185 566.611L342.505 566.372C342.637 565.908 342.856 565.52 343.161 565.209C343.466 564.894 343.839 564.659 344.28 564.503C344.72 564.344 345.208 564.264 345.741 564.264C346.109 564.264 346.475 564.307 346.84 564.393C347.205 564.48 347.538 564.622 347.839 564.821C348.141 565.017 348.383 565.283 348.565 565.621C348.751 565.96 348.844 566.382 348.844 566.889V572H347.113V570.951H347.054C346.944 571.163 346.79 571.362 346.591 571.548C346.396 571.73 346.149 571.877 345.851 571.99C345.556 572.099 345.209 572.154 344.812 572.154ZM345.279 570.832C345.64 570.832 345.953 570.76 346.219 570.618C346.484 570.472 346.688 570.28 346.83 570.041C346.976 569.803 347.049 569.542 347.049 569.261V568.361C346.992 568.407 346.896 568.45 346.76 568.49C346.628 568.53 346.479 568.565 346.313 568.594C346.147 568.624 345.983 568.651 345.821 568.674C345.658 568.697 345.518 568.717 345.398 568.734C345.13 568.77 344.89 568.83 344.677 568.913C344.465 568.996 344.298 569.112 344.175 569.261C344.053 569.406 343.991 569.595 343.991 569.827C343.991 570.159 344.112 570.409 344.354 570.578C344.596 570.747 344.904 570.832 345.279 570.832ZM350.653 572V564.364H352.398V565.636H352.478C352.617 565.196 352.856 564.856 353.194 564.617C353.535 564.375 353.925 564.254 354.362 564.254C354.461 564.254 354.573 564.259 354.695 564.269C354.821 564.276 354.925 564.287 355.008 564.304V565.96C354.932 565.933 354.811 565.91 354.645 565.89C354.483 565.867 354.326 565.855 354.173 565.855C353.845 565.855 353.55 565.926 353.288 566.069C353.03 566.208 352.826 566.402 352.677 566.651C352.528 566.899 352.453 567.186 352.453 567.511V572H350.653ZM359.756 572V561.818H363.574C364.357 561.818 365.013 561.954 365.543 562.226C366.077 562.498 366.479 562.879 366.751 563.369C367.026 563.857 367.164 564.425 367.164 565.075C367.164 565.728 367.025 566.294 366.746 566.775C366.471 567.252 366.065 567.622 365.528 567.884C364.991 568.142 364.332 568.271 363.55 568.271H360.83V566.74H363.301C363.758 566.74 364.133 566.677 364.425 566.551C364.716 566.422 364.932 566.235 365.071 565.989C365.213 565.741 365.285 565.436 365.285 565.075C365.285 564.713 365.213 564.405 365.071 564.15C364.928 563.891 364.711 563.696 364.42 563.563C364.128 563.427 363.752 563.359 363.291 563.359H361.601V572H359.756ZM365.016 567.386L367.537 572H365.479L363.003 567.386H365.016ZM372.004 572.149C371.258 572.149 370.612 571.985 370.065 571.657C369.518 571.329 369.094 570.87 368.792 570.28C368.494 569.69 368.345 569 368.345 568.212C368.345 567.423 368.494 566.732 368.792 566.138C369.094 565.545 369.518 565.085 370.065 564.756C370.612 564.428 371.258 564.264 372.004 564.264C372.749 564.264 373.396 564.428 373.943 564.756C374.49 565.085 374.912 565.545 375.21 566.138C375.512 566.732 375.663 567.423 375.663 568.212C375.663 569 375.512 569.69 375.21 570.28C374.912 570.87 374.49 571.329 373.943 571.657C373.396 571.985 372.749 572.149 372.004 572.149ZM372.014 570.707C372.418 570.707 372.756 570.596 373.028 570.374C373.3 570.149 373.502 569.847 373.634 569.469C373.77 569.092 373.838 568.671 373.838 568.207C373.838 567.739 373.77 567.317 373.634 566.939C373.502 566.558 373.3 566.254 373.028 566.029C372.756 565.804 372.418 565.691 372.014 565.691C371.599 565.691 371.255 565.804 370.98 566.029C370.708 566.254 370.504 566.558 370.368 566.939C370.235 567.317 370.169 567.739 370.169 568.207C370.169 568.671 370.235 569.092 370.368 569.469C370.504 569.847 370.708 570.149 370.98 570.374C371.255 570.596 371.599 570.707 372.014 570.707ZM378.99 561.818V572H377.19V561.818H378.99ZM384.221 572.149C383.456 572.149 382.795 571.99 382.238 571.672C381.684 571.35 381.258 570.896 380.96 570.31C380.662 569.72 380.513 569.025 380.513 568.227C380.513 567.441 380.662 566.752 380.96 566.158C381.262 565.562 381.683 565.098 382.223 564.766C382.763 564.432 383.398 564.264 384.127 564.264C384.598 564.264 385.042 564.34 385.459 564.493C385.88 564.642 386.251 564.874 386.573 565.189C386.898 565.504 387.153 565.905 387.339 566.392C387.524 566.876 387.617 567.453 387.617 568.122V568.674H381.358V567.461H385.892C385.889 567.116 385.814 566.81 385.668 566.541C385.522 566.269 385.318 566.056 385.057 565.9C384.798 565.744 384.497 565.666 384.152 565.666C383.784 565.666 383.461 565.756 383.182 565.935C382.904 566.11 382.687 566.342 382.531 566.631C382.379 566.916 382.301 567.229 382.297 567.57V568.629C382.297 569.073 382.379 569.455 382.541 569.773C382.703 570.088 382.93 570.33 383.222 570.499C383.514 570.664 383.855 570.747 384.246 570.747C384.508 570.747 384.745 570.711 384.957 570.638C385.169 570.562 385.353 570.451 385.509 570.305C385.665 570.159 385.782 569.978 385.862 569.763L387.542 569.952C387.436 570.396 387.234 570.784 386.936 571.115C386.641 571.443 386.263 571.698 385.802 571.881C385.342 572.06 384.815 572.149 384.221 572.149Z" fill="#81D3DE"/>
<path fill-rule="evenodd" clip-rule="evenodd" d="M401.755 564.559C402.095 563.287 402.765 562.127 403.696 561.196C404.626 560.265 405.786 559.595 407.058 559.254C408.33 558.913 409.669 558.913 410.94 559.254C412.212 559.595 413.372 560.264 414.303 561.195L416.206 563.098H413.023C412.824 563.098 412.633 563.177 412.493 563.318C412.352 563.458 412.273 563.649 412.273 563.848C412.273 564.047 412.352 564.238 412.493 564.378C412.633 564.519 412.824 564.598 413.023 564.598H418.015C418.214 564.598 418.405 564.519 418.545 564.378C418.686 564.238 418.765 564.047 418.765 563.848V558.856C418.765 558.657 418.686 558.466 418.545 558.326C418.405 558.185 418.214 558.106 418.015 558.106C417.816 558.106 417.625 558.185 417.485 558.326C417.344 558.466 417.265 558.657 417.265 558.856V562.036L415.365 560.136C414.248 559.018 412.856 558.215 411.33 557.805C409.804 557.396 408.197 557.396 406.671 557.805C405.144 558.214 403.753 559.017 402.636 560.135C401.518 561.252 400.715 562.644 400.306 564.17C400.281 564.265 400.274 564.364 400.287 564.462C400.3 564.56 400.332 564.654 400.381 564.739C400.43 564.825 400.496 564.9 400.574 564.96C400.653 565.02 400.742 565.064 400.837 565.089C400.932 565.114 401.032 565.121 401.129 565.108C401.227 565.095 401.321 565.063 401.406 565.014C401.492 564.965 401.567 564.899 401.627 564.821C401.687 564.742 401.731 564.653 401.756 564.558L401.755 564.559ZM417.163 567.911C417.068 567.885 416.969 567.879 416.871 567.892C416.773 567.904 416.679 567.936 416.594 567.986C416.508 568.035 416.434 568.1 416.374 568.179C416.314 568.257 416.27 568.346 416.244 568.441C415.904 569.713 415.234 570.873 414.303 571.804C413.373 572.735 412.213 573.405 410.941 573.746C409.669 574.087 408.33 574.087 407.059 573.746C405.787 573.405 404.627 572.736 403.696 571.805L401.794 569.902H404.977C405.176 569.902 405.367 569.823 405.507 569.682C405.648 569.542 405.727 569.351 405.727 569.152C405.727 568.953 405.648 568.762 405.507 568.622C405.367 568.481 405.176 568.402 404.977 568.402H399.984C399.785 568.402 399.594 568.481 399.454 568.622C399.313 568.762 399.234 568.953 399.234 569.152V574.144C399.234 574.343 399.313 574.534 399.454 574.674C399.594 574.815 399.785 574.894 399.984 574.894C400.183 574.894 400.374 574.815 400.514 574.674C400.655 574.534 400.734 574.343 400.734 574.144V570.964L402.634 572.864C403.751 573.982 405.143 574.785 406.669 575.194C408.195 575.604 409.802 575.604 411.329 575.195C412.855 574.786 414.247 573.982 415.364 572.865C416.481 571.747 417.284 570.355 417.693 568.829C417.744 568.637 417.717 568.432 417.618 568.26C417.519 568.088 417.355 567.963 417.163 567.911Z" fill="#81D3DE"/>
<rect x="435" y="551" width="133" height="32" rx="12" fill="#FFB4AB"/>
<path d="M444.004 572.5V562.318H450.626V563.864H445.849V566.629H450.283V568.175H445.849V570.954H450.666V572.5H444.004ZM453.9 564.864L455.441 567.683L457.007 564.864H458.912L456.61 568.682L458.951 572.5H457.057L455.441 569.751L453.841 572.5H451.931L454.258 568.682L451.991 564.864H453.9ZM463.347 572.649C462.585 572.649 461.931 572.482 461.384 572.147C460.84 571.812 460.421 571.35 460.126 570.76C459.834 570.167 459.688 569.484 459.688 568.712C459.688 567.936 459.838 567.252 460.136 566.658C460.434 566.062 460.855 565.598 461.399 565.266C461.945 564.932 462.592 564.764 463.338 564.764C463.957 564.764 464.506 564.879 464.983 565.107C465.464 565.333 465.847 565.652 466.132 566.067C466.417 566.478 466.579 566.958 466.619 567.509H464.899C464.829 567.141 464.663 566.834 464.401 566.589C464.143 566.34 463.797 566.216 463.362 566.216C462.994 566.216 462.671 566.315 462.393 566.514C462.115 566.71 461.897 566.991 461.742 567.359C461.589 567.727 461.513 568.168 461.513 568.682C461.513 569.202 461.589 569.65 461.742 570.024C461.894 570.395 462.108 570.682 462.383 570.884C462.661 571.083 462.988 571.183 463.362 571.183C463.628 571.183 463.865 571.133 464.073 571.033C464.285 570.931 464.463 570.783 464.605 570.591C464.748 570.399 464.846 570.165 464.899 569.89H466.619C466.576 570.43 466.417 570.909 466.142 571.327C465.866 571.741 465.492 572.066 465.018 572.301C464.544 572.533 463.987 572.649 463.347 572.649ZM469.896 562.318V572.5H468.097V562.318H469.896ZM476.614 569.288V564.864H478.414V572.5H476.669V571.143H476.589C476.417 571.57 476.134 571.92 475.739 572.192C475.348 572.464 474.866 572.599 474.292 572.599C473.792 572.599 473.349 572.488 472.965 572.266C472.584 572.041 472.286 571.714 472.07 571.287C471.855 570.856 471.747 570.336 471.747 569.726V564.864H473.547V569.447C473.547 569.931 473.679 570.316 473.944 570.601C474.21 570.886 474.558 571.028 474.988 571.028C475.254 571.028 475.51 570.964 475.759 570.835C476.008 570.705 476.211 570.513 476.371 570.258C476.533 569.999 476.614 569.676 476.614 569.288ZM480.265 572.5V564.864H482.064V572.5H480.265ZM481.169 563.78C480.884 563.78 480.639 563.685 480.434 563.496C480.228 563.304 480.125 563.074 480.125 562.805C480.125 562.534 480.228 562.303 480.434 562.114C480.639 561.922 480.884 561.826 481.169 561.826C481.458 561.826 481.703 561.922 481.905 562.114C482.111 562.303 482.213 562.534 482.213 562.805C482.213 563.074 482.111 563.304 481.905 563.496C481.703 563.685 481.458 563.78 481.169 563.78ZM483.915 572.5V564.864H485.66V566.136H485.74C485.879 565.696 486.117 565.356 486.455 565.117C486.797 564.875 487.186 564.754 487.624 564.754C487.723 564.754 487.834 564.759 487.957 564.769C488.083 564.776 488.187 564.787 488.27 564.804V566.46C488.194 566.433 488.073 566.41 487.907 566.39C487.745 566.367 487.587 566.355 487.435 566.355C487.107 566.355 486.812 566.426 486.55 566.569C486.291 566.708 486.088 566.902 485.938 567.151C485.789 567.399 485.715 567.686 485.715 568.011V572.5H483.915ZM493.018 572.5V562.318H496.836C497.618 562.318 498.275 562.464 498.805 562.756C499.338 563.047 499.741 563.448 500.013 563.959C500.288 564.466 500.426 565.043 500.426 565.689C500.426 566.342 500.288 566.922 500.013 567.429C499.738 567.936 499.332 568.335 498.795 568.627C498.258 568.915 497.597 569.06 496.811 569.06H494.281V567.543H496.563C497.02 567.543 497.395 567.464 497.686 567.305C497.978 567.146 498.193 566.927 498.333 566.648C498.475 566.37 498.546 566.05 498.546 565.689C498.546 565.328 498.475 565.009 498.333 564.734C498.193 564.459 497.976 564.246 497.681 564.093C497.39 563.937 497.013 563.859 496.553 563.859H494.862V572.5H493.018ZM505.219 572.649C504.454 572.649 503.793 572.49 503.236 572.172C502.682 571.85 502.256 571.396 501.958 570.81C501.66 570.22 501.511 569.525 501.511 568.727C501.511 567.941 501.66 567.252 501.958 566.658C502.26 566.062 502.681 565.598 503.221 565.266C503.761 564.932 504.396 564.764 505.125 564.764C505.596 564.764 506.04 564.84 506.457 564.993C506.878 565.142 507.25 565.374 507.571 565.689C507.896 566.004 508.151 566.405 508.337 566.892C508.522 567.376 508.615 567.953 508.615 568.622V569.174H502.356V567.961H506.89C506.887 567.616 506.812 567.31 506.666 567.041C506.52 566.769 506.317 566.556 506.055 566.4C505.796 566.244 505.495 566.166 505.15 566.166C504.782 566.166 504.459 566.256 504.18 566.435C503.902 566.61 503.685 566.842 503.529 567.131C503.377 567.416 503.299 567.729 503.295 568.07V569.129C503.295 569.573 503.377 569.955 503.539 570.273C503.701 570.588 503.929 570.83 504.22 570.999C504.512 571.164 504.853 571.247 505.244 571.247C505.506 571.247 505.743 571.211 505.955 571.138C506.167 571.062 506.351 570.951 506.507 570.805C506.663 570.659 506.781 570.478 506.86 570.263L508.54 570.452C508.434 570.896 508.232 571.284 507.934 571.615C507.639 571.943 507.261 572.198 506.8 572.381C506.34 572.56 505.813 572.649 505.219 572.649ZM510.138 572.5V564.864H511.883V566.136H511.962C512.101 565.696 512.34 565.356 512.678 565.117C513.019 564.875 513.409 564.754 513.846 564.754C513.946 564.754 514.057 564.759 514.18 564.769C514.305 564.776 514.41 564.787 514.493 564.804V566.46C514.416 566.433 514.296 566.41 514.13 566.39C513.967 566.367 513.81 566.355 513.657 566.355C513.329 566.355 513.034 566.426 512.773 566.569C512.514 566.708 512.31 566.902 512.161 567.151C512.012 567.399 511.937 567.686 511.937 568.011V572.5H510.138ZM519.966 564.864V566.256H515.452V564.864H519.966ZM516.581 572.5V564.143C516.581 563.629 516.687 563.201 516.899 562.86C517.114 562.519 517.403 562.263 517.764 562.094C518.125 561.925 518.526 561.841 518.967 561.841C519.279 561.841 519.555 561.866 519.797 561.915C520.039 561.965 520.218 562.01 520.334 562.05L519.976 563.442C519.9 563.419 519.804 563.395 519.688 563.372C519.572 563.346 519.443 563.332 519.3 563.332C518.965 563.332 518.729 563.414 518.589 563.576C518.453 563.735 518.385 563.964 518.385 564.262V572.5H516.581ZM521.376 572.5V564.864H523.176V572.5H521.376ZM522.281 563.78C521.996 563.78 521.75 563.685 521.545 563.496C521.339 563.304 521.237 563.074 521.237 562.805C521.237 562.534 521.339 562.303 521.545 562.114C521.75 561.922 521.996 561.826 522.281 561.826C522.569 561.826 522.814 561.922 523.017 562.114C523.222 562.303 523.325 562.534 523.325 562.805C523.325 563.074 523.222 563.304 523.017 563.496C522.814 563.685 522.569 563.78 522.281 563.78ZM526.826 562.318V572.5H525.026V562.318H526.826Z" fill="#690005"/>
<path fill-rule="evenodd" clip-rule="evenodd" d="M538.515 565.674C538.341 565.848 538.203 566.055 538.108 566.282C538.014 566.51 537.966 566.754 537.966 567C537.966 567.246 538.014 567.49 538.108 567.718C538.203 567.945 538.341 568.152 538.515 568.326L544.89 574.7C545.242 575.051 545.719 575.249 546.216 575.249H555.5C556.296 575.249 557.059 574.933 557.621 574.37C558.184 573.808 558.5 573.045 558.5 572.249V561.75C558.5 560.954 558.184 560.191 557.621 559.629C557.059 559.066 556.296 558.75 555.5 558.75H546.216C545.719 558.75 545.242 558.948 544.89 559.3L538.515 565.674ZM548.53 564.22C548.461 564.146 548.379 564.087 548.287 564.046C548.195 564.005 548.095 563.983 547.995 563.981C547.894 563.98 547.794 563.998 547.7 564.036C547.607 564.074 547.522 564.13 547.451 564.201C547.38 564.272 547.324 564.357 547.286 564.45C547.248 564.544 547.23 564.644 547.231 564.745C547.233 564.845 547.255 564.945 547.296 565.037C547.337 565.129 547.396 565.211 547.47 565.28L549.19 567L547.47 568.72C547.396 568.789 547.337 568.871 547.296 568.963C547.255 569.055 547.233 569.155 547.231 569.255C547.23 569.356 547.248 569.456 547.286 569.55C547.324 569.643 547.38 569.728 547.451 569.799C547.522 569.87 547.607 569.926 547.7 569.964C547.794 570.002 547.894 570.02 547.995 570.019C548.095 570.017 548.195 569.995 548.287 569.954C548.379 569.913 548.461 569.854 548.53 569.78L550.25 568.06L551.97 569.78C552.039 569.854 552.122 569.913 552.214 569.954C552.306 569.995 552.405 570.017 552.506 570.019C552.606 570.02 552.706 570.002 552.8 569.964C552.893 569.926 552.978 569.87 553.049 569.799C553.12 569.728 553.176 569.643 553.214 569.55C553.252 569.456 553.27 569.356 553.269 569.255C553.267 569.155 553.245 569.055 553.204 568.963C553.163 568.871 553.104 568.789 553.03 568.72L551.31 567L553.03 565.28C553.104 565.211 553.163 565.129 553.204 565.037C553.245 564.945 553.267 564.845 553.269 564.745C553.27 564.644 553.252 564.544 553.214 564.45C553.176 564.357 553.12 564.272 553.049 564.201C552.978 564.13 552.893 564.074 552.8 564.036C552.706 563.998 552.606 563.98 552.506 563.981C552.405 563.983 552.306 564.005 552.214 564.046C552.122 564.087 552.039 564.146 551.97 564.22L550.25 565.94L548.53 564.22Z" fill="#690005"/>
<path d="M29.568 20.76L21.216 43H16.992L8.608 20.76H12.512L19.104 39.256L25.728 20.76H29.568ZM34.4748 23.032C33.8134 23.032 33.2588 22.808 32.8108 22.36C32.3628 21.912 32.1388 21.3573 32.1388 20.696C32.1388 20.0347 32.3628 19.48 32.8108 19.032C33.2588 18.584 33.8134 18.36 34.4748 18.36C35.1148 18.36 35.6588 18.584 36.1068 19.032C36.5548 19.48 36.7788 20.0347 36.7788 20.696C36.7788 21.3573 36.5548 21.912 36.1068 22.36C35.6588 22.808 35.1148 23.032 34.4748 23.032ZM36.2668 25.368V43H32.6188V25.368H36.2668ZM39.8403 34.104C39.8403 32.3333 40.2029 30.7653 40.9283 29.4C41.6749 28.0347 42.6776 26.9787 43.9363 26.232C45.2163 25.464 46.6349 25.08 48.1923 25.08C49.3443 25.08 50.4749 25.336 51.5843 25.848C52.7149 26.3387 53.6109 27 54.2723 27.832V19.32H57.9523V43H54.2723V40.344C53.6749 41.1973 52.8429 41.9013 51.7763 42.456C50.7309 43.0107 49.5256 43.288 48.1603 43.288C46.6243 43.288 45.2163 42.904 43.9363 42.136C42.6776 41.3467 41.6749 40.2587 40.9283 38.872C40.2029 37.464 39.8403 35.8747 39.8403 34.104ZM54.2723 34.168C54.2723 32.952 54.0163 31.896 53.5043 31C53.0136 30.104 52.3629 29.4213 51.5523 28.952C50.7416 28.4827 49.8669 28.248 48.9283 28.248C47.9896 28.248 47.1149 28.4827 46.3043 28.952C45.4936 29.4 44.8323 30.072 44.3203 30.968C43.8296 31.8427 43.5843 32.888 43.5843 34.104C43.5843 35.32 43.8296 36.3867 44.3203 37.304C44.8323 38.2213 45.4936 38.9253 46.3043 39.416C47.1363 39.8853 48.0109 40.12 48.9283 40.12C49.8669 40.12 50.7416 39.8853 51.5523 39.416C52.3629 38.9467 53.0136 38.264 53.5043 37.368C54.0163 36.4507 54.2723 35.384 54.2723 34.168ZM61.5278 34.104C61.5278 32.3333 61.8904 30.7653 62.6158 29.4C63.3624 28.0347 64.3651 26.9787 65.6238 26.232C66.9038 25.464 68.3118 25.08 69.8478 25.08C71.2344 25.08 72.4398 25.3573 73.4638 25.912C74.5091 26.4453 75.3411 27.1173 75.9598 27.928V25.368H79.6398V43H75.9598V40.376C75.3411 41.208 74.4984 41.9013 73.4318 42.456C72.3651 43.0107 71.1491 43.288 69.7838 43.288C68.2691 43.288 66.8824 42.904 65.6238 42.136C64.3651 41.3467 63.3624 40.2587 62.6158 38.872C61.8904 37.464 61.5278 35.8747 61.5278 34.104ZM75.9598 34.168C75.9598 32.952 75.7038 31.896 75.1918 31C74.7011 30.104 74.0504 29.4213 73.2398 28.952C72.4291 28.4827 71.5544 28.248 70.6158 28.248C69.6771 28.248 68.8024 28.4827 67.9918 28.952C67.1811 29.4 66.5198 30.072 66.0078 30.968C65.5171 31.8427 65.2718 32.888 65.2718 34.104C65.2718 35.32 65.5171 36.3867 66.0078 37.304C66.5198 38.2213 67.1811 38.9253 67.9918 39.416C68.8238 39.8853 69.6984 40.12 70.6158 40.12C71.5544 40.12 72.4291 39.8853 73.2398 39.416C74.0504 38.9467 74.7011 38.264 75.1918 37.368C75.7038 36.4507 75.9598 35.384 75.9598 34.168ZM101.615 32.984H95.1513V39.608H91.7593V32.984H85.2953V29.912H91.7593V23.288H95.1513V29.912H101.615V32.984Z" fill="url(#paint0_linear_72_14)"/>
<rect x="517" y="16" width="75" height="32" rx="12" fill="#FFB4AB"/>
<path d="M531.538 30.1172C531.491 29.683 531.296 29.3449 530.951 29.103C530.61 28.861 530.165 28.7401 529.619 28.7401C529.234 28.7401 528.904 28.7981 528.629 28.9141C528.354 29.0301 528.144 29.1875 527.998 29.3864C527.852 29.5852 527.777 29.8123 527.774 30.0675C527.774 30.2796 527.822 30.4635 527.918 30.6193C528.018 30.7751 528.152 30.9077 528.321 31.017C528.49 31.1231 528.677 31.2126 528.883 31.2855C529.088 31.3584 529.295 31.4197 529.504 31.4695L530.459 31.7081C530.843 31.7976 531.213 31.9186 531.567 32.071C531.925 32.2235 532.245 32.4157 532.527 32.6477C532.812 32.8797 533.037 33.1598 533.203 33.4879C533.369 33.8161 533.452 34.2005 533.452 34.6413C533.452 35.2379 533.299 35.7633 532.994 36.2173C532.689 36.6681 532.249 37.0211 531.672 37.2763C531.098 37.5282 530.404 37.6541 529.589 37.6541C528.797 37.6541 528.109 37.5315 527.526 37.2862C526.946 37.041 526.491 36.683 526.163 36.2124C525.839 35.7417 525.663 35.1683 525.636 34.4922H527.451C527.478 34.8468 527.587 35.1418 527.779 35.3771C527.971 35.6125 528.222 35.7881 528.53 35.9041C528.841 36.0201 529.189 36.0781 529.574 36.0781C529.975 36.0781 530.326 36.0185 530.628 35.8991C530.933 35.7765 531.171 35.6075 531.344 35.392C531.516 35.1733 531.604 34.9181 531.607 34.6264C531.604 34.3613 531.526 34.1425 531.374 33.9702C531.221 33.7945 531.007 33.6487 530.732 33.5327C530.46 33.4134 530.142 33.3073 529.778 33.2145L528.619 32.9162C527.781 32.7008 527.118 32.3743 526.631 31.9368C526.147 31.496 525.905 30.911 525.905 30.1818C525.905 29.5819 526.067 29.0566 526.392 28.6058C526.72 28.1551 527.166 27.8054 527.729 27.5568C528.293 27.3049 528.931 27.179 529.643 27.179C530.366 27.179 530.999 27.3049 531.543 27.5568C532.089 27.8054 532.519 28.1518 532.83 28.5959C533.142 29.0367 533.303 29.5438 533.312 30.1172H531.538ZM537.214 37.6541C536.73 37.6541 536.294 37.5679 535.906 37.3956C535.522 37.2199 535.217 36.9614 534.992 36.62C534.77 36.2786 534.659 35.8577 534.659 35.3572C534.659 34.9264 534.738 34.5701 534.897 34.2884C535.056 34.0066 535.273 33.7812 535.548 33.6122C535.824 33.4432 536.133 33.3156 536.478 33.2294C536.826 33.1399 537.186 33.0753 537.557 33.0355C538.004 32.9891 538.367 32.9477 538.646 32.9112C538.924 32.8714 539.126 32.8118 539.252 32.7322C539.382 32.6494 539.446 32.5218 539.446 32.3494V32.3196C539.446 31.9451 539.335 31.6551 539.113 31.4496C538.891 31.2441 538.571 31.1413 538.154 31.1413C537.713 31.1413 537.363 31.2375 537.105 31.4297C536.849 31.6219 536.677 31.849 536.588 32.1108L534.907 31.8722C535.04 31.4081 535.258 31.0204 535.563 30.7088C535.868 30.3939 536.241 30.1586 536.682 30.0028C537.123 29.8438 537.61 29.7642 538.144 29.7642C538.512 29.7642 538.878 29.8073 539.242 29.8935C539.607 29.9796 539.94 30.1222 540.242 30.321C540.543 30.5166 540.785 30.7834 540.968 31.1214C541.153 31.4595 541.246 31.8821 541.246 32.3892V37.5H539.516V36.451H539.456C539.347 36.6631 539.193 36.862 538.994 37.0476C538.798 37.2299 538.551 37.3774 538.253 37.4901C537.958 37.5994 537.612 37.6541 537.214 37.6541ZM537.681 36.3317C538.043 36.3317 538.356 36.2604 538.621 36.1179C538.886 35.9721 539.09 35.7798 539.232 35.5412C539.378 35.3026 539.451 35.0424 539.451 34.7607V33.8608C539.395 33.9072 539.299 33.9503 539.163 33.9901C539.03 34.0298 538.881 34.0646 538.715 34.0945C538.55 34.1243 538.386 34.1508 538.223 34.174C538.061 34.1972 537.92 34.2171 537.801 34.2337C537.532 34.2701 537.292 34.3298 537.08 34.4126C536.868 34.4955 536.7 34.6115 536.578 34.7607C536.455 34.9065 536.394 35.0954 536.394 35.3274C536.394 35.6589 536.515 35.9091 536.757 36.0781C536.999 36.2472 537.307 36.3317 537.681 36.3317ZM543.056 37.5V29.8636H544.855V37.5H543.056ZM543.96 28.7798C543.675 28.7798 543.43 28.6854 543.225 28.4964C543.019 28.3042 542.916 28.0739 542.916 27.8054C542.916 27.5336 543.019 27.3033 543.225 27.1143C543.43 26.9221 543.675 26.826 543.96 26.826C544.249 26.826 544.494 26.9221 544.696 27.1143C544.902 27.3033 545.004 27.5336 545.004 27.8054C545.004 28.0739 544.902 28.3042 544.696 28.4964C544.494 28.6854 544.249 28.7798 543.96 28.7798ZM546.706 37.5V29.8636H548.451V31.1364H548.531C548.67 30.6955 548.908 30.3558 549.246 30.1172C549.588 29.8752 549.977 29.7543 550.415 29.7543C550.514 29.7543 550.625 29.7592 550.748 29.7692C550.874 29.7758 550.978 29.7874 551.061 29.804V31.4595C550.985 31.433 550.864 31.4098 550.698 31.3899C550.536 31.3667 550.378 31.3551 550.226 31.3551C549.898 31.3551 549.603 31.4264 549.341 31.5689C549.082 31.7081 548.879 31.902 548.729 32.1506C548.58 32.3991 548.506 32.6858 548.506 33.0107V37.5H546.706Z" fill="#690005"/>
<path fill-rule="evenodd" clip-rule="evenodd" d="M567.5 23.75C567.102 23.75 566.721 23.908 566.439 24.1893C566.158 24.4706 566 24.8522 566 25.25V38.75C566 39.1478 566.158 39.5294 566.439 39.8107C566.721 40.092 567.102 40.25 567.5 40.25H573.5C573.898 40.25 574.279 40.092 574.561 39.8107C574.842 39.5294 575 39.1478 575 38.75V35C575 34.8011 575.079 34.6103 575.22 34.4697C575.36 34.329 575.551 34.25 575.75 34.25C575.949 34.25 576.14 34.329 576.28 34.4697C576.421 34.6103 576.5 34.8011 576.5 35V38.75C576.5 39.5456 576.184 40.3087 575.621 40.8713C575.059 41.4339 574.296 41.75 573.5 41.75H567.5C566.704 41.75 565.941 41.4339 565.379 40.8713C564.816 40.3087 564.5 39.5456 564.5 38.75V25.25C564.5 24.4544 564.816 23.6913 565.379 23.1287C565.941 22.5661 566.704 22.25 567.5 22.25H573.5C574.296 22.25 575.059 22.5661 575.621 23.1287C576.184 23.6913 576.5 24.4544 576.5 25.25V29C576.5 29.1989 576.421 29.3897 576.28 29.5303C576.14 29.671 575.949 29.75 575.75 29.75C575.551 29.75 575.36 29.671 575.22 29.5303C575.079 29.3897 575 29.1989 575 29V25.25C575 24.8522 574.842 24.4706 574.561 24.1893C574.279 23.908 573.898 23.75 573.5 23.75H567.5ZM578.22 28.47C578.361 28.3295 578.551 28.2507 578.75 28.2507C578.949 28.2507 579.139 28.3295 579.28 28.47L582.28 31.47C582.42 31.6106 582.499 31.8012 582.499 32C582.499 32.1988 582.42 32.3894 582.28 32.53L579.28 35.53C579.211 35.6037 579.129 35.6628 579.037 35.7038C578.945 35.7448 578.845 35.7668 578.745 35.7686C578.644 35.7704 578.544 35.7518 578.45 35.7141C578.357 35.6764 578.272 35.6203 578.201 35.549C578.13 35.4778 578.074 35.393 578.036 35.2996C577.998 35.2062 577.98 35.1062 577.981 35.0055C577.983 34.9048 578.005 34.8055 578.046 34.7135C578.087 34.6215 578.146 34.5387 578.22 34.47L579.94 32.75H569C568.801 32.75 568.61 32.671 568.47 32.5303C568.329 32.3897 568.25 32.1989 568.25 32C568.25 31.8011 568.329 31.6103 568.47 31.4697C568.61 31.329 568.801 31.25 569 31.25H579.94L578.22 29.53C578.08 29.3894 578.001 29.1988 578.001 29C578.001 28.8012 578.08 28.6106 578.22 28.47Z" fill="#690005"/>
<defs>
<linearGradient id="paint0_linear_72_14" x1="8" y1="8" x2="56.5" y2="56" gradientUnits="userSpaceOnUse">
<stop stop-color="#00363C"/>
<stop offset="1" stop-color="#B1CBCF"/>
</linearGradient>
</defs>
</svg>
